ISO-10303-21;
HEADER;
/* Generated by software containing ST-Developer
 * from STEP Tools, Inc. (www.steptools.com) 
 */

FILE_DESCRIPTION(
/* description */ ('Fiber holer FCPC'),
/* implementation_level */ '2;1');

FILE_NAME(
/* name */ 'BUY - Fiber holder - FCPC.stp',
/* time_stamp */ '2026-09-21T16:34:33+02:00',
/* author */ ('benir'),
/* organization */ (''),
/* preprocessor_version */ 'ST-DEVELOPER v20',
/* originating_system */ 'Autodesk Inventor 2025',
/* authorisation */ '');

FILE_SCHEMA (('AUTOMOTIVE_DESIGN { 1 0 10303 214 3 1 1 }'));
ENDSEC;

DATA;
#10=MECHANICAL_DESIGN_GEOMETRIC_PRESENTATION_REPRESENTATION('',(#13),#1078);
#11=SHAPE_REPRESENTATION_RELATIONSHIP('SRR','None',#1085,#12);
#12=ADVANCED_BREP_SHAPE_REPRESENTATION('',(#14),#1077);
#13=STYLED_ITEM('',(#1094),#14);
#14=MANIFOLD_SOLID_BREP('Volumenk\X\F6rper2',#605);
#15=B_SPLINE_CURVE_WITH_KNOTS('',3,(#951,#952,#953,#954,#955,#956,#957,
#958,#959,#960,#961,#962,#963,#964,#965,#966,#967,#968),.UNSPECIFIED.,.F.,
 .F.,(4,2,2,2,2,2,2,2,4),(-0.318028927146945,-0.278271911651504,-0.238514896156063,
-0.198764679864768,-0.159014463573472,-0.119264247282177,-0.0795140309908819,
-0.039757015495441,0.),.UNSPECIFIED.);
#16=B_SPLINE_CURVE_WITH_KNOTS('',3,(#969,#970,#971,#972,#973,#974,#975,
#976,#977,#978,#979,#980,#981,#982,#983,#984,#985,#986),.UNSPECIFIED.,.F.,
 .F.,(4,2,2,2,2,2,2,2,4),(0.,0.0399056204006872,0.0798112408013744,0.119697057110296,
0.159582873419218,0.199468689728139,0.239354506037061,0.279260126437748,
0.319165746838435),.UNSPECIFIED.);
#17=CYLINDRICAL_SURFACE('',#643,1.05);
#18=CYLINDRICAL_SURFACE('',#644,3.1);
#19=CYLINDRICAL_SURFACE('',#651,4.);
#20=CYLINDRICAL_SURFACE('',#656,4.15);
#21=CYLINDRICAL_SURFACE('',#658,2.2);
#22=CYLINDRICAL_SURFACE('',#661,4.);
#23=CYLINDRICAL_SURFACE('',#665,3.5);
#24=CYLINDRICAL_SURFACE('',#671,2.);
#25=CYLINDRICAL_SURFACE('',#672,1.1);
#26=CYLINDRICAL_SURFACE('',#677,2.);
#27=CYLINDRICAL_SURFACE('',#678,1.1);
#28=CYLINDRICAL_SURFACE('',#683,2.);
#29=CYLINDRICAL_SURFACE('',#684,1.1);
#30=CYLINDRICAL_SURFACE('',#689,2.);
#31=CYLINDRICAL_SURFACE('',#690,1.1);
#32=FACE_BOUND('',#119,.T.);
#33=FACE_BOUND('',#120,.T.);
#34=FACE_BOUND('',#121,.T.);
#35=FACE_BOUND('',#122,.T.);
#36=FACE_BOUND('',#123,.T.);
#37=FACE_BOUND('',#136,.T.);
#38=FACE_BOUND('',#140,.T.);
#39=FACE_BOUND('',#143,.T.);
#40=FACE_BOUND('',#146,.T.);
#41=FACE_BOUND('',#148,.T.);
#42=FACE_BOUND('',#152,.T.);
#43=FACE_BOUND('',#156,.T.);
#44=FACE_BOUND('',#160,.T.);
#45=FACE_BOUND('',#165,.T.);
#46=FACE_BOUND('',#166,.T.);
#47=FACE_BOUND('',#167,.T.);
#48=FACE_BOUND('',#168,.T.);
#49=FACE_BOUND('',#169,.T.);
#50=CIRCLE('',#631,4.15);
#51=CIRCLE('',#632,2.);
#52=CIRCLE('',#633,2.);
#53=CIRCLE('',#634,2.);
#54=CIRCLE('',#635,2.);
#55=CIRCLE('',#645,3.1);
#56=CIRCLE('',#646,3.1);
#57=CIRCLE('',#647,3.1);
#58=CIRCLE('',#649,4.);
#59=CIRCLE('',#650,4.);
#60=CIRCLE('',#652,4.);
#61=CIRCLE('',#653,4.);
#62=CIRCLE('',#655,2.2);
#63=CIRCLE('',#657,4.15);
#64=CIRCLE('',#659,2.2);
#65=CIRCLE('',#662,4.);
#66=CIRCLE('',#664,3.5);
#67=CIRCLE('',#666,3.5);
#68=CIRCLE('',#669,2.);
#69=CIRCLE('',#670,1.1);
#70=CIRCLE('',#673,1.1);
#71=CIRCLE('',#675,2.);
#72=CIRCLE('',#676,1.1);
#73=CIRCLE('',#679,1.1);
#74=CIRCLE('',#681,2.);
#75=CIRCLE('',#682,1.1);
#76=CIRCLE('',#685,1.1);
#77=CIRCLE('',#687,2.);
#78=CIRCLE('',#688,1.1);
#79=CIRCLE('',#691,1.1);
#80=FACE_OUTER_BOUND('',#116,.T.);
#81=FACE_OUTER_BOUND('',#117,.T.);
#82=FACE_OUTER_BOUND('',#118,.T.);
#83=FACE_OUTER_BOUND('',#124,.T.);
#84=FACE_OUTER_BOUND('',#125,.T.);
#85=FACE_OUTER_BOUND('',#126,.T.);
#86=FACE_OUTER_BOUND('',#127,.T.);
#87=FACE_OUTER_BOUND('',#128,.T.);
#88=FACE_OUTER_BOUND('',#129,.T.);
#89=FACE_OUTER_BOUND('',#130,.T.);
#90=FACE_OUTER_BOUND('',#131,.T.);
#91=FACE_OUTER_BOUND('',#132,.T.);
#92=FACE_OUTER_BOUND('',#133,.T.);
#93=FACE_OUTER_BOUND('',#134,.T.);
#94=FACE_OUTER_BOUND('',#135,.T.);
#95=FACE_OUTER_BOUND('',#137,.T.);
#96=FACE_OUTER_BOUND('',#138,.T.);
#97=FACE_OUTER_BOUND('',#139,.T.);
#98=FACE_OUTER_BOUND('',#141,.T.);
#99=FACE_OUTER_BOUND('',#142,.T.);
#100=FACE_OUTER_BOUND('',#144,.T.);
#101=FACE_OUTER_BOUND('',#145,.T.);
#102=FACE_OUTER_BOUND('',#147,.T.);
#103=FACE_OUTER_BOUND('',#149,.T.);
#104=FACE_OUTER_BOUND('',#150,.T.);
#105=FACE_OUTER_BOUND('',#151,.T.);
#106=FACE_OUTER_BOUND('',#153,.T.);
#107=FACE_OUTER_BOUND('',#154,.T.);
#108=FACE_OUTER_BOUND('',#155,.T.);
#109=FACE_OUTER_BOUND('',#157,.T.);
#110=FACE_OUTER_BOUND('',#158,.T.);
#111=FACE_OUTER_BOUND('',#159,.T.);
#112=FACE_OUTER_BOUND('',#161,.T.);
#113=FACE_OUTER_BOUND('',#162,.T.);
#114=FACE_OUTER_BOUND('',#163,.T.);
#115=FACE_OUTER_BOUND('',#164,.T.);
#116=EDGE_LOOP('',(#392,#393,#394,#395));
#117=EDGE_LOOP('',(#396,#397,#398,#399));
#118=EDGE_LOOP('',(#400,#401,#402,#403,#404,#405,#406,#407));
#119=EDGE_LOOP('',(#408));
#120=EDGE_LOOP('',(#409));
#121=EDGE_LOOP('',(#410));
#122=EDGE_LOOP('',(#411));
#123=EDGE_LOOP('',(#412));
#124=EDGE_LOOP('',(#413,#414,#415,#416));
#125=EDGE_LOOP('',(#417,#418,#419,#420));
#126=EDGE_LOOP('',(#421,#422,#423,#424));
#127=EDGE_LOOP('',(#425,#426,#427,#428));
#128=EDGE_LOOP('',(#429,#430,#431,#432));
#129=EDGE_LOOP('',(#433,#434,#435,#436));
#130=EDGE_LOOP('',(#437,#438,#439,#440));
#131=EDGE_LOOP('',(#441,#442,#443,#444));
#132=EDGE_LOOP('',(#445,#446,#447,#448,#449,#450,#451,#452));
#133=EDGE_LOOP('',(#453,#454,#455,#456,#457,#458));
#134=EDGE_LOOP('',(#459,#460,#461,#462));
#135=EDGE_LOOP('',(#463));
#136=EDGE_LOOP('',(#464));
#137=EDGE_LOOP('',(#465,#466,#467,#468));
#138=EDGE_LOOP('',(#469,#470,#471,#472));
#139=EDGE_LOOP('',(#473));
#140=EDGE_LOOP('',(#474));
#141=EDGE_LOOP('',(#475,#476,#477,#478,#479,#480,#481,#482));
#142=EDGE_LOOP('',(#483));
#143=EDGE_LOOP('',(#484));
#144=EDGE_LOOP('',(#485,#486,#487,#488));
#145=EDGE_LOOP('',(#489));
#146=EDGE_LOOP('',(#490));
#147=EDGE_LOOP('',(#491));
#148=EDGE_LOOP('',(#492));
#149=EDGE_LOOP('',(#493,#494,#495,#496));
#150=EDGE_LOOP('',(#497,#498,#499,#500));
#151=EDGE_LOOP('',(#501));
#152=EDGE_LOOP('',(#502));
#153=EDGE_LOOP('',(#503,#504,#505,#506));
#154=EDGE_LOOP('',(#507,#508,#509,#510));
#155=EDGE_LOOP('',(#511));
#156=EDGE_LOOP('',(#512));
#157=EDGE_LOOP('',(#513,#514,#515,#516));
#158=EDGE_LOOP('',(#517,#518,#519,#520));
#159=EDGE_LOOP('',(#521));
#160=EDGE_LOOP('',(#522));
#161=EDGE_LOOP('',(#523,#524,#525,#526));
#162=EDGE_LOOP('',(#527,#528,#529,#530));
#163=EDGE_LOOP('',(#531,#532,#533,#534));
#164=EDGE_LOOP('',(#535,#536,#537,#538,#539,#540,#541,#542));
#165=EDGE_LOOP('',(#543));
#166=EDGE_LOOP('',(#544));
#167=EDGE_LOOP('',(#545));
#168=EDGE_LOOP('',(#546));
#169=EDGE_LOOP('',(#547));
#170=LINE('',#878,#216);
#171=LINE('',#880,#217);
#172=LINE('',#882,#218);
#173=LINE('',#883,#219);
#174=LINE('',#886,#220);
#175=LINE('',#888,#221);
#176=LINE('',#889,#222);
#177=LINE('',#892,#223);
#178=LINE('',#894,#224);
#179=LINE('',#896,#225);
#180=LINE('',#898,#226);
#181=LINE('',#900,#227);
#182=LINE('',#901,#228);
#183=LINE('',#914,#229);
#184=LINE('',#915,#230);
#185=LINE('',#918,#231);
#186=LINE('',#919,#232);
#187=LINE('',#923,#233);
#188=LINE('',#924,#234);
#189=LINE('',#925,#235);
#190=LINE('',#927,#236);
#191=LINE('',#930,#237);
#192=LINE('',#931,#238);
#193=LINE('',#935,#239);
#194=LINE('',#937,#240);
#195=LINE('',#939,#241);
#196=LINE('',#940,#242);
#197=LINE('',#944,#243);
#198=LINE('',#946,#244);
#199=LINE('',#948,#245);
#200=LINE('',#949,#246);
#201=LINE('',#991,#247);
#202=LINE('',#1002,#248);
#203=LINE('',#1009,#249);
#204=LINE('',#1013,#250);
#205=LINE('',#1019,#251);
#206=LINE('',#1026,#252);
#207=LINE('',#1034,#253);
#208=LINE('',#1037,#254);
#209=LINE('',#1045,#255);
#210=LINE('',#1048,#256);
#211=LINE('',#1056,#257);
#212=LINE('',#1059,#258);
#213=LINE('',#1067,#259);
#214=LINE('',#1070,#260);
#215=LINE('',#1073,#261);
#216=VECTOR('',#698,10.);
#217=VECTOR('',#699,10.);
#218=VECTOR('',#700,10.);
#219=VECTOR('',#701,10.);
#220=VECTOR('',#704,10.);
#221=VECTOR('',#705,10.);
#222=VECTOR('',#706,10.);
#223=VECTOR('',#709,10.);
#224=VECTOR('',#710,10.);
#225=VECTOR('',#711,10.);
#226=VECTOR('',#712,10.);
#227=VECTOR('',#713,10.);
#228=VECTOR('',#714,10.);
#229=VECTOR('',#727,10.);
#230=VECTOR('',#728,10.);
#231=VECTOR('',#731,10.);
#232=VECTOR('',#732,10.);
#233=VECTOR('',#735,10.);
#234=VECTOR('',#736,10.);
#235=VECTOR('',#737,10.);
#236=VECTOR('',#740,10.);
#237=VECTOR('',#743,10.);
#238=VECTOR('',#744,10.);
#239=VECTOR('',#747,10.);
#240=VECTOR('',#748,10.);
#241=VECTOR('',#749,10.);
#242=VECTOR('',#750,10.);
#243=VECTOR('',#753,10.);
#244=VECTOR('',#754,10.);
#245=VECTOR('',#755,10.);
#246=VECTOR('',#756,10.);
#247=VECTOR('',#763,3.1);
#248=VECTOR('',#778,4.);
#249=VECTOR('',#787,4.15);
#250=VECTOR('',#792,2.2);
#251=VECTOR('',#801,4.);
#252=VECTOR('',#810,3.5);
#253=VECTOR('',#821,2.);
#254=VECTOR('',#824,1.1);
#255=VECTOR('',#835,2.);
#256=VECTOR('',#838,1.1);
#257=VECTOR('',#849,2.);
#258=VECTOR('',#852,1.1);
#259=VECTOR('',#863,2.);
#260=VECTOR('',#866,1.1);
#261=VECTOR('',#871,10.);
#262=VERTEX_POINT('',#876);
#263=VERTEX_POINT('',#877);
#264=VERTEX_POINT('',#879);
#265=VERTEX_POINT('',#881);
#266=VERTEX_POINT('',#885);
#267=VERTEX_POINT('',#887);
#268=VERTEX_POINT('',#891);
#269=VERTEX_POINT('',#893);
#270=VERTEX_POINT('',#895);
#271=VERTEX_POINT('',#897);
#272=VERTEX_POINT('',#899);
#273=VERTEX_POINT('',#902);
#274=VERTEX_POINT('',#904);
#275=VERTEX_POINT('',#906);
#276=VERTEX_POINT('',#908);
#277=VERTEX_POINT('',#910);
#278=VERTEX_POINT('',#913);
#279=VERTEX_POINT('',#917);
#280=VERTEX_POINT('',#921);
#281=VERTEX_POINT('',#922);
#282=VERTEX_POINT('',#929);
#283=VERTEX_POINT('',#933);
#284=VERTEX_POINT('',#934);
#285=VERTEX_POINT('',#936);
#286=VERTEX_POINT('',#938);
#287=VERTEX_POINT('',#942);
#288=VERTEX_POINT('',#943);
#289=VERTEX_POINT('',#945);
#290=VERTEX_POINT('',#947);
#291=VERTEX_POINT('',#988);
#292=VERTEX_POINT('',#990);
#293=VERTEX_POINT('',#995);
#294=VERTEX_POINT('',#999);
#295=VERTEX_POINT('',#1001);
#296=VERTEX_POINT('',#1005);
#297=VERTEX_POINT('',#1008);
#298=VERTEX_POINT('',#1012);
#299=VERTEX_POINT('',#1017);
#300=VERTEX_POINT('',#1021);
#301=VERTEX_POINT('',#1024);
#302=VERTEX_POINT('',#1029);
#303=VERTEX_POINT('',#1031);
#304=VERTEX_POINT('',#1036);
#305=VERTEX_POINT('',#1040);
#306=VERTEX_POINT('',#1042);
#307=VERTEX_POINT('',#1047);
#308=VERTEX_POINT('',#1051);
#309=VERTEX_POINT('',#1053);
#310=VERTEX_POINT('',#1058);
#311=VERTEX_POINT('',#1062);
#312=VERTEX_POINT('',#1064);
#313=VERTEX_POINT('',#1069);
#314=EDGE_CURVE('',#262,#263,#170,.T.);
#315=EDGE_CURVE('',#263,#264,#171,.T.);
#316=EDGE_CURVE('',#264,#265,#172,.T.);
#317=EDGE_CURVE('',#265,#262,#173,.T.);
#318=EDGE_CURVE('',#266,#265,#174,.T.);
#319=EDGE_CURVE('',#267,#266,#175,.T.);
#320=EDGE_CURVE('',#262,#267,#176,.T.);
#321=EDGE_CURVE('',#264,#268,#177,.T.);
#322=EDGE_CURVE('',#269,#268,#178,.T.);
#323=EDGE_CURVE('',#269,#270,#179,.T.);
#324=EDGE_CURVE('',#271,#270,#180,.T.);
#325=EDGE_CURVE('',#271,#272,#181,.T.);
#326=EDGE_CURVE('',#266,#272,#182,.T.);
#327=EDGE_CURVE('',#273,#273,#50,.T.);
#328=EDGE_CURVE('',#274,#274,#51,.T.);
#329=EDGE_CURVE('',#275,#275,#52,.T.);
#330=EDGE_CURVE('',#276,#276,#53,.T.);
#331=EDGE_CURVE('',#277,#277,#54,.T.);
#332=EDGE_CURVE('',#278,#267,#183,.T.);
#333=EDGE_CURVE('',#272,#278,#184,.T.);
#334=EDGE_CURVE('',#279,#271,#185,.T.);
#335=EDGE_CURVE('',#278,#279,#186,.T.);
#336=EDGE_CURVE('',#280,#281,#187,.T.);
#337=EDGE_CURVE('',#281,#269,#188,.T.);
#338=EDGE_CURVE('',#268,#280,#189,.T.);
#339=EDGE_CURVE('',#280,#263,#190,.T.);
#340=EDGE_CURVE('',#282,#279,#191,.T.);
#341=EDGE_CURVE('',#270,#282,#192,.T.);
#342=EDGE_CURVE('',#283,#284,#193,.T.);
#343=EDGE_CURVE('',#285,#283,#194,.T.);
#344=EDGE_CURVE('',#286,#285,#195,.T.);
#345=EDGE_CURVE('',#284,#286,#196,.T.);
#346=EDGE_CURVE('',#287,#288,#197,.T.);
#347=EDGE_CURVE('',#289,#287,#198,.T.);
#348=EDGE_CURVE('',#290,#289,#199,.T.);
#349=EDGE_CURVE('',#290,#288,#200,.T.);
#350=EDGE_CURVE('',#288,#283,#15,.T.);
#351=EDGE_CURVE('',#285,#290,#16,.T.);
#352=EDGE_CURVE('',#291,#291,#55,.T.);
#353=EDGE_CURVE('',#291,#292,#201,.T.);
#354=EDGE_CURVE('',#286,#292,#56,.T.);
#355=EDGE_CURVE('',#292,#289,#57,.T.);
#356=EDGE_CURVE('',#293,#287,#58,.T.);
#357=EDGE_CURVE('',#284,#293,#59,.T.);
#358=EDGE_CURVE('',#294,#294,#60,.T.);
#359=EDGE_CURVE('',#294,#295,#202,.T.);
#360=EDGE_CURVE('',#295,#295,#61,.T.);
#361=EDGE_CURVE('',#296,#296,#62,.T.);
#362=EDGE_CURVE('',#273,#297,#203,.T.);
#363=EDGE_CURVE('',#297,#297,#63,.T.);
#364=EDGE_CURVE('',#296,#298,#204,.T.);
#365=EDGE_CURVE('',#298,#298,#64,.T.);
#366=EDGE_CURVE('',#299,#299,#65,.T.);
#367=EDGE_CURVE('',#299,#293,#205,.T.);
#368=EDGE_CURVE('',#300,#300,#66,.T.);
#369=EDGE_CURVE('',#301,#301,#67,.T.);
#370=EDGE_CURVE('',#301,#300,#206,.T.);
#371=EDGE_CURVE('',#302,#302,#68,.T.);
#372=EDGE_CURVE('',#303,#303,#69,.T.);
#373=EDGE_CURVE('',#274,#302,#207,.T.);
#374=EDGE_CURVE('',#303,#304,#208,.T.);
#375=EDGE_CURVE('',#304,#304,#70,.T.);
#376=EDGE_CURVE('',#305,#305,#71,.T.);
#377=EDGE_CURVE('',#306,#306,#72,.T.);
#378=EDGE_CURVE('',#275,#305,#209,.T.);
#379=EDGE_CURVE('',#306,#307,#210,.T.);
#380=EDGE_CURVE('',#307,#307,#73,.T.);
#381=EDGE_CURVE('',#308,#308,#74,.T.);
#382=EDGE_CURVE('',#309,#309,#75,.T.);
#383=EDGE_CURVE('',#276,#308,#211,.T.);
#384=EDGE_CURVE('',#309,#310,#212,.T.);
#385=EDGE_CURVE('',#310,#310,#76,.T.);
#386=EDGE_CURVE('',#311,#311,#77,.T.);
#387=EDGE_CURVE('',#312,#312,#78,.T.);
#388=EDGE_CURVE('',#277,#311,#213,.T.);
#389=EDGE_CURVE('',#312,#313,#214,.T.);
#390=EDGE_CURVE('',#313,#313,#79,.T.);
#391=EDGE_CURVE('',#282,#281,#215,.T.);
#392=ORIENTED_EDGE('',*,*,#314,.T.);
#393=ORIENTED_EDGE('',*,*,#315,.T.);
#394=ORIENTED_EDGE('',*,*,#316,.T.);
#395=ORIENTED_EDGE('',*,*,#317,.T.);
#396=ORIENTED_EDGE('',*,*,#317,.F.);
#397=ORIENTED_EDGE('',*,*,#318,.F.);
#398=ORIENTED_EDGE('',*,*,#319,.F.);
#399=ORIENTED_EDGE('',*,*,#320,.F.);
#400=ORIENTED_EDGE('',*,*,#316,.F.);
#401=ORIENTED_EDGE('',*,*,#321,.T.);
#402=ORIENTED_EDGE('',*,*,#322,.F.);
#403=ORIENTED_EDGE('',*,*,#323,.T.);
#404=ORIENTED_EDGE('',*,*,#324,.F.);
#405=ORIENTED_EDGE('',*,*,#325,.T.);
#406=ORIENTED_EDGE('',*,*,#326,.F.);
#407=ORIENTED_EDGE('',*,*,#318,.T.);
#408=ORIENTED_EDGE('',*,*,#327,.T.);
#409=ORIENTED_EDGE('',*,*,#328,.T.);
#410=ORIENTED_EDGE('',*,*,#329,.T.);
#411=ORIENTED_EDGE('',*,*,#330,.T.);
#412=ORIENTED_EDGE('',*,*,#331,.T.);
#413=ORIENTED_EDGE('',*,*,#332,.T.);
#414=ORIENTED_EDGE('',*,*,#319,.T.);
#415=ORIENTED_EDGE('',*,*,#326,.T.);
#416=ORIENTED_EDGE('',*,*,#333,.T.);
#417=ORIENTED_EDGE('',*,*,#333,.F.);
#418=ORIENTED_EDGE('',*,*,#325,.F.);
#419=ORIENTED_EDGE('',*,*,#334,.F.);
#420=ORIENTED_EDGE('',*,*,#335,.F.);
#421=ORIENTED_EDGE('',*,*,#336,.T.);
#422=ORIENTED_EDGE('',*,*,#337,.T.);
#423=ORIENTED_EDGE('',*,*,#322,.T.);
#424=ORIENTED_EDGE('',*,*,#338,.T.);
#425=ORIENTED_EDGE('',*,*,#315,.F.);
#426=ORIENTED_EDGE('',*,*,#339,.F.);
#427=ORIENTED_EDGE('',*,*,#338,.F.);
#428=ORIENTED_EDGE('',*,*,#321,.F.);
#429=ORIENTED_EDGE('',*,*,#340,.T.);
#430=ORIENTED_EDGE('',*,*,#334,.T.);
#431=ORIENTED_EDGE('',*,*,#324,.T.);
#432=ORIENTED_EDGE('',*,*,#341,.T.);
#433=ORIENTED_EDGE('',*,*,#342,.F.);
#434=ORIENTED_EDGE('',*,*,#343,.F.);
#435=ORIENTED_EDGE('',*,*,#344,.F.);
#436=ORIENTED_EDGE('',*,*,#345,.F.);
#437=ORIENTED_EDGE('',*,*,#346,.F.);
#438=ORIENTED_EDGE('',*,*,#347,.F.);
#439=ORIENTED_EDGE('',*,*,#348,.F.);
#440=ORIENTED_EDGE('',*,*,#349,.T.);
#441=ORIENTED_EDGE('',*,*,#350,.F.);
#442=ORIENTED_EDGE('',*,*,#349,.F.);
#443=ORIENTED_EDGE('',*,*,#351,.F.);
#444=ORIENTED_EDGE('',*,*,#343,.T.);
#445=ORIENTED_EDGE('',*,*,#352,.T.);
#446=ORIENTED_EDGE('',*,*,#353,.T.);
#447=ORIENTED_EDGE('',*,*,#354,.F.);
#448=ORIENTED_EDGE('',*,*,#344,.T.);
#449=ORIENTED_EDGE('',*,*,#351,.T.);
#450=ORIENTED_EDGE('',*,*,#348,.T.);
#451=ORIENTED_EDGE('',*,*,#355,.F.);
#452=ORIENTED_EDGE('',*,*,#353,.F.);
#453=ORIENTED_EDGE('',*,*,#345,.T.);
#454=ORIENTED_EDGE('',*,*,#354,.T.);
#455=ORIENTED_EDGE('',*,*,#355,.T.);
#456=ORIENTED_EDGE('',*,*,#347,.T.);
#457=ORIENTED_EDGE('',*,*,#356,.F.);
#458=ORIENTED_EDGE('',*,*,#357,.F.);
#459=ORIENTED_EDGE('',*,*,#358,.F.);
#460=ORIENTED_EDGE('',*,*,#359,.T.);
#461=ORIENTED_EDGE('',*,*,#360,.T.);
#462=ORIENTED_EDGE('',*,*,#359,.F.);
#463=ORIENTED_EDGE('',*,*,#360,.F.);
#464=ORIENTED_EDGE('',*,*,#361,.T.);
#465=ORIENTED_EDGE('',*,*,#327,.F.);
#466=ORIENTED_EDGE('',*,*,#362,.T.);
#467=ORIENTED_EDGE('',*,*,#363,.T.);
#468=ORIENTED_EDGE('',*,*,#362,.F.);
#469=ORIENTED_EDGE('',*,*,#361,.F.);
#470=ORIENTED_EDGE('',*,*,#364,.T.);
#471=ORIENTED_EDGE('',*,*,#365,.F.);
#472=ORIENTED_EDGE('',*,*,#364,.F.);
#473=ORIENTED_EDGE('',*,*,#352,.F.);
#474=ORIENTED_EDGE('',*,*,#365,.T.);
#475=ORIENTED_EDGE('',*,*,#366,.F.);
#476=ORIENTED_EDGE('',*,*,#367,.T.);
#477=ORIENTED_EDGE('',*,*,#356,.T.);
#478=ORIENTED_EDGE('',*,*,#346,.T.);
#479=ORIENTED_EDGE('',*,*,#350,.T.);
#480=ORIENTED_EDGE('',*,*,#342,.T.);
#481=ORIENTED_EDGE('',*,*,#357,.T.);
#482=ORIENTED_EDGE('',*,*,#367,.F.);
#483=ORIENTED_EDGE('',*,*,#366,.T.);
#484=ORIENTED_EDGE('',*,*,#368,.F.);
#485=ORIENTED_EDGE('',*,*,#369,.F.);
#486=ORIENTED_EDGE('',*,*,#370,.T.);
#487=ORIENTED_EDGE('',*,*,#368,.T.);
#488=ORIENTED_EDGE('',*,*,#370,.F.);
#489=ORIENTED_EDGE('',*,*,#363,.F.);
#490=ORIENTED_EDGE('',*,*,#369,.T.);
#491=ORIENTED_EDGE('',*,*,#371,.T.);
#492=ORIENTED_EDGE('',*,*,#372,.F.);
#493=ORIENTED_EDGE('',*,*,#328,.F.);
#494=ORIENTED_EDGE('',*,*,#373,.T.);
#495=ORIENTED_EDGE('',*,*,#371,.F.);
#496=ORIENTED_EDGE('',*,*,#373,.F.);
#497=ORIENTED_EDGE('',*,*,#372,.T.);
#498=ORIENTED_EDGE('',*,*,#374,.T.);
#499=ORIENTED_EDGE('',*,*,#375,.F.);
#500=ORIENTED_EDGE('',*,*,#374,.F.);
#501=ORIENTED_EDGE('',*,*,#376,.T.);
#502=ORIENTED_EDGE('',*,*,#377,.F.);
#503=ORIENTED_EDGE('',*,*,#329,.F.);
#504=ORIENTED_EDGE('',*,*,#378,.T.);
#505=ORIENTED_EDGE('',*,*,#376,.F.);
#506=ORIENTED_EDGE('',*,*,#378,.F.);
#507=ORIENTED_EDGE('',*,*,#377,.T.);
#508=ORIENTED_EDGE('',*,*,#379,.T.);
#509=ORIENTED_EDGE('',*,*,#380,.F.);
#510=ORIENTED_EDGE('',*,*,#379,.F.);
#511=ORIENTED_EDGE('',*,*,#381,.T.);
#512=ORIENTED_EDGE('',*,*,#382,.F.);
#513=ORIENTED_EDGE('',*,*,#330,.F.);
#514=ORIENTED_EDGE('',*,*,#383,.T.);
#515=ORIENTED_EDGE('',*,*,#381,.F.);
#516=ORIENTED_EDGE('',*,*,#383,.F.);
#517=ORIENTED_EDGE('',*,*,#382,.T.);
#518=ORIENTED_EDGE('',*,*,#384,.T.);
#519=ORIENTED_EDGE('',*,*,#385,.F.);
#520=ORIENTED_EDGE('',*,*,#384,.F.);
#521=ORIENTED_EDGE('',*,*,#386,.T.);
#522=ORIENTED_EDGE('',*,*,#387,.F.);
#523=ORIENTED_EDGE('',*,*,#331,.F.);
#524=ORIENTED_EDGE('',*,*,#388,.T.);
#525=ORIENTED_EDGE('',*,*,#386,.F.);
#526=ORIENTED_EDGE('',*,*,#388,.F.);
#527=ORIENTED_EDGE('',*,*,#387,.T.);
#528=ORIENTED_EDGE('',*,*,#389,.T.);
#529=ORIENTED_EDGE('',*,*,#390,.F.);
#530=ORIENTED_EDGE('',*,*,#389,.F.);
#531=ORIENTED_EDGE('',*,*,#337,.F.);
#532=ORIENTED_EDGE('',*,*,#391,.F.);
#533=ORIENTED_EDGE('',*,*,#341,.F.);
#534=ORIENTED_EDGE('',*,*,#323,.F.);
#535=ORIENTED_EDGE('',*,*,#314,.F.);
#536=ORIENTED_EDGE('',*,*,#320,.T.);
#537=ORIENTED_EDGE('',*,*,#332,.F.);
#538=ORIENTED_EDGE('',*,*,#335,.T.);
#539=ORIENTED_EDGE('',*,*,#340,.F.);
#540=ORIENTED_EDGE('',*,*,#391,.T.);
#541=ORIENTED_EDGE('',*,*,#336,.F.);
#542=ORIENTED_EDGE('',*,*,#339,.T.);
#543=ORIENTED_EDGE('',*,*,#358,.T.);
#544=ORIENTED_EDGE('',*,*,#375,.T.);
#545=ORIENTED_EDGE('',*,*,#380,.T.);
#546=ORIENTED_EDGE('',*,*,#385,.T.);
#547=ORIENTED_EDGE('',*,*,#390,.T.);
#548=PLANE('',#628);
#549=PLANE('',#629);
#550=PLANE('',#630);
#551=PLANE('',#636);
#552=PLANE('',#637);
#553=PLANE('',#638);
#554=PLANE('',#639);
#555=PLANE('',#640);
#556=PLANE('',#641);
#557=PLANE('',#642);
#558=PLANE('',#648);
#559=PLANE('',#654);
#560=PLANE('',#660);
#561=PLANE('',#663);
#562=PLANE('',#667);
#563=PLANE('',#668);
#564=PLANE('',#674);
#565=PLANE('',#680);
#566=PLANE('',#686);
#567=PLANE('',#692);
#568=PLANE('',#693);
#569=ADVANCED_FACE('',(#80),#548,.T.);
#570=ADVANCED_FACE('',(#81),#549,.T.);
#571=ADVANCED_FACE('',(#82,#32,#33,#34,#35,#36),#550,.T.);
#572=ADVANCED_FACE('',(#83),#551,.T.);
#573=ADVANCED_FACE('',(#84),#552,.T.);
#574=ADVANCED_FACE('',(#85),#553,.T.);
#575=ADVANCED_FACE('',(#86),#554,.T.);
#576=ADVANCED_FACE('',(#87),#555,.T.);
#577=ADVANCED_FACE('',(#88),#556,.F.);
#578=ADVANCED_FACE('',(#89),#557,.F.);
#579=ADVANCED_FACE('',(#90),#17,.F.);
#580=ADVANCED_FACE('',(#91),#18,.F.);
#581=ADVANCED_FACE('',(#92),#558,.T.);
#582=ADVANCED_FACE('',(#93),#19,.F.);
#583=ADVANCED_FACE('',(#94,#37),#559,.F.);
#584=ADVANCED_FACE('',(#95),#20,.T.);
#585=ADVANCED_FACE('',(#96),#21,.F.);
#586=ADVANCED_FACE('',(#97,#38),#560,.T.);
#587=ADVANCED_FACE('',(#98),#22,.T.);
#588=ADVANCED_FACE('',(#99,#39),#561,.T.);
#589=ADVANCED_FACE('',(#100),#23,.T.);
#590=ADVANCED_FACE('',(#101,#40),#562,.T.);
#591=ADVANCED_FACE('',(#102,#41),#563,.T.);
#592=ADVANCED_FACE('',(#103),#24,.F.);
#593=ADVANCED_FACE('',(#104),#25,.F.);
#594=ADVANCED_FACE('',(#105,#42),#564,.T.);
#595=ADVANCED_FACE('',(#106),#26,.F.);
#596=ADVANCED_FACE('',(#107),#27,.F.);
#597=ADVANCED_FACE('',(#108,#43),#565,.T.);
#598=ADVANCED_FACE('',(#109),#28,.F.);
#599=ADVANCED_FACE('',(#110),#29,.F.);
#600=ADVANCED_FACE('',(#111,#44),#566,.T.);
#601=ADVANCED_FACE('',(#112),#30,.F.);
#602=ADVANCED_FACE('',(#113),#31,.F.);
#603=ADVANCED_FACE('',(#114),#567,.T.);
#604=ADVANCED_FACE('',(#115,#45,#46,#47,#48,#49),#568,.T.);
#605=CLOSED_SHELL('',(#569,#570,#571,#572,#573,#574,#575,#576,#577,#578,
#579,#580,#581,#582,#583,#584,#585,#586,#587,#588,#589,#590,#591,#592,#593,
#594,#595,#596,#597,#598,#599,#600,#601,#602,#603,#604));
#606=DERIVED_UNIT_ELEMENT(#609,1.);
#607=DERIVED_UNIT_ELEMENT(#1080,-3.);
#608=DIMENSIONAL_EXPONENTS(0.,1.,0.,0.,0.,0.,0.);
#609=(
CONVERSION_BASED_UNIT('gram',#611)
MASS_UNIT()
NAMED_UNIT(#608)
);
#610=(
MASS_UNIT()
NAMED_UNIT(*)
SI_UNIT(.KILO.,.GRAM.)
);
#611=MASS_MEASURE_WITH_UNIT(MASS_MEASURE(0.001),#610);
#612=DERIVED_UNIT((#606,#607));
#613=MEASURE_REPRESENTATION_ITEM('density measure',
POSITIVE_RATIO_MEASURE(2.7),#612);
#614=PROPERTY_DEFINITION_REPRESENTATION(#619,#616);
#615=PROPERTY_DEFINITION_REPRESENTATION(#620,#617);
#616=REPRESENTATION('material name',(#618),#1077);
#617=REPRESENTATION('density',(#613),#1077);
#618=DESCRIPTIVE_REPRESENTATION_ITEM('Aluminum','Aluminum');
#619=PROPERTY_DEFINITION('material property','material name',#1087);
#620=PROPERTY_DEFINITION('material property','density of part',#1087);
#621=DATE_TIME_ROLE('creation_date');
#622=APPLIED_DATE_AND_TIME_ASSIGNMENT(#623,#621,(#1087));
#623=DATE_AND_TIME(#624,#625);
#624=CALENDAR_DATE(2025,27,6);
#625=LOCAL_TIME(0,0,0.,#626);
#626=COORDINATED_UNIVERSAL_TIME_OFFSET(0,0,.BEHIND.);
#627=AXIS2_PLACEMENT_3D('',#874,#694,#695);
#628=AXIS2_PLACEMENT_3D('',#875,#696,#697);
#629=AXIS2_PLACEMENT_3D('',#884,#702,#703);
#630=AXIS2_PLACEMENT_3D('',#890,#707,#708);
#631=AXIS2_PLACEMENT_3D('',#903,#715,#716);
#632=AXIS2_PLACEMENT_3D('',#905,#717,#718);
#633=AXIS2_PLACEMENT_3D('',#907,#719,#720);
#634=AXIS2_PLACEMENT_3D('',#909,#721,#722);
#635=AXIS2_PLACEMENT_3D('',#911,#723,#724);
#636=AXIS2_PLACEMENT_3D('',#912,#725,#726);
#637=AXIS2_PLACEMENT_3D('',#916,#729,#730);
#638=AXIS2_PLACEMENT_3D('',#920,#733,#734);
#639=AXIS2_PLACEMENT_3D('',#926,#738,#739);
#640=AXIS2_PLACEMENT_3D('',#928,#741,#742);
#641=AXIS2_PLACEMENT_3D('',#932,#745,#746);
#642=AXIS2_PLACEMENT_3D('',#941,#751,#752);
#643=AXIS2_PLACEMENT_3D('',#950,#757,#758);
#644=AXIS2_PLACEMENT_3D('',#987,#759,#760);
#645=AXIS2_PLACEMENT_3D('',#989,#761,#762);
#646=AXIS2_PLACEMENT_3D('',#992,#764,#765);
#647=AXIS2_PLACEMENT_3D('',#993,#766,#767);
#648=AXIS2_PLACEMENT_3D('',#994,#768,#769);
#649=AXIS2_PLACEMENT_3D('',#996,#770,#771);
#650=AXIS2_PLACEMENT_3D('',#997,#772,#773);
#651=AXIS2_PLACEMENT_3D('',#998,#774,#775);
#652=AXIS2_PLACEMENT_3D('',#1000,#776,#777);
#653=AXIS2_PLACEMENT_3D('',#1003,#779,#780);
#654=AXIS2_PLACEMENT_3D('',#1004,#781,#782);
#655=AXIS2_PLACEMENT_3D('',#1006,#783,#784);
#656=AXIS2_PLACEMENT_3D('',#1007,#785,#786);
#657=AXIS2_PLACEMENT_3D('',#1010,#788,#789);
#658=AXIS2_PLACEMENT_3D('',#1011,#790,#791);
#659=AXIS2_PLACEMENT_3D('',#1014,#793,#794);
#660=AXIS2_PLACEMENT_3D('',#1015,#795,#796);
#661=AXIS2_PLACEMENT_3D('',#1016,#797,#798);
#662=AXIS2_PLACEMENT_3D('',#1018,#799,#800);
#663=AXIS2_PLACEMENT_3D('',#1020,#802,#803);
#664=AXIS2_PLACEMENT_3D('',#1022,#804,#805);
#665=AXIS2_PLACEMENT_3D('',#1023,#806,#807);
#666=AXIS2_PLACEMENT_3D('',#1025,#808,#809);
#667=AXIS2_PLACEMENT_3D('',#1027,#811,#812);
#668=AXIS2_PLACEMENT_3D('',#1028,#813,#814);
#669=AXIS2_PLACEMENT_3D('',#1030,#815,#816);
#670=AXIS2_PLACEMENT_3D('',#1032,#817,#818);
#671=AXIS2_PLACEMENT_3D('',#1033,#819,#820);
#672=AXIS2_PLACEMENT_3D('',#1035,#822,#823);
#673=AXIS2_PLACEMENT_3D('',#1038,#825,#826);
#674=AXIS2_PLACEMENT_3D('',#1039,#827,#828);
#675=AXIS2_PLACEMENT_3D('',#1041,#829,#830);
#676=AXIS2_PLACEMENT_3D('',#1043,#831,#832);
#677=AXIS2_PLACEMENT_3D('',#1044,#833,#834);
#678=AXIS2_PLACEMENT_3D('',#1046,#836,#837);
#679=AXIS2_PLACEMENT_3D('',#1049,#839,#840);
#680=AXIS2_PLACEMENT_3D('',#1050,#841,#842);
#681=AXIS2_PLACEMENT_3D('',#1052,#843,#844);
#682=AXIS2_PLACEMENT_3D('',#1054,#845,#846);
#683=AXIS2_PLACEMENT_3D('',#1055,#847,#848);
#684=AXIS2_PLACEMENT_3D('',#1057,#850,#851);
#685=AXIS2_PLACEMENT_3D('',#1060,#853,#854);
#686=AXIS2_PLACEMENT_3D('',#1061,#855,#856);
#687=AXIS2_PLACEMENT_3D('',#1063,#857,#858);
#688=AXIS2_PLACEMENT_3D('',#1065,#859,#860);
#689=AXIS2_PLACEMENT_3D('',#1066,#861,#862);
#690=AXIS2_PLACEMENT_3D('',#1068,#864,#865);
#691=AXIS2_PLACEMENT_3D('',#1071,#867,#868);
#692=AXIS2_PLACEMENT_3D('',#1072,#869,#870);
#693=AXIS2_PLACEMENT_3D('',#1074,#872,#873);
#694=DIRECTION('axis',(0.,0.,1.));
#695=DIRECTION('refdir',(1.,0.,0.));
#696=DIRECTION('center_axis',(0.707106781186548,0.707106781186548,0.));
#697=DIRECTION('ref_axis',(0.,0.,-1.));
#698=DIRECTION('',(-0.707106781186548,0.707106781186548,0.));
#699=DIRECTION('',(0.,0.,1.));
#700=DIRECTION('',(0.707106781186548,-0.707106781186548,0.));
#701=DIRECTION('',(0.,0.,-1.));
#702=DIRECTION('center_axis',(1.,1.48029736616688E-16,0.));
#703=DIRECTION('ref_axis',(1.48029736616688E-16,-1.,0.));
#704=DIRECTION('',(-1.48029736616688E-16,1.,0.));
#705=DIRECTION('',(0.,0.,1.));
#706=DIRECTION('',(1.48029736616688E-16,-1.,0.));
#707=DIRECTION('center_axis',(0.,0.,1.));
#708=DIRECTION('ref_axis',(1.,0.,0.));
#709=DIRECTION('',(-1.,-1.48029736616688E-16,0.));
#710=DIRECTION('',(0.707106781186548,0.707106781186548,0.));
#711=DIRECTION('',(2.96059473233375E-16,-1.,0.));
#712=DIRECTION('',(-0.707106781186547,0.707106781186548,0.));
#713=DIRECTION('',(1.,0.,0.));
#714=DIRECTION('',(-0.707106781186548,-0.707106781186548,0.));
#715=DIRECTION('center_axis',(0.,0.,-1.));
#716=DIRECTION('ref_axis',(0.,1.,-5.5616254470141E-16));
#717=DIRECTION('center_axis',(0.,0.,-1.));
#718=DIRECTION('ref_axis',(1.,0.,0.));
#719=DIRECTION('center_axis',(0.,0.,-1.));
#720=DIRECTION('ref_axis',(1.,0.,0.));
#721=DIRECTION('center_axis',(0.,0.,-1.));
#722=DIRECTION('ref_axis',(1.,0.,0.));
#723=DIRECTION('center_axis',(0.,0.,-1.));
#724=DIRECTION('ref_axis',(1.,0.,0.));
#725=DIRECTION('center_axis',(0.707106781186548,-0.707106781186548,0.));
#726=DIRECTION('ref_axis',(0.,0.,-1.));
#727=DIRECTION('',(0.707106781186548,0.707106781186548,0.));
#728=DIRECTION('',(0.,0.,-1.));
#729=DIRECTION('center_axis',(0.,-1.,0.));
#730=DIRECTION('ref_axis',(-1.,0.,0.));
#731=DIRECTION('',(0.,0.,1.));
#732=DIRECTION('',(-1.,0.,0.));
#733=DIRECTION('center_axis',(-0.707106781186548,0.707106781186548,0.));
#734=DIRECTION('ref_axis',(0.,0.,1.));
#735=DIRECTION('',(-0.707106781186548,-0.707106781186548,0.));
#736=DIRECTION('',(0.,0.,1.));
#737=DIRECTION('',(0.,0.,-1.));
#738=DIRECTION('center_axis',(-1.48029736616688E-16,1.,0.));
#739=DIRECTION('ref_axis',(1.,1.48029736616688E-16,0.));
#740=DIRECTION('',(1.,1.48029736616688E-16,0.));
#741=DIRECTION('center_axis',(-0.707106781186548,-0.707106781186547,0.));
#742=DIRECTION('ref_axis',(0.,0.,1.));
#743=DIRECTION('',(0.707106781186547,-0.707106781186548,0.));
#744=DIRECTION('',(0.,0.,-1.));
#745=DIRECTION('center_axis',(0.,1.,3.46944695195361E-16));
#746=DIRECTION('ref_axis',(0.,3.46944695195361E-16,-1.));
#747=DIRECTION('',(0.,5.55111512312578E-16,1.));
#748=DIRECTION('',(-1.,0.,0.));
#749=DIRECTION('',(0.,-5.55111512312578E-16,-1.));
#750=DIRECTION('',(1.,0.,0.));
#751=DIRECTION('center_axis',(0.,-1.,-2.08166817117217E-16));
#752=DIRECTION('ref_axis',(0.,-2.08166817117217E-16,1.));
#753=DIRECTION('',(0.,-5.55111512312578E-16,-1.));
#754=DIRECTION('',(-1.,0.,0.));
#755=DIRECTION('',(0.,5.55111512312578E-16,1.));
#756=DIRECTION('',(-1.,0.,0.));
#757=DIRECTION('center_axis',(-1.,0.,0.));
#758=DIRECTION('ref_axis',(0.,-1.,-5.28677630773884E-16));
#759=DIRECTION('center_axis',(0.,-5.55111512312578E-16,-1.));
#760=DIRECTION('ref_axis',(0.,1.,-5.5616254470141E-16));
#761=DIRECTION('center_axis',(0.,-5.55111512312578E-16,-1.));
#762=DIRECTION('ref_axis',(1.,0.,0.));
#763=DIRECTION('',(0.,5.55111512312578E-16,1.));
#764=DIRECTION('center_axis',(0.,-5.55111512312578E-16,-1.));
#765=DIRECTION('ref_axis',(1.,0.,0.));
#766=DIRECTION('center_axis',(0.,-5.55111512312578E-16,-1.));
#767=DIRECTION('ref_axis',(1.,0.,0.));
#768=DIRECTION('center_axis',(0.,5.55111512312578E-16,1.));
#769=DIRECTION('ref_axis',(1.,0.,0.));
#770=DIRECTION('center_axis',(0.,-5.55111512312578E-16,-1.));
#771=DIRECTION('ref_axis',(1.,0.,0.));
#772=DIRECTION('center_axis',(0.,-5.55111512312578E-16,-1.));
#773=DIRECTION('ref_axis',(1.,0.,0.));
#774=DIRECTION('center_axis',(0.,5.55111512312578E-16,1.));
#775=DIRECTION('ref_axis',(0.,1.,-5.55099191833345E-16));
#776=DIRECTION('center_axis',(0.,0.,1.));
#777=DIRECTION('ref_axis',(0.,1.,-5.55099191833345E-16));
#778=DIRECTION('',(0.,5.55111512312578E-16,1.));
#779=DIRECTION('center_axis',(0.,5.55111512312578E-16,1.));
#780=DIRECTION('ref_axis',(1.,0.,0.));
#781=DIRECTION('center_axis',(0.,5.55111512312578E-16,1.));
#782=DIRECTION('ref_axis',(1.,0.,0.));
#783=DIRECTION('center_axis',(0.,5.55111512312578E-16,1.));
#784=DIRECTION('ref_axis',(1.,0.,0.));
#785=DIRECTION('center_axis',(0.,-5.55111512312578E-16,-1.));
#786=DIRECTION('ref_axis',(0.,1.,-5.5616254470141E-16));
#787=DIRECTION('',(0.,5.55111512312578E-16,1.));
#788=DIRECTION('center_axis',(0.,-5.55111512312578E-16,-1.));
#789=DIRECTION('ref_axis',(1.,0.,0.));
#790=DIRECTION('center_axis',(0.,-5.55111512312578E-16,-1.));
#791=DIRECTION('ref_axis',(0.,1.,-5.5616254470141E-16));
#792=DIRECTION('',(0.,5.55111512312578E-16,1.));
#793=DIRECTION('center_axis',(0.,-5.55111512312578E-16,-1.));
#794=DIRECTION('ref_axis',(1.,0.,0.));
#795=DIRECTION('center_axis',(0.,5.55111512312578E-16,1.));
#796=DIRECTION('ref_axis',(1.,0.,0.));
#797=DIRECTION('center_axis',(0.,-5.55111512312578E-16,-1.));
#798=DIRECTION('ref_axis',(0.,1.,-5.5616254470141E-16));
#799=DIRECTION('center_axis',(0.,-5.55111512312578E-16,-1.));
#800=DIRECTION('ref_axis',(1.,0.,0.));
#801=DIRECTION('',(0.,5.55111512312578E-16,1.));
#802=DIRECTION('center_axis',(0.,-5.55111512312578E-16,-1.));
#803=DIRECTION('ref_axis',(-1.,0.,0.));
#804=DIRECTION('center_axis',(0.,-5.55111512312578E-16,-1.));
#805=DIRECTION('ref_axis',(1.,0.,0.));
#806=DIRECTION('center_axis',(0.,-5.55111512312578E-16,-1.));
#807=DIRECTION('ref_axis',(0.,1.,-5.5616254470141E-16));
#808=DIRECTION('center_axis',(0.,-5.55111512312578E-16,-1.));
#809=DIRECTION('ref_axis',(1.,0.,0.));
#810=DIRECTION('',(0.,5.55111512312578E-16,1.));
#811=DIRECTION('center_axis',(0.,5.55111512312578E-16,1.));
#812=DIRECTION('ref_axis',(1.,0.,0.));
#813=DIRECTION('center_axis',(0.,0.,1.));
#814=DIRECTION('ref_axis',(1.,0.,0.));
#815=DIRECTION('center_axis',(0.,0.,1.));
#816=DIRECTION('ref_axis',(1.,0.,0.));
#817=DIRECTION('center_axis',(0.,0.,1.));
#818=DIRECTION('ref_axis',(1.,0.,0.));
#819=DIRECTION('center_axis',(0.,0.,1.));
#820=DIRECTION('ref_axis',(1.,0.,0.));
#821=DIRECTION('',(0.,0.,-1.));
#822=DIRECTION('center_axis',(0.,0.,1.));
#823=DIRECTION('ref_axis',(1.,0.,0.));
#824=DIRECTION('',(0.,0.,-1.));
#825=DIRECTION('center_axis',(0.,0.,1.));
#826=DIRECTION('ref_axis',(1.,0.,0.));
#827=DIRECTION('center_axis',(0.,0.,1.));
#828=DIRECTION('ref_axis',(1.,0.,0.));
#829=DIRECTION('center_axis',(0.,0.,1.));
#830=DIRECTION('ref_axis',(1.,0.,0.));
#831=DIRECTION('center_axis',(0.,0.,1.));
#832=DIRECTION('ref_axis',(1.,0.,0.));
#833=DIRECTION('center_axis',(0.,0.,1.));
#834=DIRECTION('ref_axis',(1.,0.,0.));
#835=DIRECTION('',(0.,0.,-1.));
#836=DIRECTION('center_axis',(0.,0.,1.));
#837=DIRECTION('ref_axis',(1.,0.,0.));
#838=DIRECTION('',(0.,0.,-1.));
#839=DIRECTION('center_axis',(0.,0.,1.));
#840=DIRECTION('ref_axis',(1.,0.,0.));
#841=DIRECTION('center_axis',(0.,0.,1.));
#842=DIRECTION('ref_axis',(1.,0.,0.));
#843=DIRECTION('center_axis',(0.,0.,1.));
#844=DIRECTION('ref_axis',(1.,0.,0.));
#845=DIRECTION('center_axis',(0.,0.,1.));
#846=DIRECTION('ref_axis',(1.,0.,0.));
#847=DIRECTION('center_axis',(0.,0.,1.));
#848=DIRECTION('ref_axis',(1.,0.,0.));
#849=DIRECTION('',(0.,0.,-1.));
#850=DIRECTION('center_axis',(0.,0.,1.));
#851=DIRECTION('ref_axis',(1.,0.,0.));
#852=DIRECTION('',(0.,0.,-1.));
#853=DIRECTION('center_axis',(0.,0.,1.));
#854=DIRECTION('ref_axis',(1.,0.,0.));
#855=DIRECTION('center_axis',(0.,0.,1.));
#856=DIRECTION('ref_axis',(1.,0.,0.));
#857=DIRECTION('center_axis',(0.,0.,1.));
#858=DIRECTION('ref_axis',(1.,0.,0.));
#859=DIRECTION('center_axis',(0.,0.,1.));
#860=DIRECTION('ref_axis',(1.,0.,0.));
#861=DIRECTION('center_axis',(0.,0.,1.));
#862=DIRECTION('ref_axis',(1.,0.,0.));
#863=DIRECTION('',(0.,0.,-1.));
#864=DIRECTION('center_axis',(0.,0.,1.));
#865=DIRECTION('ref_axis',(1.,0.,0.));
#866=DIRECTION('',(0.,0.,-1.));
#867=DIRECTION('center_axis',(0.,0.,1.));
#868=DIRECTION('ref_axis',(1.,0.,0.));
#869=DIRECTION('center_axis',(-1.,-2.96059473233375E-16,0.));
#870=DIRECTION('ref_axis',(-2.96059473233375E-16,1.,0.));
#871=DIRECTION('',(-2.96059473233375E-16,1.,0.));
#872=DIRECTION('center_axis',(0.,0.,-1.));
#873=DIRECTION('ref_axis',(-1.,0.,0.));
#874=CARTESIAN_POINT('',(0.,0.,0.));
#875=CARTESIAN_POINT('Origin',(6.9,6.9,0.));
#876=CARTESIAN_POINT('',(7.5,6.3,-2.));
#877=CARTESIAN_POINT('',(6.3,7.5,-2.));
#878=CARTESIAN_POINT('',(6.9,6.9,-2.));
#879=CARTESIAN_POINT('',(6.3,7.5,0.));
#880=CARTESIAN_POINT('',(6.3,7.5,0.));
#881=CARTESIAN_POINT('',(7.5,6.3,0.));
#882=CARTESIAN_POINT('',(6.9,6.9,0.));
#883=CARTESIAN_POINT('',(7.5,6.3,0.));
#884=CARTESIAN_POINT('Origin',(7.5,7.5,0.));
#885=CARTESIAN_POINT('',(7.5,-6.3,0.));
#886=CARTESIAN_POINT('',(7.5,-7.5,0.));
#887=CARTESIAN_POINT('',(7.5,-6.3,-2.));
#888=CARTESIAN_POINT('',(7.5,-6.3,0.));
#889=CARTESIAN_POINT('',(7.5,-7.5,-2.));
#890=CARTESIAN_POINT('Origin',(-1.11022302462516E-15,0.,0.));
#891=CARTESIAN_POINT('',(-6.3,7.5,0.));
#892=CARTESIAN_POINT('',(7.5,7.5,0.));
#893=CARTESIAN_POINT('',(-7.5,6.3,0.));
#894=CARTESIAN_POINT('',(-6.9,6.9,0.));
#895=CARTESIAN_POINT('',(-7.5,-6.3,0.));
#896=CARTESIAN_POINT('',(-7.5,7.5,0.));
#897=CARTESIAN_POINT('',(-6.3,-7.5,0.));
#898=CARTESIAN_POINT('',(-6.9,-6.9,0.));
#899=CARTESIAN_POINT('',(6.3,-7.5,0.));
#900=CARTESIAN_POINT('',(-7.5,-7.5,0.));
#901=CARTESIAN_POINT('',(6.9,-6.9,0.));
#902=CARTESIAN_POINT('',(-5.08228421646152E-16,-4.15,2.28983498828939E-15));
#903=CARTESIAN_POINT('Origin',(0.,0.,0.));
#904=CARTESIAN_POINT('',(2.75,4.75,0.));
#905=CARTESIAN_POINT('Origin',(4.75,4.75,0.));
#906=CARTESIAN_POINT('',(2.75,-4.75,0.));
#907=CARTESIAN_POINT('Origin',(4.75,-4.75,0.));
#908=CARTESIAN_POINT('',(-6.75,-4.75,0.));
#909=CARTESIAN_POINT('Origin',(-4.75,-4.75,0.));
#910=CARTESIAN_POINT('',(-6.75,4.75,0.));
#911=CARTESIAN_POINT('Origin',(-4.75,4.75,0.));
#912=CARTESIAN_POINT('Origin',(6.9,-6.9,0.));
#913=CARTESIAN_POINT('',(6.3,-7.5,-2.));
#914=CARTESIAN_POINT('',(6.9,-6.9,-2.));
#915=CARTESIAN_POINT('',(6.3,-7.5,0.));
#916=CARTESIAN_POINT('Origin',(7.5,-7.5,0.));
#917=CARTESIAN_POINT('',(-6.3,-7.5,-2.));
#918=CARTESIAN_POINT('',(-6.3,-7.5,0.));
#919=CARTESIAN_POINT('',(-7.5,-7.5,-2.));
#920=CARTESIAN_POINT('Origin',(-6.9,6.9,0.));
#921=CARTESIAN_POINT('',(-6.3,7.5,-2.));
#922=CARTESIAN_POINT('',(-7.5,6.3,-2.));
#923=CARTESIAN_POINT('',(-6.9,6.9,-2.));
#924=CARTESIAN_POINT('',(-7.5,6.3,0.));
#925=CARTESIAN_POINT('',(-6.3,7.5,0.));
#926=CARTESIAN_POINT('Origin',(-7.5,7.5,0.));
#927=CARTESIAN_POINT('',(7.5,7.5,-2.));
#928=CARTESIAN_POINT('Origin',(-6.9,-6.9,0.));
#929=CARTESIAN_POINT('',(-7.5,-6.3,-2.));
#930=CARTESIAN_POINT('',(-6.9,-6.9,-2.));
#931=CARTESIAN_POINT('',(-7.5,-6.3,0.));
#932=CARTESIAN_POINT('Origin',(0.,1.05,5.5));
#933=CARTESIAN_POINT('',(-3.85972796968905,1.05,3.5));
#934=CARTESIAN_POINT('',(-3.85972796968905,1.05,5.5));
#935=CARTESIAN_POINT('',(-3.85972796968905,1.05,3.5));
#936=CARTESIAN_POINT('',(-2.91676190320705,1.05,3.5));
#937=CARTESIAN_POINT('',(0.,1.05,3.5));
#938=CARTESIAN_POINT('',(-2.91676190320705,1.05,5.5));
#939=CARTESIAN_POINT('',(-2.91676190320705,1.05,3.5));
#940=CARTESIAN_POINT('',(0.,1.05,5.5));
#941=CARTESIAN_POINT('Origin',(0.,-1.05,3.5));
#942=CARTESIAN_POINT('',(-3.85972796968905,-1.05,5.5));
#943=CARTESIAN_POINT('',(-3.85972796968905,-1.05,3.5));
#944=CARTESIAN_POINT('',(-3.85972796968905,-1.05,3.5));
#945=CARTESIAN_POINT('',(-2.91676190320705,-1.05,5.5));
#946=CARTESIAN_POINT('',(0.,-1.05,5.5));
#947=CARTESIAN_POINT('',(-2.91676190320705,-1.05,3.5));
#948=CARTESIAN_POINT('',(-2.91676190320705,-1.05,3.5));
#949=CARTESIAN_POINT('',(0.,-1.05,3.5));
#950=CARTESIAN_POINT('Origin',(0.,3.66543671729286E-15,3.5));
#951=CARTESIAN_POINT('Ctrl Pts',(-3.85972796968905,-1.05,3.5));
#952=CARTESIAN_POINT('Ctrl Pts',(-3.85972796968905,-1.05,3.36747661501519));
#953=CARTESIAN_POINT('Ctrl Pts',(-3.8672649872756,-1.02338754297731,3.22657003796283));
#954=CARTESIAN_POINT('Ctrl Pts',(-3.89408818190191,-0.916044586100399,2.96807102547457));
#955=CARTESIAN_POINT('Ctrl Pts',(-3.91294431646854,-0.835345390748685,2.85042115025694));
#956=CARTESIAN_POINT('Ctrl Pts',(-3.94803226564605,-0.649594734545024,2.66467049405328));
#957=CARTESIAN_POINT('Ctrl Pts',(-3.96660071037961,-0.531938280674238,2.58395893214355));
#958=CARTESIAN_POINT('Ctrl Pts',(-3.99275886138441,-0.273415807518242,2.47660692547583));
#959=CARTESIAN_POINT('Ctrl Pts',(-4.,-0.132500720970981,2.45));
#960=CARTESIAN_POINT('Ctrl Pts',(-4.,0.132500720970987,2.45));
#961=CARTESIAN_POINT('Ctrl Pts',(-3.99275886138441,0.273415807518249,2.47660692547583));
#962=CARTESIAN_POINT('Ctrl Pts',(-3.96660071037961,0.531938280674245,2.58395893214355));
#963=CARTESIAN_POINT('Ctrl Pts',(-3.94803226564605,0.649594734545031,2.66467049405327));
#964=CARTESIAN_POINT('Ctrl Pts',(-3.91294431646854,0.835345390748691,2.85042115025694));
#965=CARTESIAN_POINT('Ctrl Pts',(-3.89408818190191,0.916044586100405,2.96807102547457));
#966=CARTESIAN_POINT('Ctrl Pts',(-3.8672649872756,1.02338754297732,3.22657003796283));
#967=CARTESIAN_POINT('Ctrl Pts',(-3.85972796968905,1.05,3.36747661501519));
#968=CARTESIAN_POINT('Ctrl Pts',(-3.85972796968905,1.05,3.5));
#969=CARTESIAN_POINT('Ctrl Pts',(-2.91676190320704,1.05,3.5));
#970=CARTESIAN_POINT('Ctrl Pts',(-2.91676190320704,1.05,3.36698126533104));
#971=CARTESIAN_POINT('Ctrl Pts',(-2.92681783020283,1.02319966376682,3.22589344199546));
#972=CARTESIAN_POINT('Ctrl Pts',(-2.9621997962158,0.915735970990737,2.96755302334747));
#973=CARTESIAN_POINT('Ctrl Pts',(-2.98691819888325,0.835121487353855,2.8501972468621));
#974=CARTESIAN_POINT('Ctrl Pts',(-3.03262193583904,0.649848737502778,2.66492449701102));
#975=CARTESIAN_POINT('Ctrl Pts',(-3.05670603204591,0.532474710461684,2.58427464898995));
#976=CARTESIAN_POINT('Ctrl Pts',(-3.09060976329908,0.274066368654552,2.47678453507521));
#977=CARTESIAN_POINT('Ctrl Pts',(-3.1,0.132952721029743,2.45));
#978=CARTESIAN_POINT('Ctrl Pts',(-3.1,-0.132952721029735,2.45));
#979=CARTESIAN_POINT('Ctrl Pts',(-3.09060976329908,-0.274066368654544,2.47678453507521));
#980=CARTESIAN_POINT('Ctrl Pts',(-3.05670603204591,-0.532474710461677,2.58427464898995));
#981=CARTESIAN_POINT('Ctrl Pts',(-3.03262193583904,-0.649848737502772,2.66492449701102));
#982=CARTESIAN_POINT('Ctrl Pts',(-2.98691819888325,-0.835121487353849,2.8501972468621));
#983=CARTESIAN_POINT('Ctrl Pts',(-2.9621997962158,-0.91573597099073,2.96755302334747));
#984=CARTESIAN_POINT('Ctrl Pts',(-2.92681783020283,-1.02319966376682,3.22589344199546));
#985=CARTESIAN_POINT('Ctrl Pts',(-2.91676190320705,-1.05,3.36698126533104));
#986=CARTESIAN_POINT('Ctrl Pts',(-2.91676190320705,-1.05,3.5));
#987=CARTESIAN_POINT('Origin',(0.,1.94289029309403E-15,3.5));
#988=CARTESIAN_POINT('',(-3.79640507735679E-16,-3.1,1.5));
#989=CARTESIAN_POINT('Origin',(0.,8.32667268468868E-16,1.5));
#990=CARTESIAN_POINT('',(-3.79640507735679E-16,-3.09999999999999,5.50000000000001));
#991=CARTESIAN_POINT('',(-3.79640507735679E-16,-3.1,3.5));
#992=CARTESIAN_POINT('Origin',(0.,3.05311331771918E-15,5.5));
#993=CARTESIAN_POINT('Origin',(0.,3.05311331771918E-15,5.5));
#994=CARTESIAN_POINT('Origin',(0.,4.,5.5));
#995=CARTESIAN_POINT('',(-4.89858719658941E-16,-3.99999999999999,5.50000000000001));
#996=CARTESIAN_POINT('Origin',(0.,3.05311331771918E-15,5.5));
#997=CARTESIAN_POINT('Origin',(0.,3.05311331771918E-15,5.5));
#998=CARTESIAN_POINT('Origin',(0.,-5.55389068068733E-16,-1.0005));
#999=CARTESIAN_POINT('',(4.89858719658941E-16,-4.,-2.));
#1000=CARTESIAN_POINT('Origin',(0.,-1.11022302462516E-15,-2.));
#1001=CARTESIAN_POINT('',(4.89858719658941E-16,-4.,-0.000999999999995449));
#1002=CARTESIAN_POINT('',(4.89858719658941E-16,-4.,-1.0005));
#1003=CARTESIAN_POINT('Origin',(0.,-5.55111512311285E-19,-0.000999999999997669));
#1004=CARTESIAN_POINT('Origin',(0.,2.2,-0.00100000000000055));
#1005=CARTESIAN_POINT('',(-2.69422295812418E-16,-2.2,-0.000999999999998086));
#1006=CARTESIAN_POINT('Origin',(0.,-5.55111512312205E-19,-0.000999999999999328));
#1007=CARTESIAN_POINT('Origin',(0.,1.38777878078146E-16,0.250000000000002));
#1008=CARTESIAN_POINT('',(-5.08228421646152E-16,-4.15,0.500000000000005));
#1009=CARTESIAN_POINT('',(-5.08228421646152E-16,-4.15,0.250000000000005));
#1010=CARTESIAN_POINT('Origin',(0.,2.7755575615629E-16,0.500000000000002));
#1011=CARTESIAN_POINT('Origin',(0.,4.16333634234434E-16,0.750000000000001));
#1012=CARTESIAN_POINT('',(-2.69422295812418E-16,-2.2,1.5));
#1013=CARTESIAN_POINT('',(-2.69422295812418E-16,-2.2,0.750000000000003));
#1014=CARTESIAN_POINT('Origin',(0.,8.32667268468868E-16,1.5));
#1015=CARTESIAN_POINT('Origin',(0.,3.1,1.5));
#1016=CARTESIAN_POINT('Origin',(0.,1.94289029309403E-15,3.5));
#1017=CARTESIAN_POINT('',(-4.89858719658941E-16,-4.,1.50000000000001));
#1018=CARTESIAN_POINT('Origin',(0.,8.32667268468869E-16,1.5));
#1019=CARTESIAN_POINT('',(-4.89858719658941E-16,-3.99999999999999,3.50000000000001));
#1020=CARTESIAN_POINT('Origin',(0.,3.5,1.5));
#1021=CARTESIAN_POINT('',(-4.28626379701573E-16,-3.5,1.5));
#1022=CARTESIAN_POINT('Origin',(0.,8.32667268468869E-16,1.5));
#1023=CARTESIAN_POINT('Origin',(0.,5.55111512312579E-16,1.));
#1024=CARTESIAN_POINT('',(-4.28626379701573E-16,-3.5,0.500000000000004));
#1025=CARTESIAN_POINT('Origin',(0.,2.7755575615629E-16,0.500000000000002));
#1026=CARTESIAN_POINT('',(-4.28626379701573E-16,-3.5,1.));
#1027=CARTESIAN_POINT('Origin',(0.,4.15,0.5));
#1028=CARTESIAN_POINT('Origin',(4.75,4.75,-1.6));
#1029=CARTESIAN_POINT('',(2.75,4.75,-1.6));
#1030=CARTESIAN_POINT('Origin',(4.75,4.75,-1.6));
#1031=CARTESIAN_POINT('',(3.65,4.75,-1.6));
#1032=CARTESIAN_POINT('Origin',(4.75,4.75,-1.6));
#1033=CARTESIAN_POINT('Origin',(4.75,4.75,-0.8));
#1034=CARTESIAN_POINT('',(2.75,4.75,-0.8));
#1035=CARTESIAN_POINT('Origin',(4.75,4.75,-21.3072757526625));
#1036=CARTESIAN_POINT('',(3.65,4.75,-2.));
#1037=CARTESIAN_POINT('',(3.65,4.75,-21.3072757526625));
#1038=CARTESIAN_POINT('Origin',(4.75,4.75,-2.));
#1039=CARTESIAN_POINT('Origin',(4.75,-4.75,-1.6));
#1040=CARTESIAN_POINT('',(2.75,-4.75,-1.6));
#1041=CARTESIAN_POINT('Origin',(4.75,-4.75,-1.6));
#1042=CARTESIAN_POINT('',(3.65,-4.75,-1.6));
#1043=CARTESIAN_POINT('Origin',(4.75,-4.75,-1.6));
#1044=CARTESIAN_POINT('Origin',(4.75,-4.75,-0.8));
#1045=CARTESIAN_POINT('',(2.75,-4.75,-0.8));
#1046=CARTESIAN_POINT('Origin',(4.75,-4.75,-21.3072757526625));
#1047=CARTESIAN_POINT('',(3.65,-4.75,-2.));
#1048=CARTESIAN_POINT('',(3.65,-4.75,-21.3072757526625));
#1049=CARTESIAN_POINT('Origin',(4.75,-4.75,-2.));
#1050=CARTESIAN_POINT('Origin',(-4.75,-4.75,-1.6));
#1051=CARTESIAN_POINT('',(-6.75,-4.75,-1.6));
#1052=CARTESIAN_POINT('Origin',(-4.75,-4.75,-1.6));
#1053=CARTESIAN_POINT('',(-5.85,-4.75,-1.6));
#1054=CARTESIAN_POINT('Origin',(-4.75,-4.75,-1.6));
#1055=CARTESIAN_POINT('Origin',(-4.75,-4.75,-0.8));
#1056=CARTESIAN_POINT('',(-6.75,-4.75,-0.8));
#1057=CARTESIAN_POINT('Origin',(-4.75,-4.75,-21.3072757526625));
#1058=CARTESIAN_POINT('',(-5.85,-4.75,-2.));
#1059=CARTESIAN_POINT('',(-5.85,-4.75,-21.3072757526625));
#1060=CARTESIAN_POINT('Origin',(-4.75,-4.75,-2.));
#1061=CARTESIAN_POINT('Origin',(-4.75,4.75,-1.6));
#1062=CARTESIAN_POINT('',(-6.75,4.75,-1.6));
#1063=CARTESIAN_POINT('Origin',(-4.75,4.75,-1.6));
#1064=CARTESIAN_POINT('',(-5.85,4.75,-1.6));
#1065=CARTESIAN_POINT('Origin',(-4.75,4.75,-1.6));
#1066=CARTESIAN_POINT('Origin',(-4.75,4.75,-0.8));
#1067=CARTESIAN_POINT('',(-6.75,4.75,-0.8));
#1068=CARTESIAN_POINT('Origin',(-4.75,4.75,-21.3072757526625));
#1069=CARTESIAN_POINT('',(-5.85,4.75,-2.));
#1070=CARTESIAN_POINT('',(-5.85,4.75,-21.3072757526625));
#1071=CARTESIAN_POINT('Origin',(-4.75,4.75,-2.));
#1072=CARTESIAN_POINT('Origin',(-7.5,-7.5,0.));
#1073=CARTESIAN_POINT('',(-7.5,7.5,-2.));
#1074=CARTESIAN_POINT('Origin',(-1.11022302462516E-15,0.,-2.));
#1075=UNCERTAINTY_MEASURE_WITH_UNIT(LENGTH_MEASURE(0.01),#1079,
'DISTANCE_ACCURACY_VALUE',
'Maximum model space distance between geometric entities at asserted c
onnectivities');
#1076=UNCERTAINTY_MEASURE_WITH_UNIT(LENGTH_MEASURE(0.01),#1079,
'DISTANCE_ACCURACY_VALUE',
'Maximum model space distance between geometric entities at asserted c
onnectivities');
#1077=(
GEOMETRIC_REPRESENTATION_CONTEXT(3)
GLOBAL_UNCERTAINTY_ASSIGNED_CONTEXT((#1075))
GLOBAL_UNIT_ASSIGNED_CONTEXT((#1079,#1081,#1082))
REPRESENTATION_CONTEXT('','3D')
);
#1078=(
GEOMETRIC_REPRESENTATION_CONTEXT(3)
GLOBAL_UNCERTAINTY_ASSIGNED_CONTEXT((#1076))
GLOBAL_UNIT_ASSIGNED_CONTEXT((#1079,#1081,#1082))
REPRESENTATION_CONTEXT('','3D')
);
#1079=(
LENGTH_UNIT()
NAMED_UNIT(*)
SI_UNIT(.MILLI.,.METRE.)
);
#1080=(
LENGTH_UNIT()
NAMED_UNIT(*)
SI_UNIT(.CENTI.,.METRE.)
);
#1081=(
NAMED_UNIT(*)
PLANE_ANGLE_UNIT()
SI_UNIT($,.RADIAN.)
);
#1082=(
NAMED_UNIT(*)
SI_UNIT($,.STERADIAN.)
SOLID_ANGLE_UNIT()
);
#1083=SHAPE_DEFINITION_REPRESENTATION(#1084,#1085);
#1084=PRODUCT_DEFINITION_SHAPE('',$,#1087);
#1085=SHAPE_REPRESENTATION('',(#627),#1077);
#1086=PRODUCT_DEFINITION_CONTEXT('part definition',#1091,'design');
#1087=PRODUCT_DEFINITION('BUY - Fiber holer FCPC',
'BUY - Fiber holder - FCPC',#1088,#1086);
#1088=PRODUCT_DEFINITION_FORMATION('',$,#1093);
#1089=PRODUCT_RELATED_PRODUCT_CATEGORY('BUY - Fiber holder - FCPC',
'BUY - Fiber holder - FCPC',(#1093));
#1090=APPLICATION_PROTOCOL_DEFINITION('international standard',
'automotive_design',2009,#1091);
#1091=APPLICATION_CONTEXT(
'Core Data for Automotive Mechanical Design Process');
#1092=PRODUCT_CONTEXT('part definition',#1091,'mechanical');
#1093=PRODUCT('BUY - Fiber holer FCPC','BUY - Fiber holder - FCPC',
'Fiber holer FCPC',(#1092));
#1094=PRESENTATION_STYLE_ASSIGNMENT((#1095));
#1095=SURFACE_STYLE_USAGE(.BOTH.,#1098);
#1096=SURFACE_STYLE_RENDERING_WITH_PROPERTIES($,#1102,(#1097));
#1097=SURFACE_STYLE_TRANSPARENT(0.);
#1098=SURFACE_SIDE_STYLE('',(#1099,#1096));
#1099=SURFACE_STYLE_FILL_AREA(#1100);
#1100=FILL_AREA_STYLE('',(#1101));
#1101=FILL_AREA_STYLE_COLOUR('',#1102);
#1102=COLOUR_RGB('',0.956862745098039,0.956862745098039,0.956862745098039);
ENDSEC;
END-ISO-10303-21;
