ISO-10303-21;
HEADER;
/* Generated by software containing ST-Developer
 * from STEP Tools, Inc. (www.steptools.com) 
 */

FILE_DESCRIPTION(
/* description */ (''),
/* implementation_level */ '2;1');

FILE_NAME(
/* name */ 'BUY - XYZ linear table - LD40 --- bracket.stp',
/* time_stamp */ '2026-09-22T17:02:16+02:00',
/* author */ ('benir'),
/* organization */ (''),
/* preprocessor_version */ 'ST-DEVELOPER v20',
/* originating_system */ 'Autodesk Inventor 2025',
/* authorisation */ '');

FILE_SCHEMA (('AUTOMOTIVE_DESIGN { 1 0 10303 214 3 1 1 }'));
ENDSEC;

DATA;
#10=MECHANICAL_DESIGN_GEOMETRIC_PRESENTATION_REPRESENTATION('',(#17,#18,
#19),#1246);
#11=SHAPE_REPRESENTATION_RELATIONSHIP('SRR','None',#1253,#12);
#12=ADVANCED_BREP_SHAPE_REPRESENTATION('',(#20,#21,#22),#1245);
#13=TOROIDAL_SURFACE('',#788,1.95,0.3);
#14=TOROIDAL_SURFACE('',#806,1.95,0.3);
#15=CONICAL_SURFACE('',#780,1.1,0.785398163397448);
#16=CONICAL_SURFACE('',#811,1.1,0.785398163397448);
#17=STYLED_ITEM('',(#1262),#20);
#18=STYLED_ITEM('',(#1263),#21);
#19=STYLED_ITEM('',(#1263),#22);
#20=MANIFOLD_SOLID_BREP('Bracket',#723);
#21=MANIFOLD_SOLID_BREP('Volumenk\X\F6rper4',#724);
#22=MANIFOLD_SOLID_BREP('Volumenk\X\F6rper4',#725);
#23=FACE_BOUND('',#109,.T.);
#24=FACE_BOUND('',#112,.T.);
#25=FACE_BOUND('',#118,.T.);
#26=FACE_BOUND('',#123,.T.);
#27=FACE_BOUND('',#124,.T.);
#28=FACE_BOUND('',#136,.T.);
#29=FACE_BOUND('',#138,.T.);
#30=FACE_BOUND('',#144,.T.);
#31=FACE_BOUND('',#146,.T.);
#32=PLANE('',#751);
#33=PLANE('',#755);
#34=PLANE('',#760);
#35=PLANE('',#766);
#36=PLANE('',#767);
#37=PLANE('',#768);
#38=PLANE('',#769);
#39=PLANE('',#770);
#40=PLANE('',#771);
#41=PLANE('',#772);
#42=PLANE('',#773);
#43=PLANE('',#774);
#44=PLANE('',#775);
#45=PLANE('',#776);
#46=PLANE('',#777);
#47=PLANE('',#778);
#48=PLANE('',#779);
#49=PLANE('',#791);
#50=PLANE('',#792);
#51=PLANE('',#795);
#52=PLANE('',#796);
#53=PLANE('',#802);
#54=PLANE('',#804);
#55=PLANE('',#812);
#56=PLANE('',#813);
#57=PLANE('',#814);
#58=PLANE('',#815);
#59=PLANE('',#816);
#60=PLANE('',#817);
#61=PLANE('',#818);
#62=FACE_OUTER_BOUND('',#105,.T.);
#63=FACE_OUTER_BOUND('',#106,.T.);
#64=FACE_OUTER_BOUND('',#107,.T.);
#65=FACE_OUTER_BOUND('',#108,.T.);
#66=FACE_OUTER_BOUND('',#110,.T.);
#67=FACE_OUTER_BOUND('',#111,.T.);
#68=FACE_OUTER_BOUND('',#113,.T.);
#69=FACE_OUTER_BOUND('',#114,.T.);
#70=FACE_OUTER_BOUND('',#115,.T.);
#71=FACE_OUTER_BOUND('',#116,.T.);
#72=FACE_OUTER_BOUND('',#117,.T.);
#73=FACE_OUTER_BOUND('',#119,.T.);
#74=FACE_OUTER_BOUND('',#120,.T.);
#75=FACE_OUTER_BOUND('',#121,.T.);
#76=FACE_OUTER_BOUND('',#122,.T.);
#77=FACE_OUTER_BOUND('',#125,.T.);
#78=FACE_OUTER_BOUND('',#126,.T.);
#79=FACE_OUTER_BOUND('',#127,.T.);
#80=FACE_OUTER_BOUND('',#128,.T.);
#81=FACE_OUTER_BOUND('',#129,.T.);
#82=FACE_OUTER_BOUND('',#130,.T.);
#83=FACE_OUTER_BOUND('',#131,.T.);
#84=FACE_OUTER_BOUND('',#132,.T.);
#85=FACE_OUTER_BOUND('',#133,.T.);
#86=FACE_OUTER_BOUND('',#134,.T.);
#87=FACE_OUTER_BOUND('',#135,.T.);
#88=FACE_OUTER_BOUND('',#137,.T.);
#89=FACE_OUTER_BOUND('',#139,.T.);
#90=FACE_OUTER_BOUND('',#140,.T.);
#91=FACE_OUTER_BOUND('',#141,.T.);
#92=FACE_OUTER_BOUND('',#142,.T.);
#93=FACE_OUTER_BOUND('',#143,.T.);
#94=FACE_OUTER_BOUND('',#145,.T.);
#95=FACE_OUTER_BOUND('',#147,.T.);
#96=FACE_OUTER_BOUND('',#148,.T.);
#97=FACE_OUTER_BOUND('',#149,.T.);
#98=FACE_OUTER_BOUND('',#150,.T.);
#99=FACE_OUTER_BOUND('',#151,.T.);
#100=FACE_OUTER_BOUND('',#152,.T.);
#101=FACE_OUTER_BOUND('',#153,.T.);
#102=FACE_OUTER_BOUND('',#154,.T.);
#103=FACE_OUTER_BOUND('',#155,.T.);
#104=FACE_OUTER_BOUND('',#156,.T.);
#105=EDGE_LOOP('',(#479,#480,#481,#482,#483,#484,#485));
#106=EDGE_LOOP('',(#486,#487,#488,#489));
#107=EDGE_LOOP('',(#490,#491,#492,#493));
#108=EDGE_LOOP('',(#494));
#109=EDGE_LOOP('',(#495));
#110=EDGE_LOOP('',(#496,#497,#498,#499,#500,#501));
#111=EDGE_LOOP('',(#502));
#112=EDGE_LOOP('',(#503));
#113=EDGE_LOOP('',(#504,#505,#506,#507));
#114=EDGE_LOOP('',(#508,#509,#510,#511));
#115=EDGE_LOOP('',(#512,#513,#514,#515));
#116=EDGE_LOOP('',(#516,#517,#518,#519,#520,#521,#522));
#117=EDGE_LOOP('',(#523,#524,#525,#526,#527,#528));
#118=EDGE_LOOP('',(#529));
#119=EDGE_LOOP('',(#530,#531,#532,#533));
#120=EDGE_LOOP('',(#534,#535,#536,#537));
#121=EDGE_LOOP('',(#538,#539,#540,#541,#542,#543,#544));
#122=EDGE_LOOP('',(#545,#546,#547,#548));
#123=EDGE_LOOP('',(#549));
#124=EDGE_LOOP('',(#550));
#125=EDGE_LOOP('',(#551,#552,#553,#554));
#126=EDGE_LOOP('',(#555,#556,#557,#558));
#127=EDGE_LOOP('',(#559,#560,#561,#562));
#128=EDGE_LOOP('',(#563,#564,#565,#566));
#129=EDGE_LOOP('',(#567,#568,#569,#570));
#130=EDGE_LOOP('',(#571,#572,#573,#574));
#131=EDGE_LOOP('',(#575,#576,#577,#578,#579,#580));
#132=EDGE_LOOP('',(#581,#582,#583,#584,#585));
#133=EDGE_LOOP('',(#586,#587,#588,#589,#590));
#134=EDGE_LOOP('',(#591,#592,#593,#594,#595));
#135=EDGE_LOOP('',(#596));
#136=EDGE_LOOP('',(#597,#598,#599,#600,#601,#602));
#137=EDGE_LOOP('',(#603));
#138=EDGE_LOOP('',(#604));
#139=EDGE_LOOP('',(#605,#606,#607,#608,#609));
#140=EDGE_LOOP('',(#610));
#141=EDGE_LOOP('',(#611));
#142=EDGE_LOOP('',(#612,#613,#614,#615,#616));
#143=EDGE_LOOP('',(#617));
#144=EDGE_LOOP('',(#618));
#145=EDGE_LOOP('',(#619));
#146=EDGE_LOOP('',(#620,#621,#622,#623,#624,#625));
#147=EDGE_LOOP('',(#626,#627,#628,#629,#630));
#148=EDGE_LOOP('',(#631,#632,#633,#634,#635));
#149=EDGE_LOOP('',(#636,#637,#638,#639,#640));
#150=EDGE_LOOP('',(#641,#642,#643,#644,#645,#646));
#151=EDGE_LOOP('',(#647,#648,#649,#650));
#152=EDGE_LOOP('',(#651,#652,#653,#654));
#153=EDGE_LOOP('',(#655,#656,#657,#658));
#154=EDGE_LOOP('',(#659,#660,#661,#662));
#155=EDGE_LOOP('',(#663,#664,#665,#666));
#156=EDGE_LOOP('',(#667,#668,#669,#670));
#157=CIRCLE('',#749,1.5);
#158=CIRCLE('',#750,1.5);
#159=CIRCLE('',#753,2.5);
#160=CIRCLE('',#754,2.5);
#161=CIRCLE('',#756,1.4);
#162=CIRCLE('',#758,2.5);
#163=CIRCLE('',#759,2.5);
#164=CIRCLE('',#761,1.4);
#165=CIRCLE('',#763,1.4);
#166=CIRCLE('',#765,1.4);
#167=CIRCLE('',#781,0.95);
#168=CIRCLE('',#782,1.25);
#169=CIRCLE('',#783,1.25);
#170=CIRCLE('',#785,2.25);
#171=CIRCLE('',#786,2.25);
#172=CIRCLE('',#787,2.25);
#173=CIRCLE('',#789,1.95);
#174=CIRCLE('',#790,0.3);
#175=CIRCLE('',#793,1.25);
#176=CIRCLE('',#797,0.95);
#177=CIRCLE('',#799,1.25);
#178=CIRCLE('',#800,1.25);
#179=CIRCLE('',#801,1.25);
#180=CIRCLE('',#803,2.25);
#181=CIRCLE('',#805,1.95);
#182=CIRCLE('',#807,0.3);
#183=CIRCLE('',#808,2.25);
#184=CIRCLE('',#809,2.25);
#185=LINE('',#1040,#251);
#186=LINE('',#1044,#252);
#187=LINE('',#1048,#253);
#188=LINE('',#1057,#254);
#189=LINE('',#1059,#255);
#190=LINE('',#1060,#256);
#191=LINE('',#1065,#257);
#192=LINE('',#1073,#258);
#193=LINE('',#1081,#259);
#194=LINE('',#1085,#260);
#195=LINE('',#1088,#261);
#196=LINE('',#1090,#262);
#197=LINE('',#1091,#263);
#198=LINE('',#1094,#264);
#199=LINE('',#1096,#265);
#200=LINE('',#1098,#266);
#201=LINE('',#1099,#267);
#202=LINE('',#1102,#268);
#203=LINE('',#1103,#269);
#204=LINE('',#1106,#270);
#205=LINE('',#1107,#271);
#206=LINE('',#1110,#272);
#207=LINE('',#1111,#273);
#208=LINE('',#1113,#274);
#209=LINE('',#1118,#275);
#210=LINE('',#1120,#276);
#211=LINE('',#1122,#277);
#212=LINE('',#1123,#278);
#213=LINE('',#1126,#279);
#214=LINE('',#1128,#280);
#215=LINE('',#1129,#281);
#216=LINE('',#1132,#282);
#217=LINE('',#1134,#283);
#218=LINE('',#1135,#284);
#219=LINE('',#1138,#285);
#220=LINE('',#1140,#286);
#221=LINE('',#1141,#287);
#222=LINE('',#1144,#288);
#223=LINE('',#1146,#289);
#224=LINE('',#1147,#290);
#225=LINE('',#1149,#291);
#226=LINE('',#1150,#292);
#227=LINE('',#1156,#293);
#228=LINE('',#1165,#294);
#229=LINE('',#1177,#295);
#230=LINE('',#1188,#296);
#231=LINE('',#1198,#297);
#232=LINE('',#1200,#298);
#233=LINE('',#1202,#299);
#234=LINE('',#1204,#300);
#235=LINE('',#1206,#301);
#236=LINE('',#1207,#302);
#237=LINE('',#1215,#303);
#238=LINE('',#1217,#304);
#239=LINE('',#1221,#305);
#240=LINE('',#1223,#306);
#241=LINE('',#1225,#307);
#242=LINE('',#1227,#308);
#243=LINE('',#1229,#309);
#244=LINE('',#1230,#310);
#245=LINE('',#1232,#311);
#246=LINE('',#1233,#312);
#247=LINE('',#1235,#313);
#248=LINE('',#1237,#314);
#249=LINE('',#1239,#315);
#250=LINE('',#1241,#316);
#251=VECTOR('',#823,10.);
#252=VECTOR('',#826,10.);
#253=VECTOR('',#829,10.);
#254=VECTOR('',#832,10.);
#255=VECTOR('',#833,10.);
#256=VECTOR('',#834,10.);
#257=VECTOR('',#839,2.5);
#258=VECTOR('',#850,2.5);
#259=VECTOR('',#861,1.4);
#260=VECTOR('',#866,1.4);
#261=VECTOR('',#869,10.);
#262=VECTOR('',#870,10.);
#263=VECTOR('',#871,10.);
#264=VECTOR('',#874,10.);
#265=VECTOR('',#875,10.);
#266=VECTOR('',#876,10.);
#267=VECTOR('',#877,10.);
#268=VECTOR('',#880,10.);
#269=VECTOR('',#881,10.);
#270=VECTOR('',#884,10.);
#271=VECTOR('',#885,10.);
#272=VECTOR('',#888,10.);
#273=VECTOR('',#889,10.);
#274=VECTOR('',#892,10.);
#275=VECTOR('',#897,10.);
#276=VECTOR('',#898,10.);
#277=VECTOR('',#899,10.);
#278=VECTOR('',#900,10.);
#279=VECTOR('',#903,10.);
#280=VECTOR('',#904,10.);
#281=VECTOR('',#905,10.);
#282=VECTOR('',#908,10.);
#283=VECTOR('',#909,10.);
#284=VECTOR('',#910,10.);
#285=VECTOR('',#913,10.);
#286=VECTOR('',#914,10.);
#287=VECTOR('',#915,10.);
#288=VECTOR('',#918,10.);
#289=VECTOR('',#919,10.);
#290=VECTOR('',#920,10.);
#291=VECTOR('',#923,10.);
#292=VECTOR('',#924,10.);
#293=VECTOR('',#931,1.1);
#294=VECTOR('',#940,2.25);
#295=VECTOR('',#959,1.25);
#296=VECTOR('',#972,1.25);
#297=VECTOR('',#983,10.);
#298=VECTOR('',#984,10.);
#299=VECTOR('',#985,10.);
#300=VECTOR('',#986,10.);
#301=VECTOR('',#987,10.);
#302=VECTOR('',#988,10.);
#303=VECTOR('',#999,2.25);
#304=VECTOR('',#1002,1.1);
#305=VECTOR('',#1005,10.);
#306=VECTOR('',#1006,10.);
#307=VECTOR('',#1007,10.);
#308=VECTOR('',#1008,10.);
#309=VECTOR('',#1009,10.);
#310=VECTOR('',#1010,10.);
#311=VECTOR('',#1013,10.);
#312=VECTOR('',#1014,10.);
#313=VECTOR('',#1017,10.);
#314=VECTOR('',#1020,10.);
#315=VECTOR('',#1023,10.);
#316=VECTOR('',#1026,10.);
#317=B_SPLINE_CURVE_WITH_KNOTS('',3,(#1033,#1034,#1035,#1036,#1037,#1038),
 .UNSPECIFIED.,.F.,.F.,(4,2,4),(1.75972549190505,1.86066083703324,1.96094484820674),
 .UNSPECIFIED.);
#318=B_SPLINE_CURVE_WITH_KNOTS('',3,(#1049,#1050,#1051,#1052,#1053,#1054),
 .UNSPECIFIED.,.F.,.F.,(4,2,4),(1.55850613560366,1.65879014677687,1.75972549190505),
 .UNSPECIFIED.);
#319=VERTEX_POINT('',#1031);
#320=VERTEX_POINT('',#1032);
#321=VERTEX_POINT('',#1039);
#322=VERTEX_POINT('',#1041);
#323=VERTEX_POINT('',#1043);
#324=VERTEX_POINT('',#1045);
#325=VERTEX_POINT('',#1047);
#326=VERTEX_POINT('',#1056);
#327=VERTEX_POINT('',#1058);
#328=VERTEX_POINT('',#1062);
#329=VERTEX_POINT('',#1064);
#330=VERTEX_POINT('',#1068);
#331=VERTEX_POINT('',#1072);
#332=VERTEX_POINT('',#1076);
#333=VERTEX_POINT('',#1079);
#334=VERTEX_POINT('',#1083);
#335=VERTEX_POINT('',#1087);
#336=VERTEX_POINT('',#1089);
#337=VERTEX_POINT('',#1093);
#338=VERTEX_POINT('',#1095);
#339=VERTEX_POINT('',#1097);
#340=VERTEX_POINT('',#1101);
#341=VERTEX_POINT('',#1105);
#342=VERTEX_POINT('',#1109);
#343=VERTEX_POINT('',#1116);
#344=VERTEX_POINT('',#1117);
#345=VERTEX_POINT('',#1119);
#346=VERTEX_POINT('',#1121);
#347=VERTEX_POINT('',#1125);
#348=VERTEX_POINT('',#1127);
#349=VERTEX_POINT('',#1131);
#350=VERTEX_POINT('',#1133);
#351=VERTEX_POINT('',#1137);
#352=VERTEX_POINT('',#1139);
#353=VERTEX_POINT('',#1143);
#354=VERTEX_POINT('',#1145);
#355=VERTEX_POINT('',#1153);
#356=VERTEX_POINT('',#1155);
#357=VERTEX_POINT('',#1157);
#358=VERTEX_POINT('',#1161);
#359=VERTEX_POINT('',#1162);
#360=VERTEX_POINT('',#1164);
#361=VERTEX_POINT('',#1169);
#362=VERTEX_POINT('',#1174);
#363=VERTEX_POINT('',#1180);
#364=VERTEX_POINT('',#1183);
#365=VERTEX_POINT('',#1184);
#366=VERTEX_POINT('',#1187);
#367=VERTEX_POINT('',#1191);
#368=VERTEX_POINT('',#1194);
#369=VERTEX_POINT('',#1196);
#370=VERTEX_POINT('',#1197);
#371=VERTEX_POINT('',#1199);
#372=VERTEX_POINT('',#1201);
#373=VERTEX_POINT('',#1203);
#374=VERTEX_POINT('',#1205);
#375=VERTEX_POINT('',#1209);
#376=VERTEX_POINT('',#1211);
#377=VERTEX_POINT('',#1219);
#378=VERTEX_POINT('',#1220);
#379=VERTEX_POINT('',#1222);
#380=VERTEX_POINT('',#1224);
#381=VERTEX_POINT('',#1226);
#382=VERTEX_POINT('',#1228);
#383=EDGE_CURVE('',#319,#320,#317,.F.);
#384=EDGE_CURVE('',#319,#321,#185,.T.);
#385=EDGE_CURVE('',#321,#322,#157,.T.);
#386=EDGE_CURVE('',#322,#323,#186,.T.);
#387=EDGE_CURVE('',#323,#324,#158,.T.);
#388=EDGE_CURVE('',#324,#325,#187,.T.);
#389=EDGE_CURVE('',#320,#325,#318,.F.);
#390=EDGE_CURVE('',#322,#326,#188,.T.);
#391=EDGE_CURVE('',#327,#326,#189,.T.);
#392=EDGE_CURVE('',#323,#327,#190,.T.);
#393=EDGE_CURVE('',#328,#328,#159,.T.);
#394=EDGE_CURVE('',#328,#329,#191,.T.);
#395=EDGE_CURVE('',#329,#329,#160,.T.);
#396=EDGE_CURVE('',#330,#330,#161,.T.);
#397=EDGE_CURVE('',#319,#325,#162,.T.);
#398=EDGE_CURVE('',#320,#331,#192,.T.);
#399=EDGE_CURVE('',#331,#331,#163,.T.);
#400=EDGE_CURVE('',#332,#332,#164,.T.);
#401=EDGE_CURVE('',#333,#333,#165,.T.);
#402=EDGE_CURVE('',#333,#332,#193,.T.);
#403=EDGE_CURVE('',#334,#334,#166,.T.);
#404=EDGE_CURVE('',#334,#330,#194,.T.);
#405=EDGE_CURVE('',#335,#327,#195,.T.);
#406=EDGE_CURVE('',#326,#336,#196,.T.);
#407=EDGE_CURVE('',#336,#335,#197,.T.);
#408=EDGE_CURVE('',#337,#321,#198,.T.);
#409=EDGE_CURVE('',#338,#337,#199,.T.);
#410=EDGE_CURVE('',#338,#339,#200,.T.);
#411=EDGE_CURVE('',#339,#336,#201,.T.);
#412=EDGE_CURVE('',#324,#340,#202,.T.);
#413=EDGE_CURVE('',#340,#337,#203,.T.);
#414=EDGE_CURVE('',#339,#341,#204,.T.);
#415=EDGE_CURVE('',#341,#335,#205,.T.);
#416=EDGE_CURVE('',#342,#338,#206,.T.);
#417=EDGE_CURVE('',#342,#340,#207,.T.);
#418=EDGE_CURVE('',#341,#342,#208,.T.);
#419=EDGE_CURVE('',#343,#344,#209,.T.);
#420=EDGE_CURVE('',#344,#345,#210,.T.);
#421=EDGE_CURVE('',#346,#345,#211,.T.);
#422=EDGE_CURVE('',#346,#343,#212,.T.);
#423=EDGE_CURVE('',#347,#343,#213,.T.);
#424=EDGE_CURVE('',#348,#346,#214,.T.);
#425=EDGE_CURVE('',#347,#348,#215,.T.);
#426=EDGE_CURVE('',#349,#347,#216,.T.);
#427=EDGE_CURVE('',#350,#348,#217,.T.);
#428=EDGE_CURVE('',#349,#350,#218,.T.);
#429=EDGE_CURVE('',#351,#349,#219,.T.);
#430=EDGE_CURVE('',#352,#350,#220,.T.);
#431=EDGE_CURVE('',#351,#352,#221,.T.);
#432=EDGE_CURVE('',#353,#351,#222,.T.);
#433=EDGE_CURVE('',#354,#352,#223,.T.);
#434=EDGE_CURVE('',#353,#354,#224,.T.);
#435=EDGE_CURVE('',#344,#353,#225,.T.);
#436=EDGE_CURVE('',#345,#354,#226,.T.);
#437=EDGE_CURVE('',#355,#355,#167,.T.);
#438=EDGE_CURVE('',#355,#356,#227,.T.);
#439=EDGE_CURVE('',#356,#357,#168,.T.);
#440=EDGE_CURVE('',#357,#356,#169,.T.);
#441=EDGE_CURVE('',#358,#359,#170,.T.);
#442=EDGE_CURVE('',#358,#360,#228,.T.);
#443=EDGE_CURVE('',#360,#360,#171,.T.);
#444=EDGE_CURVE('',#359,#358,#172,.T.);
#445=EDGE_CURVE('',#361,#361,#173,.T.);
#446=EDGE_CURVE('',#361,#359,#174,.T.);
#447=EDGE_CURVE('',#362,#362,#175,.T.);
#448=EDGE_CURVE('',#357,#362,#229,.T.);
#449=EDGE_CURVE('',#363,#363,#176,.T.);
#450=EDGE_CURVE('',#364,#365,#177,.T.);
#451=EDGE_CURVE('',#365,#364,#178,.T.);
#452=EDGE_CURVE('',#365,#366,#230,.T.);
#453=EDGE_CURVE('',#366,#366,#179,.T.);
#454=EDGE_CURVE('',#367,#367,#180,.T.);
#455=EDGE_CURVE('',#368,#368,#181,.T.);
#456=EDGE_CURVE('',#369,#370,#231,.T.);
#457=EDGE_CURVE('',#370,#371,#232,.T.);
#458=EDGE_CURVE('',#371,#372,#233,.T.);
#459=EDGE_CURVE('',#372,#373,#234,.T.);
#460=EDGE_CURVE('',#373,#374,#235,.T.);
#461=EDGE_CURVE('',#374,#369,#236,.T.);
#462=EDGE_CURVE('',#368,#375,#182,.T.);
#463=EDGE_CURVE('',#375,#376,#183,.T.);
#464=EDGE_CURVE('',#376,#375,#184,.T.);
#465=EDGE_CURVE('',#376,#367,#237,.T.);
#466=EDGE_CURVE('',#363,#364,#238,.T.);
#467=EDGE_CURVE('',#377,#378,#239,.T.);
#468=EDGE_CURVE('',#379,#377,#240,.T.);
#469=EDGE_CURVE('',#380,#379,#241,.T.);
#470=EDGE_CURVE('',#381,#380,#242,.T.);
#471=EDGE_CURVE('',#382,#381,#243,.T.);
#472=EDGE_CURVE('',#378,#382,#244,.T.);
#473=EDGE_CURVE('',#380,#373,#245,.T.);
#474=EDGE_CURVE('',#381,#372,#246,.T.);
#475=EDGE_CURVE('',#379,#374,#247,.T.);
#476=EDGE_CURVE('',#377,#369,#248,.T.);
#477=EDGE_CURVE('',#378,#370,#249,.T.);
#478=EDGE_CURVE('',#371,#382,#250,.T.);
#479=ORIENTED_EDGE('',*,*,#383,.F.);
#480=ORIENTED_EDGE('',*,*,#384,.T.);
#481=ORIENTED_EDGE('',*,*,#385,.T.);
#482=ORIENTED_EDGE('',*,*,#386,.T.);
#483=ORIENTED_EDGE('',*,*,#387,.T.);
#484=ORIENTED_EDGE('',*,*,#388,.T.);
#485=ORIENTED_EDGE('',*,*,#389,.F.);
#486=ORIENTED_EDGE('',*,*,#386,.F.);
#487=ORIENTED_EDGE('',*,*,#390,.T.);
#488=ORIENTED_EDGE('',*,*,#391,.F.);
#489=ORIENTED_EDGE('',*,*,#392,.F.);
#490=ORIENTED_EDGE('',*,*,#393,.F.);
#491=ORIENTED_EDGE('',*,*,#394,.T.);
#492=ORIENTED_EDGE('',*,*,#395,.F.);
#493=ORIENTED_EDGE('',*,*,#394,.F.);
#494=ORIENTED_EDGE('',*,*,#395,.T.);
#495=ORIENTED_EDGE('',*,*,#396,.F.);
#496=ORIENTED_EDGE('',*,*,#397,.F.);
#497=ORIENTED_EDGE('',*,*,#383,.T.);
#498=ORIENTED_EDGE('',*,*,#398,.T.);
#499=ORIENTED_EDGE('',*,*,#399,.F.);
#500=ORIENTED_EDGE('',*,*,#398,.F.);
#501=ORIENTED_EDGE('',*,*,#389,.T.);
#502=ORIENTED_EDGE('',*,*,#399,.T.);
#503=ORIENTED_EDGE('',*,*,#400,.F.);
#504=ORIENTED_EDGE('',*,*,#401,.F.);
#505=ORIENTED_EDGE('',*,*,#402,.T.);
#506=ORIENTED_EDGE('',*,*,#400,.T.);
#507=ORIENTED_EDGE('',*,*,#402,.F.);
#508=ORIENTED_EDGE('',*,*,#403,.F.);
#509=ORIENTED_EDGE('',*,*,#404,.T.);
#510=ORIENTED_EDGE('',*,*,#396,.T.);
#511=ORIENTED_EDGE('',*,*,#404,.F.);
#512=ORIENTED_EDGE('',*,*,#405,.T.);
#513=ORIENTED_EDGE('',*,*,#391,.T.);
#514=ORIENTED_EDGE('',*,*,#406,.T.);
#515=ORIENTED_EDGE('',*,*,#407,.T.);
#516=ORIENTED_EDGE('',*,*,#408,.F.);
#517=ORIENTED_EDGE('',*,*,#409,.F.);
#518=ORIENTED_EDGE('',*,*,#410,.T.);
#519=ORIENTED_EDGE('',*,*,#411,.T.);
#520=ORIENTED_EDGE('',*,*,#406,.F.);
#521=ORIENTED_EDGE('',*,*,#390,.F.);
#522=ORIENTED_EDGE('',*,*,#385,.F.);
#523=ORIENTED_EDGE('',*,*,#388,.F.);
#524=ORIENTED_EDGE('',*,*,#412,.T.);
#525=ORIENTED_EDGE('',*,*,#413,.T.);
#526=ORIENTED_EDGE('',*,*,#408,.T.);
#527=ORIENTED_EDGE('',*,*,#384,.F.);
#528=ORIENTED_EDGE('',*,*,#397,.T.);
#529=ORIENTED_EDGE('',*,*,#393,.T.);
#530=ORIENTED_EDGE('',*,*,#414,.T.);
#531=ORIENTED_EDGE('',*,*,#415,.T.);
#532=ORIENTED_EDGE('',*,*,#407,.F.);
#533=ORIENTED_EDGE('',*,*,#411,.F.);
#534=ORIENTED_EDGE('',*,*,#416,.T.);
#535=ORIENTED_EDGE('',*,*,#409,.T.);
#536=ORIENTED_EDGE('',*,*,#413,.F.);
#537=ORIENTED_EDGE('',*,*,#417,.F.);
#538=ORIENTED_EDGE('',*,*,#418,.T.);
#539=ORIENTED_EDGE('',*,*,#417,.T.);
#540=ORIENTED_EDGE('',*,*,#412,.F.);
#541=ORIENTED_EDGE('',*,*,#387,.F.);
#542=ORIENTED_EDGE('',*,*,#392,.T.);
#543=ORIENTED_EDGE('',*,*,#405,.F.);
#544=ORIENTED_EDGE('',*,*,#415,.F.);
#545=ORIENTED_EDGE('',*,*,#410,.F.);
#546=ORIENTED_EDGE('',*,*,#416,.F.);
#547=ORIENTED_EDGE('',*,*,#418,.F.);
#548=ORIENTED_EDGE('',*,*,#414,.F.);
#549=ORIENTED_EDGE('',*,*,#401,.T.);
#550=ORIENTED_EDGE('',*,*,#403,.T.);
#551=ORIENTED_EDGE('',*,*,#419,.T.);
#552=ORIENTED_EDGE('',*,*,#420,.T.);
#553=ORIENTED_EDGE('',*,*,#421,.F.);
#554=ORIENTED_EDGE('',*,*,#422,.T.);
#555=ORIENTED_EDGE('',*,*,#423,.T.);
#556=ORIENTED_EDGE('',*,*,#422,.F.);
#557=ORIENTED_EDGE('',*,*,#424,.F.);
#558=ORIENTED_EDGE('',*,*,#425,.F.);
#559=ORIENTED_EDGE('',*,*,#426,.T.);
#560=ORIENTED_EDGE('',*,*,#425,.T.);
#561=ORIENTED_EDGE('',*,*,#427,.F.);
#562=ORIENTED_EDGE('',*,*,#428,.F.);
#563=ORIENTED_EDGE('',*,*,#429,.T.);
#564=ORIENTED_EDGE('',*,*,#428,.T.);
#565=ORIENTED_EDGE('',*,*,#430,.F.);
#566=ORIENTED_EDGE('',*,*,#431,.F.);
#567=ORIENTED_EDGE('',*,*,#432,.T.);
#568=ORIENTED_EDGE('',*,*,#431,.T.);
#569=ORIENTED_EDGE('',*,*,#433,.F.);
#570=ORIENTED_EDGE('',*,*,#434,.F.);
#571=ORIENTED_EDGE('',*,*,#435,.T.);
#572=ORIENTED_EDGE('',*,*,#434,.T.);
#573=ORIENTED_EDGE('',*,*,#436,.F.);
#574=ORIENTED_EDGE('',*,*,#420,.F.);
#575=ORIENTED_EDGE('',*,*,#426,.F.);
#576=ORIENTED_EDGE('',*,*,#429,.F.);
#577=ORIENTED_EDGE('',*,*,#432,.F.);
#578=ORIENTED_EDGE('',*,*,#435,.F.);
#579=ORIENTED_EDGE('',*,*,#419,.F.);
#580=ORIENTED_EDGE('',*,*,#423,.F.);
#581=ORIENTED_EDGE('',*,*,#437,.T.);
#582=ORIENTED_EDGE('',*,*,#438,.T.);
#583=ORIENTED_EDGE('',*,*,#439,.T.);
#584=ORIENTED_EDGE('',*,*,#440,.T.);
#585=ORIENTED_EDGE('',*,*,#438,.F.);
#586=ORIENTED_EDGE('',*,*,#441,.F.);
#587=ORIENTED_EDGE('',*,*,#442,.T.);
#588=ORIENTED_EDGE('',*,*,#443,.T.);
#589=ORIENTED_EDGE('',*,*,#442,.F.);
#590=ORIENTED_EDGE('',*,*,#444,.F.);
#591=ORIENTED_EDGE('',*,*,#445,.T.);
#592=ORIENTED_EDGE('',*,*,#446,.T.);
#593=ORIENTED_EDGE('',*,*,#444,.T.);
#594=ORIENTED_EDGE('',*,*,#441,.T.);
#595=ORIENTED_EDGE('',*,*,#446,.F.);
#596=ORIENTED_EDGE('',*,*,#445,.F.);
#597=ORIENTED_EDGE('',*,*,#427,.T.);
#598=ORIENTED_EDGE('',*,*,#424,.T.);
#599=ORIENTED_EDGE('',*,*,#421,.T.);
#600=ORIENTED_EDGE('',*,*,#436,.T.);
#601=ORIENTED_EDGE('',*,*,#433,.T.);
#602=ORIENTED_EDGE('',*,*,#430,.T.);
#603=ORIENTED_EDGE('',*,*,#443,.F.);
#604=ORIENTED_EDGE('',*,*,#447,.T.);
#605=ORIENTED_EDGE('',*,*,#439,.F.);
#606=ORIENTED_EDGE('',*,*,#440,.F.);
#607=ORIENTED_EDGE('',*,*,#448,.T.);
#608=ORIENTED_EDGE('',*,*,#447,.F.);
#609=ORIENTED_EDGE('',*,*,#448,.F.);
#610=ORIENTED_EDGE('',*,*,#437,.F.);
#611=ORIENTED_EDGE('',*,*,#449,.F.);
#612=ORIENTED_EDGE('',*,*,#450,.F.);
#613=ORIENTED_EDGE('',*,*,#451,.F.);
#614=ORIENTED_EDGE('',*,*,#452,.T.);
#615=ORIENTED_EDGE('',*,*,#453,.F.);
#616=ORIENTED_EDGE('',*,*,#452,.F.);
#617=ORIENTED_EDGE('',*,*,#454,.F.);
#618=ORIENTED_EDGE('',*,*,#453,.T.);
#619=ORIENTED_EDGE('',*,*,#455,.F.);
#620=ORIENTED_EDGE('',*,*,#456,.T.);
#621=ORIENTED_EDGE('',*,*,#457,.T.);
#622=ORIENTED_EDGE('',*,*,#458,.T.);
#623=ORIENTED_EDGE('',*,*,#459,.T.);
#624=ORIENTED_EDGE('',*,*,#460,.T.);
#625=ORIENTED_EDGE('',*,*,#461,.T.);
#626=ORIENTED_EDGE('',*,*,#455,.T.);
#627=ORIENTED_EDGE('',*,*,#462,.T.);
#628=ORIENTED_EDGE('',*,*,#463,.T.);
#629=ORIENTED_EDGE('',*,*,#464,.T.);
#630=ORIENTED_EDGE('',*,*,#462,.F.);
#631=ORIENTED_EDGE('',*,*,#464,.F.);
#632=ORIENTED_EDGE('',*,*,#465,.T.);
#633=ORIENTED_EDGE('',*,*,#454,.T.);
#634=ORIENTED_EDGE('',*,*,#465,.F.);
#635=ORIENTED_EDGE('',*,*,#463,.F.);
#636=ORIENTED_EDGE('',*,*,#449,.T.);
#637=ORIENTED_EDGE('',*,*,#466,.T.);
#638=ORIENTED_EDGE('',*,*,#450,.T.);
#639=ORIENTED_EDGE('',*,*,#451,.T.);
#640=ORIENTED_EDGE('',*,*,#466,.F.);
#641=ORIENTED_EDGE('',*,*,#467,.F.);
#642=ORIENTED_EDGE('',*,*,#468,.F.);
#643=ORIENTED_EDGE('',*,*,#469,.F.);
#644=ORIENTED_EDGE('',*,*,#470,.F.);
#645=ORIENTED_EDGE('',*,*,#471,.F.);
#646=ORIENTED_EDGE('',*,*,#472,.F.);
#647=ORIENTED_EDGE('',*,*,#470,.T.);
#648=ORIENTED_EDGE('',*,*,#473,.T.);
#649=ORIENTED_EDGE('',*,*,#459,.F.);
#650=ORIENTED_EDGE('',*,*,#474,.F.);
#651=ORIENTED_EDGE('',*,*,#469,.T.);
#652=ORIENTED_EDGE('',*,*,#475,.T.);
#653=ORIENTED_EDGE('',*,*,#460,.F.);
#654=ORIENTED_EDGE('',*,*,#473,.F.);
#655=ORIENTED_EDGE('',*,*,#468,.T.);
#656=ORIENTED_EDGE('',*,*,#476,.T.);
#657=ORIENTED_EDGE('',*,*,#461,.F.);
#658=ORIENTED_EDGE('',*,*,#475,.F.);
#659=ORIENTED_EDGE('',*,*,#467,.T.);
#660=ORIENTED_EDGE('',*,*,#477,.T.);
#661=ORIENTED_EDGE('',*,*,#456,.F.);
#662=ORIENTED_EDGE('',*,*,#476,.F.);
#663=ORIENTED_EDGE('',*,*,#472,.T.);
#664=ORIENTED_EDGE('',*,*,#478,.F.);
#665=ORIENTED_EDGE('',*,*,#457,.F.);
#666=ORIENTED_EDGE('',*,*,#477,.F.);
#667=ORIENTED_EDGE('',*,*,#471,.T.);
#668=ORIENTED_EDGE('',*,*,#474,.T.);
#669=ORIENTED_EDGE('',*,*,#458,.F.);
#670=ORIENTED_EDGE('',*,*,#478,.T.);
#671=CYLINDRICAL_SURFACE('',#748,1.5);
#672=CYLINDRICAL_SURFACE('',#752,2.5);
#673=CYLINDRICAL_SURFACE('',#757,2.5);
#674=CYLINDRICAL_SURFACE('',#762,1.4);
#675=CYLINDRICAL_SURFACE('',#764,1.4);
#676=CYLINDRICAL_SURFACE('',#784,2.25);
#677=CYLINDRICAL_SURFACE('',#794,1.25);
#678=CYLINDRICAL_SURFACE('',#798,1.25);
#679=CYLINDRICAL_SURFACE('',#810,2.25);
#680=ADVANCED_FACE('',(#62),#671,.F.);
#681=ADVANCED_FACE('',(#63),#32,.T.);
#682=ADVANCED_FACE('',(#64),#672,.F.);
#683=ADVANCED_FACE('',(#65,#23),#33,.T.);
#684=ADVANCED_FACE('',(#66),#673,.F.);
#685=ADVANCED_FACE('',(#67,#24),#34,.T.);
#686=ADVANCED_FACE('',(#68),#674,.F.);
#687=ADVANCED_FACE('',(#69),#675,.F.);
#688=ADVANCED_FACE('',(#70),#35,.T.);
#689=ADVANCED_FACE('',(#71),#36,.T.);
#690=ADVANCED_FACE('',(#72,#25),#37,.T.);
#691=ADVANCED_FACE('',(#73),#38,.T.);
#692=ADVANCED_FACE('',(#74),#39,.T.);
#693=ADVANCED_FACE('',(#75),#40,.T.);
#694=ADVANCED_FACE('',(#76,#26,#27),#41,.F.);
#695=ADVANCED_FACE('',(#77),#42,.F.);
#696=ADVANCED_FACE('',(#78),#43,.F.);
#697=ADVANCED_FACE('',(#79),#44,.F.);
#698=ADVANCED_FACE('',(#80),#45,.F.);
#699=ADVANCED_FACE('',(#81),#46,.F.);
#700=ADVANCED_FACE('',(#82),#47,.F.);
#701=ADVANCED_FACE('',(#83),#48,.T.);
#702=ADVANCED_FACE('',(#84),#15,.T.);
#703=ADVANCED_FACE('',(#85),#676,.T.);
#704=ADVANCED_FACE('',(#86),#13,.T.);
#705=ADVANCED_FACE('',(#87,#28),#49,.T.);
#706=ADVANCED_FACE('',(#88,#29),#50,.F.);
#707=ADVANCED_FACE('',(#89),#677,.T.);
#708=ADVANCED_FACE('',(#90),#51,.F.);
#709=ADVANCED_FACE('',(#91),#52,.F.);
#710=ADVANCED_FACE('',(#92),#678,.T.);
#711=ADVANCED_FACE('',(#93,#30),#53,.F.);
#712=ADVANCED_FACE('',(#94,#31),#54,.T.);
#713=ADVANCED_FACE('',(#95),#14,.T.);
#714=ADVANCED_FACE('',(#96),#679,.T.);
#715=ADVANCED_FACE('',(#97),#16,.T.);
#716=ADVANCED_FACE('',(#98),#55,.T.);
#717=ADVANCED_FACE('',(#99),#56,.F.);
#718=ADVANCED_FACE('',(#100),#57,.F.);
#719=ADVANCED_FACE('',(#101),#58,.F.);
#720=ADVANCED_FACE('',(#102),#59,.F.);
#721=ADVANCED_FACE('',(#103),#60,.F.);
#722=ADVANCED_FACE('',(#104),#61,.F.);
#723=CLOSED_SHELL('',(#680,#681,#682,#683,#684,#685,#686,#687,#688,#689,
#690,#691,#692,#693,#694));
#724=CLOSED_SHELL('',(#695,#696,#697,#698,#699,#700,#701,#702,#703,#704,
#705,#706,#707,#708));
#725=CLOSED_SHELL('',(#709,#710,#711,#712,#713,#714,#715,#716,#717,#718,
#719,#720,#721,#722));
#726=DERIVED_UNIT_ELEMENT(#729,1.);
#727=DERIVED_UNIT_ELEMENT(#1248,-3.);
#728=DIMENSIONAL_EXPONENTS(0.,1.,0.,0.,0.,0.,0.);
#729=(
CONVERSION_BASED_UNIT('gram',#731)
MASS_UNIT()
NAMED_UNIT(#728)
);
#730=(
MASS_UNIT()
NAMED_UNIT(*)
SI_UNIT(.KILO.,.GRAM.)
);
#731=MASS_MEASURE_WITH_UNIT(MASS_MEASURE(0.001),#730);
#732=DERIVED_UNIT((#726,#727));
#733=MEASURE_REPRESENTATION_ITEM('density measure',
POSITIVE_RATIO_MEASURE(2.7),#732);
#734=PROPERTY_DEFINITION_REPRESENTATION(#739,#736);
#735=PROPERTY_DEFINITION_REPRESENTATION(#740,#737);
#736=REPRESENTATION('material name',(#738),#1245);
#737=REPRESENTATION('density',(#733),#1245);
#738=DESCRIPTIVE_REPRESENTATION_ITEM('Aluminium 6061','Aluminium 6061');
#739=PROPERTY_DEFINITION('material property','material name',#1255);
#740=PROPERTY_DEFINITION('material property','density of part',#1255);
#741=DATE_TIME_ROLE('creation_date');
#742=APPLIED_DATE_AND_TIME_ASSIGNMENT(#743,#741,(#1255));
#743=DATE_AND_TIME(#744,#745);
#744=CALENDAR_DATE(2025,12,6);
#745=LOCAL_TIME(0,0,0.,#746);
#746=COORDINATED_UNIVERSAL_TIME_OFFSET(0,0,.BEHIND.);
#747=AXIS2_PLACEMENT_3D('',#1029,#819,#820);
#748=AXIS2_PLACEMENT_3D('',#1030,#821,#822);
#749=AXIS2_PLACEMENT_3D('',#1042,#824,#825);
#750=AXIS2_PLACEMENT_3D('',#1046,#827,#828);
#751=AXIS2_PLACEMENT_3D('',#1055,#830,#831);
#752=AXIS2_PLACEMENT_3D('',#1061,#835,#836);
#753=AXIS2_PLACEMENT_3D('',#1063,#837,#838);
#754=AXIS2_PLACEMENT_3D('',#1066,#840,#841);
#755=AXIS2_PLACEMENT_3D('',#1067,#842,#843);
#756=AXIS2_PLACEMENT_3D('',#1069,#844,#845);
#757=AXIS2_PLACEMENT_3D('',#1070,#846,#847);
#758=AXIS2_PLACEMENT_3D('',#1071,#848,#849);
#759=AXIS2_PLACEMENT_3D('',#1074,#851,#852);
#760=AXIS2_PLACEMENT_3D('',#1075,#853,#854);
#761=AXIS2_PLACEMENT_3D('',#1077,#855,#856);
#762=AXIS2_PLACEMENT_3D('',#1078,#857,#858);
#763=AXIS2_PLACEMENT_3D('',#1080,#859,#860);
#764=AXIS2_PLACEMENT_3D('',#1082,#862,#863);
#765=AXIS2_PLACEMENT_3D('',#1084,#864,#865);
#766=AXIS2_PLACEMENT_3D('',#1086,#867,#868);
#767=AXIS2_PLACEMENT_3D('',#1092,#872,#873);
#768=AXIS2_PLACEMENT_3D('',#1100,#878,#879);
#769=AXIS2_PLACEMENT_3D('',#1104,#882,#883);
#770=AXIS2_PLACEMENT_3D('',#1108,#886,#887);
#771=AXIS2_PLACEMENT_3D('',#1112,#890,#891);
#772=AXIS2_PLACEMENT_3D('',#1114,#893,#894);
#773=AXIS2_PLACEMENT_3D('',#1115,#895,#896);
#774=AXIS2_PLACEMENT_3D('',#1124,#901,#902);
#775=AXIS2_PLACEMENT_3D('',#1130,#906,#907);
#776=AXIS2_PLACEMENT_3D('',#1136,#911,#912);
#777=AXIS2_PLACEMENT_3D('',#1142,#916,#917);
#778=AXIS2_PLACEMENT_3D('',#1148,#921,#922);
#779=AXIS2_PLACEMENT_3D('',#1151,#925,#926);
#780=AXIS2_PLACEMENT_3D('',#1152,#927,#928);
#781=AXIS2_PLACEMENT_3D('',#1154,#929,#930);
#782=AXIS2_PLACEMENT_3D('',#1158,#932,#933);
#783=AXIS2_PLACEMENT_3D('',#1159,#934,#935);
#784=AXIS2_PLACEMENT_3D('',#1160,#936,#937);
#785=AXIS2_PLACEMENT_3D('',#1163,#938,#939);
#786=AXIS2_PLACEMENT_3D('',#1166,#941,#942);
#787=AXIS2_PLACEMENT_3D('',#1167,#943,#944);
#788=AXIS2_PLACEMENT_3D('',#1168,#945,#946);
#789=AXIS2_PLACEMENT_3D('',#1170,#947,#948);
#790=AXIS2_PLACEMENT_3D('',#1171,#949,#950);
#791=AXIS2_PLACEMENT_3D('',#1172,#951,#952);
#792=AXIS2_PLACEMENT_3D('',#1173,#953,#954);
#793=AXIS2_PLACEMENT_3D('',#1175,#955,#956);
#794=AXIS2_PLACEMENT_3D('',#1176,#957,#958);
#795=AXIS2_PLACEMENT_3D('',#1178,#960,#961);
#796=AXIS2_PLACEMENT_3D('',#1179,#962,#963);
#797=AXIS2_PLACEMENT_3D('',#1181,#964,#965);
#798=AXIS2_PLACEMENT_3D('',#1182,#966,#967);
#799=AXIS2_PLACEMENT_3D('',#1185,#968,#969);
#800=AXIS2_PLACEMENT_3D('',#1186,#970,#971);
#801=AXIS2_PLACEMENT_3D('',#1189,#973,#974);
#802=AXIS2_PLACEMENT_3D('',#1190,#975,#976);
#803=AXIS2_PLACEMENT_3D('',#1192,#977,#978);
#804=AXIS2_PLACEMENT_3D('',#1193,#979,#980);
#805=AXIS2_PLACEMENT_3D('',#1195,#981,#982);
#806=AXIS2_PLACEMENT_3D('',#1208,#989,#990);
#807=AXIS2_PLACEMENT_3D('',#1210,#991,#992);
#808=AXIS2_PLACEMENT_3D('',#1212,#993,#994);
#809=AXIS2_PLACEMENT_3D('',#1213,#995,#996);
#810=AXIS2_PLACEMENT_3D('',#1214,#997,#998);
#811=AXIS2_PLACEMENT_3D('',#1216,#1000,#1001);
#812=AXIS2_PLACEMENT_3D('',#1218,#1003,#1004);
#813=AXIS2_PLACEMENT_3D('',#1231,#1011,#1012);
#814=AXIS2_PLACEMENT_3D('',#1234,#1015,#1016);
#815=AXIS2_PLACEMENT_3D('',#1236,#1018,#1019);
#816=AXIS2_PLACEMENT_3D('',#1238,#1021,#1022);
#817=AXIS2_PLACEMENT_3D('',#1240,#1024,#1025);
#818=AXIS2_PLACEMENT_3D('',#1242,#1027,#1028);
#819=DIRECTION('axis',(0.,0.,1.));
#820=DIRECTION('refdir',(1.,0.,0.));
#821=DIRECTION('center_axis',(0.,0.,-1.));
#822=DIRECTION('ref_axis',(-0.707106781186546,0.707106781186549,0.));
#823=DIRECTION('',(0.,0.,1.));
#824=DIRECTION('center_axis',(0.,0.,1.));
#825=DIRECTION('ref_axis',(-0.707106781186546,0.707106781186549,0.));
#826=DIRECTION('',(0.,0.,-1.));
#827=DIRECTION('center_axis',(0.,0.,-1.));
#828=DIRECTION('ref_axis',(-0.707106781186546,0.707106781186549,0.));
#829=DIRECTION('',(0.,0.,1.));
#830=DIRECTION('center_axis',(1.,0.,0.));
#831=DIRECTION('ref_axis',(0.,0.,1.));
#832=DIRECTION('',(0.,-1.,0.));
#833=DIRECTION('',(0.,0.,1.));
#834=DIRECTION('',(0.,-1.,0.));
#835=DIRECTION('center_axis',(0.,-1.,0.));
#836=DIRECTION('ref_axis',(1.,0.,0.));
#837=DIRECTION('center_axis',(0.,1.,0.));
#838=DIRECTION('ref_axis',(1.,0.,0.));
#839=DIRECTION('',(0.,1.,0.));
#840=DIRECTION('center_axis',(0.,-1.,0.));
#841=DIRECTION('ref_axis',(1.,0.,0.));
#842=DIRECTION('center_axis',(0.,-1.,0.));
#843=DIRECTION('ref_axis',(1.,0.,0.));
#844=DIRECTION('center_axis',(0.,-1.,0.));
#845=DIRECTION('ref_axis',(1.,5.55111512312578E-17,0.));
#846=DIRECTION('center_axis',(0.,-1.,0.));
#847=DIRECTION('ref_axis',(1.,0.,0.));
#848=DIRECTION('center_axis',(0.,1.,0.));
#849=DIRECTION('ref_axis',(1.,0.,0.));
#850=DIRECTION('',(0.,1.,0.));
#851=DIRECTION('center_axis',(0.,-1.,0.));
#852=DIRECTION('ref_axis',(1.,0.,0.));
#853=DIRECTION('center_axis',(0.,-1.,0.));
#854=DIRECTION('ref_axis',(1.,0.,0.));
#855=DIRECTION('center_axis',(0.,-1.,0.));
#856=DIRECTION('ref_axis',(1.,5.55111512312578E-17,0.));
#857=DIRECTION('center_axis',(5.55111512312578E-17,-1.,0.));
#858=DIRECTION('ref_axis',(1.,5.55111512312578E-17,0.));
#859=DIRECTION('center_axis',(5.55111512312578E-17,-1.,0.));
#860=DIRECTION('ref_axis',(1.,5.55111512312578E-17,0.));
#861=DIRECTION('',(5.55111512312578E-17,-1.,0.));
#862=DIRECTION('center_axis',(5.55111512312578E-17,-1.,0.));
#863=DIRECTION('ref_axis',(1.,5.55111512312578E-17,0.));
#864=DIRECTION('center_axis',(5.55111512312578E-17,-1.,0.));
#865=DIRECTION('ref_axis',(1.,5.55111512312578E-17,0.));
#866=DIRECTION('',(5.55111512312578E-17,-1.,0.));
#867=DIRECTION('center_axis',(0.,-1.,0.));
#868=DIRECTION('ref_axis',(0.,0.,-1.));
#869=DIRECTION('',(1.,5.55111512312578E-17,0.));
#870=DIRECTION('',(-1.,-5.55111512312578E-17,0.));
#871=DIRECTION('',(0.,0.,-1.));
#872=DIRECTION('center_axis',(0.,0.,1.));
#873=DIRECTION('ref_axis',(-1.,-5.55111512312578E-17,0.));
#874=DIRECTION('',(-1.,-5.55111512312578E-17,0.));
#875=DIRECTION('',(0.,-1.,0.));
#876=DIRECTION('',(-1.,-5.55111512312578E-17,0.));
#877=DIRECTION('',(0.,-1.,0.));
#878=DIRECTION('center_axis',(0.,-1.,0.));
#879=DIRECTION('ref_axis',(0.,0.,-1.));
#880=DIRECTION('',(1.,5.55111512312578E-17,0.));
#881=DIRECTION('',(0.,0.,1.));
#882=DIRECTION('center_axis',(-1.,0.,0.));
#883=DIRECTION('ref_axis',(0.,0.,-1.));
#884=DIRECTION('',(0.,0.,-1.));
#885=DIRECTION('',(0.,-1.,0.));
#886=DIRECTION('center_axis',(1.,0.,0.));
#887=DIRECTION('ref_axis',(0.,0.,1.));
#888=DIRECTION('',(0.,0.,1.));
#889=DIRECTION('',(0.,-1.,0.));
#890=DIRECTION('center_axis',(0.,0.,-1.));
#891=DIRECTION('ref_axis',(1.,5.55111512312578E-17,0.));
#892=DIRECTION('',(1.,5.55111512312578E-17,0.));
#893=DIRECTION('center_axis',(5.55111512312578E-17,-1.,0.));
#894=DIRECTION('ref_axis',(0.,0.,-1.));
#895=DIRECTION('center_axis',(0.,0.,1.));
#896=DIRECTION('ref_axis',(1.,0.,0.));
#897=DIRECTION('',(1.,0.,0.));
#898=DIRECTION('',(0.,-1.,0.));
#899=DIRECTION('',(1.,0.,0.));
#900=DIRECTION('',(0.,1.,0.));
#901=DIRECTION('center_axis',(-0.866025403784438,0.,0.5));
#902=DIRECTION('ref_axis',(0.5,0.,0.866025403784438));
#903=DIRECTION('',(0.5,0.,0.866025403784438));
#904=DIRECTION('',(0.5,0.,0.866025403784438));
#905=DIRECTION('',(0.,-1.,0.));
#906=DIRECTION('center_axis',(-0.866025403784439,0.,-0.499999999999999));
#907=DIRECTION('ref_axis',(-0.499999999999999,0.,0.866025403784439));
#908=DIRECTION('',(-0.499999999999999,0.,0.866025403784439));
#909=DIRECTION('',(-0.499999999999999,0.,0.866025403784439));
#910=DIRECTION('',(0.,-1.,0.));
#911=DIRECTION('center_axis',(-7.21111007393837E-16,0.,-1.));
#912=DIRECTION('ref_axis',(-1.,0.,7.21111007393837E-16));
#913=DIRECTION('',(-1.,0.,7.21111007393837E-16));
#914=DIRECTION('',(-1.,0.,7.21111007393837E-16));
#915=DIRECTION('',(0.,-1.,0.));
#916=DIRECTION('center_axis',(0.866025403784438,0.,-0.500000000000001));
#917=DIRECTION('ref_axis',(-0.500000000000001,0.,-0.866025403784438));
#918=DIRECTION('',(-0.500000000000001,0.,-0.866025403784438));
#919=DIRECTION('',(-0.500000000000001,0.,-0.866025403784438));
#920=DIRECTION('',(0.,-1.,0.));
#921=DIRECTION('center_axis',(0.866025403784439,0.,0.499999999999999));
#922=DIRECTION('ref_axis',(0.499999999999999,0.,-0.866025403784439));
#923=DIRECTION('',(0.499999999999999,0.,-0.866025403784439));
#924=DIRECTION('',(0.499999999999999,0.,-0.866025403784439));
#925=DIRECTION('center_axis',(0.,-1.,0.));
#926=DIRECTION('ref_axis',(0.,0.,-1.));
#927=DIRECTION('center_axis',(0.,-1.,0.));
#928=DIRECTION('ref_axis',(-1.,0.,0.));
#929=DIRECTION('center_axis',(0.,-1.,0.));
#930=DIRECTION('ref_axis',(-1.,0.,0.));
#931=DIRECTION('',(0.707106781186547,-0.707106781186547,-8.65956056235493E-17));
#932=DIRECTION('center_axis',(0.,1.,0.));
#933=DIRECTION('ref_axis',(-1.,0.,0.));
#934=DIRECTION('center_axis',(0.,1.,0.));
#935=DIRECTION('ref_axis',(-1.,0.,0.));
#936=DIRECTION('center_axis',(0.,-1.,0.));
#937=DIRECTION('ref_axis',(1.,0.,0.));
#938=DIRECTION('center_axis',(0.,-1.,0.));
#939=DIRECTION('ref_axis',(-1.,0.,0.));
#940=DIRECTION('',(0.,1.,0.));
#941=DIRECTION('center_axis',(0.,-1.,0.));
#942=DIRECTION('ref_axis',(1.,0.,0.));
#943=DIRECTION('center_axis',(0.,-1.,0.));
#944=DIRECTION('ref_axis',(-1.,0.,0.));
#945=DIRECTION('center_axis',(0.,-1.,0.));
#946=DIRECTION('ref_axis',(0.,0.,-1.));
#947=DIRECTION('center_axis',(0.,1.,0.));
#948=DIRECTION('ref_axis',(-1.,0.,0.));
#949=DIRECTION('center_axis',(-1.,0.,0.));
#950=DIRECTION('ref_axis',(0.,0.,1.));
#951=DIRECTION('center_axis',(0.,-1.,0.));
#952=DIRECTION('ref_axis',(0.,0.,-1.));
#953=DIRECTION('center_axis',(0.,-1.,0.));
#954=DIRECTION('ref_axis',(0.,0.,-1.));
#955=DIRECTION('center_axis',(0.,-1.,0.));
#956=DIRECTION('ref_axis',(1.,0.,0.));
#957=DIRECTION('center_axis',(0.,1.,0.));
#958=DIRECTION('ref_axis',(1.,0.,0.));
#959=DIRECTION('',(0.,-1.,0.));
#960=DIRECTION('center_axis',(0.,-1.,0.));
#961=DIRECTION('ref_axis',(0.,0.,-1.));
#962=DIRECTION('center_axis',(0.,-1.,0.));
#963=DIRECTION('ref_axis',(0.,0.,-1.));
#964=DIRECTION('center_axis',(0.,-1.,0.));
#965=DIRECTION('ref_axis',(-1.,0.,0.));
#966=DIRECTION('center_axis',(0.,1.,0.));
#967=DIRECTION('ref_axis',(1.,0.,0.));
#968=DIRECTION('center_axis',(0.,1.,0.));
#969=DIRECTION('ref_axis',(-1.,0.,0.));
#970=DIRECTION('center_axis',(0.,1.,0.));
#971=DIRECTION('ref_axis',(-1.,0.,0.));
#972=DIRECTION('',(0.,-1.,0.));
#973=DIRECTION('center_axis',(0.,-1.,0.));
#974=DIRECTION('ref_axis',(1.,0.,0.));
#975=DIRECTION('center_axis',(0.,-1.,0.));
#976=DIRECTION('ref_axis',(0.,0.,-1.));
#977=DIRECTION('center_axis',(0.,-1.,0.));
#978=DIRECTION('ref_axis',(1.,0.,0.));
#979=DIRECTION('center_axis',(0.,-1.,0.));
#980=DIRECTION('ref_axis',(0.,0.,-1.));
#981=DIRECTION('center_axis',(0.,1.,0.));
#982=DIRECTION('ref_axis',(-1.,0.,0.));
#983=DIRECTION('',(-0.866025403784438,0.,0.5));
#984=DIRECTION('',(2.40370335797945E-16,0.,1.));
#985=DIRECTION('',(0.866025403784439,0.,0.5));
#986=DIRECTION('',(0.866025403784439,0.,-0.5));
#987=DIRECTION('',(-2.40370335797945E-16,0.,-1.));
#988=DIRECTION('',(-0.866025403784439,0.,-0.5));
#989=DIRECTION('center_axis',(0.,-1.,0.));
#990=DIRECTION('ref_axis',(0.,0.,-1.));
#991=DIRECTION('center_axis',(-1.,0.,0.));
#992=DIRECTION('ref_axis',(0.,0.,1.));
#993=DIRECTION('center_axis',(0.,-1.,0.));
#994=DIRECTION('ref_axis',(-1.,0.,0.));
#995=DIRECTION('center_axis',(0.,-1.,0.));
#996=DIRECTION('ref_axis',(-1.,0.,0.));
#997=DIRECTION('center_axis',(0.,-1.,0.));
#998=DIRECTION('ref_axis',(1.,0.,0.));
#999=DIRECTION('',(0.,1.,0.));
#1000=DIRECTION('center_axis',(0.,-1.,0.));
#1001=DIRECTION('ref_axis',(-1.,0.,0.));
#1002=DIRECTION('',(0.707106781186547,-0.707106781186547,-8.65956056235493E-17));
#1003=DIRECTION('center_axis',(0.,-1.,0.));
#1004=DIRECTION('ref_axis',(0.,0.,-1.));
#1005=DIRECTION('',(-0.866025403784438,0.,0.5));
#1006=DIRECTION('',(-0.866025403784439,0.,-0.5));
#1007=DIRECTION('',(-2.40370335797945E-16,0.,-1.));
#1008=DIRECTION('',(0.866025403784439,0.,-0.5));
#1009=DIRECTION('',(0.866025403784439,0.,0.5));
#1010=DIRECTION('',(2.40370335797945E-16,0.,1.));
#1011=DIRECTION('center_axis',(0.5,0.,0.866025403784439));
#1012=DIRECTION('ref_axis',(0.866025403784439,0.,-0.5));
#1013=DIRECTION('',(0.,-1.,0.));
#1014=DIRECTION('',(0.,-1.,0.));
#1015=DIRECTION('center_axis',(1.,0.,-2.40370335797945E-16));
#1016=DIRECTION('ref_axis',(-2.40370335797945E-16,0.,-1.));
#1017=DIRECTION('',(0.,-1.,0.));
#1018=DIRECTION('center_axis',(0.5,0.,-0.866025403784439));
#1019=DIRECTION('ref_axis',(-0.866025403784439,0.,-0.5));
#1020=DIRECTION('',(0.,-1.,0.));
#1021=DIRECTION('center_axis',(-0.5,0.,-0.866025403784438));
#1022=DIRECTION('ref_axis',(-0.866025403784438,0.,0.5));
#1023=DIRECTION('',(0.,-1.,0.));
#1024=DIRECTION('center_axis',(-1.,0.,2.40370335797945E-16));
#1025=DIRECTION('ref_axis',(2.40370335797945E-16,0.,1.));
#1026=DIRECTION('',(0.,1.,0.));
#1027=DIRECTION('center_axis',(-0.5,0.,0.866025403784439));
#1028=DIRECTION('ref_axis',(0.866025403784439,0.,0.5));
#1029=CARTESIAN_POINT('',(0.,0.,0.));
#1030=CARTESIAN_POINT('Origin',(-13.7,-25.8,10.4));
#1031=CARTESIAN_POINT('',(-13.7,-24.3,14.2330302779823));
#1032=CARTESIAN_POINT('',(-14.5,-24.531142245955,12.4));
#1033=CARTESIAN_POINT('Ctrl Pts',(-14.5,-24.531142245955,12.4));
#1034=CARTESIAN_POINT('Ctrl Pts',(-14.5,-24.531142245955,12.7364511504273));
#1035=CARTESIAN_POINT('Ctrl Pts',(-14.4289815435225,-24.48031534848,13.0859617330648));
#1036=CARTESIAN_POINT('Ctrl Pts',(-14.1511039082542,-24.3615332209957,13.7197357106029));
#1037=CARTESIAN_POINT('Ctrl Pts',(-13.9452022084367,-24.2999999999996,14.0056233664062));
#1038=CARTESIAN_POINT('Ctrl Pts',(-13.6999999999979,-24.3,14.2330302779843));
#1039=CARTESIAN_POINT('',(-13.7,-24.3,16.4));
#1040=CARTESIAN_POINT('',(-13.7,-24.3,10.4));
#1041=CARTESIAN_POINT('',(-15.2,-25.8,16.4));
#1042=CARTESIAN_POINT('Origin',(-13.7,-25.8,16.4));
#1043=CARTESIAN_POINT('',(-15.2,-25.8,8.4));
#1044=CARTESIAN_POINT('',(-15.2,-25.8,10.4));
#1045=CARTESIAN_POINT('',(-13.7,-24.3,8.4));
#1046=CARTESIAN_POINT('Origin',(-13.7,-25.8,8.4));
#1047=CARTESIAN_POINT('',(-13.7,-24.3,10.5669697220177));
#1048=CARTESIAN_POINT('',(-13.7,-24.3,10.4));
#1049=CARTESIAN_POINT('Ctrl Pts',(-13.7,-24.3,10.5669697220177));
#1050=CARTESIAN_POINT('Ctrl Pts',(-13.9452022084379,-24.3,10.7943766335954));
#1051=CARTESIAN_POINT('Ctrl Pts',(-14.1511039082546,-24.3615332209959,11.080264289398));
#1052=CARTESIAN_POINT('Ctrl Pts',(-14.4289815435225,-24.48031534848,11.7140382669352));
#1053=CARTESIAN_POINT('Ctrl Pts',(-14.5,-24.531142245955,12.0635488495727));
#1054=CARTESIAN_POINT('Ctrl Pts',(-14.5,-24.531142245955,12.4));
#1055=CARTESIAN_POINT('Origin',(-15.2,-20.,8.4));
#1056=CARTESIAN_POINT('',(-15.2,-38.,16.4));
#1057=CARTESIAN_POINT('',(-15.2,-20.,16.4));
#1058=CARTESIAN_POINT('',(-15.2,-38.,8.4));
#1059=CARTESIAN_POINT('',(-15.2,-38.,8.4));
#1060=CARTESIAN_POINT('',(-15.2,-20.,8.4));
#1061=CARTESIAN_POINT('Origin',(-6.5,-23.3,12.4));
#1062=CARTESIAN_POINT('',(-9.,-24.3,12.4));
#1063=CARTESIAN_POINT('Origin',(-6.5,-24.3,12.4));
#1064=CARTESIAN_POINT('',(-9.,-22.3,12.4));
#1065=CARTESIAN_POINT('',(-9.,-23.3,12.4));
#1066=CARTESIAN_POINT('Origin',(-6.5,-22.3,12.4));
#1067=CARTESIAN_POINT('Origin',(-6.5,-22.3,12.4));
#1068=CARTESIAN_POINT('',(-7.9,-22.3,12.4));
#1069=CARTESIAN_POINT('Origin',(-6.5,-22.3,12.4));
#1070=CARTESIAN_POINT('Origin',(-12.,-23.3,12.4));
#1071=CARTESIAN_POINT('Origin',(-12.,-24.3,12.4));
#1072=CARTESIAN_POINT('',(-14.5,-22.3,12.4));
#1073=CARTESIAN_POINT('',(-14.5,-23.3,12.4));
#1074=CARTESIAN_POINT('Origin',(-12.,-22.3,12.4));
#1075=CARTESIAN_POINT('Origin',(-12.,-22.3,12.4));
#1076=CARTESIAN_POINT('',(-13.4,-22.3,12.4));
#1077=CARTESIAN_POINT('Origin',(-12.,-22.3,12.4));
#1078=CARTESIAN_POINT('Origin',(-12.,-45.377155080899,12.4));
#1079=CARTESIAN_POINT('',(-13.4,-20.,12.4));
#1080=CARTESIAN_POINT('Origin',(-12.,-20.,12.4));
#1081=CARTESIAN_POINT('',(-13.4,-45.377155080899,12.4));
#1082=CARTESIAN_POINT('Origin',(-6.5,-45.377155080899,12.4));
#1083=CARTESIAN_POINT('',(-7.9,-20.,12.4));
#1084=CARTESIAN_POINT('Origin',(-6.5,-20.,12.4));
#1085=CARTESIAN_POINT('',(-7.9,-45.377155080899,12.4));
#1086=CARTESIAN_POINT('Origin',(-17.2,-38.,12.4));
#1087=CARTESIAN_POINT('',(-19.2,-38.,8.4));
#1088=CARTESIAN_POINT('',(-19.2,-38.,8.4));
#1089=CARTESIAN_POINT('',(-19.2,-38.,16.4));
#1090=CARTESIAN_POINT('',(-3.2,-38.,16.4));
#1091=CARTESIAN_POINT('',(-19.2,-38.,16.4));
#1092=CARTESIAN_POINT('Origin',(-3.2,-20.,16.4));
#1093=CARTESIAN_POINT('',(-3.2,-24.3,16.4));
#1094=CARTESIAN_POINT('',(-3.2,-24.3,16.4));
#1095=CARTESIAN_POINT('',(-3.2,-20.,16.4));
#1096=CARTESIAN_POINT('',(-3.2,-20.,16.4));
#1097=CARTESIAN_POINT('',(-19.2,-20.,16.4));
#1098=CARTESIAN_POINT('',(-3.2,-20.,16.4));
#1099=CARTESIAN_POINT('',(-19.2,-20.,16.4));
#1100=CARTESIAN_POINT('Origin',(-11.2,-24.3,12.4));
#1101=CARTESIAN_POINT('',(-3.2,-24.3,8.4));
#1102=CARTESIAN_POINT('',(-19.2,-24.3,8.4));
#1103=CARTESIAN_POINT('',(-3.2,-24.3,8.4));
#1104=CARTESIAN_POINT('Origin',(-19.2,-20.,16.4));
#1105=CARTESIAN_POINT('',(-19.2,-20.,8.4));
#1106=CARTESIAN_POINT('',(-19.2,-20.,16.4));
#1107=CARTESIAN_POINT('',(-19.2,-20.,8.4));
#1108=CARTESIAN_POINT('Origin',(-3.2,-20.,8.4));
#1109=CARTESIAN_POINT('',(-3.2,-20.,8.4));
#1110=CARTESIAN_POINT('',(-3.2,-20.,8.4));
#1111=CARTESIAN_POINT('',(-3.2,-20.,8.4));
#1112=CARTESIAN_POINT('Origin',(-19.2,-20.,8.4));
#1113=CARTESIAN_POINT('',(-19.2,-20.,8.4));
#1114=CARTESIAN_POINT('Origin',(-11.2,-20.,12.4));
#1115=CARTESIAN_POINT('Origin',(-7.07735026918962,-22.3,13.4));
#1116=CARTESIAN_POINT('',(-7.07735026918962,-22.8,13.4));
#1117=CARTESIAN_POINT('',(-5.92264973081037,-22.8,13.4));
#1118=CARTESIAN_POINT('',(-8.125,-22.8,13.4));
#1119=CARTESIAN_POINT('',(-5.92264973081037,-24.8,13.4));
#1120=CARTESIAN_POINT('',(-5.92264973081037,-22.3,13.4));
#1121=CARTESIAN_POINT('',(-7.07735026918962,-24.8,13.4));
#1122=CARTESIAN_POINT('',(-6.78867513459481,-24.8,13.4));
#1123=CARTESIAN_POINT('',(-7.07735026918962,-22.3,13.4));
#1124=CARTESIAN_POINT('Origin',(-7.65470053837925,-22.3,12.4));
#1125=CARTESIAN_POINT('',(-7.65470053837925,-22.8,12.4));
#1126=CARTESIAN_POINT('',(-7.84444418743314,-22.8,12.0713543594251));
#1127=CARTESIAN_POINT('',(-7.65470053837925,-24.8,12.4));
#1128=CARTESIAN_POINT('',(-7.51036297108184,-24.8,12.65));
#1129=CARTESIAN_POINT('',(-7.65470053837925,-22.3,12.4));
#1130=CARTESIAN_POINT('Origin',(-7.07735026918963,-22.3,11.4));
#1131=CARTESIAN_POINT('',(-7.07735026918963,-22.8,11.4));
#1132=CARTESIAN_POINT('',(-7.55576905283833,-22.8,12.2286456405749));
#1133=CARTESIAN_POINT('',(-7.07735026918963,-24.8,11.4));
#1134=CARTESIAN_POINT('',(-7.22168783648703,-24.8,11.65));
#1135=CARTESIAN_POINT('',(-7.07735026918963,-22.3,11.4));
#1136=CARTESIAN_POINT('Origin',(-5.92264973081037,-22.3,11.4));
#1137=CARTESIAN_POINT('',(-5.92264973081037,-22.8,11.4));
#1138=CARTESIAN_POINT('',(-7.54764973081037,-22.8,11.4));
#1139=CARTESIAN_POINT('',(-5.92264973081037,-24.8,11.4));
#1140=CARTESIAN_POINT('',(-6.21132486540519,-24.8,11.4));
#1141=CARTESIAN_POINT('',(-5.92264973081037,-22.3,11.4));
#1142=CARTESIAN_POINT('Origin',(-5.34529946162075,-22.3,12.4));
#1143=CARTESIAN_POINT('',(-5.34529946162075,-22.8,12.4));
#1144=CARTESIAN_POINT('',(-5.82371824526945,-22.8,11.5713543594251));
#1145=CARTESIAN_POINT('',(-5.34529946162075,-24.8,12.4));
#1146=CARTESIAN_POINT('',(-5.48963702891815,-24.8,12.15));
#1147=CARTESIAN_POINT('',(-5.34529946162075,-22.3,12.4));
#1148=CARTESIAN_POINT('Origin',(-5.92264973081037,-22.3,13.4));
#1149=CARTESIAN_POINT('',(-6.11239337986426,-22.8,13.7286456405749));
#1150=CARTESIAN_POINT('',(-5.77831216351297,-24.8,13.15));
#1151=CARTESIAN_POINT('Origin',(-9.17264973081037,-22.8,12.4));
#1152=CARTESIAN_POINT('Origin',(-6.5,-16.45,12.4));
#1153=CARTESIAN_POINT('',(-5.55,-16.3,12.4));
#1154=CARTESIAN_POINT('Origin',(-6.5,-16.3,12.4));
#1155=CARTESIAN_POINT('',(-5.25,-16.6,12.4));
#1156=CARTESIAN_POINT('',(-5.4,-16.45,12.4));
#1157=CARTESIAN_POINT('',(-7.75,-16.6,12.4));
#1158=CARTESIAN_POINT('Origin',(-6.5,-16.6,12.4));
#1159=CARTESIAN_POINT('Origin',(-6.5,-16.6,12.4));
#1160=CARTESIAN_POINT('Origin',(-6.5,-22.3,12.4));
#1161=CARTESIAN_POINT('',(-8.75,-24.5,12.4));
#1162=CARTESIAN_POINT('',(-6.5,-24.5,14.65));
#1163=CARTESIAN_POINT('Origin',(-6.5,-24.5,12.4));
#1164=CARTESIAN_POINT('',(-8.75,-22.3,12.4));
#1165=CARTESIAN_POINT('',(-8.75,-22.3,12.4));
#1166=CARTESIAN_POINT('Origin',(-6.5,-22.3,12.4));
#1167=CARTESIAN_POINT('Origin',(-6.5,-24.5,12.4));
#1168=CARTESIAN_POINT('Origin',(-6.5,-24.5,12.4));
#1169=CARTESIAN_POINT('',(-6.5,-24.8,14.35));
#1170=CARTESIAN_POINT('Origin',(-6.5,-24.8,12.4));
#1171=CARTESIAN_POINT('Origin',(-6.5,-24.5,14.35));
#1172=CARTESIAN_POINT('Origin',(-6.5,-24.8,12.4));
#1173=CARTESIAN_POINT('Origin',(-6.5,-22.3,12.4));
#1174=CARTESIAN_POINT('',(-7.75,-22.3,12.4));
#1175=CARTESIAN_POINT('Origin',(-6.5,-22.3,12.4));
#1176=CARTESIAN_POINT('Origin',(-6.5,-22.3,12.4));
#1177=CARTESIAN_POINT('',(-7.75,-22.3,12.4));
#1178=CARTESIAN_POINT('Origin',(-6.5,-16.3,12.4));
#1179=CARTESIAN_POINT('Origin',(-12.,-16.3,12.4));
#1180=CARTESIAN_POINT('',(-11.05,-16.3,12.4));
#1181=CARTESIAN_POINT('Origin',(-12.,-16.3,12.4));
#1182=CARTESIAN_POINT('Origin',(-12.,-22.3,12.4));
#1183=CARTESIAN_POINT('',(-10.75,-16.6,12.4));
#1184=CARTESIAN_POINT('',(-13.25,-16.6,12.4));
#1185=CARTESIAN_POINT('Origin',(-12.,-16.6,12.4));
#1186=CARTESIAN_POINT('Origin',(-12.,-16.6,12.4));
#1187=CARTESIAN_POINT('',(-13.25,-22.3,12.4));
#1188=CARTESIAN_POINT('',(-13.25,-22.3,12.4));
#1189=CARTESIAN_POINT('Origin',(-12.,-22.3,12.4));
#1190=CARTESIAN_POINT('Origin',(-12.,-22.3,12.4));
#1191=CARTESIAN_POINT('',(-14.25,-22.3,12.4));
#1192=CARTESIAN_POINT('Origin',(-12.,-22.3,12.4));
#1193=CARTESIAN_POINT('Origin',(-12.,-24.8,12.4));
#1194=CARTESIAN_POINT('',(-12.,-24.8,14.35));
#1195=CARTESIAN_POINT('Origin',(-12.,-24.8,12.4));
#1196=CARTESIAN_POINT('',(-12.,-24.8,11.2452994616207));
#1197=CARTESIAN_POINT('',(-13.,-24.8,11.8226497308104));
#1198=CARTESIAN_POINT('',(-12.25,-24.8,11.3896370289182));
#1199=CARTESIAN_POINT('',(-13.,-24.8,12.9773502691896));
#1200=CARTESIAN_POINT('',(-13.,-24.8,12.1113248654052));
#1201=CARTESIAN_POINT('',(-12.,-24.8,13.5547005383793));
#1202=CARTESIAN_POINT('',(-12.75,-24.8,13.121687836487));
#1203=CARTESIAN_POINT('',(-11.,-24.8,12.9773502691896));
#1204=CARTESIAN_POINT('',(-11.75,-24.8,13.4103629710818));
#1205=CARTESIAN_POINT('',(-11.,-24.8,11.8226497308104));
#1206=CARTESIAN_POINT('',(-11.,-24.8,12.6886751345948));
#1207=CARTESIAN_POINT('',(-11.25,-24.8,11.678312163513));
#1208=CARTESIAN_POINT('Origin',(-12.,-24.5,12.4));
#1209=CARTESIAN_POINT('',(-12.,-24.5,14.65));
#1210=CARTESIAN_POINT('Origin',(-12.,-24.5,14.35));
#1211=CARTESIAN_POINT('',(-14.25,-24.5,12.4));
#1212=CARTESIAN_POINT('Origin',(-12.,-24.5,12.4));
#1213=CARTESIAN_POINT('Origin',(-12.,-24.5,12.4));
#1214=CARTESIAN_POINT('Origin',(-12.,-22.3,12.4));
#1215=CARTESIAN_POINT('',(-14.25,-22.3,12.4));
#1216=CARTESIAN_POINT('Origin',(-12.,-16.45,12.4));
#1217=CARTESIAN_POINT('',(-10.9,-16.45,12.4));
#1218=CARTESIAN_POINT('Origin',(-9.17264973081037,-22.8,12.4));
#1219=CARTESIAN_POINT('',(-12.,-22.8,11.2452994616207));
#1220=CARTESIAN_POINT('',(-13.,-22.8,11.8226497308104));
#1221=CARTESIAN_POINT('',(-11.1897436490539,-22.8,10.7774977392894));
#1222=CARTESIAN_POINT('',(-11.,-22.8,11.8226497308104));
#1223=CARTESIAN_POINT('',(-10.1897436490539,-22.8,12.2904514531417));
#1224=CARTESIAN_POINT('',(-11.,-22.8,12.9773502691896));
#1225=CARTESIAN_POINT('',(-11.,-22.8,12.6886751345948));
#1226=CARTESIAN_POINT('',(-12.,-22.8,13.5547005383793));
#1227=CARTESIAN_POINT('',(-10.6897436490539,-22.8,12.7982236814531));
#1228=CARTESIAN_POINT('',(-13.,-22.8,12.9773502691896));
#1229=CARTESIAN_POINT('',(-11.6897436490539,-22.8,13.7338271261158));
#1230=CARTESIAN_POINT('',(-13.,-22.8,12.1113248654052));
#1231=CARTESIAN_POINT('Origin',(-12.,-22.3,13.5547005383793));
#1232=CARTESIAN_POINT('',(-11.,-22.3,12.9773502691896));
#1233=CARTESIAN_POINT('',(-12.,-22.3,13.5547005383793));
#1234=CARTESIAN_POINT('Origin',(-11.,-22.3,12.9773502691896));
#1235=CARTESIAN_POINT('',(-11.,-22.3,11.8226497308104));
#1236=CARTESIAN_POINT('Origin',(-11.,-22.3,11.8226497308104));
#1237=CARTESIAN_POINT('',(-12.,-22.3,11.2452994616207));
#1238=CARTESIAN_POINT('Origin',(-12.,-22.3,11.2452994616207));
#1239=CARTESIAN_POINT('',(-13.,-22.3,11.8226497308104));
#1240=CARTESIAN_POINT('Origin',(-13.,-22.3,11.8226497308104));
#1241=CARTESIAN_POINT('',(-13.,-22.3,12.9773502691896));
#1242=CARTESIAN_POINT('Origin',(-13.,-22.3,12.9773502691896));
#1243=UNCERTAINTY_MEASURE_WITH_UNIT(LENGTH_MEASURE(0.01),#1247,
'DISTANCE_ACCURACY_VALUE',
'Maximum model space distance between geometric entities at asserted c
onnectivities');
#1244=UNCERTAINTY_MEASURE_WITH_UNIT(LENGTH_MEASURE(0.01),#1247,
'DISTANCE_ACCURACY_VALUE',
'Maximum model space distance between geometric entities at asserted c
onnectivities');
#1245=(
GEOMETRIC_REPRESENTATION_CONTEXT(3)
GLOBAL_UNCERTAINTY_ASSIGNED_CONTEXT((#1243))
GLOBAL_UNIT_ASSIGNED_CONTEXT((#1247,#1249,#1250))
REPRESENTATION_CONTEXT('','3D')
);
#1246=(
GEOMETRIC_REPRESENTATION_CONTEXT(3)
GLOBAL_UNCERTAINTY_ASSIGNED_CONTEXT((#1244))
GLOBAL_UNIT_ASSIGNED_CONTEXT((#1247,#1249,#1250))
REPRESENTATION_CONTEXT('','3D')
);
#1247=(
LENGTH_UNIT()
NAMED_UNIT(*)
SI_UNIT(.MILLI.,.METRE.)
);
#1248=(
LENGTH_UNIT()
NAMED_UNIT(*)
SI_UNIT(.CENTI.,.METRE.)
);
#1249=(
NAMED_UNIT(*)
PLANE_ANGLE_UNIT()
SI_UNIT($,.RADIAN.)
);
#1250=(
NAMED_UNIT(*)
SI_UNIT($,.STERADIAN.)
SOLID_ANGLE_UNIT()
);
#1251=SHAPE_DEFINITION_REPRESENTATION(#1252,#1253);
#1252=PRODUCT_DEFINITION_SHAPE('',$,#1255);
#1253=SHAPE_REPRESENTATION('',(#747),#1245);
#1254=PRODUCT_DEFINITION_CONTEXT('part definition',#1259,'design');
#1255=PRODUCT_DEFINITION('BUY - XYZ linear table - LD40 --- bracket',
'BUY - XYZ linear table - LD40 --- bracket',#1256,#1254);
#1256=PRODUCT_DEFINITION_FORMATION('',$,#1261);
#1257=PRODUCT_RELATED_PRODUCT_CATEGORY(
'BUY - XYZ linear table - LD40 --- bracket',
'BUY - XYZ linear table - LD40 --- bracket',(#1261));
#1258=APPLICATION_PROTOCOL_DEFINITION('international standard',
'automotive_design',2009,#1259);
#1259=APPLICATION_CONTEXT(
'Core Data for Automotive Mechanical Design Process');
#1260=PRODUCT_CONTEXT('part definition',#1259,'mechanical');
#1261=PRODUCT('BUY - XYZ linear table - LD40 --- bracket',
'BUY - XYZ linear table - LD40 --- bracket',$,(#1260));
#1262=PRESENTATION_STYLE_ASSIGNMENT((#1264));
#1263=PRESENTATION_STYLE_ASSIGNMENT((#1265));
#1264=SURFACE_STYLE_USAGE(.BOTH.,#1270);
#1265=SURFACE_STYLE_USAGE(.BOTH.,#1271);
#1266=SURFACE_STYLE_RENDERING_WITH_PROPERTIES($,#1278,(#1268));
#1267=SURFACE_STYLE_RENDERING_WITH_PROPERTIES($,#1279,(#1269));
#1268=SURFACE_STYLE_TRANSPARENT(0.);
#1269=SURFACE_STYLE_TRANSPARENT(0.);
#1270=SURFACE_SIDE_STYLE('',(#1272,#1266));
#1271=SURFACE_SIDE_STYLE('',(#1273,#1267));
#1272=SURFACE_STYLE_FILL_AREA(#1274);
#1273=SURFACE_STYLE_FILL_AREA(#1275);
#1274=FILL_AREA_STYLE('',(#1276));
#1275=FILL_AREA_STYLE('',(#1277));
#1276=FILL_AREA_STYLE_COLOUR('',#1278);
#1277=FILL_AREA_STYLE_COLOUR('',#1279);
#1278=COLOUR_RGB('',0.270588235294118,0.270588235294118,0.270588235294118);
#1279=COLOUR_RGB('',0.6,0.6,0.6);
ENDSEC;
END-ISO-10303-21;
