ISO-10303-21;
HEADER;
/* Generated by software containing ST-Developer
 * from STEP Tools, Inc. (www.steptools.com) 
 */

FILE_DESCRIPTION(
/* description */ ('STEP AP203'),
/* implementation_level */ '2;1');

FILE_NAME(
/* name */ 'BUY - Manual Z stage - LZ40 --- base.stp',
/* time_stamp */ '2026-09-22T17:02:53+02:00',
/* author */ ('benir'),
/* organization */ ('CADENAS'),
/* preprocessor_version */ 'ST-DEVELOPER v20',
/* originating_system */ 'Autodesk Inventor 2025',
/* authorisation */ ' ');

FILE_SCHEMA (('AUTOMOTIVE_DESIGN { 1 0 10303 214 3 1 1 }'));
ENDSEC;

DATA;
#10=MECHANICAL_DESIGN_GEOMETRIC_PRESENTATION_REPRESENTATION('',(#13),#2201);
#11=SHAPE_REPRESENTATION_RELATIONSHIP('SRR','None',#2208,#12);
#12=ADVANCED_BREP_SHAPE_REPRESENTATION('',(#14),#2200);
#13=STYLED_ITEM('',(#2217),#14);
#14=MANIFOLD_SOLID_BREP('Volumenk\X\F6rper2',#1361);
#15=CONICAL_SURFACE('',#1468,3.7,0.7853981634);
#16=FACE_BOUND('',#166,.T.);
#17=FACE_BOUND('',#167,.T.);
#18=FACE_BOUND('',#168,.T.);
#19=FACE_BOUND('',#169,.T.);
#20=FACE_BOUND('',#196,.T.);
#21=FACE_BOUND('',#197,.T.);
#22=FACE_BOUND('',#200,.T.);
#23=FACE_BOUND('',#201,.T.);
#24=FACE_BOUND('',#202,.T.);
#25=FACE_BOUND('',#214,.T.);
#26=FACE_BOUND('',#235,.T.);
#27=FACE_BOUND('',#237,.T.);
#28=FACE_BOUND('',#240,.T.);
#29=FACE_BOUND('',#243,.T.);
#30=PLANE('',#1390);
#31=PLANE('',#1394);
#32=PLANE('',#1395);
#33=PLANE('',#1396);
#34=PLANE('',#1397);
#35=PLANE('',#1398);
#36=PLANE('',#1399);
#37=PLANE('',#1400);
#38=PLANE('',#1401);
#39=PLANE('',#1402);
#40=PLANE('',#1403);
#41=PLANE('',#1404);
#42=PLANE('',#1405);
#43=PLANE('',#1406);
#44=PLANE('',#1407);
#45=PLANE('',#1408);
#46=PLANE('',#1409);
#47=PLANE('',#1410);
#48=PLANE('',#1411);
#49=PLANE('',#1412);
#50=PLANE('',#1413);
#51=PLANE('',#1414);
#52=PLANE('',#1415);
#53=PLANE('',#1416);
#54=PLANE('',#1417);
#55=PLANE('',#1418);
#56=PLANE('',#1419);
#57=PLANE('',#1420);
#58=PLANE('',#1421);
#59=PLANE('',#1423);
#60=PLANE('',#1424);
#61=PLANE('',#1425);
#62=PLANE('',#1426);
#63=PLANE('',#1427);
#64=PLANE('',#1428);
#65=PLANE('',#1429);
#66=PLANE('',#1430);
#67=PLANE('',#1431);
#68=PLANE('',#1432);
#69=PLANE('',#1433);
#70=PLANE('',#1435);
#71=PLANE('',#1436);
#72=PLANE('',#1437);
#73=PLANE('',#1438);
#74=PLANE('',#1439);
#75=PLANE('',#1440);
#76=PLANE('',#1441);
#77=PLANE('',#1442);
#78=PLANE('',#1443);
#79=PLANE('',#1444);
#80=PLANE('',#1445);
#81=PLANE('',#1446);
#82=PLANE('',#1447);
#83=PLANE('',#1448);
#84=PLANE('',#1449);
#85=PLANE('',#1450);
#86=PLANE('',#1456);
#87=PLANE('',#1457);
#88=PLANE('',#1458);
#89=PLANE('',#1459);
#90=PLANE('',#1464);
#91=PLANE('',#1470);
#92=FACE_OUTER_BOUND('',#163,.T.);
#93=FACE_OUTER_BOUND('',#164,.T.);
#94=FACE_OUTER_BOUND('',#165,.T.);
#95=FACE_OUTER_BOUND('',#170,.T.);
#96=FACE_OUTER_BOUND('',#171,.T.);
#97=FACE_OUTER_BOUND('',#172,.T.);
#98=FACE_OUTER_BOUND('',#173,.T.);
#99=FACE_OUTER_BOUND('',#174,.T.);
#100=FACE_OUTER_BOUND('',#175,.T.);
#101=FACE_OUTER_BOUND('',#176,.T.);
#102=FACE_OUTER_BOUND('',#177,.T.);
#103=FACE_OUTER_BOUND('',#178,.T.);
#104=FACE_OUTER_BOUND('',#179,.T.);
#105=FACE_OUTER_BOUND('',#180,.T.);
#106=FACE_OUTER_BOUND('',#181,.T.);
#107=FACE_OUTER_BOUND('',#182,.T.);
#108=FACE_OUTER_BOUND('',#183,.T.);
#109=FACE_OUTER_BOUND('',#184,.T.);
#110=FACE_OUTER_BOUND('',#185,.T.);
#111=FACE_OUTER_BOUND('',#186,.T.);
#112=FACE_OUTER_BOUND('',#187,.T.);
#113=FACE_OUTER_BOUND('',#188,.T.);
#114=FACE_OUTER_BOUND('',#189,.T.);
#115=FACE_OUTER_BOUND('',#190,.T.);
#116=FACE_OUTER_BOUND('',#191,.T.);
#117=FACE_OUTER_BOUND('',#192,.T.);
#118=FACE_OUTER_BOUND('',#193,.T.);
#119=FACE_OUTER_BOUND('',#194,.T.);
#120=FACE_OUTER_BOUND('',#195,.T.);
#121=FACE_OUTER_BOUND('',#198,.T.);
#122=FACE_OUTER_BOUND('',#199,.T.);
#123=FACE_OUTER_BOUND('',#203,.T.);
#124=FACE_OUTER_BOUND('',#204,.T.);
#125=FACE_OUTER_BOUND('',#205,.T.);
#126=FACE_OUTER_BOUND('',#206,.T.);
#127=FACE_OUTER_BOUND('',#207,.T.);
#128=FACE_OUTER_BOUND('',#208,.T.);
#129=FACE_OUTER_BOUND('',#209,.T.);
#130=FACE_OUTER_BOUND('',#210,.T.);
#131=FACE_OUTER_BOUND('',#211,.T.);
#132=FACE_OUTER_BOUND('',#212,.T.);
#133=FACE_OUTER_BOUND('',#213,.T.);
#134=FACE_OUTER_BOUND('',#215,.T.);
#135=FACE_OUTER_BOUND('',#216,.T.);
#136=FACE_OUTER_BOUND('',#217,.T.);
#137=FACE_OUTER_BOUND('',#218,.T.);
#138=FACE_OUTER_BOUND('',#219,.T.);
#139=FACE_OUTER_BOUND('',#220,.T.);
#140=FACE_OUTER_BOUND('',#221,.T.);
#141=FACE_OUTER_BOUND('',#222,.T.);
#142=FACE_OUTER_BOUND('',#223,.T.);
#143=FACE_OUTER_BOUND('',#224,.T.);
#144=FACE_OUTER_BOUND('',#225,.T.);
#145=FACE_OUTER_BOUND('',#226,.T.);
#146=FACE_OUTER_BOUND('',#227,.T.);
#147=FACE_OUTER_BOUND('',#228,.T.);
#148=FACE_OUTER_BOUND('',#229,.T.);
#149=FACE_OUTER_BOUND('',#230,.T.);
#150=FACE_OUTER_BOUND('',#231,.T.);
#151=FACE_OUTER_BOUND('',#232,.T.);
#152=FACE_OUTER_BOUND('',#233,.T.);
#153=FACE_OUTER_BOUND('',#234,.T.);
#154=FACE_OUTER_BOUND('',#236,.T.);
#155=FACE_OUTER_BOUND('',#238,.T.);
#156=FACE_OUTER_BOUND('',#239,.T.);
#157=FACE_OUTER_BOUND('',#241,.T.);
#158=FACE_OUTER_BOUND('',#242,.T.);
#159=FACE_OUTER_BOUND('',#244,.T.);
#160=FACE_OUTER_BOUND('',#245,.T.);
#161=FACE_OUTER_BOUND('',#246,.T.);
#162=FACE_OUTER_BOUND('',#247,.T.);
#163=EDGE_LOOP('',(#910,#911,#912,#913));
#164=EDGE_LOOP('',(#914,#915,#916,#917));
#165=EDGE_LOOP('',(#918,#919,#920,#921,#922,#923,#924,#925));
#166=EDGE_LOOP('',(#926));
#167=EDGE_LOOP('',(#927));
#168=EDGE_LOOP('',(#928));
#169=EDGE_LOOP('',(#929,#930,#931,#932,#933,#934,#935,#936,#937,#938,#939,
#940,#941,#942,#943,#944,#945,#946,#947,#948,#949,#950,#951,#952,#953,#954,
#955,#956));
#170=EDGE_LOOP('',(#957,#958,#959,#960));
#171=EDGE_LOOP('',(#961,#962,#963,#964));
#172=EDGE_LOOP('',(#965,#966,#967,#968));
#173=EDGE_LOOP('',(#969,#970,#971,#972));
#174=EDGE_LOOP('',(#973,#974,#975,#976));
#175=EDGE_LOOP('',(#977,#978,#979,#980));
#176=EDGE_LOOP('',(#981,#982,#983,#984));
#177=EDGE_LOOP('',(#985,#986,#987,#988));
#178=EDGE_LOOP('',(#989,#990,#991,#992));
#179=EDGE_LOOP('',(#993,#994,#995,#996));
#180=EDGE_LOOP('',(#997,#998,#999,#1000));
#181=EDGE_LOOP('',(#1001,#1002,#1003,#1004));
#182=EDGE_LOOP('',(#1005,#1006,#1007,#1008));
#183=EDGE_LOOP('',(#1009,#1010,#1011,#1012));
#184=EDGE_LOOP('',(#1013,#1014,#1015,#1016));
#185=EDGE_LOOP('',(#1017,#1018,#1019,#1020));
#186=EDGE_LOOP('',(#1021,#1022,#1023,#1024));
#187=EDGE_LOOP('',(#1025,#1026,#1027,#1028));
#188=EDGE_LOOP('',(#1029,#1030,#1031,#1032));
#189=EDGE_LOOP('',(#1033,#1034,#1035,#1036));
#190=EDGE_LOOP('',(#1037,#1038,#1039,#1040));
#191=EDGE_LOOP('',(#1041,#1042,#1043,#1044));
#192=EDGE_LOOP('',(#1045,#1046,#1047,#1048));
#193=EDGE_LOOP('',(#1049,#1050,#1051,#1052));
#194=EDGE_LOOP('',(#1053,#1054,#1055,#1056));
#195=EDGE_LOOP('',(#1057,#1058,#1059,#1060));
#196=EDGE_LOOP('',(#1061));
#197=EDGE_LOOP('',(#1062));
#198=EDGE_LOOP('',(#1063,#1064,#1065,#1066));
#199=EDGE_LOOP('',(#1067,#1068,#1069,#1070));
#200=EDGE_LOOP('',(#1071));
#201=EDGE_LOOP('',(#1072));
#202=EDGE_LOOP('',(#1073));
#203=EDGE_LOOP('',(#1074,#1075,#1076,#1077,#1078,#1079,#1080,#1081,#1082,
#1083,#1084,#1085));
#204=EDGE_LOOP('',(#1086,#1087,#1088,#1089));
#205=EDGE_LOOP('',(#1090,#1091,#1092,#1093));
#206=EDGE_LOOP('',(#1094,#1095,#1096,#1097));
#207=EDGE_LOOP('',(#1098,#1099,#1100,#1101));
#208=EDGE_LOOP('',(#1102,#1103,#1104,#1105));
#209=EDGE_LOOP('',(#1106,#1107,#1108,#1109));
#210=EDGE_LOOP('',(#1110,#1111,#1112,#1113));
#211=EDGE_LOOP('',(#1114,#1115,#1116,#1117));
#212=EDGE_LOOP('',(#1118,#1119,#1120,#1121,#1122,#1123,#1124,#1125,#1126,
#1127,#1128,#1129,#1130,#1131,#1132,#1133,#1134,#1135,#1136,#1137,#1138,
#1139,#1140,#1141,#1142,#1143,#1144,#1145));
#213=EDGE_LOOP('',(#1146,#1147,#1148,#1149,#1150));
#214=EDGE_LOOP('',(#1151));
#215=EDGE_LOOP('',(#1152,#1153,#1154,#1155));
#216=EDGE_LOOP('',(#1156,#1157,#1158,#1159));
#217=EDGE_LOOP('',(#1160,#1161,#1162,#1163));
#218=EDGE_LOOP('',(#1164,#1165,#1166,#1167));
#219=EDGE_LOOP('',(#1168,#1169,#1170,#1171));
#220=EDGE_LOOP('',(#1172,#1173,#1174,#1175));
#221=EDGE_LOOP('',(#1176,#1177,#1178,#1179));
#222=EDGE_LOOP('',(#1180,#1181,#1182,#1183));
#223=EDGE_LOOP('',(#1184,#1185,#1186,#1187));
#224=EDGE_LOOP('',(#1188,#1189,#1190,#1191,#1192,#1193,#1194,#1195));
#225=EDGE_LOOP('',(#1196,#1197,#1198,#1199,#1200,#1201,#1202,#1203));
#226=EDGE_LOOP('',(#1204,#1205,#1206,#1207));
#227=EDGE_LOOP('',(#1208,#1209,#1210,#1211));
#228=EDGE_LOOP('',(#1212,#1213,#1214,#1215,#1216,#1217,#1218,#1219));
#229=EDGE_LOOP('',(#1220,#1221,#1222,#1223,#1224,#1225,#1226,#1227));
#230=EDGE_LOOP('',(#1228,#1229,#1230,#1231));
#231=EDGE_LOOP('',(#1232,#1233,#1234,#1235));
#232=EDGE_LOOP('',(#1236,#1237,#1238,#1239));
#233=EDGE_LOOP('',(#1240,#1241,#1242,#1243));
#234=EDGE_LOOP('',(#1244,#1245,#1246,#1247,#1248));
#235=EDGE_LOOP('',(#1249));
#236=EDGE_LOOP('',(#1250,#1251,#1252,#1253,#1254));
#237=EDGE_LOOP('',(#1255));
#238=EDGE_LOOP('',(#1256,#1257,#1258,#1259,#1260));
#239=EDGE_LOOP('',(#1261));
#240=EDGE_LOOP('',(#1262));
#241=EDGE_LOOP('',(#1263,#1264,#1265,#1266));
#242=EDGE_LOOP('',(#1267));
#243=EDGE_LOOP('',(#1268));
#244=EDGE_LOOP('',(#1269,#1270,#1271,#1272));
#245=EDGE_LOOP('',(#1273,#1274,#1275,#1276));
#246=EDGE_LOOP('',(#1277));
#247=EDGE_LOOP('',(#1278,#1279,#1280,#1281));
#248=LINE('',#1824,#417);
#249=LINE('',#1830,#418);
#250=LINE('',#1835,#419);
#251=LINE('',#1837,#420);
#252=LINE('',#1839,#421);
#253=LINE('',#1841,#422);
#254=LINE('',#1843,#423);
#255=LINE('',#1845,#424);
#256=LINE('',#1847,#425);
#257=LINE('',#1848,#426);
#258=LINE('',#1857,#427);
#259=LINE('',#1859,#428);
#260=LINE('',#1861,#429);
#261=LINE('',#1863,#430);
#262=LINE('',#1865,#431);
#263=LINE('',#1867,#432);
#264=LINE('',#1869,#433);
#265=LINE('',#1871,#434);
#266=LINE('',#1873,#435);
#267=LINE('',#1875,#436);
#268=LINE('',#1877,#437);
#269=LINE('',#1879,#438);
#270=LINE('',#1881,#439);
#271=LINE('',#1883,#440);
#272=LINE('',#1885,#441);
#273=LINE('',#1887,#442);
#274=LINE('',#1889,#443);
#275=LINE('',#1891,#444);
#276=LINE('',#1893,#445);
#277=LINE('',#1895,#446);
#278=LINE('',#1897,#447);
#279=LINE('',#1899,#448);
#280=LINE('',#1901,#449);
#281=LINE('',#1903,#450);
#282=LINE('',#1905,#451);
#283=LINE('',#1907,#452);
#284=LINE('',#1909,#453);
#285=LINE('',#1910,#454);
#286=LINE('',#1914,#455);
#287=LINE('',#1915,#456);
#288=LINE('',#1916,#457);
#289=LINE('',#1919,#458);
#290=LINE('',#1920,#459);
#291=LINE('',#1923,#460);
#292=LINE('',#1924,#461);
#293=LINE('',#1927,#462);
#294=LINE('',#1928,#463);
#295=LINE('',#1931,#464);
#296=LINE('',#1932,#465);
#297=LINE('',#1935,#466);
#298=LINE('',#1936,#467);
#299=LINE('',#1939,#468);
#300=LINE('',#1940,#469);
#301=LINE('',#1943,#470);
#302=LINE('',#1944,#471);
#303=LINE('',#1947,#472);
#304=LINE('',#1948,#473);
#305=LINE('',#1951,#474);
#306=LINE('',#1952,#475);
#307=LINE('',#1955,#476);
#308=LINE('',#1956,#477);
#309=LINE('',#1959,#478);
#310=LINE('',#1960,#479);
#311=LINE('',#1963,#480);
#312=LINE('',#1964,#481);
#313=LINE('',#1967,#482);
#314=LINE('',#1968,#483);
#315=LINE('',#1971,#484);
#316=LINE('',#1972,#485);
#317=LINE('',#1975,#486);
#318=LINE('',#1976,#487);
#319=LINE('',#1979,#488);
#320=LINE('',#1980,#489);
#321=LINE('',#1983,#490);
#322=LINE('',#1984,#491);
#323=LINE('',#1987,#492);
#324=LINE('',#1988,#493);
#325=LINE('',#1991,#494);
#326=LINE('',#1992,#495);
#327=LINE('',#1995,#496);
#328=LINE('',#1996,#497);
#329=LINE('',#1999,#498);
#330=LINE('',#2000,#499);
#331=LINE('',#2003,#500);
#332=LINE('',#2004,#501);
#333=LINE('',#2007,#502);
#334=LINE('',#2008,#503);
#335=LINE('',#2011,#504);
#336=LINE('',#2012,#505);
#337=LINE('',#2015,#506);
#338=LINE('',#2016,#507);
#339=LINE('',#2019,#508);
#340=LINE('',#2020,#509);
#341=LINE('',#2022,#510);
#342=LINE('',#2028,#511);
#343=LINE('',#2030,#512);
#344=LINE('',#2032,#513);
#345=LINE('',#2034,#514);
#346=LINE('',#2036,#515);
#347=LINE('',#2038,#516);
#348=LINE('',#2040,#517);
#349=LINE('',#2042,#518);
#350=LINE('',#2044,#519);
#351=LINE('',#2046,#520);
#352=LINE('',#2048,#521);
#353=LINE('',#2049,#522);
#354=LINE('',#2053,#523);
#355=LINE('',#2054,#524);
#356=LINE('',#2055,#525);
#357=LINE('',#2058,#526);
#358=LINE('',#2059,#527);
#359=LINE('',#2063,#528);
#360=LINE('',#2064,#529);
#361=LINE('',#2065,#530);
#362=LINE('',#2068,#531);
#363=LINE('',#2069,#532);
#364=LINE('',#2073,#533);
#365=LINE('',#2074,#534);
#366=LINE('',#2075,#535);
#367=LINE('',#2078,#536);
#368=LINE('',#2079,#537);
#369=LINE('',#2083,#538);
#370=LINE('',#2084,#539);
#371=LINE('',#2085,#540);
#372=LINE('',#2088,#541);
#373=LINE('',#2089,#542);
#374=LINE('',#2093,#543);
#375=LINE('',#2095,#544);
#376=LINE('',#2096,#545);
#377=LINE('',#2101,#546);
#378=LINE('',#2103,#547);
#379=LINE('',#2104,#548);
#380=LINE('',#2107,#549);
#381=LINE('',#2108,#550);
#382=LINE('',#2111,#551);
#383=LINE('',#2112,#552);
#384=LINE('',#2115,#553);
#385=LINE('',#2116,#554);
#386=LINE('',#2119,#555);
#387=LINE('',#2120,#556);
#388=LINE('',#2123,#557);
#389=LINE('',#2124,#558);
#390=LINE('',#2127,#559);
#391=LINE('',#2128,#560);
#392=LINE('',#2130,#561);
#393=LINE('',#2132,#562);
#394=LINE('',#2133,#563);
#395=LINE('',#2136,#564);
#396=LINE('',#2137,#565);
#397=LINE('',#2140,#566);
#398=LINE('',#2141,#567);
#399=LINE('',#2144,#568);
#400=LINE('',#2145,#569);
#401=LINE('',#2148,#570);
#402=LINE('',#2149,#571);
#403=LINE('',#2151,#572);
#404=LINE('',#2153,#573);
#405=LINE('',#2154,#574);
#406=LINE('',#2157,#575);
#407=LINE('',#2158,#576);
#408=LINE('',#2159,#577);
#409=LINE('',#2161,#578);
#410=LINE('',#2165,#579);
#411=LINE('',#2169,#580);
#412=LINE('',#2171,#581);
#413=LINE('',#2183,#582);
#414=LINE('',#2190,#583);
#415=LINE('',#2193,#584);
#416=LINE('',#2197,#585);
#417=VECTOR('',#1478,1.2295);
#418=VECTOR('',#1485,1.2295);
#419=VECTOR('',#1490,1000.);
#420=VECTOR('',#1491,1000.);
#421=VECTOR('',#1492,1000.);
#422=VECTOR('',#1493,1000.);
#423=VECTOR('',#1494,1000.);
#424=VECTOR('',#1495,1000.);
#425=VECTOR('',#1496,1000.);
#426=VECTOR('',#1497,999.999999999998);
#427=VECTOR('',#1504,1000.);
#428=VECTOR('',#1505,1000.);
#429=VECTOR('',#1506,1000.);
#430=VECTOR('',#1507,1000.);
#431=VECTOR('',#1508,1000.);
#432=VECTOR('',#1509,1000.);
#433=VECTOR('',#1510,1000.);
#434=VECTOR('',#1511,1000.);
#435=VECTOR('',#1512,1000.);
#436=VECTOR('',#1513,1000.);
#437=VECTOR('',#1514,1000.);
#438=VECTOR('',#1515,1000.);
#439=VECTOR('',#1516,1000.);
#440=VECTOR('',#1517,1000.);
#441=VECTOR('',#1518,1000.);
#442=VECTOR('',#1519,1000.);
#443=VECTOR('',#1520,1000.);
#444=VECTOR('',#1521,1000.);
#445=VECTOR('',#1522,1000.);
#446=VECTOR('',#1523,1000.);
#447=VECTOR('',#1524,1000.);
#448=VECTOR('',#1525,1000.);
#449=VECTOR('',#1526,1000.);
#450=VECTOR('',#1527,1000.);
#451=VECTOR('',#1528,1000.);
#452=VECTOR('',#1529,1000.);
#453=VECTOR('',#1530,1000.);
#454=VECTOR('',#1531,1000.);
#455=VECTOR('',#1534,1000.);
#456=VECTOR('',#1535,1000.);
#457=VECTOR('',#1536,1000.);
#458=VECTOR('',#1539,1000.);
#459=VECTOR('',#1540,1000.);
#460=VECTOR('',#1543,1000.);
#461=VECTOR('',#1544,1000.);
#462=VECTOR('',#1547,1000.);
#463=VECTOR('',#1548,1000.);
#464=VECTOR('',#1551,1000.);
#465=VECTOR('',#1552,1000.);
#466=VECTOR('',#1555,1000.);
#467=VECTOR('',#1556,1000.);
#468=VECTOR('',#1559,1000.);
#469=VECTOR('',#1560,1000.);
#470=VECTOR('',#1563,1000.);
#471=VECTOR('',#1564,1000.);
#472=VECTOR('',#1567,1000.);
#473=VECTOR('',#1568,1000.);
#474=VECTOR('',#1571,1000.);
#475=VECTOR('',#1572,1000.);
#476=VECTOR('',#1575,1000.);
#477=VECTOR('',#1576,1000.);
#478=VECTOR('',#1579,1000.);
#479=VECTOR('',#1580,1000.);
#480=VECTOR('',#1583,1000.);
#481=VECTOR('',#1584,1000.);
#482=VECTOR('',#1587,1000.);
#483=VECTOR('',#1588,1000.);
#484=VECTOR('',#1591,1000.);
#485=VECTOR('',#1592,1000.);
#486=VECTOR('',#1595,1000.);
#487=VECTOR('',#1596,1000.);
#488=VECTOR('',#1599,1000.);
#489=VECTOR('',#1600,1000.);
#490=VECTOR('',#1603,1000.);
#491=VECTOR('',#1604,1000.);
#492=VECTOR('',#1607,1000.);
#493=VECTOR('',#1608,1000.);
#494=VECTOR('',#1611,1000.);
#495=VECTOR('',#1612,1000.);
#496=VECTOR('',#1615,1000.);
#497=VECTOR('',#1616,1000.);
#498=VECTOR('',#1619,1000.);
#499=VECTOR('',#1620,1000.);
#500=VECTOR('',#1623,1000.);
#501=VECTOR('',#1624,1000.);
#502=VECTOR('',#1627,1000.);
#503=VECTOR('',#1628,1000.);
#504=VECTOR('',#1631,1000.);
#505=VECTOR('',#1632,1000.);
#506=VECTOR('',#1635,1000.);
#507=VECTOR('',#1636,1000.);
#508=VECTOR('',#1639,1000.);
#509=VECTOR('',#1640,1000.);
#510=VECTOR('',#1643,1000.);
#511=VECTOR('',#1648,1000.);
#512=VECTOR('',#1649,1000.);
#513=VECTOR('',#1650,1000.);
#514=VECTOR('',#1651,1000.);
#515=VECTOR('',#1652,1000.);
#516=VECTOR('',#1653,1000.);
#517=VECTOR('',#1654,1000.);
#518=VECTOR('',#1655,1000.);
#519=VECTOR('',#1656,1000.);
#520=VECTOR('',#1657,1000.);
#521=VECTOR('',#1658,1000.);
#522=VECTOR('',#1659,1000.);
#523=VECTOR('',#1662,1000.);
#524=VECTOR('',#1663,1000.);
#525=VECTOR('',#1664,999.999999999998);
#526=VECTOR('',#1667,1000.);
#527=VECTOR('',#1668,999.999999999998);
#528=VECTOR('',#1671,1000.);
#529=VECTOR('',#1672,1000.);
#530=VECTOR('',#1673,999.999999999998);
#531=VECTOR('',#1676,1000.);
#532=VECTOR('',#1677,999.999999999998);
#533=VECTOR('',#1680,1000.);
#534=VECTOR('',#1681,1000.);
#535=VECTOR('',#1682,999.999999999998);
#536=VECTOR('',#1685,1000.);
#537=VECTOR('',#1686,999.999999999998);
#538=VECTOR('',#1689,1000.);
#539=VECTOR('',#1690,1000.);
#540=VECTOR('',#1691,999.999999999998);
#541=VECTOR('',#1694,1000.);
#542=VECTOR('',#1695,999.999999999998);
#543=VECTOR('',#1700,1000.);
#544=VECTOR('',#1701,1000.);
#545=VECTOR('',#1702,1000.);
#546=VECTOR('',#1707,1000.);
#547=VECTOR('',#1708,1000.);
#548=VECTOR('',#1709,1000.);
#549=VECTOR('',#1712,1000.);
#550=VECTOR('',#1713,1000.);
#551=VECTOR('',#1716,1000.);
#552=VECTOR('',#1717,1000.);
#553=VECTOR('',#1720,1000.);
#554=VECTOR('',#1721,1000.);
#555=VECTOR('',#1724,1000.);
#556=VECTOR('',#1725,1000.);
#557=VECTOR('',#1728,1000.);
#558=VECTOR('',#1729,1000.);
#559=VECTOR('',#1732,1000.);
#560=VECTOR('',#1733,1000.);
#561=VECTOR('',#1736,1000.);
#562=VECTOR('',#1739,1000.);
#563=VECTOR('',#1740,1000.);
#564=VECTOR('',#1743,1000.);
#565=VECTOR('',#1744,1000.);
#566=VECTOR('',#1747,1000.);
#567=VECTOR('',#1748,1000.);
#568=VECTOR('',#1751,1000.);
#569=VECTOR('',#1752,1000.);
#570=VECTOR('',#1755,1000.);
#571=VECTOR('',#1756,1000.);
#572=VECTOR('',#1759,1000.);
#573=VECTOR('',#1760,1000.);
#574=VECTOR('',#1761,1000.);
#575=VECTOR('',#1764,1000.);
#576=VECTOR('',#1765,1000.);
#577=VECTOR('',#1766,1000.);
#578=VECTOR('',#1769,1000.);
#579=VECTOR('',#1774,1.75);
#580=VECTOR('',#1779,1.75);
#581=VECTOR('',#1782,1.75);
#582=VECTOR('',#1799,2.5);
#583=VECTOR('',#1808,4.);
#584=VECTOR('',#1811,3.7);
#585=VECTOR('',#1818,4.);
#586=CIRCLE('',#1385,1.2295);
#587=CIRCLE('',#1386,1.2295);
#588=CIRCLE('',#1388,1.2295);
#589=CIRCLE('',#1389,1.2295);
#590=CIRCLE('',#1391,1.75);
#591=CIRCLE('',#1392,1.75);
#592=CIRCLE('',#1393,1.75);
#593=CIRCLE('',#1422,4.);
#594=CIRCLE('',#1434,1.75);
#595=CIRCLE('',#1452,1.75);
#596=CIRCLE('',#1454,1.75);
#597=CIRCLE('',#1460,4.);
#598=CIRCLE('',#1461,2.5);
#599=CIRCLE('',#1463,2.5);
#600=CIRCLE('',#1465,4.);
#601=CIRCLE('',#1467,4.);
#602=CIRCLE('',#1469,3.7);
#603=VERTEX_POINT('',#1821);
#604=VERTEX_POINT('',#1823);
#605=VERTEX_POINT('',#1827);
#606=VERTEX_POINT('',#1829);
#607=VERTEX_POINT('',#1833);
#608=VERTEX_POINT('',#1834);
#609=VERTEX_POINT('',#1836);
#610=VERTEX_POINT('',#1838);
#611=VERTEX_POINT('',#1840);
#612=VERTEX_POINT('',#1842);
#613=VERTEX_POINT('',#1844);
#614=VERTEX_POINT('',#1846);
#615=VERTEX_POINT('',#1849);
#616=VERTEX_POINT('',#1851);
#617=VERTEX_POINT('',#1853);
#618=VERTEX_POINT('',#1855);
#619=VERTEX_POINT('',#1856);
#620=VERTEX_POINT('',#1858);
#621=VERTEX_POINT('',#1860);
#622=VERTEX_POINT('',#1862);
#623=VERTEX_POINT('',#1864);
#624=VERTEX_POINT('',#1866);
#625=VERTEX_POINT('',#1868);
#626=VERTEX_POINT('',#1870);
#627=VERTEX_POINT('',#1872);
#628=VERTEX_POINT('',#1874);
#629=VERTEX_POINT('',#1876);
#630=VERTEX_POINT('',#1878);
#631=VERTEX_POINT('',#1880);
#632=VERTEX_POINT('',#1882);
#633=VERTEX_POINT('',#1884);
#634=VERTEX_POINT('',#1886);
#635=VERTEX_POINT('',#1888);
#636=VERTEX_POINT('',#1890);
#637=VERTEX_POINT('',#1892);
#638=VERTEX_POINT('',#1894);
#639=VERTEX_POINT('',#1896);
#640=VERTEX_POINT('',#1898);
#641=VERTEX_POINT('',#1900);
#642=VERTEX_POINT('',#1902);
#643=VERTEX_POINT('',#1904);
#644=VERTEX_POINT('',#1906);
#645=VERTEX_POINT('',#1908);
#646=VERTEX_POINT('',#1912);
#647=VERTEX_POINT('',#1913);
#648=VERTEX_POINT('',#1918);
#649=VERTEX_POINT('',#1922);
#650=VERTEX_POINT('',#1926);
#651=VERTEX_POINT('',#1930);
#652=VERTEX_POINT('',#1934);
#653=VERTEX_POINT('',#1938);
#654=VERTEX_POINT('',#1942);
#655=VERTEX_POINT('',#1946);
#656=VERTEX_POINT('',#1950);
#657=VERTEX_POINT('',#1954);
#658=VERTEX_POINT('',#1958);
#659=VERTEX_POINT('',#1962);
#660=VERTEX_POINT('',#1966);
#661=VERTEX_POINT('',#1970);
#662=VERTEX_POINT('',#1974);
#663=VERTEX_POINT('',#1978);
#664=VERTEX_POINT('',#1982);
#665=VERTEX_POINT('',#1986);
#666=VERTEX_POINT('',#1990);
#667=VERTEX_POINT('',#1994);
#668=VERTEX_POINT('',#1998);
#669=VERTEX_POINT('',#2002);
#670=VERTEX_POINT('',#2006);
#671=VERTEX_POINT('',#2010);
#672=VERTEX_POINT('',#2014);
#673=VERTEX_POINT('',#2018);
#674=VERTEX_POINT('',#2023);
#675=VERTEX_POINT('',#2026);
#676=VERTEX_POINT('',#2027);
#677=VERTEX_POINT('',#2029);
#678=VERTEX_POINT('',#2031);
#679=VERTEX_POINT('',#2033);
#680=VERTEX_POINT('',#2035);
#681=VERTEX_POINT('',#2037);
#682=VERTEX_POINT('',#2039);
#683=VERTEX_POINT('',#2041);
#684=VERTEX_POINT('',#2043);
#685=VERTEX_POINT('',#2045);
#686=VERTEX_POINT('',#2047);
#687=VERTEX_POINT('',#2051);
#688=VERTEX_POINT('',#2052);
#689=VERTEX_POINT('',#2057);
#690=VERTEX_POINT('',#2061);
#691=VERTEX_POINT('',#2062);
#692=VERTEX_POINT('',#2067);
#693=VERTEX_POINT('',#2071);
#694=VERTEX_POINT('',#2072);
#695=VERTEX_POINT('',#2077);
#696=VERTEX_POINT('',#2081);
#697=VERTEX_POINT('',#2082);
#698=VERTEX_POINT('',#2087);
#699=VERTEX_POINT('',#2092);
#700=VERTEX_POINT('',#2094);
#701=VERTEX_POINT('',#2097);
#702=VERTEX_POINT('',#2100);
#703=VERTEX_POINT('',#2102);
#704=VERTEX_POINT('',#2106);
#705=VERTEX_POINT('',#2110);
#706=VERTEX_POINT('',#2114);
#707=VERTEX_POINT('',#2118);
#708=VERTEX_POINT('',#2122);
#709=VERTEX_POINT('',#2126);
#710=VERTEX_POINT('',#2135);
#711=VERTEX_POINT('',#2139);
#712=VERTEX_POINT('',#2143);
#713=VERTEX_POINT('',#2147);
#714=VERTEX_POINT('',#2152);
#715=VERTEX_POINT('',#2156);
#716=VERTEX_POINT('',#2163);
#717=VERTEX_POINT('',#2167);
#718=VERTEX_POINT('',#2176);
#719=VERTEX_POINT('',#2178);
#720=VERTEX_POINT('',#2181);
#721=VERTEX_POINT('',#2185);
#722=VERTEX_POINT('',#2188);
#723=VERTEX_POINT('',#2192);
#724=EDGE_CURVE('',#603,#603,#586,.T.);
#725=EDGE_CURVE('',#603,#604,#248,.T.);
#726=EDGE_CURVE('',#604,#604,#587,.T.);
#727=EDGE_CURVE('',#605,#605,#588,.T.);
#728=EDGE_CURVE('',#605,#606,#249,.T.);
#729=EDGE_CURVE('',#606,#606,#589,.T.);
#730=EDGE_CURVE('',#607,#608,#250,.T.);
#731=EDGE_CURVE('',#608,#609,#251,.T.);
#732=EDGE_CURVE('',#609,#610,#252,.T.);
#733=EDGE_CURVE('',#610,#611,#253,.T.);
#734=EDGE_CURVE('',#611,#612,#254,.T.);
#735=EDGE_CURVE('',#612,#613,#255,.T.);
#736=EDGE_CURVE('',#613,#614,#256,.T.);
#737=EDGE_CURVE('',#614,#607,#257,.T.);
#738=EDGE_CURVE('',#615,#615,#590,.T.);
#739=EDGE_CURVE('',#616,#616,#591,.T.);
#740=EDGE_CURVE('',#617,#617,#592,.T.);
#741=EDGE_CURVE('',#618,#619,#258,.T.);
#742=EDGE_CURVE('',#620,#618,#259,.T.);
#743=EDGE_CURVE('',#621,#620,#260,.T.);
#744=EDGE_CURVE('',#622,#621,#261,.T.);
#745=EDGE_CURVE('',#623,#622,#262,.T.);
#746=EDGE_CURVE('',#624,#623,#263,.T.);
#747=EDGE_CURVE('',#625,#624,#264,.T.);
#748=EDGE_CURVE('',#626,#625,#265,.T.);
#749=EDGE_CURVE('',#627,#626,#266,.T.);
#750=EDGE_CURVE('',#628,#627,#267,.T.);
#751=EDGE_CURVE('',#629,#628,#268,.T.);
#752=EDGE_CURVE('',#630,#629,#269,.T.);
#753=EDGE_CURVE('',#631,#630,#270,.T.);
#754=EDGE_CURVE('',#632,#631,#271,.T.);
#755=EDGE_CURVE('',#633,#632,#272,.T.);
#756=EDGE_CURVE('',#634,#633,#273,.T.);
#757=EDGE_CURVE('',#635,#634,#274,.T.);
#758=EDGE_CURVE('',#636,#635,#275,.T.);
#759=EDGE_CURVE('',#637,#636,#276,.T.);
#760=EDGE_CURVE('',#638,#637,#277,.T.);
#761=EDGE_CURVE('',#639,#638,#278,.T.);
#762=EDGE_CURVE('',#640,#639,#279,.T.);
#763=EDGE_CURVE('',#641,#640,#280,.T.);
#764=EDGE_CURVE('',#642,#641,#281,.T.);
#765=EDGE_CURVE('',#643,#642,#282,.T.);
#766=EDGE_CURVE('',#644,#643,#283,.T.);
#767=EDGE_CURVE('',#645,#644,#284,.T.);
#768=EDGE_CURVE('',#619,#645,#285,.T.);
#769=EDGE_CURVE('',#646,#647,#286,.T.);
#770=EDGE_CURVE('',#647,#620,#287,.T.);
#771=EDGE_CURVE('',#646,#618,#288,.T.);
#772=EDGE_CURVE('',#647,#648,#289,.T.);
#773=EDGE_CURVE('',#648,#621,#290,.T.);
#774=EDGE_CURVE('',#648,#649,#291,.T.);
#775=EDGE_CURVE('',#649,#622,#292,.T.);
#776=EDGE_CURVE('',#649,#650,#293,.T.);
#777=EDGE_CURVE('',#650,#623,#294,.T.);
#778=EDGE_CURVE('',#650,#651,#295,.T.);
#779=EDGE_CURVE('',#651,#624,#296,.T.);
#780=EDGE_CURVE('',#651,#652,#297,.T.);
#781=EDGE_CURVE('',#652,#625,#298,.T.);
#782=EDGE_CURVE('',#652,#653,#299,.T.);
#783=EDGE_CURVE('',#653,#626,#300,.T.);
#784=EDGE_CURVE('',#653,#654,#301,.T.);
#785=EDGE_CURVE('',#654,#627,#302,.T.);
#786=EDGE_CURVE('',#654,#655,#303,.T.);
#787=EDGE_CURVE('',#655,#628,#304,.T.);
#788=EDGE_CURVE('',#655,#656,#305,.T.);
#789=EDGE_CURVE('',#656,#629,#306,.T.);
#790=EDGE_CURVE('',#656,#657,#307,.T.);
#791=EDGE_CURVE('',#657,#630,#308,.T.);
#792=EDGE_CURVE('',#657,#658,#309,.T.);
#793=EDGE_CURVE('',#658,#631,#310,.T.);
#794=EDGE_CURVE('',#658,#659,#311,.T.);
#795=EDGE_CURVE('',#659,#632,#312,.T.);
#796=EDGE_CURVE('',#659,#660,#313,.T.);
#797=EDGE_CURVE('',#660,#633,#314,.T.);
#798=EDGE_CURVE('',#660,#661,#315,.T.);
#799=EDGE_CURVE('',#661,#634,#316,.T.);
#800=EDGE_CURVE('',#661,#662,#317,.T.);
#801=EDGE_CURVE('',#662,#635,#318,.T.);
#802=EDGE_CURVE('',#662,#663,#319,.T.);
#803=EDGE_CURVE('',#663,#636,#320,.T.);
#804=EDGE_CURVE('',#663,#664,#321,.T.);
#805=EDGE_CURVE('',#664,#637,#322,.T.);
#806=EDGE_CURVE('',#664,#665,#323,.T.);
#807=EDGE_CURVE('',#665,#638,#324,.T.);
#808=EDGE_CURVE('',#665,#666,#325,.T.);
#809=EDGE_CURVE('',#666,#639,#326,.T.);
#810=EDGE_CURVE('',#666,#667,#327,.T.);
#811=EDGE_CURVE('',#667,#640,#328,.T.);
#812=EDGE_CURVE('',#667,#668,#329,.T.);
#813=EDGE_CURVE('',#668,#641,#330,.T.);
#814=EDGE_CURVE('',#668,#669,#331,.T.);
#815=EDGE_CURVE('',#669,#642,#332,.T.);
#816=EDGE_CURVE('',#669,#670,#333,.T.);
#817=EDGE_CURVE('',#670,#643,#334,.T.);
#818=EDGE_CURVE('',#670,#671,#335,.T.);
#819=EDGE_CURVE('',#671,#644,#336,.T.);
#820=EDGE_CURVE('',#671,#672,#337,.T.);
#821=EDGE_CURVE('',#672,#645,#338,.T.);
#822=EDGE_CURVE('',#672,#673,#339,.T.);
#823=EDGE_CURVE('',#673,#619,#340,.T.);
#824=EDGE_CURVE('',#673,#646,#341,.T.);
#825=EDGE_CURVE('',#674,#674,#593,.F.);
#826=EDGE_CURVE('',#675,#676,#342,.F.);
#827=EDGE_CURVE('',#677,#676,#343,.T.);
#828=EDGE_CURVE('',#678,#677,#344,.T.);
#829=EDGE_CURVE('',#678,#679,#345,.F.);
#830=EDGE_CURVE('',#680,#679,#346,.T.);
#831=EDGE_CURVE('',#681,#680,#347,.T.);
#832=EDGE_CURVE('',#681,#682,#348,.F.);
#833=EDGE_CURVE('',#683,#682,#349,.T.);
#834=EDGE_CURVE('',#684,#683,#350,.T.);
#835=EDGE_CURVE('',#684,#685,#351,.F.);
#836=EDGE_CURVE('',#686,#685,#352,.T.);
#837=EDGE_CURVE('',#675,#686,#353,.T.);
#838=EDGE_CURVE('',#687,#688,#354,.T.);
#839=EDGE_CURVE('',#686,#688,#355,.T.);
#840=EDGE_CURVE('',#687,#685,#356,.F.);
#841=EDGE_CURVE('',#688,#689,#357,.T.);
#842=EDGE_CURVE('',#675,#689,#358,.F.);
#843=EDGE_CURVE('',#690,#691,#359,.T.);
#844=EDGE_CURVE('',#677,#691,#360,.T.);
#845=EDGE_CURVE('',#690,#676,#361,.F.);
#846=EDGE_CURVE('',#691,#692,#362,.T.);
#847=EDGE_CURVE('',#678,#692,#363,.F.);
#848=EDGE_CURVE('',#693,#694,#364,.T.);
#849=EDGE_CURVE('',#680,#694,#365,.T.);
#850=EDGE_CURVE('',#693,#679,#366,.F.);
#851=EDGE_CURVE('',#694,#695,#367,.T.);
#852=EDGE_CURVE('',#681,#695,#368,.F.);
#853=EDGE_CURVE('',#696,#697,#369,.T.);
#854=EDGE_CURVE('',#683,#697,#370,.T.);
#855=EDGE_CURVE('',#696,#682,#371,.F.);
#856=EDGE_CURVE('',#697,#698,#372,.T.);
#857=EDGE_CURVE('',#684,#698,#373,.F.);
#858=EDGE_CURVE('',#696,#699,#374,.T.);
#859=EDGE_CURVE('',#699,#700,#375,.T.);
#860=EDGE_CURVE('',#700,#698,#376,.T.);
#861=EDGE_CURVE('',#701,#701,#594,.T.);
#862=EDGE_CURVE('',#610,#702,#377,.T.);
#863=EDGE_CURVE('',#702,#703,#378,.T.);
#864=EDGE_CURVE('',#611,#703,#379,.T.);
#865=EDGE_CURVE('',#609,#704,#380,.T.);
#866=EDGE_CURVE('',#704,#702,#381,.T.);
#867=EDGE_CURVE('',#608,#705,#382,.T.);
#868=EDGE_CURVE('',#705,#704,#383,.T.);
#869=EDGE_CURVE('',#607,#706,#384,.T.);
#870=EDGE_CURVE('',#706,#705,#385,.T.);
#871=EDGE_CURVE('',#614,#707,#386,.T.);
#872=EDGE_CURVE('',#707,#706,#387,.T.);
#873=EDGE_CURVE('',#613,#708,#388,.T.);
#874=EDGE_CURVE('',#708,#707,#389,.T.);
#875=EDGE_CURVE('',#612,#709,#390,.T.);
#876=EDGE_CURVE('',#709,#708,#391,.T.);
#877=EDGE_CURVE('',#703,#709,#392,.T.);
#878=EDGE_CURVE('',#709,#700,#393,.F.);
#879=EDGE_CURVE('',#699,#708,#394,.F.);
#880=EDGE_CURVE('',#710,#695,#395,.T.);
#881=EDGE_CURVE('',#710,#707,#396,.F.);
#882=EDGE_CURVE('',#703,#711,#397,.T.);
#883=EDGE_CURVE('',#687,#711,#398,.T.);
#884=EDGE_CURVE('',#712,#706,#399,.F.);
#885=EDGE_CURVE('',#712,#710,#400,.T.);
#886=EDGE_CURVE('',#702,#713,#401,.T.);
#887=EDGE_CURVE('',#711,#713,#402,.T.);
#888=EDGE_CURVE('',#693,#712,#403,.T.);
#889=EDGE_CURVE('',#714,#692,#404,.T.);
#890=EDGE_CURVE('',#714,#705,#405,.F.);
#891=EDGE_CURVE('',#690,#715,#406,.T.);
#892=EDGE_CURVE('',#713,#689,#407,.T.);
#893=EDGE_CURVE('',#704,#715,#408,.T.);
#894=EDGE_CURVE('',#715,#714,#409,.T.);
#895=EDGE_CURVE('',#716,#716,#595,.T.);
#896=EDGE_CURVE('',#716,#615,#410,.T.);
#897=EDGE_CURVE('',#717,#717,#596,.T.);
#898=EDGE_CURVE('',#717,#616,#411,.T.);
#899=EDGE_CURVE('',#701,#617,#412,.T.);
#900=EDGE_CURVE('',#718,#718,#597,.T.);
#901=EDGE_CURVE('',#719,#719,#598,.T.);
#902=EDGE_CURVE('',#720,#720,#599,.T.);
#903=EDGE_CURVE('',#720,#719,#413,.T.);
#904=EDGE_CURVE('',#721,#721,#600,.T.);
#905=EDGE_CURVE('',#722,#722,#601,.T.);
#906=EDGE_CURVE('',#722,#721,#414,.T.);
#907=EDGE_CURVE('',#722,#723,#415,.T.);
#908=EDGE_CURVE('',#723,#723,#602,.T.);
#909=EDGE_CURVE('',#718,#674,#416,.T.);
#910=ORIENTED_EDGE('',*,*,#724,.F.);
#911=ORIENTED_EDGE('',*,*,#725,.T.);
#912=ORIENTED_EDGE('',*,*,#726,.F.);
#913=ORIENTED_EDGE('',*,*,#725,.F.);
#914=ORIENTED_EDGE('',*,*,#727,.F.);
#915=ORIENTED_EDGE('',*,*,#728,.T.);
#916=ORIENTED_EDGE('',*,*,#729,.F.);
#917=ORIENTED_EDGE('',*,*,#728,.F.);
#918=ORIENTED_EDGE('',*,*,#730,.T.);
#919=ORIENTED_EDGE('',*,*,#731,.T.);
#920=ORIENTED_EDGE('',*,*,#732,.T.);
#921=ORIENTED_EDGE('',*,*,#733,.T.);
#922=ORIENTED_EDGE('',*,*,#734,.T.);
#923=ORIENTED_EDGE('',*,*,#735,.T.);
#924=ORIENTED_EDGE('',*,*,#736,.T.);
#925=ORIENTED_EDGE('',*,*,#737,.T.);
#926=ORIENTED_EDGE('',*,*,#738,.T.);
#927=ORIENTED_EDGE('',*,*,#739,.T.);
#928=ORIENTED_EDGE('',*,*,#740,.T.);
#929=ORIENTED_EDGE('',*,*,#741,.F.);
#930=ORIENTED_EDGE('',*,*,#742,.F.);
#931=ORIENTED_EDGE('',*,*,#743,.F.);
#932=ORIENTED_EDGE('',*,*,#744,.F.);
#933=ORIENTED_EDGE('',*,*,#745,.F.);
#934=ORIENTED_EDGE('',*,*,#746,.F.);
#935=ORIENTED_EDGE('',*,*,#747,.F.);
#936=ORIENTED_EDGE('',*,*,#748,.F.);
#937=ORIENTED_EDGE('',*,*,#749,.F.);
#938=ORIENTED_EDGE('',*,*,#750,.F.);
#939=ORIENTED_EDGE('',*,*,#751,.F.);
#940=ORIENTED_EDGE('',*,*,#752,.F.);
#941=ORIENTED_EDGE('',*,*,#753,.F.);
#942=ORIENTED_EDGE('',*,*,#754,.F.);
#943=ORIENTED_EDGE('',*,*,#755,.F.);
#944=ORIENTED_EDGE('',*,*,#756,.F.);
#945=ORIENTED_EDGE('',*,*,#757,.F.);
#946=ORIENTED_EDGE('',*,*,#758,.F.);
#947=ORIENTED_EDGE('',*,*,#759,.F.);
#948=ORIENTED_EDGE('',*,*,#760,.F.);
#949=ORIENTED_EDGE('',*,*,#761,.F.);
#950=ORIENTED_EDGE('',*,*,#762,.F.);
#951=ORIENTED_EDGE('',*,*,#763,.F.);
#952=ORIENTED_EDGE('',*,*,#764,.F.);
#953=ORIENTED_EDGE('',*,*,#765,.F.);
#954=ORIENTED_EDGE('',*,*,#766,.F.);
#955=ORIENTED_EDGE('',*,*,#767,.F.);
#956=ORIENTED_EDGE('',*,*,#768,.F.);
#957=ORIENTED_EDGE('',*,*,#769,.T.);
#958=ORIENTED_EDGE('',*,*,#770,.T.);
#959=ORIENTED_EDGE('',*,*,#742,.T.);
#960=ORIENTED_EDGE('',*,*,#771,.F.);
#961=ORIENTED_EDGE('',*,*,#772,.T.);
#962=ORIENTED_EDGE('',*,*,#773,.T.);
#963=ORIENTED_EDGE('',*,*,#743,.T.);
#964=ORIENTED_EDGE('',*,*,#770,.F.);
#965=ORIENTED_EDGE('',*,*,#774,.T.);
#966=ORIENTED_EDGE('',*,*,#775,.T.);
#967=ORIENTED_EDGE('',*,*,#744,.T.);
#968=ORIENTED_EDGE('',*,*,#773,.F.);
#969=ORIENTED_EDGE('',*,*,#776,.T.);
#970=ORIENTED_EDGE('',*,*,#777,.T.);
#971=ORIENTED_EDGE('',*,*,#745,.T.);
#972=ORIENTED_EDGE('',*,*,#775,.F.);
#973=ORIENTED_EDGE('',*,*,#778,.T.);
#974=ORIENTED_EDGE('',*,*,#779,.T.);
#975=ORIENTED_EDGE('',*,*,#746,.T.);
#976=ORIENTED_EDGE('',*,*,#777,.F.);
#977=ORIENTED_EDGE('',*,*,#780,.T.);
#978=ORIENTED_EDGE('',*,*,#781,.T.);
#979=ORIENTED_EDGE('',*,*,#747,.T.);
#980=ORIENTED_EDGE('',*,*,#779,.F.);
#981=ORIENTED_EDGE('',*,*,#782,.T.);
#982=ORIENTED_EDGE('',*,*,#783,.T.);
#983=ORIENTED_EDGE('',*,*,#748,.T.);
#984=ORIENTED_EDGE('',*,*,#781,.F.);
#985=ORIENTED_EDGE('',*,*,#784,.T.);
#986=ORIENTED_EDGE('',*,*,#785,.T.);
#987=ORIENTED_EDGE('',*,*,#749,.T.);
#988=ORIENTED_EDGE('',*,*,#783,.F.);
#989=ORIENTED_EDGE('',*,*,#786,.T.);
#990=ORIENTED_EDGE('',*,*,#787,.T.);
#991=ORIENTED_EDGE('',*,*,#750,.T.);
#992=ORIENTED_EDGE('',*,*,#785,.F.);
#993=ORIENTED_EDGE('',*,*,#788,.T.);
#994=ORIENTED_EDGE('',*,*,#789,.T.);
#995=ORIENTED_EDGE('',*,*,#751,.T.);
#996=ORIENTED_EDGE('',*,*,#787,.F.);
#997=ORIENTED_EDGE('',*,*,#790,.T.);
#998=ORIENTED_EDGE('',*,*,#791,.T.);
#999=ORIENTED_EDGE('',*,*,#752,.T.);
#1000=ORIENTED_EDGE('',*,*,#789,.F.);
#1001=ORIENTED_EDGE('',*,*,#792,.T.);
#1002=ORIENTED_EDGE('',*,*,#793,.T.);
#1003=ORIENTED_EDGE('',*,*,#753,.T.);
#1004=ORIENTED_EDGE('',*,*,#791,.F.);
#1005=ORIENTED_EDGE('',*,*,#794,.T.);
#1006=ORIENTED_EDGE('',*,*,#795,.T.);
#1007=ORIENTED_EDGE('',*,*,#754,.T.);
#1008=ORIENTED_EDGE('',*,*,#793,.F.);
#1009=ORIENTED_EDGE('',*,*,#796,.T.);
#1010=ORIENTED_EDGE('',*,*,#797,.T.);
#1011=ORIENTED_EDGE('',*,*,#755,.T.);
#1012=ORIENTED_EDGE('',*,*,#795,.F.);
#1013=ORIENTED_EDGE('',*,*,#798,.T.);
#1014=ORIENTED_EDGE('',*,*,#799,.T.);
#1015=ORIENTED_EDGE('',*,*,#756,.T.);
#1016=ORIENTED_EDGE('',*,*,#797,.F.);
#1017=ORIENTED_EDGE('',*,*,#800,.T.);
#1018=ORIENTED_EDGE('',*,*,#801,.T.);
#1019=ORIENTED_EDGE('',*,*,#757,.T.);
#1020=ORIENTED_EDGE('',*,*,#799,.F.);
#1021=ORIENTED_EDGE('',*,*,#802,.T.);
#1022=ORIENTED_EDGE('',*,*,#803,.T.);
#1023=ORIENTED_EDGE('',*,*,#758,.T.);
#1024=ORIENTED_EDGE('',*,*,#801,.F.);
#1025=ORIENTED_EDGE('',*,*,#804,.T.);
#1026=ORIENTED_EDGE('',*,*,#805,.T.);
#1027=ORIENTED_EDGE('',*,*,#759,.T.);
#1028=ORIENTED_EDGE('',*,*,#803,.F.);
#1029=ORIENTED_EDGE('',*,*,#806,.T.);
#1030=ORIENTED_EDGE('',*,*,#807,.T.);
#1031=ORIENTED_EDGE('',*,*,#760,.T.);
#1032=ORIENTED_EDGE('',*,*,#805,.F.);
#1033=ORIENTED_EDGE('',*,*,#808,.T.);
#1034=ORIENTED_EDGE('',*,*,#809,.T.);
#1035=ORIENTED_EDGE('',*,*,#761,.T.);
#1036=ORIENTED_EDGE('',*,*,#807,.F.);
#1037=ORIENTED_EDGE('',*,*,#810,.T.);
#1038=ORIENTED_EDGE('',*,*,#811,.T.);
#1039=ORIENTED_EDGE('',*,*,#762,.T.);
#1040=ORIENTED_EDGE('',*,*,#809,.F.);
#1041=ORIENTED_EDGE('',*,*,#812,.T.);
#1042=ORIENTED_EDGE('',*,*,#813,.T.);
#1043=ORIENTED_EDGE('',*,*,#763,.T.);
#1044=ORIENTED_EDGE('',*,*,#811,.F.);
#1045=ORIENTED_EDGE('',*,*,#814,.T.);
#1046=ORIENTED_EDGE('',*,*,#815,.T.);
#1047=ORIENTED_EDGE('',*,*,#764,.T.);
#1048=ORIENTED_EDGE('',*,*,#813,.F.);
#1049=ORIENTED_EDGE('',*,*,#816,.T.);
#1050=ORIENTED_EDGE('',*,*,#817,.T.);
#1051=ORIENTED_EDGE('',*,*,#765,.T.);
#1052=ORIENTED_EDGE('',*,*,#815,.F.);
#1053=ORIENTED_EDGE('',*,*,#818,.T.);
#1054=ORIENTED_EDGE('',*,*,#819,.T.);
#1055=ORIENTED_EDGE('',*,*,#766,.T.);
#1056=ORIENTED_EDGE('',*,*,#817,.F.);
#1057=ORIENTED_EDGE('',*,*,#820,.T.);
#1058=ORIENTED_EDGE('',*,*,#821,.T.);
#1059=ORIENTED_EDGE('',*,*,#767,.T.);
#1060=ORIENTED_EDGE('',*,*,#819,.F.);
#1061=ORIENTED_EDGE('',*,*,#726,.T.);
#1062=ORIENTED_EDGE('',*,*,#729,.T.);
#1063=ORIENTED_EDGE('',*,*,#768,.T.);
#1064=ORIENTED_EDGE('',*,*,#821,.F.);
#1065=ORIENTED_EDGE('',*,*,#822,.T.);
#1066=ORIENTED_EDGE('',*,*,#823,.T.);
#1067=ORIENTED_EDGE('',*,*,#823,.F.);
#1068=ORIENTED_EDGE('',*,*,#824,.T.);
#1069=ORIENTED_EDGE('',*,*,#771,.T.);
#1070=ORIENTED_EDGE('',*,*,#741,.T.);
#1071=ORIENTED_EDGE('',*,*,#724,.T.);
#1072=ORIENTED_EDGE('',*,*,#727,.T.);
#1073=ORIENTED_EDGE('',*,*,#825,.F.);
#1074=ORIENTED_EDGE('',*,*,#826,.T.);
#1075=ORIENTED_EDGE('',*,*,#827,.F.);
#1076=ORIENTED_EDGE('',*,*,#828,.F.);
#1077=ORIENTED_EDGE('',*,*,#829,.T.);
#1078=ORIENTED_EDGE('',*,*,#830,.F.);
#1079=ORIENTED_EDGE('',*,*,#831,.F.);
#1080=ORIENTED_EDGE('',*,*,#832,.T.);
#1081=ORIENTED_EDGE('',*,*,#833,.F.);
#1082=ORIENTED_EDGE('',*,*,#834,.F.);
#1083=ORIENTED_EDGE('',*,*,#835,.T.);
#1084=ORIENTED_EDGE('',*,*,#836,.F.);
#1085=ORIENTED_EDGE('',*,*,#837,.F.);
#1086=ORIENTED_EDGE('',*,*,#838,.T.);
#1087=ORIENTED_EDGE('',*,*,#839,.F.);
#1088=ORIENTED_EDGE('',*,*,#836,.T.);
#1089=ORIENTED_EDGE('',*,*,#840,.F.);
#1090=ORIENTED_EDGE('',*,*,#841,.T.);
#1091=ORIENTED_EDGE('',*,*,#842,.F.);
#1092=ORIENTED_EDGE('',*,*,#837,.T.);
#1093=ORIENTED_EDGE('',*,*,#839,.T.);
#1094=ORIENTED_EDGE('',*,*,#843,.T.);
#1095=ORIENTED_EDGE('',*,*,#844,.F.);
#1096=ORIENTED_EDGE('',*,*,#827,.T.);
#1097=ORIENTED_EDGE('',*,*,#845,.F.);
#1098=ORIENTED_EDGE('',*,*,#846,.T.);
#1099=ORIENTED_EDGE('',*,*,#847,.F.);
#1100=ORIENTED_EDGE('',*,*,#828,.T.);
#1101=ORIENTED_EDGE('',*,*,#844,.T.);
#1102=ORIENTED_EDGE('',*,*,#848,.T.);
#1103=ORIENTED_EDGE('',*,*,#849,.F.);
#1104=ORIENTED_EDGE('',*,*,#830,.T.);
#1105=ORIENTED_EDGE('',*,*,#850,.F.);
#1106=ORIENTED_EDGE('',*,*,#851,.T.);
#1107=ORIENTED_EDGE('',*,*,#852,.F.);
#1108=ORIENTED_EDGE('',*,*,#831,.T.);
#1109=ORIENTED_EDGE('',*,*,#849,.T.);
#1110=ORIENTED_EDGE('',*,*,#853,.T.);
#1111=ORIENTED_EDGE('',*,*,#854,.F.);
#1112=ORIENTED_EDGE('',*,*,#833,.T.);
#1113=ORIENTED_EDGE('',*,*,#855,.F.);
#1114=ORIENTED_EDGE('',*,*,#856,.T.);
#1115=ORIENTED_EDGE('',*,*,#857,.F.);
#1116=ORIENTED_EDGE('',*,*,#834,.T.);
#1117=ORIENTED_EDGE('',*,*,#854,.T.);
#1118=ORIENTED_EDGE('',*,*,#769,.F.);
#1119=ORIENTED_EDGE('',*,*,#824,.F.);
#1120=ORIENTED_EDGE('',*,*,#822,.F.);
#1121=ORIENTED_EDGE('',*,*,#820,.F.);
#1122=ORIENTED_EDGE('',*,*,#818,.F.);
#1123=ORIENTED_EDGE('',*,*,#816,.F.);
#1124=ORIENTED_EDGE('',*,*,#814,.F.);
#1125=ORIENTED_EDGE('',*,*,#812,.F.);
#1126=ORIENTED_EDGE('',*,*,#810,.F.);
#1127=ORIENTED_EDGE('',*,*,#808,.F.);
#1128=ORIENTED_EDGE('',*,*,#806,.F.);
#1129=ORIENTED_EDGE('',*,*,#804,.F.);
#1130=ORIENTED_EDGE('',*,*,#802,.F.);
#1131=ORIENTED_EDGE('',*,*,#800,.F.);
#1132=ORIENTED_EDGE('',*,*,#798,.F.);
#1133=ORIENTED_EDGE('',*,*,#796,.F.);
#1134=ORIENTED_EDGE('',*,*,#794,.F.);
#1135=ORIENTED_EDGE('',*,*,#792,.F.);
#1136=ORIENTED_EDGE('',*,*,#790,.F.);
#1137=ORIENTED_EDGE('',*,*,#788,.F.);
#1138=ORIENTED_EDGE('',*,*,#786,.F.);
#1139=ORIENTED_EDGE('',*,*,#784,.F.);
#1140=ORIENTED_EDGE('',*,*,#782,.F.);
#1141=ORIENTED_EDGE('',*,*,#780,.F.);
#1142=ORIENTED_EDGE('',*,*,#778,.F.);
#1143=ORIENTED_EDGE('',*,*,#776,.F.);
#1144=ORIENTED_EDGE('',*,*,#774,.F.);
#1145=ORIENTED_EDGE('',*,*,#772,.F.);
#1146=ORIENTED_EDGE('',*,*,#856,.F.);
#1147=ORIENTED_EDGE('',*,*,#853,.F.);
#1148=ORIENTED_EDGE('',*,*,#858,.T.);
#1149=ORIENTED_EDGE('',*,*,#859,.T.);
#1150=ORIENTED_EDGE('',*,*,#860,.T.);
#1151=ORIENTED_EDGE('',*,*,#861,.F.);
#1152=ORIENTED_EDGE('',*,*,#733,.F.);
#1153=ORIENTED_EDGE('',*,*,#862,.T.);
#1154=ORIENTED_EDGE('',*,*,#863,.T.);
#1155=ORIENTED_EDGE('',*,*,#864,.F.);
#1156=ORIENTED_EDGE('',*,*,#732,.F.);
#1157=ORIENTED_EDGE('',*,*,#865,.T.);
#1158=ORIENTED_EDGE('',*,*,#866,.T.);
#1159=ORIENTED_EDGE('',*,*,#862,.F.);
#1160=ORIENTED_EDGE('',*,*,#731,.F.);
#1161=ORIENTED_EDGE('',*,*,#867,.T.);
#1162=ORIENTED_EDGE('',*,*,#868,.T.);
#1163=ORIENTED_EDGE('',*,*,#865,.F.);
#1164=ORIENTED_EDGE('',*,*,#730,.F.);
#1165=ORIENTED_EDGE('',*,*,#869,.T.);
#1166=ORIENTED_EDGE('',*,*,#870,.T.);
#1167=ORIENTED_EDGE('',*,*,#867,.F.);
#1168=ORIENTED_EDGE('',*,*,#737,.F.);
#1169=ORIENTED_EDGE('',*,*,#871,.T.);
#1170=ORIENTED_EDGE('',*,*,#872,.T.);
#1171=ORIENTED_EDGE('',*,*,#869,.F.);
#1172=ORIENTED_EDGE('',*,*,#736,.F.);
#1173=ORIENTED_EDGE('',*,*,#873,.T.);
#1174=ORIENTED_EDGE('',*,*,#874,.T.);
#1175=ORIENTED_EDGE('',*,*,#871,.F.);
#1176=ORIENTED_EDGE('',*,*,#735,.F.);
#1177=ORIENTED_EDGE('',*,*,#875,.T.);
#1178=ORIENTED_EDGE('',*,*,#876,.T.);
#1179=ORIENTED_EDGE('',*,*,#873,.F.);
#1180=ORIENTED_EDGE('',*,*,#734,.F.);
#1181=ORIENTED_EDGE('',*,*,#864,.T.);
#1182=ORIENTED_EDGE('',*,*,#877,.T.);
#1183=ORIENTED_EDGE('',*,*,#875,.F.);
#1184=ORIENTED_EDGE('',*,*,#878,.T.);
#1185=ORIENTED_EDGE('',*,*,#859,.F.);
#1186=ORIENTED_EDGE('',*,*,#879,.T.);
#1187=ORIENTED_EDGE('',*,*,#876,.F.);
#1188=ORIENTED_EDGE('',*,*,#858,.F.);
#1189=ORIENTED_EDGE('',*,*,#855,.T.);
#1190=ORIENTED_EDGE('',*,*,#832,.F.);
#1191=ORIENTED_EDGE('',*,*,#852,.T.);
#1192=ORIENTED_EDGE('',*,*,#880,.F.);
#1193=ORIENTED_EDGE('',*,*,#881,.T.);
#1194=ORIENTED_EDGE('',*,*,#874,.F.);
#1195=ORIENTED_EDGE('',*,*,#879,.F.);
#1196=ORIENTED_EDGE('',*,*,#835,.F.);
#1197=ORIENTED_EDGE('',*,*,#857,.T.);
#1198=ORIENTED_EDGE('',*,*,#860,.F.);
#1199=ORIENTED_EDGE('',*,*,#878,.F.);
#1200=ORIENTED_EDGE('',*,*,#877,.F.);
#1201=ORIENTED_EDGE('',*,*,#882,.T.);
#1202=ORIENTED_EDGE('',*,*,#883,.F.);
#1203=ORIENTED_EDGE('',*,*,#840,.T.);
#1204=ORIENTED_EDGE('',*,*,#884,.T.);
#1205=ORIENTED_EDGE('',*,*,#872,.F.);
#1206=ORIENTED_EDGE('',*,*,#881,.F.);
#1207=ORIENTED_EDGE('',*,*,#885,.F.);
#1208=ORIENTED_EDGE('',*,*,#886,.T.);
#1209=ORIENTED_EDGE('',*,*,#887,.F.);
#1210=ORIENTED_EDGE('',*,*,#882,.F.);
#1211=ORIENTED_EDGE('',*,*,#863,.F.);
#1212=ORIENTED_EDGE('',*,*,#888,.F.);
#1213=ORIENTED_EDGE('',*,*,#850,.T.);
#1214=ORIENTED_EDGE('',*,*,#829,.F.);
#1215=ORIENTED_EDGE('',*,*,#847,.T.);
#1216=ORIENTED_EDGE('',*,*,#889,.F.);
#1217=ORIENTED_EDGE('',*,*,#890,.T.);
#1218=ORIENTED_EDGE('',*,*,#870,.F.);
#1219=ORIENTED_EDGE('',*,*,#884,.F.);
#1220=ORIENTED_EDGE('',*,*,#891,.F.);
#1221=ORIENTED_EDGE('',*,*,#845,.T.);
#1222=ORIENTED_EDGE('',*,*,#826,.F.);
#1223=ORIENTED_EDGE('',*,*,#842,.T.);
#1224=ORIENTED_EDGE('',*,*,#892,.F.);
#1225=ORIENTED_EDGE('',*,*,#886,.F.);
#1226=ORIENTED_EDGE('',*,*,#866,.F.);
#1227=ORIENTED_EDGE('',*,*,#893,.T.);
#1228=ORIENTED_EDGE('',*,*,#890,.F.);
#1229=ORIENTED_EDGE('',*,*,#894,.F.);
#1230=ORIENTED_EDGE('',*,*,#893,.F.);
#1231=ORIENTED_EDGE('',*,*,#868,.F.);
#1232=ORIENTED_EDGE('',*,*,#895,.T.);
#1233=ORIENTED_EDGE('',*,*,#896,.T.);
#1234=ORIENTED_EDGE('',*,*,#738,.F.);
#1235=ORIENTED_EDGE('',*,*,#896,.F.);
#1236=ORIENTED_EDGE('',*,*,#897,.T.);
#1237=ORIENTED_EDGE('',*,*,#898,.T.);
#1238=ORIENTED_EDGE('',*,*,#739,.F.);
#1239=ORIENTED_EDGE('',*,*,#898,.F.);
#1240=ORIENTED_EDGE('',*,*,#861,.T.);
#1241=ORIENTED_EDGE('',*,*,#899,.T.);
#1242=ORIENTED_EDGE('',*,*,#740,.F.);
#1243=ORIENTED_EDGE('',*,*,#899,.F.);
#1244=ORIENTED_EDGE('',*,*,#846,.F.);
#1245=ORIENTED_EDGE('',*,*,#843,.F.);
#1246=ORIENTED_EDGE('',*,*,#891,.T.);
#1247=ORIENTED_EDGE('',*,*,#894,.T.);
#1248=ORIENTED_EDGE('',*,*,#889,.T.);
#1249=ORIENTED_EDGE('',*,*,#897,.F.);
#1250=ORIENTED_EDGE('',*,*,#841,.F.);
#1251=ORIENTED_EDGE('',*,*,#838,.F.);
#1252=ORIENTED_EDGE('',*,*,#883,.T.);
#1253=ORIENTED_EDGE('',*,*,#887,.T.);
#1254=ORIENTED_EDGE('',*,*,#892,.T.);
#1255=ORIENTED_EDGE('',*,*,#895,.F.);
#1256=ORIENTED_EDGE('',*,*,#851,.F.);
#1257=ORIENTED_EDGE('',*,*,#848,.F.);
#1258=ORIENTED_EDGE('',*,*,#888,.T.);
#1259=ORIENTED_EDGE('',*,*,#885,.T.);
#1260=ORIENTED_EDGE('',*,*,#880,.T.);
#1261=ORIENTED_EDGE('',*,*,#900,.F.);
#1262=ORIENTED_EDGE('',*,*,#901,.T.);
#1263=ORIENTED_EDGE('',*,*,#902,.T.);
#1264=ORIENTED_EDGE('',*,*,#903,.T.);
#1265=ORIENTED_EDGE('',*,*,#901,.F.);
#1266=ORIENTED_EDGE('',*,*,#903,.F.);
#1267=ORIENTED_EDGE('',*,*,#904,.T.);
#1268=ORIENTED_EDGE('',*,*,#902,.F.);
#1269=ORIENTED_EDGE('',*,*,#905,.T.);
#1270=ORIENTED_EDGE('',*,*,#906,.T.);
#1271=ORIENTED_EDGE('',*,*,#904,.F.);
#1272=ORIENTED_EDGE('',*,*,#906,.F.);
#1273=ORIENTED_EDGE('',*,*,#905,.F.);
#1274=ORIENTED_EDGE('',*,*,#907,.T.);
#1275=ORIENTED_EDGE('',*,*,#908,.T.);
#1276=ORIENTED_EDGE('',*,*,#907,.F.);
#1277=ORIENTED_EDGE('',*,*,#908,.F.);
#1278=ORIENTED_EDGE('',*,*,#900,.T.);
#1279=ORIENTED_EDGE('',*,*,#909,.T.);
#1280=ORIENTED_EDGE('',*,*,#825,.T.);
#1281=ORIENTED_EDGE('',*,*,#909,.F.);
#1282=CYLINDRICAL_SURFACE('',#1384,1.2295);
#1283=CYLINDRICAL_SURFACE('',#1387,1.2295);
#1284=CYLINDRICAL_SURFACE('',#1451,1.75);
#1285=CYLINDRICAL_SURFACE('',#1453,1.75);
#1286=CYLINDRICAL_SURFACE('',#1455,1.75);
#1287=CYLINDRICAL_SURFACE('',#1462,2.5);
#1288=CYLINDRICAL_SURFACE('',#1466,4.);
#1289=CYLINDRICAL_SURFACE('',#1471,4.);
#1290=ADVANCED_FACE('',(#92),#1282,.F.);
#1291=ADVANCED_FACE('',(#93),#1283,.F.);
#1292=ADVANCED_FACE('',(#94,#16,#17,#18,#19),#30,.T.);
#1293=ADVANCED_FACE('',(#95),#31,.F.);
#1294=ADVANCED_FACE('',(#96),#32,.F.);
#1295=ADVANCED_FACE('',(#97),#33,.F.);
#1296=ADVANCED_FACE('',(#98),#34,.F.);
#1297=ADVANCED_FACE('',(#99),#35,.F.);
#1298=ADVANCED_FACE('',(#100),#36,.F.);
#1299=ADVANCED_FACE('',(#101),#37,.F.);
#1300=ADVANCED_FACE('',(#102),#38,.F.);
#1301=ADVANCED_FACE('',(#103),#39,.F.);
#1302=ADVANCED_FACE('',(#104),#40,.F.);
#1303=ADVANCED_FACE('',(#105),#41,.F.);
#1304=ADVANCED_FACE('',(#106),#42,.F.);
#1305=ADVANCED_FACE('',(#107),#43,.F.);
#1306=ADVANCED_FACE('',(#108),#44,.F.);
#1307=ADVANCED_FACE('',(#109),#45,.F.);
#1308=ADVANCED_FACE('',(#110),#46,.F.);
#1309=ADVANCED_FACE('',(#111),#47,.F.);
#1310=ADVANCED_FACE('',(#112),#48,.F.);
#1311=ADVANCED_FACE('',(#113),#49,.F.);
#1312=ADVANCED_FACE('',(#114),#50,.F.);
#1313=ADVANCED_FACE('',(#115),#51,.F.);
#1314=ADVANCED_FACE('',(#116),#52,.F.);
#1315=ADVANCED_FACE('',(#117),#53,.F.);
#1316=ADVANCED_FACE('',(#118),#54,.F.);
#1317=ADVANCED_FACE('',(#119),#55,.F.);
#1318=ADVANCED_FACE('',(#120,#20,#21),#56,.F.);
#1319=ADVANCED_FACE('',(#121),#57,.F.);
#1320=ADVANCED_FACE('',(#122,#22,#23,#24),#58,.F.);
#1321=ADVANCED_FACE('',(#123),#59,.F.);
#1322=ADVANCED_FACE('',(#124),#60,.T.);
#1323=ADVANCED_FACE('',(#125),#61,.T.);
#1324=ADVANCED_FACE('',(#126),#62,.T.);
#1325=ADVANCED_FACE('',(#127),#63,.T.);
#1326=ADVANCED_FACE('',(#128),#64,.T.);
#1327=ADVANCED_FACE('',(#129),#65,.T.);
#1328=ADVANCED_FACE('',(#130),#66,.T.);
#1329=ADVANCED_FACE('',(#131),#67,.T.);
#1330=ADVANCED_FACE('',(#132),#68,.T.);
#1331=ADVANCED_FACE('',(#133,#25),#69,.F.);
#1332=ADVANCED_FACE('',(#134),#70,.F.);
#1333=ADVANCED_FACE('',(#135),#71,.F.);
#1334=ADVANCED_FACE('',(#136),#72,.F.);
#1335=ADVANCED_FACE('',(#137),#73,.F.);
#1336=ADVANCED_FACE('',(#138),#74,.F.);
#1337=ADVANCED_FACE('',(#139),#75,.F.);
#1338=ADVANCED_FACE('',(#140),#76,.F.);
#1339=ADVANCED_FACE('',(#141),#77,.F.);
#1340=ADVANCED_FACE('',(#142),#78,.F.);
#1341=ADVANCED_FACE('',(#143),#79,.F.);
#1342=ADVANCED_FACE('',(#144),#80,.F.);
#1343=ADVANCED_FACE('',(#145),#81,.F.);
#1344=ADVANCED_FACE('',(#146),#82,.F.);
#1345=ADVANCED_FACE('',(#147),#83,.F.);
#1346=ADVANCED_FACE('',(#148),#84,.F.);
#1347=ADVANCED_FACE('',(#149),#85,.F.);
#1348=ADVANCED_FACE('',(#150),#1284,.F.);
#1349=ADVANCED_FACE('',(#151),#1285,.F.);
#1350=ADVANCED_FACE('',(#152),#1286,.F.);
#1351=ADVANCED_FACE('',(#153,#26),#86,.F.);
#1352=ADVANCED_FACE('',(#154,#27),#87,.F.);
#1353=ADVANCED_FACE('',(#155),#88,.F.);
#1354=ADVANCED_FACE('',(#156,#28),#89,.F.);
#1355=ADVANCED_FACE('',(#157),#1287,.T.);
#1356=ADVANCED_FACE('',(#158,#29),#90,.F.);
#1357=ADVANCED_FACE('',(#159),#1288,.T.);
#1358=ADVANCED_FACE('',(#160),#15,.T.);
#1359=ADVANCED_FACE('',(#161),#91,.F.);
#1360=ADVANCED_FACE('',(#162),#1289,.T.);
#1361=CLOSED_SHELL('',(#1290,#1291,#1292,#1293,#1294,#1295,#1296,#1297,
#1298,#1299,#1300,#1301,#1302,#1303,#1304,#1305,#1306,#1307,#1308,#1309,
#1310,#1311,#1312,#1313,#1314,#1315,#1316,#1317,#1318,#1319,#1320,#1321,
#1322,#1323,#1324,#1325,#1326,#1327,#1328,#1329,#1330,#1331,#1332,#1333,
#1334,#1335,#1336,#1337,#1338,#1339,#1340,#1341,#1342,#1343,#1344,#1345,
#1346,#1347,#1348,#1349,#1350,#1351,#1352,#1353,#1354,#1355,#1356,#1357,
#1358,#1359,#1360));
#1362=DERIVED_UNIT_ELEMENT(#1365,1.);
#1363=DERIVED_UNIT_ELEMENT(#2203,-3.);
#1364=DIMENSIONAL_EXPONENTS(0.,1.,0.,0.,0.,0.,0.);
#1365=(
CONVERSION_BASED_UNIT('gram',#1367)
MASS_UNIT()
NAMED_UNIT(#1364)
);
#1366=(
MASS_UNIT()
NAMED_UNIT(*)
SI_UNIT(.KILO.,.GRAM.)
);
#1367=MASS_MEASURE_WITH_UNIT(MASS_MEASURE(0.001),#1366);
#1368=DERIVED_UNIT((#1362,#1363));
#1369=MEASURE_REPRESENTATION_ITEM('density measure',
POSITIVE_RATIO_MEASURE(2.7),#1368);
#1370=PROPERTY_DEFINITION_REPRESENTATION(#1375,#1372);
#1371=PROPERTY_DEFINITION_REPRESENTATION(#1376,#1373);
#1372=REPRESENTATION('material name',(#1374),#2200);
#1373=REPRESENTATION('density',(#1369),#2200);
#1374=DESCRIPTIVE_REPRESENTATION_ITEM('EN-AW-6063 T66 (AlMgSi0.5F25)',
'EN-AW-6063 T66 (AlMgSi0.5F25)');
#1375=PROPERTY_DEFINITION('material property','material name',#2210);
#1376=PROPERTY_DEFINITION('material property','density of part',#2210);
#1377=DATE_TIME_ROLE('creation_date');
#1378=APPLIED_DATE_AND_TIME_ASSIGNMENT(#1379,#1377,(#2210));
#1379=DATE_AND_TIME(#1380,#1381);
#1380=CALENDAR_DATE(2024,28,6);
#1381=LOCAL_TIME(11,35,30.,#1382);
#1382=COORDINATED_UNIVERSAL_TIME_OFFSET(0,0,.BEHIND.);
#1383=AXIS2_PLACEMENT_3D('',#1819,#1472,#1473);
#1384=AXIS2_PLACEMENT_3D('',#1820,#1474,#1475);
#1385=AXIS2_PLACEMENT_3D('',#1822,#1476,#1477);
#1386=AXIS2_PLACEMENT_3D('',#1825,#1479,#1480);
#1387=AXIS2_PLACEMENT_3D('',#1826,#1481,#1482);
#1388=AXIS2_PLACEMENT_3D('',#1828,#1483,#1484);
#1389=AXIS2_PLACEMENT_3D('',#1831,#1486,#1487);
#1390=AXIS2_PLACEMENT_3D('',#1832,#1488,#1489);
#1391=AXIS2_PLACEMENT_3D('',#1850,#1498,#1499);
#1392=AXIS2_PLACEMENT_3D('',#1852,#1500,#1501);
#1393=AXIS2_PLACEMENT_3D('',#1854,#1502,#1503);
#1394=AXIS2_PLACEMENT_3D('',#1911,#1532,#1533);
#1395=AXIS2_PLACEMENT_3D('',#1917,#1537,#1538);
#1396=AXIS2_PLACEMENT_3D('',#1921,#1541,#1542);
#1397=AXIS2_PLACEMENT_3D('',#1925,#1545,#1546);
#1398=AXIS2_PLACEMENT_3D('',#1929,#1549,#1550);
#1399=AXIS2_PLACEMENT_3D('',#1933,#1553,#1554);
#1400=AXIS2_PLACEMENT_3D('',#1937,#1557,#1558);
#1401=AXIS2_PLACEMENT_3D('',#1941,#1561,#1562);
#1402=AXIS2_PLACEMENT_3D('',#1945,#1565,#1566);
#1403=AXIS2_PLACEMENT_3D('',#1949,#1569,#1570);
#1404=AXIS2_PLACEMENT_3D('',#1953,#1573,#1574);
#1405=AXIS2_PLACEMENT_3D('',#1957,#1577,#1578);
#1406=AXIS2_PLACEMENT_3D('',#1961,#1581,#1582);
#1407=AXIS2_PLACEMENT_3D('',#1965,#1585,#1586);
#1408=AXIS2_PLACEMENT_3D('',#1969,#1589,#1590);
#1409=AXIS2_PLACEMENT_3D('',#1973,#1593,#1594);
#1410=AXIS2_PLACEMENT_3D('',#1977,#1597,#1598);
#1411=AXIS2_PLACEMENT_3D('',#1981,#1601,#1602);
#1412=AXIS2_PLACEMENT_3D('',#1985,#1605,#1606);
#1413=AXIS2_PLACEMENT_3D('',#1989,#1609,#1610);
#1414=AXIS2_PLACEMENT_3D('',#1993,#1613,#1614);
#1415=AXIS2_PLACEMENT_3D('',#1997,#1617,#1618);
#1416=AXIS2_PLACEMENT_3D('',#2001,#1621,#1622);
#1417=AXIS2_PLACEMENT_3D('',#2005,#1625,#1626);
#1418=AXIS2_PLACEMENT_3D('',#2009,#1629,#1630);
#1419=AXIS2_PLACEMENT_3D('',#2013,#1633,#1634);
#1420=AXIS2_PLACEMENT_3D('',#2017,#1637,#1638);
#1421=AXIS2_PLACEMENT_3D('',#2021,#1641,#1642);
#1422=AXIS2_PLACEMENT_3D('',#2024,#1644,#1645);
#1423=AXIS2_PLACEMENT_3D('',#2025,#1646,#1647);
#1424=AXIS2_PLACEMENT_3D('',#2050,#1660,#1661);
#1425=AXIS2_PLACEMENT_3D('',#2056,#1665,#1666);
#1426=AXIS2_PLACEMENT_3D('',#2060,#1669,#1670);
#1427=AXIS2_PLACEMENT_3D('',#2066,#1674,#1675);
#1428=AXIS2_PLACEMENT_3D('',#2070,#1678,#1679);
#1429=AXIS2_PLACEMENT_3D('',#2076,#1683,#1684);
#1430=AXIS2_PLACEMENT_3D('',#2080,#1687,#1688);
#1431=AXIS2_PLACEMENT_3D('',#2086,#1692,#1693);
#1432=AXIS2_PLACEMENT_3D('',#2090,#1696,#1697);
#1433=AXIS2_PLACEMENT_3D('',#2091,#1698,#1699);
#1434=AXIS2_PLACEMENT_3D('',#2098,#1703,#1704);
#1435=AXIS2_PLACEMENT_3D('',#2099,#1705,#1706);
#1436=AXIS2_PLACEMENT_3D('',#2105,#1710,#1711);
#1437=AXIS2_PLACEMENT_3D('',#2109,#1714,#1715);
#1438=AXIS2_PLACEMENT_3D('',#2113,#1718,#1719);
#1439=AXIS2_PLACEMENT_3D('',#2117,#1722,#1723);
#1440=AXIS2_PLACEMENT_3D('',#2121,#1726,#1727);
#1441=AXIS2_PLACEMENT_3D('',#2125,#1730,#1731);
#1442=AXIS2_PLACEMENT_3D('',#2129,#1734,#1735);
#1443=AXIS2_PLACEMENT_3D('',#2131,#1737,#1738);
#1444=AXIS2_PLACEMENT_3D('',#2134,#1741,#1742);
#1445=AXIS2_PLACEMENT_3D('',#2138,#1745,#1746);
#1446=AXIS2_PLACEMENT_3D('',#2142,#1749,#1750);
#1447=AXIS2_PLACEMENT_3D('',#2146,#1753,#1754);
#1448=AXIS2_PLACEMENT_3D('',#2150,#1757,#1758);
#1449=AXIS2_PLACEMENT_3D('',#2155,#1762,#1763);
#1450=AXIS2_PLACEMENT_3D('',#2160,#1767,#1768);
#1451=AXIS2_PLACEMENT_3D('',#2162,#1770,#1771);
#1452=AXIS2_PLACEMENT_3D('',#2164,#1772,#1773);
#1453=AXIS2_PLACEMENT_3D('',#2166,#1775,#1776);
#1454=AXIS2_PLACEMENT_3D('',#2168,#1777,#1778);
#1455=AXIS2_PLACEMENT_3D('',#2170,#1780,#1781);
#1456=AXIS2_PLACEMENT_3D('',#2172,#1783,#1784);
#1457=AXIS2_PLACEMENT_3D('',#2173,#1785,#1786);
#1458=AXIS2_PLACEMENT_3D('',#2174,#1787,#1788);
#1459=AXIS2_PLACEMENT_3D('',#2175,#1789,#1790);
#1460=AXIS2_PLACEMENT_3D('',#2177,#1791,#1792);
#1461=AXIS2_PLACEMENT_3D('',#2179,#1793,#1794);
#1462=AXIS2_PLACEMENT_3D('',#2180,#1795,#1796);
#1463=AXIS2_PLACEMENT_3D('',#2182,#1797,#1798);
#1464=AXIS2_PLACEMENT_3D('',#2184,#1800,#1801);
#1465=AXIS2_PLACEMENT_3D('',#2186,#1802,#1803);
#1466=AXIS2_PLACEMENT_3D('',#2187,#1804,#1805);
#1467=AXIS2_PLACEMENT_3D('',#2189,#1806,#1807);
#1468=AXIS2_PLACEMENT_3D('',#2191,#1809,#1810);
#1469=AXIS2_PLACEMENT_3D('',#2194,#1812,#1813);
#1470=AXIS2_PLACEMENT_3D('',#2195,#1814,#1815);
#1471=AXIS2_PLACEMENT_3D('',#2196,#1816,#1817);
#1472=DIRECTION('axis',(0.,0.,1.));
#1473=DIRECTION('refdir',(1.,0.,0.));
#1474=DIRECTION('center_axis',(0.,0.,1.));
#1475=DIRECTION('ref_axis',(1.,0.,0.));
#1476=DIRECTION('center_axis',(0.,0.,-1.));
#1477=DIRECTION('ref_axis',(1.,0.,0.));
#1478=DIRECTION('',(0.,0.,-1.));
#1479=DIRECTION('center_axis',(0.,0.,1.));
#1480=DIRECTION('ref_axis',(1.,0.,0.));
#1481=DIRECTION('center_axis',(0.,0.,1.));
#1482=DIRECTION('ref_axis',(1.,0.,0.));
#1483=DIRECTION('center_axis',(0.,0.,-1.));
#1484=DIRECTION('ref_axis',(1.,0.,0.));
#1485=DIRECTION('',(0.,0.,-1.));
#1486=DIRECTION('center_axis',(0.,0.,1.));
#1487=DIRECTION('ref_axis',(1.,0.,0.));
#1488=DIRECTION('center_axis',(0.,1.,0.));
#1489=DIRECTION('ref_axis',(0.,0.,1.));
#1490=DIRECTION('',(0.,0.,-1.));
#1491=DIRECTION('',(-0.707106781186548,0.,-0.707106781186548));
#1492=DIRECTION('',(-1.,0.,0.));
#1493=DIRECTION('',(-0.707106781186548,0.,0.707106781186548));
#1494=DIRECTION('',(0.,0.,1.));
#1495=DIRECTION('',(0.707106781186548,0.,0.707106781186548));
#1496=DIRECTION('',(1.,0.,0.));
#1497=DIRECTION('',(0.707106781186547,0.,-0.707106781186547));
#1498=DIRECTION('center_axis',(0.,-1.,0.));
#1499=DIRECTION('ref_axis',(0.,0.,-1.));
#1500=DIRECTION('center_axis',(0.,-1.,0.));
#1501=DIRECTION('ref_axis',(0.,0.,-1.));
#1502=DIRECTION('center_axis',(0.,-1.,0.));
#1503=DIRECTION('ref_axis',(0.,0.,-1.));
#1504=DIRECTION('',(1.,0.,0.));
#1505=DIRECTION('',(0.,0.,1.));
#1506=DIRECTION('',(-1.,0.,0.));
#1507=DIRECTION('',(0.,0.,1.));
#1508=DIRECTION('',(-1.,0.,0.));
#1509=DIRECTION('',(0.707106781186549,0.,0.707106781186546));
#1510=DIRECTION('',(0.,0.,1.));
#1511=DIRECTION('',(-0.707106781186547,0.,0.707106781186548));
#1512=DIRECTION('',(0.707106781186548,0.,0.707106781186547));
#1513=DIRECTION('',(0.,0.,1.));
#1514=DIRECTION('',(-0.70710678118655,0.,0.707106781186545));
#1515=DIRECTION('',(-1.,0.,0.));
#1516=DIRECTION('',(-0.707106781186548,0.,-0.707106781186548));
#1517=DIRECTION('',(0.,0.,-1.));
#1518=DIRECTION('',(-1.,0.,0.));
#1519=DIRECTION('',(0.,0.,1.));
#1520=DIRECTION('',(-0.707106781186548,0.,0.707106781186548));
#1521=DIRECTION('',(-1.,0.,0.));
#1522=DIRECTION('',(-0.70710678118655,0.,-0.707106781186545));
#1523=DIRECTION('',(0.,0.,-1.));
#1524=DIRECTION('',(0.707106781186548,0.,-0.707106781186547));
#1525=DIRECTION('',(-0.707106781186547,0.,-0.707106781186548));
#1526=DIRECTION('',(0.,0.,-1.));
#1527=DIRECTION('',(0.707106781186549,0.,-0.707106781186546));
#1528=DIRECTION('',(-1.,0.,0.));
#1529=DIRECTION('',(0.,0.,-1.));
#1530=DIRECTION('',(-1.,0.,0.));
#1531=DIRECTION('',(0.,0.,-1.));
#1532=DIRECTION('center_axis',(1.,0.,0.));
#1533=DIRECTION('ref_axis',(0.,0.,-1.));
#1534=DIRECTION('',(0.,0.,-1.));
#1535=DIRECTION('',(0.,-1.,0.));
#1536=DIRECTION('',(0.,-1.,0.));
#1537=DIRECTION('center_axis',(0.,0.,1.));
#1538=DIRECTION('ref_axis',(1.,0.,0.));
#1539=DIRECTION('',(1.,0.,0.));
#1540=DIRECTION('',(0.,-1.,0.));
#1541=DIRECTION('center_axis',(1.,0.,0.));
#1542=DIRECTION('ref_axis',(0.,0.,-1.));
#1543=DIRECTION('',(0.,0.,-1.));
#1544=DIRECTION('',(0.,-1.,0.));
#1545=DIRECTION('center_axis',(0.,0.,1.));
#1546=DIRECTION('ref_axis',(1.,0.,0.));
#1547=DIRECTION('',(1.,0.,0.));
#1548=DIRECTION('',(0.,-1.,0.));
#1549=DIRECTION('center_axis',(0.707106781186546,0.,-0.707106781186549));
#1550=DIRECTION('ref_axis',(-0.707106781186549,0.,-0.707106781186546));
#1551=DIRECTION('',(-0.707106781186549,0.,-0.707106781186546));
#1552=DIRECTION('',(0.,-1.,0.));
#1553=DIRECTION('center_axis',(1.,0.,0.));
#1554=DIRECTION('ref_axis',(0.,0.,-1.));
#1555=DIRECTION('',(0.,0.,-1.));
#1556=DIRECTION('',(0.,-1.,0.));
#1557=DIRECTION('center_axis',(0.707106781186548,0.,0.707106781186547));
#1558=DIRECTION('ref_axis',(0.707106781186547,0.,-0.707106781186548));
#1559=DIRECTION('',(0.707106781186547,0.,-0.707106781186548));
#1560=DIRECTION('',(0.,-1.,0.));
#1561=DIRECTION('center_axis',(0.707106781186547,0.,-0.707106781186548));
#1562=DIRECTION('ref_axis',(-0.707106781186548,0.,-0.707106781186547));
#1563=DIRECTION('',(-0.707106781186548,0.,-0.707106781186547));
#1564=DIRECTION('',(0.,-1.,0.));
#1565=DIRECTION('center_axis',(1.,0.,0.));
#1566=DIRECTION('ref_axis',(0.,0.,-1.));
#1567=DIRECTION('',(0.,0.,-1.));
#1568=DIRECTION('',(0.,-1.,0.));
#1569=DIRECTION('center_axis',(0.707106781186546,0.,0.707106781186549));
#1570=DIRECTION('ref_axis',(0.707106781186549,0.,-0.707106781186546));
#1571=DIRECTION('',(0.707106781186549,0.,-0.707106781186546));
#1572=DIRECTION('',(0.,-1.,0.));
#1573=DIRECTION('center_axis',(0.,0.,1.));
#1574=DIRECTION('ref_axis',(1.,0.,0.));
#1575=DIRECTION('',(1.,0.,0.));
#1576=DIRECTION('',(0.,-1.,0.));
#1577=DIRECTION('center_axis',(-0.707106781186548,0.,0.707106781186548));
#1578=DIRECTION('ref_axis',(0.707106781186548,0.,0.707106781186548));
#1579=DIRECTION('',(0.707106781186548,0.,0.707106781186548));
#1580=DIRECTION('',(0.,-1.,0.));
#1581=DIRECTION('center_axis',(-1.,0.,0.));
#1582=DIRECTION('ref_axis',(0.,0.,1.));
#1583=DIRECTION('',(0.,0.,1.));
#1584=DIRECTION('',(0.,-1.,0.));
#1585=DIRECTION('center_axis',(0.,0.,1.));
#1586=DIRECTION('ref_axis',(1.,0.,0.));
#1587=DIRECTION('',(1.,0.,0.));
#1588=DIRECTION('',(0.,-1.,0.));
#1589=DIRECTION('center_axis',(1.,0.,0.));
#1590=DIRECTION('ref_axis',(0.,0.,-1.));
#1591=DIRECTION('',(0.,0.,-1.));
#1592=DIRECTION('',(0.,-1.,0.));
#1593=DIRECTION('center_axis',(0.707106781186548,0.,0.707106781186548));
#1594=DIRECTION('ref_axis',(0.707106781186548,0.,-0.707106781186548));
#1595=DIRECTION('',(0.707106781186548,0.,-0.707106781186548));
#1596=DIRECTION('',(0.,-1.,0.));
#1597=DIRECTION('center_axis',(0.,0.,1.));
#1598=DIRECTION('ref_axis',(1.,0.,0.));
#1599=DIRECTION('',(1.,0.,0.));
#1600=DIRECTION('',(0.,-1.,0.));
#1601=DIRECTION('center_axis',(-0.707106781186546,0.,0.707106781186549));
#1602=DIRECTION('ref_axis',(0.707106781186549,0.,0.707106781186546));
#1603=DIRECTION('',(0.707106781186549,0.,0.707106781186546));
#1604=DIRECTION('',(0.,-1.,0.));
#1605=DIRECTION('center_axis',(-1.,0.,0.));
#1606=DIRECTION('ref_axis',(0.,0.,1.));
#1607=DIRECTION('',(0.,0.,1.));
#1608=DIRECTION('',(0.,-1.,0.));
#1609=DIRECTION('center_axis',(-0.707106781186547,0.,-0.707106781186548));
#1610=DIRECTION('ref_axis',(-0.707106781186548,0.,0.707106781186547));
#1611=DIRECTION('',(-0.707106781186548,0.,0.707106781186547));
#1612=DIRECTION('',(0.,-1.,0.));
#1613=DIRECTION('center_axis',(-0.707106781186548,0.,0.707106781186547));
#1614=DIRECTION('ref_axis',(0.707106781186547,0.,0.707106781186548));
#1615=DIRECTION('',(0.707106781186547,0.,0.707106781186548));
#1616=DIRECTION('',(0.,-1.,0.));
#1617=DIRECTION('center_axis',(-1.,0.,0.));
#1618=DIRECTION('ref_axis',(0.,0.,1.));
#1619=DIRECTION('',(0.,0.,1.));
#1620=DIRECTION('',(0.,-1.,0.));
#1621=DIRECTION('center_axis',(-0.707106781186546,0.,-0.707106781186549));
#1622=DIRECTION('ref_axis',(-0.707106781186549,0.,0.707106781186546));
#1623=DIRECTION('',(-0.707106781186549,0.,0.707106781186546));
#1624=DIRECTION('',(0.,-1.,0.));
#1625=DIRECTION('center_axis',(0.,0.,1.));
#1626=DIRECTION('ref_axis',(1.,0.,0.));
#1627=DIRECTION('',(1.,0.,0.));
#1628=DIRECTION('',(0.,-1.,0.));
#1629=DIRECTION('center_axis',(-1.,0.,0.));
#1630=DIRECTION('ref_axis',(0.,0.,1.));
#1631=DIRECTION('',(0.,0.,1.));
#1632=DIRECTION('',(0.,-1.,0.));
#1633=DIRECTION('center_axis',(0.,0.,1.));
#1634=DIRECTION('ref_axis',(1.,0.,0.));
#1635=DIRECTION('',(1.,0.,0.));
#1636=DIRECTION('',(0.,-1.,0.));
#1637=DIRECTION('center_axis',(-1.,0.,0.));
#1638=DIRECTION('ref_axis',(0.,0.,1.));
#1639=DIRECTION('',(0.,0.,1.));
#1640=DIRECTION('',(0.,-1.,0.));
#1641=DIRECTION('center_axis',(0.,0.,-1.));
#1642=DIRECTION('ref_axis',(-1.,0.,0.));
#1643=DIRECTION('',(-1.,0.,0.));
#1644=DIRECTION('center_axis',(0.,0.,-1.));
#1645=DIRECTION('ref_axis',(-1.,0.,0.));
#1646=DIRECTION('center_axis',(0.,1.,0.));
#1647=DIRECTION('ref_axis',(0.,0.,1.));
#1648=DIRECTION('',(-1.,0.,0.));
#1649=DIRECTION('',(0.,0.,-1.));
#1650=DIRECTION('',(-1.,0.,0.));
#1651=DIRECTION('',(0.,0.,-1.));
#1652=DIRECTION('',(1.,0.,0.));
#1653=DIRECTION('',(0.,0.,-1.));
#1654=DIRECTION('',(1.,0.,0.));
#1655=DIRECTION('',(0.,0.,1.));
#1656=DIRECTION('',(1.,0.,0.));
#1657=DIRECTION('',(0.,0.,1.));
#1658=DIRECTION('',(-1.,0.,0.));
#1659=DIRECTION('',(0.,0.,1.));
#1660=DIRECTION('center_axis',(0.,0.,1.));
#1661=DIRECTION('ref_axis',(1.,0.,0.));
#1662=DIRECTION('',(1.,0.,0.));
#1663=DIRECTION('',(0.,-1.,0.));
#1664=DIRECTION('',(0.707106781186547,-0.707106781186547,0.));
#1665=DIRECTION('center_axis',(1.,0.,0.));
#1666=DIRECTION('ref_axis',(0.,0.,-1.));
#1667=DIRECTION('',(0.,0.,-1.));
#1668=DIRECTION('',(0.,0.707106781186547,-0.707106781186547));
#1669=DIRECTION('center_axis',(-1.,0.,0.));
#1670=DIRECTION('ref_axis',(0.,0.,1.));
#1671=DIRECTION('',(0.,0.,1.));
#1672=DIRECTION('',(0.,-1.,0.));
#1673=DIRECTION('',(0.,-0.707106781186547,0.707106781186547));
#1674=DIRECTION('center_axis',(0.,0.,1.));
#1675=DIRECTION('ref_axis',(1.,0.,0.));
#1676=DIRECTION('',(1.,0.,0.));
#1677=DIRECTION('',(0.707106781186547,0.707106781186547,0.));
#1678=DIRECTION('center_axis',(0.,0.,-1.));
#1679=DIRECTION('ref_axis',(-1.,0.,0.));
#1680=DIRECTION('',(-1.,0.,0.));
#1681=DIRECTION('',(0.,-1.,0.));
#1682=DIRECTION('',(-0.707106781186547,-0.707106781186547,0.));
#1683=DIRECTION('center_axis',(-1.,0.,0.));
#1684=DIRECTION('ref_axis',(0.,0.,1.));
#1685=DIRECTION('',(0.,0.,1.));
#1686=DIRECTION('',(0.,0.707106781186547,0.707106781186547));
#1687=DIRECTION('center_axis',(1.,0.,0.));
#1688=DIRECTION('ref_axis',(0.,0.,-1.));
#1689=DIRECTION('',(0.,0.,-1.));
#1690=DIRECTION('',(0.,-1.,0.));
#1691=DIRECTION('',(0.,-0.707106781186547,-0.707106781186547));
#1692=DIRECTION('center_axis',(0.,0.,-1.));
#1693=DIRECTION('ref_axis',(-1.,0.,0.));
#1694=DIRECTION('',(-1.,0.,0.));
#1695=DIRECTION('',(-0.707106781186547,0.707106781186547,0.));
#1696=DIRECTION('center_axis',(0.,1.,0.));
#1697=DIRECTION('ref_axis',(0.,0.,1.));
#1698=DIRECTION('center_axis',(0.,1.,0.));
#1699=DIRECTION('ref_axis',(0.,0.,1.));
#1700=DIRECTION('',(-1.,0.,0.));
#1701=DIRECTION('',(-0.707106781186548,0.,-0.707106781186548));
#1702=DIRECTION('',(0.,0.,-1.));
#1703=DIRECTION('center_axis',(0.,-1.,0.));
#1704=DIRECTION('ref_axis',(0.,0.,-1.));
#1705=DIRECTION('center_axis',(0.707106781186548,0.,0.707106781186548));
#1706=DIRECTION('ref_axis',(0.707106781186548,0.,-0.707106781186548));
#1707=DIRECTION('',(0.,-1.,0.));
#1708=DIRECTION('',(-0.707106781186548,0.,0.707106781186548));
#1709=DIRECTION('',(0.,-1.,0.));
#1710=DIRECTION('center_axis',(0.,0.,1.));
#1711=DIRECTION('ref_axis',(1.,0.,0.));
#1712=DIRECTION('',(0.,-1.,0.));
#1713=DIRECTION('',(-1.,0.,0.));
#1714=DIRECTION('center_axis',(-0.707106781186548,0.,0.707106781186548));
#1715=DIRECTION('ref_axis',(0.707106781186548,0.,0.707106781186548));
#1716=DIRECTION('',(0.,-1.,0.));
#1717=DIRECTION('',(-0.707106781186548,0.,-0.707106781186548));
#1718=DIRECTION('center_axis',(-1.,0.,0.));
#1719=DIRECTION('ref_axis',(0.,0.,1.));
#1720=DIRECTION('',(0.,-1.,0.));
#1721=DIRECTION('',(0.,0.,-1.));
#1722=DIRECTION('center_axis',(-0.707106781186548,0.,-0.707106781186548));
#1723=DIRECTION('ref_axis',(-0.707106781186548,0.,0.707106781186548));
#1724=DIRECTION('',(0.,-1.,0.));
#1725=DIRECTION('',(0.707106781186548,0.,-0.707106781186548));
#1726=DIRECTION('center_axis',(0.,0.,-1.));
#1727=DIRECTION('ref_axis',(-1.,0.,0.));
#1728=DIRECTION('',(0.,-1.,0.));
#1729=DIRECTION('',(1.,0.,0.));
#1730=DIRECTION('center_axis',(0.707106781186548,0.,-0.707106781186548));
#1731=DIRECTION('ref_axis',(-0.707106781186548,0.,-0.707106781186548));
#1732=DIRECTION('',(0.,-1.,0.));
#1733=DIRECTION('',(0.707106781186548,0.,0.707106781186548));
#1734=DIRECTION('center_axis',(1.,0.,0.));
#1735=DIRECTION('ref_axis',(0.,0.,-1.));
#1736=DIRECTION('',(0.,0.,1.));
#1737=DIRECTION('center_axis',(0.500000000000001,0.707106781186546,-0.500000000000001));
#1738=DIRECTION('ref_axis',(0.707106781186548,0.,0.707106781186548));
#1739=DIRECTION('',(-0.678598344545848,0.678598344545848,0.281084637714816));
#1740=DIRECTION('',(0.281084637714816,-0.678598344545848,-0.678598344545848));
#1741=DIRECTION('center_axis',(0.,0.707106781186548,-0.707106781186548));
#1742=DIRECTION('ref_axis',(1.,0.,0.));
#1743=DIRECTION('',(-1.,0.,0.));
#1744=DIRECTION('',(-0.281084637714816,-0.678598344545848,-0.678598344545848));
#1745=DIRECTION('center_axis',(0.707106781186548,0.707106781186548,0.));
#1746=DIRECTION('ref_axis',(0.,0.,1.));
#1747=DIRECTION('',(0.678598344545848,-0.678598344545848,0.281084637714816));
#1748=DIRECTION('',(0.,0.,-1.));
#1749=DIRECTION('center_axis',(-0.500000000000001,0.707106781186546,-0.500000000000001));
#1750=DIRECTION('ref_axis',(0.707106781186548,0.,-0.707106781186548));
#1751=DIRECTION('',(-0.678598344545848,-0.678598344545848,-0.281084637714816));
#1752=DIRECTION('',(-0.707106781186548,0.,0.707106781186548));
#1753=DIRECTION('center_axis',(0.500000000000001,0.707106781186546,0.500000000000001));
#1754=DIRECTION('ref_axis',(-0.707106781186548,0.,0.707106781186548));
#1755=DIRECTION('',(0.281084637714816,-0.678598344545848,0.678598344545848));
#1756=DIRECTION('',(0.707106781186548,0.,-0.707106781186548));
#1757=DIRECTION('center_axis',(-0.707106781186548,0.707106781186548,0.));
#1758=DIRECTION('ref_axis',(0.,0.,-1.));
#1759=DIRECTION('',(0.,0.,1.));
#1760=DIRECTION('',(0.,0.,1.));
#1761=DIRECTION('',(-0.678598344545848,-0.678598344545848,0.281084637714816));
#1762=DIRECTION('center_axis',(0.,0.707106781186548,0.707106781186548));
#1763=DIRECTION('ref_axis',(-1.,0.,0.));
#1764=DIRECTION('',(1.,0.,0.));
#1765=DIRECTION('',(1.,0.,0.));
#1766=DIRECTION('',(-0.281084637714816,-0.678598344545848,0.678598344545848));
#1767=DIRECTION('center_axis',(-0.500000000000001,0.707106781186546,0.500000000000001));
#1768=DIRECTION('ref_axis',(-0.707106781186548,0.,-0.707106781186548));
#1769=DIRECTION('',(0.707106781186548,0.,0.707106781186548));
#1770=DIRECTION('center_axis',(0.,1.,0.));
#1771=DIRECTION('ref_axis',(0.,0.,-1.));
#1772=DIRECTION('center_axis',(0.,-1.,0.));
#1773=DIRECTION('ref_axis',(0.,0.,-1.));
#1774=DIRECTION('',(0.,1.,0.));
#1775=DIRECTION('center_axis',(0.,1.,0.));
#1776=DIRECTION('ref_axis',(0.,0.,-1.));
#1777=DIRECTION('center_axis',(0.,-1.,0.));
#1778=DIRECTION('ref_axis',(0.,0.,-1.));
#1779=DIRECTION('',(0.,1.,0.));
#1780=DIRECTION('center_axis',(0.,1.,0.));
#1781=DIRECTION('ref_axis',(0.,0.,-1.));
#1782=DIRECTION('',(0.,1.,0.));
#1783=DIRECTION('center_axis',(0.,1.,0.));
#1784=DIRECTION('ref_axis',(0.,0.,1.));
#1785=DIRECTION('center_axis',(0.,1.,0.));
#1786=DIRECTION('ref_axis',(0.,0.,1.));
#1787=DIRECTION('center_axis',(0.,1.,0.));
#1788=DIRECTION('ref_axis',(0.,0.,1.));
#1789=DIRECTION('center_axis',(0.,0.,-1.));
#1790=DIRECTION('ref_axis',(-1.,0.,0.));
#1791=DIRECTION('center_axis',(0.,0.,-1.));
#1792=DIRECTION('ref_axis',(-1.,0.,0.));
#1793=DIRECTION('center_axis',(0.,0.,-1.));
#1794=DIRECTION('ref_axis',(-1.,0.,0.));
#1795=DIRECTION('center_axis',(0.,0.,1.));
#1796=DIRECTION('ref_axis',(-1.,0.,0.));
#1797=DIRECTION('center_axis',(0.,0.,-1.));
#1798=DIRECTION('ref_axis',(-1.,0.,0.));
#1799=DIRECTION('',(0.,0.,-1.));
#1800=DIRECTION('center_axis',(0.,0.,1.));
#1801=DIRECTION('ref_axis',(1.,0.,0.));
#1802=DIRECTION('center_axis',(0.,0.,-1.));
#1803=DIRECTION('ref_axis',(-1.,0.,0.));
#1804=DIRECTION('center_axis',(0.,0.,1.));
#1805=DIRECTION('ref_axis',(-1.,0.,0.));
#1806=DIRECTION('center_axis',(0.,0.,-1.));
#1807=DIRECTION('ref_axis',(-1.,0.,0.));
#1808=DIRECTION('',(0.,0.,-1.));
#1809=DIRECTION('center_axis',(0.,0.,-1.));
#1810=DIRECTION('ref_axis',(-1.,0.,0.));
#1811=DIRECTION('',(-0.707106781188352,8.65956056237703E-17,0.707106781184743));
#1812=DIRECTION('center_axis',(0.,0.,-1.));
#1813=DIRECTION('ref_axis',(-1.,0.,0.));
#1814=DIRECTION('center_axis',(0.,0.,-1.));
#1815=DIRECTION('ref_axis',(-1.,0.,0.));
#1816=DIRECTION('center_axis',(0.,0.,1.));
#1817=DIRECTION('ref_axis',(-1.,0.,0.));
#1818=DIRECTION('',(0.,0.,-1.));
#1819=CARTESIAN_POINT('',(0.,0.,0.));
#1820=CARTESIAN_POINT('Origin',(17.48,20.,-58.0688603012513));
#1821=CARTESIAN_POINT('',(16.2505,20.,5.5));
#1822=CARTESIAN_POINT('Origin',(17.48,20.,5.5));
#1823=CARTESIAN_POINT('',(16.2505,20.,0.));
#1824=CARTESIAN_POINT('',(16.2505,20.,-58.0688603012513));
#1825=CARTESIAN_POINT('Origin',(17.48,20.,0.));
#1826=CARTESIAN_POINT('Origin',(10.98,20.,-58.0688603012513));
#1827=CARTESIAN_POINT('',(9.7505,20.,5.5));
#1828=CARTESIAN_POINT('Origin',(10.98,20.,5.5));
#1829=CARTESIAN_POINT('',(9.7505,20.,0.));
#1830=CARTESIAN_POINT('',(9.7505,20.,-58.0688603012513));
#1831=CARTESIAN_POINT('Origin',(10.98,20.,0.));
#1832=CARTESIAN_POINT('Origin',(0.,5.,0.));
#1833=CARTESIAN_POINT('',(20.,5.,19.));
#1834=CARTESIAN_POINT('',(20.,5.,-19.));
#1835=CARTESIAN_POINT('',(20.,5.,19.));
#1836=CARTESIAN_POINT('',(19.,5.,-20.));
#1837=CARTESIAN_POINT('',(20.,5.,-19.));
#1838=CARTESIAN_POINT('',(-19.,5.00000000000001,-20.));
#1839=CARTESIAN_POINT('',(25.,5.,-20.));
#1840=CARTESIAN_POINT('',(-20.,5.,-19.));
#1841=CARTESIAN_POINT('',(-19.,5.,-20.));
#1842=CARTESIAN_POINT('',(-20.,5.,19.));
#1843=CARTESIAN_POINT('',(-20.,5.,-19.));
#1844=CARTESIAN_POINT('',(-19.,5.,20.));
#1845=CARTESIAN_POINT('',(-20.,5.,19.));
#1846=CARTESIAN_POINT('',(19.,5.,20.));
#1847=CARTESIAN_POINT('',(-25.,5.,20.));
#1848=CARTESIAN_POINT('',(19.,5.,20.));
#1849=CARTESIAN_POINT('',(-16.,5.,-14.25));
#1850=CARTESIAN_POINT('Origin',(-16.,5.,-16.));
#1851=CARTESIAN_POINT('',(16.,5.,-14.25));
#1852=CARTESIAN_POINT('Origin',(16.,5.,-16.));
#1853=CARTESIAN_POINT('',(-16.,5.,17.75));
#1854=CARTESIAN_POINT('Origin',(-16.,5.,16.));
#1855=CARTESIAN_POINT('',(-19.98,5.,5.5));
#1856=CARTESIAN_POINT('',(19.98,5.,5.5));
#1857=CARTESIAN_POINT('',(-19.98,5.,5.5));
#1858=CARTESIAN_POINT('',(-19.98,5.,0.));
#1859=CARTESIAN_POINT('',(-19.98,5.,0.));
#1860=CARTESIAN_POINT('',(-9.,5.,0.));
#1861=CARTESIAN_POINT('',(-9.,5.,0.));
#1862=CARTESIAN_POINT('',(-9.,5.,-0.5));
#1863=CARTESIAN_POINT('',(-9.,5.,-0.5));
#1864=CARTESIAN_POINT('',(-8.7,5.,-0.5));
#1865=CARTESIAN_POINT('',(-8.7,5.,-0.5));
#1866=CARTESIAN_POINT('',(-9.,5.,-0.8));
#1867=CARTESIAN_POINT('',(-9.,5.,-0.8));
#1868=CARTESIAN_POINT('',(-9.,5.,-2.586));
#1869=CARTESIAN_POINT('',(-9.,5.,-2.586));
#1870=CARTESIAN_POINT('',(-8.086,5.,-3.5));
#1871=CARTESIAN_POINT('',(-8.086,5.,-3.5));
#1872=CARTESIAN_POINT('',(-9.,5.,-4.414));
#1873=CARTESIAN_POINT('',(-9.,5.,-4.414));
#1874=CARTESIAN_POINT('',(-9.,5.,-6.2));
#1875=CARTESIAN_POINT('',(-9.,5.,-6.2));
#1876=CARTESIAN_POINT('',(-8.7,5.,-6.5));
#1877=CARTESIAN_POINT('',(-8.7,5.,-6.5));
#1878=CARTESIAN_POINT('',(-3.8,5.,-6.5));
#1879=CARTESIAN_POINT('',(-3.8,5.,-6.5));
#1880=CARTESIAN_POINT('',(-3.5,5.,-6.2));
#1881=CARTESIAN_POINT('',(-3.5,5.,-6.2));
#1882=CARTESIAN_POINT('',(-3.5,5.,-4.5));
#1883=CARTESIAN_POINT('',(-3.5,5.,-4.5));
#1884=CARTESIAN_POINT('',(3.5,5.,-4.5));
#1885=CARTESIAN_POINT('',(3.5,5.,-4.5));
#1886=CARTESIAN_POINT('',(3.5,5.,-6.2));
#1887=CARTESIAN_POINT('',(3.5,5.,-6.2));
#1888=CARTESIAN_POINT('',(3.8,5.,-6.5));
#1889=CARTESIAN_POINT('',(3.8,5.,-6.5));
#1890=CARTESIAN_POINT('',(8.7,5.,-6.5));
#1891=CARTESIAN_POINT('',(8.7,5.,-6.5));
#1892=CARTESIAN_POINT('',(9.,5.,-6.2));
#1893=CARTESIAN_POINT('',(9.,5.,-6.2));
#1894=CARTESIAN_POINT('',(9.,5.,-4.414));
#1895=CARTESIAN_POINT('',(9.,5.,-4.414));
#1896=CARTESIAN_POINT('',(8.086,5.,-3.5));
#1897=CARTESIAN_POINT('',(8.086,5.,-3.5));
#1898=CARTESIAN_POINT('',(9.,5.,-2.586));
#1899=CARTESIAN_POINT('',(9.,5.,-2.586));
#1900=CARTESIAN_POINT('',(9.,5.,-0.8));
#1901=CARTESIAN_POINT('',(9.,5.,-0.8));
#1902=CARTESIAN_POINT('',(8.7,5.,-0.5));
#1903=CARTESIAN_POINT('',(8.7,5.,-0.5));
#1904=CARTESIAN_POINT('',(9.,5.,-0.5));
#1905=CARTESIAN_POINT('',(9.,5.,-0.5));
#1906=CARTESIAN_POINT('',(9.,5.,0.));
#1907=CARTESIAN_POINT('',(9.,5.,0.));
#1908=CARTESIAN_POINT('',(19.98,5.,0.));
#1909=CARTESIAN_POINT('',(19.98,5.,0.));
#1910=CARTESIAN_POINT('',(19.98,5.,5.5));
#1911=CARTESIAN_POINT('Origin',(-19.98,34.,0.));
#1912=CARTESIAN_POINT('',(-19.98,29.,5.5));
#1913=CARTESIAN_POINT('',(-19.98,29.,0.));
#1914=CARTESIAN_POINT('',(-19.98,29.,0.));
#1915=CARTESIAN_POINT('',(-19.98,34.,0.));
#1916=CARTESIAN_POINT('',(-19.98,34.,5.5));
#1917=CARTESIAN_POINT('Origin',(-9.,34.,0.));
#1918=CARTESIAN_POINT('',(-9.,29.,0.));
#1919=CARTESIAN_POINT('',(0.,29.,0.));
#1920=CARTESIAN_POINT('',(-9.,34.,0.));
#1921=CARTESIAN_POINT('Origin',(-9.,34.,-0.5));
#1922=CARTESIAN_POINT('',(-9.,29.,-0.5));
#1923=CARTESIAN_POINT('',(-9.,29.,0.));
#1924=CARTESIAN_POINT('',(-9.,34.,-0.5));
#1925=CARTESIAN_POINT('Origin',(-8.7,34.,-0.5));
#1926=CARTESIAN_POINT('',(-8.7,29.,-0.5));
#1927=CARTESIAN_POINT('',(0.,29.,-0.5));
#1928=CARTESIAN_POINT('',(-8.7,34.,-0.5));
#1929=CARTESIAN_POINT('Origin',(-9.,34.,-0.8));
#1930=CARTESIAN_POINT('',(-9.,29.,-0.8));
#1931=CARTESIAN_POINT('',(-4.09999999999998,29.,4.1));
#1932=CARTESIAN_POINT('',(-9.,34.,-0.8));
#1933=CARTESIAN_POINT('Origin',(-9.,34.,-2.586));
#1934=CARTESIAN_POINT('',(-9.,29.,-2.586));
#1935=CARTESIAN_POINT('',(-9.,29.,0.));
#1936=CARTESIAN_POINT('',(-9.,34.,-2.586));
#1937=CARTESIAN_POINT('Origin',(-8.086,34.,-3.5));
#1938=CARTESIAN_POINT('',(-8.086,29.,-3.5));
#1939=CARTESIAN_POINT('',(-5.793,29.,-5.793));
#1940=CARTESIAN_POINT('',(-8.086,34.,-3.5));
#1941=CARTESIAN_POINT('Origin',(-9.,34.,-4.414));
#1942=CARTESIAN_POINT('',(-9.,29.,-4.414));
#1943=CARTESIAN_POINT('',(-2.293,29.,2.293));
#1944=CARTESIAN_POINT('',(-9.,34.,-4.414));
#1945=CARTESIAN_POINT('Origin',(-9.,34.,-6.2));
#1946=CARTESIAN_POINT('',(-9.,29.,-6.2));
#1947=CARTESIAN_POINT('',(-9.,29.,0.));
#1948=CARTESIAN_POINT('',(-9.,34.,-6.2));
#1949=CARTESIAN_POINT('Origin',(-8.7,34.,-6.5));
#1950=CARTESIAN_POINT('',(-8.7,29.,-6.5));
#1951=CARTESIAN_POINT('',(-7.59999999999998,29.,-7.60000000000002));
#1952=CARTESIAN_POINT('',(-8.7,34.,-6.5));
#1953=CARTESIAN_POINT('Origin',(-3.8,34.,-6.5));
#1954=CARTESIAN_POINT('',(-3.8,29.,-6.5));
#1955=CARTESIAN_POINT('',(0.,29.,-6.5));
#1956=CARTESIAN_POINT('',(-3.8,34.,-6.5));
#1957=CARTESIAN_POINT('Origin',(-3.5,34.,-6.2));
#1958=CARTESIAN_POINT('',(-3.5,29.,-6.2));
#1959=CARTESIAN_POINT('',(1.35,29.,-1.35));
#1960=CARTESIAN_POINT('',(-3.5,34.,-6.2));
#1961=CARTESIAN_POINT('Origin',(-3.5,34.,-4.5));
#1962=CARTESIAN_POINT('',(-3.5,29.,-4.5));
#1963=CARTESIAN_POINT('',(-3.5,29.,0.));
#1964=CARTESIAN_POINT('',(-3.5,34.,-4.5));
#1965=CARTESIAN_POINT('Origin',(3.5,34.,-4.5));
#1966=CARTESIAN_POINT('',(3.5,29.,-4.5));
#1967=CARTESIAN_POINT('',(0.,29.,-4.5));
#1968=CARTESIAN_POINT('',(3.5,34.,-4.5));
#1969=CARTESIAN_POINT('Origin',(3.5,34.,-6.2));
#1970=CARTESIAN_POINT('',(3.5,29.,-6.2));
#1971=CARTESIAN_POINT('',(3.5,29.,0.));
#1972=CARTESIAN_POINT('',(3.5,34.,-6.2));
#1973=CARTESIAN_POINT('Origin',(3.8,34.,-6.5));
#1974=CARTESIAN_POINT('',(3.8,29.,-6.5));
#1975=CARTESIAN_POINT('',(-1.35,29.,-1.35));
#1976=CARTESIAN_POINT('',(3.8,34.,-6.5));
#1977=CARTESIAN_POINT('Origin',(8.7,34.,-6.5));
#1978=CARTESIAN_POINT('',(8.7,29.,-6.5));
#1979=CARTESIAN_POINT('',(0.,29.,-6.5));
#1980=CARTESIAN_POINT('',(8.7,34.,-6.5));
#1981=CARTESIAN_POINT('Origin',(9.,34.,-6.2));
#1982=CARTESIAN_POINT('',(9.,29.,-6.2));
#1983=CARTESIAN_POINT('',(7.59999999999998,29.,-7.60000000000002));
#1984=CARTESIAN_POINT('',(9.,34.,-6.2));
#1985=CARTESIAN_POINT('Origin',(9.,34.,-4.414));
#1986=CARTESIAN_POINT('',(9.,29.,-4.414));
#1987=CARTESIAN_POINT('',(9.,29.,0.));
#1988=CARTESIAN_POINT('',(9.,34.,-4.414));
#1989=CARTESIAN_POINT('Origin',(8.086,34.,-3.5));
#1990=CARTESIAN_POINT('',(8.086,29.,-3.5));
#1991=CARTESIAN_POINT('',(2.293,29.,2.293));
#1992=CARTESIAN_POINT('',(8.086,34.,-3.5));
#1993=CARTESIAN_POINT('Origin',(9.,34.,-2.586));
#1994=CARTESIAN_POINT('',(9.,29.,-2.586));
#1995=CARTESIAN_POINT('',(5.793,29.,-5.793));
#1996=CARTESIAN_POINT('',(9.,34.,-2.586));
#1997=CARTESIAN_POINT('Origin',(9.,34.,-0.8));
#1998=CARTESIAN_POINT('',(9.,29.,-0.8));
#1999=CARTESIAN_POINT('',(9.,29.,0.));
#2000=CARTESIAN_POINT('',(9.,34.,-0.8));
#2001=CARTESIAN_POINT('Origin',(8.7,34.,-0.5));
#2002=CARTESIAN_POINT('',(8.7,29.,-0.5));
#2003=CARTESIAN_POINT('',(4.09999999999998,29.,4.1));
#2004=CARTESIAN_POINT('',(8.7,34.,-0.5));
#2005=CARTESIAN_POINT('Origin',(9.,34.,-0.5));
#2006=CARTESIAN_POINT('',(9.,29.,-0.5));
#2007=CARTESIAN_POINT('',(0.,29.,-0.5));
#2008=CARTESIAN_POINT('',(9.,34.,-0.5));
#2009=CARTESIAN_POINT('Origin',(9.,34.,0.));
#2010=CARTESIAN_POINT('',(9.,29.,0.));
#2011=CARTESIAN_POINT('',(9.,29.,0.));
#2012=CARTESIAN_POINT('',(9.,34.,0.));
#2013=CARTESIAN_POINT('Origin',(19.98,34.,0.));
#2014=CARTESIAN_POINT('',(19.98,29.,0.));
#2015=CARTESIAN_POINT('',(0.,29.,0.));
#2016=CARTESIAN_POINT('',(19.98,34.,0.));
#2017=CARTESIAN_POINT('Origin',(19.98,34.,5.5));
#2018=CARTESIAN_POINT('',(19.98,29.,5.5));
#2019=CARTESIAN_POINT('',(19.98,29.,0.));
#2020=CARTESIAN_POINT('',(19.98,34.,5.5));
#2021=CARTESIAN_POINT('Origin',(-19.98,34.,5.5));
#2022=CARTESIAN_POINT('',(0.,29.,5.5));
#2023=CARTESIAN_POINT('',(4.,24.5,5.5));
#2024=CARTESIAN_POINT('Origin',(0.,24.5,5.5));
#2025=CARTESIAN_POINT('Origin',(0.,0.3,0.));
#2026=CARTESIAN_POINT('',(-12.,0.3,-19.8));
#2027=CARTESIAN_POINT('',(12.,0.3,-19.8));
#2028=CARTESIAN_POINT('',(19.,0.3,-19.8));
#2029=CARTESIAN_POINT('',(12.,0.3,-12.));
#2030=CARTESIAN_POINT('',(12.,0.3,-12.));
#2031=CARTESIAN_POINT('',(19.8,0.3,-12.));
#2032=CARTESIAN_POINT('',(20.,0.3,-12.));
#2033=CARTESIAN_POINT('',(19.8,0.3,12.));
#2034=CARTESIAN_POINT('',(19.8,0.3,19.));
#2035=CARTESIAN_POINT('',(12.,0.3,12.));
#2036=CARTESIAN_POINT('',(12.,0.3,12.));
#2037=CARTESIAN_POINT('',(12.,0.3,19.8));
#2038=CARTESIAN_POINT('',(12.,0.3,20.));
#2039=CARTESIAN_POINT('',(-12.,0.3,19.8));
#2040=CARTESIAN_POINT('',(-19.,0.3,19.8));
#2041=CARTESIAN_POINT('',(-12.,0.3,12.));
#2042=CARTESIAN_POINT('',(-12.,0.3,12.));
#2043=CARTESIAN_POINT('',(-19.8,0.3,12.));
#2044=CARTESIAN_POINT('',(-20.,0.3,12.));
#2045=CARTESIAN_POINT('',(-19.8,0.3,-12.));
#2046=CARTESIAN_POINT('',(-19.8,0.3,-19.));
#2047=CARTESIAN_POINT('',(-12.,0.3,-12.));
#2048=CARTESIAN_POINT('',(-12.,0.3,-12.));
#2049=CARTESIAN_POINT('',(-12.,0.3,-20.));
#2050=CARTESIAN_POINT('Origin',(-12.,0.3,-12.));
#2051=CARTESIAN_POINT('',(-19.5,0.,-12.));
#2052=CARTESIAN_POINT('',(-12.,0.,-12.));
#2053=CARTESIAN_POINT('',(0.,0.,-12.));
#2054=CARTESIAN_POINT('',(-12.,0.3,-12.));
#2055=CARTESIAN_POINT('',(-20.,0.5,-12.));
#2056=CARTESIAN_POINT('Origin',(-12.,0.3,-20.));
#2057=CARTESIAN_POINT('',(-12.,0.,-19.5));
#2058=CARTESIAN_POINT('',(-12.,0.,0.));
#2059=CARTESIAN_POINT('',(-12.,0.5,-20.));
#2060=CARTESIAN_POINT('Origin',(12.,0.3,-12.));
#2061=CARTESIAN_POINT('',(12.,0.,-19.5));
#2062=CARTESIAN_POINT('',(12.,0.,-12.));
#2063=CARTESIAN_POINT('',(12.,0.,0.));
#2064=CARTESIAN_POINT('',(12.,0.3,-12.));
#2065=CARTESIAN_POINT('',(12.,0.5,-20.));
#2066=CARTESIAN_POINT('Origin',(20.,0.3,-12.));
#2067=CARTESIAN_POINT('',(19.5,0.,-12.));
#2068=CARTESIAN_POINT('',(0.,0.,-12.));
#2069=CARTESIAN_POINT('',(20.,0.5,-12.));
#2070=CARTESIAN_POINT('Origin',(12.,0.3,12.));
#2071=CARTESIAN_POINT('',(19.5,0.,12.));
#2072=CARTESIAN_POINT('',(12.,0.,12.));
#2073=CARTESIAN_POINT('',(0.,0.,12.));
#2074=CARTESIAN_POINT('',(12.,0.3,12.));
#2075=CARTESIAN_POINT('',(20.,0.5,12.));
#2076=CARTESIAN_POINT('Origin',(12.,0.3,20.));
#2077=CARTESIAN_POINT('',(12.,0.,19.5));
#2078=CARTESIAN_POINT('',(12.,0.,0.));
#2079=CARTESIAN_POINT('',(12.,0.5,20.));
#2080=CARTESIAN_POINT('Origin',(-12.,0.3,12.));
#2081=CARTESIAN_POINT('',(-12.,0.,19.5));
#2082=CARTESIAN_POINT('',(-12.,0.,12.));
#2083=CARTESIAN_POINT('',(-12.,0.,0.));
#2084=CARTESIAN_POINT('',(-12.,0.3,12.));
#2085=CARTESIAN_POINT('',(-12.,0.5,20.));
#2086=CARTESIAN_POINT('Origin',(-20.,0.3,12.));
#2087=CARTESIAN_POINT('',(-19.5,0.,12.));
#2088=CARTESIAN_POINT('',(0.,0.,12.));
#2089=CARTESIAN_POINT('',(-20.,0.5,12.));
#2090=CARTESIAN_POINT('Origin',(0.,29.,0.));
#2091=CARTESIAN_POINT('Origin',(0.,0.,0.));
#2092=CARTESIAN_POINT('',(-18.7928932188135,0.,19.5));
#2093=CARTESIAN_POINT('',(0.,0.,19.5));
#2094=CARTESIAN_POINT('',(-19.5,0.,18.7928932188135));
#2095=CARTESIAN_POINT('',(-19.1464466094067,0.,19.1464466094067));
#2096=CARTESIAN_POINT('',(-19.5,0.,0.));
#2097=CARTESIAN_POINT('',(-16.,0.,17.75));
#2098=CARTESIAN_POINT('Origin',(-16.,0.,16.));
#2099=CARTESIAN_POINT('Origin',(-19.,29.,-20.));
#2100=CARTESIAN_POINT('',(-19.,0.500000000000007,-20.));
#2101=CARTESIAN_POINT('',(-19.,29.,-20.));
#2102=CARTESIAN_POINT('',(-20.,0.500000000000007,-19.));
#2103=CARTESIAN_POINT('',(-19.,0.5,-20.));
#2104=CARTESIAN_POINT('',(-20.,29.,-19.));
#2105=CARTESIAN_POINT('Origin',(19.,29.,-20.));
#2106=CARTESIAN_POINT('',(19.,0.500000000000007,-20.));
#2107=CARTESIAN_POINT('',(19.,29.,-20.));
#2108=CARTESIAN_POINT('',(19.,0.5,-20.));
#2109=CARTESIAN_POINT('Origin',(20.,29.,-19.));
#2110=CARTESIAN_POINT('',(20.,0.500000000000007,-19.));
#2111=CARTESIAN_POINT('',(20.,29.,-19.));
#2112=CARTESIAN_POINT('',(20.,0.5,-19.));
#2113=CARTESIAN_POINT('Origin',(20.,29.,19.));
#2114=CARTESIAN_POINT('',(20.,0.500000000000007,19.));
#2115=CARTESIAN_POINT('',(20.,29.,19.));
#2116=CARTESIAN_POINT('',(20.,0.5,19.));
#2117=CARTESIAN_POINT('Origin',(19.,29.,20.));
#2118=CARTESIAN_POINT('',(19.,0.500000000000007,20.));
#2119=CARTESIAN_POINT('',(19.,29.,20.));
#2120=CARTESIAN_POINT('',(19.,0.5,20.));
#2121=CARTESIAN_POINT('Origin',(-19.,29.,20.));
#2122=CARTESIAN_POINT('',(-19.,0.500000000000007,20.));
#2123=CARTESIAN_POINT('',(-19.,29.,20.));
#2124=CARTESIAN_POINT('',(-19.,0.5,20.));
#2125=CARTESIAN_POINT('Origin',(-20.,29.,19.));
#2126=CARTESIAN_POINT('',(-20.,0.500000000000007,19.));
#2127=CARTESIAN_POINT('',(-20.,29.,19.));
#2128=CARTESIAN_POINT('',(-20.,0.5,19.));
#2129=CARTESIAN_POINT('Origin',(-20.,29.,-19.));
#2130=CARTESIAN_POINT('',(-20.,0.5,-19.));
#2131=CARTESIAN_POINT('Origin',(-20.,0.5,19.));
#2132=CARTESIAN_POINT('',(-12.7517443464393,-6.74825565356067,15.9976742047478));
#2133=CARTESIAN_POINT('',(-19.,0.5,20.));
#2134=CARTESIAN_POINT('Origin',(-19.,0.5,20.));
#2135=CARTESIAN_POINT('',(18.7928932188135,0.,19.5));
#2136=CARTESIAN_POINT('',(0.,0.,19.5));
#2137=CARTESIAN_POINT('',(19.,0.5,20.));
#2138=CARTESIAN_POINT('Origin',(-20.,0.5,-19.));
#2139=CARTESIAN_POINT('',(-19.5,0.,-18.7928932188135));
#2140=CARTESIAN_POINT('',(-20.,0.5,-19.));
#2141=CARTESIAN_POINT('',(-19.5,0.,0.));
#2142=CARTESIAN_POINT('Origin',(19.,0.5,20.));
#2143=CARTESIAN_POINT('',(19.5,0.,18.7928932188135));
#2144=CARTESIAN_POINT('',(20.,0.5,19.));
#2145=CARTESIAN_POINT('',(19.1464466094067,0.,19.1464466094067));
#2146=CARTESIAN_POINT('Origin',(-19.,0.5,-20.));
#2147=CARTESIAN_POINT('',(-18.7928932188135,0.,-19.5));
#2148=CARTESIAN_POINT('',(-19.,0.5,-20.));
#2149=CARTESIAN_POINT('',(-19.1464466094067,0.,-19.1464466094067));
#2150=CARTESIAN_POINT('Origin',(20.,0.5,19.));
#2151=CARTESIAN_POINT('',(19.5,0.,0.));
#2152=CARTESIAN_POINT('',(19.5,0.,-18.7928932188135));
#2153=CARTESIAN_POINT('',(19.5,0.,0.));
#2154=CARTESIAN_POINT('',(20.,0.5,-19.));
#2155=CARTESIAN_POINT('Origin',(19.,0.5,-20.));
#2156=CARTESIAN_POINT('',(18.7928932188135,0.,-19.5));
#2157=CARTESIAN_POINT('',(0.,0.,-19.5));
#2158=CARTESIAN_POINT('',(0.,0.,-19.5));
#2159=CARTESIAN_POINT('',(19.,0.5,-20.));
#2160=CARTESIAN_POINT('Origin',(20.,0.5,-19.));
#2161=CARTESIAN_POINT('',(19.1464466094067,0.,-19.1464466094067));
#2162=CARTESIAN_POINT('Origin',(-16.,0.,-16.));
#2163=CARTESIAN_POINT('',(-16.,0.,-14.25));
#2164=CARTESIAN_POINT('Origin',(-16.,0.,-16.));
#2165=CARTESIAN_POINT('',(-16.,0.,-14.25));
#2166=CARTESIAN_POINT('Origin',(16.,0.,-16.));
#2167=CARTESIAN_POINT('',(16.,0.,-14.25));
#2168=CARTESIAN_POINT('Origin',(16.,0.,-16.));
#2169=CARTESIAN_POINT('',(16.,0.,-14.25));
#2170=CARTESIAN_POINT('Origin',(-16.,0.,16.));
#2171=CARTESIAN_POINT('',(-16.,0.,17.75));
#2172=CARTESIAN_POINT('Origin',(0.,0.,0.));
#2173=CARTESIAN_POINT('Origin',(0.,0.,0.));
#2174=CARTESIAN_POINT('Origin',(0.,0.,0.));
#2175=CARTESIAN_POINT('Origin',(0.,27.,6.5));
#2176=CARTESIAN_POINT('',(4.,24.5,6.5));
#2177=CARTESIAN_POINT('Origin',(0.,24.5,6.5));
#2178=CARTESIAN_POINT('',(2.5,24.5,6.5));
#2179=CARTESIAN_POINT('Origin',(0.,24.5,6.5));
#2180=CARTESIAN_POINT('Origin',(0.,24.5,5.5));
#2181=CARTESIAN_POINT('',(2.5,24.5,17.1));
#2182=CARTESIAN_POINT('Origin',(0.,24.5,17.1));
#2183=CARTESIAN_POINT('',(2.5,24.5,5.5));
#2184=CARTESIAN_POINT('Origin',(0.,28.5,17.1));
#2185=CARTESIAN_POINT('',(4.,24.5,17.1));
#2186=CARTESIAN_POINT('Origin',(0.,24.5,17.1));
#2187=CARTESIAN_POINT('Origin',(0.,24.5,5.5));
#2188=CARTESIAN_POINT('',(4.,24.5,19.7));
#2189=CARTESIAN_POINT('Origin',(0.,24.5,19.7));
#2190=CARTESIAN_POINT('',(4.,24.5,5.5));
#2191=CARTESIAN_POINT('Origin',(0.,24.5,20.));
#2192=CARTESIAN_POINT('',(3.7,24.5,20.));
#2193=CARTESIAN_POINT('',(3.7,24.5,20.));
#2194=CARTESIAN_POINT('Origin',(0.,24.5,20.));
#2195=CARTESIAN_POINT('Origin',(0.,24.5,20.));
#2196=CARTESIAN_POINT('Origin',(0.,24.5,5.5));
#2197=CARTESIAN_POINT('',(4.,24.5,5.5));
#2198=UNCERTAINTY_MEASURE_WITH_UNIT(LENGTH_MEASURE(0.01),#2202,
'DISTANCE_ACCURACY_VALUE',
'Maximum model space distance between geometric entities at asserted c
onnectivities');
#2199=UNCERTAINTY_MEASURE_WITH_UNIT(LENGTH_MEASURE(0.01),#2202,
'DISTANCE_ACCURACY_VALUE',
'Maximum model space distance between geometric entities at asserted c
onnectivities');
#2200=(
GEOMETRIC_REPRESENTATION_CONTEXT(3)
GLOBAL_UNCERTAINTY_ASSIGNED_CONTEXT((#2198))
GLOBAL_UNIT_ASSIGNED_CONTEXT((#2202,#2204,#2205))
REPRESENTATION_CONTEXT('','3D')
);
#2201=(
GEOMETRIC_REPRESENTATION_CONTEXT(3)
GLOBAL_UNCERTAINTY_ASSIGNED_CONTEXT((#2199))
GLOBAL_UNIT_ASSIGNED_CONTEXT((#2202,#2204,#2205))
REPRESENTATION_CONTEXT('','3D')
);
#2202=(
LENGTH_UNIT()
NAMED_UNIT(*)
SI_UNIT(.MILLI.,.METRE.)
);
#2203=(
LENGTH_UNIT()
NAMED_UNIT(*)
SI_UNIT(.CENTI.,.METRE.)
);
#2204=(
NAMED_UNIT(*)
PLANE_ANGLE_UNIT()
SI_UNIT($,.RADIAN.)
);
#2205=(
NAMED_UNIT(*)
SI_UNIT($,.STERADIAN.)
SOLID_ANGLE_UNIT()
);
#2206=SHAPE_DEFINITION_REPRESENTATION(#2207,#2208);
#2207=PRODUCT_DEFINITION_SHAPE('',$,#2210);
#2208=SHAPE_REPRESENTATION('',(#1383),#2200);
#2209=PRODUCT_DEFINITION_CONTEXT('part definition',#2214,'design');
#2210=PRODUCT_DEFINITION('BUY - Manual Z stage - LZ40-10 --- base',
'BUY - Manual Z stage - LZ40 --- base',#2211,#2209);
#2211=PRODUCT_DEFINITION_FORMATION('',$,#2216);
#2212=PRODUCT_RELATED_PRODUCT_CATEGORY(
'BUY - Manual Z stage - LZ40 --- base',
'BUY - Manual Z stage - LZ40 --- base',(#2216));
#2213=APPLICATION_PROTOCOL_DEFINITION('international standard',
'automotive_design',2009,#2214);
#2214=APPLICATION_CONTEXT(
'Core Data for Automotive Mechanical Design Process');
#2215=PRODUCT_CONTEXT('part definition',#2214,'mechanical');
#2216=PRODUCT('BUY - Manual Z stage - LZ40-10 --- base',
'BUY - Manual Z stage - LZ40 --- base','STEP AP203',(#2215));
#2217=PRESENTATION_STYLE_ASSIGNMENT((#2218));
#2218=SURFACE_STYLE_USAGE(.BOTH.,#2221);
#2219=SURFACE_STYLE_RENDERING_WITH_PROPERTIES($,#2225,(#2220));
#2220=SURFACE_STYLE_TRANSPARENT(0.);
#2221=SURFACE_SIDE_STYLE('',(#2222,#2219));
#2222=SURFACE_STYLE_FILL_AREA(#2223);
#2223=FILL_AREA_STYLE('',(#2224));
#2224=FILL_AREA_STYLE_COLOUR('',#2225);
#2225=COLOUR_RGB('',0.270588235294118,0.270588235294118,0.270588235294118);
ENDSEC;
END-ISO-10303-21;
