ISO-10303-21;
HEADER;
/* Generated by software containing ST-Developer
 * from STEP Tools, Inc. (www.steptools.com) 
 */

FILE_DESCRIPTION(
/* description */ (''),
/* implementation_level */ '2;1');

FILE_NAME(
/* name */ 'BUY - XYZ linear table - LD40 --- Y plate.stp',
/* time_stamp */ '2026-09-22T17:01:36+02:00',
/* author */ ('benir'),
/* organization */ (''),
/* preprocessor_version */ 'ST-DEVELOPER v20',
/* originating_system */ 'Autodesk Inventor 2025',
/* authorisation */ '');

FILE_SCHEMA (('AUTOMOTIVE_DESIGN { 1 0 10303 214 3 1 1 }'));
ENDSEC;

DATA;
#10=MECHANICAL_DESIGN_GEOMETRIC_PRESENTATION_REPRESENTATION('',(#13),#816);
#11=SHAPE_REPRESENTATION_RELATIONSHIP('SRR','None',#823,#12);
#12=ADVANCED_BREP_SHAPE_REPRESENTATION('',(#14),#815);
#13=STYLED_ITEM('',(#832),#14);
#14=MANIFOLD_SOLID_BREP('Y plate',#475);
#15=FACE_BOUND('',#93,.T.);
#16=FACE_BOUND('',#94,.T.);
#17=FACE_BOUND('',#95,.T.);
#18=FACE_BOUND('',#96,.T.);
#19=FACE_BOUND('',#100,.T.);
#20=FACE_BOUND('',#101,.T.);
#21=FACE_BOUND('',#102,.T.);
#22=FACE_BOUND('',#103,.T.);
#23=FACE_BOUND('',#104,.T.);
#24=FACE_BOUND('',#105,.T.);
#25=FACE_BOUND('',#106,.T.);
#26=FACE_BOUND('',#107,.T.);
#27=FACE_BOUND('',#109,.T.);
#28=FACE_BOUND('',#110,.T.);
#29=FACE_BOUND('',#114,.T.);
#30=FACE_BOUND('',#115,.T.);
#31=FACE_BOUND('',#116,.T.);
#32=FACE_BOUND('',#118,.T.);
#33=FACE_BOUND('',#119,.T.);
#34=FACE_BOUND('',#120,.T.);
#35=PLANE('',#525);
#36=PLANE('',#529);
#37=PLANE('',#533);
#38=PLANE('',#537);
#39=PLANE('',#538);
#40=PLANE('',#539);
#41=PLANE('',#540);
#42=PLANE('',#541);
#43=PLANE('',#542);
#44=PLANE('',#543);
#45=PLANE('',#544);
#46=PLANE('',#545);
#47=PLANE('',#546);
#48=PLANE('',#547);
#49=FACE_OUTER_BOUND('',#75,.T.);
#50=FACE_OUTER_BOUND('',#76,.T.);
#51=FACE_OUTER_BOUND('',#77,.T.);
#52=FACE_OUTER_BOUND('',#78,.T.);
#53=FACE_OUTER_BOUND('',#79,.T.);
#54=FACE_OUTER_BOUND('',#80,.T.);
#55=FACE_OUTER_BOUND('',#81,.T.);
#56=FACE_OUTER_BOUND('',#82,.T.);
#57=FACE_OUTER_BOUND('',#83,.T.);
#58=FACE_OUTER_BOUND('',#84,.T.);
#59=FACE_OUTER_BOUND('',#85,.T.);
#60=FACE_OUTER_BOUND('',#86,.T.);
#61=FACE_OUTER_BOUND('',#87,.T.);
#62=FACE_OUTER_BOUND('',#88,.T.);
#63=FACE_OUTER_BOUND('',#89,.T.);
#64=FACE_OUTER_BOUND('',#90,.T.);
#65=FACE_OUTER_BOUND('',#91,.T.);
#66=FACE_OUTER_BOUND('',#92,.T.);
#67=FACE_OUTER_BOUND('',#97,.T.);
#68=FACE_OUTER_BOUND('',#98,.T.);
#69=FACE_OUTER_BOUND('',#99,.T.);
#70=FACE_OUTER_BOUND('',#108,.T.);
#71=FACE_OUTER_BOUND('',#111,.T.);
#72=FACE_OUTER_BOUND('',#112,.T.);
#73=FACE_OUTER_BOUND('',#113,.T.);
#74=FACE_OUTER_BOUND('',#117,.T.);
#75=EDGE_LOOP('',(#317,#318,#319,#320));
#76=EDGE_LOOP('',(#321,#322,#323,#324));
#77=EDGE_LOOP('',(#325,#326,#327,#328));
#78=EDGE_LOOP('',(#329,#330,#331,#332));
#79=EDGE_LOOP('',(#333,#334,#335,#336));
#80=EDGE_LOOP('',(#337,#338,#339,#340));
#81=EDGE_LOOP('',(#341,#342,#343,#344));
#82=EDGE_LOOP('',(#345,#346,#347,#348));
#83=EDGE_LOOP('',(#349,#350,#351,#352));
#84=EDGE_LOOP('',(#353));
#85=EDGE_LOOP('',(#354,#355,#356,#357));
#86=EDGE_LOOP('',(#358));
#87=EDGE_LOOP('',(#359,#360,#361,#362));
#88=EDGE_LOOP('',(#363));
#89=EDGE_LOOP('',(#364,#365,#366,#367));
#90=EDGE_LOOP('',(#368));
#91=EDGE_LOOP('',(#369,#370,#371,#372));
#92=EDGE_LOOP('',(#373,#374,#375,#376));
#93=EDGE_LOOP('',(#377));
#94=EDGE_LOOP('',(#378));
#95=EDGE_LOOP('',(#379));
#96=EDGE_LOOP('',(#380));
#97=EDGE_LOOP('',(#381,#382,#383,#384));
#98=EDGE_LOOP('',(#385,#386,#387,#388,#389,#390,#391,#392));
#99=EDGE_LOOP('',(#393,#394,#395,#396));
#100=EDGE_LOOP('',(#397));
#101=EDGE_LOOP('',(#398));
#102=EDGE_LOOP('',(#399));
#103=EDGE_LOOP('',(#400));
#104=EDGE_LOOP('',(#401));
#105=EDGE_LOOP('',(#402));
#106=EDGE_LOOP('',(#403));
#107=EDGE_LOOP('',(#404));
#108=EDGE_LOOP('',(#405,#406,#407,#408));
#109=EDGE_LOOP('',(#409));
#110=EDGE_LOOP('',(#410));
#111=EDGE_LOOP('',(#411,#412,#413,#414,#415,#416,#417,#418));
#112=EDGE_LOOP('',(#419,#420,#421,#422));
#113=EDGE_LOOP('',(#423,#424,#425,#426));
#114=EDGE_LOOP('',(#427));
#115=EDGE_LOOP('',(#428));
#116=EDGE_LOOP('',(#429));
#117=EDGE_LOOP('',(#430,#431,#432,#433));
#118=EDGE_LOOP('',(#434));
#119=EDGE_LOOP('',(#435));
#120=EDGE_LOOP('',(#436));
#121=LINE('',#691,#157);
#122=LINE('',#697,#158);
#123=LINE('',#703,#159);
#124=LINE('',#709,#160);
#125=LINE('',#715,#161);
#126=LINE('',#721,#162);
#127=LINE('',#727,#163);
#128=LINE('',#733,#164);
#129=LINE('',#739,#165);
#130=LINE('',#746,#166);
#131=LINE('',#753,#167);
#132=LINE('',#760,#168);
#133=LINE('',#766,#169);
#134=LINE('',#768,#170);
#135=LINE('',#770,#171);
#136=LINE('',#771,#172);
#137=LINE('',#775,#173);
#138=LINE('',#777,#174);
#139=LINE('',#779,#175);
#140=LINE('',#780,#176);
#141=LINE('',#784,#177);
#142=LINE('',#786,#178);
#143=LINE('',#788,#179);
#144=LINE('',#789,#180);
#145=LINE('',#792,#181);
#146=LINE('',#794,#182);
#147=LINE('',#795,#183);
#148=LINE('',#796,#184);
#149=LINE('',#797,#185);
#150=LINE('',#800,#186);
#151=LINE('',#801,#187);
#152=LINE('',#803,#188);
#153=LINE('',#806,#189);
#154=LINE('',#807,#190);
#155=LINE('',#808,#191);
#156=LINE('',#810,#192);
#157=VECTOR('',#554,1.4);
#158=VECTOR('',#561,1.4);
#159=VECTOR('',#568,1.4);
#160=VECTOR('',#575,1.4);
#161=VECTOR('',#582,1.4);
#162=VECTOR('',#589,1.4);
#163=VECTOR('',#596,1.4);
#164=VECTOR('',#603,1.4);
#165=VECTOR('',#610,1.0065);
#166=VECTOR('',#619,1.0065);
#167=VECTOR('',#628,1.0065);
#168=VECTOR('',#637,1.0065);
#169=VECTOR('',#644,10.);
#170=VECTOR('',#645,10.);
#171=VECTOR('',#646,10.);
#172=VECTOR('',#647,10.);
#173=VECTOR('',#650,10.);
#174=VECTOR('',#651,10.);
#175=VECTOR('',#652,10.);
#176=VECTOR('',#653,10.);
#177=VECTOR('',#656,10.);
#178=VECTOR('',#657,10.);
#179=VECTOR('',#658,10.);
#180=VECTOR('',#659,10.);
#181=VECTOR('',#662,10.);
#182=VECTOR('',#663,10.);
#183=VECTOR('',#664,10.);
#184=VECTOR('',#665,10.);
#185=VECTOR('',#666,10.);
#186=VECTOR('',#669,10.);
#187=VECTOR('',#670,10.);
#188=VECTOR('',#673,10.);
#189=VECTOR('',#676,10.);
#190=VECTOR('',#677,10.);
#191=VECTOR('',#678,10.);
#192=VECTOR('',#681,10.);
#193=CIRCLE('',#499,1.4);
#194=CIRCLE('',#500,1.4);
#195=CIRCLE('',#502,1.4);
#196=CIRCLE('',#503,1.4);
#197=CIRCLE('',#505,1.4);
#198=CIRCLE('',#506,1.4);
#199=CIRCLE('',#508,1.4);
#200=CIRCLE('',#509,1.4);
#201=CIRCLE('',#511,1.4);
#202=CIRCLE('',#512,1.4);
#203=CIRCLE('',#514,1.4);
#204=CIRCLE('',#515,1.4);
#205=CIRCLE('',#517,1.4);
#206=CIRCLE('',#518,1.4);
#207=CIRCLE('',#520,1.4);
#208=CIRCLE('',#521,1.4);
#209=CIRCLE('',#523,1.0065);
#210=CIRCLE('',#524,1.0065);
#211=CIRCLE('',#527,1.0065);
#212=CIRCLE('',#528,1.0065);
#213=CIRCLE('',#531,1.0065);
#214=CIRCLE('',#532,1.0065);
#215=CIRCLE('',#535,1.0065);
#216=CIRCLE('',#536,1.0065);
#217=VERTEX_POINT('',#688);
#218=VERTEX_POINT('',#690);
#219=VERTEX_POINT('',#694);
#220=VERTEX_POINT('',#696);
#221=VERTEX_POINT('',#700);
#222=VERTEX_POINT('',#702);
#223=VERTEX_POINT('',#706);
#224=VERTEX_POINT('',#708);
#225=VERTEX_POINT('',#712);
#226=VERTEX_POINT('',#714);
#227=VERTEX_POINT('',#718);
#228=VERTEX_POINT('',#720);
#229=VERTEX_POINT('',#724);
#230=VERTEX_POINT('',#726);
#231=VERTEX_POINT('',#730);
#232=VERTEX_POINT('',#732);
#233=VERTEX_POINT('',#736);
#234=VERTEX_POINT('',#738);
#235=VERTEX_POINT('',#743);
#236=VERTEX_POINT('',#745);
#237=VERTEX_POINT('',#750);
#238=VERTEX_POINT('',#752);
#239=VERTEX_POINT('',#757);
#240=VERTEX_POINT('',#759);
#241=VERTEX_POINT('',#764);
#242=VERTEX_POINT('',#765);
#243=VERTEX_POINT('',#767);
#244=VERTEX_POINT('',#769);
#245=VERTEX_POINT('',#773);
#246=VERTEX_POINT('',#774);
#247=VERTEX_POINT('',#776);
#248=VERTEX_POINT('',#778);
#249=VERTEX_POINT('',#782);
#250=VERTEX_POINT('',#783);
#251=VERTEX_POINT('',#785);
#252=VERTEX_POINT('',#787);
#253=VERTEX_POINT('',#791);
#254=VERTEX_POINT('',#793);
#255=VERTEX_POINT('',#799);
#256=VERTEX_POINT('',#805);
#257=EDGE_CURVE('',#217,#217,#193,.T.);
#258=EDGE_CURVE('',#217,#218,#121,.T.);
#259=EDGE_CURVE('',#218,#218,#194,.T.);
#260=EDGE_CURVE('',#219,#219,#195,.T.);
#261=EDGE_CURVE('',#219,#220,#122,.T.);
#262=EDGE_CURVE('',#220,#220,#196,.T.);
#263=EDGE_CURVE('',#221,#221,#197,.T.);
#264=EDGE_CURVE('',#221,#222,#123,.T.);
#265=EDGE_CURVE('',#222,#222,#198,.T.);
#266=EDGE_CURVE('',#223,#223,#199,.T.);
#267=EDGE_CURVE('',#223,#224,#124,.T.);
#268=EDGE_CURVE('',#224,#224,#200,.T.);
#269=EDGE_CURVE('',#225,#225,#201,.T.);
#270=EDGE_CURVE('',#225,#226,#125,.T.);
#271=EDGE_CURVE('',#226,#226,#202,.T.);
#272=EDGE_CURVE('',#227,#227,#203,.T.);
#273=EDGE_CURVE('',#227,#228,#126,.T.);
#274=EDGE_CURVE('',#228,#228,#204,.T.);
#275=EDGE_CURVE('',#229,#229,#205,.T.);
#276=EDGE_CURVE('',#229,#230,#127,.T.);
#277=EDGE_CURVE('',#230,#230,#206,.T.);
#278=EDGE_CURVE('',#231,#231,#207,.T.);
#279=EDGE_CURVE('',#231,#232,#128,.T.);
#280=EDGE_CURVE('',#232,#232,#208,.T.);
#281=EDGE_CURVE('',#233,#233,#209,.T.);
#282=EDGE_CURVE('',#233,#234,#129,.T.);
#283=EDGE_CURVE('',#234,#234,#210,.T.);
#284=EDGE_CURVE('',#235,#235,#211,.T.);
#285=EDGE_CURVE('',#235,#236,#130,.T.);
#286=EDGE_CURVE('',#236,#236,#212,.T.);
#287=EDGE_CURVE('',#237,#237,#213,.T.);
#288=EDGE_CURVE('',#237,#238,#131,.T.);
#289=EDGE_CURVE('',#238,#238,#214,.T.);
#290=EDGE_CURVE('',#239,#239,#215,.T.);
#291=EDGE_CURVE('',#239,#240,#132,.T.);
#292=EDGE_CURVE('',#240,#240,#216,.T.);
#293=EDGE_CURVE('',#241,#242,#133,.T.);
#294=EDGE_CURVE('',#243,#241,#134,.T.);
#295=EDGE_CURVE('',#244,#243,#135,.T.);
#296=EDGE_CURVE('',#242,#244,#136,.T.);
#297=EDGE_CURVE('',#245,#246,#137,.T.);
#298=EDGE_CURVE('',#245,#247,#138,.T.);
#299=EDGE_CURVE('',#247,#248,#139,.T.);
#300=EDGE_CURVE('',#246,#248,#140,.T.);
#301=EDGE_CURVE('',#249,#250,#141,.T.);
#302=EDGE_CURVE('',#251,#249,#142,.T.);
#303=EDGE_CURVE('',#252,#251,#143,.T.);
#304=EDGE_CURVE('',#250,#252,#144,.T.);
#305=EDGE_CURVE('',#253,#241,#145,.T.);
#306=EDGE_CURVE('',#254,#253,#146,.T.);
#307=EDGE_CURVE('',#254,#247,#147,.T.);
#308=EDGE_CURVE('',#250,#245,#148,.T.);
#309=EDGE_CURVE('',#243,#252,#149,.T.);
#310=EDGE_CURVE('',#255,#254,#150,.T.);
#311=EDGE_CURVE('',#248,#255,#151,.T.);
#312=EDGE_CURVE('',#251,#244,#152,.T.);
#313=EDGE_CURVE('',#256,#255,#153,.T.);
#314=EDGE_CURVE('',#242,#256,#154,.T.);
#315=EDGE_CURVE('',#246,#249,#155,.T.);
#316=EDGE_CURVE('',#256,#253,#156,.T.);
#317=ORIENTED_EDGE('',*,*,#257,.F.);
#318=ORIENTED_EDGE('',*,*,#258,.T.);
#319=ORIENTED_EDGE('',*,*,#259,.F.);
#320=ORIENTED_EDGE('',*,*,#258,.F.);
#321=ORIENTED_EDGE('',*,*,#260,.F.);
#322=ORIENTED_EDGE('',*,*,#261,.T.);
#323=ORIENTED_EDGE('',*,*,#262,.F.);
#324=ORIENTED_EDGE('',*,*,#261,.F.);
#325=ORIENTED_EDGE('',*,*,#263,.F.);
#326=ORIENTED_EDGE('',*,*,#264,.T.);
#327=ORIENTED_EDGE('',*,*,#265,.F.);
#328=ORIENTED_EDGE('',*,*,#264,.F.);
#329=ORIENTED_EDGE('',*,*,#266,.F.);
#330=ORIENTED_EDGE('',*,*,#267,.T.);
#331=ORIENTED_EDGE('',*,*,#268,.F.);
#332=ORIENTED_EDGE('',*,*,#267,.F.);
#333=ORIENTED_EDGE('',*,*,#269,.F.);
#334=ORIENTED_EDGE('',*,*,#270,.T.);
#335=ORIENTED_EDGE('',*,*,#271,.F.);
#336=ORIENTED_EDGE('',*,*,#270,.F.);
#337=ORIENTED_EDGE('',*,*,#272,.F.);
#338=ORIENTED_EDGE('',*,*,#273,.T.);
#339=ORIENTED_EDGE('',*,*,#274,.F.);
#340=ORIENTED_EDGE('',*,*,#273,.F.);
#341=ORIENTED_EDGE('',*,*,#275,.F.);
#342=ORIENTED_EDGE('',*,*,#276,.T.);
#343=ORIENTED_EDGE('',*,*,#277,.F.);
#344=ORIENTED_EDGE('',*,*,#276,.F.);
#345=ORIENTED_EDGE('',*,*,#278,.F.);
#346=ORIENTED_EDGE('',*,*,#279,.T.);
#347=ORIENTED_EDGE('',*,*,#280,.F.);
#348=ORIENTED_EDGE('',*,*,#279,.F.);
#349=ORIENTED_EDGE('',*,*,#281,.F.);
#350=ORIENTED_EDGE('',*,*,#282,.T.);
#351=ORIENTED_EDGE('',*,*,#283,.F.);
#352=ORIENTED_EDGE('',*,*,#282,.F.);
#353=ORIENTED_EDGE('',*,*,#283,.T.);
#354=ORIENTED_EDGE('',*,*,#284,.F.);
#355=ORIENTED_EDGE('',*,*,#285,.T.);
#356=ORIENTED_EDGE('',*,*,#286,.F.);
#357=ORIENTED_EDGE('',*,*,#285,.F.);
#358=ORIENTED_EDGE('',*,*,#286,.T.);
#359=ORIENTED_EDGE('',*,*,#287,.F.);
#360=ORIENTED_EDGE('',*,*,#288,.T.);
#361=ORIENTED_EDGE('',*,*,#289,.F.);
#362=ORIENTED_EDGE('',*,*,#288,.F.);
#363=ORIENTED_EDGE('',*,*,#289,.T.);
#364=ORIENTED_EDGE('',*,*,#290,.F.);
#365=ORIENTED_EDGE('',*,*,#291,.T.);
#366=ORIENTED_EDGE('',*,*,#292,.F.);
#367=ORIENTED_EDGE('',*,*,#291,.F.);
#368=ORIENTED_EDGE('',*,*,#292,.T.);
#369=ORIENTED_EDGE('',*,*,#293,.F.);
#370=ORIENTED_EDGE('',*,*,#294,.F.);
#371=ORIENTED_EDGE('',*,*,#295,.F.);
#372=ORIENTED_EDGE('',*,*,#296,.F.);
#373=ORIENTED_EDGE('',*,*,#297,.F.);
#374=ORIENTED_EDGE('',*,*,#298,.T.);
#375=ORIENTED_EDGE('',*,*,#299,.T.);
#376=ORIENTED_EDGE('',*,*,#300,.F.);
#377=ORIENTED_EDGE('',*,*,#281,.T.);
#378=ORIENTED_EDGE('',*,*,#284,.T.);
#379=ORIENTED_EDGE('',*,*,#287,.T.);
#380=ORIENTED_EDGE('',*,*,#290,.T.);
#381=ORIENTED_EDGE('',*,*,#301,.F.);
#382=ORIENTED_EDGE('',*,*,#302,.F.);
#383=ORIENTED_EDGE('',*,*,#303,.F.);
#384=ORIENTED_EDGE('',*,*,#304,.F.);
#385=ORIENTED_EDGE('',*,*,#294,.T.);
#386=ORIENTED_EDGE('',*,*,#305,.F.);
#387=ORIENTED_EDGE('',*,*,#306,.F.);
#388=ORIENTED_EDGE('',*,*,#307,.T.);
#389=ORIENTED_EDGE('',*,*,#298,.F.);
#390=ORIENTED_EDGE('',*,*,#308,.F.);
#391=ORIENTED_EDGE('',*,*,#304,.T.);
#392=ORIENTED_EDGE('',*,*,#309,.F.);
#393=ORIENTED_EDGE('',*,*,#307,.F.);
#394=ORIENTED_EDGE('',*,*,#310,.F.);
#395=ORIENTED_EDGE('',*,*,#311,.F.);
#396=ORIENTED_EDGE('',*,*,#299,.F.);
#397=ORIENTED_EDGE('',*,*,#257,.T.);
#398=ORIENTED_EDGE('',*,*,#260,.T.);
#399=ORIENTED_EDGE('',*,*,#263,.T.);
#400=ORIENTED_EDGE('',*,*,#266,.T.);
#401=ORIENTED_EDGE('',*,*,#269,.T.);
#402=ORIENTED_EDGE('',*,*,#272,.T.);
#403=ORIENTED_EDGE('',*,*,#275,.T.);
#404=ORIENTED_EDGE('',*,*,#278,.T.);
#405=ORIENTED_EDGE('',*,*,#295,.T.);
#406=ORIENTED_EDGE('',*,*,#309,.T.);
#407=ORIENTED_EDGE('',*,*,#303,.T.);
#408=ORIENTED_EDGE('',*,*,#312,.T.);
#409=ORIENTED_EDGE('',*,*,#265,.T.);
#410=ORIENTED_EDGE('',*,*,#277,.T.);
#411=ORIENTED_EDGE('',*,*,#311,.T.);
#412=ORIENTED_EDGE('',*,*,#313,.F.);
#413=ORIENTED_EDGE('',*,*,#314,.F.);
#414=ORIENTED_EDGE('',*,*,#296,.T.);
#415=ORIENTED_EDGE('',*,*,#312,.F.);
#416=ORIENTED_EDGE('',*,*,#302,.T.);
#417=ORIENTED_EDGE('',*,*,#315,.F.);
#418=ORIENTED_EDGE('',*,*,#300,.T.);
#419=ORIENTED_EDGE('',*,*,#310,.T.);
#420=ORIENTED_EDGE('',*,*,#306,.T.);
#421=ORIENTED_EDGE('',*,*,#316,.F.);
#422=ORIENTED_EDGE('',*,*,#313,.T.);
#423=ORIENTED_EDGE('',*,*,#297,.T.);
#424=ORIENTED_EDGE('',*,*,#315,.T.);
#425=ORIENTED_EDGE('',*,*,#301,.T.);
#426=ORIENTED_EDGE('',*,*,#308,.T.);
#427=ORIENTED_EDGE('',*,*,#259,.T.);
#428=ORIENTED_EDGE('',*,*,#262,.T.);
#429=ORIENTED_EDGE('',*,*,#280,.T.);
#430=ORIENTED_EDGE('',*,*,#316,.T.);
#431=ORIENTED_EDGE('',*,*,#305,.T.);
#432=ORIENTED_EDGE('',*,*,#293,.T.);
#433=ORIENTED_EDGE('',*,*,#314,.T.);
#434=ORIENTED_EDGE('',*,*,#268,.T.);
#435=ORIENTED_EDGE('',*,*,#271,.T.);
#436=ORIENTED_EDGE('',*,*,#274,.T.);
#437=CYLINDRICAL_SURFACE('',#498,1.4);
#438=CYLINDRICAL_SURFACE('',#501,1.4);
#439=CYLINDRICAL_SURFACE('',#504,1.4);
#440=CYLINDRICAL_SURFACE('',#507,1.4);
#441=CYLINDRICAL_SURFACE('',#510,1.4);
#442=CYLINDRICAL_SURFACE('',#513,1.4);
#443=CYLINDRICAL_SURFACE('',#516,1.4);
#444=CYLINDRICAL_SURFACE('',#519,1.4);
#445=CYLINDRICAL_SURFACE('',#522,1.0065);
#446=CYLINDRICAL_SURFACE('',#526,1.0065);
#447=CYLINDRICAL_SURFACE('',#530,1.0065);
#448=CYLINDRICAL_SURFACE('',#534,1.0065);
#449=ADVANCED_FACE('',(#49),#437,.F.);
#450=ADVANCED_FACE('',(#50),#438,.F.);
#451=ADVANCED_FACE('',(#51),#439,.F.);
#452=ADVANCED_FACE('',(#52),#440,.F.);
#453=ADVANCED_FACE('',(#53),#441,.F.);
#454=ADVANCED_FACE('',(#54),#442,.F.);
#455=ADVANCED_FACE('',(#55),#443,.F.);
#456=ADVANCED_FACE('',(#56),#444,.F.);
#457=ADVANCED_FACE('',(#57),#445,.F.);
#458=ADVANCED_FACE('',(#58),#35,.T.);
#459=ADVANCED_FACE('',(#59),#446,.F.);
#460=ADVANCED_FACE('',(#60),#36,.T.);
#461=ADVANCED_FACE('',(#61),#447,.F.);
#462=ADVANCED_FACE('',(#62),#37,.T.);
#463=ADVANCED_FACE('',(#63),#448,.F.);
#464=ADVANCED_FACE('',(#64),#38,.T.);
#465=ADVANCED_FACE('',(#65),#39,.T.);
#466=ADVANCED_FACE('',(#66,#15,#16,#17,#18),#40,.T.);
#467=ADVANCED_FACE('',(#67),#41,.T.);
#468=ADVANCED_FACE('',(#68),#42,.T.);
#469=ADVANCED_FACE('',(#69,#19,#20,#21,#22,#23,#24,#25,#26),#43,.T.);
#470=ADVANCED_FACE('',(#70,#27,#28),#44,.F.);
#471=ADVANCED_FACE('',(#71),#45,.T.);
#472=ADVANCED_FACE('',(#72),#46,.T.);
#473=ADVANCED_FACE('',(#73,#29,#30,#31),#47,.F.);
#474=ADVANCED_FACE('',(#74,#32,#33,#34),#48,.F.);
#475=CLOSED_SHELL('',(#449,#450,#451,#452,#453,#454,#455,#456,#457,#458,
#459,#460,#461,#462,#463,#464,#465,#466,#467,#468,#469,#470,#471,#472,#473,
#474));
#476=DERIVED_UNIT_ELEMENT(#479,1.);
#477=DERIVED_UNIT_ELEMENT(#818,-3.);
#478=DIMENSIONAL_EXPONENTS(0.,1.,0.,0.,0.,0.,0.);
#479=(
CONVERSION_BASED_UNIT('gram',#481)
MASS_UNIT()
NAMED_UNIT(#478)
);
#480=(
MASS_UNIT()
NAMED_UNIT(*)
SI_UNIT(.KILO.,.GRAM.)
);
#481=MASS_MEASURE_WITH_UNIT(MASS_MEASURE(0.001),#480);
#482=DERIVED_UNIT((#476,#477));
#483=MEASURE_REPRESENTATION_ITEM('density measure',
POSITIVE_RATIO_MEASURE(2.7),#482);
#484=PROPERTY_DEFINITION_REPRESENTATION(#489,#486);
#485=PROPERTY_DEFINITION_REPRESENTATION(#490,#487);
#486=REPRESENTATION('material name',(#488),#815);
#487=REPRESENTATION('density',(#483),#815);
#488=DESCRIPTIVE_REPRESENTATION_ITEM('Aluminium 6061','Aluminium 6061');
#489=PROPERTY_DEFINITION('material property','material name',#825);
#490=PROPERTY_DEFINITION('material property','density of part',#825);
#491=DATE_TIME_ROLE('creation_date');
#492=APPLIED_DATE_AND_TIME_ASSIGNMENT(#493,#491,(#825));
#493=DATE_AND_TIME(#494,#495);
#494=CALENDAR_DATE(2025,12,6);
#495=LOCAL_TIME(0,0,0.,#496);
#496=COORDINATED_UNIVERSAL_TIME_OFFSET(0,0,.BEHIND.);
#497=AXIS2_PLACEMENT_3D('',#686,#548,#549);
#498=AXIS2_PLACEMENT_3D('',#687,#550,#551);
#499=AXIS2_PLACEMENT_3D('',#689,#552,#553);
#500=AXIS2_PLACEMENT_3D('',#692,#555,#556);
#501=AXIS2_PLACEMENT_3D('',#693,#557,#558);
#502=AXIS2_PLACEMENT_3D('',#695,#559,#560);
#503=AXIS2_PLACEMENT_3D('',#698,#562,#563);
#504=AXIS2_PLACEMENT_3D('',#699,#564,#565);
#505=AXIS2_PLACEMENT_3D('',#701,#566,#567);
#506=AXIS2_PLACEMENT_3D('',#704,#569,#570);
#507=AXIS2_PLACEMENT_3D('',#705,#571,#572);
#508=AXIS2_PLACEMENT_3D('',#707,#573,#574);
#509=AXIS2_PLACEMENT_3D('',#710,#576,#577);
#510=AXIS2_PLACEMENT_3D('',#711,#578,#579);
#511=AXIS2_PLACEMENT_3D('',#713,#580,#581);
#512=AXIS2_PLACEMENT_3D('',#716,#583,#584);
#513=AXIS2_PLACEMENT_3D('',#717,#585,#586);
#514=AXIS2_PLACEMENT_3D('',#719,#587,#588);
#515=AXIS2_PLACEMENT_3D('',#722,#590,#591);
#516=AXIS2_PLACEMENT_3D('',#723,#592,#593);
#517=AXIS2_PLACEMENT_3D('',#725,#594,#595);
#518=AXIS2_PLACEMENT_3D('',#728,#597,#598);
#519=AXIS2_PLACEMENT_3D('',#729,#599,#600);
#520=AXIS2_PLACEMENT_3D('',#731,#601,#602);
#521=AXIS2_PLACEMENT_3D('',#734,#604,#605);
#522=AXIS2_PLACEMENT_3D('',#735,#606,#607);
#523=AXIS2_PLACEMENT_3D('',#737,#608,#609);
#524=AXIS2_PLACEMENT_3D('',#740,#611,#612);
#525=AXIS2_PLACEMENT_3D('',#741,#613,#614);
#526=AXIS2_PLACEMENT_3D('',#742,#615,#616);
#527=AXIS2_PLACEMENT_3D('',#744,#617,#618);
#528=AXIS2_PLACEMENT_3D('',#747,#620,#621);
#529=AXIS2_PLACEMENT_3D('',#748,#622,#623);
#530=AXIS2_PLACEMENT_3D('',#749,#624,#625);
#531=AXIS2_PLACEMENT_3D('',#751,#626,#627);
#532=AXIS2_PLACEMENT_3D('',#754,#629,#630);
#533=AXIS2_PLACEMENT_3D('',#755,#631,#632);
#534=AXIS2_PLACEMENT_3D('',#756,#633,#634);
#535=AXIS2_PLACEMENT_3D('',#758,#635,#636);
#536=AXIS2_PLACEMENT_3D('',#761,#638,#639);
#537=AXIS2_PLACEMENT_3D('',#762,#640,#641);
#538=AXIS2_PLACEMENT_3D('',#763,#642,#643);
#539=AXIS2_PLACEMENT_3D('',#772,#648,#649);
#540=AXIS2_PLACEMENT_3D('',#781,#654,#655);
#541=AXIS2_PLACEMENT_3D('',#790,#660,#661);
#542=AXIS2_PLACEMENT_3D('',#798,#667,#668);
#543=AXIS2_PLACEMENT_3D('',#802,#671,#672);
#544=AXIS2_PLACEMENT_3D('',#804,#674,#675);
#545=AXIS2_PLACEMENT_3D('',#809,#679,#680);
#546=AXIS2_PLACEMENT_3D('',#811,#682,#683);
#547=AXIS2_PLACEMENT_3D('',#812,#684,#685);
#548=DIRECTION('axis',(0.,0.,1.));
#549=DIRECTION('refdir',(1.,0.,0.));
#550=DIRECTION('center_axis',(0.,0.,1.));
#551=DIRECTION('ref_axis',(1.,5.55111512312578E-17,0.));
#552=DIRECTION('center_axis',(0.,0.,-1.));
#553=DIRECTION('ref_axis',(1.,5.55111512312578E-17,0.));
#554=DIRECTION('',(0.,0.,-1.));
#555=DIRECTION('center_axis',(0.,0.,1.));
#556=DIRECTION('ref_axis',(1.,5.55111512312578E-17,0.));
#557=DIRECTION('center_axis',(0.,0.,1.));
#558=DIRECTION('ref_axis',(1.,5.55111512312578E-17,0.));
#559=DIRECTION('center_axis',(0.,0.,-1.));
#560=DIRECTION('ref_axis',(1.,5.55111512312578E-17,0.));
#561=DIRECTION('',(0.,0.,-1.));
#562=DIRECTION('center_axis',(0.,0.,1.));
#563=DIRECTION('ref_axis',(1.,5.55111512312578E-17,0.));
#564=DIRECTION('center_axis',(0.,0.,1.));
#565=DIRECTION('ref_axis',(1.,5.55111512312578E-17,0.));
#566=DIRECTION('center_axis',(0.,0.,-1.));
#567=DIRECTION('ref_axis',(1.,5.55111512312578E-17,0.));
#568=DIRECTION('',(0.,0.,-1.));
#569=DIRECTION('center_axis',(0.,0.,1.));
#570=DIRECTION('ref_axis',(1.,5.55111512312578E-17,0.));
#571=DIRECTION('center_axis',(0.,0.,1.));
#572=DIRECTION('ref_axis',(1.,5.55111512312578E-17,0.));
#573=DIRECTION('center_axis',(0.,0.,-1.));
#574=DIRECTION('ref_axis',(1.,5.55111512312578E-17,0.));
#575=DIRECTION('',(0.,0.,-1.));
#576=DIRECTION('center_axis',(0.,0.,1.));
#577=DIRECTION('ref_axis',(1.,5.55111512312578E-17,0.));
#578=DIRECTION('center_axis',(0.,0.,1.));
#579=DIRECTION('ref_axis',(1.,5.55111512312578E-17,0.));
#580=DIRECTION('center_axis',(0.,0.,-1.));
#581=DIRECTION('ref_axis',(1.,5.55111512312578E-17,0.));
#582=DIRECTION('',(0.,0.,-1.));
#583=DIRECTION('center_axis',(0.,0.,1.));
#584=DIRECTION('ref_axis',(1.,5.55111512312578E-17,0.));
#585=DIRECTION('center_axis',(0.,0.,1.));
#586=DIRECTION('ref_axis',(1.,5.55111512312578E-17,0.));
#587=DIRECTION('center_axis',(0.,0.,-1.));
#588=DIRECTION('ref_axis',(1.,5.55111512312578E-17,0.));
#589=DIRECTION('',(0.,0.,-1.));
#590=DIRECTION('center_axis',(0.,0.,1.));
#591=DIRECTION('ref_axis',(1.,5.55111512312578E-17,0.));
#592=DIRECTION('center_axis',(0.,0.,1.));
#593=DIRECTION('ref_axis',(1.,5.55111512312578E-17,0.));
#594=DIRECTION('center_axis',(0.,0.,-1.));
#595=DIRECTION('ref_axis',(1.,5.55111512312578E-17,0.));
#596=DIRECTION('',(0.,0.,-1.));
#597=DIRECTION('center_axis',(0.,0.,1.));
#598=DIRECTION('ref_axis',(1.,5.55111512312578E-17,0.));
#599=DIRECTION('center_axis',(0.,0.,1.));
#600=DIRECTION('ref_axis',(1.,5.55111512312578E-17,0.));
#601=DIRECTION('center_axis',(0.,0.,-1.));
#602=DIRECTION('ref_axis',(1.,5.55111512312578E-17,0.));
#603=DIRECTION('',(0.,0.,-1.));
#604=DIRECTION('center_axis',(0.,0.,1.));
#605=DIRECTION('ref_axis',(1.,5.55111512312578E-17,0.));
#606=DIRECTION('center_axis',(-1.,3.33066907387547E-16,0.));
#607=DIRECTION('ref_axis',(0.,0.,1.));
#608=DIRECTION('center_axis',(1.,-3.33066907387547E-16,0.));
#609=DIRECTION('ref_axis',(0.,0.,1.));
#610=DIRECTION('',(1.,-3.33066907387547E-16,0.));
#611=DIRECTION('center_axis',(-1.,3.33066907387547E-16,0.));
#612=DIRECTION('ref_axis',(0.,0.,1.));
#613=DIRECTION('center_axis',(-1.,3.33066907387547E-16,0.));
#614=DIRECTION('ref_axis',(0.,0.,1.));
#615=DIRECTION('center_axis',(-1.,3.33066907387547E-16,0.));
#616=DIRECTION('ref_axis',(0.,0.,1.));
#617=DIRECTION('center_axis',(1.,-3.33066907387547E-16,0.));
#618=DIRECTION('ref_axis',(0.,0.,1.));
#619=DIRECTION('',(1.,-3.33066907387547E-16,0.));
#620=DIRECTION('center_axis',(-1.,3.33066907387547E-16,0.));
#621=DIRECTION('ref_axis',(0.,0.,1.));
#622=DIRECTION('center_axis',(-1.,3.33066907387547E-16,0.));
#623=DIRECTION('ref_axis',(0.,0.,1.));
#624=DIRECTION('center_axis',(-1.,3.33066907387547E-16,0.));
#625=DIRECTION('ref_axis',(0.,0.,1.));
#626=DIRECTION('center_axis',(1.,-3.33066907387547E-16,0.));
#627=DIRECTION('ref_axis',(0.,0.,1.));
#628=DIRECTION('',(1.,-3.33066907387547E-16,0.));
#629=DIRECTION('center_axis',(-1.,3.33066907387547E-16,0.));
#630=DIRECTION('ref_axis',(0.,0.,1.));
#631=DIRECTION('center_axis',(-1.,3.33066907387547E-16,0.));
#632=DIRECTION('ref_axis',(0.,0.,1.));
#633=DIRECTION('center_axis',(-1.,3.33066907387547E-16,0.));
#634=DIRECTION('ref_axis',(0.,0.,1.));
#635=DIRECTION('center_axis',(1.,-3.33066907387547E-16,0.));
#636=DIRECTION('ref_axis',(0.,0.,1.));
#637=DIRECTION('',(1.,-3.33066907387547E-16,0.));
#638=DIRECTION('center_axis',(-1.,3.33066907387547E-16,0.));
#639=DIRECTION('ref_axis',(0.,0.,1.));
#640=DIRECTION('center_axis',(-1.,3.33066907387547E-16,0.));
#641=DIRECTION('ref_axis',(0.,0.,1.));
#642=DIRECTION('center_axis',(-1.,0.,0.));
#643=DIRECTION('ref_axis',(0.,1.,0.));
#644=DIRECTION('',(0.,1.,0.));
#645=DIRECTION('',(0.,0.,-1.));
#646=DIRECTION('',(0.,-1.,0.));
#647=DIRECTION('',(0.,0.,1.));
#648=DIRECTION('center_axis',(-1.,3.33066907387547E-16,0.));
#649=DIRECTION('ref_axis',(3.33066907387547E-16,1.,0.));
#650=DIRECTION('',(3.33066907387547E-16,1.,0.));
#651=DIRECTION('',(0.,0.,1.));
#652=DIRECTION('',(3.33066907387547E-16,1.,0.));
#653=DIRECTION('',(0.,0.,1.));
#654=DIRECTION('center_axis',(1.,0.,0.));
#655=DIRECTION('ref_axis',(0.,-1.,0.));
#656=DIRECTION('',(0.,-1.,0.));
#657=DIRECTION('',(0.,0.,-1.));
#658=DIRECTION('',(0.,1.,0.));
#659=DIRECTION('',(0.,0.,1.));
#660=DIRECTION('center_axis',(5.55111512312578E-17,-1.,0.));
#661=DIRECTION('ref_axis',(1.,5.55111512312578E-17,0.));
#662=DIRECTION('',(-1.,-5.55111512312578E-17,0.));
#663=DIRECTION('',(0.,0.,-1.));
#664=DIRECTION('',(-1.,-5.55111512312578E-17,0.));
#665=DIRECTION('',(-1.,-5.55111512312578E-17,0.));
#666=DIRECTION('',(-1.,-5.55111512312578E-17,0.));
#667=DIRECTION('center_axis',(0.,0.,1.));
#668=DIRECTION('ref_axis',(1.,0.,0.));
#669=DIRECTION('',(-1.11022302462516E-16,-1.,0.));
#670=DIRECTION('',(1.,-5.55111512312578E-17,0.));
#671=DIRECTION('center_axis',(0.,0.,1.));
#672=DIRECTION('ref_axis',(1.,0.,0.));
#673=DIRECTION('',(1.,-5.55111512312578E-17,0.));
#674=DIRECTION('center_axis',(5.55111512312578E-17,1.,0.));
#675=DIRECTION('ref_axis',(-1.,5.55111512312578E-17,0.));
#676=DIRECTION('',(0.,0.,1.));
#677=DIRECTION('',(1.,-5.55111512312578E-17,0.));
#678=DIRECTION('',(1.,-5.55111512312578E-17,0.));
#679=DIRECTION('center_axis',(1.,-1.11022302462516E-16,0.));
#680=DIRECTION('ref_axis',(1.11022302462516E-16,1.,0.));
#681=DIRECTION('',(-1.11022302462516E-16,-1.,0.));
#682=DIRECTION('center_axis',(0.,0.,1.));
#683=DIRECTION('ref_axis',(1.,0.,0.));
#684=DIRECTION('center_axis',(0.,0.,1.));
#685=DIRECTION('ref_axis',(1.,0.,0.));
#686=CARTESIAN_POINT('',(0.,0.,0.));
#687=CARTESIAN_POINT('Origin',(-16.,-4.44089209850063E-15,-27.7256442146816));
#688=CARTESIAN_POINT('',(-17.4,-4.69005826210502E-15,30.));
#689=CARTESIAN_POINT('Origin',(-16.,-4.44089209850063E-15,30.));
#690=CARTESIAN_POINT('',(-17.4,-4.69005826210502E-15,18.5));
#691=CARTESIAN_POINT('',(-17.4,-4.69005826210502E-15,-27.7256442146816));
#692=CARTESIAN_POINT('Origin',(-16.,-4.44089209850063E-15,18.5));
#693=CARTESIAN_POINT('Origin',(-16.,-16.,-27.7256442146816));
#694=CARTESIAN_POINT('',(-17.4,-16.,30.));
#695=CARTESIAN_POINT('Origin',(-16.,-16.,30.));
#696=CARTESIAN_POINT('',(-17.4,-16.,18.5));
#697=CARTESIAN_POINT('',(-17.4,-16.,-27.7256442146816));
#698=CARTESIAN_POINT('Origin',(-16.,-16.,18.5));
#699=CARTESIAN_POINT('Origin',(-4.44089209850063E-15,-16.,-27.7256442146816));
#700=CARTESIAN_POINT('',(-1.4,-16.,30.));
#701=CARTESIAN_POINT('Origin',(-4.44089209850063E-15,-16.,30.));
#702=CARTESIAN_POINT('',(-1.4,-16.,24.));
#703=CARTESIAN_POINT('',(-1.4,-16.,-27.7256442146816));
#704=CARTESIAN_POINT('Origin',(-4.44089209850063E-15,-16.,24.));
#705=CARTESIAN_POINT('Origin',(16.,-16.,-27.7256442146816));
#706=CARTESIAN_POINT('',(14.6,-16.,30.));
#707=CARTESIAN_POINT('Origin',(16.,-16.,30.));
#708=CARTESIAN_POINT('',(14.6,-16.,18.5));
#709=CARTESIAN_POINT('',(14.6,-16.,-27.7256442146816));
#710=CARTESIAN_POINT('Origin',(16.,-16.,18.5));
#711=CARTESIAN_POINT('Origin',(16.,0.,-27.7256442146816));
#712=CARTESIAN_POINT('',(14.6,-2.4916616360439E-16,30.));
#713=CARTESIAN_POINT('Origin',(16.,0.,30.));
#714=CARTESIAN_POINT('',(14.6,-2.4916616360439E-16,18.5));
#715=CARTESIAN_POINT('',(14.6,-2.4916616360439E-16,-27.7256442146816));
#716=CARTESIAN_POINT('Origin',(16.,0.,18.5));
#717=CARTESIAN_POINT('Origin',(16.,16.,-27.7256442146816));
#718=CARTESIAN_POINT('',(14.6,16.,30.));
#719=CARTESIAN_POINT('Origin',(16.,16.,30.));
#720=CARTESIAN_POINT('',(14.6,16.,18.5));
#721=CARTESIAN_POINT('',(14.6,16.,-27.7256442146816));
#722=CARTESIAN_POINT('Origin',(16.,16.,18.5));
#723=CARTESIAN_POINT('Origin',(-1.33226762955019E-14,16.,-27.7256442146816));
#724=CARTESIAN_POINT('',(-1.40000000000001,16.,30.));
#725=CARTESIAN_POINT('Origin',(-1.33226762955019E-14,16.,30.));
#726=CARTESIAN_POINT('',(-1.40000000000001,16.,24.));
#727=CARTESIAN_POINT('',(-1.40000000000001,16.,-27.7256442146816));
#728=CARTESIAN_POINT('Origin',(-1.33226762955019E-14,16.,24.));
#729=CARTESIAN_POINT('Origin',(-16.,16.,-27.7256442146816));
#730=CARTESIAN_POINT('',(-17.4,16.,30.));
#731=CARTESIAN_POINT('Origin',(-16.,16.,30.));
#732=CARTESIAN_POINT('',(-17.4,16.,18.5));
#733=CARTESIAN_POINT('',(-17.4,16.,-27.7256442146816));
#734=CARTESIAN_POINT('Origin',(-16.,16.,18.5));
#735=CARTESIAN_POINT('Origin',(-17.75,-12.,25.));
#736=CARTESIAN_POINT('',(-20.,-12.,23.9935));
#737=CARTESIAN_POINT('Origin',(-20.,-12.,25.));
#738=CARTESIAN_POINT('',(-15.5,-12.,23.9935));
#739=CARTESIAN_POINT('',(-17.75,-12.,23.9935));
#740=CARTESIAN_POINT('Origin',(-15.5,-12.,25.));
#741=CARTESIAN_POINT('Origin',(-15.5,-12.,25.));
#742=CARTESIAN_POINT('Origin',(-17.75,12.,25.));
#743=CARTESIAN_POINT('',(-20.,12.,23.9935));
#744=CARTESIAN_POINT('Origin',(-20.,12.,25.));
#745=CARTESIAN_POINT('',(-15.5,12.,23.9935));
#746=CARTESIAN_POINT('',(-17.75,12.,23.9935));
#747=CARTESIAN_POINT('Origin',(-15.5,12.,25.));
#748=CARTESIAN_POINT('Origin',(-15.5,12.,25.));
#749=CARTESIAN_POINT('Origin',(-17.75,-6.49999999999999,25.));
#750=CARTESIAN_POINT('',(-20.,-6.49999999999999,23.9935));
#751=CARTESIAN_POINT('Origin',(-20.,-6.49999999999999,25.));
#752=CARTESIAN_POINT('',(-15.5,-6.49999999999999,23.9935));
#753=CARTESIAN_POINT('',(-17.75,-6.49999999999999,23.9935));
#754=CARTESIAN_POINT('Origin',(-15.5,-6.49999999999999,25.));
#755=CARTESIAN_POINT('Origin',(-15.5,-6.49999999999999,25.));
#756=CARTESIAN_POINT('Origin',(-17.75,6.50000000000001,25.));
#757=CARTESIAN_POINT('',(-20.,6.50000000000001,23.9935));
#758=CARTESIAN_POINT('Origin',(-20.,6.50000000000001,25.));
#759=CARTESIAN_POINT('',(-15.5,6.50000000000001,23.9935));
#760=CARTESIAN_POINT('',(-17.75,6.50000000000001,23.9935));
#761=CARTESIAN_POINT('Origin',(-15.5,6.50000000000001,25.));
#762=CARTESIAN_POINT('Origin',(-15.5,6.50000000000001,25.));
#763=CARTESIAN_POINT('Origin',(8.5,-20.,0.));
#764=CARTESIAN_POINT('',(8.5,-20.,18.5));
#765=CARTESIAN_POINT('',(8.5,20.,18.5));
#766=CARTESIAN_POINT('',(8.5,-10.,18.5));
#767=CARTESIAN_POINT('',(8.5,-20.,24.));
#768=CARTESIAN_POINT('',(8.5,-20.,0.));
#769=CARTESIAN_POINT('',(8.5,20.,24.));
#770=CARTESIAN_POINT('',(8.5,-10.,24.));
#771=CARTESIAN_POINT('',(8.5,20.,0.));
#772=CARTESIAN_POINT('Origin',(-20.,-20.,0.));
#773=CARTESIAN_POINT('',(-20.,-20.,18.5));
#774=CARTESIAN_POINT('',(-20.,20.,18.5));
#775=CARTESIAN_POINT('',(-20.,-10.,18.5));
#776=CARTESIAN_POINT('',(-20.,-20.,30.));
#777=CARTESIAN_POINT('',(-20.,-20.,0.));
#778=CARTESIAN_POINT('',(-20.,20.,30.));
#779=CARTESIAN_POINT('',(-20.,10.,30.));
#780=CARTESIAN_POINT('',(-20.,20.,0.));
#781=CARTESIAN_POINT('Origin',(-8.5,20.,0.));
#782=CARTESIAN_POINT('',(-8.5,20.,18.5));
#783=CARTESIAN_POINT('',(-8.5,-20.,18.5));
#784=CARTESIAN_POINT('',(-8.5,10.,18.5));
#785=CARTESIAN_POINT('',(-8.5,20.,24.));
#786=CARTESIAN_POINT('',(-8.5,20.,0.));
#787=CARTESIAN_POINT('',(-8.5,-20.,24.));
#788=CARTESIAN_POINT('',(-8.5,10.,24.));
#789=CARTESIAN_POINT('',(-8.5,-20.,0.));
#790=CARTESIAN_POINT('Origin',(-20.,-20.,0.));
#791=CARTESIAN_POINT('',(20.,-20.,18.5));
#792=CARTESIAN_POINT('',(10.,-20.,18.5));
#793=CARTESIAN_POINT('',(20.,-20.,30.));
#794=CARTESIAN_POINT('',(20.,-20.,0.));
#795=CARTESIAN_POINT('',(-10.,-20.,30.));
#796=CARTESIAN_POINT('',(-4.25,-20.,18.5));
#797=CARTESIAN_POINT('',(-10.,-20.,24.));
#798=CARTESIAN_POINT('Origin',(0.,0.,30.));
#799=CARTESIAN_POINT('',(20.,20.,30.));
#800=CARTESIAN_POINT('',(20.,-10.,30.));
#801=CARTESIAN_POINT('',(10.,20.,30.));
#802=CARTESIAN_POINT('Origin',(0.,0.,24.));
#803=CARTESIAN_POINT('',(10.,20.,24.));
#804=CARTESIAN_POINT('Origin',(20.,20.,0.));
#805=CARTESIAN_POINT('',(20.,20.,18.5));
#806=CARTESIAN_POINT('',(20.,20.,0.));
#807=CARTESIAN_POINT('',(4.25,20.,18.5));
#808=CARTESIAN_POINT('',(-10.,20.,18.5));
#809=CARTESIAN_POINT('Origin',(20.,-20.,0.));
#810=CARTESIAN_POINT('',(20.,10.,18.5));
#811=CARTESIAN_POINT('Origin',(0.,0.,18.5));
#812=CARTESIAN_POINT('Origin',(0.,0.,18.5));
#813=UNCERTAINTY_MEASURE_WITH_UNIT(LENGTH_MEASURE(0.01),#817,
'DISTANCE_ACCURACY_VALUE',
'Maximum model space distance between geometric entities at asserted c
onnectivities');
#814=UNCERTAINTY_MEASURE_WITH_UNIT(LENGTH_MEASURE(0.01),#817,
'DISTANCE_ACCURACY_VALUE',
'Maximum model space distance between geometric entities at asserted c
onnectivities');
#815=(
GEOMETRIC_REPRESENTATION_CONTEXT(3)
GLOBAL_UNCERTAINTY_ASSIGNED_CONTEXT((#813))
GLOBAL_UNIT_ASSIGNED_CONTEXT((#817,#819,#820))
REPRESENTATION_CONTEXT('','3D')
);
#816=(
GEOMETRIC_REPRESENTATION_CONTEXT(3)
GLOBAL_UNCERTAINTY_ASSIGNED_CONTEXT((#814))
GLOBAL_UNIT_ASSIGNED_CONTEXT((#817,#819,#820))
REPRESENTATION_CONTEXT('','3D')
);
#817=(
LENGTH_UNIT()
NAMED_UNIT(*)
SI_UNIT(.MILLI.,.METRE.)
);
#818=(
LENGTH_UNIT()
NAMED_UNIT(*)
SI_UNIT(.CENTI.,.METRE.)
);
#819=(
NAMED_UNIT(*)
PLANE_ANGLE_UNIT()
SI_UNIT($,.RADIAN.)
);
#820=(
NAMED_UNIT(*)
SI_UNIT($,.STERADIAN.)
SOLID_ANGLE_UNIT()
);
#821=SHAPE_DEFINITION_REPRESENTATION(#822,#823);
#822=PRODUCT_DEFINITION_SHAPE('',$,#825);
#823=SHAPE_REPRESENTATION('',(#497),#815);
#824=PRODUCT_DEFINITION_CONTEXT('part definition',#829,'design');
#825=PRODUCT_DEFINITION('BUY - XYZ linear table - LD40 --- Y plate',
'BUY - XYZ linear table - LD40 --- Y plate',#826,#824);
#826=PRODUCT_DEFINITION_FORMATION('',$,#831);
#827=PRODUCT_RELATED_PRODUCT_CATEGORY(
'BUY - XYZ linear table - LD40 --- Y plate',
'BUY - XYZ linear table - LD40 --- Y plate',(#831));
#828=APPLICATION_PROTOCOL_DEFINITION('international standard',
'automotive_design',2009,#829);
#829=APPLICATION_CONTEXT(
'Core Data for Automotive Mechanical Design Process');
#830=PRODUCT_CONTEXT('part definition',#829,'mechanical');
#831=PRODUCT('BUY - XYZ linear table - LD40 --- Y plate',
'BUY - XYZ linear table - LD40 --- Y plate',$,(#830));
#832=PRESENTATION_STYLE_ASSIGNMENT((#833));
#833=SURFACE_STYLE_USAGE(.BOTH.,#836);
#834=SURFACE_STYLE_RENDERING_WITH_PROPERTIES($,#840,(#835));
#835=SURFACE_STYLE_TRANSPARENT(0.);
#836=SURFACE_SIDE_STYLE('',(#837,#834));
#837=SURFACE_STYLE_FILL_AREA(#838);
#838=FILL_AREA_STYLE('',(#839));
#839=FILL_AREA_STYLE_COLOUR('',#840);
#840=COLOUR_RGB('',0.270588235294118,0.270588235294118,0.270588235294118);
ENDSEC;
END-ISO-10303-21;
