ISO-10303-21;
HEADER;
/* Generated by software containing ST-Developer
 * from STEP Tools, Inc. (www.steptools.com) 
 */

FILE_DESCRIPTION(
/* description */ (''),
/* implementation_level */ '2;1');

FILE_NAME(
/* name */ 'BUY - Manual Z stage - LZ40 --- converter.stp',
/* time_stamp */ '2026-09-22T17:44:14+02:00',
/* author */ ('benir'),
/* organization */ ('CADENAS'),
/* preprocessor_version */ 'ST-DEVELOPER v20',
/* originating_system */ 'Autodesk Inventor 2025',
/* authorisation */ ' ');

FILE_SCHEMA (('AUTOMOTIVE_DESIGN { 1 0 10303 214 3 1 1 }'));
ENDSEC;

DATA;
#10=MECHANICAL_DESIGN_GEOMETRIC_PRESENTATION_REPRESENTATION('',(#299,#300,
#301),#555);
#11=SHAPE_REPRESENTATION_RELATIONSHIP('SRR','None',#562,#12);
#12=ADVANCED_BREP_SHAPE_REPRESENTATION('',(#13),#554);
#13=MANIFOLD_SOLID_BREP('Volumenk\X\F6rper5',#319);
#14=CYLINDRICAL_SURFACE('',#353,4.);
#15=CYLINDRICAL_SURFACE('',#358,3.5);
#16=CYLINDRICAL_SURFACE('',#361,6.);
#17=CYLINDRICAL_SURFACE('',#366,3.5);
#18=CYLINDRICAL_SURFACE('',#369,2.5);
#19=FACE_BOUND('',#111,.T.);
#20=FACE_BOUND('',#115,.T.);
#21=FACE_BOUND('',#123,.T.);
#22=FACE_BOUND('',#128,.T.);
#23=LINE('',#477,#52);
#24=LINE('',#481,#53);
#25=LINE('',#483,#54);
#26=LINE('',#485,#55);
#27=LINE('',#489,#56);
#28=LINE('',#491,#57);
#29=LINE('',#493,#58);
#30=LINE('',#496,#59);
#31=LINE('',#501,#60);
#32=LINE('',#504,#61);
#33=LINE('',#507,#62);
#34=LINE('',#508,#63);
#35=LINE('',#511,#64);
#36=LINE('',#513,#65);
#37=LINE('',#514,#66);
#38=LINE('',#517,#67);
#39=LINE('',#518,#68);
#40=LINE('',#523,#69);
#41=LINE('',#524,#70);
#42=LINE('',#527,#71);
#43=LINE('',#531,#72);
#44=LINE('',#532,#73);
#45=LINE('',#535,#74);
#46=LINE('',#536,#75);
#47=LINE('',#539,#76);
#48=LINE('',#540,#77);
#49=LINE('',#543,#78);
#50=LINE('',#546,#79);
#51=LINE('',#549,#80);
#52=VECTOR('',#388,1000.);
#53=VECTOR('',#391,1000.);
#54=VECTOR('',#392,1000.);
#55=VECTOR('',#393,1000.);
#56=VECTOR('',#396,1000.);
#57=VECTOR('',#397,1000.);
#58=VECTOR('',#398,1000.);
#59=VECTOR('',#401,1000.);
#60=VECTOR('',#406,1000.);
#61=VECTOR('',#409,1000.);
#62=VECTOR('',#412,1000.);
#63=VECTOR('',#413,1000.);
#64=VECTOR('',#416,1000.);
#65=VECTOR('',#417,1000.);
#66=VECTOR('',#418,1000.);
#67=VECTOR('',#421,1000.);
#68=VECTOR('',#422,1000.);
#69=VECTOR('',#429,1000.);
#70=VECTOR('',#430,1000.);
#71=VECTOR('',#433,1000.);
#72=VECTOR('',#438,1000.);
#73=VECTOR('',#439,1000.);
#74=VECTOR('',#442,1000.);
#75=VECTOR('',#443,1000.);
#76=VECTOR('',#446,1000.);
#77=VECTOR('',#447,1000.);
#78=VECTOR('',#450,1000.);
#79=VECTOR('',#455,1000.);
#80=VECTOR('',#458,2.5);
#81=PLANE('',#347);
#82=PLANE('',#355);
#83=PLANE('',#356);
#84=PLANE('',#357);
#85=PLANE('',#360);
#86=PLANE('',#363);
#87=PLANE('',#364);
#88=PLANE('',#365);
#89=PLANE('',#368);
#90=PLANE('',#371);
#91=FACE_OUTER_BOUND('',#108,.T.);
#92=FACE_OUTER_BOUND('',#109,.T.);
#93=FACE_OUTER_BOUND('',#110,.T.);
#94=FACE_OUTER_BOUND('',#112,.T.);
#95=FACE_OUTER_BOUND('',#113,.T.);
#96=FACE_OUTER_BOUND('',#114,.T.);
#97=FACE_OUTER_BOUND('',#116,.T.);
#98=FACE_OUTER_BOUND('',#117,.T.);
#99=FACE_OUTER_BOUND('',#118,.T.);
#100=FACE_OUTER_BOUND('',#119,.T.);
#101=FACE_OUTER_BOUND('',#120,.T.);
#102=FACE_OUTER_BOUND('',#121,.T.);
#103=FACE_OUTER_BOUND('',#122,.T.);
#104=FACE_OUTER_BOUND('',#124,.T.);
#105=FACE_OUTER_BOUND('',#125,.T.);
#106=FACE_OUTER_BOUND('',#126,.T.);
#107=FACE_OUTER_BOUND('',#127,.T.);
#108=EDGE_LOOP('',(#213));
#109=EDGE_LOOP('',(#214,#215,#216));
#110=EDGE_LOOP('',(#217,#218,#219,#220,#221,#222,#223,#224,#225,#226,#227,
#228));
#111=EDGE_LOOP('',(#229));
#112=EDGE_LOOP('',(#230,#231,#232,#233));
#113=EDGE_LOOP('',(#234,#235,#236,#237));
#114=EDGE_LOOP('',(#238,#239,#240,#241));
#115=EDGE_LOOP('',(#242));
#116=EDGE_LOOP('',(#243,#244,#245,#246));
#117=EDGE_LOOP('',(#247,#248,#249,#250));
#118=EDGE_LOOP('',(#251,#252,#253,#254));
#119=EDGE_LOOP('',(#255,#256,#257,#258));
#120=EDGE_LOOP('',(#259,#260,#261,#262));
#121=EDGE_LOOP('',(#263,#264,#265,#266));
#122=EDGE_LOOP('',(#267,#268,#269,#270));
#123=EDGE_LOOP('',(#271));
#124=EDGE_LOOP('',(#272,#273,#274,#275));
#125=EDGE_LOOP('',(#276,#277,#278,#279));
#126=EDGE_LOOP('',(#280,#281,#282,#283));
#127=EDGE_LOOP('',(#284,#285,#286,#287,#288,#289,#290,#291,#292,#293,#294,
#295));
#128=EDGE_LOOP('',(#296));
#129=CIRCLE('',#343,1.7320508076);
#130=CIRCLE('',#345,1.7320508076);
#131=CIRCLE('',#346,1.75);
#132=CIRCLE('',#348,4.);
#133=CIRCLE('',#349,3.5);
#134=CIRCLE('',#350,6.);
#135=CIRCLE('',#351,3.5);
#136=CIRCLE('',#352,2.5);
#137=CIRCLE('',#354,4.);
#138=CIRCLE('',#359,3.5);
#139=CIRCLE('',#362,6.);
#140=CIRCLE('',#367,3.5);
#141=CIRCLE('',#370,2.5);
#142=VERTEX_POINT('',#465);
#143=VERTEX_POINT('',#468);
#144=VERTEX_POINT('',#470);
#145=VERTEX_POINT('',#473);
#146=VERTEX_POINT('',#474);
#147=VERTEX_POINT('',#476);
#148=VERTEX_POINT('',#478);
#149=VERTEX_POINT('',#480);
#150=VERTEX_POINT('',#482);
#151=VERTEX_POINT('',#484);
#152=VERTEX_POINT('',#486);
#153=VERTEX_POINT('',#488);
#154=VERTEX_POINT('',#490);
#155=VERTEX_POINT('',#492);
#156=VERTEX_POINT('',#494);
#157=VERTEX_POINT('',#497);
#158=VERTEX_POINT('',#500);
#159=VERTEX_POINT('',#502);
#160=VERTEX_POINT('',#506);
#161=VERTEX_POINT('',#510);
#162=VERTEX_POINT('',#512);
#163=VERTEX_POINT('',#516);
#164=VERTEX_POINT('',#522);
#165=VERTEX_POINT('',#526);
#166=VERTEX_POINT('',#530);
#167=VERTEX_POINT('',#534);
#168=VERTEX_POINT('',#538);
#169=VERTEX_POINT('',#542);
#170=VERTEX_POINT('',#548);
#171=EDGE_CURVE('',#142,#142,#129,.T.);
#172=EDGE_CURVE('',#143,#143,#130,.T.);
#173=EDGE_CURVE('',#143,#144,#131,.T.);
#174=EDGE_CURVE('',#145,#146,#132,.T.);
#175=EDGE_CURVE('',#147,#145,#23,.T.);
#176=EDGE_CURVE('',#147,#148,#133,.T.);
#177=EDGE_CURVE('',#149,#148,#24,.T.);
#178=EDGE_CURVE('',#150,#149,#25,.T.);
#179=EDGE_CURVE('',#151,#150,#26,.T.);
#180=EDGE_CURVE('',#151,#152,#134,.T.);
#181=EDGE_CURVE('',#153,#152,#27,.T.);
#182=EDGE_CURVE('',#154,#153,#28,.T.);
#183=EDGE_CURVE('',#155,#154,#29,.T.);
#184=EDGE_CURVE('',#155,#156,#135,.T.);
#185=EDGE_CURVE('',#146,#156,#30,.T.);
#186=EDGE_CURVE('',#157,#157,#136,.T.);
#187=EDGE_CURVE('',#158,#146,#31,.T.);
#188=EDGE_CURVE('',#159,#158,#137,.T.);
#189=EDGE_CURVE('',#159,#145,#32,.T.);
#190=EDGE_CURVE('',#160,#156,#33,.T.);
#191=EDGE_CURVE('',#158,#160,#34,.T.);
#192=EDGE_CURVE('',#161,#154,#35,.T.);
#193=EDGE_CURVE('',#162,#161,#36,.T.);
#194=EDGE_CURVE('',#162,#155,#37,.T.);
#195=EDGE_CURVE('',#163,#153,#38,.T.);
#196=EDGE_CURVE('',#161,#163,#39,.T.);
#197=EDGE_CURVE('',#162,#160,#138,.T.);
#198=EDGE_CURVE('',#164,#152,#40,.T.);
#199=EDGE_CURVE('',#163,#164,#41,.T.);
#200=EDGE_CURVE('',#165,#151,#42,.T.);
#201=EDGE_CURVE('',#165,#164,#139,.T.);
#202=EDGE_CURVE('',#166,#150,#43,.T.);
#203=EDGE_CURVE('',#165,#166,#44,.T.);
#204=EDGE_CURVE('',#167,#149,#45,.T.);
#205=EDGE_CURVE('',#166,#167,#46,.T.);
#206=EDGE_CURVE('',#168,#148,#47,.T.);
#207=EDGE_CURVE('',#167,#168,#48,.T.);
#208=EDGE_CURVE('',#169,#147,#49,.T.);
#209=EDGE_CURVE('',#169,#168,#140,.T.);
#210=EDGE_CURVE('',#169,#159,#50,.T.);
#211=EDGE_CURVE('',#157,#170,#51,.T.);
#212=EDGE_CURVE('',#170,#170,#141,.T.);
#213=ORIENTED_EDGE('',*,*,#171,.F.);
#214=ORIENTED_EDGE('',*,*,#172,.F.);
#215=ORIENTED_EDGE('',*,*,#173,.T.);
#216=ORIENTED_EDGE('',*,*,#173,.F.);
#217=ORIENTED_EDGE('',*,*,#174,.F.);
#218=ORIENTED_EDGE('',*,*,#175,.F.);
#219=ORIENTED_EDGE('',*,*,#176,.T.);
#220=ORIENTED_EDGE('',*,*,#177,.F.);
#221=ORIENTED_EDGE('',*,*,#178,.F.);
#222=ORIENTED_EDGE('',*,*,#179,.F.);
#223=ORIENTED_EDGE('',*,*,#180,.T.);
#224=ORIENTED_EDGE('',*,*,#181,.F.);
#225=ORIENTED_EDGE('',*,*,#182,.F.);
#226=ORIENTED_EDGE('',*,*,#183,.F.);
#227=ORIENTED_EDGE('',*,*,#184,.T.);
#228=ORIENTED_EDGE('',*,*,#185,.F.);
#229=ORIENTED_EDGE('',*,*,#186,.T.);
#230=ORIENTED_EDGE('',*,*,#174,.T.);
#231=ORIENTED_EDGE('',*,*,#187,.F.);
#232=ORIENTED_EDGE('',*,*,#188,.F.);
#233=ORIENTED_EDGE('',*,*,#189,.T.);
#234=ORIENTED_EDGE('',*,*,#185,.T.);
#235=ORIENTED_EDGE('',*,*,#190,.F.);
#236=ORIENTED_EDGE('',*,*,#191,.F.);
#237=ORIENTED_EDGE('',*,*,#187,.T.);
#238=ORIENTED_EDGE('',*,*,#183,.T.);
#239=ORIENTED_EDGE('',*,*,#192,.F.);
#240=ORIENTED_EDGE('',*,*,#193,.F.);
#241=ORIENTED_EDGE('',*,*,#194,.T.);
#242=ORIENTED_EDGE('',*,*,#172,.T.);
#243=ORIENTED_EDGE('',*,*,#182,.T.);
#244=ORIENTED_EDGE('',*,*,#195,.F.);
#245=ORIENTED_EDGE('',*,*,#196,.F.);
#246=ORIENTED_EDGE('',*,*,#192,.T.);
#247=ORIENTED_EDGE('',*,*,#184,.F.);
#248=ORIENTED_EDGE('',*,*,#194,.F.);
#249=ORIENTED_EDGE('',*,*,#197,.T.);
#250=ORIENTED_EDGE('',*,*,#190,.T.);
#251=ORIENTED_EDGE('',*,*,#181,.T.);
#252=ORIENTED_EDGE('',*,*,#198,.F.);
#253=ORIENTED_EDGE('',*,*,#199,.F.);
#254=ORIENTED_EDGE('',*,*,#195,.T.);
#255=ORIENTED_EDGE('',*,*,#180,.F.);
#256=ORIENTED_EDGE('',*,*,#200,.F.);
#257=ORIENTED_EDGE('',*,*,#201,.T.);
#258=ORIENTED_EDGE('',*,*,#198,.T.);
#259=ORIENTED_EDGE('',*,*,#179,.T.);
#260=ORIENTED_EDGE('',*,*,#202,.F.);
#261=ORIENTED_EDGE('',*,*,#203,.F.);
#262=ORIENTED_EDGE('',*,*,#200,.T.);
#263=ORIENTED_EDGE('',*,*,#178,.T.);
#264=ORIENTED_EDGE('',*,*,#204,.F.);
#265=ORIENTED_EDGE('',*,*,#205,.F.);
#266=ORIENTED_EDGE('',*,*,#202,.T.);
#267=ORIENTED_EDGE('',*,*,#177,.T.);
#268=ORIENTED_EDGE('',*,*,#206,.F.);
#269=ORIENTED_EDGE('',*,*,#207,.F.);
#270=ORIENTED_EDGE('',*,*,#204,.T.);
#271=ORIENTED_EDGE('',*,*,#171,.T.);
#272=ORIENTED_EDGE('',*,*,#176,.F.);
#273=ORIENTED_EDGE('',*,*,#208,.F.);
#274=ORIENTED_EDGE('',*,*,#209,.T.);
#275=ORIENTED_EDGE('',*,*,#206,.T.);
#276=ORIENTED_EDGE('',*,*,#175,.T.);
#277=ORIENTED_EDGE('',*,*,#189,.F.);
#278=ORIENTED_EDGE('',*,*,#210,.F.);
#279=ORIENTED_EDGE('',*,*,#208,.T.);
#280=ORIENTED_EDGE('',*,*,#186,.F.);
#281=ORIENTED_EDGE('',*,*,#211,.T.);
#282=ORIENTED_EDGE('',*,*,#212,.T.);
#283=ORIENTED_EDGE('',*,*,#211,.F.);
#284=ORIENTED_EDGE('',*,*,#188,.T.);
#285=ORIENTED_EDGE('',*,*,#191,.T.);
#286=ORIENTED_EDGE('',*,*,#197,.F.);
#287=ORIENTED_EDGE('',*,*,#193,.T.);
#288=ORIENTED_EDGE('',*,*,#196,.T.);
#289=ORIENTED_EDGE('',*,*,#199,.T.);
#290=ORIENTED_EDGE('',*,*,#201,.F.);
#291=ORIENTED_EDGE('',*,*,#203,.T.);
#292=ORIENTED_EDGE('',*,*,#205,.T.);
#293=ORIENTED_EDGE('',*,*,#207,.T.);
#294=ORIENTED_EDGE('',*,*,#209,.F.);
#295=ORIENTED_EDGE('',*,*,#210,.T.);
#296=ORIENTED_EDGE('',*,*,#212,.F.);
#297=SPHERICAL_SURFACE('',#342,1.75);
#298=SPHERICAL_SURFACE('',#344,1.75);
#299=STYLED_ITEM('',(#573),#302);
#300=STYLED_ITEM('',(#573),#303);
#301=STYLED_ITEM('',(#572),#13);
#302=ADVANCED_FACE('',(#91),#297,.T.);
#303=ADVANCED_FACE('',(#92),#298,.T.);
#304=ADVANCED_FACE('',(#93,#19),#81,.F.);
#305=ADVANCED_FACE('',(#94),#14,.T.);
#306=ADVANCED_FACE('',(#95),#82,.F.);
#307=ADVANCED_FACE('',(#96,#20),#83,.F.);
#308=ADVANCED_FACE('',(#97),#84,.F.);
#309=ADVANCED_FACE('',(#98),#15,.F.);
#310=ADVANCED_FACE('',(#99),#85,.F.);
#311=ADVANCED_FACE('',(#100),#16,.F.);
#312=ADVANCED_FACE('',(#101),#86,.F.);
#313=ADVANCED_FACE('',(#102),#87,.F.);
#314=ADVANCED_FACE('',(#103,#21),#88,.F.);
#315=ADVANCED_FACE('',(#104),#17,.F.);
#316=ADVANCED_FACE('',(#105),#89,.F.);
#317=ADVANCED_FACE('',(#106),#18,.F.);
#318=ADVANCED_FACE('',(#107,#22),#90,.T.);
#319=CLOSED_SHELL('',(#302,#303,#304,#305,#306,#307,#308,#309,#310,#311,
#312,#313,#314,#315,#316,#317,#318));
#320=DERIVED_UNIT_ELEMENT(#323,1.);
#321=DERIVED_UNIT_ELEMENT(#557,-3.);
#322=DIMENSIONAL_EXPONENTS(0.,1.,0.,0.,0.,0.,0.);
#323=(
CONVERSION_BASED_UNIT('gram',#325)
MASS_UNIT()
NAMED_UNIT(#322)
);
#324=(
MASS_UNIT()
NAMED_UNIT(*)
SI_UNIT(.KILO.,.GRAM.)
);
#325=MASS_MEASURE_WITH_UNIT(MASS_MEASURE(0.001),#324);
#326=DERIVED_UNIT((#320,#321));
#327=MEASURE_REPRESENTATION_ITEM('density measure',
POSITIVE_RATIO_MEASURE(2.7),#326);
#328=PROPERTY_DEFINITION_REPRESENTATION(#333,#330);
#329=PROPERTY_DEFINITION_REPRESENTATION(#334,#331);
#330=REPRESENTATION('material name',(#332),#554);
#331=REPRESENTATION('density',(#327),#554);
#332=DESCRIPTIVE_REPRESENTATION_ITEM('EN-AW-6063 T66 (AlMgSi0.5F25)',
'EN-AW-6063 T66 (AlMgSi0.5F25)');
#333=PROPERTY_DEFINITION('material property','material name',#564);
#334=PROPERTY_DEFINITION('material property','density of part',#564);
#335=DATE_TIME_ROLE('creation_date');
#336=APPLIED_DATE_AND_TIME_ASSIGNMENT(#337,#335,(#564));
#337=DATE_AND_TIME(#338,#339);
#338=CALENDAR_DATE(2024,28,6);
#339=LOCAL_TIME(11,35,30.,#340);
#340=COORDINATED_UNIVERSAL_TIME_OFFSET(0,0,.BEHIND.);
#341=AXIS2_PLACEMENT_3D('',#463,#372,#373);
#342=AXIS2_PLACEMENT_3D('',#464,#374,#375);
#343=AXIS2_PLACEMENT_3D('',#466,#376,#377);
#344=AXIS2_PLACEMENT_3D('',#467,#378,#379);
#345=AXIS2_PLACEMENT_3D('',#469,#380,#381);
#346=AXIS2_PLACEMENT_3D('',#471,#382,#383);
#347=AXIS2_PLACEMENT_3D('',#472,#384,#385);
#348=AXIS2_PLACEMENT_3D('',#475,#386,#387);
#349=AXIS2_PLACEMENT_3D('',#479,#389,#390);
#350=AXIS2_PLACEMENT_3D('',#487,#394,#395);
#351=AXIS2_PLACEMENT_3D('',#495,#399,#400);
#352=AXIS2_PLACEMENT_3D('',#498,#402,#403);
#353=AXIS2_PLACEMENT_3D('',#499,#404,#405);
#354=AXIS2_PLACEMENT_3D('',#503,#407,#408);
#355=AXIS2_PLACEMENT_3D('',#505,#410,#411);
#356=AXIS2_PLACEMENT_3D('',#509,#414,#415);
#357=AXIS2_PLACEMENT_3D('',#515,#419,#420);
#358=AXIS2_PLACEMENT_3D('',#519,#423,#424);
#359=AXIS2_PLACEMENT_3D('',#520,#425,#426);
#360=AXIS2_PLACEMENT_3D('',#521,#427,#428);
#361=AXIS2_PLACEMENT_3D('',#525,#431,#432);
#362=AXIS2_PLACEMENT_3D('',#528,#434,#435);
#363=AXIS2_PLACEMENT_3D('',#529,#436,#437);
#364=AXIS2_PLACEMENT_3D('',#533,#440,#441);
#365=AXIS2_PLACEMENT_3D('',#537,#444,#445);
#366=AXIS2_PLACEMENT_3D('',#541,#448,#449);
#367=AXIS2_PLACEMENT_3D('',#544,#451,#452);
#368=AXIS2_PLACEMENT_3D('',#545,#453,#454);
#369=AXIS2_PLACEMENT_3D('',#547,#456,#457);
#370=AXIS2_PLACEMENT_3D('',#550,#459,#460);
#371=AXIS2_PLACEMENT_3D('',#551,#461,#462);
#372=DIRECTION('axis',(0.,0.,1.));
#373=DIRECTION('refdir',(1.,0.,0.));
#374=DIRECTION('center_axis',(0.36909801031905,-0.929390477021644,0.));
#375=DIRECTION('ref_axis',(0.929378068178004,0.369093082272539,0.00516749535835511));
#376=DIRECTION('center_axis',(-0.929390477021644,-0.36909801031905,0.));
#377=DIRECTION('ref_axis',(0.,0.,-1.));
#378=DIRECTION('center_axis',(0.36909801031905,-0.929390477021644,0.));
#379=DIRECTION('ref_axis',(0.929390477021644,0.36909801031905,0.));
#380=DIRECTION('center_axis',(0.36909801031905,-0.929390477021644,0.));
#381=DIRECTION('ref_axis',(0.,0.,-1.));
#382=DIRECTION('center_axis',(0.,0.,-1.));
#383=DIRECTION('ref_axis',(-0.929390477021644,-0.369098010319049,0.));
#384=DIRECTION('center_axis',(0.,0.,1.));
#385=DIRECTION('ref_axis',(0.36909801031905,-0.929390477021644,0.));
#386=DIRECTION('center_axis',(0.,0.,1.));
#387=DIRECTION('ref_axis',(0.36909801031905,-0.929390477021644,0.));
#388=DIRECTION('',(-0.36909801031905,0.929390477021644,0.));
#389=DIRECTION('center_axis',(0.,0.,1.));
#390=DIRECTION('ref_axis',(0.36909801031905,-0.929390477021644,0.));
#391=DIRECTION('',(-0.36909801031905,0.929390477021644,0.));
#392=DIRECTION('',(0.929390477021644,0.36909801031905,0.));
#393=DIRECTION('',(0.36909801031905,-0.929390477021644,0.));
#394=DIRECTION('center_axis',(0.,0.,1.));
#395=DIRECTION('ref_axis',(0.36909801031905,-0.929390477021644,0.));
#396=DIRECTION('',(0.929390477021644,0.36909801031905,0.));
#397=DIRECTION('',(0.36909801031905,-0.929390477021644,0.));
#398=DIRECTION('',(-0.929390477021644,-0.36909801031905,0.));
#399=DIRECTION('center_axis',(0.,0.,1.));
#400=DIRECTION('ref_axis',(0.36909801031905,-0.929390477021644,0.));
#401=DIRECTION('',(-0.929390477021644,-0.36909801031905,0.));
#402=DIRECTION('center_axis',(0.,0.,1.));
#403=DIRECTION('ref_axis',(0.36909801031905,-0.929390477021644,0.));
#404=DIRECTION('center_axis',(0.,0.,1.));
#405=DIRECTION('ref_axis',(-0.36909801031905,0.929390477021644,0.));
#406=DIRECTION('',(0.,0.,-1.));
#407=DIRECTION('center_axis',(0.,0.,1.));
#408=DIRECTION('ref_axis',(0.36909801031905,-0.929390477021644,0.));
#409=DIRECTION('',(0.,0.,-1.));
#410=DIRECTION('center_axis',(0.36909801031905,-0.929390477021644,0.));
#411=DIRECTION('ref_axis',(0.,0.,-1.));
#412=DIRECTION('',(0.,0.,-1.));
#413=DIRECTION('',(-0.929390477021644,-0.36909801031905,0.));
#414=DIRECTION('center_axis',(0.36909801031905,-0.929390477021644,0.));
#415=DIRECTION('ref_axis',(0.,0.,-1.));
#416=DIRECTION('',(0.,0.,-1.));
#417=DIRECTION('',(-0.929390477021644,-0.36909801031905,0.));
#418=DIRECTION('',(0.,0.,-1.));
#419=DIRECTION('center_axis',(0.929390477021644,0.36909801031905,0.));
#420=DIRECTION('ref_axis',(0.,0.,1.));
#421=DIRECTION('',(0.,0.,-1.));
#422=DIRECTION('',(0.36909801031905,-0.929390477021644,0.));
#423=DIRECTION('center_axis',(0.,0.,1.));
#424=DIRECTION('ref_axis',(-0.36909801031905,0.929390477021644,0.));
#425=DIRECTION('center_axis',(0.,0.,1.));
#426=DIRECTION('ref_axis',(0.36909801031905,-0.929390477021644,0.));
#427=DIRECTION('center_axis',(-0.36909801031905,0.929390477021644,0.));
#428=DIRECTION('ref_axis',(0.,0.,1.));
#429=DIRECTION('',(0.,0.,-1.));
#430=DIRECTION('',(0.929390477021644,0.36909801031905,0.));
#431=DIRECTION('center_axis',(0.,0.,1.));
#432=DIRECTION('ref_axis',(-0.36909801031905,0.929390477021644,0.));
#433=DIRECTION('',(0.,0.,-1.));
#434=DIRECTION('center_axis',(0.,0.,1.));
#435=DIRECTION('ref_axis',(0.36909801031905,-0.929390477021644,0.));
#436=DIRECTION('center_axis',(0.929390477021644,0.36909801031905,0.));
#437=DIRECTION('ref_axis',(0.,0.,1.));
#438=DIRECTION('',(0.,0.,-1.));
#439=DIRECTION('',(0.36909801031905,-0.929390477021644,0.));
#440=DIRECTION('center_axis',(-0.36909801031905,0.929390477021644,0.));
#441=DIRECTION('ref_axis',(0.,0.,1.));
#442=DIRECTION('',(0.,0.,-1.));
#443=DIRECTION('',(0.929390477021644,0.36909801031905,0.));
#444=DIRECTION('center_axis',(-0.929390477021644,-0.36909801031905,0.));
#445=DIRECTION('ref_axis',(0.,0.,-1.));
#446=DIRECTION('',(0.,0.,-1.));
#447=DIRECTION('',(-0.36909801031905,0.929390477021644,0.));
#448=DIRECTION('center_axis',(0.,0.,1.));
#449=DIRECTION('ref_axis',(-0.36909801031905,0.929390477021644,0.));
#450=DIRECTION('',(0.,0.,-1.));
#451=DIRECTION('center_axis',(0.,0.,1.));
#452=DIRECTION('ref_axis',(0.36909801031905,-0.929390477021644,0.));
#453=DIRECTION('center_axis',(-0.929390477021644,-0.36909801031905,0.));
#454=DIRECTION('ref_axis',(0.,0.,-1.));
#455=DIRECTION('',(-0.36909801031905,0.929390477021644,0.));
#456=DIRECTION('center_axis',(0.,0.,1.));
#457=DIRECTION('ref_axis',(-0.36909801031905,0.929390477021644,0.));
#458=DIRECTION('',(0.,0.,1.));
#459=DIRECTION('center_axis',(0.,0.,1.));
#460=DIRECTION('ref_axis',(0.36909801031905,-0.929390477021644,0.));
#461=DIRECTION('center_axis',(0.,0.,1.));
#462=DIRECTION('ref_axis',(0.36909801031905,-0.929390477021644,0.));
#463=CARTESIAN_POINT('',(0.,0.,0.));
#464=CARTESIAN_POINT('Origin',(5.21517075856259,12.0455030627876,11.5));
#465=CARTESIAN_POINT('',(5.447518377818,12.1377775653673,9.76794919243112));
#466=CARTESIAN_POINT('Origin',(5.447518377818,12.1377775653673,11.5));
#467=CARTESIAN_POINT('Origin',(-12.639045942372,19.7495244799482,11.5));
#468=CARTESIAN_POINT('',(-14.3410719712528,19.342575592347,11.5));
#469=CARTESIAN_POINT('Origin',(-12.7313204449517,19.9818720992036,11.5));
#470=CARTESIAN_POINT('',(-13.2849674604303,21.3759578147361,11.5));
#471=CARTESIAN_POINT('Origin',(-12.639045942372,19.7495244799482,11.5));
#472=CARTESIAN_POINT('Origin',(1.29497599218203E-15,24.5,6.5));
#473=CARTESIAN_POINT('',(3.71756190808657,25.9763920412762,6.5));
#474=CARTESIAN_POINT('',(-1.4763920412762,28.2175619080866,6.5));
#475=CARTESIAN_POINT('Origin',(1.29497599218203E-15,24.5,6.5));
#476=CARTESIAN_POINT('',(5.93214997000088,20.4000491791463,6.5));
#477=CARTESIAN_POINT('',(5.93214997000088,20.4000491791463,6.5));
#478=CARTESIAN_POINT('',(3.9711263365418,15.8553394734539,6.5));
#479=CARTESIAN_POINT('Origin',(7.22399300611755,17.1471825095706,6.5));
#480=CARTESIAN_POINT('',(6.55481240877515,9.3496061343024,6.5));
#481=CARTESIAN_POINT('',(6.55481240877515,9.3496061343024,6.5));
#482=CARTESIAN_POINT('',(1.90786002366693,7.50411608270715,6.5));
#483=CARTESIAN_POINT('',(1.90786002366693,7.50411608270715,6.5));
#484=CARTESIAN_POINT('',(-0.306728038247373,13.080458944837,6.5));
#485=CARTESIAN_POINT('',(-0.306728038247373,13.080458944837,6.5));
#486=CARTESIAN_POINT('',(-8.09765896229154,16.4422137450526,6.5));
#487=CARTESIAN_POINT('Origin',(-5.88307090037724,10.8658708829227,6.5));
#488=CARTESIAN_POINT('',(-13.6740018244214,14.2276256831383,6.5));
#489=CARTESIAN_POINT('',(-13.6740018244214,14.2276256831383,6.5));
#490=CARTESIAN_POINT('',(-15.5194918760166,18.8745780682465,6.5));
#491=CARTESIAN_POINT('',(-15.5194918760166,18.8745780682465,6.5));
#492=CARTESIAN_POINT('',(-9.01375853686514,21.4582641404798,6.5));
#493=CARTESIAN_POINT('',(-9.01375853686514,21.4582641404798,6.5));
#494=CARTESIAN_POINT('',(-7.05273490340606,26.0029738461723,6.5));
#495=CARTESIAN_POINT('Origin',(-10.3056015729818,24.7111308100556,6.5));
#496=CARTESIAN_POINT('',(-1.4763920412762,28.2175619080866,6.5));
#497=CARTESIAN_POINT('',(0.922745025797625,22.1765238074459,6.5));
#498=CARTESIAN_POINT('Origin',(0.,24.5,6.5));
#499=CARTESIAN_POINT('Origin',(1.29497599218203E-15,24.5,16.5));
#500=CARTESIAN_POINT('',(-1.4763920412762,28.2175619080866,16.5));
#501=CARTESIAN_POINT('',(-1.4763920412762,28.2175619080866,16.5));
#502=CARTESIAN_POINT('',(3.71756190808657,25.9763920412762,16.5));
#503=CARTESIAN_POINT('Origin',(1.29497599218203E-15,24.5,16.5));
#504=CARTESIAN_POINT('',(3.71756190808657,25.9763920412762,16.5));
#505=CARTESIAN_POINT('Origin',(-1.4763920412762,28.2175619080866,16.5));
#506=CARTESIAN_POINT('',(-7.05273490340606,26.0029738461723,16.5));
#507=CARTESIAN_POINT('',(-7.05273490340606,26.0029738461723,16.5));
#508=CARTESIAN_POINT('',(-1.4763920412762,28.2175619080866,16.5));
#509=CARTESIAN_POINT('Origin',(-9.01375853686514,21.4582641404798,16.5));
#510=CARTESIAN_POINT('',(-15.5194918760166,18.8745780682465,16.5));
#511=CARTESIAN_POINT('',(-15.5194918760166,18.8745780682465,16.5));
#512=CARTESIAN_POINT('',(-9.01375853686514,21.4582641404798,16.5));
#513=CARTESIAN_POINT('',(-9.01375853686514,21.4582641404798,16.5));
#514=CARTESIAN_POINT('',(-9.01375853686514,21.4582641404798,16.5));
#515=CARTESIAN_POINT('Origin',(-15.5194918760166,18.8745780682465,16.5));
#516=CARTESIAN_POINT('',(-13.6740018244214,14.2276256831383,16.5));
#517=CARTESIAN_POINT('',(-13.6740018244214,14.2276256831383,16.5));
#518=CARTESIAN_POINT('',(-15.5194918760166,18.8745780682465,16.5));
#519=CARTESIAN_POINT('Origin',(-10.3056015729818,24.7111308100556,16.5));
#520=CARTESIAN_POINT('Origin',(-10.3056015729818,24.7111308100556,16.5));
#521=CARTESIAN_POINT('Origin',(-13.6740018244214,14.2276256831383,16.5));
#522=CARTESIAN_POINT('',(-8.09765896229154,16.4422137450526,16.5));
#523=CARTESIAN_POINT('',(-8.09765896229154,16.4422137450526,16.5));
#524=CARTESIAN_POINT('',(-13.6740018244214,14.2276256831383,16.5));
#525=CARTESIAN_POINT('Origin',(-5.88307090037724,10.8658708829227,16.5));
#526=CARTESIAN_POINT('',(-0.306728038247373,13.080458944837,16.5));
#527=CARTESIAN_POINT('',(-0.306728038247373,13.080458944837,16.5));
#528=CARTESIAN_POINT('Origin',(-5.88307090037724,10.8658708829227,16.5));
#529=CARTESIAN_POINT('Origin',(-0.306728038247373,13.080458944837,16.5));
#530=CARTESIAN_POINT('',(1.90786002366693,7.50411608270715,16.5));
#531=CARTESIAN_POINT('',(1.90786002366693,7.50411608270715,16.5));
#532=CARTESIAN_POINT('',(-0.306728038247373,13.080458944837,16.5));
#533=CARTESIAN_POINT('Origin',(1.90786002366693,7.50411608270715,16.5));
#534=CARTESIAN_POINT('',(6.55481240877515,9.3496061343024,16.5));
#535=CARTESIAN_POINT('',(6.55481240877515,9.3496061343024,16.5));
#536=CARTESIAN_POINT('',(1.90786002366693,7.50411608270715,16.5));
#537=CARTESIAN_POINT('Origin',(6.55481240877515,9.3496061343024,16.5));
#538=CARTESIAN_POINT('',(3.9711263365418,15.8553394734539,16.5));
#539=CARTESIAN_POINT('',(3.9711263365418,15.8553394734539,16.5));
#540=CARTESIAN_POINT('',(6.55481240877515,9.3496061343024,16.5));
#541=CARTESIAN_POINT('Origin',(7.22399300611755,17.1471825095706,16.5));
#542=CARTESIAN_POINT('',(5.93214997000088,20.4000491791463,16.5));
#543=CARTESIAN_POINT('',(5.93214997000088,20.4000491791463,16.5));
#544=CARTESIAN_POINT('Origin',(7.22399300611755,17.1471825095706,16.5));
#545=CARTESIAN_POINT('Origin',(5.93214997000088,20.4000491791463,16.5));
#546=CARTESIAN_POINT('',(5.93214997000088,20.4000491791463,16.5));
#547=CARTESIAN_POINT('Origin',(0.,24.5,16.5));
#548=CARTESIAN_POINT('',(0.922745025797625,22.1765238074459,16.5));
#549=CARTESIAN_POINT('',(0.922745025797625,22.1765238074459,16.5));
#550=CARTESIAN_POINT('Origin',(0.,24.5,16.5));
#551=CARTESIAN_POINT('Origin',(1.29497599218203E-15,24.5,16.5));
#552=UNCERTAINTY_MEASURE_WITH_UNIT(LENGTH_MEASURE(0.01),#556,
'DISTANCE_ACCURACY_VALUE',
'Maximum model space distance between geometric entities at asserted c
onnectivities');
#553=UNCERTAINTY_MEASURE_WITH_UNIT(LENGTH_MEASURE(0.01),#556,
'DISTANCE_ACCURACY_VALUE',
'Maximum model space distance between geometric entities at asserted c
onnectivities');
#554=(
GEOMETRIC_REPRESENTATION_CONTEXT(3)
GLOBAL_UNCERTAINTY_ASSIGNED_CONTEXT((#552))
GLOBAL_UNIT_ASSIGNED_CONTEXT((#556,#558,#559))
REPRESENTATION_CONTEXT('','3D')
);
#555=(
GEOMETRIC_REPRESENTATION_CONTEXT(3)
GLOBAL_UNCERTAINTY_ASSIGNED_CONTEXT((#553))
GLOBAL_UNIT_ASSIGNED_CONTEXT((#556,#558,#559))
REPRESENTATION_CONTEXT('','3D')
);
#556=(
LENGTH_UNIT()
NAMED_UNIT(*)
SI_UNIT(.MILLI.,.METRE.)
);
#557=(
LENGTH_UNIT()
NAMED_UNIT(*)
SI_UNIT(.CENTI.,.METRE.)
);
#558=(
NAMED_UNIT(*)
PLANE_ANGLE_UNIT()
SI_UNIT($,.RADIAN.)
);
#559=(
NAMED_UNIT(*)
SI_UNIT($,.STERADIAN.)
SOLID_ANGLE_UNIT()
);
#560=SHAPE_DEFINITION_REPRESENTATION(#561,#562);
#561=PRODUCT_DEFINITION_SHAPE('',$,#564);
#562=SHAPE_REPRESENTATION('',(#341),#554);
#563=PRODUCT_DEFINITION_CONTEXT('part definition',#568,'design');
#564=PRODUCT_DEFINITION('BUY - Manual Z stage - LZ40-10 --- converter',
'BUY - Manual Z stage - LZ40 --- converter',#565,#563);
#565=PRODUCT_DEFINITION_FORMATION('',$,#570);
#566=PRODUCT_RELATED_PRODUCT_CATEGORY(
'BUY - Manual Z stage - LZ40 --- converter',
'BUY - Manual Z stage - LZ40 --- converter',(#570));
#567=APPLICATION_PROTOCOL_DEFINITION('international standard',
'automotive_design',2009,#568);
#568=APPLICATION_CONTEXT(
'Core Data for Automotive Mechanical Design Process');
#569=PRODUCT_CONTEXT('part definition',#568,'mechanical');
#570=PRODUCT('BUY - Manual Z stage - LZ40-10 --- converter',
'BUY - Manual Z stage - LZ40 --- converter',$,(#569));
#571=PRESENTATION_STYLE_ASSIGNMENT((#574));
#572=PRESENTATION_STYLE_ASSIGNMENT((#575));
#573=PRESENTATION_STYLE_ASSIGNMENT((#576));
#574=SURFACE_STYLE_USAGE(.BOTH.,#583);
#575=SURFACE_STYLE_USAGE(.BOTH.,#584);
#576=SURFACE_STYLE_USAGE(.BOTH.,#585);
#577=SURFACE_STYLE_RENDERING_WITH_PROPERTIES($,#595,(#580));
#578=SURFACE_STYLE_RENDERING_WITH_PROPERTIES($,#596,(#581));
#579=SURFACE_STYLE_RENDERING_WITH_PROPERTIES($,#597,(#582));
#580=SURFACE_STYLE_TRANSPARENT(0.);
#581=SURFACE_STYLE_TRANSPARENT(0.);
#582=SURFACE_STYLE_TRANSPARENT(0.);
#583=SURFACE_SIDE_STYLE('',(#586,#577));
#584=SURFACE_SIDE_STYLE('',(#587,#578));
#585=SURFACE_SIDE_STYLE('',(#588,#579));
#586=SURFACE_STYLE_FILL_AREA(#589);
#587=SURFACE_STYLE_FILL_AREA(#590);
#588=SURFACE_STYLE_FILL_AREA(#591);
#589=FILL_AREA_STYLE('',(#592));
#590=FILL_AREA_STYLE('',(#593));
#591=FILL_AREA_STYLE('',(#594));
#592=FILL_AREA_STYLE_COLOUR('',#595);
#593=FILL_AREA_STYLE_COLOUR('',#596);
#594=FILL_AREA_STYLE_COLOUR('',#597);
#595=COLOUR_RGB('',0.996078431372549,0.996078431372549,1.);
#596=COLOUR_RGB('',0.0196078431372549,0.0196078431372549,0.0196078431372549);
#597=COLOUR_RGB('',0.858823529411765,0.858823529411765,0.858823529411765);
ENDSEC;
END-ISO-10303-21;
