ISO-10303-21;
HEADER;
/* Generated by software containing ST-Developer
 * from STEP Tools, Inc. (www.steptools.com) 
 */

FILE_DESCRIPTION(
/* description */ ('Motor holder Z stage'),
/* implementation_level */ '2;1');

FILE_NAME(
/* name */ 'PRT - 3024 - MOTHOLZST.stp',
/* time_stamp */ '2026-09-22T17:09:16+02:00',
/* author */ ('benir'),
/* organization */ (''),
/* preprocessor_version */ 'ST-DEVELOPER v20',
/* originating_system */ 'Autodesk Inventor 2025',
/* authorisation */ '');

FILE_SCHEMA (('AUTOMOTIVE_DESIGN { 1 0 10303 214 3 1 1 }'));
ENDSEC;

DATA;
#10=MECHANICAL_DESIGN_GEOMETRIC_PRESENTATION_REPRESENTATION('',(#13),#1102);
#11=SHAPE_REPRESENTATION_RELATIONSHIP('SRR','None',#1109,#12);
#12=ADVANCED_BREP_SHAPE_REPRESENTATION('',(#14),#1101);
#13=STYLED_ITEM('',(#1118),#14);
#14=MANIFOLD_SOLID_BREP('Motor holder self Z',#657);
#15=B_SPLINE_CURVE_WITH_KNOTS('',3,(#1058,#1059,#1060,#1061,#1062,#1063,
#1064,#1065,#1066,#1067,#1068,#1069),.UNSPECIFIED.,.F.,.F.,(4,2,2,2,2,4),
(3.38696067647332,3.468595928448,3.60861679059729,3.76744958041606,3.92628237023484,
4.051037552277),.UNSPECIFIED.);
#16=CYLINDRICAL_SURFACE('',#712,5.2);
#17=CYLINDRICAL_SURFACE('',#714,1.0065);
#18=CYLINDRICAL_SURFACE('',#718,2.75);
#19=CYLINDRICAL_SURFACE('',#719,1.45);
#20=CYLINDRICAL_SURFACE('',#724,4.5);
#21=CYLINDRICAL_SURFACE('',#725,1.7);
#22=CYLINDRICAL_SURFACE('',#726,1.7);
#23=CYLINDRICAL_SURFACE('',#727,4.5);
#24=FACE_BOUND('',#85,.T.);
#25=FACE_BOUND('',#86,.T.);
#26=FACE_BOUND('',#87,.T.);
#27=FACE_BOUND('',#91,.T.);
#28=FACE_BOUND('',#96,.T.);
#29=FACE_BOUND('',#101,.T.);
#30=FACE_BOUND('',#104,.T.);
#31=FACE_BOUND('',#105,.T.);
#32=FACE_BOUND('',#112,.T.);
#33=CIRCLE('',#682,5.2);
#34=CIRCLE('',#683,1.7);
#35=CIRCLE('',#684,1.7);
#36=CIRCLE('',#685,1.0065);
#37=CIRCLE('',#687,4.5);
#38=CIRCLE('',#688,4.5);
#39=CIRCLE('',#691,1.0065);
#40=CIRCLE('',#695,4.5);
#41=CIRCLE('',#696,4.5);
#42=CIRCLE('',#698,2.75);
#43=CIRCLE('',#701,4.5);
#44=CIRCLE('',#704,1.45);
#45=CIRCLE('',#707,5.2);
#46=CIRCLE('',#708,1.7);
#47=CIRCLE('',#709,1.7);
#48=CIRCLE('',#716,2.75);
#49=CIRCLE('',#717,1.45);
#50=FACE_OUTER_BOUND('',#83,.T.);
#51=FACE_OUTER_BOUND('',#84,.T.);
#52=FACE_OUTER_BOUND('',#88,.T.);
#53=FACE_OUTER_BOUND('',#89,.T.);
#54=FACE_OUTER_BOUND('',#90,.T.);
#55=FACE_OUTER_BOUND('',#92,.T.);
#56=FACE_OUTER_BOUND('',#93,.T.);
#57=FACE_OUTER_BOUND('',#94,.T.);
#58=FACE_OUTER_BOUND('',#95,.T.);
#59=FACE_OUTER_BOUND('',#97,.T.);
#60=FACE_OUTER_BOUND('',#98,.T.);
#61=FACE_OUTER_BOUND('',#99,.T.);
#62=FACE_OUTER_BOUND('',#100,.T.);
#63=FACE_OUTER_BOUND('',#102,.T.);
#64=FACE_OUTER_BOUND('',#103,.T.);
#65=FACE_OUTER_BOUND('',#106,.T.);
#66=FACE_OUTER_BOUND('',#107,.T.);
#67=FACE_OUTER_BOUND('',#108,.T.);
#68=FACE_OUTER_BOUND('',#109,.T.);
#69=FACE_OUTER_BOUND('',#110,.T.);
#70=FACE_OUTER_BOUND('',#111,.T.);
#71=FACE_OUTER_BOUND('',#113,.T.);
#72=FACE_OUTER_BOUND('',#114,.T.);
#73=FACE_OUTER_BOUND('',#115,.T.);
#74=FACE_OUTER_BOUND('',#116,.T.);
#75=FACE_OUTER_BOUND('',#117,.T.);
#76=FACE_OUTER_BOUND('',#118,.T.);
#77=FACE_OUTER_BOUND('',#119,.T.);
#78=FACE_OUTER_BOUND('',#120,.T.);
#79=FACE_OUTER_BOUND('',#121,.T.);
#80=FACE_OUTER_BOUND('',#122,.T.);
#81=FACE_OUTER_BOUND('',#123,.T.);
#82=FACE_OUTER_BOUND('',#124,.T.);
#83=EDGE_LOOP('',(#419,#420,#421,#422));
#84=EDGE_LOOP('',(#423,#424,#425,#426,#427,#428,#429,#430,#431,#432));
#85=EDGE_LOOP('',(#433));
#86=EDGE_LOOP('',(#434));
#87=EDGE_LOOP('',(#435));
#88=EDGE_LOOP('',(#436,#437,#438,#439,#440,#441,#442,#443,#444,#445,#446,
#447,#448));
#89=EDGE_LOOP('',(#449,#450,#451,#452));
#90=EDGE_LOOP('',(#453,#454,#455,#456,#457,#458));
#91=EDGE_LOOP('',(#459));
#92=EDGE_LOOP('',(#460,#461,#462,#463,#464,#465));
#93=EDGE_LOOP('',(#466,#467,#468,#469));
#94=EDGE_LOOP('',(#470,#471,#472,#473,#474,#475,#476,#477,#478,#479,#480,
#481,#482,#483));
#95=EDGE_LOOP('',(#484,#485,#486,#487,#488,#489));
#96=EDGE_LOOP('',(#490));
#97=EDGE_LOOP('',(#491,#492,#493,#494));
#98=EDGE_LOOP('',(#495,#496,#497,#498));
#99=EDGE_LOOP('',(#499,#500,#501,#502));
#100=EDGE_LOOP('',(#503,#504,#505,#506,#507,#508));
#101=EDGE_LOOP('',(#509));
#102=EDGE_LOOP('',(#510,#511,#512,#513));
#103=EDGE_LOOP('',(#514,#515,#516,#517,#518,#519,#520,#521,#522));
#104=EDGE_LOOP('',(#523));
#105=EDGE_LOOP('',(#524));
#106=EDGE_LOOP('',(#525,#526,#527,#528));
#107=EDGE_LOOP('',(#529,#530,#531,#532));
#108=EDGE_LOOP('',(#533,#534,#535,#536,#537));
#109=EDGE_LOOP('',(#538,#539,#540,#541));
#110=EDGE_LOOP('',(#542,#543,#544,#545));
#111=EDGE_LOOP('',(#546));
#112=EDGE_LOOP('',(#547));
#113=EDGE_LOOP('',(#548,#549,#550,#551));
#114=EDGE_LOOP('',(#552,#553,#554,#555));
#115=EDGE_LOOP('',(#556,#557,#558,#559));
#116=EDGE_LOOP('',(#560,#561,#562,#563));
#117=EDGE_LOOP('',(#564,#565,#566,#567));
#118=EDGE_LOOP('',(#568,#569,#570,#571));
#119=EDGE_LOOP('',(#572,#573,#574,#575));
#120=EDGE_LOOP('',(#576,#577,#578,#579));
#121=EDGE_LOOP('',(#580,#581,#582,#583));
#122=EDGE_LOOP('',(#584,#585,#586,#587,#588,#589,#590));
#123=EDGE_LOOP('',(#591,#592,#593,#594));
#124=EDGE_LOOP('',(#595,#596,#597,#598));
#125=LINE('',#908,#197);
#126=LINE('',#910,#198);
#127=LINE('',#912,#199);
#128=LINE('',#913,#200);
#129=LINE('',#916,#201);
#130=LINE('',#920,#202);
#131=LINE('',#922,#203);
#132=LINE('',#924,#204);
#133=LINE('',#926,#205);
#134=LINE('',#928,#206);
#135=LINE('',#930,#207);
#136=LINE('',#931,#208);
#137=LINE('',#940,#209);
#138=LINE('',#942,#210);
#139=LINE('',#944,#211);
#140=LINE('',#946,#212);
#141=LINE('',#948,#213);
#142=LINE('',#952,#214);
#143=LINE('',#954,#215);
#144=LINE('',#956,#216);
#145=LINE('',#959,#217);
#146=LINE('',#962,#218);
#147=LINE('',#964,#219);
#148=LINE('',#965,#220);
#149=LINE('',#968,#221);
#150=LINE('',#970,#222);
#151=LINE('',#972,#223);
#152=LINE('',#974,#224);
#153=LINE('',#975,#225);
#154=LINE('',#980,#226);
#155=LINE('',#982,#227);
#156=LINE('',#983,#228);
#157=LINE('',#987,#229);
#158=LINE('',#989,#230);
#159=LINE('',#991,#231);
#160=LINE('',#992,#232);
#161=LINE('',#997,#233);
#162=LINE('',#999,#234);
#163=LINE('',#1001,#235);
#164=LINE('',#1004,#236);
#165=LINE('',#1006,#237);
#166=LINE('',#1008,#238);
#167=LINE('',#1009,#239);
#168=LINE('',#1012,#240);
#169=LINE('',#1013,#241);
#170=LINE('',#1014,#242);
#171=LINE('',#1019,#243);
#172=LINE('',#1020,#244);
#173=LINE('',#1023,#245);
#174=LINE('',#1027,#246);
#175=LINE('',#1028,#247);
#176=LINE('',#1030,#248);
#177=LINE('',#1031,#249);
#178=LINE('',#1036,#250);
#179=LINE('',#1037,#251);
#180=LINE('',#1040,#252);
#181=LINE('',#1042,#253);
#182=LINE('',#1044,#254);
#183=LINE('',#1047,#255);
#184=LINE('',#1053,#256);
#185=LINE('',#1054,#257);
#186=LINE('',#1056,#258);
#187=LINE('',#1071,#259);
#188=LINE('',#1073,#260);
#189=LINE('',#1080,#261);
#190=LINE('',#1082,#262);
#191=LINE('',#1084,#263);
#192=LINE('',#1085,#264);
#193=LINE('',#1087,#265);
#194=LINE('',#1088,#266);
#195=LINE('',#1093,#267);
#196=LINE('',#1095,#268);
#197=VECTOR('',#734,10.);
#198=VECTOR('',#735,10.);
#199=VECTOR('',#736,10.);
#200=VECTOR('',#737,10.);
#201=VECTOR('',#740,10.);
#202=VECTOR('',#743,10.);
#203=VECTOR('',#744,10.);
#204=VECTOR('',#745,10.);
#205=VECTOR('',#746,10.);
#206=VECTOR('',#747,10.);
#207=VECTOR('',#748,10.);
#208=VECTOR('',#749,10.);
#209=VECTOR('',#758,10.);
#210=VECTOR('',#759,10.);
#211=VECTOR('',#760,10.);
#212=VECTOR('',#761,10.);
#213=VECTOR('',#762,10.);
#214=VECTOR('',#765,10.);
#215=VECTOR('',#766,10.);
#216=VECTOR('',#767,10.);
#217=VECTOR('',#770,10.);
#218=VECTOR('',#773,10.);
#219=VECTOR('',#774,10.);
#220=VECTOR('',#775,10.);
#221=VECTOR('',#778,10.);
#222=VECTOR('',#779,10.);
#223=VECTOR('',#780,10.);
#224=VECTOR('',#781,10.);
#225=VECTOR('',#782,10.);
#226=VECTOR('',#787,10.);
#227=VECTOR('',#788,10.);
#228=VECTOR('',#789,10.);
#229=VECTOR('',#792,10.);
#230=VECTOR('',#793,10.);
#231=VECTOR('',#794,10.);
#232=VECTOR('',#795,10.);
#233=VECTOR('',#800,10.);
#234=VECTOR('',#801,10.);
#235=VECTOR('',#802,10.);
#236=VECTOR('',#805,10.);
#237=VECTOR('',#806,10.);
#238=VECTOR('',#807,10.);
#239=VECTOR('',#808,10.);
#240=VECTOR('',#811,10.);
#241=VECTOR('',#812,10.);
#242=VECTOR('',#813,10.);
#243=VECTOR('',#818,10.);
#244=VECTOR('',#819,10.);
#245=VECTOR('',#822,10.);
#246=VECTOR('',#827,10.);
#247=VECTOR('',#828,10.);
#248=VECTOR('',#831,10.);
#249=VECTOR('',#832,10.);
#250=VECTOR('',#837,10.);
#251=VECTOR('',#838,10.);
#252=VECTOR('',#841,10.);
#253=VECTOR('',#842,10.);
#254=VECTOR('',#843,10.);
#255=VECTOR('',#846,10.);
#256=VECTOR('',#853,10.);
#257=VECTOR('',#854,10.);
#258=VECTOR('',#857,10.);
#259=VECTOR('',#862,10.);
#260=VECTOR('',#865,1.0065);
#261=VECTOR('',#874,2.75);
#262=VECTOR('',#877,1.45);
#263=VECTOR('',#880,10.);
#264=VECTOR('',#881,10.);
#265=VECTOR('',#884,10.);
#266=VECTOR('',#885,10.);
#267=VECTOR('',#894,1.7);
#268=VECTOR('',#897,1.7);
#269=VERTEX_POINT('',#906);
#270=VERTEX_POINT('',#907);
#271=VERTEX_POINT('',#909);
#272=VERTEX_POINT('',#911);
#273=VERTEX_POINT('',#915);
#274=VERTEX_POINT('',#917);
#275=VERTEX_POINT('',#919);
#276=VERTEX_POINT('',#921);
#277=VERTEX_POINT('',#923);
#278=VERTEX_POINT('',#925);
#279=VERTEX_POINT('',#927);
#280=VERTEX_POINT('',#929);
#281=VERTEX_POINT('',#932);
#282=VERTEX_POINT('',#934);
#283=VERTEX_POINT('',#936);
#284=VERTEX_POINT('',#939);
#285=VERTEX_POINT('',#941);
#286=VERTEX_POINT('',#943);
#287=VERTEX_POINT('',#945);
#288=VERTEX_POINT('',#947);
#289=VERTEX_POINT('',#949);
#290=VERTEX_POINT('',#951);
#291=VERTEX_POINT('',#953);
#292=VERTEX_POINT('',#955);
#293=VERTEX_POINT('',#957);
#294=VERTEX_POINT('',#961);
#295=VERTEX_POINT('',#963);
#296=VERTEX_POINT('',#967);
#297=VERTEX_POINT('',#969);
#298=VERTEX_POINT('',#971);
#299=VERTEX_POINT('',#973);
#300=VERTEX_POINT('',#976);
#301=VERTEX_POINT('',#979);
#302=VERTEX_POINT('',#981);
#303=VERTEX_POINT('',#985);
#304=VERTEX_POINT('',#986);
#305=VERTEX_POINT('',#988);
#306=VERTEX_POINT('',#990);
#307=VERTEX_POINT('',#994);
#308=VERTEX_POINT('',#996);
#309=VERTEX_POINT('',#998);
#310=VERTEX_POINT('',#1000);
#311=VERTEX_POINT('',#1002);
#312=VERTEX_POINT('',#1005);
#313=VERTEX_POINT('',#1007);
#314=VERTEX_POINT('',#1011);
#315=VERTEX_POINT('',#1015);
#316=VERTEX_POINT('',#1018);
#317=VERTEX_POINT('',#1022);
#318=VERTEX_POINT('',#1026);
#319=VERTEX_POINT('',#1032);
#320=VERTEX_POINT('',#1035);
#321=VERTEX_POINT('',#1039);
#322=VERTEX_POINT('',#1041);
#323=VERTEX_POINT('',#1043);
#324=VERTEX_POINT('',#1045);
#325=VERTEX_POINT('',#1048);
#326=VERTEX_POINT('',#1050);
#327=VERTEX_POINT('',#1075);
#328=VERTEX_POINT('',#1077);
#329=EDGE_CURVE('',#269,#270,#125,.T.);
#330=EDGE_CURVE('',#270,#271,#126,.T.);
#331=EDGE_CURVE('',#271,#272,#127,.T.);
#332=EDGE_CURVE('',#272,#269,#128,.T.);
#333=EDGE_CURVE('',#270,#273,#129,.T.);
#334=EDGE_CURVE('',#274,#273,#33,.T.);
#335=EDGE_CURVE('',#274,#275,#130,.T.);
#336=EDGE_CURVE('',#276,#275,#131,.T.);
#337=EDGE_CURVE('',#276,#277,#132,.T.);
#338=EDGE_CURVE('',#278,#277,#133,.T.);
#339=EDGE_CURVE('',#278,#279,#134,.T.);
#340=EDGE_CURVE('',#280,#279,#135,.T.);
#341=EDGE_CURVE('',#280,#271,#136,.T.);
#342=EDGE_CURVE('',#281,#281,#34,.T.);
#343=EDGE_CURVE('',#282,#282,#35,.T.);
#344=EDGE_CURVE('',#283,#283,#36,.T.);
#345=EDGE_CURVE('',#284,#269,#137,.T.);
#346=EDGE_CURVE('',#285,#284,#138,.T.);
#347=EDGE_CURVE('',#286,#285,#139,.T.);
#348=EDGE_CURVE('',#287,#286,#140,.T.);
#349=EDGE_CURVE('',#287,#288,#141,.T.);
#350=EDGE_CURVE('',#288,#289,#37,.T.);
#351=EDGE_CURVE('',#289,#290,#142,.T.);
#352=EDGE_CURVE('',#290,#291,#143,.T.);
#353=EDGE_CURVE('',#291,#292,#144,.T.);
#354=EDGE_CURVE('',#292,#293,#38,.T.);
#355=EDGE_CURVE('',#273,#293,#145,.T.);
#356=EDGE_CURVE('',#279,#294,#146,.T.);
#357=EDGE_CURVE('',#294,#295,#147,.T.);
#358=EDGE_CURVE('',#295,#280,#148,.T.);
#359=EDGE_CURVE('',#296,#294,#149,.T.);
#360=EDGE_CURVE('',#297,#296,#150,.T.);
#361=EDGE_CURVE('',#298,#297,#151,.T.);
#362=EDGE_CURVE('',#299,#298,#152,.T.);
#363=EDGE_CURVE('',#295,#299,#153,.T.);
#364=EDGE_CURVE('',#300,#300,#39,.T.);
#365=EDGE_CURVE('',#301,#278,#154,.T.);
#366=EDGE_CURVE('',#301,#302,#155,.T.);
#367=EDGE_CURVE('',#296,#302,#156,.T.);
#368=EDGE_CURVE('',#303,#304,#157,.T.);
#369=EDGE_CURVE('',#304,#305,#158,.T.);
#370=EDGE_CURVE('',#305,#306,#159,.T.);
#371=EDGE_CURVE('',#306,#303,#160,.T.);
#372=EDGE_CURVE('',#299,#307,#40,.T.);
#373=EDGE_CURVE('',#307,#308,#161,.T.);
#374=EDGE_CURVE('',#308,#309,#162,.T.);
#375=EDGE_CURVE('',#309,#310,#163,.T.);
#376=EDGE_CURVE('',#310,#311,#41,.T.);
#377=EDGE_CURVE('',#311,#305,#164,.T.);
#378=EDGE_CURVE('',#312,#304,#165,.T.);
#379=EDGE_CURVE('',#313,#312,#166,.T.);
#380=EDGE_CURVE('',#272,#313,#167,.T.);
#381=EDGE_CURVE('',#303,#314,#168,.T.);
#382=EDGE_CURVE('',#286,#314,#169,.T.);
#383=EDGE_CURVE('',#312,#285,#170,.T.);
#384=EDGE_CURVE('',#315,#315,#42,.T.);
#385=EDGE_CURVE('',#302,#316,#171,.F.);
#386=EDGE_CURVE('',#316,#297,#172,.T.);
#387=EDGE_CURVE('',#317,#316,#173,.T.);
#388=EDGE_CURVE('',#317,#298,#43,.T.);
#389=EDGE_CURVE('',#314,#318,#174,.T.);
#390=EDGE_CURVE('',#318,#287,#175,.T.);
#391=EDGE_CURVE('',#288,#311,#176,.T.);
#392=EDGE_CURVE('',#306,#318,#177,.T.);
#393=EDGE_CURVE('',#319,#319,#44,.T.);
#394=EDGE_CURVE('',#277,#320,#178,.T.);
#395=EDGE_CURVE('',#320,#301,#179,.T.);
#396=EDGE_CURVE('',#321,#320,#180,.T.);
#397=EDGE_CURVE('',#322,#321,#181,.T.);
#398=EDGE_CURVE('',#323,#322,#182,.T.);
#399=EDGE_CURVE('',#323,#324,#45,.F.);
#400=EDGE_CURVE('',#324,#317,#183,.T.);
#401=EDGE_CURVE('',#325,#325,#46,.T.);
#402=EDGE_CURVE('',#326,#326,#47,.T.);
#403=EDGE_CURVE('',#275,#322,#184,.T.);
#404=EDGE_CURVE('',#321,#276,#185,.T.);
#405=EDGE_CURVE('',#323,#274,#186,.T.);
#406=EDGE_CURVE('',#293,#324,#15,.T.);
#407=EDGE_CURVE('',#284,#313,#187,.T.);
#408=EDGE_CURVE('',#300,#283,#188,.T.);
#409=EDGE_CURVE('',#327,#327,#48,.T.);
#410=EDGE_CURVE('',#328,#328,#49,.T.);
#411=EDGE_CURVE('',#315,#327,#189,.T.);
#412=EDGE_CURVE('',#328,#319,#190,.T.);
#413=EDGE_CURVE('',#310,#289,#191,.T.);
#414=EDGE_CURVE('',#290,#309,#192,.T.);
#415=EDGE_CURVE('',#292,#307,#193,.T.);
#416=EDGE_CURVE('',#308,#291,#194,.T.);
#417=EDGE_CURVE('',#325,#282,#195,.T.);
#418=EDGE_CURVE('',#326,#281,#196,.T.);
#419=ORIENTED_EDGE('',*,*,#329,.T.);
#420=ORIENTED_EDGE('',*,*,#330,.T.);
#421=ORIENTED_EDGE('',*,*,#331,.T.);
#422=ORIENTED_EDGE('',*,*,#332,.T.);
#423=ORIENTED_EDGE('',*,*,#330,.F.);
#424=ORIENTED_EDGE('',*,*,#333,.T.);
#425=ORIENTED_EDGE('',*,*,#334,.F.);
#426=ORIENTED_EDGE('',*,*,#335,.T.);
#427=ORIENTED_EDGE('',*,*,#336,.F.);
#428=ORIENTED_EDGE('',*,*,#337,.T.);
#429=ORIENTED_EDGE('',*,*,#338,.F.);
#430=ORIENTED_EDGE('',*,*,#339,.T.);
#431=ORIENTED_EDGE('',*,*,#340,.F.);
#432=ORIENTED_EDGE('',*,*,#341,.T.);
#433=ORIENTED_EDGE('',*,*,#342,.T.);
#434=ORIENTED_EDGE('',*,*,#343,.T.);
#435=ORIENTED_EDGE('',*,*,#344,.T.);
#436=ORIENTED_EDGE('',*,*,#329,.F.);
#437=ORIENTED_EDGE('',*,*,#345,.F.);
#438=ORIENTED_EDGE('',*,*,#346,.F.);
#439=ORIENTED_EDGE('',*,*,#347,.F.);
#440=ORIENTED_EDGE('',*,*,#348,.F.);
#441=ORIENTED_EDGE('',*,*,#349,.T.);
#442=ORIENTED_EDGE('',*,*,#350,.T.);
#443=ORIENTED_EDGE('',*,*,#351,.T.);
#444=ORIENTED_EDGE('',*,*,#352,.T.);
#445=ORIENTED_EDGE('',*,*,#353,.T.);
#446=ORIENTED_EDGE('',*,*,#354,.T.);
#447=ORIENTED_EDGE('',*,*,#355,.F.);
#448=ORIENTED_EDGE('',*,*,#333,.F.);
#449=ORIENTED_EDGE('',*,*,#340,.T.);
#450=ORIENTED_EDGE('',*,*,#356,.T.);
#451=ORIENTED_EDGE('',*,*,#357,.T.);
#452=ORIENTED_EDGE('',*,*,#358,.T.);
#453=ORIENTED_EDGE('',*,*,#357,.F.);
#454=ORIENTED_EDGE('',*,*,#359,.F.);
#455=ORIENTED_EDGE('',*,*,#360,.F.);
#456=ORIENTED_EDGE('',*,*,#361,.F.);
#457=ORIENTED_EDGE('',*,*,#362,.F.);
#458=ORIENTED_EDGE('',*,*,#363,.F.);
#459=ORIENTED_EDGE('',*,*,#364,.T.);
#460=ORIENTED_EDGE('',*,*,#356,.F.);
#461=ORIENTED_EDGE('',*,*,#339,.F.);
#462=ORIENTED_EDGE('',*,*,#365,.F.);
#463=ORIENTED_EDGE('',*,*,#366,.T.);
#464=ORIENTED_EDGE('',*,*,#367,.F.);
#465=ORIENTED_EDGE('',*,*,#359,.T.);
#466=ORIENTED_EDGE('',*,*,#368,.T.);
#467=ORIENTED_EDGE('',*,*,#369,.T.);
#468=ORIENTED_EDGE('',*,*,#370,.T.);
#469=ORIENTED_EDGE('',*,*,#371,.T.);
#470=ORIENTED_EDGE('',*,*,#331,.F.);
#471=ORIENTED_EDGE('',*,*,#341,.F.);
#472=ORIENTED_EDGE('',*,*,#358,.F.);
#473=ORIENTED_EDGE('',*,*,#363,.T.);
#474=ORIENTED_EDGE('',*,*,#372,.T.);
#475=ORIENTED_EDGE('',*,*,#373,.T.);
#476=ORIENTED_EDGE('',*,*,#374,.T.);
#477=ORIENTED_EDGE('',*,*,#375,.T.);
#478=ORIENTED_EDGE('',*,*,#376,.T.);
#479=ORIENTED_EDGE('',*,*,#377,.T.);
#480=ORIENTED_EDGE('',*,*,#369,.F.);
#481=ORIENTED_EDGE('',*,*,#378,.F.);
#482=ORIENTED_EDGE('',*,*,#379,.F.);
#483=ORIENTED_EDGE('',*,*,#380,.F.);
#484=ORIENTED_EDGE('',*,*,#368,.F.);
#485=ORIENTED_EDGE('',*,*,#381,.T.);
#486=ORIENTED_EDGE('',*,*,#382,.F.);
#487=ORIENTED_EDGE('',*,*,#347,.T.);
#488=ORIENTED_EDGE('',*,*,#383,.F.);
#489=ORIENTED_EDGE('',*,*,#378,.T.);
#490=ORIENTED_EDGE('',*,*,#384,.T.);
#491=ORIENTED_EDGE('',*,*,#360,.T.);
#492=ORIENTED_EDGE('',*,*,#367,.T.);
#493=ORIENTED_EDGE('',*,*,#385,.T.);
#494=ORIENTED_EDGE('',*,*,#386,.T.);
#495=ORIENTED_EDGE('',*,*,#386,.F.);
#496=ORIENTED_EDGE('',*,*,#387,.F.);
#497=ORIENTED_EDGE('',*,*,#388,.T.);
#498=ORIENTED_EDGE('',*,*,#361,.T.);
#499=ORIENTED_EDGE('',*,*,#382,.T.);
#500=ORIENTED_EDGE('',*,*,#389,.T.);
#501=ORIENTED_EDGE('',*,*,#390,.T.);
#502=ORIENTED_EDGE('',*,*,#348,.T.);
#503=ORIENTED_EDGE('',*,*,#370,.F.);
#504=ORIENTED_EDGE('',*,*,#377,.F.);
#505=ORIENTED_EDGE('',*,*,#391,.F.);
#506=ORIENTED_EDGE('',*,*,#349,.F.);
#507=ORIENTED_EDGE('',*,*,#390,.F.);
#508=ORIENTED_EDGE('',*,*,#392,.F.);
#509=ORIENTED_EDGE('',*,*,#393,.T.);
#510=ORIENTED_EDGE('',*,*,#338,.T.);
#511=ORIENTED_EDGE('',*,*,#394,.T.);
#512=ORIENTED_EDGE('',*,*,#395,.T.);
#513=ORIENTED_EDGE('',*,*,#365,.T.);
#514=ORIENTED_EDGE('',*,*,#395,.F.);
#515=ORIENTED_EDGE('',*,*,#396,.F.);
#516=ORIENTED_EDGE('',*,*,#397,.F.);
#517=ORIENTED_EDGE('',*,*,#398,.F.);
#518=ORIENTED_EDGE('',*,*,#399,.T.);
#519=ORIENTED_EDGE('',*,*,#400,.T.);
#520=ORIENTED_EDGE('',*,*,#387,.T.);
#521=ORIENTED_EDGE('',*,*,#385,.F.);
#522=ORIENTED_EDGE('',*,*,#366,.F.);
#523=ORIENTED_EDGE('',*,*,#401,.T.);
#524=ORIENTED_EDGE('',*,*,#402,.T.);
#525=ORIENTED_EDGE('',*,*,#336,.T.);
#526=ORIENTED_EDGE('',*,*,#403,.T.);
#527=ORIENTED_EDGE('',*,*,#397,.T.);
#528=ORIENTED_EDGE('',*,*,#404,.T.);
#529=ORIENTED_EDGE('',*,*,#403,.F.);
#530=ORIENTED_EDGE('',*,*,#335,.F.);
#531=ORIENTED_EDGE('',*,*,#405,.F.);
#532=ORIENTED_EDGE('',*,*,#398,.T.);
#533=ORIENTED_EDGE('',*,*,#399,.F.);
#534=ORIENTED_EDGE('',*,*,#405,.T.);
#535=ORIENTED_EDGE('',*,*,#334,.T.);
#536=ORIENTED_EDGE('',*,*,#355,.T.);
#537=ORIENTED_EDGE('',*,*,#406,.T.);
#538=ORIENTED_EDGE('',*,*,#379,.T.);
#539=ORIENTED_EDGE('',*,*,#383,.T.);
#540=ORIENTED_EDGE('',*,*,#346,.T.);
#541=ORIENTED_EDGE('',*,*,#407,.T.);
#542=ORIENTED_EDGE('',*,*,#364,.F.);
#543=ORIENTED_EDGE('',*,*,#408,.T.);
#544=ORIENTED_EDGE('',*,*,#344,.F.);
#545=ORIENTED_EDGE('',*,*,#408,.F.);
#546=ORIENTED_EDGE('',*,*,#409,.T.);
#547=ORIENTED_EDGE('',*,*,#410,.F.);
#548=ORIENTED_EDGE('',*,*,#384,.F.);
#549=ORIENTED_EDGE('',*,*,#411,.T.);
#550=ORIENTED_EDGE('',*,*,#409,.F.);
#551=ORIENTED_EDGE('',*,*,#411,.F.);
#552=ORIENTED_EDGE('',*,*,#410,.T.);
#553=ORIENTED_EDGE('',*,*,#412,.T.);
#554=ORIENTED_EDGE('',*,*,#393,.F.);
#555=ORIENTED_EDGE('',*,*,#412,.F.);
#556=ORIENTED_EDGE('',*,*,#413,.F.);
#557=ORIENTED_EDGE('',*,*,#375,.F.);
#558=ORIENTED_EDGE('',*,*,#414,.F.);
#559=ORIENTED_EDGE('',*,*,#351,.F.);
#560=ORIENTED_EDGE('',*,*,#415,.F.);
#561=ORIENTED_EDGE('',*,*,#353,.F.);
#562=ORIENTED_EDGE('',*,*,#416,.F.);
#563=ORIENTED_EDGE('',*,*,#373,.F.);
#564=ORIENTED_EDGE('',*,*,#374,.F.);
#565=ORIENTED_EDGE('',*,*,#416,.T.);
#566=ORIENTED_EDGE('',*,*,#352,.F.);
#567=ORIENTED_EDGE('',*,*,#414,.T.);
#568=ORIENTED_EDGE('',*,*,#371,.F.);
#569=ORIENTED_EDGE('',*,*,#392,.T.);
#570=ORIENTED_EDGE('',*,*,#389,.F.);
#571=ORIENTED_EDGE('',*,*,#381,.F.);
#572=ORIENTED_EDGE('',*,*,#413,.T.);
#573=ORIENTED_EDGE('',*,*,#350,.F.);
#574=ORIENTED_EDGE('',*,*,#391,.T.);
#575=ORIENTED_EDGE('',*,*,#376,.F.);
#576=ORIENTED_EDGE('',*,*,#401,.F.);
#577=ORIENTED_EDGE('',*,*,#417,.T.);
#578=ORIENTED_EDGE('',*,*,#343,.F.);
#579=ORIENTED_EDGE('',*,*,#417,.F.);
#580=ORIENTED_EDGE('',*,*,#402,.F.);
#581=ORIENTED_EDGE('',*,*,#418,.T.);
#582=ORIENTED_EDGE('',*,*,#342,.F.);
#583=ORIENTED_EDGE('',*,*,#418,.F.);
#584=ORIENTED_EDGE('',*,*,#415,.T.);
#585=ORIENTED_EDGE('',*,*,#372,.F.);
#586=ORIENTED_EDGE('',*,*,#362,.T.);
#587=ORIENTED_EDGE('',*,*,#388,.F.);
#588=ORIENTED_EDGE('',*,*,#400,.F.);
#589=ORIENTED_EDGE('',*,*,#406,.F.);
#590=ORIENTED_EDGE('',*,*,#354,.F.);
#591=ORIENTED_EDGE('',*,*,#394,.F.);
#592=ORIENTED_EDGE('',*,*,#337,.F.);
#593=ORIENTED_EDGE('',*,*,#404,.F.);
#594=ORIENTED_EDGE('',*,*,#396,.T.);
#595=ORIENTED_EDGE('',*,*,#332,.F.);
#596=ORIENTED_EDGE('',*,*,#380,.T.);
#597=ORIENTED_EDGE('',*,*,#407,.F.);
#598=ORIENTED_EDGE('',*,*,#345,.T.);
#599=PLANE('',#680);
#600=PLANE('',#681);
#601=PLANE('',#686);
#602=PLANE('',#689);
#603=PLANE('',#690);
#604=PLANE('',#692);
#605=PLANE('',#693);
#606=PLANE('',#694);
#607=PLANE('',#697);
#608=PLANE('',#699);
#609=PLANE('',#700);
#610=PLANE('',#702);
#611=PLANE('',#703);
#612=PLANE('',#705);
#613=PLANE('',#706);
#614=PLANE('',#710);
#615=PLANE('',#711);
#616=PLANE('',#713);
#617=PLANE('',#715);
#618=PLANE('',#720);
#619=PLANE('',#721);
#620=PLANE('',#722);
#621=PLANE('',#723);
#622=PLANE('',#728);
#623=PLANE('',#729);
#624=ADVANCED_FACE('',(#50),#599,.T.);
#625=ADVANCED_FACE('',(#51,#24,#25,#26),#600,.F.);
#626=ADVANCED_FACE('',(#52),#601,.T.);
#627=ADVANCED_FACE('',(#53),#602,.T.);
#628=ADVANCED_FACE('',(#54,#27),#603,.F.);
#629=ADVANCED_FACE('',(#55),#604,.T.);
#630=ADVANCED_FACE('',(#56),#605,.T.);
#631=ADVANCED_FACE('',(#57),#606,.T.);
#632=ADVANCED_FACE('',(#58,#28),#607,.T.);
#633=ADVANCED_FACE('',(#59),#608,.T.);
#634=ADVANCED_FACE('',(#60),#609,.T.);
#635=ADVANCED_FACE('',(#61),#610,.T.);
#636=ADVANCED_FACE('',(#62,#29),#611,.F.);
#637=ADVANCED_FACE('',(#63),#612,.T.);
#638=ADVANCED_FACE('',(#64,#30,#31),#613,.T.);
#639=ADVANCED_FACE('',(#65),#614,.T.);
#640=ADVANCED_FACE('',(#66),#615,.T.);
#641=ADVANCED_FACE('',(#67),#16,.F.);
#642=ADVANCED_FACE('',(#68),#616,.T.);
#643=ADVANCED_FACE('',(#69),#17,.F.);
#644=ADVANCED_FACE('',(#70,#32),#617,.T.);
#645=ADVANCED_FACE('',(#71),#18,.F.);
#646=ADVANCED_FACE('',(#72),#19,.F.);
#647=ADVANCED_FACE('',(#73),#618,.F.);
#648=ADVANCED_FACE('',(#74),#619,.F.);
#649=ADVANCED_FACE('',(#75),#620,.F.);
#650=ADVANCED_FACE('',(#76),#621,.T.);
#651=ADVANCED_FACE('',(#77),#20,.F.);
#652=ADVANCED_FACE('',(#78),#21,.F.);
#653=ADVANCED_FACE('',(#79),#22,.F.);
#654=ADVANCED_FACE('',(#80),#23,.F.);
#655=ADVANCED_FACE('',(#81),#622,.T.);
#656=ADVANCED_FACE('',(#82),#623,.T.);
#657=CLOSED_SHELL('',(#624,#625,#626,#627,#628,#629,#630,#631,#632,#633,
#634,#635,#636,#637,#638,#639,#640,#641,#642,#643,#644,#645,#646,#647,#648,
#649,#650,#651,#652,#653,#654,#655,#656));
#658=DERIVED_UNIT_ELEMENT(#661,1.);
#659=DERIVED_UNIT_ELEMENT(#1104,-3.);
#660=DIMENSIONAL_EXPONENTS(0.,1.,0.,0.,0.,0.,0.);
#661=(
CONVERSION_BASED_UNIT('gram',#663)
MASS_UNIT()
NAMED_UNIT(#660)
);
#662=(
MASS_UNIT()
NAMED_UNIT(*)
SI_UNIT(.KILO.,.GRAM.)
);
#663=MASS_MEASURE_WITH_UNIT(MASS_MEASURE(0.001),#662);
#664=DERIVED_UNIT((#658,#659));
#665=MEASURE_REPRESENTATION_ITEM('density measure',
POSITIVE_RATIO_MEASURE(2.7),#664);
#666=PROPERTY_DEFINITION_REPRESENTATION(#671,#668);
#667=PROPERTY_DEFINITION_REPRESENTATION(#672,#669);
#668=REPRESENTATION('material name',(#670),#1101);
#669=REPRESENTATION('density',(#665),#1101);
#670=DESCRIPTIVE_REPRESENTATION_ITEM('EN AW-6082 T6 / T651 (AlMgSi1)',
'EN AW-6082 T6 / T651 (AlMgSi1)');
#671=PROPERTY_DEFINITION('material property','material name',#1111);
#672=PROPERTY_DEFINITION('material property','density of part',#1111);
#673=DATE_TIME_ROLE('creation_date');
#674=APPLIED_DATE_AND_TIME_ASSIGNMENT(#675,#673,(#1111));
#675=DATE_AND_TIME(#676,#677);
#676=CALENDAR_DATE(2026,16,7);
#677=LOCAL_TIME(0,0,0.,#678);
#678=COORDINATED_UNIVERSAL_TIME_OFFSET(0,0,.BEHIND.);
#679=AXIS2_PLACEMENT_3D('',#904,#730,#731);
#680=AXIS2_PLACEMENT_3D('',#905,#732,#733);
#681=AXIS2_PLACEMENT_3D('',#914,#738,#739);
#682=AXIS2_PLACEMENT_3D('',#918,#741,#742);
#683=AXIS2_PLACEMENT_3D('',#933,#750,#751);
#684=AXIS2_PLACEMENT_3D('',#935,#752,#753);
#685=AXIS2_PLACEMENT_3D('',#937,#754,#755);
#686=AXIS2_PLACEMENT_3D('',#938,#756,#757);
#687=AXIS2_PLACEMENT_3D('',#950,#763,#764);
#688=AXIS2_PLACEMENT_3D('',#958,#768,#769);
#689=AXIS2_PLACEMENT_3D('',#960,#771,#772);
#690=AXIS2_PLACEMENT_3D('',#966,#776,#777);
#691=AXIS2_PLACEMENT_3D('',#977,#783,#784);
#692=AXIS2_PLACEMENT_3D('',#978,#785,#786);
#693=AXIS2_PLACEMENT_3D('',#984,#790,#791);
#694=AXIS2_PLACEMENT_3D('',#993,#796,#797);
#695=AXIS2_PLACEMENT_3D('',#995,#798,#799);
#696=AXIS2_PLACEMENT_3D('',#1003,#803,#804);
#697=AXIS2_PLACEMENT_3D('',#1010,#809,#810);
#698=AXIS2_PLACEMENT_3D('',#1016,#814,#815);
#699=AXIS2_PLACEMENT_3D('',#1017,#816,#817);
#700=AXIS2_PLACEMENT_3D('',#1021,#820,#821);
#701=AXIS2_PLACEMENT_3D('',#1024,#823,#824);
#702=AXIS2_PLACEMENT_3D('',#1025,#825,#826);
#703=AXIS2_PLACEMENT_3D('',#1029,#829,#830);
#704=AXIS2_PLACEMENT_3D('',#1033,#833,#834);
#705=AXIS2_PLACEMENT_3D('',#1034,#835,#836);
#706=AXIS2_PLACEMENT_3D('',#1038,#839,#840);
#707=AXIS2_PLACEMENT_3D('',#1046,#844,#845);
#708=AXIS2_PLACEMENT_3D('',#1049,#847,#848);
#709=AXIS2_PLACEMENT_3D('',#1051,#849,#850);
#710=AXIS2_PLACEMENT_3D('',#1052,#851,#852);
#711=AXIS2_PLACEMENT_3D('',#1055,#855,#856);
#712=AXIS2_PLACEMENT_3D('',#1057,#858,#859);
#713=AXIS2_PLACEMENT_3D('',#1070,#860,#861);
#714=AXIS2_PLACEMENT_3D('',#1072,#863,#864);
#715=AXIS2_PLACEMENT_3D('',#1074,#866,#867);
#716=AXIS2_PLACEMENT_3D('',#1076,#868,#869);
#717=AXIS2_PLACEMENT_3D('',#1078,#870,#871);
#718=AXIS2_PLACEMENT_3D('',#1079,#872,#873);
#719=AXIS2_PLACEMENT_3D('',#1081,#875,#876);
#720=AXIS2_PLACEMENT_3D('',#1083,#878,#879);
#721=AXIS2_PLACEMENT_3D('',#1086,#882,#883);
#722=AXIS2_PLACEMENT_3D('',#1089,#886,#887);
#723=AXIS2_PLACEMENT_3D('',#1090,#888,#889);
#724=AXIS2_PLACEMENT_3D('',#1091,#890,#891);
#725=AXIS2_PLACEMENT_3D('',#1092,#892,#893);
#726=AXIS2_PLACEMENT_3D('',#1094,#895,#896);
#727=AXIS2_PLACEMENT_3D('',#1096,#898,#899);
#728=AXIS2_PLACEMENT_3D('',#1097,#900,#901);
#729=AXIS2_PLACEMENT_3D('',#1098,#902,#903);
#730=DIRECTION('axis',(0.,0.,1.));
#731=DIRECTION('refdir',(1.,0.,0.));
#732=DIRECTION('center_axis',(-0.707106781186548,1.30841038223647E-17,-0.707106781186547));
#733=DIRECTION('ref_axis',(-0.707106781186547,0.,0.707106781186548));
#734=DIRECTION('',(-0.707106781186547,0.,0.707106781186548));
#735=DIRECTION('',(-1.66533453693773E-16,1.,1.85037170770859E-16));
#736=DIRECTION('',(0.707106781186547,0.,-0.707106781186548));
#737=DIRECTION('',(1.66533453693773E-16,-1.,-1.85037170770859E-16));
#738=DIRECTION('center_axis',(1.,1.66533453693773E-16,0.));
#739=DIRECTION('ref_axis',(0.,0.,-1.));
#740=DIRECTION('',(0.,0.,1.));
#741=DIRECTION('center_axis',(-1.,-1.66533453693773E-16,0.));
#742=DIRECTION('ref_axis',(0.,0.707106781186548,0.707106781186547));
#743=DIRECTION('',(1.66533453693773E-16,-1.,0.));
#744=DIRECTION('',(-1.17756934401283E-16,0.707106781186549,-0.707106781186546));
#745=DIRECTION('',(0.,0.,1.));
#746=DIRECTION('',(1.17756934401283E-16,-0.707106781186549,-0.707106781186546));
#747=DIRECTION('',(-1.66533453693773E-16,1.,0.));
#748=DIRECTION('',(1.17756934401283E-16,-0.707106781186549,0.707106781186546));
#749=DIRECTION('',(0.,0.,-1.));
#750=DIRECTION('center_axis',(1.,1.66533453693773E-16,0.));
#751=DIRECTION('ref_axis',(0.,1.,0.));
#752=DIRECTION('center_axis',(1.,1.66533453693773E-16,0.));
#753=DIRECTION('ref_axis',(0.,1.,0.));
#754=DIRECTION('center_axis',(1.,1.66533453693773E-16,0.));
#755=DIRECTION('ref_axis',(0.,0.,-1.));
#756=DIRECTION('center_axis',(0.,-1.,0.));
#757=DIRECTION('ref_axis',(0.,0.,1.));
#758=DIRECTION('',(-1.,0.,0.));
#759=DIRECTION('',(-0.707106781186547,0.,-0.707106781186548));
#760=DIRECTION('',(0.,0.,-1.));
#761=DIRECTION('',(1.,0.,0.));
#762=DIRECTION('',(0.,0.,-1.));
#763=DIRECTION('center_axis',(0.,1.,0.));
#764=DIRECTION('ref_axis',(0.,0.,1.));
#765=DIRECTION('',(0.,0.,-1.));
#766=DIRECTION('',(-1.,0.,0.));
#767=DIRECTION('',(0.,0.,1.));
#768=DIRECTION('center_axis',(0.,1.,0.));
#769=DIRECTION('ref_axis',(0.,0.,1.));
#770=DIRECTION('',(1.,0.,0.));
#771=DIRECTION('center_axis',(0.,0.707106781186546,0.707106781186549));
#772=DIRECTION('ref_axis',(1.,0.,0.));
#773=DIRECTION('',(1.,0.,0.));
#774=DIRECTION('',(0.,0.707106781186549,-0.707106781186546));
#775=DIRECTION('',(-1.,0.,0.));
#776=DIRECTION('center_axis',(-1.,0.,0.));
#777=DIRECTION('ref_axis',(0.,0.,1.));
#778=DIRECTION('',(0.,1.,0.));
#779=DIRECTION('',(0.,0.707106781186549,0.707106781186546));
#780=DIRECTION('',(0.,0.,1.));
#781=DIRECTION('',(0.,-1.,0.));
#782=DIRECTION('',(0.,0.,-1.));
#783=DIRECTION('center_axis',(-1.,0.,0.));
#784=DIRECTION('ref_axis',(0.,0.,-1.));
#785=DIRECTION('center_axis',(0.,0.,1.));
#786=DIRECTION('ref_axis',(0.,1.,0.));
#787=DIRECTION('',(-1.,0.,0.));
#788=DIRECTION('',(-1.66533453693773E-16,1.,0.));
#789=DIRECTION('',(-1.,0.,0.));
#790=DIRECTION('center_axis',(0.,0.707106781186546,0.707106781186549));
#791=DIRECTION('ref_axis',(1.,0.,0.));
#792=DIRECTION('',(0.,0.707106781186549,-0.707106781186546));
#793=DIRECTION('',(-1.,0.,0.));
#794=DIRECTION('',(0.,-0.707106781186549,0.707106781186546));
#795=DIRECTION('',(1.,0.,0.));
#796=DIRECTION('center_axis',(0.,1.,0.));
#797=DIRECTION('ref_axis',(0.,0.,-1.));
#798=DIRECTION('center_axis',(0.,-1.,0.));
#799=DIRECTION('ref_axis',(0.,0.,1.));
#800=DIRECTION('',(0.,0.,-1.));
#801=DIRECTION('',(1.,0.,0.));
#802=DIRECTION('',(0.,0.,1.));
#803=DIRECTION('center_axis',(0.,-1.,0.));
#804=DIRECTION('ref_axis',(0.,0.,1.));
#805=DIRECTION('',(0.,0.,1.));
#806=DIRECTION('',(0.,0.,1.));
#807=DIRECTION('',(0.707106781186547,0.,0.707106781186548));
#808=DIRECTION('',(1.,0.,0.));
#809=DIRECTION('center_axis',(1.,0.,0.));
#810=DIRECTION('ref_axis',(0.,0.,-1.));
#811=DIRECTION('',(0.,-1.,0.));
#812=DIRECTION('',(0.,0.707106781186549,0.707106781186546));
#813=DIRECTION('',(0.,-1.,-1.85037170770859E-16));
#814=DIRECTION('center_axis',(-1.,0.,0.));
#815=DIRECTION('ref_axis',(0.,0.,-1.));
#816=DIRECTION('center_axis',(0.,-0.707106781186546,0.707106781186549));
#817=DIRECTION('ref_axis',(1.,0.,0.));
#818=DIRECTION('',(-1.17756934401283E-16,0.707106781186549,0.707106781186546));
#819=DIRECTION('',(1.,0.,0.));
#820=DIRECTION('center_axis',(0.,-1.,0.));
#821=DIRECTION('ref_axis',(0.,0.,1.));
#822=DIRECTION('',(0.,0.,1.));
#823=DIRECTION('center_axis',(0.,1.,0.));
#824=DIRECTION('ref_axis',(0.,0.,1.));
#825=DIRECTION('center_axis',(0.,-0.707106781186546,0.707106781186549));
#826=DIRECTION('ref_axis',(1.,0.,0.));
#827=DIRECTION('',(-1.,0.,0.));
#828=DIRECTION('',(0.,-0.707106781186549,-0.707106781186546));
#829=DIRECTION('center_axis',(1.,0.,0.));
#830=DIRECTION('ref_axis',(0.,0.,-1.));
#831=DIRECTION('',(0.,1.,0.));
#832=DIRECTION('',(0.,-1.,0.));
#833=DIRECTION('center_axis',(1.,0.,0.));
#834=DIRECTION('ref_axis',(0.,0.,-1.));
#835=DIRECTION('center_axis',(0.,-0.707106781186546,0.707106781186549));
#836=DIRECTION('ref_axis',(1.,0.,0.));
#837=DIRECTION('',(1.,0.,0.));
#838=DIRECTION('',(-1.17756934401283E-16,0.707106781186549,0.707106781186546));
#839=DIRECTION('center_axis',(1.,1.66533453693773E-16,0.));
#840=DIRECTION('ref_axis',(0.,0.,-1.));
#841=DIRECTION('',(0.,0.,1.));
#842=DIRECTION('',(1.17756934401283E-16,-0.707106781186549,0.707106781186546));
#843=DIRECTION('',(1.66533453693773E-16,-1.,0.));
#844=DIRECTION('center_axis',(1.,1.66533453693773E-16,0.));
#845=DIRECTION('ref_axis',(0.,0.707106781186548,0.707106781186547));
#846=DIRECTION('',(0.,1.,0.));
#847=DIRECTION('center_axis',(-1.,-1.66533453693773E-16,0.));
#848=DIRECTION('ref_axis',(0.,1.,0.));
#849=DIRECTION('center_axis',(-1.,-1.66533453693773E-16,0.));
#850=DIRECTION('ref_axis',(0.,1.,0.));
#851=DIRECTION('center_axis',(0.,-0.707106781186546,-0.707106781186549));
#852=DIRECTION('ref_axis',(-1.,0.,0.));
#853=DIRECTION('',(1.,0.,0.));
#854=DIRECTION('',(-1.,0.,0.));
#855=DIRECTION('center_axis',(0.,0.,-1.));
#856=DIRECTION('ref_axis',(0.,-1.,0.));
#857=DIRECTION('',(-1.,0.,0.));
#858=DIRECTION('center_axis',(-1.,0.,0.));
#859=DIRECTION('ref_axis',(0.,0.707106781186548,0.707106781186547));
#860=DIRECTION('center_axis',(0.707106781186548,1.30841038223648E-16,-0.707106781186547));
#861=DIRECTION('ref_axis',(-0.707106781186547,0.,-0.707106781186548));
#862=DIRECTION('',(0.,1.,1.85037170770859E-16));
#863=DIRECTION('center_axis',(1.,0.,0.));
#864=DIRECTION('ref_axis',(0.,0.,-1.));
#865=DIRECTION('',(-1.,0.,0.));
#866=DIRECTION('center_axis',(1.,0.,0.));
#867=DIRECTION('ref_axis',(0.,0.,-1.));
#868=DIRECTION('center_axis',(1.,0.,0.));
#869=DIRECTION('ref_axis',(0.,0.,-1.));
#870=DIRECTION('center_axis',(1.,0.,0.));
#871=DIRECTION('ref_axis',(0.,0.,-1.));
#872=DIRECTION('center_axis',(1.,0.,0.));
#873=DIRECTION('ref_axis',(0.,0.,-1.));
#874=DIRECTION('',(-1.,0.,0.));
#875=DIRECTION('center_axis',(1.,0.,0.));
#876=DIRECTION('ref_axis',(0.,0.,-1.));
#877=DIRECTION('',(-1.,0.,0.));
#878=DIRECTION('center_axis',(1.,0.,0.));
#879=DIRECTION('ref_axis',(0.,0.,-1.));
#880=DIRECTION('',(0.,-1.,0.));
#881=DIRECTION('',(0.,1.,1.58603289232165E-16));
#882=DIRECTION('center_axis',(-1.,0.,0.));
#883=DIRECTION('ref_axis',(0.,0.,1.));
#884=DIRECTION('',(0.,1.,0.));
#885=DIRECTION('',(0.,-1.,-1.58603289232165E-16));
#886=DIRECTION('center_axis',(0.,1.58603289232165E-16,-1.));
#887=DIRECTION('ref_axis',(0.,1.,1.58603289232165E-16));
#888=DIRECTION('center_axis',(0.,0.,1.));
#889=DIRECTION('ref_axis',(0.,1.,0.));
#890=DIRECTION('center_axis',(0.,-1.,0.));
#891=DIRECTION('ref_axis',(0.,0.,1.));
#892=DIRECTION('center_axis',(1.,0.,0.));
#893=DIRECTION('ref_axis',(0.,1.,0.));
#894=DIRECTION('',(-1.,0.,0.));
#895=DIRECTION('center_axis',(1.,0.,0.));
#896=DIRECTION('ref_axis',(0.,1.,0.));
#897=DIRECTION('',(-1.,0.,0.));
#898=DIRECTION('center_axis',(0.,-1.,0.));
#899=DIRECTION('ref_axis',(0.,0.,1.));
#900=DIRECTION('center_axis',(0.,-1.,0.));
#901=DIRECTION('ref_axis',(0.,0.,1.));
#902=DIRECTION('center_axis',(0.,1.85037170770859E-16,-1.));
#903=DIRECTION('ref_axis',(0.,-1.,-1.85037170770859E-16));
#904=CARTESIAN_POINT('',(0.,0.,0.));
#905=CARTESIAN_POINT('Origin',(5.5,26.,36.5));
#906=CARTESIAN_POINT('',(6.,25.,36.));
#907=CARTESIAN_POINT('',(5.,25.,37.));
#908=CARTESIAN_POINT('',(7.,25.,35.));
#909=CARTESIAN_POINT('',(5.,32.,37.));
#910=CARTESIAN_POINT('',(5.,26.,37.));
#911=CARTESIAN_POINT('',(6.,32.,36.));
#912=CARTESIAN_POINT('',(2.75,32.,39.25));
#913=CARTESIAN_POINT('',(6.,26.,36.));
#914=CARTESIAN_POINT('Origin',(5.,20.,44.5));
#915=CARTESIAN_POINT('',(5.,25.,40.8));
#916=CARTESIAN_POINT('',(5.,25.,40.25));
#917=CARTESIAN_POINT('',(5.,19.8,46.));
#918=CARTESIAN_POINT('Origin',(5.,19.8,40.8));
#919=CARTESIAN_POINT('',(5.00000000000001,9.,46.));
#920=CARTESIAN_POINT('',(5.,22.5,46.));
#921=CARTESIAN_POINT('',(5.00000000000001,8.,47.));
#922=CARTESIAN_POINT('',(5.,11.875,43.125));
#923=CARTESIAN_POINT('',(5.00000000000001,8.,52.));
#924=CARTESIAN_POINT('',(5.00000000000001,8.,45.25));
#925=CARTESIAN_POINT('',(5.00000000000001,9.,53.));
#926=CARTESIAN_POINT('',(5.00000000000001,9.37500000000001,53.375));
#927=CARTESIAN_POINT('',(5.,31.,53.));
#928=CARTESIAN_POINT('',(5.00000000000001,14.,53.));
#929=CARTESIAN_POINT('',(5.,32.,52.));
#930=CARTESIAN_POINT('',(5.,30.625,53.375));
#931=CARTESIAN_POINT('',(5.,32.,48.75));
#932=CARTESIAN_POINT('',(5.,9.3,50.));
#933=CARTESIAN_POINT('Origin',(5.,11.,50.));
#934=CARTESIAN_POINT('',(5.,15.8,50.));
#935=CARTESIAN_POINT('Origin',(5.,17.5,50.));
#936=CARTESIAN_POINT('',(5.,28.5,50.7065));
#937=CARTESIAN_POINT('Origin',(5.,28.5,49.7));
#938=CARTESIAN_POINT('Origin',(11.,25.,36.));
#939=CARTESIAN_POINT('',(15.,25.,36.));
#940=CARTESIAN_POINT('',(11.,25.,36.));
#941=CARTESIAN_POINT('',(17.,25.,38.));
#942=CARTESIAN_POINT('',(14.5,25.,35.5));
#943=CARTESIAN_POINT('',(17.,25.,52.));
#944=CARTESIAN_POINT('',(17.,25.,53.));
#945=CARTESIAN_POINT('',(11.8,25.,52.));
#946=CARTESIAN_POINT('',(11.,25.,52.));
#947=CARTESIAN_POINT('',(11.8,25.,46.4283179650969));
#948=CARTESIAN_POINT('',(11.8,25.,40.5));
#949=CARTESIAN_POINT('',(11.8,25.,37.5716820349031));
#950=CARTESIAN_POINT('Origin',(11.,25.,42.));
#951=CARTESIAN_POINT('',(11.8,25.,37.));
#952=CARTESIAN_POINT('',(11.8,25.,40.5));
#953=CARTESIAN_POINT('',(10.2,25.,37.));
#954=CARTESIAN_POINT('',(11.,25.,37.));
#955=CARTESIAN_POINT('',(10.2,25.,37.5716820349031));
#956=CARTESIAN_POINT('',(10.2,25.,40.5));
#957=CARTESIAN_POINT('',(6.66295031155972,25.,40.8));
#958=CARTESIAN_POINT('Origin',(11.,25.,42.));
#959=CARTESIAN_POINT('',(11.,25.,40.8));
#960=CARTESIAN_POINT('Origin',(11.,31.5,52.5));
#961=CARTESIAN_POINT('',(10.2,31.,53.));
#962=CARTESIAN_POINT('',(11.,31.,53.));
#963=CARTESIAN_POINT('',(10.2,32.,52.));
#964=CARTESIAN_POINT('',(10.2,32.625,51.375));
#965=CARTESIAN_POINT('',(11.,32.,52.));
#966=CARTESIAN_POINT('Origin',(10.2,28.5,45.));
#967=CARTESIAN_POINT('',(10.2,26.,53.));
#968=CARTESIAN_POINT('',(10.2,18.25,53.));
#969=CARTESIAN_POINT('',(10.2,25.,52.));
#970=CARTESIAN_POINT('',(10.2,24.375,51.375));
#971=CARTESIAN_POINT('',(10.2,25.,46.4283179650969));
#972=CARTESIAN_POINT('',(10.2,25.,40.5));
#973=CARTESIAN_POINT('',(10.2,32.,46.4283179650969));
#974=CARTESIAN_POINT('',(10.2,27.5,46.4283179650969));
#975=CARTESIAN_POINT('',(10.2,32.,49.));
#976=CARTESIAN_POINT('',(10.2,28.5,50.7065));
#977=CARTESIAN_POINT('Origin',(10.2,28.5,49.7));
#978=CARTESIAN_POINT('Origin',(11.,8.,53.));
#979=CARTESIAN_POINT('',(8.50000000000001,9.,53.));
#980=CARTESIAN_POINT('',(11.,9.,53.));
#981=CARTESIAN_POINT('',(8.5,26.,53.));
#982=CARTESIAN_POINT('',(8.50000000000001,14.,53.));
#983=CARTESIAN_POINT('',(11.,26.,53.));
#984=CARTESIAN_POINT('Origin',(11.,31.5,52.5));
#985=CARTESIAN_POINT('',(17.,31.,53.));
#986=CARTESIAN_POINT('',(17.,32.,52.));
#987=CARTESIAN_POINT('',(17.,32.75,51.25));
#988=CARTESIAN_POINT('',(11.8,32.,52.));
#989=CARTESIAN_POINT('',(11.,32.,52.));
#990=CARTESIAN_POINT('',(11.8,31.,53.));
#991=CARTESIAN_POINT('',(11.8,32.625,51.375));
#992=CARTESIAN_POINT('',(11.,31.,53.));
#993=CARTESIAN_POINT('Origin',(11.,32.,53.));
#994=CARTESIAN_POINT('',(10.2,32.,37.5716820349031));
#995=CARTESIAN_POINT('Origin',(11.,32.,42.));
#996=CARTESIAN_POINT('',(10.2,32.,37.));
#997=CARTESIAN_POINT('',(10.2,32.,49.));
#998=CARTESIAN_POINT('',(11.8,32.,37.));
#999=CARTESIAN_POINT('',(11.,32.,37.));
#1000=CARTESIAN_POINT('',(11.8,32.,37.5716820349031));
#1001=CARTESIAN_POINT('',(11.8,32.,49.));
#1002=CARTESIAN_POINT('',(11.8,32.,46.4283179650969));
#1003=CARTESIAN_POINT('Origin',(11.,32.,42.));
#1004=CARTESIAN_POINT('',(11.8,32.,49.));
#1005=CARTESIAN_POINT('',(17.,32.,38.));
#1006=CARTESIAN_POINT('',(17.,32.,36.));
#1007=CARTESIAN_POINT('',(15.,32.,36.));
#1008=CARTESIAN_POINT('',(18.75,32.,39.75));
#1009=CARTESIAN_POINT('',(11.,32.,36.));
#1010=CARTESIAN_POINT('Origin',(17.,28.5,44.5));
#1011=CARTESIAN_POINT('',(17.,26.,53.));
#1012=CARTESIAN_POINT('',(17.,32.,53.));
#1013=CARTESIAN_POINT('',(17.,24.25,51.25));
#1014=CARTESIAN_POINT('',(17.,30.25,38.));
#1015=CARTESIAN_POINT('',(17.,28.5,52.45));
#1016=CARTESIAN_POINT('Origin',(17.,28.5,49.7));
#1017=CARTESIAN_POINT('Origin',(11.,25.5,52.5));
#1018=CARTESIAN_POINT('',(8.5,25.,52.));
#1019=CARTESIAN_POINT('',(8.50000000000001,22.125,49.125));
#1020=CARTESIAN_POINT('',(11.,25.,52.));
#1021=CARTESIAN_POINT('Origin',(11.,25.,36.));
#1022=CARTESIAN_POINT('',(8.5,25.,45.7416573867739));
#1023=CARTESIAN_POINT('',(8.5,25.,48.75));
#1024=CARTESIAN_POINT('Origin',(11.,25.,42.));
#1025=CARTESIAN_POINT('Origin',(11.,25.5,52.5));
#1026=CARTESIAN_POINT('',(11.8,26.,53.));
#1027=CARTESIAN_POINT('',(11.,26.,53.));
#1028=CARTESIAN_POINT('',(11.8,24.375,51.375));
#1029=CARTESIAN_POINT('Origin',(11.8,28.5,45.));
#1030=CARTESIAN_POINT('',(11.8,27.5,46.4283179650969));
#1031=CARTESIAN_POINT('',(11.8,18.25,53.));
#1032=CARTESIAN_POINT('',(11.8,28.5,51.15));
#1033=CARTESIAN_POINT('Origin',(11.8,28.5,49.7));
#1034=CARTESIAN_POINT('Origin',(11.,8.5,52.5));
#1035=CARTESIAN_POINT('',(8.50000000000001,8.,52.));
#1036=CARTESIAN_POINT('',(11.,8.,52.));
#1037=CARTESIAN_POINT('',(8.50000000000001,9.37500000000001,53.375));
#1038=CARTESIAN_POINT('Origin',(8.50000000000001,20.,44.5));
#1039=CARTESIAN_POINT('',(8.50000000000001,8.,47.));
#1040=CARTESIAN_POINT('',(8.50000000000001,8.,45.25));
#1041=CARTESIAN_POINT('',(8.50000000000001,9.,46.));
#1042=CARTESIAN_POINT('',(8.50000000000001,11.875,43.125));
#1043=CARTESIAN_POINT('',(8.50000000000001,19.8,46.));
#1044=CARTESIAN_POINT('',(8.50000000000001,22.5,46.));
#1045=CARTESIAN_POINT('',(8.50000000000001,21.4186482853735,45.7416573867739));
#1046=CARTESIAN_POINT('Origin',(8.50000000000001,19.8,40.8));
#1047=CARTESIAN_POINT('',(8.5,27.5,45.7416573867739));
#1048=CARTESIAN_POINT('',(8.50000000000001,15.8,50.));
#1049=CARTESIAN_POINT('Origin',(8.50000000000001,17.5,50.));
#1050=CARTESIAN_POINT('',(8.50000000000001,9.3,50.));
#1051=CARTESIAN_POINT('Origin',(8.50000000000001,11.,50.));
#1052=CARTESIAN_POINT('Origin',(11.,8.5,46.5));
#1053=CARTESIAN_POINT('',(11.,9.,46.));
#1054=CARTESIAN_POINT('',(11.,8.,47.));
#1055=CARTESIAN_POINT('Origin',(11.,25.,46.));
#1056=CARTESIAN_POINT('',(11.,19.8,46.));
#1057=CARTESIAN_POINT('Origin',(11.,19.8,40.8));
#1058=CARTESIAN_POINT('Ctrl Pts',(6.66295031155972,25.,40.8));
#1059=CARTESIAN_POINT('Ctrl Pts',(6.58739154933717,25.,41.0730850884635));
#1060=CARTESIAN_POINT('Ctrl Pts',(6.53688174605619,24.9778926850321,41.3585435598569));
#1061=CARTESIAN_POINT('Ctrl Pts',(6.4754553829292,24.8515700774512,42.1283357967932));
#1062=CARTESIAN_POINT('Ctrl Pts',(6.52138960366238,24.6962621577276,42.6097451686335));
#1063=CARTESIAN_POINT('Ctrl Pts',(6.72701960246545,24.2796401755415,43.4909458884489));
#1064=CARTESIAN_POINT('Ctrl Pts',(6.91521038821782,23.9773458740888,43.9401315333313));
#1065=CARTESIAN_POINT('Ctrl Pts',(7.37644994675953,23.2724692821591,44.7054577305445));
#1066=CARTESIAN_POINT('Ctrl Pts',(7.6482569020562,22.8702136984086,45.0226466937042));
#1067=CARTESIAN_POINT('Ctrl Pts',(8.09765233676177,22.1566261892899,45.4497484600422));
#1068=CARTESIAN_POINT('Ctrl Pts',(8.31321663334752,21.7996564919273,45.6168575004236));
#1069=CARTESIAN_POINT('Ctrl Pts',(8.50000000000001,21.4186482853735,45.7416573867739));
#1070=CARTESIAN_POINT('Origin',(16.,30.25,37.));
#1071=CARTESIAN_POINT('',(15.,30.25,36.));
#1072=CARTESIAN_POINT('Origin',(-14.7647603485372,28.5,49.7));
#1073=CARTESIAN_POINT('',(-14.7647603485372,28.5,50.7065));
#1074=CARTESIAN_POINT('Origin',(14.5,28.5,49.7));
#1075=CARTESIAN_POINT('',(14.5,28.5,52.45));
#1076=CARTESIAN_POINT('Origin',(14.5,28.5,49.7));
#1077=CARTESIAN_POINT('',(14.5,28.5,51.15));
#1078=CARTESIAN_POINT('Origin',(14.5,28.5,49.7));
#1079=CARTESIAN_POINT('Origin',(15.75,28.5,49.7));
#1080=CARTESIAN_POINT('',(15.75,28.5,52.45));
#1081=CARTESIAN_POINT('Origin',(-14.7647603485372,28.5,49.7));
#1082=CARTESIAN_POINT('',(-14.7647603485372,28.5,51.15));
#1083=CARTESIAN_POINT('Origin',(11.8,28.5,45.));
#1084=CARTESIAN_POINT('',(11.8,27.5,37.5716820349031));
#1085=CARTESIAN_POINT('',(11.8,25.,37.));
#1086=CARTESIAN_POINT('Origin',(10.2,28.5,45.));
#1087=CARTESIAN_POINT('',(10.2,27.5,37.5716820349031));
#1088=CARTESIAN_POINT('',(10.2,25.,37.));
#1089=CARTESIAN_POINT('Origin',(11.,25.,37.));
#1090=CARTESIAN_POINT('Origin',(11.,8.,53.));
#1091=CARTESIAN_POINT('Origin',(11.,27.5,42.));
#1092=CARTESIAN_POINT('Origin',(-20.7647603485372,17.5,50.));
#1093=CARTESIAN_POINT('',(-20.7647603485372,15.8,50.));
#1094=CARTESIAN_POINT('Origin',(-20.7647603485372,11.,50.));
#1095=CARTESIAN_POINT('',(-20.7647603485372,9.3,50.));
#1096=CARTESIAN_POINT('Origin',(11.,27.5,42.));
#1097=CARTESIAN_POINT('Origin',(11.,8.,46.));
#1098=CARTESIAN_POINT('Origin',(11.,32.,36.));
#1099=UNCERTAINTY_MEASURE_WITH_UNIT(LENGTH_MEASURE(0.01),#1103,
'DISTANCE_ACCURACY_VALUE',
'Maximum model space distance between geometric entities at asserted c
onnectivities');
#1100=UNCERTAINTY_MEASURE_WITH_UNIT(LENGTH_MEASURE(0.01),#1103,
'DISTANCE_ACCURACY_VALUE',
'Maximum model space distance between geometric entities at asserted c
onnectivities');
#1101=(
GEOMETRIC_REPRESENTATION_CONTEXT(3)
GLOBAL_UNCERTAINTY_ASSIGNED_CONTEXT((#1099))
GLOBAL_UNIT_ASSIGNED_CONTEXT((#1103,#1105,#1106))
REPRESENTATION_CONTEXT('','3D')
);
#1102=(
GEOMETRIC_REPRESENTATION_CONTEXT(3)
GLOBAL_UNCERTAINTY_ASSIGNED_CONTEXT((#1100))
GLOBAL_UNIT_ASSIGNED_CONTEXT((#1103,#1105,#1106))
REPRESENTATION_CONTEXT('','3D')
);
#1103=(
LENGTH_UNIT()
NAMED_UNIT(*)
SI_UNIT(.MILLI.,.METRE.)
);
#1104=(
LENGTH_UNIT()
NAMED_UNIT(*)
SI_UNIT(.CENTI.,.METRE.)
);
#1105=(
NAMED_UNIT(*)
PLANE_ANGLE_UNIT()
SI_UNIT($,.RADIAN.)
);
#1106=(
NAMED_UNIT(*)
SI_UNIT($,.STERADIAN.)
SOLID_ANGLE_UNIT()
);
#1107=SHAPE_DEFINITION_REPRESENTATION(#1108,#1109);
#1108=PRODUCT_DEFINITION_SHAPE('',$,#1111);
#1109=SHAPE_REPRESENTATION('',(#679),#1101);
#1110=PRODUCT_DEFINITION_CONTEXT('part definition',#1115,'design');
#1111=PRODUCT_DEFINITION('PRT - 3024 - MOTHOLZST',
'PRT - 3024 - MOTHOLZST',#1112,#1110);
#1112=PRODUCT_DEFINITION_FORMATION('',$,#1117);
#1113=PRODUCT_RELATED_PRODUCT_CATEGORY('PRT - 3024 - MOTHOLZST',
'PRT - 3024 - MOTHOLZST',(#1117));
#1114=APPLICATION_PROTOCOL_DEFINITION('international standard',
'automotive_design',2009,#1115);
#1115=APPLICATION_CONTEXT(
'Core Data for Automotive Mechanical Design Process');
#1116=PRODUCT_CONTEXT('part definition',#1115,'mechanical');
#1117=PRODUCT('PRT - 3024 - MOTHOLZST','PRT - 3024 - MOTHOLZST',
'Motor holder Z stage',(#1116));
#1118=PRESENTATION_STYLE_ASSIGNMENT((#1119));
#1119=SURFACE_STYLE_USAGE(.BOTH.,#1122);
#1120=SURFACE_STYLE_RENDERING_WITH_PROPERTIES($,#1126,(#1121));
#1121=SURFACE_STYLE_TRANSPARENT(0.);
#1122=SURFACE_SIDE_STYLE('',(#1123,#1120));
#1123=SURFACE_STYLE_FILL_AREA(#1124);
#1124=FILL_AREA_STYLE('',(#1125));
#1125=FILL_AREA_STYLE_COLOUR('',#1126);
#1126=COLOUR_RGB('',0.996078431372549,0.996078431372549,1.);
ENDSEC;
END-ISO-10303-21;
