<?xml version="1.0" encoding="UTF-8" standalone="no"?>
<!DOCTYPE svg PUBLIC "-//W3C//DTD SVG 1.1//EN"
 "http://www.w3.org/Graphics/SVG/1.1/DTD/svg11.dtd">
<!-- Generated by graphviz version 12.1.2 (20240928.0832)
 -->
<!-- Pages: 1 -->
<svg width="1504pt" height="295pt"
 viewBox="0.00 0.00 1503.85 294.60" xmlns="http://www.w3.org/2000/svg" xmlns:xlink="http://www.w3.org/1999/xlink">
<g id="graph0" class="graph" transform="scale(1 1) rotate(0) translate(4 290.6)">
<polygon fill="white" stroke="none" points="-4,4 -4,-290.6 1499.85,-290.6 1499.85,4 -4,4"/>
<g id="node1" class="node">
<title></title>
<ellipse fill="none" stroke="black" cx="1154.07" cy="-268.6" rx="27" ry="18"/>
</g>
<!-- mounted&#45;mirrors -->
<g id="node2" class="node">
<title>mounted&#45;mirrors</title>
<ellipse fill="none" stroke="black" cx="613.07" cy="-179.8" rx="76.48" ry="18"/>
<text text-anchor="middle" x="613.07" y="-175.6" font-family="Times,serif" font-size="14.00">mounted&#45;mirrors</text>
</g>
<!-- &#45;&gt;mounted&#45;mirrors -->
<g id="edge1" class="edge">
<title>&#45;&gt;mounted&#45;mirrors</title>
<path fill="none" stroke="black" d="M1127.8,-263.4C1086.72,-256.84 1004.77,-243.75 935.26,-232.6 849.59,-218.86 751.12,-203.02 685.83,-192.51"/>
<polygon fill="black" stroke="black" points="686.76,-189.12 676.33,-190.99 685.65,-196.03 686.76,-189.12"/>
<text text-anchor="middle" x="994.17" y="-220" font-family="Times,serif" font-size="14.00">mounted&#45;mirrors.dsn</text>
</g>
<!-- skeleton -->
<g id="node16" class="node">
<title>skeleton</title>
<ellipse fill="none" stroke="black" cx="1062.07" cy="-179.8" rx="43.22" ry="18"/>
<text text-anchor="middle" x="1062.07" y="-175.6" font-family="Times,serif" font-size="14.00">skeleton</text>
</g>
<!-- &#45;&gt;skeleton -->
<g id="edge2" class="edge">
<title>&#45;&gt;skeleton</title>
<path fill="none" stroke="black" d="M1127.12,-265.25C1105.76,-261.81 1077.19,-253.36 1062.72,-232.6 1058.09,-225.96 1056.64,-217.58 1056.7,-209.51"/>
<polygon fill="black" stroke="black" points="1060.18,-209.92 1057.55,-199.65 1053.2,-209.31 1060.18,-209.92"/>
<text text-anchor="middle" x="1143.4" y="-220" font-family="Times,serif" font-size="14.00">primitives/cube&#45;skeleton.dsn</text>
</g>
<!-- skeleton&#45;extra&#45;1 -->
<g id="node17" class="node">
<title>skeleton&#45;extra&#45;1</title>
<ellipse fill="none" stroke="black" cx="1251.07" cy="-179.8" rx="73.78" ry="18"/>
<text text-anchor="middle" x="1251.07" y="-175.6" font-family="Times,serif" font-size="14.00">skeleton&#45;extra&#45;1</text>
</g>
<!-- &#45;&gt;skeleton&#45;extra&#45;1 -->
<g id="edge3" class="edge">
<title>&#45;&gt;skeleton&#45;extra&#45;1</title>
<path fill="none" stroke="black" d="M1178.1,-259.9C1192.8,-254.22 1211.19,-245.27 1224.07,-232.6 1230.99,-225.8 1236.51,-216.85 1240.7,-208.31"/>
<polygon fill="black" stroke="black" points="1243.85,-209.84 1244.71,-199.28 1237.45,-207.01 1243.85,-209.84"/>
<text text-anchor="middle" x="1317.19" y="-220" font-family="Times,serif" font-size="14.00">primitives/cube&#45;skeleton.dsn</text>
</g>
<!-- skeleton&#45;extra&#45;2 -->
<g id="node20" class="node">
<title>skeleton&#45;extra&#45;2</title>
<ellipse fill="none" stroke="black" cx="1422.07" cy="-179.8" rx="73.78" ry="18"/>
<text text-anchor="middle" x="1422.07" y="-175.6" font-family="Times,serif" font-size="14.00">skeleton&#45;extra&#45;2</text>
</g>
<!-- &#45;&gt;skeleton&#45;extra&#45;2 -->
<g id="edge4" class="edge">
<title>&#45;&gt;skeleton&#45;extra&#45;2</title>
<path fill="none" stroke="black" d="M1181.3,-267.15C1238.45,-265.67 1368.37,-259.37 1402.07,-232.6 1409.5,-226.7 1414.18,-217.68 1417.12,-208.81"/>
<polygon fill="black" stroke="black" points="1420.44,-209.92 1419.6,-199.36 1413.67,-208.14 1420.44,-209.92"/>
</g>
<!-- mounted&#45;mirrors/cube&#45;insert -->
<g id="node3" class="node">
<title>mounted&#45;mirrors/cube&#45;insert</title>
<ellipse fill="none" stroke="black" cx="306.07" cy="-91" rx="53.94" ry="18"/>
<text text-anchor="middle" x="306.07" y="-86.8" font-family="Times,serif" font-size="14.00">cube&#45;insert</text>
</g>
<!-- mounted&#45;mirrors&#45;&gt;mounted&#45;mirrors/cube&#45;insert -->
<g id="edge5" class="edge">
<title>mounted&#45;mirrors&#45;&gt;mounted&#45;mirrors/cube&#45;insert</title>
<path fill="none" stroke="black" d="M565.44,-165.33C508.8,-149.32 414.66,-122.7 356.72,-106.32"/>
<polygon fill="black" stroke="black" points="358.02,-103.05 347.45,-103.7 356.12,-109.79 358.02,-103.05"/>
</g>
<!-- mounted&#45;mirrors/motorized&#45;mirror&#45;1 -->
<g id="node4" class="node">
<title>mounted&#45;mirrors/motorized&#45;mirror&#45;1</title>
<ellipse fill="none" stroke="black" cx="464.07" cy="-91" rx="86.12" ry="18"/>
<text text-anchor="middle" x="464.07" y="-86.8" font-family="Times,serif" font-size="14.00">motorized&#45;mirror&#45;1</text>
</g>
<!-- mounted&#45;mirrors&#45;&gt;mounted&#45;mirrors/motorized&#45;mirror&#45;1 -->
<g id="edge6" class="edge">
<title>mounted&#45;mirrors&#45;&gt;mounted&#45;mirrors/motorized&#45;mirror&#45;1</title>
<path fill="none" stroke="black" d="M577.05,-163.46C564.54,-157.74 550.57,-150.9 538.28,-143.8 523.5,-135.27 507.9,-124.65 494.84,-115.25"/>
<polygon fill="black" stroke="black" points="497.19,-112.63 487.05,-109.56 493.06,-118.29 497.19,-112.63"/>
<text text-anchor="middle" x="628.68" y="-131.2" font-family="Times,serif" font-size="14.00">primitives/motorized&#45;mirror.dsn</text>
</g>
<!-- mounted&#45;mirrors/motorized&#45;mirror&#45;2 -->
<g id="node10" class="node">
<title>mounted&#45;mirrors/motorized&#45;mirror&#45;2</title>
<ellipse fill="none" stroke="black" cx="854.07" cy="-91" rx="86.12" ry="18"/>
<text text-anchor="middle" x="854.07" y="-86.8" font-family="Times,serif" font-size="14.00">motorized&#45;mirror&#45;2</text>
</g>
<!-- mounted&#45;mirrors&#45;&gt;mounted&#45;mirrors/motorized&#45;mirror&#45;2 -->
<g id="edge7" class="edge">
<title>mounted&#45;mirrors&#45;&gt;mounted&#45;mirrors/motorized&#45;mirror&#45;2</title>
<path fill="none" stroke="black" d="M657.33,-164.71C676.4,-158.5 698.9,-151 719.07,-143.8 747.62,-133.62 779.28,-121.51 804.75,-111.57"/>
<polygon fill="black" stroke="black" points="805.82,-114.91 813.86,-108 803.27,-108.39 805.82,-114.91"/>
<text text-anchor="middle" x="854.24" y="-131.2" font-family="Times,serif" font-size="14.00">primitives/motorized&#45;mirror.dsn</text>
</g>
<!-- mounted&#45;mirrors/motorized&#45;mirror&#45;1/motorized&#45;mirror -->
<g id="node5" class="node">
<title>mounted&#45;mirrors/motorized&#45;mirror&#45;1/motorized&#45;mirror</title>
<ellipse fill="none" stroke="black" cx="78.07" cy="-18" rx="78.07" ry="18"/>
<text text-anchor="middle" x="78.07" y="-13.8" font-family="Times,serif" font-size="14.00">motorized&#45;mirror</text>
</g>
<!-- mounted&#45;mirrors/motorized&#45;mirror&#45;1&#45;&gt;mounted&#45;mirrors/motorized&#45;mirror&#45;1/motorized&#45;mirror -->
<g id="edge8" class="edge">
<title>mounted&#45;mirrors/motorized&#45;mirror&#45;1&#45;&gt;mounted&#45;mirrors/motorized&#45;mirror&#45;1/motorized&#45;mirror</title>
<path fill="none" stroke="black" d="M400.33,-78.54C326.66,-65.28 209.94,-44.21 166.07,-36 160.05,-34.87 153.8,-33.69 147.53,-32.5"/>
<polygon fill="black" stroke="black" points="148.24,-29.07 137.77,-30.63 146.93,-35.94 148.24,-29.07"/>
</g>
<!-- mounted&#45;mirrors/motorized&#45;mirror&#45;1/mount&#45;ring -->
<g id="node6" class="node">
<title>mounted&#45;mirrors/motorized&#45;mirror&#45;1/mount&#45;ring</title>
<ellipse fill="none" stroke="black" cx="229.07" cy="-18" rx="54.49" ry="18"/>
<text text-anchor="middle" x="229.07" y="-13.8" font-family="Times,serif" font-size="14.00">mount&#45;ring</text>
</g>
<!-- mounted&#45;mirrors/motorized&#45;mirror&#45;1&#45;&gt;mounted&#45;mirrors/motorized&#45;mirror&#45;1/mount&#45;ring -->
<g id="edge9" class="edge">
<title>mounted&#45;mirrors/motorized&#45;mirror&#45;1&#45;&gt;mounted&#45;mirrors/motorized&#45;mirror&#45;1/mount&#45;ring</title>
<path fill="none" stroke="black" d="M416.52,-75.63C376.68,-63.59 319.96,-46.46 279.37,-34.2"/>
<polygon fill="black" stroke="black" points="280.41,-30.85 269.83,-31.31 278.39,-37.56 280.41,-30.85"/>
</g>
<!-- mounted&#45;mirrors/motorized&#45;mirror&#45;1/mount&#45;top -->
<g id="node7" class="node">
<title>mounted&#45;mirrors/motorized&#45;mirror&#45;1/mount&#45;top</title>
<ellipse fill="none" stroke="black" cx="353.07" cy="-18" rx="51.27" ry="18"/>
<text text-anchor="middle" x="353.07" y="-13.8" font-family="Times,serif" font-size="14.00">mount&#45;top</text>
</g>
<!-- mounted&#45;mirrors/motorized&#45;mirror&#45;1&#45;&gt;mounted&#45;mirrors/motorized&#45;mirror&#45;1/mount&#45;top -->
<g id="edge10" class="edge">
<title>mounted&#45;mirrors/motorized&#45;mirror&#45;1&#45;&gt;mounted&#45;mirrors/motorized&#45;mirror&#45;1/mount&#45;top</title>
<path fill="none" stroke="black" d="M438.33,-73.53C422.8,-63.6 402.87,-50.85 386.18,-40.17"/>
<polygon fill="black" stroke="black" points="388.37,-37.42 378.06,-34.98 384.6,-43.32 388.37,-37.42"/>
</g>
<!-- mounted&#45;mirrors/motorized&#45;mirror&#45;1/screw&#45;1 -->
<g id="node8" class="node">
<title>mounted&#45;mirrors/motorized&#45;mirror&#45;1/screw&#45;1</title>
<ellipse fill="none" stroke="black" cx="464.07" cy="-18" rx="41.6" ry="18"/>
<text text-anchor="middle" x="464.07" y="-13.8" font-family="Times,serif" font-size="14.00">screw&#45;1</text>
</g>
<!-- mounted&#45;mirrors/motorized&#45;mirror&#45;1&#45;&gt;mounted&#45;mirrors/motorized&#45;mirror&#45;1/screw&#45;1 -->
<g id="edge11" class="edge">
<title>mounted&#45;mirrors/motorized&#45;mirror&#45;1&#45;&gt;mounted&#45;mirrors/motorized&#45;mirror&#45;1/screw&#45;1</title>
<path fill="none" stroke="black" d="M464.07,-72.81C464.07,-65.23 464.07,-56.1 464.07,-47.54"/>
<polygon fill="black" stroke="black" points="467.57,-47.54 464.07,-37.54 460.57,-47.54 467.57,-47.54"/>
</g>
<!-- mounted&#45;mirrors/motorized&#45;mirror&#45;1/screw&#45;2 -->
<g id="node9" class="node">
<title>mounted&#45;mirrors/motorized&#45;mirror&#45;1/screw&#45;2</title>
<ellipse fill="none" stroke="black" cx="565.07" cy="-18" rx="41.6" ry="18"/>
<text text-anchor="middle" x="565.07" y="-13.8" font-family="Times,serif" font-size="14.00">screw&#45;2</text>
</g>
<!-- mounted&#45;mirrors/motorized&#45;mirror&#45;1&#45;&gt;mounted&#45;mirrors/motorized&#45;mirror&#45;1/screw&#45;2 -->
<g id="edge12" class="edge">
<title>mounted&#45;mirrors/motorized&#45;mirror&#45;1&#45;&gt;mounted&#45;mirrors/motorized&#45;mirror&#45;1/screw&#45;2</title>
<path fill="none" stroke="black" d="M487.75,-73.35C501.72,-63.54 519.54,-51.01 534.55,-40.45"/>
<polygon fill="black" stroke="black" points="536.54,-43.34 542.71,-34.72 532.51,-37.61 536.54,-43.34"/>
</g>
<!-- mounted&#45;mirrors/motorized&#45;mirror&#45;2/motorized&#45;mirror -->
<g id="node11" class="node">
<title>mounted&#45;mirrors/motorized&#45;mirror&#45;2/motorized&#45;mirror</title>
<ellipse fill="none" stroke="black" cx="703.07" cy="-18" rx="78.07" ry="18"/>
<text text-anchor="middle" x="703.07" y="-13.8" font-family="Times,serif" font-size="14.00">motorized&#45;mirror</text>
</g>
<!-- mounted&#45;mirrors/motorized&#45;mirror&#45;2&#45;&gt;mounted&#45;mirrors/motorized&#45;mirror&#45;2/motorized&#45;mirror -->
<g id="edge13" class="edge">
<title>mounted&#45;mirrors/motorized&#45;mirror&#45;2&#45;&gt;mounted&#45;mirrors/motorized&#45;mirror&#45;2/motorized&#45;mirror</title>
<path fill="none" stroke="black" d="M820.19,-74.07C798.47,-63.86 770.07,-50.5 746.68,-39.5"/>
<polygon fill="black" stroke="black" points="748.24,-36.37 737.7,-35.28 745.26,-42.7 748.24,-36.37"/>
</g>
<!-- mounted&#45;mirrors/motorized&#45;mirror&#45;2/mount&#45;ring -->
<g id="node12" class="node">
<title>mounted&#45;mirrors/motorized&#45;mirror&#45;2/mount&#45;ring</title>
<ellipse fill="none" stroke="black" cx="854.07" cy="-18" rx="54.49" ry="18"/>
<text text-anchor="middle" x="854.07" y="-13.8" font-family="Times,serif" font-size="14.00">mount&#45;ring</text>
</g>
<!-- mounted&#45;mirrors/motorized&#45;mirror&#45;2&#45;&gt;mounted&#45;mirrors/motorized&#45;mirror&#45;2/mount&#45;ring -->
<g id="edge14" class="edge">
<title>mounted&#45;mirrors/motorized&#45;mirror&#45;2&#45;&gt;mounted&#45;mirrors/motorized&#45;mirror&#45;2/mount&#45;ring</title>
<path fill="none" stroke="black" d="M854.07,-72.81C854.07,-65.23 854.07,-56.1 854.07,-47.54"/>
<polygon fill="black" stroke="black" points="857.57,-47.54 854.07,-37.54 850.57,-47.54 857.57,-47.54"/>
</g>
<!-- mounted&#45;mirrors/motorized&#45;mirror&#45;2/mount&#45;top -->
<g id="node13" class="node">
<title>mounted&#45;mirrors/motorized&#45;mirror&#45;2/mount&#45;top</title>
<ellipse fill="none" stroke="black" cx="978.07" cy="-18" rx="51.27" ry="18"/>
<text text-anchor="middle" x="978.07" y="-13.8" font-family="Times,serif" font-size="14.00">mount&#45;top</text>
</g>
<!-- mounted&#45;mirrors/motorized&#45;mirror&#45;2&#45;&gt;mounted&#45;mirrors/motorized&#45;mirror&#45;2/mount&#45;top -->
<g id="edge15" class="edge">
<title>mounted&#45;mirrors/motorized&#45;mirror&#45;2&#45;&gt;mounted&#45;mirrors/motorized&#45;mirror&#45;2/mount&#45;top</title>
<path fill="none" stroke="black" d="M882.52,-73.71C900.34,-63.51 923.45,-50.28 942.48,-39.38"/>
<polygon fill="black" stroke="black" points="944.04,-42.52 950.98,-34.52 940.56,-36.45 944.04,-42.52"/>
</g>
<!-- mounted&#45;mirrors/motorized&#45;mirror&#45;2/screw&#45;1 -->
<g id="node14" class="node">
<title>mounted&#45;mirrors/motorized&#45;mirror&#45;2/screw&#45;1</title>
<ellipse fill="none" stroke="black" cx="1089.07" cy="-18" rx="41.6" ry="18"/>
<text text-anchor="middle" x="1089.07" y="-13.8" font-family="Times,serif" font-size="14.00">screw&#45;1</text>
</g>
<!-- mounted&#45;mirrors/motorized&#45;mirror&#45;2&#45;&gt;mounted&#45;mirrors/motorized&#45;mirror&#45;2/screw&#45;1 -->
<g id="edge16" class="edge">
<title>mounted&#45;mirrors/motorized&#45;mirror&#45;2&#45;&gt;mounted&#45;mirrors/motorized&#45;mirror&#45;2/screw&#45;1</title>
<path fill="none" stroke="black" d="M903.81,-75.93C940.92,-65.31 992.8,-50.18 1038.07,-36 1040.76,-35.16 1043.53,-34.28 1046.31,-33.38"/>
<polygon fill="black" stroke="black" points="1047.17,-36.78 1055.59,-30.35 1045,-30.13 1047.17,-36.78"/>
</g>
<!-- mounted&#45;mirrors/motorized&#45;mirror&#45;2/screw&#45;2 -->
<g id="node15" class="node">
<title>mounted&#45;mirrors/motorized&#45;mirror&#45;2/screw&#45;2</title>
<ellipse fill="none" stroke="black" cx="1190.07" cy="-18" rx="41.6" ry="18"/>
<text text-anchor="middle" x="1190.07" y="-13.8" font-family="Times,serif" font-size="14.00">screw&#45;2</text>
</g>
<!-- mounted&#45;mirrors/motorized&#45;mirror&#45;2&#45;&gt;mounted&#45;mirrors/motorized&#45;mirror&#45;2/screw&#45;2 -->
<g id="edge17" class="edge">
<title>mounted&#45;mirrors/motorized&#45;mirror&#45;2&#45;&gt;mounted&#45;mirrors/motorized&#45;mirror&#45;2/screw&#45;2</title>
<path fill="none" stroke="black" d="M917.77,-78.47C995.4,-64.33 1118.91,-41.57 1140.07,-36 1142.66,-35.32 1145.3,-34.58 1147.95,-33.79"/>
<polygon fill="black" stroke="black" points="1148.87,-37.17 1157.36,-30.84 1146.77,-30.49 1148.87,-37.17"/>
</g>
<!-- skeleton/lower&#45;half -->
<g id="node21" class="node">
<title>skeleton/lower&#45;half</title>
<ellipse fill="none" stroke="black" cx="1009.07" cy="-91" rx="51.25" ry="18"/>
<text text-anchor="middle" x="1009.07" y="-86.8" font-family="Times,serif" font-size="14.00">lower&#45;half</text>
</g>
<!-- skeleton&#45;&gt;skeleton/lower&#45;half -->
<g id="edge18" class="edge">
<title>skeleton&#45;&gt;skeleton/lower&#45;half</title>
<path fill="none" stroke="black" d="M1051.86,-162.06C1044.35,-149.78 1034,-132.83 1025.37,-118.68"/>
<polygon fill="black" stroke="black" points="1028.43,-116.98 1020.23,-110.27 1022.46,-120.63 1028.43,-116.98"/>
</g>
<!-- skeleton/upper&#45;half -->
<g id="node22" class="node">
<title>skeleton/upper&#45;half</title>
<ellipse fill="none" stroke="black" cx="1130.07" cy="-91" rx="51.25" ry="18"/>
<text text-anchor="middle" x="1130.07" y="-86.8" font-family="Times,serif" font-size="14.00">upper&#45;half</text>
</g>
<!-- skeleton&#45;&gt;skeleton/upper&#45;half -->
<g id="edge19" class="edge">
<title>skeleton&#45;&gt;skeleton/upper&#45;half</title>
<path fill="none" stroke="black" d="M1074.86,-162.47C1084.71,-149.9 1098.51,-132.29 1109.85,-117.82"/>
<polygon fill="black" stroke="black" points="1112.53,-120.07 1115.94,-110.04 1107.02,-115.75 1112.53,-120.07"/>
</g>
<!-- skeleton&#45;extra&#45;1/lower&#45;half -->
<g id="node18" class="node">
<title>skeleton&#45;extra&#45;1/lower&#45;half</title>
<ellipse fill="none" stroke="black" cx="1251.07" cy="-91" rx="51.25" ry="18"/>
<text text-anchor="middle" x="1251.07" y="-86.8" font-family="Times,serif" font-size="14.00">lower&#45;half</text>
</g>
<!-- skeleton&#45;extra&#45;1&#45;&gt;skeleton&#45;extra&#45;1/lower&#45;half -->
<g id="edge20" class="edge">
<title>skeleton&#45;extra&#45;1&#45;&gt;skeleton&#45;extra&#45;1/lower&#45;half</title>
<path fill="none" stroke="black" d="M1251.07,-161.65C1251.07,-149.96 1251.07,-134.19 1251.07,-120.62"/>
<polygon fill="black" stroke="black" points="1254.57,-120.92 1251.07,-110.92 1247.57,-120.92 1254.57,-120.92"/>
</g>
<!-- skeleton&#45;extra&#45;1/upper&#45;half -->
<g id="node19" class="node">
<title>skeleton&#45;extra&#45;1/upper&#45;half</title>
<ellipse fill="none" stroke="black" cx="1372.07" cy="-91" rx="51.25" ry="18"/>
<text text-anchor="middle" x="1372.07" y="-86.8" font-family="Times,serif" font-size="14.00">upper&#45;half</text>
</g>
<!-- skeleton&#45;extra&#45;1&#45;&gt;skeleton&#45;extra&#45;1/upper&#45;half -->
<g id="edge21" class="edge">
<title>skeleton&#45;extra&#45;1&#45;&gt;skeleton&#45;extra&#45;1/upper&#45;half</title>
<path fill="none" stroke="black" d="M1274.12,-162.27C1293.15,-148.62 1320.32,-129.12 1341.23,-114.13"/>
<polygon fill="black" stroke="black" points="1343.02,-117.15 1349.11,-108.48 1338.94,-111.46 1343.02,-117.15"/>
</g>
</g>
</svg>
