<?xml version="1.0" encoding="UTF-8" standalone="no"?>
<!DOCTYPE svg PUBLIC "-//W3C//DTD SVG 1.1//EN"
 "http://www.w3.org/Graphics/SVG/1.1/DTD/svg11.dtd">
<!-- Generated by graphviz version 12.1.2 (20240928.0832)
 -->
<!-- Pages: 1 -->
<svg width="289pt" height="561pt"
 viewBox="0.00 0.00 289.13 561.00" xmlns="http://www.w3.org/2000/svg" xmlns:xlink="http://www.w3.org/1999/xlink">
<g id="graph0" class="graph" transform="scale(1 1) rotate(0) translate(4 557)">
<polygon fill="white" stroke="none" points="-4,4 -4,-557 285.13,-557 285.13,4 -4,4"/>
<g id="node1" class="node">
<title></title>
<ellipse fill="none" stroke="black" cx="112.16" cy="-535" rx="27" ry="18"/>
</g>
<!-- sample&#45;holder -->
<g id="node7" class="node">
<title>sample&#45;holder</title>
<ellipse fill="none" stroke="black" cx="112.16" cy="-462" rx="66.28" ry="18"/>
<text text-anchor="middle" x="112.16" y="-457.8" font-family="Times,serif" font-size="14.00">sample&#45;holder</text>
</g>
<!-- &#45;&gt;sample&#45;holder -->
<g id="edge1" class="edge">
<title>&#45;&gt;sample&#45;holder</title>
<path fill="none" stroke="black" d="M112.16,-516.81C112.16,-509.23 112.16,-500.1 112.16,-491.54"/>
<polygon fill="black" stroke="black" points="115.66,-491.54 112.16,-481.54 108.66,-491.54 115.66,-491.54"/>
</g>
<!-- light&#45;source -->
<g id="node2" class="node">
<title>light&#45;source</title>
<ellipse fill="none" stroke="black" cx="57.16" cy="-373.2" rx="57.16" ry="18"/>
<text text-anchor="middle" x="57.16" y="-369" font-family="Times,serif" font-size="14.00">light&#45;source</text>
</g>
<!-- objective&#45;lens -->
<g id="node3" class="node">
<title>objective&#45;lens</title>
<ellipse fill="none" stroke="black" cx="197.16" cy="-373.2" rx="65.2" ry="18"/>
<text text-anchor="middle" x="197.16" y="-369" font-family="Times,serif" font-size="14.00">objective&#45;lens</text>
</g>
<!-- periscope&#45;mirror&#45;1 -->
<g id="node4" class="node">
<title>periscope&#45;mirror&#45;1</title>
<ellipse fill="none" stroke="black" cx="197.16" cy="-284.4" rx="83.97" ry="18"/>
<text text-anchor="middle" x="197.16" y="-280.2" font-family="Times,serif" font-size="14.00">periscope&#45;mirror&#45;1</text>
</g>
<!-- objective&#45;lens&#45;&gt;periscope&#45;mirror&#45;1 -->
<g id="edge2" class="edge">
<title>objective&#45;lens&#45;&gt;periscope&#45;mirror&#45;1</title>
<path fill="none" stroke="black" d="M197.16,-355.05C197.16,-343.36 197.16,-327.59 197.16,-314.02"/>
<polygon fill="black" stroke="black" points="200.66,-314.32 197.16,-304.32 193.66,-314.32 200.66,-314.32"/>
<text text-anchor="middle" x="212.77" y="-324.6" font-family="Times,serif" font-size="14.00">[x+1]</text>
</g>
<!-- periscope&#45;mirror&#45;2 -->
<g id="node5" class="node">
<title>periscope&#45;mirror&#45;2</title>
<ellipse fill="none" stroke="black" cx="197.16" cy="-195.6" rx="83.97" ry="18"/>
<text text-anchor="middle" x="197.16" y="-191.4" font-family="Times,serif" font-size="14.00">periscope&#45;mirror&#45;2</text>
</g>
<!-- periscope&#45;mirror&#45;1&#45;&gt;periscope&#45;mirror&#45;2 -->
<g id="edge3" class="edge">
<title>periscope&#45;mirror&#45;1&#45;&gt;periscope&#45;mirror&#45;2</title>
<path fill="none" stroke="black" d="M197.16,-266.25C197.16,-254.56 197.16,-238.79 197.16,-225.22"/>
<polygon fill="black" stroke="black" points="200.66,-225.52 197.16,-215.52 193.66,-225.52 200.66,-225.52"/>
<text text-anchor="middle" x="216.27" y="-235.8" font-family="Times,serif" font-size="14.00">[y+10]</text>
</g>
<!-- tube&#45;lens -->
<g id="node8" class="node">
<title>tube&#45;lens</title>
<ellipse fill="none" stroke="black" cx="197.16" cy="-106.8" rx="46.43" ry="18"/>
<text text-anchor="middle" x="197.16" y="-102.6" font-family="Times,serif" font-size="14.00">tube&#45;lens</text>
</g>
<!-- periscope&#45;mirror&#45;2&#45;&gt;tube&#45;lens -->
<g id="edge4" class="edge">
<title>periscope&#45;mirror&#45;2&#45;&gt;tube&#45;lens</title>
<path fill="none" stroke="black" d="M197.16,-177.45C197.16,-165.76 197.16,-149.99 197.16,-136.42"/>
<polygon fill="black" stroke="black" points="200.66,-136.72 197.16,-126.72 193.66,-136.72 200.66,-136.72"/>
<text text-anchor="middle" x="212.77" y="-147" font-family="Times,serif" font-size="14.00">[x+3]</text>
</g>
<!-- projector&#45;screen -->
<g id="node6" class="node">
<title>projector&#45;screen</title>
<ellipse fill="none" stroke="black" cx="197.16" cy="-18" rx="73.77" ry="18"/>
<text text-anchor="middle" x="197.16" y="-13.8" font-family="Times,serif" font-size="14.00">projector&#45;screen</text>
</g>
<!-- sample&#45;holder&#45;&gt;light&#45;source -->
<g id="edge5" class="edge">
<title>sample&#45;holder&#45;&gt;light&#45;source</title>
<path fill="none" stroke="black" d="M98.59,-443.89C94.35,-438.3 89.78,-431.99 85.9,-426 80.84,-418.2 75.77,-409.45 71.33,-401.39"/>
<polygon fill="black" stroke="black" points="74.45,-399.81 66.63,-392.67 68.29,-403.13 74.45,-399.81"/>
<text text-anchor="middle" x="116.03" y="-413.4" font-family="Times,serif" font-size="14.00">[x&#45;80] mm</text>
</g>
<!-- sample&#45;holder&#45;&gt;objective&#45;lens -->
<g id="edge6" class="edge">
<title>sample&#45;holder&#45;&gt;objective&#45;lens</title>
<path fill="none" stroke="black" d="M128.55,-444.26C141.13,-431.42 158.7,-413.48 172.91,-398.97"/>
<polygon fill="black" stroke="black" points="175.27,-401.56 179.76,-391.97 170.27,-396.66 175.27,-401.56"/>
<text text-anchor="middle" x="177.88" y="-413.4" font-family="Times,serif" font-size="14.00">[x+1]</text>
</g>
<!-- tube&#45;lens&#45;&gt;projector&#45;screen -->
<g id="edge7" class="edge">
<title>tube&#45;lens&#45;&gt;projector&#45;screen</title>
<path fill="none" stroke="black" d="M197.16,-88.65C197.16,-76.96 197.16,-61.19 197.16,-47.62"/>
<polygon fill="black" stroke="black" points="200.66,-47.92 197.16,-37.92 193.66,-47.92 200.66,-47.92"/>
<text text-anchor="middle" x="232.41" y="-58.2" font-family="Times,serif" font-size="14.00">[x+100] mm</text>
</g>
</g>
</svg>
