<?xml version="1.0" encoding="UTF-8" standalone="no"?>
<!DOCTYPE svg PUBLIC "-//W3C//DTD SVG 1.1//EN"
 "http://www.w3.org/Graphics/SVG/1.1/DTD/svg11.dtd">
<!-- Generated by graphviz version 12.1.2 (20240928.0832)
 -->
<!-- Pages: 1 -->
<svg width="3593pt" height="634pt"
 viewBox="0.00 0.00 3593.16 634.00" xmlns="http://www.w3.org/2000/svg" xmlns:xlink="http://www.w3.org/1999/xlink">
<g id="graph0" class="graph" transform="scale(1 1) rotate(0) translate(4 630)">
<polygon fill="white" stroke="none" points="-4,4 -4,-630 3589.16,-630 3589.16,4 -4,4"/>
<g id="node1" class="node">
<title></title>
<ellipse fill="none" stroke="black" cx="1038.96" cy="-608" rx="27" ry="18"/>
</g>
<!-- sample&#45;holder -->
<g id="node25" class="node">
<title>sample&#45;holder</title>
<ellipse fill="none" stroke="black" cx="1038.96" cy="-535" rx="66.28" ry="18"/>
<text text-anchor="middle" x="1038.96" y="-530.8" font-family="Times,serif" font-size="14.00">sample&#45;holder</text>
</g>
<!-- &#45;&gt;sample&#45;holder -->
<g id="edge1" class="edge">
<title>&#45;&gt;sample&#45;holder</title>
<path fill="none" stroke="black" d="M1038.96,-589.81C1038.96,-582.23 1038.96,-573.1 1038.96,-564.54"/>
<polygon fill="black" stroke="black" points="1042.46,-564.54 1038.96,-554.54 1035.46,-564.54 1042.46,-564.54"/>
</g>
<!-- light&#45;source -->
<g id="node2" class="node">
<title>light&#45;source</title>
<ellipse fill="none" stroke="black" cx="819.96" cy="-446.2" rx="57.16" ry="18"/>
<text text-anchor="middle" x="819.96" y="-442" font-family="Times,serif" font-size="14.00">light&#45;source</text>
</g>
<!-- objective&#45;lens -->
<g id="node3" class="node">
<title>objective&#45;lens</title>
<ellipse fill="none" stroke="black" cx="959.96" cy="-446.2" rx="65.2" ry="18"/>
<text text-anchor="middle" x="959.96" y="-442" font-family="Times,serif" font-size="14.00">objective&#45;lens</text>
</g>
<!-- objective&#45;lens/mounted&#45;lens -->
<g id="node4" class="node">
<title>objective&#45;lens/mounted&#45;lens</title>
<ellipse fill="none" stroke="black" cx="464.96" cy="-357.4" rx="120.45" ry="18"/>
<text text-anchor="middle" x="464.96" y="-353.2" font-family="Times,serif" font-size="14.00">objective&#45;lens/mounted&#45;lens</text>
</g>
<!-- objective&#45;lens&#45;&gt;objective&#45;lens/mounted&#45;lens -->
<g id="edge2" class="edge">
<title>objective&#45;lens&#45;&gt;objective&#45;lens/mounted&#45;lens</title>
<path fill="none" stroke="black" d="M911.89,-433.7C903.27,-431.77 894.36,-429.86 885.96,-428.2 774.49,-406.18 645.48,-385.49 559.96,-372.44"/>
<polygon fill="black" stroke="black" points="560.62,-369 550.2,-370.96 559.56,-375.92 560.62,-369"/>
</g>
<!-- objective&#45;lens/skeleton -->
<g id="node5" class="node">
<title>objective&#45;lens/skeleton</title>
<ellipse fill="none" stroke="black" cx="703.96" cy="-357.4" rx="100.07" ry="18"/>
<text text-anchor="middle" x="703.96" y="-353.2" font-family="Times,serif" font-size="14.00">objective&#45;lens/skeleton</text>
</g>
<!-- objective&#45;lens&#45;&gt;objective&#45;lens/skeleton -->
<g id="edge3" class="edge">
<title>objective&#45;lens&#45;&gt;objective&#45;lens/skeleton</title>
<path fill="none" stroke="black" d="M919.96,-431.64C876.95,-417.05 808.24,-393.76 759.89,-377.36"/>
<polygon fill="black" stroke="black" points="761.31,-374.15 750.72,-374.25 759.06,-380.78 761.31,-374.15"/>
</g>
<!-- periscope&#45;mirror&#45;1 -->
<g id="node8" class="node">
<title>periscope&#45;mirror&#45;1</title>
<ellipse fill="none" stroke="black" cx="959.96" cy="-357.4" rx="83.97" ry="18"/>
<text text-anchor="middle" x="959.96" y="-353.2" font-family="Times,serif" font-size="14.00">periscope&#45;mirror&#45;1</text>
</g>
<!-- objective&#45;lens&#45;&gt;periscope&#45;mirror&#45;1 -->
<g id="edge4" class="edge">
<title>objective&#45;lens&#45;&gt;periscope&#45;mirror&#45;1</title>
<path fill="none" stroke="black" d="M959.96,-428.05C959.96,-416.36 959.96,-400.59 959.96,-387.02"/>
<polygon fill="black" stroke="black" points="963.46,-387.32 959.96,-377.32 956.46,-387.32 963.46,-387.32"/>
<text text-anchor="middle" x="975.57" y="-397.6" font-family="Times,serif" font-size="14.00">[x+1]</text>
</g>
<!-- objective&#45;lens/skeleton/lower&#45;half -->
<g id="node6" class="node">
<title>objective&#45;lens/skeleton/lower&#45;half</title>
<ellipse fill="none" stroke="black" cx="346.96" cy="-268.6" rx="142.97" ry="18"/>
<text text-anchor="middle" x="346.96" y="-264.4" font-family="Times,serif" font-size="14.00">objective&#45;lens/skeleton/lower&#45;half</text>
</g>
<!-- objective&#45;lens/skeleton&#45;&gt;objective&#45;lens/skeleton/lower&#45;half -->
<g id="edge5" class="edge">
<title>objective&#45;lens/skeleton&#45;&gt;objective&#45;lens/skeleton/lower&#45;half</title>
<path fill="none" stroke="black" d="M646.2,-342.36C585.08,-327.5 488.38,-303.99 421.53,-287.73"/>
<polygon fill="black" stroke="black" points="422.67,-284.41 412.13,-285.44 421.02,-291.21 422.67,-284.41"/>
</g>
<!-- objective&#45;lens/skeleton/upper&#45;half -->
<g id="node7" class="node">
<title>objective&#45;lens/skeleton/upper&#45;half</title>
<ellipse fill="none" stroke="black" cx="650.96" cy="-268.6" rx="142.97" ry="18"/>
<text text-anchor="middle" x="650.96" y="-264.4" font-family="Times,serif" font-size="14.00">objective&#45;lens/skeleton/upper&#45;half</text>
</g>
<!-- objective&#45;lens/skeleton&#45;&gt;objective&#45;lens/skeleton/upper&#45;half -->
<g id="edge6" class="edge">
<title>objective&#45;lens/skeleton&#45;&gt;objective&#45;lens/skeleton/upper&#45;half</title>
<path fill="none" stroke="black" d="M693.49,-339.25C686.06,-327.09 675.94,-310.51 667.44,-296.58"/>
<polygon fill="black" stroke="black" points="670.58,-295.01 662.38,-288.3 664.6,-298.66 670.58,-295.01"/>
</g>
<!-- periscope&#45;mirror&#45;1/mounted&#45;mirror -->
<g id="node9" class="node">
<title>periscope&#45;mirror&#45;1/mounted&#45;mirror</title>
<ellipse fill="none" stroke="black" cx="959.96" cy="-268.6" rx="148.33" ry="18"/>
<text text-anchor="middle" x="959.96" y="-264.4" font-family="Times,serif" font-size="14.00">periscope&#45;mirror&#45;1/mounted&#45;mirror</text>
</g>
<!-- periscope&#45;mirror&#45;1&#45;&gt;periscope&#45;mirror&#45;1/mounted&#45;mirror -->
<g id="edge7" class="edge">
<title>periscope&#45;mirror&#45;1&#45;&gt;periscope&#45;mirror&#45;1/mounted&#45;mirror</title>
<path fill="none" stroke="black" d="M959.96,-339.25C959.96,-327.56 959.96,-311.79 959.96,-298.22"/>
<polygon fill="black" stroke="black" points="963.46,-298.52 959.96,-288.52 956.46,-298.52 963.46,-298.52"/>
</g>
<!-- periscope&#45;mirror&#45;1/skeleton -->
<g id="node13" class="node">
<title>periscope&#45;mirror&#45;1/skeleton</title>
<ellipse fill="none" stroke="black" cx="1314.96" cy="-268.6" rx="118.83" ry="18"/>
<text text-anchor="middle" x="1314.96" y="-264.4" font-family="Times,serif" font-size="14.00">periscope&#45;mirror&#45;1/skeleton</text>
</g>
<!-- periscope&#45;mirror&#45;1&#45;&gt;periscope&#45;mirror&#45;1/skeleton -->
<g id="edge8" class="edge">
<title>periscope&#45;mirror&#45;1&#45;&gt;periscope&#45;mirror&#45;1/skeleton</title>
<path fill="none" stroke="black" d="M1013.88,-343.22C1075.15,-328.23 1175.44,-303.71 1243.26,-287.13"/>
<polygon fill="black" stroke="black" points="1243.92,-290.57 1252.81,-284.8 1242.26,-283.77 1243.92,-290.57"/>
</g>
<!-- periscope&#45;mirror&#45;2 -->
<g id="node16" class="node">
<title>periscope&#45;mirror&#45;2</title>
<ellipse fill="none" stroke="black" cx="2160.96" cy="-268.6" rx="83.97" ry="18"/>
<text text-anchor="middle" x="2160.96" y="-264.4" font-family="Times,serif" font-size="14.00">periscope&#45;mirror&#45;2</text>
</g>
<!-- periscope&#45;mirror&#45;1&#45;&gt;periscope&#45;mirror&#45;2 -->
<g id="edge9" class="edge">
<title>periscope&#45;mirror&#45;1&#45;&gt;periscope&#45;mirror&#45;2</title>
<path fill="none" stroke="black" d="M1019.83,-344.38C1030.82,-342.48 1042.21,-340.72 1052.96,-339.4 1426.29,-293.68 1874.26,-277.11 2066.16,-271.81"/>
<polygon fill="black" stroke="black" points="2066.19,-275.31 2076.09,-271.54 2066,-268.31 2066.19,-275.31"/>
<text text-anchor="middle" x="1406.02" y="-308.8" font-family="Times,serif" font-size="14.00">[y+10]</text>
</g>
<!-- periscope&#45;mirror&#45;1/mounted&#45;mirror/adhesive&#45;pad -->
<g id="node10" class="node">
<title>periscope&#45;mirror&#45;1/mounted&#45;mirror/adhesive&#45;pad</title>
<ellipse fill="none" stroke="black" cx="201.96" cy="-179.8" rx="201.96" ry="18"/>
<text text-anchor="middle" x="201.96" y="-175.6" font-family="Times,serif" font-size="14.00">periscope&#45;mirror&#45;1/mounted&#45;mirror/adhesive&#45;pad</text>
</g>
<!-- periscope&#45;mirror&#45;1/mounted&#45;mirror&#45;&gt;periscope&#45;mirror&#45;1/mounted&#45;mirror/adhesive&#45;pad -->
<g id="edge10" class="edge">
<title>periscope&#45;mirror&#45;1/mounted&#45;mirror&#45;&gt;periscope&#45;mirror&#45;1/mounted&#45;mirror/adhesive&#45;pad</title>
<path fill="none" stroke="black" d="M852.72,-255.79C836.07,-254.01 819.05,-252.23 802.96,-250.6 718.28,-242.02 696.9,-241.93 612.3,-232.6 514.31,-221.79 403.4,-207.68 321.62,-196.91"/>
<polygon fill="black" stroke="black" points="322.15,-193.45 311.78,-195.61 321.23,-200.39 322.15,-193.45"/>
<text text-anchor="middle" x="676.13" y="-220" font-family="Times,serif" font-size="14.00">+[&#45;0.50 0.50 0.00] mm</text>
</g>
<!-- periscope&#45;mirror&#45;1/mounted&#45;mirror/insert -->
<g id="node11" class="node">
<title>periscope&#45;mirror&#45;1/mounted&#45;mirror/insert</title>
<ellipse fill="none" stroke="black" cx="593.96" cy="-179.8" rx="172.47" ry="18"/>
<text text-anchor="middle" x="593.96" y="-175.6" font-family="Times,serif" font-size="14.00">periscope&#45;mirror&#45;1/mounted&#45;mirror/insert</text>
</g>
<!-- periscope&#45;mirror&#45;1/mounted&#45;mirror&#45;&gt;periscope&#45;mirror&#45;1/mounted&#45;mirror/insert -->
<g id="edge11" class="edge">
<title>periscope&#45;mirror&#45;1/mounted&#45;mirror&#45;&gt;periscope&#45;mirror&#45;1/mounted&#45;mirror/insert</title>
<path fill="none" stroke="black" d="M894.53,-252.08C832.2,-237.3 738.32,-215.04 672.1,-199.33"/>
<polygon fill="black" stroke="black" points="673.31,-196.02 662.78,-197.12 671.7,-202.83 673.31,-196.02"/>
</g>
<!-- periscope&#45;mirror&#45;1/mounted&#45;mirror/mirror -->
<g id="node12" class="node">
<title>periscope&#45;mirror&#45;1/mounted&#45;mirror/mirror</title>
<ellipse fill="none" stroke="black" cx="959.96" cy="-179.8" rx="175.69" ry="18"/>
<text text-anchor="middle" x="959.96" y="-175.6" font-family="Times,serif" font-size="14.00">periscope&#45;mirror&#45;1/mounted&#45;mirror/mirror</text>
</g>
<!-- periscope&#45;mirror&#45;1/mounted&#45;mirror&#45;&gt;periscope&#45;mirror&#45;1/mounted&#45;mirror/mirror -->
<g id="edge12" class="edge">
<title>periscope&#45;mirror&#45;1/mounted&#45;mirror&#45;&gt;periscope&#45;mirror&#45;1/mounted&#45;mirror/mirror</title>
<path fill="none" stroke="black" d="M959.96,-250.45C959.96,-238.76 959.96,-222.99 959.96,-209.42"/>
<polygon fill="black" stroke="black" points="963.46,-209.72 959.96,-199.72 956.46,-209.72 963.46,-209.72"/>
</g>
<!-- periscope&#45;mirror&#45;1/skeleton/lower&#45;half -->
<g id="node14" class="node">
<title>periscope&#45;mirror&#45;1/skeleton/lower&#45;half</title>
<ellipse fill="none" stroke="black" cx="1314.96" cy="-179.8" rx="161.73" ry="18"/>
<text text-anchor="middle" x="1314.96" y="-175.6" font-family="Times,serif" font-size="14.00">periscope&#45;mirror&#45;1/skeleton/lower&#45;half</text>
</g>
<!-- periscope&#45;mirror&#45;1/skeleton&#45;&gt;periscope&#45;mirror&#45;1/skeleton/lower&#45;half -->
<g id="edge13" class="edge">
<title>periscope&#45;mirror&#45;1/skeleton&#45;&gt;periscope&#45;mirror&#45;1/skeleton/lower&#45;half</title>
<path fill="none" stroke="black" d="M1314.96,-250.45C1314.96,-238.76 1314.96,-222.99 1314.96,-209.42"/>
<polygon fill="black" stroke="black" points="1318.46,-209.72 1314.96,-199.72 1311.46,-209.72 1318.46,-209.72"/>
</g>
<!-- periscope&#45;mirror&#45;1/skeleton/upper&#45;half -->
<g id="node15" class="node">
<title>periscope&#45;mirror&#45;1/skeleton/upper&#45;half</title>
<ellipse fill="none" stroke="black" cx="1655.96" cy="-179.8" rx="161.73" ry="18"/>
<text text-anchor="middle" x="1655.96" y="-175.6" font-family="Times,serif" font-size="14.00">periscope&#45;mirror&#45;1/skeleton/upper&#45;half</text>
</g>
<!-- periscope&#45;mirror&#45;1/skeleton&#45;&gt;periscope&#45;mirror&#45;1/skeleton/upper&#45;half -->
<g id="edge14" class="edge">
<title>periscope&#45;mirror&#45;1/skeleton&#45;&gt;periscope&#45;mirror&#45;1/skeleton/upper&#45;half</title>
<path fill="none" stroke="black" d="M1373.97,-252.58C1431.69,-237.89 1519.78,-215.46 1582.12,-199.6"/>
<polygon fill="black" stroke="black" points="1582.76,-203.04 1591.59,-197.19 1581.03,-196.26 1582.76,-203.04"/>
</g>
<!-- periscope&#45;mirror&#45;2/mounted&#45;mirror -->
<g id="node17" class="node">
<title>periscope&#45;mirror&#45;2/mounted&#45;mirror</title>
<ellipse fill="none" stroke="black" cx="1983.96" cy="-179.8" rx="148.33" ry="18"/>
<text text-anchor="middle" x="1983.96" y="-175.6" font-family="Times,serif" font-size="14.00">periscope&#45;mirror&#45;2/mounted&#45;mirror</text>
</g>
<!-- periscope&#45;mirror&#45;2&#45;&gt;periscope&#45;mirror&#45;2/mounted&#45;mirror -->
<g id="edge15" class="edge">
<title>periscope&#45;mirror&#45;2&#45;&gt;periscope&#45;mirror&#45;2/mounted&#45;mirror</title>
<path fill="none" stroke="black" d="M2128.49,-251.68C2100.43,-237.92 2059.59,-217.89 2028.48,-202.63"/>
<polygon fill="black" stroke="black" points="2030.21,-199.58 2019.69,-198.32 2027.13,-205.87 2030.21,-199.58"/>
</g>
<!-- periscope&#45;mirror&#45;2/skeleton -->
<g id="node21" class="node">
<title>periscope&#45;mirror&#45;2/skeleton</title>
<ellipse fill="none" stroke="black" cx="2338.96" cy="-179.8" rx="118.83" ry="18"/>
<text text-anchor="middle" x="2338.96" y="-175.6" font-family="Times,serif" font-size="14.00">periscope&#45;mirror&#45;2/skeleton</text>
</g>
<!-- periscope&#45;mirror&#45;2&#45;&gt;periscope&#45;mirror&#45;2/skeleton -->
<g id="edge16" class="edge">
<title>periscope&#45;mirror&#45;2&#45;&gt;periscope&#45;mirror&#45;2/skeleton</title>
<path fill="none" stroke="black" d="M2193.61,-251.68C2221.92,-237.87 2263.16,-217.76 2294.49,-202.49"/>
<polygon fill="black" stroke="black" points="2295.88,-205.7 2303.34,-198.17 2292.82,-199.41 2295.88,-205.7"/>
</g>
<!-- tube&#45;lens -->
<g id="node32" class="node">
<title>tube&#45;lens</title>
<ellipse fill="none" stroke="black" cx="3029.96" cy="-179.8" rx="46.43" ry="18"/>
<text text-anchor="middle" x="3029.96" y="-175.6" font-family="Times,serif" font-size="14.00">tube&#45;lens</text>
</g>
<!-- periscope&#45;mirror&#45;2&#45;&gt;tube&#45;lens -->
<g id="edge17" class="edge">
<title>periscope&#45;mirror&#45;2&#45;&gt;tube&#45;lens</title>
<path fill="none" stroke="black" d="M2235.8,-260.12C2406.93,-243.03 2823.63,-201.41 2974.38,-186.35"/>
<polygon fill="black" stroke="black" points="2974.5,-189.86 2984.1,-185.38 2973.8,-182.89 2974.5,-189.86"/>
<text text-anchor="middle" x="2688.9" y="-220" font-family="Times,serif" font-size="14.00">[x+3]</text>
</g>
<!-- periscope&#45;mirror&#45;2/mounted&#45;mirror/adhesive&#45;pad -->
<g id="node18" class="node">
<title>periscope&#45;mirror&#45;2/mounted&#45;mirror/adhesive&#45;pad</title>
<ellipse fill="none" stroke="black" cx="1225.96" cy="-91" rx="201.96" ry="18"/>
<text text-anchor="middle" x="1225.96" y="-86.8" font-family="Times,serif" font-size="14.00">periscope&#45;mirror&#45;2/mounted&#45;mirror/adhesive&#45;pad</text>
</g>
<!-- periscope&#45;mirror&#45;2/mounted&#45;mirror&#45;&gt;periscope&#45;mirror&#45;2/mounted&#45;mirror/adhesive&#45;pad -->
<g id="edge18" class="edge">
<title>periscope&#45;mirror&#45;2/mounted&#45;mirror&#45;&gt;periscope&#45;mirror&#45;2/mounted&#45;mirror/adhesive&#45;pad</title>
<path fill="none" stroke="black" d="M1876.72,-166.99C1860.07,-165.21 1843.05,-163.43 1826.96,-161.8 1742.28,-153.22 1720.9,-153.13 1636.3,-143.8 1538.31,-132.99 1427.4,-118.88 1345.62,-108.11"/>
<polygon fill="black" stroke="black" points="1346.15,-104.65 1335.78,-106.81 1345.23,-111.59 1346.15,-104.65"/>
<text text-anchor="middle" x="1700.13" y="-131.2" font-family="Times,serif" font-size="14.00">+[&#45;0.50 0.50 0.00] mm</text>
</g>
<!-- periscope&#45;mirror&#45;2/mounted&#45;mirror/insert -->
<g id="node19" class="node">
<title>periscope&#45;mirror&#45;2/mounted&#45;mirror/insert</title>
<ellipse fill="none" stroke="black" cx="1617.96" cy="-91" rx="172.47" ry="18"/>
<text text-anchor="middle" x="1617.96" y="-86.8" font-family="Times,serif" font-size="14.00">periscope&#45;mirror&#45;2/mounted&#45;mirror/insert</text>
</g>
<!-- periscope&#45;mirror&#45;2/mounted&#45;mirror&#45;&gt;periscope&#45;mirror&#45;2/mounted&#45;mirror/insert -->
<g id="edge19" class="edge">
<title>periscope&#45;mirror&#45;2/mounted&#45;mirror&#45;&gt;periscope&#45;mirror&#45;2/mounted&#45;mirror/insert</title>
<path fill="none" stroke="black" d="M1918.53,-163.28C1856.2,-148.5 1762.32,-126.24 1696.1,-110.53"/>
<polygon fill="black" stroke="black" points="1697.31,-107.22 1686.78,-108.32 1695.7,-114.03 1697.31,-107.22"/>
</g>
<!-- periscope&#45;mirror&#45;2/mounted&#45;mirror/mirror -->
<g id="node20" class="node">
<title>periscope&#45;mirror&#45;2/mounted&#45;mirror/mirror</title>
<ellipse fill="none" stroke="black" cx="1983.96" cy="-91" rx="175.69" ry="18"/>
<text text-anchor="middle" x="1983.96" y="-86.8" font-family="Times,serif" font-size="14.00">periscope&#45;mirror&#45;2/mounted&#45;mirror/mirror</text>
</g>
<!-- periscope&#45;mirror&#45;2/mounted&#45;mirror&#45;&gt;periscope&#45;mirror&#45;2/mounted&#45;mirror/mirror -->
<g id="edge20" class="edge">
<title>periscope&#45;mirror&#45;2/mounted&#45;mirror&#45;&gt;periscope&#45;mirror&#45;2/mounted&#45;mirror/mirror</title>
<path fill="none" stroke="black" d="M1983.96,-161.65C1983.96,-149.96 1983.96,-134.19 1983.96,-120.62"/>
<polygon fill="black" stroke="black" points="1987.46,-120.92 1983.96,-110.92 1980.46,-120.92 1987.46,-120.92"/>
</g>
<!-- periscope&#45;mirror&#45;2/skeleton/lower&#45;half -->
<g id="node22" class="node">
<title>periscope&#45;mirror&#45;2/skeleton/lower&#45;half</title>
<ellipse fill="none" stroke="black" cx="2338.96" cy="-91" rx="161.73" ry="18"/>
<text text-anchor="middle" x="2338.96" y="-86.8" font-family="Times,serif" font-size="14.00">periscope&#45;mirror&#45;2/skeleton/lower&#45;half</text>
</g>
<!-- periscope&#45;mirror&#45;2/skeleton&#45;&gt;periscope&#45;mirror&#45;2/skeleton/lower&#45;half -->
<g id="edge21" class="edge">
<title>periscope&#45;mirror&#45;2/skeleton&#45;&gt;periscope&#45;mirror&#45;2/skeleton/lower&#45;half</title>
<path fill="none" stroke="black" d="M2338.96,-161.65C2338.96,-149.96 2338.96,-134.19 2338.96,-120.62"/>
<polygon fill="black" stroke="black" points="2342.46,-120.92 2338.96,-110.92 2335.46,-120.92 2342.46,-120.92"/>
</g>
<!-- periscope&#45;mirror&#45;2/skeleton/upper&#45;half -->
<g id="node23" class="node">
<title>periscope&#45;mirror&#45;2/skeleton/upper&#45;half</title>
<ellipse fill="none" stroke="black" cx="2679.96" cy="-91" rx="161.73" ry="18"/>
<text text-anchor="middle" x="2679.96" y="-86.8" font-family="Times,serif" font-size="14.00">periscope&#45;mirror&#45;2/skeleton/upper&#45;half</text>
</g>
<!-- periscope&#45;mirror&#45;2/skeleton&#45;&gt;periscope&#45;mirror&#45;2/skeleton/upper&#45;half -->
<g id="edge22" class="edge">
<title>periscope&#45;mirror&#45;2/skeleton&#45;&gt;periscope&#45;mirror&#45;2/skeleton/upper&#45;half</title>
<path fill="none" stroke="black" d="M2397.97,-163.78C2455.69,-149.09 2543.78,-126.66 2606.12,-110.8"/>
<polygon fill="black" stroke="black" points="2606.76,-114.24 2615.59,-108.39 2605.03,-107.46 2606.76,-114.24"/>
</g>
<!-- projector&#45;screen -->
<g id="node24" class="node">
<title>projector&#45;screen</title>
<ellipse fill="none" stroke="black" cx="2933.96" cy="-91" rx="73.77" ry="18"/>
<text text-anchor="middle" x="2933.96" y="-86.8" font-family="Times,serif" font-size="14.00">projector&#45;screen</text>
</g>
<!-- sample&#45;holder&#45;&gt;light&#45;source -->
<g id="edge23" class="edge">
<title>sample&#45;holder&#45;&gt;light&#45;source</title>
<path fill="none" stroke="black" d="M993.78,-521.39C973.36,-515.29 949.07,-507.45 927.69,-499 904.19,-489.71 878.67,-477.54 858.37,-467.33"/>
<polygon fill="black" stroke="black" points="860.12,-464.29 849.62,-462.88 856.95,-470.53 860.12,-464.29"/>
<text text-anchor="middle" x="957.83" y="-486.4" font-family="Times,serif" font-size="14.00">[x&#45;80] mm</text>
</g>
<!-- sample&#45;holder&#45;&gt;objective&#45;lens -->
<g id="edge24" class="edge">
<title>sample&#45;holder&#45;&gt;objective&#45;lens</title>
<path fill="none" stroke="black" d="M1023.73,-517.26C1012.22,-504.62 996.22,-487.04 983.12,-472.65"/>
<polygon fill="black" stroke="black" points="985.75,-470.34 976.43,-465.3 980.58,-475.05 985.75,-470.34"/>
<text text-anchor="middle" x="1022.14" y="-486.4" font-family="Times,serif" font-size="14.00">[x+1]</text>
</g>
<!-- sample&#45;holder/mounted&#45;slide&#45;holder -->
<g id="node26" class="node">
<title>sample&#45;holder/mounted&#45;slide&#45;holder</title>
<ellipse fill="none" stroke="black" cx="1230.96" cy="-446.2" rx="152.09" ry="18"/>
<text text-anchor="middle" x="1230.96" y="-442" font-family="Times,serif" font-size="14.00">sample&#45;holder/mounted&#45;slide&#45;holder</text>
</g>
<!-- sample&#45;holder&#45;&gt;sample&#45;holder/mounted&#45;slide&#45;holder -->
<g id="edge25" class="edge">
<title>sample&#45;holder&#45;&gt;sample&#45;holder/mounted&#45;slide&#45;holder</title>
<path fill="none" stroke="black" d="M1071.97,-519.08C1102.67,-505.2 1148.77,-484.36 1183.43,-468.69"/>
<polygon fill="black" stroke="black" points="1184.74,-471.93 1192.41,-464.63 1181.86,-465.56 1184.74,-471.93"/>
</g>
<!-- sample&#45;holder/skeleton -->
<g id="node29" class="node">
<title>sample&#45;holder/skeleton</title>
<ellipse fill="none" stroke="black" cx="1931.96" cy="-446.2" rx="101.14" ry="18"/>
<text text-anchor="middle" x="1931.96" y="-442" font-family="Times,serif" font-size="14.00">sample&#45;holder/skeleton</text>
</g>
<!-- sample&#45;holder&#45;&gt;sample&#45;holder/skeleton -->
<g id="edge26" class="edge">
<title>sample&#45;holder&#45;&gt;sample&#45;holder/skeleton</title>
<path fill="none" stroke="black" d="M1100.69,-528C1253.15,-513.18 1648.5,-474.75 1833.63,-456.76"/>
<polygon fill="black" stroke="black" points="1833.86,-460.25 1843.47,-455.8 1833.18,-453.28 1833.86,-460.25"/>
</g>
<!-- sample&#45;holder/mounted&#45;slide&#45;holder/clip -->
<g id="node27" class="node">
<title>sample&#45;holder/mounted&#45;slide&#45;holder/clip</title>
<ellipse fill="none" stroke="black" cx="1230.96" cy="-357.4" rx="169.26" ry="18"/>
<text text-anchor="middle" x="1230.96" y="-353.2" font-family="Times,serif" font-size="14.00">sample&#45;holder/mounted&#45;slide&#45;holder/clip</text>
</g>
<!-- sample&#45;holder/mounted&#45;slide&#45;holder&#45;&gt;sample&#45;holder/mounted&#45;slide&#45;holder/clip -->
<g id="edge27" class="edge">
<title>sample&#45;holder/mounted&#45;slide&#45;holder&#45;&gt;sample&#45;holder/mounted&#45;slide&#45;holder/clip</title>
<path fill="none" stroke="black" d="M1230.96,-428.05C1230.96,-416.36 1230.96,-400.59 1230.96,-387.02"/>
<polygon fill="black" stroke="black" points="1234.46,-387.32 1230.96,-377.32 1227.46,-387.32 1234.46,-387.32"/>
<text text-anchor="middle" x="1260.7" y="-397.6" font-family="Times,serif" font-size="14.00">[z&#45;10] mm</text>
</g>
<!-- sample&#45;holder/mounted&#45;slide&#45;holder/insert -->
<g id="node28" class="node">
<title>sample&#45;holder/mounted&#45;slide&#45;holder/insert</title>
<ellipse fill="none" stroke="black" cx="1593.96" cy="-357.4" rx="176.23" ry="18"/>
<text text-anchor="middle" x="1593.96" y="-353.2" font-family="Times,serif" font-size="14.00">sample&#45;holder/mounted&#45;slide&#45;holder/insert</text>
</g>
<!-- sample&#45;holder/mounted&#45;slide&#45;holder&#45;&gt;sample&#45;holder/mounted&#45;slide&#45;holder/insert -->
<g id="edge28" class="edge">
<title>sample&#45;holder/mounted&#45;slide&#45;holder&#45;&gt;sample&#45;holder/mounted&#45;slide&#45;holder/insert</title>
<path fill="none" stroke="black" d="M1296.28,-429.58C1357.83,-414.86 1450.14,-392.79 1515.62,-377.13"/>
<polygon fill="black" stroke="black" points="1516.33,-380.56 1525.24,-374.83 1514.7,-373.75 1516.33,-380.56"/>
</g>
<!-- sample&#45;holder/skeleton/lower&#45;half -->
<g id="node30" class="node">
<title>sample&#45;holder/skeleton/lower&#45;half</title>
<ellipse fill="none" stroke="black" cx="1931.96" cy="-357.4" rx="144.04" ry="18"/>
<text text-anchor="middle" x="1931.96" y="-353.2" font-family="Times,serif" font-size="14.00">sample&#45;holder/skeleton/lower&#45;half</text>
</g>
<!-- sample&#45;holder/skeleton&#45;&gt;sample&#45;holder/skeleton/lower&#45;half -->
<g id="edge29" class="edge">
<title>sample&#45;holder/skeleton&#45;&gt;sample&#45;holder/skeleton/lower&#45;half</title>
<path fill="none" stroke="black" d="M1931.96,-428.05C1931.96,-416.36 1931.96,-400.59 1931.96,-387.02"/>
<polygon fill="black" stroke="black" points="1935.46,-387.32 1931.96,-377.32 1928.46,-387.32 1935.46,-387.32"/>
</g>
<!-- sample&#45;holder/skeleton/upper&#45;half -->
<g id="node31" class="node">
<title>sample&#45;holder/skeleton/upper&#45;half</title>
<ellipse fill="none" stroke="black" cx="2237.96" cy="-357.4" rx="144.04" ry="18"/>
<text text-anchor="middle" x="2237.96" y="-353.2" font-family="Times,serif" font-size="14.00">sample&#45;holder/skeleton/upper&#45;half</text>
</g>
<!-- sample&#45;holder/skeleton&#45;&gt;sample&#45;holder/skeleton/upper&#45;half -->
<g id="edge30" class="edge">
<title>sample&#45;holder/skeleton&#45;&gt;sample&#45;holder/skeleton/upper&#45;half</title>
<path fill="none" stroke="black" d="M1984.21,-430.38C2035.66,-415.78 2114.47,-393.43 2170.6,-377.51"/>
<polygon fill="black" stroke="black" points="2171.39,-380.92 2180.05,-374.83 2169.48,-374.19 2171.39,-380.92"/>
</g>
<!-- tube&#45;lens&#45;&gt;projector&#45;screen -->
<g id="edge31" class="edge">
<title>tube&#45;lens&#45;&gt;projector&#45;screen</title>
<path fill="none" stroke="black" d="M3012.35,-162.88C2997.88,-149.79 2977.14,-131.04 2960.63,-116.11"/>
<polygon fill="black" stroke="black" points="2963.32,-113.83 2953.56,-109.72 2958.63,-119.02 2963.32,-113.83"/>
<text text-anchor="middle" x="3025.81" y="-131.2" font-family="Times,serif" font-size="14.00">[x+100] mm</text>
</g>
<!-- tube&#45;lens/mounted&#45;lens -->
<g id="node33" class="node">
<title>tube&#45;lens/mounted&#45;lens</title>
<ellipse fill="none" stroke="black" cx="3126.96" cy="-91" rx="101.68" ry="18"/>
<text text-anchor="middle" x="3126.96" y="-86.8" font-family="Times,serif" font-size="14.00">tube&#45;lens/mounted&#45;lens</text>
</g>
<!-- tube&#45;lens&#45;&gt;tube&#45;lens/mounted&#45;lens -->
<g id="edge32" class="edge">
<title>tube&#45;lens&#45;&gt;tube&#45;lens/mounted&#45;lens</title>
<path fill="none" stroke="black" d="M3047.75,-162.88C3062.28,-149.88 3083.06,-131.28 3099.69,-116.4"/>
<polygon fill="black" stroke="black" points="3101.71,-119.29 3106.83,-110.02 3097.04,-114.08 3101.71,-119.29"/>
</g>
<!-- tube&#45;lens/skeleton -->
<g id="node34" class="node">
<title>tube&#45;lens/skeleton</title>
<ellipse fill="none" stroke="black" cx="3327.96" cy="-91" rx="81.3" ry="18"/>
<text text-anchor="middle" x="3327.96" y="-86.8" font-family="Times,serif" font-size="14.00">tube&#45;lens/skeleton</text>
</g>
<!-- tube&#45;lens&#45;&gt;tube&#45;lens/skeleton -->
<g id="edge33" class="edge">
<title>tube&#45;lens&#45;&gt;tube&#45;lens/skeleton</title>
<path fill="none" stroke="black" d="M3066.2,-168.24C3116.73,-153.53 3208.91,-126.68 3269.29,-109.09"/>
<polygon fill="black" stroke="black" points="3270.1,-112.5 3278.73,-106.34 3268.15,-105.78 3270.1,-112.5"/>
</g>
<!-- tube&#45;lens/skeleton/lower&#45;half -->
<g id="node35" class="node">
<title>tube&#45;lens/skeleton/lower&#45;half</title>
<ellipse fill="none" stroke="black" cx="3194.96" cy="-18" rx="124.2" ry="18"/>
<text text-anchor="middle" x="3194.96" y="-13.8" font-family="Times,serif" font-size="14.00">tube&#45;lens/skeleton/lower&#45;half</text>
</g>
<!-- tube&#45;lens/skeleton&#45;&gt;tube&#45;lens/skeleton/lower&#45;half -->
<g id="edge34" class="edge">
<title>tube&#45;lens/skeleton&#45;&gt;tube&#45;lens/skeleton/lower&#45;half</title>
<path fill="none" stroke="black" d="M3297.78,-73.89C3279.64,-64.2 3256.29,-51.74 3236.43,-41.14"/>
<polygon fill="black" stroke="black" points="3238.21,-38.12 3227.74,-36.5 3234.92,-44.3 3238.21,-38.12"/>
</g>
<!-- tube&#45;lens/skeleton/upper&#45;half -->
<g id="node36" class="node">
<title>tube&#45;lens/skeleton/upper&#45;half</title>
<ellipse fill="none" stroke="black" cx="3460.96" cy="-18" rx="124.2" ry="18"/>
<text text-anchor="middle" x="3460.96" y="-13.8" font-family="Times,serif" font-size="14.00">tube&#45;lens/skeleton/upper&#45;half</text>
</g>
<!-- tube&#45;lens/skeleton&#45;&gt;tube&#45;lens/skeleton/upper&#45;half -->
<g id="edge35" class="edge">
<title>tube&#45;lens/skeleton&#45;&gt;tube&#45;lens/skeleton/upper&#45;half</title>
<path fill="none" stroke="black" d="M3358.14,-73.89C3376.28,-64.2 3399.63,-51.74 3419.49,-41.14"/>
<polygon fill="black" stroke="black" points="3421,-44.3 3428.18,-36.5 3417.71,-38.12 3421,-44.3"/>
</g>
</g>
</svg>
