ISO-10303-21;
HEADER;
/* Generated by software containing ST-Developer
 * from STEP Tools, Inc. (www.steptools.com) 
 */

FILE_DESCRIPTION(
/* description */ ('Sample clip'),
/* implementation_level */ '2;1');

FILE_NAME(
/* name */ 'PRT - 2008 - SAMCLP.stp',
/* time_stamp */ '2026-08-19T12:01:59+02:00',
/* author */ ('benir'),
/* organization */ (''),
/* preprocessor_version */ 'ST-DEVELOPER v20',
/* originating_system */ 'Autodesk Inventor 2025',
/* authorisation */ '');

FILE_SCHEMA (('AUTOMOTIVE_DESIGN { 1 0 10303 214 3 1 1 }'));
ENDSEC;

DATA;
#10=MECHANICAL_DESIGN_GEOMETRIC_PRESENTATION_REPRESENTATION('',(#672,#673,
#674,#675,#676,#677,#678,#679,#680,#681,#682,#683,#684,#685,#686,#687,#688,
#689,#690,#691,#692,#693,#694,#695,#696,#697,#698,#699,#700,#701,#702,#703,
#704,#705,#706,#707,#708,#709,#710,#711,#712,#713,#714,#715),#1542);
#11=SHAPE_REPRESENTATION_RELATIONSHIP('SRR','None',#1549,#12);
#12=ADVANCED_BREP_SHAPE_REPRESENTATION('',(#13),#1541);
#13=MANIFOLD_SOLID_BREP('Sample Clamp',#759);
#14=PLANE('',#789);
#15=PLANE('',#796);
#16=PLANE('',#803);
#17=PLANE('',#806);
#18=PLANE('',#809);
#19=PLANE('',#812);
#20=PLANE('',#813);
#21=PLANE('',#816);
#22=PLANE('',#820);
#23=PLANE('',#822);
#24=PLANE('',#825);
#25=PLANE('',#828);
#26=PLANE('',#829);
#27=PLANE('',#831);
#28=PLANE('',#833);
#29=PLANE('',#834);
#30=PLANE('',#838);
#31=PLANE('',#839);
#32=PLANE('',#840);
#33=PLANE('',#841);
#34=PLANE('',#845);
#35=PLANE('',#846);
#36=CONICAL_SURFACE('',#787,11.7,0.785398163397449);
#37=CONICAL_SURFACE('',#794,11.7,0.785398163397448);
#38=CONICAL_SURFACE('',#801,4.8,0.785398163397447);
#39=CONICAL_SURFACE('',#804,4.8,0.785398163397449);
#40=CONICAL_SURFACE('',#807,4.8,0.785398163397449);
#41=CONICAL_SURFACE('',#810,4.8,0.785398163397447);
#42=CONICAL_SURFACE('',#819,4.8,0.785398163397447);
#43=CONICAL_SURFACE('',#821,4.8,0.785398163397447);
#44=CONICAL_SURFACE('',#823,4.8,0.785398163397449);
#45=CONICAL_SURFACE('',#826,4.8,0.785398163397449);
#46=FACE_BOUND('',#132,.T.);
#47=FACE_BOUND('',#133,.T.);
#48=FACE_BOUND('',#139,.T.);
#49=FACE_BOUND('',#142,.T.);
#50=FACE_BOUND('',#152,.T.);
#51=FACE_BOUND('',#167,.T.);
#52=FACE_BOUND('',#172,.T.);
#53=FACE_BOUND('',#178,.T.);
#54=CIRCLE('',#783,11.5);
#55=CIRCLE('',#784,11.5);
#56=CIRCLE('',#788,11.9);
#57=CIRCLE('',#790,4.6);
#58=CIRCLE('',#791,4.6);
#59=CIRCLE('',#792,4.6);
#60=CIRCLE('',#793,4.6);
#61=CIRCLE('',#795,11.9);
#62=CIRCLE('',#797,4.6);
#63=CIRCLE('',#798,4.6);
#64=CIRCLE('',#799,4.6);
#65=CIRCLE('',#800,4.6);
#66=CIRCLE('',#802,5.);
#67=CIRCLE('',#805,5.);
#68=CIRCLE('',#808,5.);
#69=CIRCLE('',#811,5.);
#70=CIRCLE('',#815,5.);
#71=CIRCLE('',#818,5.);
#72=CIRCLE('',#824,5.);
#73=CIRCLE('',#827,5.);
#74=CIRCLE('',#836,4.05);
#75=CIRCLE('',#837,4.05);
#76=CIRCLE('',#843,4.05);
#77=CIRCLE('',#844,4.05);
#78=CYLINDRICAL_SURFACE('',#782,11.5);
#79=CYLINDRICAL_SURFACE('',#785,1.4);
#80=CYLINDRICAL_SURFACE('',#786,1.4);
#81=CYLINDRICAL_SURFACE('',#814,5.);
#82=CYLINDRICAL_SURFACE('',#817,5.);
#83=CYLINDRICAL_SURFACE('',#830,5.);
#84=CYLINDRICAL_SURFACE('',#832,5.);
#85=CYLINDRICAL_SURFACE('',#835,4.05);
#86=CYLINDRICAL_SURFACE('',#842,4.05);
#87=FACE_OUTER_BOUND('',#130,.T.);
#88=FACE_OUTER_BOUND('',#131,.T.);
#89=FACE_OUTER_BOUND('',#134,.T.);
#90=FACE_OUTER_BOUND('',#135,.T.);
#91=FACE_OUTER_BOUND('',#136,.T.);
#92=FACE_OUTER_BOUND('',#137,.T.);
#93=FACE_OUTER_BOUND('',#138,.T.);
#94=FACE_OUTER_BOUND('',#140,.T.);
#95=FACE_OUTER_BOUND('',#141,.T.);
#96=FACE_OUTER_BOUND('',#143,.T.);
#97=FACE_OUTER_BOUND('',#144,.T.);
#98=FACE_OUTER_BOUND('',#145,.T.);
#99=FACE_OUTER_BOUND('',#146,.T.);
#100=FACE_OUTER_BOUND('',#147,.T.);
#101=FACE_OUTER_BOUND('',#148,.T.);
#102=FACE_OUTER_BOUND('',#149,.T.);
#103=FACE_OUTER_BOUND('',#150,.T.);
#104=FACE_OUTER_BOUND('',#151,.T.);
#105=FACE_OUTER_BOUND('',#153,.T.);
#106=FACE_OUTER_BOUND('',#154,.T.);
#107=FACE_OUTER_BOUND('',#155,.T.);
#108=FACE_OUTER_BOUND('',#156,.T.);
#109=FACE_OUTER_BOUND('',#157,.T.);
#110=FACE_OUTER_BOUND('',#158,.T.);
#111=FACE_OUTER_BOUND('',#159,.T.);
#112=FACE_OUTER_BOUND('',#160,.T.);
#113=FACE_OUTER_BOUND('',#161,.T.);
#114=FACE_OUTER_BOUND('',#162,.T.);
#115=FACE_OUTER_BOUND('',#163,.T.);
#116=FACE_OUTER_BOUND('',#164,.T.);
#117=FACE_OUTER_BOUND('',#165,.T.);
#118=FACE_OUTER_BOUND('',#166,.T.);
#119=FACE_OUTER_BOUND('',#168,.T.);
#120=FACE_OUTER_BOUND('',#169,.T.);
#121=FACE_OUTER_BOUND('',#170,.T.);
#122=FACE_OUTER_BOUND('',#171,.T.);
#123=FACE_OUTER_BOUND('',#173,.T.);
#124=FACE_OUTER_BOUND('',#174,.T.);
#125=FACE_OUTER_BOUND('',#175,.T.);
#126=FACE_OUTER_BOUND('',#176,.T.);
#127=FACE_OUTER_BOUND('',#177,.T.);
#128=FACE_OUTER_BOUND('',#179,.T.);
#129=FACE_OUTER_BOUND('',#180,.T.);
#130=EDGE_LOOP('',(#476,#477,#478,#479));
#131=EDGE_LOOP('',(#480,#481,#482,#483));
#132=EDGE_LOOP('',(#484));
#133=EDGE_LOOP('',(#485));
#134=EDGE_LOOP('',(#486,#487,#488,#489));
#135=EDGE_LOOP('',(#490,#491,#492,#493));
#136=EDGE_LOOP('',(#494,#495,#496,#497));
#137=EDGE_LOOP('',(#498,#499,#500,#501));
#138=EDGE_LOOP('',(#502,#503,#504,#505,#506,#507,#508,#509));
#139=EDGE_LOOP('',(#510));
#140=EDGE_LOOP('',(#511,#512,#513,#514));
#141=EDGE_LOOP('',(#515,#516,#517,#518,#519,#520,#521,#522));
#142=EDGE_LOOP('',(#523));
#143=EDGE_LOOP('',(#524,#525,#526,#527));
#144=EDGE_LOOP('',(#528,#529,#530,#531));
#145=EDGE_LOOP('',(#532,#533,#534,#535));
#146=EDGE_LOOP('',(#536,#537,#538,#539));
#147=EDGE_LOOP('',(#540,#541,#542,#543));
#148=EDGE_LOOP('',(#544,#545,#546,#547));
#149=EDGE_LOOP('',(#548,#549,#550,#551));
#150=EDGE_LOOP('',(#552,#553,#554,#555));
#151=EDGE_LOOP('',(#556,#557,#558,#559));
#152=EDGE_LOOP('',(#560,#561,#562,#563));
#153=EDGE_LOOP('',(#564,#565,#566,#567));
#154=EDGE_LOOP('',(#568,#569,#570,#571));
#155=EDGE_LOOP('',(#572,#573,#574,#575));
#156=EDGE_LOOP('',(#576,#577,#578,#579));
#157=EDGE_LOOP('',(#580,#581,#582,#583));
#158=EDGE_LOOP('',(#584,#585,#586,#587));
#159=EDGE_LOOP('',(#588,#589,#590,#591));
#160=EDGE_LOOP('',(#592,#593,#594,#595));
#161=EDGE_LOOP('',(#596,#597,#598,#599));
#162=EDGE_LOOP('',(#600,#601,#602,#603));
#163=EDGE_LOOP('',(#604,#605,#606,#607));
#164=EDGE_LOOP('',(#608,#609,#610,#611));
#165=EDGE_LOOP('',(#612,#613,#614,#615));
#166=EDGE_LOOP('',(#616,#617,#618,#619));
#167=EDGE_LOOP('',(#620,#621,#622,#623));
#168=EDGE_LOOP('',(#624,#625,#626,#627));
#169=EDGE_LOOP('',(#628,#629,#630,#631));
#170=EDGE_LOOP('',(#632,#633,#634,#635));
#171=EDGE_LOOP('',(#636,#637,#638,#639));
#172=EDGE_LOOP('',(#640));
#173=EDGE_LOOP('',(#641,#642,#643,#644));
#174=EDGE_LOOP('',(#645,#646,#647,#648));
#175=EDGE_LOOP('',(#649,#650,#651,#652));
#176=EDGE_LOOP('',(#653,#654,#655,#656));
#177=EDGE_LOOP('',(#657,#658,#659,#660));
#178=EDGE_LOOP('',(#661));
#179=EDGE_LOOP('',(#662,#663,#664,#665));
#180=EDGE_LOOP('',(#666,#667,#668,#669));
#181=B_SPLINE_CURVE_WITH_KNOTS('',3,(#1130,#1131,#1132,#1133,#1134,#1135,
#1136,#1137,#1138,#1139,#1140,#1141,#1142,#1143,#1144,#1145,#1146,#1147,
#1148,#1149),.UNSPECIFIED.,.T.,.F.,(4,1,1,1,1,1,1,1,1,1,1,1,1,1,1,1,1,4),
(0.,0.060334160517546,0.120668321035092,0.181002481552638,0.241336642070184,
0.271503722328957,0.30167080258773,0.331837882846503,0.362004963105276,
0.482673284140368,0.512840364399141,0.543007444657914,0.573174524916687,
0.60334160517546,0.663675765693006,0.724009926210552,0.784344086728098,
0.844678247245644),.UNSPECIFIED.);
#182=B_SPLINE_CURVE_WITH_KNOTS('',3,(#1150,#1151,#1152,#1153,#1154,#1155,
#1156,#1157,#1158,#1159,#1160,#1161,#1162,#1163,#1164,#1165,#1166,#1167,
#1168,#1169),.UNSPECIFIED.,.T.,.F.,(4,1,1,1,1,1,1,1,1,1,1,1,1,1,1,1,1,4),
(-0.844678247245644,-0.784344086728098,-0.724009926210552,-0.663675765693006,
-0.60334160517546,-0.573174524916687,-0.543007444657914,-0.512840364399141,
-0.482673284140368,-0.362004963105276,-0.331837882846503,-0.30167080258773,
-0.271503722328957,-0.241336642070184,-0.181002481552638,-0.120668321035092,
-0.060334160517546,0.),.UNSPECIFIED.);
#183=B_SPLINE_CURVE_WITH_KNOTS('',3,(#1177,#1178,#1179,#1180,#1181,#1182,
#1183,#1184,#1185,#1186,#1187,#1188,#1189,#1190,#1191,#1192,#1193,#1194,
#1195),.UNSPECIFIED.,.T.,.F.,(4,1,1,1,1,1,1,1,1,1,1,1,1,1,1,1,4),(-0.844678247245644,
-0.784344086728098,-0.724009926210552,-0.663675765693006,-0.60334160517546,
-0.543007444657914,-0.482673284140368,-0.452506203881595,-0.422339123622822,
-0.362004963105276,-0.331837882846503,-0.30167080258773,-0.241336642070184,
-0.196086021682024,-0.120668321035092,-0.060334160517546,0.),
 .UNSPECIFIED.);
#184=B_SPLINE_CURVE_WITH_KNOTS('',3,(#1198,#1199,#1200,#1201,#1202,#1203,
#1204,#1205,#1206,#1207,#1208,#1209,#1210,#1211,#1212,#1213,#1214,#1215,
#1216,#1217,#1218,#1219,#1220,#1221,#1222,#1223,#1224,#1225,#1226,#1227,
#1228,#1229,#1230,#1231),.UNSPECIFIED.,.T.,.F.,(4,2,2,2,2,2,2,2,2,2,2,2,
2,2,2,2,4),(0.,0.053228954964317,0.106457909928634,0.159658066938582,0.21285822394853,
0.266058380958479,0.319258537968427,0.372487492932744,0.425716447897061,
0.478945402861378,0.532174357825695,0.585374514835643,0.638574671845591,
0.69177482885554,0.744974985865488,0.798203940829805,0.851432895794122),
 .UNSPECIFIED.);
#185=B_SPLINE_CURVE_WITH_KNOTS('',3,(#1311,#1312,#1313,#1314,#1315,#1316,
#1317,#1318,#1319,#1320,#1321,#1322,#1323,#1324,#1325,#1326,#1327,#1328,
#1329),.UNSPECIFIED.,.T.,.F.,(4,1,1,1,1,1,1,1,1,1,1,1,1,1,1,1,4),(0.,0.060334160517546,
0.120668321035092,0.196086021682024,0.241336642070184,0.30167080258773,
0.331837882846503,0.362004963105276,0.422339123622822,0.452506203881595,
0.482673284140368,0.543007444657914,0.60334160517546,0.663675765693006,
0.724009926210552,0.784344086728098,0.844678247245644),.UNSPECIFIED.);
#186=B_SPLINE_CURVE_WITH_KNOTS('',3,(#1332,#1333,#1334,#1335,#1336,#1337,
#1338,#1339,#1340,#1341,#1342,#1343,#1344,#1345,#1346,#1347,#1348,#1349,
#1350,#1351,#1352,#1353,#1354,#1355,#1356,#1357,#1358,#1359,#1360,#1361,
#1362,#1363,#1364,#1365),.UNSPECIFIED.,.T.,.F.,(4,2,2,2,2,2,2,2,2,2,2,2,
2,2,2,2,4),(0.,0.0532289549643171,0.106457909928634,0.159658066938582,0.21285822394853,
0.266058380958479,0.319258537968427,0.372487492932744,0.425716447897061,
0.478945402861378,0.532174357825695,0.585374514835643,0.638574671845591,
0.69177482885554,0.744974985865488,0.798203940829805,0.851432895794122),
 .UNSPECIFIED.);
#187=LINE('',#1129,#254);
#188=LINE('',#1174,#255);
#189=LINE('',#1232,#256);
#190=LINE('',#1310,#257);
#191=LINE('',#1366,#258);
#192=LINE('',#1370,#259);
#193=LINE('',#1376,#260);
#194=LINE('',#1380,#261);
#195=LINE('',#1384,#262);
#196=LINE('',#1387,#263);
#197=LINE('',#1391,#264);
#198=LINE('',#1397,#265);
#199=LINE('',#1401,#266);
#200=LINE('',#1405,#267);
#201=LINE('',#1408,#268);
#202=LINE('',#1411,#269);
#203=LINE('',#1414,#270);
#204=LINE('',#1417,#271);
#205=LINE('',#1418,#272);
#206=LINE('',#1421,#273);
#207=LINE('',#1425,#274);
#208=LINE('',#1426,#275);
#209=LINE('',#1429,#276);
#210=LINE('',#1433,#277);
#211=LINE('',#1434,#278);
#212=LINE('',#1437,#279);
#213=LINE('',#1440,#280);
#214=LINE('',#1443,#281);
#215=LINE('',#1445,#282);
#216=LINE('',#1446,#283);
#217=LINE('',#1449,#284);
#218=LINE('',#1451,#285);
#219=LINE('',#1453,#286);
#220=LINE('',#1454,#287);
#221=LINE('',#1457,#288);
#222=LINE('',#1461,#289);
#223=LINE('',#1462,#290);
#224=LINE('',#1465,#291);
#225=LINE('',#1468,#292);
#226=LINE('',#1469,#293);
#227=LINE('',#1471,#294);
#228=LINE('',#1473,#295);
#229=LINE('',#1475,#296);
#230=LINE('',#1478,#297);
#231=LINE('',#1482,#298);
#232=LINE('',#1483,#299);
#233=LINE('',#1486,#300);
#234=LINE('',#1489,#301);
#235=LINE('',#1491,#302);
#236=LINE('',#1492,#303);
#237=LINE('',#1494,#304);
#238=LINE('',#1498,#305);
#239=LINE('',#1500,#306);
#240=LINE('',#1502,#307);
#241=LINE('',#1503,#308);
#242=LINE('',#1507,#309);
#243=LINE('',#1509,#310);
#244=LINE('',#1510,#311);
#245=LINE('',#1513,#312);
#246=LINE('',#1515,#313);
#247=LINE('',#1516,#314);
#248=LINE('',#1524,#315);
#249=LINE('',#1526,#316);
#250=LINE('',#1527,#317);
#251=LINE('',#1530,#318);
#252=LINE('',#1532,#319);
#253=LINE('',#1533,#320);
#254=VECTOR('',#849,10.);
#255=VECTOR('',#854,11.5);
#256=VECTOR('',#859,1.4);
#257=VECTOR('',#860,10.);
#258=VECTOR('',#863,1.4);
#259=VECTOR('',#868,11.7);
#260=VECTOR('',#873,10.);
#261=VECTOR('',#876,10.);
#262=VECTOR('',#879,10.);
#263=VECTOR('',#882,10.);
#264=VECTOR('',#887,11.7);
#265=VECTOR('',#892,10.);
#266=VECTOR('',#895,10.);
#267=VECTOR('',#898,10.);
#268=VECTOR('',#901,10.);
#269=VECTOR('',#904,10.);
#270=VECTOR('',#907,10.);
#271=VECTOR('',#910,10.);
#272=VECTOR('',#911,10.);
#273=VECTOR('',#914,10.);
#274=VECTOR('',#919,10.);
#275=VECTOR('',#920,10.);
#276=VECTOR('',#923,10.);
#277=VECTOR('',#928,10.);
#278=VECTOR('',#929,10.);
#279=VECTOR('',#932,10.);
#280=VECTOR('',#937,10.);
#281=VECTOR('',#940,10.);
#282=VECTOR('',#941,10.);
#283=VECTOR('',#942,10.);
#284=VECTOR('',#943,10.);
#285=VECTOR('',#944,10.);
#286=VECTOR('',#945,10.);
#287=VECTOR('',#946,10.);
#288=VECTOR('',#949,10.);
#289=VECTOR('',#954,10.);
#290=VECTOR('',#955,10.);
#291=VECTOR('',#958,10.);
#292=VECTOR('',#963,10.);
#293=VECTOR('',#964,10.);
#294=VECTOR('',#967,10.);
#295=VECTOR('',#970,10.);
#296=VECTOR('',#973,10.);
#297=VECTOR('',#976,10.);
#298=VECTOR('',#981,10.);
#299=VECTOR('',#982,10.);
#300=VECTOR('',#985,10.);
#301=VECTOR('',#990,10.);
#302=VECTOR('',#993,10.);
#303=VECTOR('',#994,10.);
#304=VECTOR('',#997,10.);
#305=VECTOR('',#1000,10.);
#306=VECTOR('',#1001,10.);
#307=VECTOR('',#1002,10.);
#308=VECTOR('',#1003,10.);
#309=VECTOR('',#1008,10.);
#310=VECTOR('',#1009,10.);
#311=VECTOR('',#1010,10.);
#312=VECTOR('',#1013,10.);
#313=VECTOR('',#1014,10.);
#314=VECTOR('',#1015,10.);
#315=VECTOR('',#1028,10.);
#316=VECTOR('',#1029,10.);
#317=VECTOR('',#1030,10.);
#318=VECTOR('',#1033,10.);
#319=VECTOR('',#1034,10.);
#320=VECTOR('',#1035,10.);
#321=VERTEX_POINT('',#1127);
#322=VERTEX_POINT('',#1128);
#323=VERTEX_POINT('',#1171);
#324=VERTEX_POINT('',#1173);
#325=VERTEX_POINT('',#1176);
#326=VERTEX_POINT('',#1197);
#327=VERTEX_POINT('',#1309);
#328=VERTEX_POINT('',#1331);
#329=VERTEX_POINT('',#1368);
#330=VERTEX_POINT('',#1372);
#331=VERTEX_POINT('',#1373);
#332=VERTEX_POINT('',#1375);
#333=VERTEX_POINT('',#1377);
#334=VERTEX_POINT('',#1379);
#335=VERTEX_POINT('',#1381);
#336=VERTEX_POINT('',#1383);
#337=VERTEX_POINT('',#1385);
#338=VERTEX_POINT('',#1389);
#339=VERTEX_POINT('',#1393);
#340=VERTEX_POINT('',#1394);
#341=VERTEX_POINT('',#1396);
#342=VERTEX_POINT('',#1398);
#343=VERTEX_POINT('',#1400);
#344=VERTEX_POINT('',#1402);
#345=VERTEX_POINT('',#1404);
#346=VERTEX_POINT('',#1406);
#347=VERTEX_POINT('',#1410);
#348=VERTEX_POINT('',#1412);
#349=VERTEX_POINT('',#1416);
#350=VERTEX_POINT('',#1420);
#351=VERTEX_POINT('',#1424);
#352=VERTEX_POINT('',#1428);
#353=VERTEX_POINT('',#1432);
#354=VERTEX_POINT('',#1436);
#355=VERTEX_POINT('',#1442);
#356=VERTEX_POINT('',#1444);
#357=VERTEX_POINT('',#1447);
#358=VERTEX_POINT('',#1448);
#359=VERTEX_POINT('',#1450);
#360=VERTEX_POINT('',#1452);
#361=VERTEX_POINT('',#1456);
#362=VERTEX_POINT('',#1460);
#363=VERTEX_POINT('',#1464);
#364=VERTEX_POINT('',#1477);
#365=VERTEX_POINT('',#1481);
#366=VERTEX_POINT('',#1485);
#367=VERTEX_POINT('',#1496);
#368=VERTEX_POINT('',#1497);
#369=VERTEX_POINT('',#1499);
#370=VERTEX_POINT('',#1501);
#371=VERTEX_POINT('',#1506);
#372=VERTEX_POINT('',#1508);
#373=VERTEX_POINT('',#1512);
#374=VERTEX_POINT('',#1514);
#375=VERTEX_POINT('',#1523);
#376=VERTEX_POINT('',#1525);
#377=VERTEX_POINT('',#1529);
#378=VERTEX_POINT('',#1531);
#379=EDGE_CURVE('',#321,#322,#187,.T.);
#380=EDGE_CURVE('',#322,#322,#181,.T.);
#381=EDGE_CURVE('',#321,#321,#182,.T.);
#382=EDGE_CURVE('',#323,#323,#54,.T.);
#383=EDGE_CURVE('',#323,#324,#188,.T.);
#384=EDGE_CURVE('',#324,#324,#55,.T.);
#385=EDGE_CURVE('',#325,#325,#183,.T.);
#386=EDGE_CURVE('',#326,#326,#184,.T.);
#387=EDGE_CURVE('',#326,#322,#189,.T.);
#388=EDGE_CURVE('',#325,#327,#190,.T.);
#389=EDGE_CURVE('',#327,#327,#185,.T.);
#390=EDGE_CURVE('',#328,#328,#186,.T.);
#391=EDGE_CURVE('',#328,#327,#191,.T.);
#392=EDGE_CURVE('',#329,#329,#56,.T.);
#393=EDGE_CURVE('',#329,#324,#192,.T.);
#394=EDGE_CURVE('',#330,#331,#57,.T.);
#395=EDGE_CURVE('',#332,#330,#193,.T.);
#396=EDGE_CURVE('',#333,#332,#58,.T.);
#397=EDGE_CURVE('',#334,#333,#194,.T.);
#398=EDGE_CURVE('',#335,#334,#59,.T.);
#399=EDGE_CURVE('',#336,#335,#195,.T.);
#400=EDGE_CURVE('',#337,#336,#60,.T.);
#401=EDGE_CURVE('',#331,#337,#196,.T.);
#402=EDGE_CURVE('',#338,#338,#61,.T.);
#403=EDGE_CURVE('',#338,#323,#197,.T.);
#404=EDGE_CURVE('',#339,#340,#62,.T.);
#405=EDGE_CURVE('',#341,#339,#198,.T.);
#406=EDGE_CURVE('',#342,#341,#63,.T.);
#407=EDGE_CURVE('',#343,#342,#199,.T.);
#408=EDGE_CURVE('',#344,#343,#64,.T.);
#409=EDGE_CURVE('',#345,#344,#200,.T.);
#410=EDGE_CURVE('',#346,#345,#65,.T.);
#411=EDGE_CURVE('',#340,#346,#201,.T.);
#412=EDGE_CURVE('',#331,#347,#202,.T.);
#413=EDGE_CURVE('',#347,#348,#66,.T.);
#414=EDGE_CURVE('',#348,#330,#203,.T.);
#415=EDGE_CURVE('',#337,#349,#204,.T.);
#416=EDGE_CURVE('',#349,#347,#205,.T.);
#417=EDGE_CURVE('',#336,#350,#206,.T.);
#418=EDGE_CURVE('',#350,#349,#67,.T.);
#419=EDGE_CURVE('',#335,#351,#207,.T.);
#420=EDGE_CURVE('',#351,#350,#208,.T.);
#421=EDGE_CURVE('',#334,#352,#209,.T.);
#422=EDGE_CURVE('',#352,#351,#68,.T.);
#423=EDGE_CURVE('',#333,#353,#210,.T.);
#424=EDGE_CURVE('',#353,#352,#211,.T.);
#425=EDGE_CURVE('',#332,#354,#212,.T.);
#426=EDGE_CURVE('',#354,#353,#69,.T.);
#427=EDGE_CURVE('',#348,#354,#213,.T.);
#428=EDGE_CURVE('',#355,#353,#214,.T.);
#429=EDGE_CURVE('',#356,#355,#215,.T.);
#430=EDGE_CURVE('',#352,#356,#216,.T.);
#431=EDGE_CURVE('',#357,#358,#217,.T.);
#432=EDGE_CURVE('',#358,#359,#218,.T.);
#433=EDGE_CURVE('',#359,#360,#219,.T.);
#434=EDGE_CURVE('',#360,#357,#220,.T.);
#435=EDGE_CURVE('',#354,#361,#221,.T.);
#436=EDGE_CURVE('',#355,#361,#70,.T.);
#437=EDGE_CURVE('',#362,#348,#222,.T.);
#438=EDGE_CURVE('',#361,#362,#223,.T.);
#439=EDGE_CURVE('',#347,#363,#224,.T.);
#440=EDGE_CURVE('',#362,#363,#71,.T.);
#441=EDGE_CURVE('',#340,#362,#225,.T.);
#442=EDGE_CURVE('',#363,#339,#226,.T.);
#443=EDGE_CURVE('',#346,#361,#227,.T.);
#444=EDGE_CURVE('',#345,#355,#228,.T.);
#445=EDGE_CURVE('',#344,#356,#229,.T.);
#446=EDGE_CURVE('',#343,#364,#230,.T.);
#447=EDGE_CURVE('',#364,#356,#72,.T.);
#448=EDGE_CURVE('',#342,#365,#231,.T.);
#449=EDGE_CURVE('',#365,#364,#232,.T.);
#450=EDGE_CURVE('',#341,#366,#233,.T.);
#451=EDGE_CURVE('',#366,#365,#73,.T.);
#452=EDGE_CURVE('',#363,#366,#234,.T.);
#453=EDGE_CURVE('',#364,#351,#235,.T.);
#454=EDGE_CURVE('',#350,#365,#236,.T.);
#455=EDGE_CURVE('',#366,#349,#237,.T.);
#456=EDGE_CURVE('',#367,#368,#238,.T.);
#457=EDGE_CURVE('',#369,#368,#239,.T.);
#458=EDGE_CURVE('',#369,#370,#240,.T.);
#459=EDGE_CURVE('',#370,#367,#241,.T.);
#460=EDGE_CURVE('',#371,#360,#242,.T.);
#461=EDGE_CURVE('',#372,#359,#243,.T.);
#462=EDGE_CURVE('',#371,#372,#244,.T.);
#463=EDGE_CURVE('',#357,#373,#245,.T.);
#464=EDGE_CURVE('',#374,#373,#246,.T.);
#465=EDGE_CURVE('',#358,#374,#247,.T.);
#466=EDGE_CURVE('',#373,#371,#74,.T.);
#467=EDGE_CURVE('',#374,#372,#75,.T.);
#468=EDGE_CURVE('',#375,#368,#248,.T.);
#469=EDGE_CURVE('',#376,#367,#249,.T.);
#470=EDGE_CURVE('',#375,#376,#250,.T.);
#471=EDGE_CURVE('',#369,#377,#251,.T.);
#472=EDGE_CURVE('',#378,#377,#252,.T.);
#473=EDGE_CURVE('',#370,#378,#253,.T.);
#474=EDGE_CURVE('',#377,#375,#76,.T.);
#475=EDGE_CURVE('',#378,#376,#77,.T.);
#476=ORIENTED_EDGE('',*,*,#379,.T.);
#477=ORIENTED_EDGE('',*,*,#380,.T.);
#478=ORIENTED_EDGE('',*,*,#379,.F.);
#479=ORIENTED_EDGE('',*,*,#381,.T.);
#480=ORIENTED_EDGE('',*,*,#382,.F.);
#481=ORIENTED_EDGE('',*,*,#383,.T.);
#482=ORIENTED_EDGE('',*,*,#384,.F.);
#483=ORIENTED_EDGE('',*,*,#383,.F.);
#484=ORIENTED_EDGE('',*,*,#385,.F.);
#485=ORIENTED_EDGE('',*,*,#381,.F.);
#486=ORIENTED_EDGE('',*,*,#386,.F.);
#487=ORIENTED_EDGE('',*,*,#387,.T.);
#488=ORIENTED_EDGE('',*,*,#380,.F.);
#489=ORIENTED_EDGE('',*,*,#387,.F.);
#490=ORIENTED_EDGE('',*,*,#388,.T.);
#491=ORIENTED_EDGE('',*,*,#389,.T.);
#492=ORIENTED_EDGE('',*,*,#388,.F.);
#493=ORIENTED_EDGE('',*,*,#385,.T.);
#494=ORIENTED_EDGE('',*,*,#390,.T.);
#495=ORIENTED_EDGE('',*,*,#391,.T.);
#496=ORIENTED_EDGE('',*,*,#389,.F.);
#497=ORIENTED_EDGE('',*,*,#391,.F.);
#498=ORIENTED_EDGE('',*,*,#392,.T.);
#499=ORIENTED_EDGE('',*,*,#393,.T.);
#500=ORIENTED_EDGE('',*,*,#384,.T.);
#501=ORIENTED_EDGE('',*,*,#393,.F.);
#502=ORIENTED_EDGE('',*,*,#394,.F.);
#503=ORIENTED_EDGE('',*,*,#395,.F.);
#504=ORIENTED_EDGE('',*,*,#396,.F.);
#505=ORIENTED_EDGE('',*,*,#397,.F.);
#506=ORIENTED_EDGE('',*,*,#398,.F.);
#507=ORIENTED_EDGE('',*,*,#399,.F.);
#508=ORIENTED_EDGE('',*,*,#400,.F.);
#509=ORIENTED_EDGE('',*,*,#401,.F.);
#510=ORIENTED_EDGE('',*,*,#392,.F.);
#511=ORIENTED_EDGE('',*,*,#402,.T.);
#512=ORIENTED_EDGE('',*,*,#403,.T.);
#513=ORIENTED_EDGE('',*,*,#382,.T.);
#514=ORIENTED_EDGE('',*,*,#403,.F.);
#515=ORIENTED_EDGE('',*,*,#404,.F.);
#516=ORIENTED_EDGE('',*,*,#405,.F.);
#517=ORIENTED_EDGE('',*,*,#406,.F.);
#518=ORIENTED_EDGE('',*,*,#407,.F.);
#519=ORIENTED_EDGE('',*,*,#408,.F.);
#520=ORIENTED_EDGE('',*,*,#409,.F.);
#521=ORIENTED_EDGE('',*,*,#410,.F.);
#522=ORIENTED_EDGE('',*,*,#411,.F.);
#523=ORIENTED_EDGE('',*,*,#402,.F.);
#524=ORIENTED_EDGE('',*,*,#412,.T.);
#525=ORIENTED_EDGE('',*,*,#413,.T.);
#526=ORIENTED_EDGE('',*,*,#414,.T.);
#527=ORIENTED_EDGE('',*,*,#394,.T.);
#528=ORIENTED_EDGE('',*,*,#412,.F.);
#529=ORIENTED_EDGE('',*,*,#401,.T.);
#530=ORIENTED_EDGE('',*,*,#415,.T.);
#531=ORIENTED_EDGE('',*,*,#416,.T.);
#532=ORIENTED_EDGE('',*,*,#417,.T.);
#533=ORIENTED_EDGE('',*,*,#418,.T.);
#534=ORIENTED_EDGE('',*,*,#415,.F.);
#535=ORIENTED_EDGE('',*,*,#400,.T.);
#536=ORIENTED_EDGE('',*,*,#417,.F.);
#537=ORIENTED_EDGE('',*,*,#399,.T.);
#538=ORIENTED_EDGE('',*,*,#419,.T.);
#539=ORIENTED_EDGE('',*,*,#420,.T.);
#540=ORIENTED_EDGE('',*,*,#421,.T.);
#541=ORIENTED_EDGE('',*,*,#422,.T.);
#542=ORIENTED_EDGE('',*,*,#419,.F.);
#543=ORIENTED_EDGE('',*,*,#398,.T.);
#544=ORIENTED_EDGE('',*,*,#421,.F.);
#545=ORIENTED_EDGE('',*,*,#397,.T.);
#546=ORIENTED_EDGE('',*,*,#423,.T.);
#547=ORIENTED_EDGE('',*,*,#424,.T.);
#548=ORIENTED_EDGE('',*,*,#425,.T.);
#549=ORIENTED_EDGE('',*,*,#426,.T.);
#550=ORIENTED_EDGE('',*,*,#423,.F.);
#551=ORIENTED_EDGE('',*,*,#396,.T.);
#552=ORIENTED_EDGE('',*,*,#425,.F.);
#553=ORIENTED_EDGE('',*,*,#395,.T.);
#554=ORIENTED_EDGE('',*,*,#414,.F.);
#555=ORIENTED_EDGE('',*,*,#427,.T.);
#556=ORIENTED_EDGE('',*,*,#424,.F.);
#557=ORIENTED_EDGE('',*,*,#428,.F.);
#558=ORIENTED_EDGE('',*,*,#429,.F.);
#559=ORIENTED_EDGE('',*,*,#430,.F.);
#560=ORIENTED_EDGE('',*,*,#431,.T.);
#561=ORIENTED_EDGE('',*,*,#432,.T.);
#562=ORIENTED_EDGE('',*,*,#433,.T.);
#563=ORIENTED_EDGE('',*,*,#434,.T.);
#564=ORIENTED_EDGE('',*,*,#426,.F.);
#565=ORIENTED_EDGE('',*,*,#435,.T.);
#566=ORIENTED_EDGE('',*,*,#436,.F.);
#567=ORIENTED_EDGE('',*,*,#428,.T.);
#568=ORIENTED_EDGE('',*,*,#427,.F.);
#569=ORIENTED_EDGE('',*,*,#437,.F.);
#570=ORIENTED_EDGE('',*,*,#438,.F.);
#571=ORIENTED_EDGE('',*,*,#435,.F.);
#572=ORIENTED_EDGE('',*,*,#413,.F.);
#573=ORIENTED_EDGE('',*,*,#439,.T.);
#574=ORIENTED_EDGE('',*,*,#440,.F.);
#575=ORIENTED_EDGE('',*,*,#437,.T.);
#576=ORIENTED_EDGE('',*,*,#441,.T.);
#577=ORIENTED_EDGE('',*,*,#440,.T.);
#578=ORIENTED_EDGE('',*,*,#442,.T.);
#579=ORIENTED_EDGE('',*,*,#404,.T.);
#580=ORIENTED_EDGE('',*,*,#441,.F.);
#581=ORIENTED_EDGE('',*,*,#411,.T.);
#582=ORIENTED_EDGE('',*,*,#443,.T.);
#583=ORIENTED_EDGE('',*,*,#438,.T.);
#584=ORIENTED_EDGE('',*,*,#444,.T.);
#585=ORIENTED_EDGE('',*,*,#436,.T.);
#586=ORIENTED_EDGE('',*,*,#443,.F.);
#587=ORIENTED_EDGE('',*,*,#410,.T.);
#588=ORIENTED_EDGE('',*,*,#444,.F.);
#589=ORIENTED_EDGE('',*,*,#409,.T.);
#590=ORIENTED_EDGE('',*,*,#445,.T.);
#591=ORIENTED_EDGE('',*,*,#429,.T.);
#592=ORIENTED_EDGE('',*,*,#446,.T.);
#593=ORIENTED_EDGE('',*,*,#447,.T.);
#594=ORIENTED_EDGE('',*,*,#445,.F.);
#595=ORIENTED_EDGE('',*,*,#408,.T.);
#596=ORIENTED_EDGE('',*,*,#446,.F.);
#597=ORIENTED_EDGE('',*,*,#407,.T.);
#598=ORIENTED_EDGE('',*,*,#448,.T.);
#599=ORIENTED_EDGE('',*,*,#449,.T.);
#600=ORIENTED_EDGE('',*,*,#450,.T.);
#601=ORIENTED_EDGE('',*,*,#451,.T.);
#602=ORIENTED_EDGE('',*,*,#448,.F.);
#603=ORIENTED_EDGE('',*,*,#406,.T.);
#604=ORIENTED_EDGE('',*,*,#450,.F.);
#605=ORIENTED_EDGE('',*,*,#405,.T.);
#606=ORIENTED_EDGE('',*,*,#442,.F.);
#607=ORIENTED_EDGE('',*,*,#452,.T.);
#608=ORIENTED_EDGE('',*,*,#420,.F.);
#609=ORIENTED_EDGE('',*,*,#453,.F.);
#610=ORIENTED_EDGE('',*,*,#449,.F.);
#611=ORIENTED_EDGE('',*,*,#454,.F.);
#612=ORIENTED_EDGE('',*,*,#418,.F.);
#613=ORIENTED_EDGE('',*,*,#454,.T.);
#614=ORIENTED_EDGE('',*,*,#451,.F.);
#615=ORIENTED_EDGE('',*,*,#455,.T.);
#616=ORIENTED_EDGE('',*,*,#416,.F.);
#617=ORIENTED_EDGE('',*,*,#455,.F.);
#618=ORIENTED_EDGE('',*,*,#452,.F.);
#619=ORIENTED_EDGE('',*,*,#439,.F.);
#620=ORIENTED_EDGE('',*,*,#456,.T.);
#621=ORIENTED_EDGE('',*,*,#457,.F.);
#622=ORIENTED_EDGE('',*,*,#458,.T.);
#623=ORIENTED_EDGE('',*,*,#459,.T.);
#624=ORIENTED_EDGE('',*,*,#422,.F.);
#625=ORIENTED_EDGE('',*,*,#430,.T.);
#626=ORIENTED_EDGE('',*,*,#447,.F.);
#627=ORIENTED_EDGE('',*,*,#453,.T.);
#628=ORIENTED_EDGE('',*,*,#460,.T.);
#629=ORIENTED_EDGE('',*,*,#433,.F.);
#630=ORIENTED_EDGE('',*,*,#461,.F.);
#631=ORIENTED_EDGE('',*,*,#462,.F.);
#632=ORIENTED_EDGE('',*,*,#463,.T.);
#633=ORIENTED_EDGE('',*,*,#464,.F.);
#634=ORIENTED_EDGE('',*,*,#465,.F.);
#635=ORIENTED_EDGE('',*,*,#431,.F.);
#636=ORIENTED_EDGE('',*,*,#466,.T.);
#637=ORIENTED_EDGE('',*,*,#462,.T.);
#638=ORIENTED_EDGE('',*,*,#467,.F.);
#639=ORIENTED_EDGE('',*,*,#464,.T.);
#640=ORIENTED_EDGE('',*,*,#390,.F.);
#641=ORIENTED_EDGE('',*,*,#460,.F.);
#642=ORIENTED_EDGE('',*,*,#466,.F.);
#643=ORIENTED_EDGE('',*,*,#463,.F.);
#644=ORIENTED_EDGE('',*,*,#434,.F.);
#645=ORIENTED_EDGE('',*,*,#461,.T.);
#646=ORIENTED_EDGE('',*,*,#432,.F.);
#647=ORIENTED_EDGE('',*,*,#465,.T.);
#648=ORIENTED_EDGE('',*,*,#467,.T.);
#649=ORIENTED_EDGE('',*,*,#468,.T.);
#650=ORIENTED_EDGE('',*,*,#456,.F.);
#651=ORIENTED_EDGE('',*,*,#469,.F.);
#652=ORIENTED_EDGE('',*,*,#470,.F.);
#653=ORIENTED_EDGE('',*,*,#471,.T.);
#654=ORIENTED_EDGE('',*,*,#472,.F.);
#655=ORIENTED_EDGE('',*,*,#473,.F.);
#656=ORIENTED_EDGE('',*,*,#458,.F.);
#657=ORIENTED_EDGE('',*,*,#474,.T.);
#658=ORIENTED_EDGE('',*,*,#470,.T.);
#659=ORIENTED_EDGE('',*,*,#475,.F.);
#660=ORIENTED_EDGE('',*,*,#472,.T.);
#661=ORIENTED_EDGE('',*,*,#386,.T.);
#662=ORIENTED_EDGE('',*,*,#468,.F.);
#663=ORIENTED_EDGE('',*,*,#474,.F.);
#664=ORIENTED_EDGE('',*,*,#471,.F.);
#665=ORIENTED_EDGE('',*,*,#457,.T.);
#666=ORIENTED_EDGE('',*,*,#469,.T.);
#667=ORIENTED_EDGE('',*,*,#459,.F.);
#668=ORIENTED_EDGE('',*,*,#473,.T.);
#669=ORIENTED_EDGE('',*,*,#475,.T.);
#670=B_SPLINE_SURFACE_WITH_KNOTS('',3,3,((#1047,#1048,#1049,#1050,#1051,
#1052,#1053,#1054,#1055,#1056,#1057,#1058,#1059,#1060,#1061,#1062,#1063,
#1064,#1065,#1066),(#1067,#1068,#1069,#1070,#1071,#1072,#1073,#1074,#1075,
#1076,#1077,#1078,#1079,#1080,#1081,#1082,#1083,#1084,#1085,#1086),(#1087,
#1088,#1089,#1090,#1091,#1092,#1093,#1094,#1095,#1096,#1097,#1098,#1099,
#1100,#1101,#1102,#1103,#1104,#1105,#1106),(#1107,#1108,#1109,#1110,#1111,
#1112,#1113,#1114,#1115,#1116,#1117,#1118,#1119,#1120,#1121,#1122,#1123,
#1124,#1125,#1126)),.UNSPECIFIED.,.F.,.T.,.F.,(4,4),(4,1,1,1,1,1,1,1,1,
1,1,1,1,1,1,1,1,4),(0.,1.),(0.,0.060334160517546,0.120668321035092,0.181002481552638,
0.241336642070184,0.271503722328957,0.30167080258773,0.331837882846503,
0.362004963105276,0.482673284140368,0.512840364399141,0.543007444657914,
0.573174524916687,0.60334160517546,0.663675765693006,0.724009926210552,
0.784344086728098,0.844678247245644),.UNSPECIFIED.);
#671=B_SPLINE_SURFACE_WITH_KNOTS('',3,3,((#1233,#1234,#1235,#1236,#1237,
#1238,#1239,#1240,#1241,#1242,#1243,#1244,#1245,#1246,#1247,#1248,#1249,
#1250,#1251),(#1252,#1253,#1254,#1255,#1256,#1257,#1258,#1259,#1260,#1261,
#1262,#1263,#1264,#1265,#1266,#1267,#1268,#1269,#1270),(#1271,#1272,#1273,
#1274,#1275,#1276,#1277,#1278,#1279,#1280,#1281,#1282,#1283,#1284,#1285,
#1286,#1287,#1288,#1289),(#1290,#1291,#1292,#1293,#1294,#1295,#1296,#1297,
#1298,#1299,#1300,#1301,#1302,#1303,#1304,#1305,#1306,#1307,#1308)),
 .UNSPECIFIED.,.F.,.T.,.F.,(4,4),(4,1,1,1,1,1,1,1,1,1,1,1,1,1,1,1,4),(0.,
1.),(0.,0.060334160517546,0.120668321035092,0.196086021682024,0.241336642070184,
0.30167080258773,0.331837882846503,0.362004963105276,0.422339123622822,
0.452506203881595,0.482673284140368,0.543007444657914,0.60334160517546,
0.663675765693006,0.724009926210552,0.784344086728098,0.844678247245644),
 .UNSPECIFIED.);
#672=STYLED_ITEM('',(#1558),#716);
#673=STYLED_ITEM('',(#1558),#717);
#674=STYLED_ITEM('',(#1558),#718);
#675=STYLED_ITEM('',(#1558),#719);
#676=STYLED_ITEM('',(#1558),#720);
#677=STYLED_ITEM('',(#1558),#721);
#678=STYLED_ITEM('',(#1558),#722);
#679=STYLED_ITEM('',(#1558),#723);
#680=STYLED_ITEM('',(#1558),#724);
#681=STYLED_ITEM('',(#1558),#725);
#682=STYLED_ITEM('',(#1558),#726);
#683=STYLED_ITEM('',(#1558),#727);
#684=STYLED_ITEM('',(#1558),#728);
#685=STYLED_ITEM('',(#1558),#729);
#686=STYLED_ITEM('',(#1558),#730);
#687=STYLED_ITEM('',(#1558),#731);
#688=STYLED_ITEM('',(#1558),#732);
#689=STYLED_ITEM('',(#1558),#733);
#690=STYLED_ITEM('',(#1558),#734);
#691=STYLED_ITEM('',(#1558),#735);
#692=STYLED_ITEM('',(#1558),#736);
#693=STYLED_ITEM('',(#1558),#737);
#694=STYLED_ITEM('',(#1558),#738);
#695=STYLED_ITEM('',(#1558),#739);
#696=STYLED_ITEM('',(#1558),#740);
#697=STYLED_ITEM('',(#1558),#741);
#698=STYLED_ITEM('',(#1558),#742);
#699=STYLED_ITEM('',(#1558),#743);
#700=STYLED_ITEM('',(#1558),#744);
#701=STYLED_ITEM('',(#1558),#745);
#702=STYLED_ITEM('',(#1558),#746);
#703=STYLED_ITEM('',(#1558),#747);
#704=STYLED_ITEM('',(#1558),#748);
#705=STYLED_ITEM('',(#1558),#749);
#706=STYLED_ITEM('',(#1558),#750);
#707=STYLED_ITEM('',(#1558),#751);
#708=STYLED_ITEM('',(#1558),#752);
#709=STYLED_ITEM('',(#1558),#753);
#710=STYLED_ITEM('',(#1558),#754);
#711=STYLED_ITEM('',(#1558),#755);
#712=STYLED_ITEM('',(#1558),#756);
#713=STYLED_ITEM('',(#1558),#757);
#714=STYLED_ITEM('',(#1558),#758);
#715=STYLED_ITEM('',(#1558),#13);
#716=ADVANCED_FACE('',(#87),#670,.T.);
#717=ADVANCED_FACE('',(#88,#46,#47),#78,.F.);
#718=ADVANCED_FACE('',(#89),#79,.F.);
#719=ADVANCED_FACE('',(#90),#671,.T.);
#720=ADVANCED_FACE('',(#91),#80,.F.);
#721=ADVANCED_FACE('',(#92),#36,.F.);
#722=ADVANCED_FACE('',(#93,#48),#14,.F.);
#723=ADVANCED_FACE('',(#94),#37,.F.);
#724=ADVANCED_FACE('',(#95,#49),#15,.T.);
#725=ADVANCED_FACE('',(#96),#38,.T.);
#726=ADVANCED_FACE('',(#97),#16,.T.);
#727=ADVANCED_FACE('',(#98),#39,.T.);
#728=ADVANCED_FACE('',(#99),#17,.T.);
#729=ADVANCED_FACE('',(#100),#40,.T.);
#730=ADVANCED_FACE('',(#101),#18,.T.);
#731=ADVANCED_FACE('',(#102),#41,.T.);
#732=ADVANCED_FACE('',(#103),#19,.T.);
#733=ADVANCED_FACE('',(#104,#50),#20,.T.);
#734=ADVANCED_FACE('',(#105),#81,.T.);
#735=ADVANCED_FACE('',(#106),#21,.T.);
#736=ADVANCED_FACE('',(#107),#82,.T.);
#737=ADVANCED_FACE('',(#108),#42,.T.);
#738=ADVANCED_FACE('',(#109),#22,.T.);
#739=ADVANCED_FACE('',(#110),#43,.T.);
#740=ADVANCED_FACE('',(#111),#23,.T.);
#741=ADVANCED_FACE('',(#112),#44,.T.);
#742=ADVANCED_FACE('',(#113),#24,.T.);
#743=ADVANCED_FACE('',(#114),#45,.T.);
#744=ADVANCED_FACE('',(#115),#25,.T.);
#745=ADVANCED_FACE('',(#116),#26,.T.);
#746=ADVANCED_FACE('',(#117),#83,.T.);
#747=ADVANCED_FACE('',(#118,#51),#27,.T.);
#748=ADVANCED_FACE('',(#119),#84,.T.);
#749=ADVANCED_FACE('',(#120),#28,.F.);
#750=ADVANCED_FACE('',(#121),#29,.F.);
#751=ADVANCED_FACE('',(#122,#52),#85,.F.);
#752=ADVANCED_FACE('',(#123),#30,.T.);
#753=ADVANCED_FACE('',(#124),#31,.F.);
#754=ADVANCED_FACE('',(#125),#32,.F.);
#755=ADVANCED_FACE('',(#126),#33,.F.);
#756=ADVANCED_FACE('',(#127,#53),#86,.F.);
#757=ADVANCED_FACE('',(#128),#34,.T.);
#758=ADVANCED_FACE('',(#129),#35,.F.);
#759=CLOSED_SHELL('',(#716,#717,#718,#719,#720,#721,#722,#723,#724,#725,
#726,#727,#728,#729,#730,#731,#732,#733,#734,#735,#736,#737,#738,#739,#740,
#741,#742,#743,#744,#745,#746,#747,#748,#749,#750,#751,#752,#753,#754,#755,
#756,#757,#758));
#760=DERIVED_UNIT_ELEMENT(#763,1.);
#761=DERIVED_UNIT_ELEMENT(#1544,-3.);
#762=DIMENSIONAL_EXPONENTS(0.,1.,0.,0.,0.,0.,0.);
#763=(
CONVERSION_BASED_UNIT('gram',#765)
MASS_UNIT()
NAMED_UNIT(#762)
);
#764=(
MASS_UNIT()
NAMED_UNIT(*)
SI_UNIT(.KILO.,.GRAM.)
);
#765=MASS_MEASURE_WITH_UNIT(MASS_MEASURE(0.001),#764);
#766=DERIVED_UNIT((#760,#761));
#767=MEASURE_REPRESENTATION_ITEM('density measure',
POSITIVE_RATIO_MEASURE(1.06),#766);
#768=PROPERTY_DEFINITION_REPRESENTATION(#773,#770);
#769=PROPERTY_DEFINITION_REPRESENTATION(#774,#771);
#770=REPRESENTATION('material name',(#772),#1541);
#771=REPRESENTATION('density',(#767),#1541);
#772=DESCRIPTIVE_REPRESENTATION_ITEM('ABS Plastic','ABS Plastic');
#773=PROPERTY_DEFINITION('material property','material name',#1551);
#774=PROPERTY_DEFINITION('material property','density of part',#1551);
#775=DATE_TIME_ROLE('creation_date');
#776=APPLIED_DATE_AND_TIME_ASSIGNMENT(#777,#775,(#1551));
#777=DATE_AND_TIME(#778,#779);
#778=CALENDAR_DATE(2025,15,1);
#779=LOCAL_TIME(0,0,0.,#780);
#780=COORDINATED_UNIVERSAL_TIME_OFFSET(0,0,.BEHIND.);
#781=AXIS2_PLACEMENT_3D('',#1046,#847,#848);
#782=AXIS2_PLACEMENT_3D('',#1170,#850,#851);
#783=AXIS2_PLACEMENT_3D('',#1172,#852,#853);
#784=AXIS2_PLACEMENT_3D('',#1175,#855,#856);
#785=AXIS2_PLACEMENT_3D('',#1196,#857,#858);
#786=AXIS2_PLACEMENT_3D('',#1330,#861,#862);
#787=AXIS2_PLACEMENT_3D('',#1367,#864,#865);
#788=AXIS2_PLACEMENT_3D('',#1369,#866,#867);
#789=AXIS2_PLACEMENT_3D('',#1371,#869,#870);
#790=AXIS2_PLACEMENT_3D('',#1374,#871,#872);
#791=AXIS2_PLACEMENT_3D('',#1378,#874,#875);
#792=AXIS2_PLACEMENT_3D('',#1382,#877,#878);
#793=AXIS2_PLACEMENT_3D('',#1386,#880,#881);
#794=AXIS2_PLACEMENT_3D('',#1388,#883,#884);
#795=AXIS2_PLACEMENT_3D('',#1390,#885,#886);
#796=AXIS2_PLACEMENT_3D('',#1392,#888,#889);
#797=AXIS2_PLACEMENT_3D('',#1395,#890,#891);
#798=AXIS2_PLACEMENT_3D('',#1399,#893,#894);
#799=AXIS2_PLACEMENT_3D('',#1403,#896,#897);
#800=AXIS2_PLACEMENT_3D('',#1407,#899,#900);
#801=AXIS2_PLACEMENT_3D('',#1409,#902,#903);
#802=AXIS2_PLACEMENT_3D('',#1413,#905,#906);
#803=AXIS2_PLACEMENT_3D('',#1415,#908,#909);
#804=AXIS2_PLACEMENT_3D('',#1419,#912,#913);
#805=AXIS2_PLACEMENT_3D('',#1422,#915,#916);
#806=AXIS2_PLACEMENT_3D('',#1423,#917,#918);
#807=AXIS2_PLACEMENT_3D('',#1427,#921,#922);
#808=AXIS2_PLACEMENT_3D('',#1430,#924,#925);
#809=AXIS2_PLACEMENT_3D('',#1431,#926,#927);
#810=AXIS2_PLACEMENT_3D('',#1435,#930,#931);
#811=AXIS2_PLACEMENT_3D('',#1438,#933,#934);
#812=AXIS2_PLACEMENT_3D('',#1439,#935,#936);
#813=AXIS2_PLACEMENT_3D('',#1441,#938,#939);
#814=AXIS2_PLACEMENT_3D('',#1455,#947,#948);
#815=AXIS2_PLACEMENT_3D('',#1458,#950,#951);
#816=AXIS2_PLACEMENT_3D('',#1459,#952,#953);
#817=AXIS2_PLACEMENT_3D('',#1463,#956,#957);
#818=AXIS2_PLACEMENT_3D('',#1466,#959,#960);
#819=AXIS2_PLACEMENT_3D('',#1467,#961,#962);
#820=AXIS2_PLACEMENT_3D('',#1470,#965,#966);
#821=AXIS2_PLACEMENT_3D('',#1472,#968,#969);
#822=AXIS2_PLACEMENT_3D('',#1474,#971,#972);
#823=AXIS2_PLACEMENT_3D('',#1476,#974,#975);
#824=AXIS2_PLACEMENT_3D('',#1479,#977,#978);
#825=AXIS2_PLACEMENT_3D('',#1480,#979,#980);
#826=AXIS2_PLACEMENT_3D('',#1484,#983,#984);
#827=AXIS2_PLACEMENT_3D('',#1487,#986,#987);
#828=AXIS2_PLACEMENT_3D('',#1488,#988,#989);
#829=AXIS2_PLACEMENT_3D('',#1490,#991,#992);
#830=AXIS2_PLACEMENT_3D('',#1493,#995,#996);
#831=AXIS2_PLACEMENT_3D('',#1495,#998,#999);
#832=AXIS2_PLACEMENT_3D('',#1504,#1004,#1005);
#833=AXIS2_PLACEMENT_3D('',#1505,#1006,#1007);
#834=AXIS2_PLACEMENT_3D('',#1511,#1011,#1012);
#835=AXIS2_PLACEMENT_3D('',#1517,#1016,#1017);
#836=AXIS2_PLACEMENT_3D('',#1518,#1018,#1019);
#837=AXIS2_PLACEMENT_3D('',#1519,#1020,#1021);
#838=AXIS2_PLACEMENT_3D('',#1520,#1022,#1023);
#839=AXIS2_PLACEMENT_3D('',#1521,#1024,#1025);
#840=AXIS2_PLACEMENT_3D('',#1522,#1026,#1027);
#841=AXIS2_PLACEMENT_3D('',#1528,#1031,#1032);
#842=AXIS2_PLACEMENT_3D('',#1534,#1036,#1037);
#843=AXIS2_PLACEMENT_3D('',#1535,#1038,#1039);
#844=AXIS2_PLACEMENT_3D('',#1536,#1040,#1041);
#845=AXIS2_PLACEMENT_3D('',#1537,#1042,#1043);
#846=AXIS2_PLACEMENT_3D('',#1538,#1044,#1045);
#847=DIRECTION('axis',(0.,0.,1.));
#848=DIRECTION('refdir',(1.,0.,0.));
#849=DIRECTION('',(0.657770766797462,-0.753218174466521,0.));
#850=DIRECTION('center_axis',(0.,0.,1.));
#851=DIRECTION('ref_axis',(-1.,0.,0.));
#852=DIRECTION('center_axis',(0.,0.,-1.));
#853=DIRECTION('ref_axis',(-1.,0.,0.));
#854=DIRECTION('',(0.,0.,-1.));
#855=DIRECTION('center_axis',(0.,0.,1.));
#856=DIRECTION('ref_axis',(-1.,0.,0.));
#857=DIRECTION('center_axis',(0.,1.,0.));
#858=DIRECTION('ref_axis',(1.,0.,0.));
#859=DIRECTION('',(0.,1.,0.));
#860=DIRECTION('',(-0.657770766797463,0.753218174466521,0.));
#861=DIRECTION('center_axis',(-1.22464679914735E-16,-1.,0.));
#862=DIRECTION('ref_axis',(-1.,1.22464679914735E-16,0.));
#863=DIRECTION('',(-1.22464679914735E-16,-1.,0.));
#864=DIRECTION('center_axis',(0.,0.,-1.));
#865=DIRECTION('ref_axis',(-1.,0.,0.));
#866=DIRECTION('center_axis',(0.,0.,-1.));
#867=DIRECTION('ref_axis',(-1.,0.,0.));
#868=DIRECTION('',(-0.707106781186548,8.65956056235494E-17,0.707106781186547));
#869=DIRECTION('center_axis',(0.,0.,1.));
#870=DIRECTION('ref_axis',(1.,0.,0.));
#871=DIRECTION('center_axis',(0.,0.,1.));
#872=DIRECTION('ref_axis',(-0.707106781186548,-0.707106781186548,0.));
#873=DIRECTION('',(8.98966011842232E-17,-1.,0.));
#874=DIRECTION('center_axis',(0.,0.,1.));
#875=DIRECTION('ref_axis',(-0.707106781186548,0.707106781186548,0.));
#876=DIRECTION('',(-1.,-3.1720657846433E-16,0.));
#877=DIRECTION('center_axis',(0.,0.,1.));
#878=DIRECTION('ref_axis',(0.707106781186547,0.707106781186548,0.));
#879=DIRECTION('',(-2.24741502960558E-16,1.,0.));
#880=DIRECTION('center_axis',(0.,0.,1.));
#881=DIRECTION('ref_axis',(0.707106781186548,-0.707106781186547,0.));
#882=DIRECTION('',(1.,1.58603289232165E-16,0.));
#883=DIRECTION('center_axis',(0.,0.,1.));
#884=DIRECTION('ref_axis',(-1.,0.,0.));
#885=DIRECTION('center_axis',(0.,0.,1.));
#886=DIRECTION('ref_axis',(-1.,0.,0.));
#887=DIRECTION('',(-0.707106781186548,-8.65956056235494E-17,-0.707106781186548));
#888=DIRECTION('center_axis',(0.,0.,1.));
#889=DIRECTION('ref_axis',(1.,0.,0.));
#890=DIRECTION('center_axis',(0.,0.,-1.));
#891=DIRECTION('ref_axis',(-0.707106781186548,-0.707106781186548,0.));
#892=DIRECTION('',(-1.,-1.58603289232165E-16,0.));
#893=DIRECTION('center_axis',(0.,0.,-1.));
#894=DIRECTION('ref_axis',(0.707106781186548,-0.707106781186547,0.));
#895=DIRECTION('',(2.24741502960558E-16,-1.,0.));
#896=DIRECTION('center_axis',(0.,0.,-1.));
#897=DIRECTION('ref_axis',(0.707106781186547,0.707106781186548,0.));
#898=DIRECTION('',(1.,3.1720657846433E-16,0.));
#899=DIRECTION('center_axis',(0.,0.,-1.));
#900=DIRECTION('ref_axis',(-0.707106781186548,0.707106781186548,0.));
#901=DIRECTION('',(-8.98966011842232E-17,1.,0.));
#902=DIRECTION('center_axis',(0.,0.,1.));
#903=DIRECTION('ref_axis',(-0.707106781186548,-0.707106781186548,0.));
#904=DIRECTION('',(1.96261557335472E-15,-0.707106781186548,0.707106781186547));
#905=DIRECTION('center_axis',(0.,0.,-1.));
#906=DIRECTION('ref_axis',(-0.707106781186547,-0.707106781186547,0.));
#907=DIRECTION('',(0.707106781186548,0.,-0.707106781186547));
#908=DIRECTION('center_axis',(1.12149461334555E-16,-0.707106781186543,-0.707106781186552));
#909=DIRECTION('ref_axis',(-1.,0.,-1.58603289232163E-16));
#910=DIRECTION('',(-1.96261557335471E-15,-0.707106781186551,0.707106781186544));
#911=DIRECTION('',(-1.,-1.58603289232165E-16,0.));
#912=DIRECTION('center_axis',(0.,0.,1.));
#913=DIRECTION('ref_axis',(0.707106781186548,-0.707106781186547,0.));
#914=DIRECTION('',(0.707106781186552,3.92523114670941E-15,0.707106781186543));
#915=DIRECTION('center_axis',(0.,0.,-1.));
#916=DIRECTION('ref_axis',(0.707106781186548,-0.707106781186547,0.));
#917=DIRECTION('center_axis',(0.707106781186549,1.58916240757468E-16,-0.707106781186546));
#918=DIRECTION('ref_axis',(-0.707106781186546,0.,-0.707106781186549));
#919=DIRECTION('',(0.707106781186545,-3.92523114670944E-15,0.70710678118655));
#920=DIRECTION('',(2.24741502960558E-16,-1.,0.));
#921=DIRECTION('center_axis',(0.,0.,1.));
#922=DIRECTION('ref_axis',(0.707106781186547,0.707106781186548,0.));
#923=DIRECTION('',(-1.96261557335473E-15,0.707106781186544,0.707106781186551));
#924=DIRECTION('center_axis',(0.,0.,-1.));
#925=DIRECTION('ref_axis',(0.707106781186547,0.707106781186548,0.));
#926=DIRECTION('center_axis',(-2.24298922669111E-16,0.707106781186547,-0.707106781186548));
#927=DIRECTION('ref_axis',(-1.,0.,3.1720657846433E-16));
#928=DIRECTION('',(0.,0.707106781186548,0.707106781186548));
#929=DIRECTION('',(1.,3.1720657846433E-16,0.));
#930=DIRECTION('center_axis',(0.,0.,1.));
#931=DIRECTION('ref_axis',(-0.707106781186548,0.707106781186548,0.));
#932=DIRECTION('',(-0.707106781186548,0.,0.707106781186547));
#933=DIRECTION('center_axis',(0.,0.,-1.));
#934=DIRECTION('ref_axis',(-0.707106781186547,0.707106781186547,0.));
#935=DIRECTION('center_axis',(-0.707106781186547,-6.35664963029868E-17,
-0.707106781186548));
#936=DIRECTION('ref_axis',(-0.707106781186548,0.,0.707106781186547));
#937=DIRECTION('',(-8.98966011842232E-17,1.,0.));
#938=DIRECTION('center_axis',(-3.1720657846433E-16,1.,0.));
#939=DIRECTION('ref_axis',(-1.,-3.1720657846433E-16,0.));
#940=DIRECTION('',(0.,0.,-1.));
#941=DIRECTION('',(-1.,-3.1720657846433E-16,0.));
#942=DIRECTION('',(0.,0.,1.));
#943=DIRECTION('',(0.,0.,1.));
#944=DIRECTION('',(-1.,-3.1720657846433E-16,0.));
#945=DIRECTION('',(0.,0.,-1.));
#946=DIRECTION('',(1.,3.1720657846433E-16,0.));
#947=DIRECTION('center_axis',(0.,0.,1.));
#948=DIRECTION('ref_axis',(-0.707106781186547,0.707106781186547,0.));
#949=DIRECTION('',(0.,0.,1.));
#950=DIRECTION('center_axis',(0.,0.,1.));
#951=DIRECTION('ref_axis',(-0.707106781186547,0.707106781186547,0.));
#952=DIRECTION('center_axis',(-1.,-8.98966011842232E-17,0.));
#953=DIRECTION('ref_axis',(8.98966011842232E-17,-1.,0.));
#954=DIRECTION('',(0.,0.,-1.));
#955=DIRECTION('',(8.98966011842232E-17,-1.,0.));
#956=DIRECTION('center_axis',(0.,0.,1.));
#957=DIRECTION('ref_axis',(-0.707106781186547,-0.707106781186547,0.));
#958=DIRECTION('',(0.,0.,1.));
#959=DIRECTION('center_axis',(0.,0.,1.));
#960=DIRECTION('ref_axis',(-0.707106781186547,-0.707106781186547,0.));
#961=DIRECTION('center_axis',(0.,0.,-1.));
#962=DIRECTION('ref_axis',(-0.707106781186548,-0.707106781186548,0.));
#963=DIRECTION('',(-0.707106781186548,0.,-0.707106781186548));
#964=DIRECTION('',(-1.96261557335472E-15,0.707106781186548,0.707106781186548));
#965=DIRECTION('center_axis',(-0.707106781186548,-6.35664963029868E-17,
0.707106781186548));
#966=DIRECTION('ref_axis',(0.707106781186548,0.,0.707106781186548));
#967=DIRECTION('',(-0.707106781186549,0.,-0.707106781186546));
#968=DIRECTION('center_axis',(0.,0.,-1.));
#969=DIRECTION('ref_axis',(-0.707106781186548,0.707106781186548,0.));
#970=DIRECTION('',(-1.96261557335472E-15,0.707106781186548,-0.707106781186548));
#971=DIRECTION('center_axis',(-2.24298922669111E-16,0.707106781186548,0.707106781186548));
#972=DIRECTION('ref_axis',(1.,0.,3.1720657846433E-16));
#973=DIRECTION('',(0.,0.707106781186551,-0.707106781186544));
#974=DIRECTION('center_axis',(0.,0.,-1.));
#975=DIRECTION('ref_axis',(0.707106781186547,0.707106781186548,0.));
#976=DIRECTION('',(0.707106781186548,0.,-0.707106781186548));
#977=DIRECTION('center_axis',(0.,0.,1.));
#978=DIRECTION('ref_axis',(0.707106781186547,0.707106781186548,0.));
#979=DIRECTION('center_axis',(0.70710678118655,1.58916240757468E-16,0.707106781186546));
#980=DIRECTION('ref_axis',(0.707106781186545,0.,-0.707106781186549));
#981=DIRECTION('',(0.707106781186545,0.,-0.70710678118655));
#982=DIRECTION('',(-2.24741502960558E-16,1.,0.));
#983=DIRECTION('center_axis',(0.,0.,-1.));
#984=DIRECTION('ref_axis',(0.707106781186548,-0.707106781186547,0.));
#985=DIRECTION('',(0.,-0.707106781186548,-0.707106781186548));
#986=DIRECTION('center_axis',(0.,0.,1.));
#987=DIRECTION('ref_axis',(0.707106781186548,-0.707106781186547,0.));
#988=DIRECTION('center_axis',(1.12149461334555E-16,-0.707106781186544,0.707106781186551));
#989=DIRECTION('ref_axis',(1.,0.,-1.58603289232163E-16));
#990=DIRECTION('',(1.,1.58603289232165E-16,0.));
#991=DIRECTION('center_axis',(1.,2.24741502960558E-16,0.));
#992=DIRECTION('ref_axis',(-2.24741502960558E-16,1.,0.));
#993=DIRECTION('',(0.,0.,-1.));
#994=DIRECTION('',(0.,0.,1.));
#995=DIRECTION('center_axis',(0.,0.,-1.));
#996=DIRECTION('ref_axis',(0.707106781186548,-0.707106781186547,0.));
#997=DIRECTION('',(0.,0.,-1.));
#998=DIRECTION('center_axis',(1.58603289232165E-16,-1.,0.));
#999=DIRECTION('ref_axis',(1.,1.58603289232165E-16,0.));
#1000=DIRECTION('',(0.,0.,-1.));
#1001=DIRECTION('',(1.,1.58603289232165E-16,0.));
#1002=DIRECTION('',(0.,0.,1.));
#1003=DIRECTION('',(1.,1.58603289232165E-16,0.));
#1004=DIRECTION('center_axis',(0.,0.,1.));
#1005=DIRECTION('ref_axis',(0.707106781186547,0.707106781186548,0.));
#1006=DIRECTION('center_axis',(-1.,-3.30269145988628E-15,0.));
#1007=DIRECTION('ref_axis',(3.30269145988628E-15,-1.,0.));
#1008=DIRECTION('',(-3.30269145988628E-15,1.,0.));
#1009=DIRECTION('',(-3.30269145988628E-15,1.,0.));
#1010=DIRECTION('',(0.,0.,1.));
#1011=DIRECTION('center_axis',(1.,3.06647379507241E-15,0.));
#1012=DIRECTION('ref_axis',(-3.06647379507241E-15,1.,0.));
#1013=DIRECTION('',(3.06647379507241E-15,-1.,0.));
#1014=DIRECTION('',(0.,0.,-1.));
#1015=DIRECTION('',(3.06647379507241E-15,-1.,0.));
#1016=DIRECTION('center_axis',(0.,0.,1.));
#1017=DIRECTION('ref_axis',(-4.62458911837273E-15,-1.,0.));
#1018=DIRECTION('center_axis',(0.,0.,-1.));
#1019=DIRECTION('ref_axis',(-1.,1.22464679914735E-16,0.));
#1020=DIRECTION('center_axis',(0.,0.,-1.));
#1021=DIRECTION('ref_axis',(-1.,1.22464679914735E-16,0.));
#1022=DIRECTION('center_axis',(0.,0.,1.));
#1023=DIRECTION('ref_axis',(-1.,1.22464679914735E-16,0.));
#1024=DIRECTION('center_axis',(0.,0.,1.));
#1025=DIRECTION('ref_axis',(-1.,1.22464679914735E-16,0.));
#1026=DIRECTION('center_axis',(1.,3.42515613980101E-15,0.));
#1027=DIRECTION('ref_axis',(-3.42515613980101E-15,1.,0.));
#1028=DIRECTION('',(3.42515613980101E-15,-1.,0.));
#1029=DIRECTION('',(3.42515613980101E-15,-1.,0.));
#1030=DIRECTION('',(0.,0.,1.));
#1031=DIRECTION('center_axis',(-1.,-3.18893847498715E-15,0.));
#1032=DIRECTION('ref_axis',(3.18893847498715E-15,-1.,0.));
#1033=DIRECTION('',(-3.18893847498715E-15,1.,0.));
#1034=DIRECTION('',(0.,0.,-1.));
#1035=DIRECTION('',(-3.18893847498715E-15,1.,0.));
#1036=DIRECTION('center_axis',(0.,0.,1.));
#1037=DIRECTION('ref_axis',(4.50212443845799E-15,1.,0.));
#1038=DIRECTION('center_axis',(0.,0.,-1.));
#1039=DIRECTION('ref_axis',(1.,0.,0.));
#1040=DIRECTION('center_axis',(0.,0.,-1.));
#1041=DIRECTION('ref_axis',(1.,0.,0.));
#1042=DIRECTION('center_axis',(0.,0.,1.));
#1043=DIRECTION('ref_axis',(1.,0.,0.));
#1044=DIRECTION('center_axis',(0.,0.,1.));
#1045=DIRECTION('ref_axis',(1.,0.,0.));
#1046=CARTESIAN_POINT('',(0.,0.,0.));
#1047=CARTESIAN_POINT('Ctrl Pts',(-1.69726693771078,-11.3740619367996,2.6));
#1048=CARTESIAN_POINT('Ctrl Pts',(-1.69726693771078,-11.3740619367996,2.35547105315861));
#1049=CARTESIAN_POINT('Ctrl Pts',(-1.56949588856531,-11.3931666758146,1.82295426436565));
#1050=CARTESIAN_POINT('Ctrl Pts',(-1.10502790932029,-11.4527226763501,1.23103977254287));
#1051=CARTESIAN_POINT('Ctrl Pts',(-0.378193476910032,-11.5022419622809,
0.882397456460517));
#1052=CARTESIAN_POINT('Ctrl Pts',(0.252442363071832,-11.5017937724732,0.887027172815805));
#1053=CARTESIAN_POINT('Ctrl Pts',(0.746467912415704,-11.4775011442262,1.05590091105514));
#1054=CARTESIAN_POINT('Ctrl Pts',(1.07460903077863,-11.4506097921761,1.26704841335813));
#1055=CARTESIAN_POINT('Ctrl Pts',(1.3323800953064,-11.4234299531292,1.52414130246214));
#1056=CARTESIAN_POINT('Ctrl Pts',(1.75302281139175,-11.3676128291983,2.18827841920831));
#1057=CARTESIAN_POINT('Ctrl Pts',(1.75339017192568,-11.3681049444663,3.00999959313454));
#1058=CARTESIAN_POINT('Ctrl Pts',(1.33224260266817,-11.4237233604262,3.67574622291214));
#1059=CARTESIAN_POINT('Ctrl Pts',(1.07471977111695,-11.4509016540097,3.93276331731213));
#1060=CARTESIAN_POINT('Ctrl Pts',(0.746434238134455,-11.4778157859979,4.14452364515711));
#1061=CARTESIAN_POINT('Ctrl Pts',(0.252449216713763,-11.5020304806481,4.31313352100221));
#1062=CARTESIAN_POINT('Ctrl Pts',(-0.378200963642519,-11.5023437685662,
4.31772492358314));
#1063=CARTESIAN_POINT('Ctrl Pts',(-1.10502652741622,-11.4528114203306,3.96902643164965));
#1064=CARTESIAN_POINT('Ctrl Pts',(-1.56949828746507,-11.3932110442683,3.37709465519106));
#1065=CARTESIAN_POINT('Ctrl Pts',(-1.69726693771078,-11.3740619367996,2.8445289468414));
#1066=CARTESIAN_POINT('Ctrl Pts',(-1.69726693771078,-11.3740619367996,2.6));
#1067=CARTESIAN_POINT('Ctrl Pts',(-1.59817795847385,-11.487529460469,2.6));
#1068=CARTESIAN_POINT('Ctrl Pts',(-1.59817795847385,-11.487529460469,2.37170466716079));
#1069=CARTESIAN_POINT('Ctrl Pts',(-1.47980265933807,-11.5044491878031,1.8743507434157));
#1070=CARTESIAN_POINT('Ctrl Pts',(-1.04601773223072,-11.5575476079123,1.31592822098786));
#1071=CARTESIAN_POINT('Ctrl Pts',(-0.359108822999412,-11.6020089506314,
0.983265682900872));
#1072=CARTESIAN_POINT('Ctrl Pts',(0.239608342035464,-11.601616160933,0.987611367007896));
#1073=CARTESIAN_POINT('Ctrl Pts',(0.70715947492323,-11.5797975085746,1.14881778119879));
#1074=CARTESIAN_POINT('Ctrl Pts',(1.01642074328658,-11.5557148187396,1.3494101670071));
#1075=CARTESIAN_POINT('Ctrl Pts',(1.25833133185404,-11.5314256330982,1.59245781142154));
#1076=CARTESIAN_POINT('Ctrl Pts',(1.65040602515947,-11.4817708043474,2.21703574394554));
#1077=CARTESIAN_POINT('Ctrl Pts',(1.65089519458833,-11.4821957027541,2.98134017886423));
#1078=CARTESIAN_POINT('Ctrl Pts',(1.25827923493955,-11.5316799742432,3.60743872957871));
#1079=CARTESIAN_POINT('Ctrl Pts',(1.01660594070997,-11.555967378687,3.85041166388729));
#1080=CARTESIAN_POINT('Ctrl Pts',(0.707207624526156,-11.5800706090585,4.05158137479137));
#1081=CARTESIAN_POINT('Ctrl Pts',(0.239678772560876,-11.6018213926749,4.21253896632617));
#1082=CARTESIAN_POINT('Ctrl Pts',(-0.35908978023994,-11.602097295359,4.21684932918434));
#1083=CARTESIAN_POINT('Ctrl Pts',(-1.04599259836808,-11.5576245595781,3.88413377188021));
#1084=CARTESIAN_POINT('Ctrl Pts',(-1.47979342848551,-11.5044876832228,3.32569520639822));
#1085=CARTESIAN_POINT('Ctrl Pts',(-1.59817795847385,-11.487529460469,2.82829533283922));
#1086=CARTESIAN_POINT('Ctrl Pts',(-1.59817795847385,-11.487529460469,2.6));
#1087=CARTESIAN_POINT('Ctrl Pts',(-1.49908897923693,-11.6009969841383,2.6));
#1088=CARTESIAN_POINT('Ctrl Pts',(-1.49908897923693,-11.6009969841383,2.38793828116296));
#1089=CARTESIAN_POINT('Ctrl Pts',(-1.39010943011083,-11.6157316997916,1.92574722246576));
#1090=CARTESIAN_POINT('Ctrl Pts',(-0.987007555141149,-11.6623725394745,
1.40081666943285));
#1091=CARTESIAN_POINT('Ctrl Pts',(-0.340024169088792,-11.7017759389819,
1.08413390934123));
#1092=CARTESIAN_POINT('Ctrl Pts',(0.226774320999097,-11.7014385493928,1.08819556119998));
#1093=CARTESIAN_POINT('Ctrl Pts',(0.667851037430755,-11.682093872923,1.24173465134245));
#1094=CARTESIAN_POINT('Ctrl Pts',(0.958232455794537,-11.660819845303,1.43177192065607));
#1095=CARTESIAN_POINT('Ctrl Pts',(1.18428256840168,-11.6394213130673,1.66077432038094));
#1096=CARTESIAN_POINT('Ctrl Pts',(1.5477892389272,-11.5959287794964,2.24579306868278));
#1097=CARTESIAN_POINT('Ctrl Pts',(1.54840021725099,-11.5962864610419,2.95268076459392));
#1098=CARTESIAN_POINT('Ctrl Pts',(1.18431586721093,-11.6396365880602,3.53913123624528));
#1099=CARTESIAN_POINT('Ctrl Pts',(0.958492110302985,-11.6610331033643,3.76806001046246));
#1100=CARTESIAN_POINT('Ctrl Pts',(0.667981010917857,-11.6823254321191,3.95863910442563));
#1101=CARTESIAN_POINT('Ctrl Pts',(0.226908328407991,-11.7016123047016,4.11194441165013));
#1102=CARTESIAN_POINT('Ctrl Pts',(-0.339978596837361,-11.7018508221519,
4.11597373478554));
#1103=CARTESIAN_POINT('Ctrl Pts',(-0.986958669319935,-11.6624376988257,
3.79924111211076));
#1104=CARTESIAN_POINT('Ctrl Pts',(-1.39008856950595,-11.6157643221774,3.27429575760538));
#1105=CARTESIAN_POINT('Ctrl Pts',(-1.49908897923693,-11.6009969841383,2.81206171883704));
#1106=CARTESIAN_POINT('Ctrl Pts',(-1.49908897923693,-11.6009969841383,2.6));
#1107=CARTESIAN_POINT('Ctrl Pts',(-1.4,-11.7144645078076,2.6));
#1108=CARTESIAN_POINT('Ctrl Pts',(-1.4,-11.7144645078076,2.40417189516514));
#1109=CARTESIAN_POINT('Ctrl Pts',(-1.30041620088359,-11.7270142117802,1.97714370151581));
#1110=CARTESIAN_POINT('Ctrl Pts',(-0.927997378051577,-11.7671974710367,
1.48570511787784));
#1111=CARTESIAN_POINT('Ctrl Pts',(-0.320939515178173,-11.8015429273324,
1.18500213578158));
#1112=CARTESIAN_POINT('Ctrl Pts',(0.21394029996273,-11.8012609378526,1.18877975539207));
#1113=CARTESIAN_POINT('Ctrl Pts',(0.62854259993828,-11.7843902372715,1.33465152148611));
#1114=CARTESIAN_POINT('Ctrl Pts',(0.900044168302489,-11.7659248718664,1.51413367430504));
#1115=CARTESIAN_POINT('Ctrl Pts',(1.11023380494932,-11.7474169930364,1.72909082934034));
#1116=CARTESIAN_POINT('Ctrl Pts',(1.44517245269493,-11.7100867546455,2.27455039342001));
#1117=CARTESIAN_POINT('Ctrl Pts',(1.44590523991364,-11.7103772193297,2.9240213503236));
#1118=CARTESIAN_POINT('Ctrl Pts',(1.11035249948232,-11.7475932018772,3.47082374291185));
#1119=CARTESIAN_POINT('Ctrl Pts',(0.900378279896,-11.7660988280417,3.68570835703762));
#1120=CARTESIAN_POINT('Ctrl Pts',(0.628754397309558,-11.7845802551797,3.86569683405989));
#1121=CARTESIAN_POINT('Ctrl Pts',(0.214137884255104,-11.8014032167284,4.01134985697409));
#1122=CARTESIAN_POINT('Ctrl Pts',(-0.320867413434782,-11.8016043489447,
4.01509814038673));
#1123=CARTESIAN_POINT('Ctrl Pts',(-0.927924740271793,-11.7672508380732,
3.71434845234132));
#1124=CARTESIAN_POINT('Ctrl Pts',(-1.30038371052639,-11.7270409611319,3.22289630881254));
#1125=CARTESIAN_POINT('Ctrl Pts',(-1.4,-11.7144645078076,2.79582810483486));
#1126=CARTESIAN_POINT('Ctrl Pts',(-1.4,-11.7144645078076,2.6));
#1127=CARTESIAN_POINT('',(-1.69726693771078,-11.3740619367996,2.6));
#1128=CARTESIAN_POINT('',(-1.4,-11.7144645078076,2.6));
#1129=CARTESIAN_POINT('',(-1.69726693771078,-11.3740619367996,2.6));
#1130=CARTESIAN_POINT('Ctrl Pts',(-1.4,-11.7144645078076,2.6));
#1131=CARTESIAN_POINT('Ctrl Pts',(-1.4,-11.7144645078076,2.40417189516514));
#1132=CARTESIAN_POINT('Ctrl Pts',(-1.30041620088359,-11.7270142117802,1.97714370151581));
#1133=CARTESIAN_POINT('Ctrl Pts',(-0.927997378051577,-11.7671974710367,
1.48570511787784));
#1134=CARTESIAN_POINT('Ctrl Pts',(-0.320939515178173,-11.8015429273324,
1.18500213578158));
#1135=CARTESIAN_POINT('Ctrl Pts',(0.21394029996273,-11.8012609378526,1.18877975539207));
#1136=CARTESIAN_POINT('Ctrl Pts',(0.62854259993828,-11.7843902372715,1.33465152148611));
#1137=CARTESIAN_POINT('Ctrl Pts',(0.900044168302489,-11.7659248718664,1.51413367430504));
#1138=CARTESIAN_POINT('Ctrl Pts',(1.11023380494932,-11.7474169930364,1.72909082934034));
#1139=CARTESIAN_POINT('Ctrl Pts',(1.44517245269493,-11.7100867546455,2.27455039342001));
#1140=CARTESIAN_POINT('Ctrl Pts',(1.44590523991364,-11.7103772193297,2.9240213503236));
#1141=CARTESIAN_POINT('Ctrl Pts',(1.11035249948232,-11.7475932018772,3.47082374291185));
#1142=CARTESIAN_POINT('Ctrl Pts',(0.900378279896,-11.7660988280417,3.68570835703762));
#1143=CARTESIAN_POINT('Ctrl Pts',(0.628754397309558,-11.7845802551797,3.86569683405989));
#1144=CARTESIAN_POINT('Ctrl Pts',(0.214137884255104,-11.8014032167284,4.01134985697409));
#1145=CARTESIAN_POINT('Ctrl Pts',(-0.320867413434782,-11.8016043489447,
4.01509814038673));
#1146=CARTESIAN_POINT('Ctrl Pts',(-0.927924740271793,-11.7672508380732,
3.71434845234132));
#1147=CARTESIAN_POINT('Ctrl Pts',(-1.30038371052639,-11.7270409611319,3.22289630881254));
#1148=CARTESIAN_POINT('Ctrl Pts',(-1.4,-11.7144645078076,2.79582810483486));
#1149=CARTESIAN_POINT('Ctrl Pts',(-1.4,-11.7144645078076,2.6));
#1150=CARTESIAN_POINT('Ctrl Pts',(-1.69726693771078,-11.3740619367996,2.6));
#1151=CARTESIAN_POINT('Ctrl Pts',(-1.69726693771078,-11.3740619367996,2.8445289468414));
#1152=CARTESIAN_POINT('Ctrl Pts',(-1.56949828746507,-11.3932110442683,3.37709465519106));
#1153=CARTESIAN_POINT('Ctrl Pts',(-1.10502652741622,-11.4528114203306,3.96902643164965));
#1154=CARTESIAN_POINT('Ctrl Pts',(-0.378200963642519,-11.5023437685662,
4.31772492358314));
#1155=CARTESIAN_POINT('Ctrl Pts',(0.252449216713763,-11.5020304806481,4.31313352100221));
#1156=CARTESIAN_POINT('Ctrl Pts',(0.746434238134455,-11.4778157859979,4.14452364515711));
#1157=CARTESIAN_POINT('Ctrl Pts',(1.07471977111695,-11.4509016540097,3.93276331731213));
#1158=CARTESIAN_POINT('Ctrl Pts',(1.33224260266817,-11.4237233604262,3.67574622291214));
#1159=CARTESIAN_POINT('Ctrl Pts',(1.75339017192568,-11.3681049444663,3.00999959313454));
#1160=CARTESIAN_POINT('Ctrl Pts',(1.75302281139175,-11.3676128291983,2.18827841920831));
#1161=CARTESIAN_POINT('Ctrl Pts',(1.3323800953064,-11.4234299531292,1.52414130246214));
#1162=CARTESIAN_POINT('Ctrl Pts',(1.07460903077863,-11.4506097921761,1.26704841335813));
#1163=CARTESIAN_POINT('Ctrl Pts',(0.746467912415704,-11.4775011442262,1.05590091105514));
#1164=CARTESIAN_POINT('Ctrl Pts',(0.252442363071832,-11.5017937724732,0.887027172815805));
#1165=CARTESIAN_POINT('Ctrl Pts',(-0.378193476910032,-11.5022419622809,
0.882397456460517));
#1166=CARTESIAN_POINT('Ctrl Pts',(-1.10502790932029,-11.4527226763501,1.23103977254287));
#1167=CARTESIAN_POINT('Ctrl Pts',(-1.56949588856531,-11.3931666758146,1.82295426436565));
#1168=CARTESIAN_POINT('Ctrl Pts',(-1.69726693771078,-11.3740619367996,2.35547105315861));
#1169=CARTESIAN_POINT('Ctrl Pts',(-1.69726693771078,-11.3740619367996,2.6));
#1170=CARTESIAN_POINT('Origin',(0.,0.,2.6));
#1171=CARTESIAN_POINT('',(11.5,-1.40834381901946E-15,4.6));
#1172=CARTESIAN_POINT('Origin',(0.,0.,4.6));
#1173=CARTESIAN_POINT('',(11.5,1.40834381901946E-15,0.6));
#1174=CARTESIAN_POINT('',(11.5,1.40834381901946E-15,2.6));
#1175=CARTESIAN_POINT('Origin',(0.,0.,0.6));
#1176=CARTESIAN_POINT('',(1.69726693771078,11.3740619367996,2.6));
#1177=CARTESIAN_POINT('Ctrl Pts',(1.69726693771078,11.3740619367996,2.6));
#1178=CARTESIAN_POINT('Ctrl Pts',(1.69726693771078,11.3740619367996,2.8445289468414));
#1179=CARTESIAN_POINT('Ctrl Pts',(1.56994441369016,11.3932273353664,3.37722856024343));
#1180=CARTESIAN_POINT('Ctrl Pts',(1.10427990780632,11.4529338796863,3.9704616670228));
#1181=CARTESIAN_POINT('Ctrl Pts',(0.378447804281361,11.5019916754669,4.31476603721161));
#1182=CARTESIAN_POINT('Ctrl Pts',(-0.382559873583761,11.5021312007801,4.31524651890865));
#1183=CARTESIAN_POINT('Ctrl Pts',(-1.10625773910232,11.4523567071138,3.96575130238367));
#1184=CARTESIAN_POINT('Ctrl Pts',(-1.49080479874616,11.4032967355918,3.47691975738892));
#1185=CARTESIAN_POINT('Ctrl Pts',(-1.67056190715667,11.3780971201698,2.97164540824297));
#1186=CARTESIAN_POINT('Ctrl Pts',(-1.72314881121171,11.3697666239729,2.47954553218262));
#1187=CARTESIAN_POINT('Ctrl Pts',(-1.61323186429855,11.3873253864463,1.96596097458075));
#1188=CARTESIAN_POINT('Ctrl Pts',(-1.33010543449687,11.4230834104941,1.52662325876038));
#1189=CARTESIAN_POINT('Ctrl Pts',(-0.990745453639606,11.4603596889653,1.17824981716339));
#1190=CARTESIAN_POINT('Ctrl Pts',(-0.437106768812973,11.4978975140936,0.91293932666742));
#1191=CARTESIAN_POINT('Ctrl Pts',(0.310017058037135,11.5045605790791,0.870808561955041));
#1192=CARTESIAN_POINT('Ctrl Pts',(1.06629507348305,11.4585631204746,1.17829821529814));
#1193=CARTESIAN_POINT('Ctrl Pts',(1.5685555355254,11.3931180976035,1.82284450418873));
#1194=CARTESIAN_POINT('Ctrl Pts',(1.69726693771078,11.3740619367996,2.35547105315862));
#1195=CARTESIAN_POINT('Ctrl Pts',(1.69726693771078,11.3740619367996,2.6));
#1196=CARTESIAN_POINT('Origin',(0.,-10.,2.6));
#1197=CARTESIAN_POINT('',(-1.4,-16.199671066868,2.6));
#1198=CARTESIAN_POINT('Ctrl Pts',(-1.4,-16.199671066868,2.6));
#1199=CARTESIAN_POINT('Ctrl Pts',(-1.4,-16.199671066868,2.77742984988106));
#1200=CARTESIAN_POINT('Ctrl Pts',(-1.36423934220073,-16.1859382231302,2.96557171694365));
#1201=CARTESIAN_POINT('Ctrl Pts',(-1.22093794373929,-16.1376786180987,3.31000180460695));
#1202=CARTESIAN_POINT('Ctrl Pts',(-1.11346454078307,-16.1039863833423,3.46643444653926));
#1203=CARTESIAN_POINT('Ctrl Pts',(-0.866501270708422,-16.0417322752443,
3.71339771661391));
#1204=CARTESIAN_POINT('Ctrl Pts',(-0.71004223205348,-16.0089415358136,3.82092243948988));
#1205=CARTESIAN_POINT('Ctrl Pts',(-0.36551344122715,-15.9627846775201,3.96426227222297));
#1206=CARTESIAN_POINT('Ctrl Pts',(-0.177333856699827,-15.95,4.));
#1207=CARTESIAN_POINT('Ctrl Pts',(0.177333856699827,-15.95,4.));
#1208=CARTESIAN_POINT('Ctrl Pts',(0.36551344122715,-15.9627846775201,3.96426227222297));
#1209=CARTESIAN_POINT('Ctrl Pts',(0.710042232053481,-16.0089415358136,3.82092243948988));
#1210=CARTESIAN_POINT('Ctrl Pts',(0.866501270708423,-16.0417322752443,3.71339771661391));
#1211=CARTESIAN_POINT('Ctrl Pts',(1.11346454078307,-16.1039863833423,3.46643444653926));
#1212=CARTESIAN_POINT('Ctrl Pts',(1.22093794373929,-16.1376786180987,3.31000180460695));
#1213=CARTESIAN_POINT('Ctrl Pts',(1.36423934220073,-16.1859382231302,2.96557171694365));
#1214=CARTESIAN_POINT('Ctrl Pts',(1.4,-16.199671066868,2.77742984988106));
#1215=CARTESIAN_POINT('Ctrl Pts',(1.4,-16.199671066868,2.42257015011894));
#1216=CARTESIAN_POINT('Ctrl Pts',(1.36423934220073,-16.1859382231302,2.23442828305635));
#1217=CARTESIAN_POINT('Ctrl Pts',(1.22093794373929,-16.1376786180987,1.88999819539305));
#1218=CARTESIAN_POINT('Ctrl Pts',(1.11346454078307,-16.1039863833423,1.73356555346074));
#1219=CARTESIAN_POINT('Ctrl Pts',(0.866501270708422,-16.0417322752443,1.48660228338609));
#1220=CARTESIAN_POINT('Ctrl Pts',(0.71004223205348,-16.0089415358136,1.37907756051012));
#1221=CARTESIAN_POINT('Ctrl Pts',(0.36551344122715,-15.9627846775201,1.23573772777703));
#1222=CARTESIAN_POINT('Ctrl Pts',(0.177333856699827,-15.95,1.2));
#1223=CARTESIAN_POINT('Ctrl Pts',(-0.177333856699827,-15.95,1.2));
#1224=CARTESIAN_POINT('Ctrl Pts',(-0.36551344122715,-15.9627846775201,1.23573772777703));
#1225=CARTESIAN_POINT('Ctrl Pts',(-0.71004223205348,-16.0089415358136,1.37907756051012));
#1226=CARTESIAN_POINT('Ctrl Pts',(-0.866501270708422,-16.0417322752443,
1.48660228338609));
#1227=CARTESIAN_POINT('Ctrl Pts',(-1.11346454078307,-16.1039863833423,1.73356555346074));
#1228=CARTESIAN_POINT('Ctrl Pts',(-1.22093794373929,-16.1376786180987,1.88999819539305));
#1229=CARTESIAN_POINT('Ctrl Pts',(-1.36423934220073,-16.1859382231302,2.23442828305635));
#1230=CARTESIAN_POINT('Ctrl Pts',(-1.4,-16.199671066868,2.42257015011894));
#1231=CARTESIAN_POINT('Ctrl Pts',(-1.4,-16.199671066868,2.6));
#1232=CARTESIAN_POINT('',(-1.4,-10.,2.6));
#1233=CARTESIAN_POINT('Ctrl Pts',(1.69726693771078,11.3740619367996,2.6));
#1234=CARTESIAN_POINT('Ctrl Pts',(1.69726693771078,11.3740619367996,2.35547105315862));
#1235=CARTESIAN_POINT('Ctrl Pts',(1.5685555355254,11.3931180976035,1.82284450418873));
#1236=CARTESIAN_POINT('Ctrl Pts',(1.06629507348305,11.4585631204746,1.17829821529814));
#1237=CARTESIAN_POINT('Ctrl Pts',(0.310017058037135,11.5045605790791,0.870808561955041));
#1238=CARTESIAN_POINT('Ctrl Pts',(-0.437106768812973,11.4978975140936,0.91293932666742));
#1239=CARTESIAN_POINT('Ctrl Pts',(-0.990745453639606,11.4603596889653,1.17824981716339));
#1240=CARTESIAN_POINT('Ctrl Pts',(-1.33010543449687,11.4230834104941,1.52662325876038));
#1241=CARTESIAN_POINT('Ctrl Pts',(-1.61323186429855,11.3873253864463,1.96596097458075));
#1242=CARTESIAN_POINT('Ctrl Pts',(-1.72314881121171,11.3697666239729,2.47954553218262));
#1243=CARTESIAN_POINT('Ctrl Pts',(-1.67056190715667,11.3780971201698,2.97164540824297));
#1244=CARTESIAN_POINT('Ctrl Pts',(-1.49080479874616,11.4032967355918,3.47691975738892));
#1245=CARTESIAN_POINT('Ctrl Pts',(-1.10625773910232,11.4523567071138,3.96575130238367));
#1246=CARTESIAN_POINT('Ctrl Pts',(-0.382559873583761,11.5021312007801,4.31524651890865));
#1247=CARTESIAN_POINT('Ctrl Pts',(0.378447804281361,11.5019916754669,4.31476603721161));
#1248=CARTESIAN_POINT('Ctrl Pts',(1.10427990780632,11.4529338796863,3.9704616670228));
#1249=CARTESIAN_POINT('Ctrl Pts',(1.56994441369016,11.3932273353664,3.37722856024343));
#1250=CARTESIAN_POINT('Ctrl Pts',(1.69726693771078,11.3740619367996,2.8445289468414));
#1251=CARTESIAN_POINT('Ctrl Pts',(1.69726693771078,11.3740619367996,2.6));
#1252=CARTESIAN_POINT('Ctrl Pts',(1.59817795847385,11.487529460469,2.6));
#1253=CARTESIAN_POINT('Ctrl Pts',(1.59817795847385,11.487529460469,2.37170466716079));
#1254=CARTESIAN_POINT('Ctrl Pts',(1.47890722772278,11.5044009929787,1.87428795949187));
#1255=CARTESIAN_POINT('Ctrl Pts',(1.00984493104883,11.5627621175323,1.26604368928101));
#1256=CARTESIAN_POINT('Ctrl Pts',(0.294310845691389,11.604102242721,0.972033461179988));
#1257=CARTESIAN_POINT('Ctrl Pts',(-0.414870885198999,11.5981030902473,1.01244257051317));
#1258=CARTESIAN_POINT('Ctrl Pts',(-0.937914900881626,11.56441383755,1.26547235014649));
#1259=CARTESIAN_POINT('Ctrl Pts',(-1.25614656936736,11.5311172284022,1.59481068097774));
#1260=CARTESIAN_POINT('Ctrl Pts',(-1.52044627064432,11.4992786667635,2.00796278241361));
#1261=CARTESIAN_POINT('Ctrl Pts',(-1.62210933015803,11.4837230335295,2.48757492520241));
#1262=CARTESIAN_POINT('Ctrl Pts',(-1.57343892302529,11.4911062693602,2.94696895956216));
#1263=CARTESIAN_POINT('Ctrl Pts',(-1.40632467789547,11.5134781621062,3.41988358505691));
#1264=CARTESIAN_POINT('Ctrl Pts',(-1.04708237659961,11.5572238655165,3.88105701514578));
#1265=CARTESIAN_POINT('Ctrl Pts',(-0.363247076133943,11.6019115909398,4.21453977877574));
#1266=CARTESIAN_POINT('Ctrl Pts',(0.359329911396485,11.6017864463008,4.21406231568822));
#1267=CARTESIAN_POINT('Ctrl Pts',(1.04530137781173,11.5577331736977,3.88548860077233));
#1268=CARTESIAN_POINT('Ctrl Pts',(1.480245216057,11.5045023509972,3.32582274628485));
#1269=CARTESIAN_POINT('Ctrl Pts',(1.59817795847385,11.487529460469,2.82829533283922));
#1270=CARTESIAN_POINT('Ctrl Pts',(1.59817795847385,11.487529460469,2.6));
#1271=CARTESIAN_POINT('Ctrl Pts',(1.49908897923693,11.6009969841383,2.6));
#1272=CARTESIAN_POINT('Ctrl Pts',(1.49908897923693,11.6009969841383,2.38793828116296));
#1273=CARTESIAN_POINT('Ctrl Pts',(1.38925891992016,11.6156838883538,1.925731414795));
#1274=CARTESIAN_POINT('Ctrl Pts',(0.953394788614616,11.66696111459,1.35378916326389));
#1275=CARTESIAN_POINT('Ctrl Pts',(0.278604633345644,11.703643906363,1.07325836040494));
#1276=CARTESIAN_POINT('Ctrl Pts',(-0.392635001585025,11.6983086664009,1.11194581435892));
#1277=CARTESIAN_POINT('Ctrl Pts',(-0.885084348123646,11.6684679861347,1.3526948831296));
#1278=CARTESIAN_POINT('Ctrl Pts',(-1.18218770423786,11.6391510463102,1.6629981031951));
#1279=CARTESIAN_POINT('Ctrl Pts',(-1.42766067699008,11.6112319470807,2.04996459024646));
#1280=CARTESIAN_POINT('Ctrl Pts',(-1.52106984910435,11.5976794430862,2.4956043182222));
#1281=CARTESIAN_POINT('Ctrl Pts',(-1.47631593889391,11.6041154185505,2.92229251088134));
#1282=CARTESIAN_POINT('Ctrl Pts',(-1.32184455704477,11.6236595886205,3.3628474127249));
#1283=CARTESIAN_POINT('Ctrl Pts',(-0.987907014096897,11.6620910239192,3.79636272790789));
#1284=CARTESIAN_POINT('Ctrl Pts',(-0.343934278684127,11.7016919810995,4.11383303864283));
#1285=CARTESIAN_POINT('Ctrl Pts',(0.34021201851161,11.7015812171346,4.11335859416484));
#1286=CARTESIAN_POINT('Ctrl Pts',(0.986322847817149,11.6625324677091,3.80051553452185));
#1287=CARTESIAN_POINT('Ctrl Pts',(1.39054601842385,11.615777366628,3.27441693232626));
#1288=CARTESIAN_POINT('Ctrl Pts',(1.49908897923693,11.6009969841383,2.81206171883704));
#1289=CARTESIAN_POINT('Ctrl Pts',(1.49908897923693,11.6009969841383,2.6));
#1290=CARTESIAN_POINT('Ctrl Pts',(1.4,11.7144645078076,2.6));
#1291=CARTESIAN_POINT('Ctrl Pts',(1.4,11.7144645078076,2.40417189516514));
#1292=CARTESIAN_POINT('Ctrl Pts',(1.29961061211754,11.7269667837289,1.97717487009814));
#1293=CARTESIAN_POINT('Ctrl Pts',(0.896944646180398,11.7711601116478,1.44153463724676));
#1294=CARTESIAN_POINT('Ctrl Pts',(0.262898420999898,11.8031855700049,1.17448325962988));
#1295=CARTESIAN_POINT('Ctrl Pts',(-0.370399117971051,11.7985142425545,1.21144905820467));
#1296=CARTESIAN_POINT('Ctrl Pts',(-0.832253795365666,11.7725221347194,1.4399174161127));
#1297=CARTESIAN_POINT('Ctrl Pts',(-1.10822883910836,11.7471848642183,1.73118552541247));
#1298=CARTESIAN_POINT('Ctrl Pts',(-1.33487508333585,11.7231852273978,2.09196639807932));
#1299=CARTESIAN_POINT('Ctrl Pts',(-1.42003036805067,11.7116358526429,2.503633711242));
#1300=CARTESIAN_POINT('Ctrl Pts',(-1.37919295476252,11.7171245677408,2.89761606220052));
#1301=CARTESIAN_POINT('Ctrl Pts',(-1.23736443619408,11.7338410151349,3.30581124039289));
#1302=CARTESIAN_POINT('Ctrl Pts',(-0.928731651594185,11.7669581823219,3.71166844066999));
#1303=CARTESIAN_POINT('Ctrl Pts',(-0.32462148123431,11.8014723712592,4.01312629850992));
#1304=CARTESIAN_POINT('Ctrl Pts',(0.321094125626734,11.8013759879684,4.01265487264146));
#1305=CARTESIAN_POINT('Ctrl Pts',(0.927344317822564,11.7673317617205,3.71554246827138));
#1306=CARTESIAN_POINT('Ctrl Pts',(1.30084682079069,11.7270523822588,3.22301111836768));
#1307=CARTESIAN_POINT('Ctrl Pts',(1.4,11.7144645078076,2.79582810483486));
#1308=CARTESIAN_POINT('Ctrl Pts',(1.4,11.7144645078076,2.6));
#1309=CARTESIAN_POINT('',(1.4,11.7144645078076,2.6));
#1310=CARTESIAN_POINT('',(1.69726693771078,11.3740619367996,2.6));
#1311=CARTESIAN_POINT('Ctrl Pts',(1.4,11.7144645078076,2.6));
#1312=CARTESIAN_POINT('Ctrl Pts',(1.4,11.7144645078076,2.40417189516514));
#1313=CARTESIAN_POINT('Ctrl Pts',(1.29961061211754,11.7269667837289,1.97717487009814));
#1314=CARTESIAN_POINT('Ctrl Pts',(0.896944646180398,11.7711601116478,1.44153463724676));
#1315=CARTESIAN_POINT('Ctrl Pts',(0.262898420999898,11.8031855700049,1.17448325962988));
#1316=CARTESIAN_POINT('Ctrl Pts',(-0.370399117971051,11.7985142425545,1.21144905820467));
#1317=CARTESIAN_POINT('Ctrl Pts',(-0.832253795365666,11.7725221347194,1.4399174161127));
#1318=CARTESIAN_POINT('Ctrl Pts',(-1.10822883910836,11.7471848642183,1.73118552541247));
#1319=CARTESIAN_POINT('Ctrl Pts',(-1.33487508333585,11.7231852273978,2.09196639807932));
#1320=CARTESIAN_POINT('Ctrl Pts',(-1.42003036805067,11.7116358526429,2.503633711242));
#1321=CARTESIAN_POINT('Ctrl Pts',(-1.37919295476252,11.7171245677408,2.89761606220052));
#1322=CARTESIAN_POINT('Ctrl Pts',(-1.23736443619408,11.7338410151349,3.30581124039289));
#1323=CARTESIAN_POINT('Ctrl Pts',(-0.928731651594185,11.7669581823219,3.71166844066999));
#1324=CARTESIAN_POINT('Ctrl Pts',(-0.32462148123431,11.8014723712592,4.01312629850992));
#1325=CARTESIAN_POINT('Ctrl Pts',(0.321094125626734,11.8013759879684,4.01265487264146));
#1326=CARTESIAN_POINT('Ctrl Pts',(0.927344317822564,11.7673317617205,3.71554246827138));
#1327=CARTESIAN_POINT('Ctrl Pts',(1.30084682079069,11.7270523822588,3.22301111836768));
#1328=CARTESIAN_POINT('Ctrl Pts',(1.4,11.7144645078076,2.79582810483486));
#1329=CARTESIAN_POINT('Ctrl Pts',(1.4,11.7144645078076,2.6));
#1330=CARTESIAN_POINT('Origin',(1.22464679914735E-15,10.,2.6));
#1331=CARTESIAN_POINT('',(1.4,16.199671066868,2.6));
#1332=CARTESIAN_POINT('Ctrl Pts',(1.4,16.199671066868,2.6));
#1333=CARTESIAN_POINT('Ctrl Pts',(1.4,16.199671066868,2.42257015011894));
#1334=CARTESIAN_POINT('Ctrl Pts',(1.36423934220073,16.1859382231302,2.23442828305635));
#1335=CARTESIAN_POINT('Ctrl Pts',(1.22093794373929,16.1376786180987,1.88999819539305));
#1336=CARTESIAN_POINT('Ctrl Pts',(1.11346454078307,16.1039863833423,1.73356555346074));
#1337=CARTESIAN_POINT('Ctrl Pts',(0.866501270708423,16.0417322752443,1.48660228338609));
#1338=CARTESIAN_POINT('Ctrl Pts',(0.710042232053481,16.0089415358136,1.37907756051012));
#1339=CARTESIAN_POINT('Ctrl Pts',(0.365513441227151,15.9627846775201,1.23573772777703));
#1340=CARTESIAN_POINT('Ctrl Pts',(0.177333856699829,15.95,1.2));
#1341=CARTESIAN_POINT('Ctrl Pts',(-0.177333856699826,15.95,1.2));
#1342=CARTESIAN_POINT('Ctrl Pts',(-0.365513441227148,15.9627846775201,1.23573772777703));
#1343=CARTESIAN_POINT('Ctrl Pts',(-0.710042232053478,16.0089415358136,1.37907756051012));
#1344=CARTESIAN_POINT('Ctrl Pts',(-0.866501270708421,16.0417322752443,1.48660228338609));
#1345=CARTESIAN_POINT('Ctrl Pts',(-1.11346454078307,16.1039863833423,1.73356555346074));
#1346=CARTESIAN_POINT('Ctrl Pts',(-1.22093794373929,16.1376786180987,1.88999819539305));
#1347=CARTESIAN_POINT('Ctrl Pts',(-1.36423934220072,16.1859382231302,2.23442828305635));
#1348=CARTESIAN_POINT('Ctrl Pts',(-1.4,16.199671066868,2.42257015011894));
#1349=CARTESIAN_POINT('Ctrl Pts',(-1.4,16.199671066868,2.77742984988106));
#1350=CARTESIAN_POINT('Ctrl Pts',(-1.36423934220072,16.1859382231302,2.96557171694365));
#1351=CARTESIAN_POINT('Ctrl Pts',(-1.22093794373929,16.1376786180987,3.31000180460695));
#1352=CARTESIAN_POINT('Ctrl Pts',(-1.11346454078307,16.1039863833423,3.46643444653926));
#1353=CARTESIAN_POINT('Ctrl Pts',(-0.86650127070842,16.0417322752443,3.71339771661391));
#1354=CARTESIAN_POINT('Ctrl Pts',(-0.710042232053478,16.0089415358136,3.82092243948988));
#1355=CARTESIAN_POINT('Ctrl Pts',(-0.365513441227147,15.9627846775201,3.96426227222297));
#1356=CARTESIAN_POINT('Ctrl Pts',(-0.177333856699825,15.95,4.));
#1357=CARTESIAN_POINT('Ctrl Pts',(0.17733385669983,15.95,4.));
#1358=CARTESIAN_POINT('Ctrl Pts',(0.365513441227152,15.9627846775201,3.96426227222297));
#1359=CARTESIAN_POINT('Ctrl Pts',(0.710042232053482,16.0089415358136,3.82092243948988));
#1360=CARTESIAN_POINT('Ctrl Pts',(0.866501270708425,16.0417322752443,3.71339771661391));
#1361=CARTESIAN_POINT('Ctrl Pts',(1.11346454078307,16.1039863833423,3.46643444653926));
#1362=CARTESIAN_POINT('Ctrl Pts',(1.22093794373929,16.1376786180987,3.31000180460695));
#1363=CARTESIAN_POINT('Ctrl Pts',(1.36423934220073,16.1859382231302,2.96557171694365));
#1364=CARTESIAN_POINT('Ctrl Pts',(1.4,16.199671066868,2.77742984988106));
#1365=CARTESIAN_POINT('Ctrl Pts',(1.4,16.199671066868,2.6));
#1366=CARTESIAN_POINT('',(1.4,10.,2.6));
#1367=CARTESIAN_POINT('Origin',(0.,0.,0.4));
#1368=CARTESIAN_POINT('',(11.9,-1.45732969098535E-15,0.2));
#1369=CARTESIAN_POINT('Origin',(0.,0.,0.2));
#1370=CARTESIAN_POINT('',(11.7,-1.4328367550024E-15,0.4));
#1371=CARTESIAN_POINT('Origin',(1.11022302462516E-15,0.,0.2));
#1372=CARTESIAN_POINT('',(-13.6,-19.7,0.2));
#1373=CARTESIAN_POINT('',(-9.,-24.3,0.2));
#1374=CARTESIAN_POINT('Origin',(-9.,-19.7,0.2));
#1375=CARTESIAN_POINT('',(-13.6,19.7,0.2));
#1376=CARTESIAN_POINT('',(-13.6,12.35,0.2));
#1377=CARTESIAN_POINT('',(-9.00000000000001,24.3,0.2));
#1378=CARTESIAN_POINT('Origin',(-9.00000000000001,19.7,0.2));
#1379=CARTESIAN_POINT('',(9.,24.3,0.2));
#1380=CARTESIAN_POINT('',(7.,24.3,0.2));
#1381=CARTESIAN_POINT('',(13.6,19.7,0.2));
#1382=CARTESIAN_POINT('Origin',(9.,19.7,0.2));
#1383=CARTESIAN_POINT('',(13.6,-19.7,0.2));
#1384=CARTESIAN_POINT('',(13.6,-12.35,0.2));
#1385=CARTESIAN_POINT('',(9.00000000000001,-24.3,0.2));
#1386=CARTESIAN_POINT('Origin',(9.00000000000001,-19.7,0.2));
#1387=CARTESIAN_POINT('',(-7.,-24.3,0.2));
#1388=CARTESIAN_POINT('Origin',(0.,0.,4.8));
#1389=CARTESIAN_POINT('',(11.9,1.45732969098535E-15,5.));
#1390=CARTESIAN_POINT('Origin',(0.,0.,5.));
#1391=CARTESIAN_POINT('',(11.7,1.4328367550024E-15,4.8));
#1392=CARTESIAN_POINT('Origin',(1.11022302462516E-15,0.,5.));
#1393=CARTESIAN_POINT('',(-9.,-24.3,5.));
#1394=CARTESIAN_POINT('',(-13.6,-19.7,5.));
#1395=CARTESIAN_POINT('Origin',(-9.,-19.7,5.));
#1396=CARTESIAN_POINT('',(9.00000000000001,-24.3,5.));
#1397=CARTESIAN_POINT('',(-7.,-24.3,5.));
#1398=CARTESIAN_POINT('',(13.6,-19.7,5.));
#1399=CARTESIAN_POINT('Origin',(9.00000000000001,-19.7,5.));
#1400=CARTESIAN_POINT('',(13.6,19.7,5.));
#1401=CARTESIAN_POINT('',(13.6,-12.35,5.));
#1402=CARTESIAN_POINT('',(9.,24.3,5.));
#1403=CARTESIAN_POINT('Origin',(9.,19.7,5.));
#1404=CARTESIAN_POINT('',(-9.00000000000001,24.3,5.));
#1405=CARTESIAN_POINT('',(7.,24.3,5.));
#1406=CARTESIAN_POINT('',(-13.6,19.7,5.));
#1407=CARTESIAN_POINT('Origin',(-9.00000000000001,19.7,5.));
#1408=CARTESIAN_POINT('',(-13.6,12.35,5.));
#1409=CARTESIAN_POINT('Origin',(-9.,-19.7,0.4));
#1410=CARTESIAN_POINT('',(-9.,-24.7,0.6));
#1411=CARTESIAN_POINT('',(-9.,-24.3,0.2));
#1412=CARTESIAN_POINT('',(-14.,-19.7,0.6));
#1413=CARTESIAN_POINT('Origin',(-9.,-19.7,0.6));
#1414=CARTESIAN_POINT('',(-14.,-19.7,0.6));
#1415=CARTESIAN_POINT('Origin',(-7.,-24.5,0.4));
#1416=CARTESIAN_POINT('',(9.00000000000001,-24.7,0.600000000000001));
#1417=CARTESIAN_POINT('',(9.00000000000001,-24.3,0.2));
#1418=CARTESIAN_POINT('',(-7.,-24.7,0.6));
#1419=CARTESIAN_POINT('Origin',(9.00000000000001,-19.7,0.4));
#1420=CARTESIAN_POINT('',(14.,-19.7,0.6));
#1421=CARTESIAN_POINT('',(13.6,-19.7,0.2));
#1422=CARTESIAN_POINT('Origin',(9.00000000000001,-19.7,0.6));
#1423=CARTESIAN_POINT('Origin',(13.8,-12.35,0.4));
#1424=CARTESIAN_POINT('',(14.,19.7,0.600000000000001));
#1425=CARTESIAN_POINT('',(13.6,19.7,0.2));
#1426=CARTESIAN_POINT('',(14.,-12.35,0.6));
#1427=CARTESIAN_POINT('Origin',(9.,19.7,0.4));
#1428=CARTESIAN_POINT('',(9.,24.7,0.6));
#1429=CARTESIAN_POINT('',(9.,24.3,0.2));
#1430=CARTESIAN_POINT('Origin',(9.,19.7,0.6));
#1431=CARTESIAN_POINT('Origin',(7.,24.5,0.4));
#1432=CARTESIAN_POINT('',(-9.00000000000001,24.7,0.600000000000001));
#1433=CARTESIAN_POINT('',(-9.00000000000001,24.3,0.2));
#1434=CARTESIAN_POINT('',(7.,24.7,0.6));
#1435=CARTESIAN_POINT('Origin',(-9.00000000000001,19.7,0.4));
#1436=CARTESIAN_POINT('',(-14.,19.7,0.6));
#1437=CARTESIAN_POINT('',(-13.6,19.7,0.2));
#1438=CARTESIAN_POINT('Origin',(-9.00000000000001,19.7,0.6));
#1439=CARTESIAN_POINT('Origin',(-13.8,12.35,0.4));
#1440=CARTESIAN_POINT('',(-14.,12.35,0.6));
#1441=CARTESIAN_POINT('Origin',(14.,24.7,2.6));
#1442=CARTESIAN_POINT('',(-9.00000000000001,24.7,4.6));
#1443=CARTESIAN_POINT('',(-9.00000000000001,24.7,2.6));
#1444=CARTESIAN_POINT('',(9.,24.7,4.6));
#1445=CARTESIAN_POINT('',(7.,24.7,4.6));
#1446=CARTESIAN_POINT('',(9.,24.7,2.6));
#1447=CARTESIAN_POINT('',(3.9,24.7,1.));
#1448=CARTESIAN_POINT('',(3.9,24.7,4.2));
#1449=CARTESIAN_POINT('',(3.9,24.7,2.6));
#1450=CARTESIAN_POINT('',(-3.9,24.7,4.2));
#1451=CARTESIAN_POINT('',(7.,24.7,4.2));
#1452=CARTESIAN_POINT('',(-3.9,24.7,1.));
#1453=CARTESIAN_POINT('',(-3.9,24.7,2.6));
#1454=CARTESIAN_POINT('',(7.,24.7,1.));
#1455=CARTESIAN_POINT('Origin',(-9.00000000000001,19.7,2.6));
#1456=CARTESIAN_POINT('',(-14.,19.7,4.6));
#1457=CARTESIAN_POINT('',(-14.,19.7,2.6));
#1458=CARTESIAN_POINT('Origin',(-9.00000000000001,19.7,4.6));
#1459=CARTESIAN_POINT('Origin',(-14.,24.7,2.6));
#1460=CARTESIAN_POINT('',(-14.,-19.7,4.6));
#1461=CARTESIAN_POINT('',(-14.,-19.7,2.6));
#1462=CARTESIAN_POINT('',(-14.,12.35,4.6));
#1463=CARTESIAN_POINT('Origin',(-9.,-19.7,2.6));
#1464=CARTESIAN_POINT('',(-9.,-24.7,4.6));
#1465=CARTESIAN_POINT('',(-9.,-24.7,2.6));
#1466=CARTESIAN_POINT('Origin',(-9.,-19.7,4.6));
#1467=CARTESIAN_POINT('Origin',(-9.,-19.7,4.8));
#1468=CARTESIAN_POINT('',(-13.6,-19.7,5.));
#1469=CARTESIAN_POINT('',(-9.,-24.7,4.6));
#1470=CARTESIAN_POINT('Origin',(-13.8,12.35,4.8));
#1471=CARTESIAN_POINT('',(-13.6,19.7,5.));
#1472=CARTESIAN_POINT('Origin',(-9.00000000000001,19.7,4.8));
#1473=CARTESIAN_POINT('',(-9.00000000000001,24.3,5.));
#1474=CARTESIAN_POINT('Origin',(7.,24.5,4.8));
#1475=CARTESIAN_POINT('',(9.,24.3,5.));
#1476=CARTESIAN_POINT('Origin',(9.,19.7,4.8));
#1477=CARTESIAN_POINT('',(14.,19.7,4.6));
#1478=CARTESIAN_POINT('',(13.6,19.7,5.));
#1479=CARTESIAN_POINT('Origin',(9.,19.7,4.6));
#1480=CARTESIAN_POINT('Origin',(13.8,-12.35,4.8));
#1481=CARTESIAN_POINT('',(14.,-19.7,4.6));
#1482=CARTESIAN_POINT('',(13.6,-19.7,5.));
#1483=CARTESIAN_POINT('',(14.,-12.35,4.6));
#1484=CARTESIAN_POINT('Origin',(9.00000000000001,-19.7,4.8));
#1485=CARTESIAN_POINT('',(9.00000000000001,-24.7,4.6));
#1486=CARTESIAN_POINT('',(9.00000000000001,-24.3,5.));
#1487=CARTESIAN_POINT('Origin',(9.00000000000001,-19.7,4.6));
#1488=CARTESIAN_POINT('Origin',(-7.,-24.5,4.8));
#1489=CARTESIAN_POINT('',(-7.,-24.7,4.6));
#1490=CARTESIAN_POINT('Origin',(14.,-24.7,2.6));
#1491=CARTESIAN_POINT('',(14.,19.7,2.6));
#1492=CARTESIAN_POINT('',(14.,-19.7,2.6));
#1493=CARTESIAN_POINT('Origin',(9.00000000000001,-19.7,2.6));
#1494=CARTESIAN_POINT('',(9.00000000000001,-24.7,2.6));
#1495=CARTESIAN_POINT('Origin',(-14.,-24.7,2.6));
#1496=CARTESIAN_POINT('',(3.90000000000001,-24.7,4.2));
#1497=CARTESIAN_POINT('',(3.90000000000001,-24.7,1.));
#1498=CARTESIAN_POINT('',(3.90000000000001,-24.7,2.6));
#1499=CARTESIAN_POINT('',(-3.9,-24.7,1.));
#1500=CARTESIAN_POINT('',(-7.,-24.7,1.));
#1501=CARTESIAN_POINT('',(-3.9,-24.7,4.2));
#1502=CARTESIAN_POINT('',(-3.9,-24.7,2.6));
#1503=CARTESIAN_POINT('',(-7.,-24.7,4.2));
#1504=CARTESIAN_POINT('Origin',(9.,19.7,2.6));
#1505=CARTESIAN_POINT('Origin',(-3.9,24.7,2.6));
#1506=CARTESIAN_POINT('',(-3.89999999999999,21.0920164833921,1.));
#1507=CARTESIAN_POINT('',(-3.9,22.5125,1.));
#1508=CARTESIAN_POINT('',(-3.89999999999999,21.0920164833921,4.2));
#1509=CARTESIAN_POINT('',(-3.9,22.5125,4.2));
#1510=CARTESIAN_POINT('',(-3.89999999999999,21.0920164833921,2.6));
#1511=CARTESIAN_POINT('Origin',(3.90000000000001,21.0920164833921,2.6));
#1512=CARTESIAN_POINT('',(3.90000000000001,21.0920164833921,1.));
#1513=CARTESIAN_POINT('',(3.90000000000001,20.7085082416961,1.));
#1514=CARTESIAN_POINT('',(3.90000000000001,21.0920164833921,4.2));
#1515=CARTESIAN_POINT('',(3.90000000000001,21.0920164833921,2.6));
#1516=CARTESIAN_POINT('',(3.90000000000001,20.7085082416961,4.2));
#1517=CARTESIAN_POINT('Origin',(2.44929359829471E-15,20.,2.6));
#1518=CARTESIAN_POINT('Origin',(2.44929359829471E-15,20.,1.));
#1519=CARTESIAN_POINT('Origin',(2.44929359829471E-15,20.,4.2));
#1520=CARTESIAN_POINT('Origin',(2.489094619267E-15,20.325,1.));
#1521=CARTESIAN_POINT('Origin',(2.489094619267E-15,20.325,4.2));
#1522=CARTESIAN_POINT('Origin',(3.90000000000001,-24.7,2.6));
#1523=CARTESIAN_POINT('',(3.89999999999999,-21.0920164833921,1.));
#1524=CARTESIAN_POINT('',(3.9,-22.5125,1.));
#1525=CARTESIAN_POINT('',(3.89999999999999,-21.0920164833921,4.2));
#1526=CARTESIAN_POINT('',(3.9,-22.5125,4.2));
#1527=CARTESIAN_POINT('',(3.89999999999999,-21.0920164833921,2.6));
#1528=CARTESIAN_POINT('Origin',(-3.90000000000001,-21.0920164833921,2.6));
#1529=CARTESIAN_POINT('',(-3.90000000000001,-21.0920164833921,1.));
#1530=CARTESIAN_POINT('',(-3.90000000000001,-20.7085082416961,1.));
#1531=CARTESIAN_POINT('',(-3.90000000000001,-21.0920164833921,4.2));
#1532=CARTESIAN_POINT('',(-3.90000000000001,-21.0920164833921,2.6));
#1533=CARTESIAN_POINT('',(-3.90000000000001,-20.7085082416961,4.2));
#1534=CARTESIAN_POINT('Origin',(0.,-20.,2.6));
#1535=CARTESIAN_POINT('Origin',(0.,-20.,1.));
#1536=CARTESIAN_POINT('Origin',(0.,-20.,4.2));
#1537=CARTESIAN_POINT('Origin',(0.,-20.325,1.));
#1538=CARTESIAN_POINT('Origin',(0.,-20.325,4.2));
#1539=UNCERTAINTY_MEASURE_WITH_UNIT(LENGTH_MEASURE(0.01),#1543,
'DISTANCE_ACCURACY_VALUE',
'Maximum model space distance between geometric entities at asserted c
onnectivities');
#1540=UNCERTAINTY_MEASURE_WITH_UNIT(LENGTH_MEASURE(0.01),#1543,
'DISTANCE_ACCURACY_VALUE',
'Maximum model space distance between geometric entities at asserted c
onnectivities');
#1541=(
GEOMETRIC_REPRESENTATION_CONTEXT(3)
GLOBAL_UNCERTAINTY_ASSIGNED_CONTEXT((#1539))
GLOBAL_UNIT_ASSIGNED_CONTEXT((#1543,#1545,#1546))
REPRESENTATION_CONTEXT('','3D')
);
#1542=(
GEOMETRIC_REPRESENTATION_CONTEXT(3)
GLOBAL_UNCERTAINTY_ASSIGNED_CONTEXT((#1540))
GLOBAL_UNIT_ASSIGNED_CONTEXT((#1543,#1545,#1546))
REPRESENTATION_CONTEXT('','3D')
);
#1543=(
LENGTH_UNIT()
NAMED_UNIT(*)
SI_UNIT(.MILLI.,.METRE.)
);
#1544=(
LENGTH_UNIT()
NAMED_UNIT(*)
SI_UNIT(.CENTI.,.METRE.)
);
#1545=(
NAMED_UNIT(*)
PLANE_ANGLE_UNIT()
SI_UNIT($,.RADIAN.)
);
#1546=(
NAMED_UNIT(*)
SI_UNIT($,.STERADIAN.)
SOLID_ANGLE_UNIT()
);
#1547=SHAPE_DEFINITION_REPRESENTATION(#1548,#1549);
#1548=PRODUCT_DEFINITION_SHAPE('',$,#1551);
#1549=SHAPE_REPRESENTATION('',(#781),#1541);
#1550=PRODUCT_DEFINITION_CONTEXT('part definition',#1555,'design');
#1551=PRODUCT_DEFINITION('PRT - 2008 - SAMCLP','PRT - 2008 - SAMCLP',#1552,
#1550);
#1552=PRODUCT_DEFINITION_FORMATION('',$,#1557);
#1553=PRODUCT_RELATED_PRODUCT_CATEGORY('PRT - 2008 - SAMCLP',
'PRT - 2008 - SAMCLP',(#1557));
#1554=APPLICATION_PROTOCOL_DEFINITION('international standard',
'automotive_design',2009,#1555);
#1555=APPLICATION_CONTEXT(
'Core Data for Automotive Mechanical Design Process');
#1556=PRODUCT_CONTEXT('part definition',#1555,'mechanical');
#1557=PRODUCT('PRT - 2008 - SAMCLP','PRT - 2008 - SAMCLP','Sample clip',
(#1556));
#1558=PRESENTATION_STYLE_ASSIGNMENT((#1559));
#1559=SURFACE_STYLE_USAGE(.BOTH.,#1562);
#1560=SURFACE_STYLE_RENDERING_WITH_PROPERTIES($,#1566,(#1561));
#1561=SURFACE_STYLE_TRANSPARENT(0.);
#1562=SURFACE_SIDE_STYLE('',(#1563,#1560));
#1563=SURFACE_STYLE_FILL_AREA(#1564);
#1564=FILL_AREA_STYLE('',(#1565));
#1565=FILL_AREA_STYLE_COLOUR('',#1566);
#1566=COLOUR_RGB('',0.92156862745098,0.92156862745098,0.92156862745098);
ENDSEC;
END-ISO-10303-21;
