<?xml version="1.0" encoding="UTF-8" standalone="no"?>
<!DOCTYPE svg PUBLIC "-//W3C//DTD SVG 1.1//EN"
 "http://www.w3.org/Graphics/SVG/1.1/DTD/svg11.dtd">
<!-- Generated by graphviz version 12.1.2 (20240928.0832)
 -->
<!-- Pages: 1 -->
<svg width="1070pt" height="133pt"
 viewBox="0.00 0.00 1069.60 132.80" xmlns="http://www.w3.org/2000/svg" xmlns:xlink="http://www.w3.org/1999/xlink">
<g id="graph0" class="graph" transform="scale(1 1) rotate(0) translate(4 128.8)">
<polygon fill="white" stroke="none" points="-4,4 -4,-128.8 1065.6,-128.8 1065.6,4 -4,4"/>
<g id="node1" class="node">
<title></title>
<ellipse fill="none" stroke="black" cx="550.16" cy="-106.8" rx="27" ry="18"/>
</g>
<!-- light&#45;source -->
<g id="node2" class="node">
<title>light&#45;source</title>
<ellipse fill="none" stroke="black" cx="57.16" cy="-18" rx="57.16" ry="18"/>
<text text-anchor="middle" x="57.16" y="-13.8" font-family="Times,serif" font-size="14.00">light&#45;source</text>
</g>
<!-- &#45;&gt;light&#45;source -->
<g id="edge1" class="edge">
<title>&#45;&gt;light&#45;source</title>
<path fill="none" stroke="black" d="M523.17,-103.35C473.33,-98.61 363.55,-87.2 272.07,-70.8 205.17,-58.81 189.17,-52.21 123.16,-36 119.19,-35.03 115.1,-34 110.97,-32.97"/>
<polygon fill="black" stroke="black" points="112.11,-29.64 101.55,-30.58 110.38,-36.43 112.11,-29.64"/>
<text text-anchor="middle" x="305.12" y="-58.2" font-family="Times,serif" font-size="14.00">[x&#45;8.00] cm</text>
</g>
<!-- objective&#45;lens -->
<g id="node3" class="node">
<title>objective&#45;lens</title>
<ellipse fill="none" stroke="black" cx="197.16" cy="-18" rx="65.2" ry="18"/>
<text text-anchor="middle" x="197.16" y="-13.8" font-family="Times,serif" font-size="14.00">objective&#45;lens</text>
</g>
<!-- &#45;&gt;objective&#45;lens -->
<g id="edge2" class="edge">
<title>&#45;&gt;objective&#45;lens</title>
<path fill="none" stroke="black" d="M525.06,-99.63C469.36,-85.93 334.19,-52.7 255.9,-33.44"/>
<polygon fill="black" stroke="black" points="256.79,-30.06 246.24,-31.07 255.12,-36.86 256.79,-30.06"/>
</g>
<!-- periscope&#45;mirror&#45;1 -->
<g id="node4" class="node">
<title>periscope&#45;mirror&#45;1</title>
<ellipse fill="none" stroke="black" cx="364.16" cy="-18" rx="83.97" ry="18"/>
<text text-anchor="middle" x="364.16" y="-13.8" font-family="Times,serif" font-size="14.00">periscope&#45;mirror&#45;1</text>
</g>
<!-- &#45;&gt;periscope&#45;mirror&#45;1 -->
<g id="edge3" class="edge">
<title>&#45;&gt;periscope&#45;mirror&#45;1</title>
<path fill="none" stroke="black" d="M528.46,-95.67C499.12,-81.98 446.1,-57.24 408.23,-39.57"/>
<polygon fill="black" stroke="black" points="409.9,-36.48 399.35,-35.42 406.94,-42.82 409.9,-36.48"/>
<text text-anchor="middle" x="489.43" y="-58.2" font-family="Times,serif" font-size="14.00">[x+2]</text>
</g>
<!-- periscope&#45;mirror&#45;2 -->
<g id="node5" class="node">
<title>periscope&#45;mirror&#45;2</title>
<ellipse fill="none" stroke="black" cx="550.16" cy="-18" rx="83.97" ry="18"/>
<text text-anchor="middle" x="550.16" y="-13.8" font-family="Times,serif" font-size="14.00">periscope&#45;mirror&#45;2</text>
</g>
<!-- &#45;&gt;periscope&#45;mirror&#45;2 -->
<g id="edge4" class="edge">
<title>&#45;&gt;periscope&#45;mirror&#45;2</title>
<path fill="none" stroke="black" d="M550.16,-88.65C550.16,-76.96 550.16,-61.19 550.16,-47.62"/>
<polygon fill="black" stroke="black" points="553.66,-47.92 550.16,-37.92 546.66,-47.92 553.66,-47.92"/>
<text text-anchor="middle" x="576.27" y="-58.2" font-family="Times,serif" font-size="14.00">+[2 10 0]</text>
</g>
<!-- projector&#45;screen -->
<g id="node6" class="node">
<title>projector&#45;screen</title>
<ellipse fill="none" stroke="black" cx="726.16" cy="-18" rx="73.77" ry="18"/>
<text text-anchor="middle" x="726.16" y="-13.8" font-family="Times,serif" font-size="14.00">projector&#45;screen</text>
</g>
<!-- &#45;&gt;projector&#45;screen -->
<g id="edge5" class="edge">
<title>&#45;&gt;projector&#45;screen</title>
<path fill="none" stroke="black" d="M571.39,-95.33C599.27,-81.58 648.83,-57.14 684.36,-39.61"/>
<polygon fill="black" stroke="black" points="685.66,-42.88 693.08,-35.31 682.57,-36.6 685.66,-42.88"/>
<text text-anchor="middle" x="725.64" y="-58.2" font-family="Times,serif" font-size="14.00">+[5 10 0] + [x+10.00] cm</text>
</g>
<!-- sample&#45;holder -->
<g id="node7" class="node">
<title>sample&#45;holder</title>
<ellipse fill="none" stroke="black" cx="884.16" cy="-18" rx="66.28" ry="18"/>
<text text-anchor="middle" x="884.16" y="-13.8" font-family="Times,serif" font-size="14.00">sample&#45;holder</text>
</g>
<!-- &#45;&gt;sample&#45;holder -->
<g id="edge6" class="edge">
<title>&#45;&gt;sample&#45;holder</title>
<path fill="none" stroke="black" d="M577.42,-105.68C624.49,-104.67 723.41,-99.03 801.16,-70.8 819.89,-64 838.88,-52.56 853.96,-42.15"/>
<polygon fill="black" stroke="black" points="855.92,-45.05 862.04,-36.4 851.86,-39.35 855.92,-45.05"/>
</g>
<!-- tube&#45;lens -->
<g id="node8" class="node">
<title>tube&#45;lens</title>
<ellipse fill="none" stroke="black" cx="1015.16" cy="-18" rx="46.43" ry="18"/>
<text text-anchor="middle" x="1015.16" y="-13.8" font-family="Times,serif" font-size="14.00">tube&#45;lens</text>
</g>
<!-- &#45;&gt;tube&#45;lens -->
<g id="edge7" class="edge">
<title>&#45;&gt;tube&#45;lens</title>
<path fill="none" stroke="black" d="M577.2,-103.75C627.66,-99.63 739.49,-89.15 832.16,-70.8 889.57,-59.43 902.93,-52.24 959.16,-36 962.27,-35.1 965.48,-34.16 968.7,-33.21"/>
<polygon fill="black" stroke="black" points="969.63,-36.59 978.21,-30.37 967.62,-29.88 969.63,-36.59"/>
<text text-anchor="middle" x="924.32" y="-58.2" font-family="Times,serif" font-size="14.00">+[5 10 0]</text>
</g>
</g>
</svg>
