ISO-10303-21;
HEADER;
/* Generated by software containing ST-Developer
 * from STEP Tools, Inc. (www.steptools.com) 
 */

FILE_DESCRIPTION(
/* description */ ('Lens f=50'),
/* implementation_level */ '2;1');

FILE_NAME(
/* name */ 'BUY - Lens - f50 D40 sA2.1 sI10.1 cx-cx.stp',
/* time_stamp */ '2026-08-19T14:33:20+02:00',
/* author */ ('benir'),
/* organization */ (''),
/* preprocessor_version */ 'ST-DEVELOPER v20',
/* originating_system */ 'Autodesk Inventor 2025',
/* authorisation */ '');

FILE_SCHEMA (('AUTOMOTIVE_DESIGN { 1 0 10303 214 3 1 1 }'));
ENDSEC;

DATA;
#10=MECHANICAL_DESIGN_GEOMETRIC_PRESENTATION_REPRESENTATION('',(#13),#135);
#11=SHAPE_REPRESENTATION_RELATIONSHIP('SRR','None',#142,#12);
#12=ADVANCED_BREP_SHAPE_REPRESENTATION('',(#14),#134);
#13=STYLED_ITEM('',(#151),#14);
#14=MANIFOLD_SOLID_BREP('Positive Lens',#62);
#15=SPHERICAL_SURFACE('',#90,51.9999999999936);
#16=SPHERICAL_SURFACE('',#92,51.9999999999936);
#17=FACE_OUTER_BOUND('',#20,.T.);
#18=FACE_OUTER_BOUND('',#21,.T.);
#19=FACE_OUTER_BOUND('',#22,.T.);
#20=EDGE_LOOP('',(#44,#45,#46,#47,#48,#49));
#21=EDGE_LOOP('',(#50,#51,#52,#53));
#22=EDGE_LOOP('',(#54,#55,#56,#57));
#23=LINE('',#122,#24);
#24=VECTOR('',#102,20.);
#25=CIRCLE('',#86,20.);
#26=CIRCLE('',#87,20.);
#27=CIRCLE('',#88,20.);
#28=CIRCLE('',#89,20.);
#29=CIRCLE('',#91,51.9999999999936);
#30=CIRCLE('',#93,51.9999999999936);
#31=VERTEX_POINT('',#117);
#32=VERTEX_POINT('',#118);
#33=VERTEX_POINT('',#121);
#34=VERTEX_POINT('',#123);
#35=VERTEX_POINT('',#127);
#36=VERTEX_POINT('',#130);
#37=EDGE_CURVE('',#31,#32,#25,.T.);
#38=EDGE_CURVE('',#32,#31,#26,.T.);
#39=EDGE_CURVE('',#32,#33,#23,.T.);
#40=EDGE_CURVE('',#33,#34,#27,.T.);
#41=EDGE_CURVE('',#34,#33,#28,.T.);
#42=EDGE_CURVE('',#31,#35,#29,.T.);
#43=EDGE_CURVE('',#36,#34,#30,.T.);
#44=ORIENTED_EDGE('',*,*,#37,.F.);
#45=ORIENTED_EDGE('',*,*,#38,.F.);
#46=ORIENTED_EDGE('',*,*,#39,.T.);
#47=ORIENTED_EDGE('',*,*,#40,.T.);
#48=ORIENTED_EDGE('',*,*,#41,.T.);
#49=ORIENTED_EDGE('',*,*,#39,.F.);
#50=ORIENTED_EDGE('',*,*,#37,.T.);
#51=ORIENTED_EDGE('',*,*,#38,.T.);
#52=ORIENTED_EDGE('',*,*,#42,.T.);
#53=ORIENTED_EDGE('',*,*,#42,.F.);
#54=ORIENTED_EDGE('',*,*,#41,.F.);
#55=ORIENTED_EDGE('',*,*,#43,.F.);
#56=ORIENTED_EDGE('',*,*,#43,.T.);
#57=ORIENTED_EDGE('',*,*,#40,.F.);
#58=CYLINDRICAL_SURFACE('',#85,20.);
#59=ADVANCED_FACE('',(#17),#58,.T.);
#60=ADVANCED_FACE('',(#18),#15,.T.);
#61=ADVANCED_FACE('',(#19),#16,.T.);
#62=CLOSED_SHELL('',(#59,#60,#61));
#63=DERIVED_UNIT_ELEMENT(#66,1.);
#64=DERIVED_UNIT_ELEMENT(#137,-3.);
#65=DIMENSIONAL_EXPONENTS(0.,1.,0.,0.,0.,0.,0.);
#66=(
CONVERSION_BASED_UNIT('gram',#68)
MASS_UNIT()
NAMED_UNIT(#65)
);
#67=(
MASS_UNIT()
NAMED_UNIT(*)
SI_UNIT(.KILO.,.GRAM.)
);
#68=MASS_MEASURE_WITH_UNIT(MASS_MEASURE(0.001),#67);
#69=DERIVED_UNIT((#63,#64));
#70=MEASURE_REPRESENTATION_ITEM('density measure',
POSITIVE_RATIO_MEASURE(2.18),#69);
#71=PROPERTY_DEFINITION_REPRESENTATION(#76,#73);
#72=PROPERTY_DEFINITION_REPRESENTATION(#77,#74);
#73=REPRESENTATION('material name',(#75),#134);
#74=REPRESENTATION('density',(#70),#134);
#75=DESCRIPTIVE_REPRESENTATION_ITEM('Glass','Glass');
#76=PROPERTY_DEFINITION('material property','material name',#144);
#77=PROPERTY_DEFINITION('material property','density of part',#144);
#78=DATE_TIME_ROLE('creation_date');
#79=APPLIED_DATE_AND_TIME_ASSIGNMENT(#80,#78,(#144));
#80=DATE_AND_TIME(#81,#82);
#81=CALENDAR_DATE(2024,9,12);
#82=LOCAL_TIME(0,0,0.,#83);
#83=COORDINATED_UNIVERSAL_TIME_OFFSET(0,0,.BEHIND.);
#84=AXIS2_PLACEMENT_3D('',#115,#94,#95);
#85=AXIS2_PLACEMENT_3D('',#116,#96,#97);
#86=AXIS2_PLACEMENT_3D('',#119,#98,#99);
#87=AXIS2_PLACEMENT_3D('',#120,#100,#101);
#88=AXIS2_PLACEMENT_3D('',#124,#103,#104);
#89=AXIS2_PLACEMENT_3D('',#125,#105,#106);
#90=AXIS2_PLACEMENT_3D('',#126,#107,#108);
#91=AXIS2_PLACEMENT_3D('',#128,#109,#110);
#92=AXIS2_PLACEMENT_3D('',#129,#111,#112);
#93=AXIS2_PLACEMENT_3D('',#131,#113,#114);
#94=DIRECTION('axis',(0.,0.,1.));
#95=DIRECTION('refdir',(1.,0.,0.));
#96=DIRECTION('center_axis',(-1.83688106809825E-16,0.,-1.));
#97=DIRECTION('ref_axis',(-1.,0.,1.92811123655657E-16));
#98=DIRECTION('center_axis',(-1.83688106809825E-16,0.,-1.));
#99=DIRECTION('ref_axis',(1.,0.,-1.83688106809825E-16));
#100=DIRECTION('center_axis',(-1.83688106809825E-16,0.,-1.));
#101=DIRECTION('ref_axis',(1.,0.,-1.83688106809825E-16));
#102=DIRECTION('',(1.83688106809825E-16,0.,1.));
#103=DIRECTION('center_axis',(-1.83688106809825E-16,0.,-1.));
#104=DIRECTION('ref_axis',(1.,0.,-1.83688106809825E-16));
#105=DIRECTION('center_axis',(-1.83688106809825E-16,0.,-1.));
#106=DIRECTION('ref_axis',(1.,0.,-1.83688106809825E-16));
#107=DIRECTION('center_axis',(6.12323399573677E-17,0.,1.));
#108=DIRECTION('ref_axis',(1.,0.,0.));
#109=DIRECTION('center_axis',(1.22464679914735E-16,-1.,0.));
#110=DIRECTION('ref_axis',(-1.,-1.22464679914735E-16,0.));
#111=DIRECTION('center_axis',(6.12323399573677E-17,0.,1.));
#112=DIRECTION('ref_axis',(1.,0.,0.));
#113=DIRECTION('center_axis',(1.22464679914735E-16,-1.,0.));
#114=DIRECTION('ref_axis',(-1.,-1.22464679914735E-16,0.));
#115=CARTESIAN_POINT('',(0.,0.,0.));
#116=CARTESIAN_POINT('Origin',(1.01028458745491E-15,0.,-0.499999999995259));
#117=CARTESIAN_POINT('',(-20.,0.,-1.54999999999526));
#118=CARTESIAN_POINT('',(20.,-2.44929359829471E-15,-1.54999999999526));
#119=CARTESIAN_POINT('Origin',(8.17412075304592E-16,0.,-1.54999999999526));
#120=CARTESIAN_POINT('Origin',(8.17412075304592E-16,0.,-1.54999999999526));
#121=CARTESIAN_POINT('',(20.,-2.44929359829471E-15,0.550000000004737));
#122=CARTESIAN_POINT('',(20.,-2.44929359829471E-15,-0.499999999995263));
#123=CARTESIAN_POINT('',(-20.,0.,0.550000000004745));
#124=CARTESIAN_POINT('Origin',(1.20315709960522E-15,0.,0.550000000004741));
#125=CARTESIAN_POINT('Origin',(1.20315709960522E-15,0.,0.550000000004741));
#126=CARTESIAN_POINT('Origin',(7.81693022398576E-21,0.,46.4499999999978));
#127=CARTESIAN_POINT('',(-3.1840738608525E-15,-3.89937543492035E-31,-5.5499999999958));
#128=CARTESIAN_POINT('Origin',(7.81693022398576E-21,0.,46.4499999999978));
#129=CARTESIAN_POINT('Origin',(5.96400724373521E-20,0.,-47.4499999999883));
#130=CARTESIAN_POINT('',(-3.18402203771029E-15,-3.89937543492035E-31,4.55000000000529));
#131=CARTESIAN_POINT('Origin',(5.96400724373521E-20,0.,-47.4499999999883));
#132=UNCERTAINTY_MEASURE_WITH_UNIT(LENGTH_MEASURE(0.01),#136,
'DISTANCE_ACCURACY_VALUE',
'Maximum model space distance between geometric entities at asserted c
onnectivities');
#133=UNCERTAINTY_MEASURE_WITH_UNIT(LENGTH_MEASURE(0.01),#136,
'DISTANCE_ACCURACY_VALUE',
'Maximum model space distance between geometric entities at asserted c
onnectivities');
#134=(
GEOMETRIC_REPRESENTATION_CONTEXT(3)
GLOBAL_UNCERTAINTY_ASSIGNED_CONTEXT((#132))
GLOBAL_UNIT_ASSIGNED_CONTEXT((#136,#138,#139))
REPRESENTATION_CONTEXT('','3D')
);
#135=(
GEOMETRIC_REPRESENTATION_CONTEXT(3)
GLOBAL_UNCERTAINTY_ASSIGNED_CONTEXT((#133))
GLOBAL_UNIT_ASSIGNED_CONTEXT((#136,#138,#139))
REPRESENTATION_CONTEXT('','3D')
);
#136=(
LENGTH_UNIT()
NAMED_UNIT(*)
SI_UNIT(.MILLI.,.METRE.)
);
#137=(
LENGTH_UNIT()
NAMED_UNIT(*)
SI_UNIT(.CENTI.,.METRE.)
);
#138=(
NAMED_UNIT(*)
PLANE_ANGLE_UNIT()
SI_UNIT($,.RADIAN.)
);
#139=(
NAMED_UNIT(*)
SI_UNIT($,.STERADIAN.)
SOLID_ANGLE_UNIT()
);
#140=SHAPE_DEFINITION_REPRESENTATION(#141,#142);
#141=PRODUCT_DEFINITION_SHAPE('',$,#144);
#142=SHAPE_REPRESENTATION('',(#84),#134);
#143=PRODUCT_DEFINITION_CONTEXT('part definition',#148,'design');
#144=PRODUCT_DEFINITION('BUY - Lens - f50 D40 sA2.1 sI10.1',
'BUY - Lens - f50 D40 sA2.1 sI10.1 cx-cx',#145,#143);
#145=PRODUCT_DEFINITION_FORMATION('',$,#150);
#146=PRODUCT_RELATED_PRODUCT_CATEGORY(
'BUY - Lens - f50 D40 sA2.1 sI10.1 cx-cx',
'BUY - Lens - f50 D40 sA2.1 sI10.1 cx-cx',(#150));
#147=APPLICATION_PROTOCOL_DEFINITION('international standard',
'automotive_design',2009,#148);
#148=APPLICATION_CONTEXT(
'Core Data for Automotive Mechanical Design Process');
#149=PRODUCT_CONTEXT('part definition',#148,'mechanical');
#150=PRODUCT('BUY - Lens - f50 D40 sA2.1 sI10.1',
'BUY - Lens - f50 D40 sA2.1 sI10.1 cx-cx','Lens f=50',(#149));
#151=PRESENTATION_STYLE_ASSIGNMENT((#152));
#152=SURFACE_STYLE_USAGE(.BOTH.,#155);
#153=SURFACE_STYLE_RENDERING_WITH_PROPERTIES($,#159,(#154));
#154=SURFACE_STYLE_TRANSPARENT(0.480000019073486);
#155=SURFACE_SIDE_STYLE('',(#156,#153));
#156=SURFACE_STYLE_FILL_AREA(#157);
#157=FILL_AREA_STYLE('',(#158));
#158=FILL_AREA_STYLE_COLOUR('',#159);
#159=COLOUR_RGB('',0.00392156862745098,0.243137254901961,0.945098039215686);
ENDSEC;
END-ISO-10303-21;
