<?xml version="1.0" encoding="UTF-8" standalone="no"?>
<!DOCTYPE svg PUBLIC "-//W3C//DTD SVG 1.1//EN"
 "http://www.w3.org/Graphics/SVG/1.1/DTD/svg11.dtd">
<!-- Generated by graphviz version 12.1.2 (20240928.0832)
 -->
<!-- Pages: 1 -->
<svg width="313pt" height="206pt"
 viewBox="0.00 0.00 313.22 205.80" xmlns="http://www.w3.org/2000/svg" xmlns:xlink="http://www.w3.org/1999/xlink">
<g id="graph0" class="graph" transform="scale(1 1) rotate(0) translate(4 201.8)">
<polygon fill="white" stroke="none" points="-4,4 -4,-201.8 309.22,-201.8 309.22,4 -4,4"/>
<g id="node1" class="node">
<title></title>
<ellipse fill="none" stroke="black" cx="79.6" cy="-179.8" rx="27" ry="18"/>
</g>
<!-- mounted&#45;lens -->
<g id="node2" class="node">
<title>mounted&#45;lens</title>
<ellipse fill="none" stroke="black" cx="63.6" cy="-91" rx="63.6" ry="18"/>
<text text-anchor="middle" x="63.6" y="-86.8" font-family="Times,serif" font-size="14.00">mounted&#45;lens</text>
</g>
<!-- &#45;&gt;mounted&#45;lens -->
<g id="edge1" class="edge">
<title>&#45;&gt;mounted&#45;lens</title>
<path fill="none" stroke="black" d="M76.44,-161.65C74.29,-149.96 71.38,-134.19 68.88,-120.62"/>
<polygon fill="black" stroke="black" points="72.34,-120.1 67.09,-110.9 65.46,-121.37 72.34,-120.1"/>
</g>
<!-- skeleton -->
<g id="node3" class="node">
<title>skeleton</title>
<ellipse fill="none" stroke="black" cx="188.6" cy="-91" rx="43.22" ry="18"/>
<text text-anchor="middle" x="188.6" y="-86.8" font-family="Times,serif" font-size="14.00">skeleton</text>
</g>
<!-- &#45;&gt;skeleton -->
<g id="edge2" class="edge">
<title>&#45;&gt;skeleton</title>
<path fill="none" stroke="black" d="M96.16,-165.62C113.2,-152.05 140.07,-130.65 160.46,-114.41"/>
<polygon fill="black" stroke="black" points="162.49,-117.27 168.13,-108.3 158.13,-111.79 162.49,-117.27"/>
<text text-anchor="middle" x="224.54" y="-131.2" font-family="Times,serif" font-size="14.00">primitives/cube&#45;skeleton.dsn</text>
</g>
<!-- skeleton/lower&#45;half -->
<g id="node4" class="node">
<title>skeleton/lower&#45;half</title>
<ellipse fill="none" stroke="black" cx="127.6" cy="-18" rx="51.25" ry="18"/>
<text text-anchor="middle" x="127.6" y="-13.8" font-family="Times,serif" font-size="14.00">lower&#45;half</text>
</g>
<!-- skeleton&#45;&gt;skeleton/lower&#45;half -->
<g id="edge3" class="edge">
<title>skeleton&#45;&gt;skeleton/lower&#45;half</title>
<path fill="none" stroke="black" d="M174.45,-73.53C166.91,-64.75 157.47,-53.76 149.04,-43.96"/>
<polygon fill="black" stroke="black" points="151.83,-41.83 142.66,-36.53 146.52,-46.39 151.83,-41.83"/>
</g>
<!-- skeleton/upper&#45;half -->
<g id="node5" class="node">
<title>skeleton/upper&#45;half</title>
<ellipse fill="none" stroke="black" cx="248.6" cy="-18" rx="51.25" ry="18"/>
<text text-anchor="middle" x="248.6" y="-13.8" font-family="Times,serif" font-size="14.00">upper&#45;half</text>
</g>
<!-- skeleton&#45;&gt;skeleton/upper&#45;half -->
<g id="edge4" class="edge">
<title>skeleton&#45;&gt;skeleton/upper&#45;half</title>
<path fill="none" stroke="black" d="M202.52,-73.53C209.94,-64.75 219.23,-53.76 227.51,-43.96"/>
<polygon fill="black" stroke="black" points="230,-46.43 233.79,-36.53 224.66,-41.91 230,-46.43"/>
</g>
</g>
</svg>
