<?xml version="1.0" encoding="UTF-8" standalone="no"?>
<!DOCTYPE svg PUBLIC "-//W3C//DTD SVG 1.1//EN"
 "http://www.w3.org/Graphics/SVG/1.1/DTD/svg11.dtd">
<!-- Generated by graphviz version 12.1.2 (20240928.0832)
 -->
<!-- Pages: 1 -->
<svg width="921pt" height="206pt"
 viewBox="0.00 0.00 920.86 205.80" xmlns="http://www.w3.org/2000/svg" xmlns:xlink="http://www.w3.org/1999/xlink">
<g id="graph0" class="graph" transform="scale(1 1) rotate(0) translate(4 201.8)">
<polygon fill="white" stroke="none" points="-4,4 -4,-201.8 916.86,-201.8 916.86,4 -4,4"/>
<g id="node1" class="node">
<title></title>
<ellipse fill="none" stroke="black" cx="455.74" cy="-179.8" rx="27" ry="18"/>
</g>
<!-- mounted&#45;lens -->
<g id="node2" class="node">
<title>mounted&#45;lens</title>
<ellipse fill="none" stroke="black" cx="364.74" cy="-91" rx="63.6" ry="18"/>
<text text-anchor="middle" x="364.74" y="-86.8" font-family="Times,serif" font-size="14.00">mounted&#45;lens</text>
</g>
<!-- &#45;&gt;mounted&#45;lens -->
<g id="edge1" class="edge">
<title>&#45;&gt;mounted&#45;lens</title>
<path fill="none" stroke="black" d="M440.71,-164.47C427.04,-151.43 406.58,-131.91 390.34,-116.41"/>
<polygon fill="black" stroke="black" points="393.03,-114.15 383.38,-109.78 388.2,-119.21 393.03,-114.15"/>
<text text-anchor="middle" x="448.52" y="-131.2" font-family="Times,serif" font-size="14.00">[x&#45;11] mm</text>
</g>
<!-- skeleton -->
<g id="node6" class="node">
<title>skeleton</title>
<ellipse fill="none" stroke="black" cx="636.74" cy="-91" rx="43.22" ry="18"/>
<text text-anchor="middle" x="636.74" y="-86.8" font-family="Times,serif" font-size="14.00">skeleton</text>
</g>
<!-- &#45;&gt;skeleton -->
<g id="edge2" class="edge">
<title>&#45;&gt;skeleton</title>
<path fill="none" stroke="black" d="M477.21,-168.5C507.13,-154.16 561.82,-127.93 598.72,-110.23"/>
<polygon fill="black" stroke="black" points="600.22,-113.4 607.72,-105.92 597.19,-107.08 600.22,-113.4"/>
</g>
<!-- mounted&#45;lens/insert -->
<g id="node3" class="node">
<title>mounted&#45;lens/insert</title>
<ellipse fill="none" stroke="black" cx="87.74" cy="-18" rx="87.74" ry="18"/>
<text text-anchor="middle" x="87.74" y="-13.8" font-family="Times,serif" font-size="14.00">mounted&#45;lens/insert</text>
</g>
<!-- mounted&#45;lens&#45;&gt;mounted&#45;lens/insert -->
<g id="edge3" class="edge">
<title>mounted&#45;lens&#45;&gt;mounted&#45;lens/insert</title>
<path fill="none" stroke="black" d="M318.69,-78.2C273.11,-66.51 202.95,-48.53 151.92,-35.45"/>
<polygon fill="black" stroke="black" points="153.04,-32.12 142.48,-33.03 151.3,-38.9 153.04,-32.12"/>
</g>
<!-- mounted&#45;lens/lens -->
<g id="node4" class="node">
<title>mounted&#45;lens/lens</title>
<ellipse fill="none" stroke="black" cx="275.74" cy="-18" rx="81.84" ry="18"/>
<text text-anchor="middle" x="275.74" y="-13.8" font-family="Times,serif" font-size="14.00">mounted&#45;lens/lens</text>
</g>
<!-- mounted&#45;lens&#45;&gt;mounted&#45;lens/lens -->
<g id="edge4" class="edge">
<title>mounted&#45;lens&#45;&gt;mounted&#45;lens/lens</title>
<path fill="none" stroke="black" d="M344.1,-73.53C332.69,-64.43 318.32,-52.97 305.7,-42.9"/>
<polygon fill="black" stroke="black" points="308.07,-40.32 298.07,-36.81 303.71,-45.79 308.07,-40.32"/>
</g>
<!-- mounted&#45;lens/nut -->
<g id="node5" class="node">
<title>mounted&#45;lens/nut</title>
<ellipse fill="none" stroke="black" cx="453.74" cy="-18" rx="78.63" ry="18"/>
<text text-anchor="middle" x="453.74" y="-13.8" font-family="Times,serif" font-size="14.00">mounted&#45;lens/nut</text>
</g>
<!-- mounted&#45;lens&#45;&gt;mounted&#45;lens/nut -->
<g id="edge5" class="edge">
<title>mounted&#45;lens&#45;&gt;mounted&#45;lens/nut</title>
<path fill="none" stroke="black" d="M385.38,-73.53C396.87,-64.37 411.37,-52.8 424.05,-42.68"/>
<polygon fill="black" stroke="black" points="426.08,-45.54 431.72,-36.57 421.72,-40.07 426.08,-45.54"/>
</g>
<!-- skeleton/lower&#45;half -->
<g id="node7" class="node">
<title>skeleton/lower&#45;half</title>
<ellipse fill="none" stroke="black" cx="636.74" cy="-18" rx="86.12" ry="18"/>
<text text-anchor="middle" x="636.74" y="-13.8" font-family="Times,serif" font-size="14.00">skeleton/lower&#45;half</text>
</g>
<!-- skeleton&#45;&gt;skeleton/lower&#45;half -->
<g id="edge6" class="edge">
<title>skeleton&#45;&gt;skeleton/lower&#45;half</title>
<path fill="none" stroke="black" d="M636.74,-72.81C636.74,-65.23 636.74,-56.1 636.74,-47.54"/>
<polygon fill="black" stroke="black" points="640.24,-47.54 636.74,-37.54 633.24,-47.54 640.24,-47.54"/>
</g>
<!-- skeleton/upper&#45;half -->
<g id="node8" class="node">
<title>skeleton/upper&#45;half</title>
<ellipse fill="none" stroke="black" cx="826.74" cy="-18" rx="86.12" ry="18"/>
<text text-anchor="middle" x="826.74" y="-13.8" font-family="Times,serif" font-size="14.00">skeleton/upper&#45;half</text>
</g>
<!-- skeleton&#45;&gt;skeleton/upper&#45;half -->
<g id="edge7" class="edge">
<title>skeleton&#45;&gt;skeleton/upper&#45;half</title>
<path fill="none" stroke="black" d="M668.12,-78.28C697.22,-67.4 741.06,-51.02 775.29,-38.23"/>
<polygon fill="black" stroke="black" points="776.47,-41.52 784.61,-34.74 774.02,-34.96 776.47,-41.52"/>
</g>
</g>
</svg>
