ISO-10303-21;
HEADER;
/* Generated by software containing ST-Developer
 * from STEP Tools, Inc. (www.steptools.com) 
 */

FILE_DESCRIPTION(
/* description */ ('Mirror 40x30x2'),
/* implementation_level */ '2;1');

FILE_NAME(
/* name */ 'BUY - Mirror - 40x30x2.stp',
/* time_stamp */ '2026-08-14T20:10:24+02:00',
/* author */ ('benir'),
/* organization */ (''),
/* preprocessor_version */ 'ST-DEVELOPER v20',
/* originating_system */ 'Autodesk Inventor 2025',
/* authorisation */ '');

FILE_SCHEMA (('AUTOMOTIVE_DESIGN { 1 0 10303 214 3 1 1 }'));
ENDSEC;

DATA;
#10=MECHANICAL_DESIGN_GEOMETRIC_PRESENTATION_REPRESENTATION('',(#100,#101,
#102,#103,#104,#105,#106),#198);
#11=SHAPE_REPRESENTATION_RELATIONSHIP('SRR','None',#205,#12);
#12=ADVANCED_BREP_SHAPE_REPRESENTATION('',(#13),#197);
#13=MANIFOLD_SOLID_BREP('Mirror',#113);
#14=FACE_OUTER_BOUND('',#20,.T.);
#15=FACE_OUTER_BOUND('',#21,.T.);
#16=FACE_OUTER_BOUND('',#22,.T.);
#17=FACE_OUTER_BOUND('',#23,.T.);
#18=FACE_OUTER_BOUND('',#24,.T.);
#19=FACE_OUTER_BOUND('',#25,.T.);
#20=EDGE_LOOP('',(#70,#71,#72,#73));
#21=EDGE_LOOP('',(#74,#75,#76,#77));
#22=EDGE_LOOP('',(#78,#79,#80,#81));
#23=EDGE_LOOP('',(#82,#83,#84,#85));
#24=EDGE_LOOP('',(#86,#87,#88,#89));
#25=EDGE_LOOP('',(#90,#91,#92,#93));
#26=LINE('',#172,#38);
#27=LINE('',#174,#39);
#28=LINE('',#176,#40);
#29=LINE('',#177,#41);
#30=LINE('',#180,#42);
#31=LINE('',#182,#43);
#32=LINE('',#183,#44);
#33=LINE('',#186,#45);
#34=LINE('',#187,#46);
#35=LINE('',#190,#47);
#36=LINE('',#191,#48);
#37=LINE('',#193,#49);
#38=VECTOR('',#146,10.);
#39=VECTOR('',#147,10.);
#40=VECTOR('',#148,10.);
#41=VECTOR('',#149,10.);
#42=VECTOR('',#152,10.);
#43=VECTOR('',#153,10.);
#44=VECTOR('',#154,10.);
#45=VECTOR('',#157,10.);
#46=VECTOR('',#158,10.);
#47=VECTOR('',#161,10.);
#48=VECTOR('',#162,10.);
#49=VECTOR('',#165,10.);
#50=VERTEX_POINT('',#170);
#51=VERTEX_POINT('',#171);
#52=VERTEX_POINT('',#173);
#53=VERTEX_POINT('',#175);
#54=VERTEX_POINT('',#179);
#55=VERTEX_POINT('',#181);
#56=VERTEX_POINT('',#185);
#57=VERTEX_POINT('',#189);
#58=EDGE_CURVE('',#50,#51,#26,.T.);
#59=EDGE_CURVE('',#51,#52,#27,.T.);
#60=EDGE_CURVE('',#52,#53,#28,.T.);
#61=EDGE_CURVE('',#53,#50,#29,.T.);
#62=EDGE_CURVE('',#54,#51,#30,.T.);
#63=EDGE_CURVE('',#55,#54,#31,.T.);
#64=EDGE_CURVE('',#52,#55,#32,.T.);
#65=EDGE_CURVE('',#56,#55,#33,.T.);
#66=EDGE_CURVE('',#53,#56,#34,.T.);
#67=EDGE_CURVE('',#57,#56,#35,.T.);
#68=EDGE_CURVE('',#50,#57,#36,.T.);
#69=EDGE_CURVE('',#54,#57,#37,.T.);
#70=ORIENTED_EDGE('',*,*,#58,.T.);
#71=ORIENTED_EDGE('',*,*,#59,.T.);
#72=ORIENTED_EDGE('',*,*,#60,.T.);
#73=ORIENTED_EDGE('',*,*,#61,.T.);
#74=ORIENTED_EDGE('',*,*,#62,.F.);
#75=ORIENTED_EDGE('',*,*,#63,.F.);
#76=ORIENTED_EDGE('',*,*,#64,.F.);
#77=ORIENTED_EDGE('',*,*,#59,.F.);
#78=ORIENTED_EDGE('',*,*,#64,.T.);
#79=ORIENTED_EDGE('',*,*,#65,.F.);
#80=ORIENTED_EDGE('',*,*,#66,.F.);
#81=ORIENTED_EDGE('',*,*,#60,.F.);
#82=ORIENTED_EDGE('',*,*,#66,.T.);
#83=ORIENTED_EDGE('',*,*,#67,.F.);
#84=ORIENTED_EDGE('',*,*,#68,.F.);
#85=ORIENTED_EDGE('',*,*,#61,.F.);
#86=ORIENTED_EDGE('',*,*,#68,.T.);
#87=ORIENTED_EDGE('',*,*,#69,.F.);
#88=ORIENTED_EDGE('',*,*,#62,.T.);
#89=ORIENTED_EDGE('',*,*,#58,.F.);
#90=ORIENTED_EDGE('',*,*,#69,.T.);
#91=ORIENTED_EDGE('',*,*,#67,.T.);
#92=ORIENTED_EDGE('',*,*,#65,.T.);
#93=ORIENTED_EDGE('',*,*,#63,.T.);
#94=PLANE('',#136);
#95=PLANE('',#137);
#96=PLANE('',#138);
#97=PLANE('',#139);
#98=PLANE('',#140);
#99=PLANE('',#141);
#100=STYLED_ITEM('',(#215),#107);
#101=STYLED_ITEM('',(#215),#108);
#102=STYLED_ITEM('',(#215),#109);
#103=STYLED_ITEM('',(#216),#110);
#104=STYLED_ITEM('',(#215),#111);
#105=STYLED_ITEM('',(#215),#112);
#106=STYLED_ITEM('',(#214),#13);
#107=ADVANCED_FACE('',(#14),#94,.T.);
#108=ADVANCED_FACE('',(#15),#95,.T.);
#109=ADVANCED_FACE('',(#16),#96,.T.);
#110=ADVANCED_FACE('',(#17),#97,.T.);
#111=ADVANCED_FACE('',(#18),#98,.T.);
#112=ADVANCED_FACE('',(#19),#99,.T.);
#113=CLOSED_SHELL('',(#107,#108,#109,#110,#111,#112));
#114=DERIVED_UNIT_ELEMENT(#117,1.);
#115=DERIVED_UNIT_ELEMENT(#200,-3.);
#116=DIMENSIONAL_EXPONENTS(0.,1.,0.,0.,0.,0.,0.);
#117=(
CONVERSION_BASED_UNIT('gram',#119)
MASS_UNIT()
NAMED_UNIT(#116)
);
#118=(
MASS_UNIT()
NAMED_UNIT(*)
SI_UNIT(.KILO.,.GRAM.)
);
#119=MASS_MEASURE_WITH_UNIT(MASS_MEASURE(0.001),#118);
#120=DERIVED_UNIT((#114,#115));
#121=MEASURE_REPRESENTATION_ITEM('density measure',
POSITIVE_RATIO_MEASURE(2.18),#120);
#122=PROPERTY_DEFINITION_REPRESENTATION(#127,#124);
#123=PROPERTY_DEFINITION_REPRESENTATION(#128,#125);
#124=REPRESENTATION('material name',(#126),#197);
#125=REPRESENTATION('density',(#121),#197);
#126=DESCRIPTIVE_REPRESENTATION_ITEM('Glass','Glass');
#127=PROPERTY_DEFINITION('material property','material name',#207);
#128=PROPERTY_DEFINITION('material property','density of part',#207);
#129=DATE_TIME_ROLE('creation_date');
#130=APPLIED_DATE_AND_TIME_ASSIGNMENT(#131,#129,(#207));
#131=DATE_AND_TIME(#132,#133);
#132=CALENDAR_DATE(2024,9,12);
#133=LOCAL_TIME(0,0,0.,#134);
#134=COORDINATED_UNIVERSAL_TIME_OFFSET(0,0,.BEHIND.);
#135=AXIS2_PLACEMENT_3D('',#168,#142,#143);
#136=AXIS2_PLACEMENT_3D('',#169,#144,#145);
#137=AXIS2_PLACEMENT_3D('',#178,#150,#151);
#138=AXIS2_PLACEMENT_3D('',#184,#155,#156);
#139=AXIS2_PLACEMENT_3D('',#188,#159,#160);
#140=AXIS2_PLACEMENT_3D('',#192,#163,#164);
#141=AXIS2_PLACEMENT_3D('',#194,#166,#167);
#142=DIRECTION('axis',(0.,0.,1.));
#143=DIRECTION('refdir',(1.,0.,0.));
#144=DIRECTION('center_axis',(0.,0.,-1.));
#145=DIRECTION('ref_axis',(-1.,0.,0.));
#146=DIRECTION('',(0.70710678118655,-0.707106781186545,0.));
#147=DIRECTION('',(-0.707106781186547,-0.707106781186548,0.));
#148=DIRECTION('',(-0.707106781186551,0.707106781186544,0.));
#149=DIRECTION('',(0.707106781186548,0.707106781186547,0.));
#150=DIRECTION('center_axis',(0.707106781186548,-0.707106781186547,0.));
#151=DIRECTION('ref_axis',(0.707106781186547,0.707106781186548,0.));
#152=DIRECTION('',(0.,0.,-1.));
#153=DIRECTION('',(0.707106781186547,0.707106781186548,0.));
#154=DIRECTION('',(0.,0.,1.));
#155=DIRECTION('center_axis',(-0.707106781186544,-0.707106781186551,0.));
#156=DIRECTION('ref_axis',(0.707106781186551,-0.707106781186544,0.));
#157=DIRECTION('',(0.707106781186551,-0.707106781186544,0.));
#158=DIRECTION('',(0.,0.,1.));
#159=DIRECTION('center_axis',(-0.707106781186547,0.707106781186548,0.));
#160=DIRECTION('ref_axis',(-0.707106781186548,-0.707106781186547,0.));
#161=DIRECTION('',(-0.707106781186548,-0.707106781186547,0.));
#162=DIRECTION('',(0.,0.,1.));
#163=DIRECTION('center_axis',(0.707106781186545,0.70710678118655,0.));
#164=DIRECTION('ref_axis',(-0.70710678118655,0.707106781186545,0.));
#165=DIRECTION('',(-0.70710678118655,0.707106781186545,0.));
#166=DIRECTION('center_axis',(0.,0.,1.));
#167=DIRECTION('ref_axis',(1.,0.,0.));
#168=CARTESIAN_POINT('',(0.,0.,0.));
#169=CARTESIAN_POINT('Origin',(-0.707106781186559,0.707106781186542,-15.));
#170=CARTESIAN_POINT('',(12.7279220613579,15.556349186104,-15.));
#171=CARTESIAN_POINT('',(14.1421356237309,14.142135623731,-15.));
#172=CARTESIAN_POINT('',(14.1421356237309,14.142135623731,-15.));
#173=CARTESIAN_POINT('',(-14.1421356237309,-14.142135623731,-15.));
#174=CARTESIAN_POINT('',(-14.1421356237309,-14.142135623731,-15.));
#175=CARTESIAN_POINT('',(-15.5563491861041,-12.7279220613579,-15.));
#176=CARTESIAN_POINT('',(-15.5563491861041,-12.7279220613579,-15.));
#177=CARTESIAN_POINT('',(13.0814754519511,15.9099025766973,-15.));
#178=CARTESIAN_POINT('Origin',(-14.1421356237309,-14.142135623731,0.));
#179=CARTESIAN_POINT('',(14.1421356237309,14.142135623731,15.));
#180=CARTESIAN_POINT('',(14.1421356237309,14.142135623731,0.));
#181=CARTESIAN_POINT('',(-14.1421356237309,-14.142135623731,15.));
#182=CARTESIAN_POINT('',(-14.1421356237309,-14.142135623731,15.));
#183=CARTESIAN_POINT('',(-14.1421356237309,-14.142135623731,0.));
#184=CARTESIAN_POINT('Origin',(-15.5563491861041,-12.7279220613579,0.));
#185=CARTESIAN_POINT('',(-15.5563491861041,-12.7279220613579,15.));
#186=CARTESIAN_POINT('',(-15.5563491861041,-12.7279220613579,15.));
#187=CARTESIAN_POINT('',(-15.5563491861041,-12.7279220613579,0.));
#188=CARTESIAN_POINT('Origin',(12.7279220613579,15.556349186104,0.));
#189=CARTESIAN_POINT('',(12.7279220613579,15.556349186104,15.));
#190=CARTESIAN_POINT('',(13.0814754519511,15.9099025766973,15.));
#191=CARTESIAN_POINT('',(12.7279220613579,15.556349186104,0.));
#192=CARTESIAN_POINT('Origin',(14.1421356237309,14.142135623731,0.));
#193=CARTESIAN_POINT('',(14.1421356237309,14.142135623731,15.));
#194=CARTESIAN_POINT('Origin',(-0.707106781186559,0.707106781186542,15.));
#195=UNCERTAINTY_MEASURE_WITH_UNIT(LENGTH_MEASURE(0.01),#199,
'DISTANCE_ACCURACY_VALUE',
'Maximum model space distance between geometric entities at asserted c
onnectivities');
#196=UNCERTAINTY_MEASURE_WITH_UNIT(LENGTH_MEASURE(0.01),#199,
'DISTANCE_ACCURACY_VALUE',
'Maximum model space distance between geometric entities at asserted c
onnectivities');
#197=(
GEOMETRIC_REPRESENTATION_CONTEXT(3)
GLOBAL_UNCERTAINTY_ASSIGNED_CONTEXT((#195))
GLOBAL_UNIT_ASSIGNED_CONTEXT((#199,#201,#202))
REPRESENTATION_CONTEXT('','3D')
);
#198=(
GEOMETRIC_REPRESENTATION_CONTEXT(3)
GLOBAL_UNCERTAINTY_ASSIGNED_CONTEXT((#196))
GLOBAL_UNIT_ASSIGNED_CONTEXT((#199,#201,#202))
REPRESENTATION_CONTEXT('','3D')
);
#199=(
LENGTH_UNIT()
NAMED_UNIT(*)
SI_UNIT(.MILLI.,.METRE.)
);
#200=(
LENGTH_UNIT()
NAMED_UNIT(*)
SI_UNIT(.CENTI.,.METRE.)
);
#201=(
NAMED_UNIT(*)
PLANE_ANGLE_UNIT()
SI_UNIT($,.RADIAN.)
);
#202=(
NAMED_UNIT(*)
SI_UNIT($,.STERADIAN.)
SOLID_ANGLE_UNIT()
);
#203=SHAPE_DEFINITION_REPRESENTATION(#204,#205);
#204=PRODUCT_DEFINITION_SHAPE('',$,#207);
#205=SHAPE_REPRESENTATION('',(#135),#197);
#206=PRODUCT_DEFINITION_CONTEXT('part definition',#211,'design');
#207=PRODUCT_DEFINITION('BUY - Mirror - 40x30x2',
'BUY - Mirror - 40x30x2',#208,#206);
#208=PRODUCT_DEFINITION_FORMATION('',$,#213);
#209=PRODUCT_RELATED_PRODUCT_CATEGORY('BUY - Mirror - 40x30x2',
'BUY - Mirror - 40x30x2',(#213));
#210=APPLICATION_PROTOCOL_DEFINITION('international standard',
'automotive_design',2009,#211);
#211=APPLICATION_CONTEXT(
'Core Data for Automotive Mechanical Design Process');
#212=PRODUCT_CONTEXT('part definition',#211,'mechanical');
#213=PRODUCT('BUY - Mirror - 40x30x2','BUY - Mirror - 40x30x2',
'Mirror 40x30x2',(#212));
#214=PRESENTATION_STYLE_ASSIGNMENT((#217));
#215=PRESENTATION_STYLE_ASSIGNMENT((#218));
#216=PRESENTATION_STYLE_ASSIGNMENT((#219));
#217=SURFACE_STYLE_USAGE(.BOTH.,#226);
#218=SURFACE_STYLE_USAGE(.BOTH.,#227);
#219=SURFACE_STYLE_USAGE(.BOTH.,#228);
#220=SURFACE_STYLE_RENDERING_WITH_PROPERTIES($,#238,(#223));
#221=SURFACE_STYLE_RENDERING_WITH_PROPERTIES($,#239,(#224));
#222=SURFACE_STYLE_RENDERING_WITH_PROPERTIES($,#240,(#225));
#223=SURFACE_STYLE_TRANSPARENT(0.339999973773956);
#224=SURFACE_STYLE_TRANSPARENT(0.480000019073486);
#225=SURFACE_STYLE_TRANSPARENT(0.);
#226=SURFACE_SIDE_STYLE('',(#229,#220));
#227=SURFACE_SIDE_STYLE('',(#230,#221));
#228=SURFACE_SIDE_STYLE('',(#231,#222));
#229=SURFACE_STYLE_FILL_AREA(#232);
#230=SURFACE_STYLE_FILL_AREA(#233);
#231=SURFACE_STYLE_FILL_AREA(#234);
#232=FILL_AREA_STYLE('',(#235));
#233=FILL_AREA_STYLE('',(#236));
#234=FILL_AREA_STYLE('',(#237));
#235=FILL_AREA_STYLE_COLOUR('',#238);
#236=FILL_AREA_STYLE_COLOUR('',#239);
#237=FILL_AREA_STYLE_COLOUR('',#240);
#238=COLOUR_RGB('',0.925490196078431,0.945098039215686,0.937254901960784);
#239=COLOUR_RGB('',0.831372549019608,0.811764705882353,0.);
#240=COLOUR_RGB('',0.0196078431372549,0.0196078431372549,0.0196078431372549);
ENDSEC;
END-ISO-10303-21;
