<?xml version="1.0" encoding="UTF-8" standalone="no"?>
<!DOCTYPE svg PUBLIC "-//W3C//DTD SVG 1.1//EN"
 "http://www.w3.org/Graphics/SVG/1.1/DTD/svg11.dtd">
<!-- Generated by graphviz version 12.1.2 (20240928.0832)
 -->
<!-- Pages: 1 -->
<svg width="545pt" height="206pt"
 viewBox="0.00 0.00 545.23 205.80" xmlns="http://www.w3.org/2000/svg" xmlns:xlink="http://www.w3.org/1999/xlink">
<g id="graph0" class="graph" transform="scale(1 1) rotate(0) translate(4 201.8)">
<polygon fill="white" stroke="none" points="-4,4 -4,-201.8 541.23,-201.8 541.23,4 -4,4"/>
<g id="node1" class="node">
<title></title>
<ellipse fill="none" stroke="black" cx="261.98" cy="-179.8" rx="27" ry="18"/>
</g>
<!-- mounted&#45;mirror -->
<g id="node2" class="node">
<title>mounted&#45;mirror</title>
<ellipse fill="none" stroke="black" cx="187.98" cy="-91" rx="72.72" ry="18"/>
<text text-anchor="middle" x="187.98" y="-86.8" font-family="Times,serif" font-size="14.00">mounted&#45;mirror</text>
</g>
<!-- &#45;&gt;mounted&#45;mirror -->
<g id="edge1" class="edge">
<title>&#45;&gt;mounted&#45;mirror</title>
<path fill="none" stroke="black" d="M245.52,-165.26C238.42,-159.06 230.25,-151.41 223.61,-143.8 216.81,-135.99 210.15,-126.86 204.47,-118.45"/>
<polygon fill="black" stroke="black" points="207.54,-116.75 199.13,-110.31 201.69,-120.59 207.54,-116.75"/>
<text text-anchor="middle" x="279.8" y="-131.2" font-family="Times,serif" font-size="14.00">mounted&#45;mirror.dsn</text>
</g>
<!-- skeleton -->
<g id="node6" class="node">
<title>skeleton</title>
<ellipse fill="none" stroke="black" cx="364.98" cy="-91" rx="43.22" ry="18"/>
<text text-anchor="middle" x="364.98" y="-86.8" font-family="Times,serif" font-size="14.00">skeleton</text>
</g>
<!-- &#45;&gt;skeleton -->
<g id="edge2" class="edge">
<title>&#45;&gt;skeleton</title>
<path fill="none" stroke="black" d="M286.55,-171.51C302.15,-165.91 321.96,-156.89 335.98,-143.8 343.26,-137 349.18,-127.95 353.73,-119.31"/>
<polygon fill="black" stroke="black" points="356.77,-121.06 357.94,-110.53 350.46,-118.04 356.77,-121.06"/>
<text text-anchor="middle" x="429.76" y="-131.2" font-family="Times,serif" font-size="14.00">primitives/cube&#45;skeleton.dsn</text>
</g>
<!-- mounted&#45;mirror/adhesive&#45;pad -->
<g id="node3" class="node">
<title>mounted&#45;mirror/adhesive&#45;pad</title>
<ellipse fill="none" stroke="black" cx="61.98" cy="-18" rx="61.98" ry="18"/>
<text text-anchor="middle" x="61.98" y="-13.8" font-family="Times,serif" font-size="14.00">adhesive&#45;pad</text>
</g>
<!-- mounted&#45;mirror&#45;&gt;mounted&#45;mirror/adhesive&#45;pad -->
<g id="edge3" class="edge">
<title>mounted&#45;mirror&#45;&gt;mounted&#45;mirror/adhesive&#45;pad</title>
<path fill="none" stroke="black" d="M159.7,-74.07C141.87,-64.02 118.63,-50.92 99.29,-40.03"/>
<polygon fill="black" stroke="black" points="101.05,-37 90.62,-35.14 97.61,-43.09 101.05,-37"/>
</g>
<!-- mounted&#45;mirror/insert -->
<g id="node4" class="node">
<title>mounted&#45;mirror/insert</title>
<ellipse fill="none" stroke="black" cx="173.98" cy="-18" rx="32.49" ry="18"/>
<text text-anchor="middle" x="173.98" y="-13.8" font-family="Times,serif" font-size="14.00">insert</text>
</g>
<!-- mounted&#45;mirror&#45;&gt;mounted&#45;mirror/insert -->
<g id="edge4" class="edge">
<title>mounted&#45;mirror&#45;&gt;mounted&#45;mirror/insert</title>
<path fill="none" stroke="black" d="M184.59,-72.81C183.08,-65.14 181.26,-55.89 179.55,-47.24"/>
<polygon fill="black" stroke="black" points="183,-46.65 177.63,-37.51 176.13,-48 183,-46.65"/>
</g>
<!-- mounted&#45;mirror/mirror -->
<g id="node5" class="node">
<title>mounted&#45;mirror/mirror</title>
<ellipse fill="none" stroke="black" cx="259.98" cy="-18" rx="35.71" ry="18"/>
<text text-anchor="middle" x="259.98" y="-13.8" font-family="Times,serif" font-size="14.00">mirror</text>
</g>
<!-- mounted&#45;mirror&#45;&gt;mounted&#45;mirror/mirror -->
<g id="edge5" class="edge">
<title>mounted&#45;mirror&#45;&gt;mounted&#45;mirror/mirror</title>
<path fill="none" stroke="black" d="M205.04,-73.17C214.4,-63.95 226.14,-52.37 236.37,-42.29"/>
<polygon fill="black" stroke="black" points="238.77,-44.83 243.44,-35.32 233.86,-39.85 238.77,-44.83"/>
</g>
<!-- skeleton/lower&#45;half -->
<g id="node7" class="node">
<title>skeleton/lower&#45;half</title>
<ellipse fill="none" stroke="black" cx="364.98" cy="-18" rx="51.25" ry="18"/>
<text text-anchor="middle" x="364.98" y="-13.8" font-family="Times,serif" font-size="14.00">lower&#45;half</text>
</g>
<!-- skeleton&#45;&gt;skeleton/lower&#45;half -->
<g id="edge6" class="edge">
<title>skeleton&#45;&gt;skeleton/lower&#45;half</title>
<path fill="none" stroke="black" d="M364.98,-72.81C364.98,-65.23 364.98,-56.1 364.98,-47.54"/>
<polygon fill="black" stroke="black" points="368.48,-47.54 364.98,-37.54 361.48,-47.54 368.48,-47.54"/>
</g>
<!-- skeleton/upper&#45;half -->
<g id="node8" class="node">
<title>skeleton/upper&#45;half</title>
<ellipse fill="none" stroke="black" cx="485.98" cy="-18" rx="51.25" ry="18"/>
<text text-anchor="middle" x="485.98" y="-13.8" font-family="Times,serif" font-size="14.00">upper&#45;half</text>
</g>
<!-- skeleton&#45;&gt;skeleton/upper&#45;half -->
<g id="edge7" class="edge">
<title>skeleton&#45;&gt;skeleton/upper&#45;half</title>
<path fill="none" stroke="black" d="M389.18,-75.8C406.79,-65.46 430.93,-51.3 450.7,-39.7"/>
<polygon fill="black" stroke="black" points="452.42,-42.75 459.27,-34.67 448.87,-36.72 452.42,-42.75"/>
</g>
</g>
</svg>
