<?xml version="1.0" encoding="UTF-8" standalone="no"?>
<!DOCTYPE svg PUBLIC "-//W3C//DTD SVG 1.1//EN"
 "http://www.w3.org/Graphics/SVG/1.1/DTD/svg11.dtd">
<!-- Generated by graphviz version 12.1.2 (20240928.0832)
 -->
<!-- Pages: 1 -->
<svg width="232pt" height="116pt"
 viewBox="0.00 0.00 231.51 116.00" xmlns="http://www.w3.org/2000/svg" xmlns:xlink="http://www.w3.org/1999/xlink">
<g id="graph0" class="graph" transform="scale(1 1) rotate(0) translate(4 112)">
<polygon fill="white" stroke="none" points="-4,4 -4,-112 227.51,-112 227.51,4 -4,4"/>
<g id="node1" class="node">
<title></title>
<ellipse fill="none" stroke="black" cx="111.25" cy="-90" rx="27" ry="18"/>
</g>
<!-- lower&#45;half -->
<g id="node2" class="node">
<title>lower&#45;half</title>
<ellipse fill="none" stroke="black" cx="51.25" cy="-18" rx="51.25" ry="18"/>
<text text-anchor="middle" x="51.25" y="-13.8" font-family="Times,serif" font-size="14.00">lower&#45;half</text>
</g>
<!-- &#45;&gt;lower&#45;half -->
<g id="edge1" class="edge">
<title>&#45;&gt;lower&#45;half</title>
<path fill="none" stroke="black" d="M98.23,-73.81C90.85,-65.19 81.41,-54.18 72.93,-44.29"/>
<polygon fill="black" stroke="black" points="75.66,-42.09 66.49,-36.78 70.34,-46.65 75.66,-42.09"/>
</g>
<!-- upper&#45;half -->
<g id="node3" class="node">
<title>upper&#45;half</title>
<ellipse fill="none" stroke="black" cx="172.25" cy="-18" rx="51.25" ry="18"/>
<text text-anchor="middle" x="172.25" y="-13.8" font-family="Times,serif" font-size="14.00">upper&#45;half</text>
</g>
<!-- &#45;&gt;upper&#45;half -->
<g id="edge2" class="edge">
<title>&#45;&gt;upper&#45;half</title>
<path fill="none" stroke="black" d="M124.49,-73.81C132,-65.19 141.6,-54.18 150.21,-44.29"/>
<polygon fill="black" stroke="black" points="152.84,-46.61 156.77,-36.77 147.56,-42.01 152.84,-46.61"/>
</g>
</g>
</svg>
