<?xml version="1.0" encoding="UTF-8" standalone="no"?>
<!DOCTYPE svg PUBLIC "-//W3C//DTD SVG 1.1//EN"
 "http://www.w3.org/Graphics/SVG/1.1/DTD/svg11.dtd">
<!-- Generated by graphviz version 12.1.2 (20240928.0832)
 -->
<!-- Pages: 1 -->
<svg width="4562pt" height="310pt"
 viewBox="0.00 0.00 4561.53 310.40" xmlns="http://www.w3.org/2000/svg" xmlns:xlink="http://www.w3.org/1999/xlink">
<g id="graph0" class="graph" transform="scale(1 1) rotate(0) translate(4 306.4)">
<polygon fill="white" stroke="none" points="-4,4 -4,-306.4 4557.53,-306.4 4557.53,4 -4,4"/>
<g id="node1" class="node">
<title></title>
<ellipse fill="none" stroke="black" cx="2828.43" cy="-284.4" rx="27" ry="18"/>
</g>
<!-- cube&#45;mounted/lens.dsn:x -->
<g id="node4" class="node">
<title>cube&#45;mounted/lens.dsn:x</title>
<ellipse fill="none" stroke="black" cx="285.43" cy="-195.6" rx="107.86" ry="18"/>
<text text-anchor="middle" x="285.43" y="-191.4" font-family="Times,serif" font-size="14.00">cube&#45;mounted/lens.dsn:x</text>
</g>
<!-- &#45;&gt;cube&#45;mounted/lens.dsn:x -->
<g id="edge1" class="edge">
<title>&#45;&gt;cube&#45;mounted/lens.dsn:x</title>
<path fill="none" stroke="black" d="M2801.18,-283.48C2553.26,-284.17 692.03,-288 448.45,-248.4 409.65,-242.09 367.38,-228.45 335.61,-216.75"/>
<polygon fill="black" stroke="black" points="336.84,-213.48 326.25,-213.24 334.38,-220.03 336.84,-213.48"/>
<text text-anchor="middle" x="490.44" y="-235.8" font-family="Times,serif" font-size="14.00">lens&#45;galvo&#45;160</text>
</g>
<!-- cube&#45;mounted/mirror&#45;diagonal.dsn:_z -->
<g id="node7" class="node">
<title>cube&#45;mounted/mirror&#45;diagonal.dsn:_z</title>
<ellipse fill="none" stroke="black" cx="569.43" cy="-195.6" rx="157.72" ry="18"/>
<text text-anchor="middle" x="569.43" y="-191.4" font-family="Times,serif" font-size="14.00">cube&#45;mounted/mirror&#45;diagonal.dsn:_z</text>
</g>
<!-- &#45;&gt;cube&#45;mounted/mirror&#45;diagonal.dsn:_z -->
<g id="edge2" class="edge">
<title>&#45;&gt;cube&#45;mounted/mirror&#45;diagonal.dsn:_z</title>
<path fill="none" stroke="black" d="M2801.01,-283.24C2543.68,-281.75 561.76,-269.57 540.91,-248.4 533.57,-240.94 536.6,-231.2 542.91,-222.18"/>
<polygon fill="black" stroke="black" points="545.43,-224.63 549.09,-214.69 540.03,-220.18 545.43,-224.63"/>
<text text-anchor="middle" x="580.17" y="-235.8" font-family="Times,serif" font-size="14.00">cube&#45;45&#45;fixed</text>
</g>
<!-- primitives/cube&#45;skeleton.dsn -->
<g id="node8" class="node">
<title>primitives/cube&#45;skeleton.dsn</title>
<ellipse fill="none" stroke="black" cx="1459.43" cy="-195.6" rx="122.34" ry="18"/>
<text text-anchor="middle" x="1459.43" y="-191.4" font-family="Times,serif" font-size="14.00">primitives/cube&#45;skeleton.dsn</text>
</g>
<!-- &#45;&gt;primitives/cube&#45;skeleton.dsn -->
<g id="edge3" class="edge">
<title>&#45;&gt;primitives/cube&#45;skeleton.dsn</title>
<path fill="none" stroke="black" d="M2801.14,-283.5C2551.18,-284.31 667.83,-289.08 627.79,-248.4 622.55,-243.08 622.62,-236.99 627.79,-231.6 651.52,-206.85 1097.18,-199.56 1326.1,-197.45"/>
<polygon fill="black" stroke="black" points="1326.03,-200.95 1335.99,-197.36 1325.96,-193.95 1326.03,-200.95"/>
<text text-anchor="middle" x="665.11" y="-235.8" font-family="Times,serif" font-size="14.00">scaffolding&#45;1</text>
</g>
<!-- &#45;&gt;primitives/cube&#45;skeleton.dsn -->
<g id="edge4" class="edge">
<title>&#45;&gt;primitives/cube&#45;skeleton.dsn</title>
<path fill="none" stroke="black" d="M2801.22,-283.47C2557.88,-284.08 763.97,-287.22 725.79,-248.4 720.55,-243.08 720.64,-237 725.79,-231.6 746.15,-210.24 1120.71,-201.47 1326.55,-198.25"/>
<polygon fill="black" stroke="black" points="1326.58,-201.75 1336.53,-198.1 1326.48,-194.75 1326.58,-201.75"/>
<text text-anchor="middle" x="766.61" y="-235.8" font-family="Times,serif" font-size="14.00">scaffolding&#45;10</text>
</g>
<!-- &#45;&gt;primitives/cube&#45;skeleton.dsn -->
<g id="edge5" class="edge">
<title>&#45;&gt;primitives/cube&#45;skeleton.dsn</title>
<path fill="none" stroke="black" d="M2801.1,-283.45C2564.26,-283.83 866.97,-285.22 830.79,-248.4 825.56,-243.07 825.66,-237.02 830.79,-231.6 847.6,-213.83 1148.37,-203.8 1327.69,-199.37"/>
<polygon fill="black" stroke="black" points="1327.64,-202.87 1337.55,-199.13 1327.46,-195.87 1327.64,-202.87"/>
<text text-anchor="middle" x="871.61" y="-235.8" font-family="Times,serif" font-size="14.00">scaffolding&#45;11</text>
</g>
<!-- &#45;&gt;primitives/cube&#45;skeleton.dsn -->
<g id="edge6" class="edge">
<title>&#45;&gt;primitives/cube&#45;skeleton.dsn</title>
<path fill="none" stroke="black" d="M2801.11,-283.42C2571.39,-283.56 969.98,-283.23 935.79,-248.4 930.56,-243.07 930.69,-237.05 935.79,-231.6 961.93,-203.65 1179.27,-197.31 1325.61,-196.26"/>
<polygon fill="black" stroke="black" points="1325.4,-199.76 1335.38,-196.19 1325.36,-192.76 1325.4,-199.76"/>
<text text-anchor="middle" x="976.61" y="-235.8" font-family="Times,serif" font-size="14.00">scaffolding&#45;12</text>
</g>
<!-- &#45;&gt;primitives/cube&#45;skeleton.dsn -->
<g id="edge7" class="edge">
<title>&#45;&gt;primitives/cube&#45;skeleton.dsn</title>
<path fill="none" stroke="black" d="M2801.24,-283.39C2579.29,-283.27 1073,-281.25 1040.79,-248.4 1035.56,-243.07 1035.74,-237.1 1040.79,-231.6 1060.07,-210.64 1211.63,-202.23 1326.9,-198.86"/>
<polygon fill="black" stroke="black" points="1326.88,-202.36 1336.78,-198.58 1326.68,-195.36 1326.88,-202.36"/>
<text text-anchor="middle" x="1081.61" y="-235.8" font-family="Times,serif" font-size="14.00">scaffolding&#45;13</text>
</g>
<!-- &#45;&gt;primitives/cube&#45;skeleton.dsn -->
<g id="edge8" class="edge">
<title>&#45;&gt;primitives/cube&#45;skeleton.dsn</title>
<path fill="none" stroke="black" d="M2801.16,-283.36C2586.46,-282.97 1176.01,-279.26 1145.79,-248.4 1116.69,-218.69 1230.53,-206.01 1329.11,-200.6"/>
<polygon fill="black" stroke="black" points="1329.11,-204.11 1338.92,-200.09 1328.75,-197.12 1329.11,-204.11"/>
<text text-anchor="middle" x="1186.61" y="-235.8" font-family="Times,serif" font-size="14.00">scaffolding&#45;14</text>
</g>
<!-- &#45;&gt;primitives/cube&#45;skeleton.dsn -->
<g id="edge9" class="edge">
<title>&#45;&gt;primitives/cube&#45;skeleton.dsn</title>
<path fill="none" stroke="black" d="M2801.24,-283.32C2594.57,-282.65 1279.03,-277.27 1250.79,-248.4 1245.57,-243.06 1245.97,-237.3 1250.79,-231.6 1262.69,-217.53 1297.32,-209.12 1335.03,-204.08"/>
<polygon fill="black" stroke="black" points="1335.27,-207.58 1344.77,-202.87 1334.41,-200.63 1335.27,-207.58"/>
<text text-anchor="middle" x="1291.61" y="-235.8" font-family="Times,serif" font-size="14.00">scaffolding&#45;15</text>
</g>
<!-- &#45;&gt;primitives/cube&#45;skeleton.dsn -->
<g id="edge10" class="edge">
<title>&#45;&gt;primitives/cube&#45;skeleton.dsn</title>
<path fill="none" stroke="black" d="M2801.18,-283.28C2602.34,-282.31 1382.05,-275.29 1355.79,-248.4 1341.35,-233.62 1355.19,-222.35 1376.94,-214.17"/>
<polygon fill="black" stroke="black" points="1377.99,-217.51 1386.35,-211 1375.76,-210.88 1377.99,-217.51"/>
<text text-anchor="middle" x="1396.61" y="-235.8" font-family="Times,serif" font-size="14.00">scaffolding&#45;16</text>
</g>
<!-- &#45;&gt;primitives/cube&#45;skeleton.dsn -->
<g id="edge11" class="edge">
<title>&#45;&gt;primitives/cube&#45;skeleton.dsn</title>
<path fill="none" stroke="black" d="M2801.03,-283.22C2610.09,-281.88 1485.39,-272.98 1460.79,-248.4 1454.75,-242.37 1453,-233.69 1453.19,-225.16"/>
<polygon fill="black" stroke="black" points="1456.66,-225.7 1454.27,-215.38 1449.7,-224.94 1456.66,-225.7"/>
<text text-anchor="middle" x="1501.61" y="-235.8" font-family="Times,serif" font-size="14.00">scaffolding&#45;17</text>
</g>
<!-- &#45;&gt;primitives/cube&#45;skeleton.dsn -->
<g id="edge12" class="edge">
<title>&#45;&gt;primitives/cube&#45;skeleton.dsn</title>
<path fill="none" stroke="black" d="M2800.96,-283.6C2627.4,-284.76 1686.43,-289.13 1565.79,-248.4 1553.67,-244.31 1553.58,-237.86 1542.43,-231.6 1533.32,-226.49 1523.31,-221.66 1513.49,-217.31"/>
<polygon fill="black" stroke="black" points="1514.92,-214.12 1504.35,-213.39 1512.16,-220.55 1514.92,-214.12"/>
<text text-anchor="middle" x="1603.11" y="-235.8" font-family="Times,serif" font-size="14.00">scaffolding&#45;2</text>
</g>
<!-- &#45;&gt;primitives/cube&#45;skeleton.dsn -->
<g id="edge13" class="edge">
<title>&#45;&gt;primitives/cube&#45;skeleton.dsn</title>
<path fill="none" stroke="black" d="M2800.99,-283.53C2635.54,-284.22 1774.55,-285.94 1663.79,-248.4 1651.68,-244.3 1652.17,-236.67 1640.43,-231.6 1617.14,-221.55 1590.91,-214.37 1565.81,-209.24"/>
<polygon fill="black" stroke="black" points="1566.72,-205.85 1556.24,-207.39 1565.39,-212.73 1566.72,-205.85"/>
<text text-anchor="middle" x="1701.11" y="-235.8" font-family="Times,serif" font-size="14.00">scaffolding&#45;3</text>
</g>
<!-- &#45;&gt;primitives/cube&#45;skeleton.dsn -->
<g id="edge14" class="edge">
<title>&#45;&gt;primitives/cube&#45;skeleton.dsn</title>
<path fill="none" stroke="black" d="M2801.04,-283.45C2644.11,-283.63 1862.7,-282.76 1761.79,-248.4 1749.69,-244.28 1750.34,-236.27 1738.43,-231.6 1709.44,-220.22 1640.05,-211.49 1577.72,-205.59"/>
<polygon fill="black" stroke="black" points="1578.37,-202.14 1568.09,-204.7 1577.72,-209.11 1578.37,-202.14"/>
<text text-anchor="middle" x="1799.11" y="-235.8" font-family="Times,serif" font-size="14.00">scaffolding&#45;4</text>
</g>
<!-- &#45;&gt;primitives/cube&#45;skeleton.dsn -->
<g id="edge15" class="edge">
<title>&#45;&gt;primitives/cube&#45;skeleton.dsn</title>
<path fill="none" stroke="black" d="M2801.42,-283.36C2654.11,-282.99 1950.94,-279.6 1859.79,-248.4 1847.69,-244.26 1848.41,-236.08 1836.43,-231.6 1792.26,-215.07 1679.13,-206.07 1588.24,-201.36"/>
<polygon fill="black" stroke="black" points="1588.67,-197.88 1578.5,-200.87 1588.31,-204.87 1588.67,-197.88"/>
<text text-anchor="middle" x="1897.11" y="-235.8" font-family="Times,serif" font-size="14.00">scaffolding&#45;5</text>
</g>
<!-- &#45;&gt;primitives/cube&#45;skeleton.dsn -->
<g id="edge16" class="edge">
<title>&#45;&gt;primitives/cube&#45;skeleton.dsn</title>
<path fill="none" stroke="black" d="M2801.03,-283.23C2662.11,-282.27 2039.04,-276.4 1957.79,-248.4 1945.7,-244.23 1946.45,-235.97 1934.43,-231.6 1873.78,-209.56 1710.5,-201.39 1592.29,-198.36"/>
<polygon fill="black" stroke="black" points="1592.59,-194.87 1582.51,-198.12 1592.42,-201.87 1592.59,-194.87"/>
<text text-anchor="middle" x="1995.11" y="-235.8" font-family="Times,serif" font-size="14.00">scaffolding&#45;6</text>
</g>
<!-- &#45;&gt;primitives/cube&#45;skeleton.dsn -->
<g id="edge17" class="edge">
<title>&#45;&gt;primitives/cube&#45;skeleton.dsn</title>
<path fill="none" stroke="black" d="M2801.19,-283.09C2672.33,-281.48 2127.3,-273.24 2055.79,-248.4 2043.71,-244.2 2044.48,-235.89 2032.43,-231.6 1954.56,-203.86 1737.02,-197.37 1593.51,-196.24"/>
<polygon fill="black" stroke="black" points="1593.55,-192.74 1583.53,-196.17 1593.51,-199.74 1593.55,-192.74"/>
<text text-anchor="middle" x="2093.11" y="-235.8" font-family="Times,serif" font-size="14.00">scaffolding&#45;7</text>
</g>
<!-- &#45;&gt;primitives/cube&#45;skeleton.dsn -->
<g id="edge18" class="edge">
<title>&#45;&gt;primitives/cube&#45;skeleton.dsn</title>
<path fill="none" stroke="black" d="M2801.17,-282.89C2682.66,-280.57 2215.55,-270.09 2153.79,-248.4 2141.72,-244.16 2142.5,-235.84 2130.43,-231.6 2081.14,-214.28 1772.2,-204.06 1591.18,-199.49"/>
<polygon fill="black" stroke="black" points="1591.31,-195.99 1581.23,-199.24 1591.14,-202.99 1591.31,-195.99"/>
<text text-anchor="middle" x="2191.11" y="-235.8" font-family="Times,serif" font-size="14.00">scaffolding&#45;8</text>
</g>
<!-- &#45;&gt;primitives/cube&#45;skeleton.dsn -->
<g id="edge19" class="edge">
<title>&#45;&gt;primitives/cube&#45;skeleton.dsn</title>
<path fill="none" stroke="black" d="M2801.32,-283.08C2703.25,-281.71 2367.33,-275.14 2263.79,-248.4 2246.94,-244.05 2245.31,-235.81 2228.43,-231.6 2112.08,-202.57 1780.96,-197.04 1593.35,-196.33"/>
<polygon fill="black" stroke="black" points="1593.56,-192.83 1583.55,-196.3 1593.54,-199.83 1593.56,-192.83"/>
<text text-anchor="middle" x="2301.11" y="-235.8" font-family="Times,serif" font-size="14.00">scaffolding&#45;9</text>
</g>
<!-- primitives/hikcamera&#45;with&#45;objective.dsn -->
<g id="node9" class="node">
<title>primitives/hikcamera&#45;with&#45;objective.dsn</title>
<ellipse fill="none" stroke="black" cx="2348.43" cy="-195.6" rx="167.91" ry="18"/>
<text text-anchor="middle" x="2348.43" y="-191.4" font-family="Times,serif" font-size="14.00">primitives/hikcamera&#45;with&#45;objective.dsn</text>
</g>
<!-- &#45;&gt;primitives/hikcamera&#45;with&#45;objective.dsn -->
<g id="edge20" class="edge">
<title>&#45;&gt;primitives/hikcamera&#45;with&#45;objective.dsn</title>
<path fill="none" stroke="black" d="M2800.98,-283.49C2703.89,-283.54 2380.79,-281.21 2349.6,-248.4 2343.72,-242.21 2342.03,-233.5 2342.25,-224.98"/>
<polygon fill="black" stroke="black" points="2345.7,-225.57 2343.33,-215.24 2338.75,-224.79 2345.7,-225.57"/>
<text text-anchor="middle" x="2386.51" y="-235.8" font-family="Times,serif" font-size="14.00">camera&#45;basic</text>
</g>
<!-- primitives/puzzle.dsn -->
<g id="node14" class="node">
<title>primitives/puzzle.dsn</title>
<ellipse fill="none" stroke="black" cx="3601.43" cy="-195.6" rx="93.91" ry="18"/>
<text text-anchor="middle" x="3601.43" y="-191.4" font-family="Times,serif" font-size="14.00">primitives/puzzle.dsn</text>
</g>
<!-- &#45;&gt;primitives/puzzle.dsn -->
<g id="edge21" class="edge">
<title>&#45;&gt;primitives/puzzle.dsn</title>
<path fill="none" stroke="black" d="M2801,-283.79C2705.44,-284.71 2395.65,-283.74 2446.24,-231.6 2464.4,-212.88 3215.6,-201.47 3496.71,-197.86"/>
<polygon fill="black" stroke="black" points="3496.66,-201.36 3506.61,-197.73 3496.57,-194.36 3496.66,-201.36"/>
<text text-anchor="middle" x="2470.34" y="-235.8" font-family="Times,serif" font-size="14.00">puzzle&#45;1</text>
</g>
<!-- &#45;&gt;primitives/puzzle.dsn -->
<g id="edge22" class="edge">
<title>&#45;&gt;primitives/puzzle.dsn</title>
<path fill="none" stroke="black" d="M2801.02,-283.04C2717.9,-281.5 2476.76,-273.41 2517.24,-231.6 2550.92,-196.82 3230.28,-195.33 3496.1,-196.09"/>
<polygon fill="black" stroke="black" points="3495.77,-199.59 3505.78,-196.12 3495.79,-192.59 3495.77,-199.59"/>
<text text-anchor="middle" x="2544.84" y="-235.8" font-family="Times,serif" font-size="14.00">puzzle&#45;10</text>
</g>
<!-- &#45;&gt;primitives/puzzle.dsn -->
<g id="edge23" class="edge">
<title>&#45;&gt;primitives/puzzle.dsn</title>
<path fill="none" stroke="black" d="M2801.18,-283.55C2745.46,-283.21 2621.55,-278.96 2595.24,-248.4 2590.37,-242.74 2590.05,-236.97 2595.24,-231.6 2626.15,-199.6 3244.45,-196.36 3496.18,-196.38"/>
<polygon fill="black" stroke="black" points="3496.01,-199.88 3506.01,-196.38 3496.01,-192.88 3496.01,-199.88"/>
<text text-anchor="middle" x="2622.84" y="-235.8" font-family="Times,serif" font-size="14.00">puzzle&#45;11</text>
</g>
<!-- &#45;&gt;primitives/puzzle.dsn -->
<g id="edge24" class="edge">
<title>&#45;&gt;primitives/puzzle.dsn</title>
<path fill="none" stroke="black" d="M2801.32,-282.84C2747.25,-280.85 2634.42,-271.91 2673.24,-231.6 2701.37,-202.39 3258.65,-197.47 3495.93,-196.71"/>
<polygon fill="black" stroke="black" points="3495.82,-200.21 3505.81,-196.68 3495.8,-193.21 3495.82,-200.21"/>
<text text-anchor="middle" x="2700.84" y="-235.8" font-family="Times,serif" font-size="14.00">puzzle&#45;12</text>
</g>
<!-- &#45;&gt;primitives/puzzle.dsn -->
<g id="edge25" class="edge">
<title>&#45;&gt;primitives/puzzle.dsn</title>
<path fill="none" stroke="black" d="M2803.51,-277.02C2774.2,-268.41 2731.85,-251.8 2751.24,-231.6 2776.63,-205.15 3274.04,-198.67 3496.03,-197.1"/>
<polygon fill="black" stroke="black" points="3495.86,-200.6 3505.84,-197.03 3495.81,-193.6 3495.86,-200.6"/>
<text text-anchor="middle" x="2778.84" y="-235.8" font-family="Times,serif" font-size="14.00">puzzle&#45;13</text>
</g>
<!-- &#45;&gt;primitives/puzzle.dsn -->
<g id="edge26" class="edge">
<title>&#45;&gt;primitives/puzzle.dsn</title>
<path fill="none" stroke="black" d="M2823.38,-266.7C2821.05,-255.28 2820.47,-240.64 2829.24,-231.6 2852.09,-208.06 3290.61,-200.06 3496.43,-197.6"/>
<polygon fill="black" stroke="black" points="3496.38,-201.1 3506.33,-197.48 3496.29,-194.1 3496.38,-201.1"/>
<text text-anchor="middle" x="2856.84" y="-235.8" font-family="Times,serif" font-size="14.00">puzzle&#45;14</text>
</g>
<!-- &#45;&gt;primitives/puzzle.dsn -->
<g id="edge27" class="edge">
<title>&#45;&gt;primitives/puzzle.dsn</title>
<path fill="none" stroke="black" d="M2848.1,-271.61C2858.95,-264.99 2872.58,-256.45 2884.43,-248.4 2894.85,-241.33 2895.38,-235.83 2907.24,-231.6 2961.17,-212.36 3316.73,-202.41 3497.01,-198.55"/>
<polygon fill="black" stroke="black" points="3496.92,-202.05 3506.85,-198.34 3496.78,-195.06 3496.92,-202.05"/>
<text text-anchor="middle" x="2934.84" y="-235.8" font-family="Times,serif" font-size="14.00">puzzle&#45;15</text>
</g>
<!-- &#45;&gt;primitives/puzzle.dsn -->
<g id="edge28" class="edge">
<title>&#45;&gt;primitives/puzzle.dsn</title>
<path fill="none" stroke="black" d="M2854.89,-279.54C2882.68,-274.79 2927.17,-265.23 2962.43,-248.4 2973.79,-242.98 2973.39,-235.87 2985.24,-231.6 3031.94,-214.77 3333.88,-203.97 3497.09,-199.28"/>
<polygon fill="black" stroke="black" points="3497.19,-202.78 3507.08,-199 3496.99,-195.79 3497.19,-202.78"/>
<text text-anchor="middle" x="3012.84" y="-235.8" font-family="Times,serif" font-size="14.00">puzzle&#45;16</text>
</g>
<!-- &#45;&gt;primitives/puzzle.dsn -->
<g id="edge29" class="edge">
<title>&#45;&gt;primitives/puzzle.dsn</title>
<path fill="none" stroke="black" d="M2855.65,-282.93C2897.12,-281.35 2977.88,-274.79 3040.43,-248.4 3052.03,-243.51 3051.41,-235.92 3063.24,-231.6 3139.95,-203.61 3361.95,-197.51 3495.66,-196.47"/>
<polygon fill="black" stroke="black" points="3495.64,-199.97 3505.61,-196.4 3495.59,-192.97 3495.64,-199.97"/>
<text text-anchor="middle" x="3090.84" y="-235.8" font-family="Times,serif" font-size="14.00">puzzle&#45;17</text>
</g>
<!-- &#45;&gt;primitives/puzzle.dsn -->
<g id="edge30" class="edge">
<title>&#45;&gt;primitives/puzzle.dsn</title>
<path fill="none" stroke="black" d="M2855.34,-281.91C2917.79,-278.16 3070.82,-267.28 3118.43,-248.4 3130.14,-243.76 3129.44,-235.98 3141.24,-231.6 3204.03,-208.29 3381.07,-200.5 3496.36,-197.9"/>
<polygon fill="black" stroke="black" points="3496.23,-201.4 3506.16,-197.69 3496.08,-194.4 3496.23,-201.4"/>
<text text-anchor="middle" x="3168.84" y="-235.8" font-family="Times,serif" font-size="14.00">puzzle&#45;18</text>
</g>
<!-- &#45;&gt;primitives/puzzle.dsn -->
<g id="edge31" class="edge">
<title>&#45;&gt;primitives/puzzle.dsn</title>
<path fill="none" stroke="black" d="M2855.55,-282.69C2929.62,-280.46 3134.01,-272.24 3196.43,-248.4 3208.19,-243.91 3207.47,-236.07 3219.24,-231.6 3268.39,-212.92 3402.22,-203.97 3497.62,-199.85"/>
<polygon fill="black" stroke="black" points="3497.7,-203.35 3507.54,-199.44 3497.41,-196.36 3497.7,-203.35"/>
<text text-anchor="middle" x="3246.84" y="-235.8" font-family="Times,serif" font-size="14.00">puzzle&#45;19</text>
</g>
<!-- &#45;&gt;primitives/puzzle.dsn -->
<g id="edge32" class="edge">
<title>&#45;&gt;primitives/puzzle.dsn</title>
<path fill="none" stroke="black" d="M2855.69,-283.21C2940.24,-282.32 3197.01,-277.24 3274.43,-248.4 3286.23,-244.01 3285.52,-236.21 3297.24,-231.6 3333.35,-217.4 3427.22,-208.01 3501.22,-202.57"/>
<polygon fill="black" stroke="black" points="3501.21,-206.07 3510.94,-201.87 3500.71,-199.09 3501.21,-206.07"/>
<text text-anchor="middle" x="3321.34" y="-235.8" font-family="Times,serif" font-size="14.00">puzzle&#45;2</text>
</g>
<!-- &#45;&gt;primitives/puzzle.dsn -->
<g id="edge33" class="edge">
<title>&#45;&gt;primitives/puzzle.dsn</title>
<path fill="none" stroke="black" d="M2855.67,-283.55C2948.86,-283.76 3254.2,-281.83 3345.43,-248.4 3357.25,-244.07 3356.6,-236.41 3368.24,-231.6 3409.13,-214.7 3457.07,-205.83 3498.81,-201.22"/>
<polygon fill="black" stroke="black" points="3499.02,-204.72 3508.61,-200.22 3498.31,-197.76 3499.02,-204.72"/>
<text text-anchor="middle" x="3395.84" y="-235.8" font-family="Times,serif" font-size="14.00">puzzle&#45;20</text>
</g>
<!-- &#45;&gt;primitives/puzzle.dsn -->
<g id="edge34" class="edge">
<title>&#45;&gt;primitives/puzzle.dsn</title>
<path fill="none" stroke="black" d="M2855.8,-283.84C2958.01,-285.15 3316.99,-286.87 3423.43,-248.4 3435.27,-244.12 3434.79,-236.83 3446.24,-231.6 3468.04,-221.65 3492.88,-214.42 3516.21,-209.21"/>
<polygon fill="black" stroke="black" points="3516.63,-212.7 3525.68,-207.2 3515.17,-205.86 3516.63,-212.7"/>
<text text-anchor="middle" x="3473.84" y="-235.8" font-family="Times,serif" font-size="14.00">puzzle&#45;21</text>
</g>
<!-- &#45;&gt;primitives/puzzle.dsn -->
<g id="edge35" class="edge">
<title>&#45;&gt;primitives/puzzle.dsn</title>
<path fill="none" stroke="black" d="M2855.64,-282.91C2973.88,-280.64 3439.95,-270.39 3501.43,-248.4 3513.29,-244.16 3513.38,-237.97 3524.24,-231.6 3533.09,-226.41 3542.86,-221.45 3552.37,-216.97"/>
<polygon fill="black" stroke="black" points="3553.53,-220.29 3561.17,-212.96 3550.62,-213.93 3553.53,-220.29"/>
<text text-anchor="middle" x="3551.84" y="-235.8" font-family="Times,serif" font-size="14.00">puzzle&#45;22</text>
</g>
<!-- &#45;&gt;primitives/puzzle.dsn -->
<g id="edge36" class="edge">
<title>&#45;&gt;primitives/puzzle.dsn</title>
<path fill="none" stroke="black" d="M2855.71,-282.94C2987.04,-280.61 3549.16,-269.46 3579.43,-248.4 3587.33,-242.91 3592.4,-233.98 3595.66,-225.07"/>
<polygon fill="black" stroke="black" points="3599.01,-226.09 3598.46,-215.51 3592.29,-224.12 3599.01,-226.09"/>
<text text-anchor="middle" x="3620.18" y="-235.8" font-family="Times,serif" font-size="14.00">puzzle&#45;23</text>
</g>
<!-- &#45;&gt;primitives/puzzle.dsn -->
<g id="edge37" class="edge">
<title>&#45;&gt;primitives/puzzle.dsn</title>
<path fill="none" stroke="black" d="M2855.72,-283.29C2995.21,-282.58 3623.29,-277.76 3651.43,-248.4 3660.53,-238.91 3653.71,-228.47 3642.52,-219.47"/>
<polygon fill="black" stroke="black" points="3644.7,-216.73 3634.53,-213.78 3640.64,-222.43 3644.7,-216.73"/>
<text text-anchor="middle" x="3683.24" y="-235.8" font-family="Times,serif" font-size="14.00">puzzle&#45;24</text>
</g>
<!-- &#45;&gt;primitives/puzzle.dsn -->
<g id="edge38" class="edge">
<title>&#45;&gt;primitives/puzzle.dsn</title>
<path fill="none" stroke="black" d="M2855.85,-283.37C3002.01,-283.09 3683.96,-280.1 3714.43,-248.4 3731.34,-230.81 3711.28,-218.65 3683.6,-210.56"/>
<polygon fill="black" stroke="black" points="3684.7,-207.24 3674.14,-208.05 3682.9,-214 3684.7,-207.24"/>
<text text-anchor="middle" x="3748.21" y="-235.8" font-family="Times,serif" font-size="14.00">puzzle&#45;25</text>
</g>
<!-- &#45;&gt;primitives/puzzle.dsn -->
<g id="edge39" class="edge">
<title>&#45;&gt;primitives/puzzle.dsn</title>
<path fill="none" stroke="black" d="M2855.84,-283.45C3008.32,-283.59 3746.54,-282.52 3779.43,-248.4 3809.16,-217.56 3759.87,-204.79 3705.69,-199.63"/>
<polygon fill="black" stroke="black" points="3706.22,-196.16 3695.96,-198.8 3705.62,-203.14 3706.22,-196.16"/>
<text text-anchor="middle" x="3815.94" y="-235.8" font-family="Times,serif" font-size="14.00">puzzle&#45;26</text>
</g>
<!-- &#45;&gt;primitives/puzzle.dsn -->
<g id="edge40" class="edge">
<title>&#45;&gt;primitives/puzzle.dsn</title>
<path fill="none" stroke="black" d="M2855.69,-283.52C3014.27,-284.08 3811.99,-285.08 3847.43,-248.4 3852.62,-243.03 3852.33,-237.24 3847.43,-231.6 3828.84,-210.17 3764.42,-201.53 3706.17,-198.18"/>
<polygon fill="black" stroke="black" points="3706.68,-194.7 3696.51,-197.68 3706.31,-201.69 3706.68,-194.7"/>
<text text-anchor="middle" x="3878.81" y="-235.8" font-family="Times,serif" font-size="14.00">puzzle&#45;27</text>
</g>
<!-- &#45;&gt;primitives/puzzle.dsn -->
<g id="edge41" class="edge">
<title>&#45;&gt;primitives/puzzle.dsn</title>
<path fill="none" stroke="black" d="M2855.76,-283.58C3020.23,-284.51 3872.64,-287.43 3910.43,-248.4 3941.38,-216.43 3806.55,-204.17 3705.2,-199.48"/>
<polygon fill="black" stroke="black" points="3705.61,-195.99 3695.47,-199.05 3705.31,-202.99 3705.61,-195.99"/>
<text text-anchor="middle" x="3942.53" y="-235.8" font-family="Times,serif" font-size="14.00">puzzle&#45;28</text>
</g>
<!-- &#45;&gt;primitives/puzzle.dsn -->
<g id="edge42" class="edge">
<title>&#45;&gt;primitives/puzzle.dsn</title>
<path fill="none" stroke="black" d="M2855.67,-283.09C3027.47,-281.06 3954.32,-269.14 3974.43,-248.4 4013.72,-207.9 3830.45,-198.46 3706.88,-196.62"/>
<polygon fill="black" stroke="black" points="3707.05,-193.12 3697.01,-196.48 3706.96,-200.12 3707.05,-193.12"/>
<text text-anchor="middle" x="4007.43" y="-235.8" font-family="Times,serif" font-size="14.00">puzzle&#45;29</text>
</g>
<!-- &#45;&gt;primitives/puzzle.dsn -->
<g id="edge43" class="edge">
<title>&#45;&gt;primitives/puzzle.dsn</title>
<path fill="none" stroke="black" d="M2855.77,-283.13C3033.48,-281.33 4018.1,-270.36 4039.43,-248.4 4044.63,-243.04 4044.5,-237.09 4039.43,-231.6 4017.29,-207.62 3828.97,-200.06 3706.57,-197.68"/>
<polygon fill="black" stroke="black" points="3706.89,-194.19 3696.83,-197.5 3706.76,-201.19 3706.89,-194.19"/>
<text text-anchor="middle" x="4067.38" y="-235.8" font-family="Times,serif" font-size="14.00">puzzle&#45;3</text>
</g>
<!-- &#45;&gt;primitives/puzzle.dsn -->
<g id="edge44" class="edge">
<title>&#45;&gt;primitives/puzzle.dsn</title>
<path fill="none" stroke="black" d="M2855.85,-283.17C3038.53,-281.55 4073.05,-271.41 4095.43,-248.4 4100.64,-243.05 4100.52,-237.06 4095.43,-231.6 4069.55,-203.82 3844.14,-197.71 3706.91,-196.6"/>
<polygon fill="black" stroke="black" points="3707.09,-193.1 3697.07,-196.52 3707.04,-200.1 3707.09,-193.1"/>
<text text-anchor="middle" x="4126.89" y="-235.8" font-family="Times,serif" font-size="14.00">puzzle&#45;30</text>
</g>
<!-- &#45;&gt;primitives/puzzle.dsn -->
<g id="edge45" class="edge">
<title>&#45;&gt;primitives/puzzle.dsn</title>
<path fill="none" stroke="black" d="M2855.69,-283.21C3043.15,-281.8 4134.86,-272.6 4158.43,-248.4 4163.64,-243.05 4163.54,-237.04 4158.43,-231.6 4128.28,-199.49 3859.98,-195.34 3707.03,-195.63"/>
<polygon fill="black" stroke="black" points="3707.27,-192.13 3697.28,-195.65 3707.29,-199.13 3707.27,-192.13"/>
<text text-anchor="middle" x="4189.9" y="-235.8" font-family="Times,serif" font-size="14.00">puzzle&#45;31</text>
</g>
<!-- &#45;&gt;primitives/puzzle.dsn -->
<g id="edge46" class="edge">
<title>&#45;&gt;primitives/puzzle.dsn</title>
<path fill="none" stroke="black" d="M2855.73,-283.24C3048.43,-282.03 4196.68,-273.78 4221.43,-248.4 4226.65,-243.05 4226.56,-237.03 4221.43,-231.6 4204.03,-213.18 3877.73,-202.94 3705.67,-198.8"/>
<polygon fill="black" stroke="black" points="3705.91,-195.3 3695.83,-198.56 3705.74,-202.3 3705.91,-195.3"/>
<text text-anchor="middle" x="4249.41" y="-235.8" font-family="Times,serif" font-size="14.00">puzzle&#45;4</text>
</g>
<!-- &#45;&gt;primitives/puzzle.dsn -->
<g id="edge47" class="edge">
<title>&#45;&gt;primitives/puzzle.dsn</title>
<path fill="none" stroke="black" d="M2855.88,-283.26C3053.45,-282.22 4251.63,-274.83 4277.43,-248.4 4282.65,-243.06 4282.57,-237.01 4277.43,-231.6 4258.11,-211.25 3891.32,-201.78 3706.3,-198.29"/>
<polygon fill="black" stroke="black" points="3706.5,-194.79 3696.44,-198.1 3706.37,-201.79 3706.5,-194.79"/>
<text text-anchor="middle" x="4305.41" y="-235.8" font-family="Times,serif" font-size="14.00">puzzle&#45;5</text>
</g>
<!-- &#45;&gt;primitives/puzzle.dsn -->
<g id="edge48" class="edge">
<title>&#45;&gt;primitives/puzzle.dsn</title>
<path fill="none" stroke="black" d="M2855.64,-283.29C3056.84,-282.42 4306.56,-275.9 4333.43,-248.4 4338.65,-243.06 4338.58,-237 4333.43,-231.6 4312.16,-209.28 3903.33,-200.7 3706.12,-197.84"/>
<polygon fill="black" stroke="black" points="3706.44,-194.35 3696.39,-197.7 3706.34,-201.34 3706.44,-194.35"/>
<text text-anchor="middle" x="4361.42" y="-235.8" font-family="Times,serif" font-size="14.00">puzzle&#45;6</text>
</g>
<!-- &#45;&gt;primitives/puzzle.dsn -->
<g id="edge49" class="edge">
<title>&#45;&gt;primitives/puzzle.dsn</title>
<path fill="none" stroke="black" d="M2855.66,-283.31C3061.2,-282.6 4361.51,-276.96 4389.43,-248.4 4394.65,-243.06 4394.59,-237 4389.43,-231.6 4366.21,-207.32 3915.44,-199.7 3706.33,-197.46"/>
<polygon fill="black" stroke="black" points="3706.59,-193.96 3696.55,-197.36 3706.52,-200.96 3706.59,-193.96"/>
<text text-anchor="middle" x="4417.42" y="-235.8" font-family="Times,serif" font-size="14.00">puzzle&#45;7</text>
</g>
<!-- &#45;&gt;primitives/puzzle.dsn -->
<g id="edge50" class="edge">
<title>&#45;&gt;primitives/puzzle.dsn</title>
<path fill="none" stroke="black" d="M2855.63,-283.34C3065.26,-282.78 4416.45,-278.02 4445.43,-248.4 4450.65,-243.06 4450.6,-236.99 4445.43,-231.6 4420.25,-205.35 3927.05,-198.77 3706.48,-197.13"/>
<polygon fill="black" stroke="black" points="3706.76,-193.63 3696.74,-197.06 3706.71,-200.63 3706.76,-193.63"/>
<text text-anchor="middle" x="4473.43" y="-235.8" font-family="Times,serif" font-size="14.00">puzzle&#45;8</text>
</g>
<!-- &#45;&gt;primitives/puzzle.dsn -->
<g id="edge51" class="edge">
<title>&#45;&gt;primitives/puzzle.dsn</title>
<path fill="none" stroke="black" d="M2855.55,-283.36C3069.02,-282.94 4471.39,-279.08 4501.43,-248.4 4506.66,-243.07 4506.61,-236.98 4501.43,-231.6 4474.3,-203.39 3938.95,-197.9 3707.05,-196.84"/>
<polygon fill="black" stroke="black" points="3707.1,-193.34 3697.08,-196.8 3707.07,-200.34 3707.1,-193.34"/>
<text text-anchor="middle" x="4529.43" y="-235.8" font-family="Times,serif" font-size="14.00">puzzle&#45;9</text>
</g>
<!-- cube&#45;mounted/lens.dsn/mounted&#45;lens.dsn -->
<g id="node2" class="node">
<title>cube&#45;mounted/lens.dsn/mounted&#45;lens.dsn</title>
<ellipse fill="none" stroke="black" cx="79.43" cy="-106.8" rx="79.43" ry="18"/>
<text text-anchor="middle" x="79.43" y="-102.6" font-family="Times,serif" font-size="14.00">mounted&#45;lens.dsn</text>
</g>
<!-- cube&#45;mounted/lens.dsn/primitives/cube&#45;skeleton.dsn -->
<g id="node3" class="node">
<title>cube&#45;mounted/lens.dsn/primitives/cube&#45;skeleton.dsn</title>
<ellipse fill="none" stroke="black" cx="299.43" cy="-106.8" rx="122.34" ry="18"/>
<text text-anchor="middle" x="299.43" y="-102.6" font-family="Times,serif" font-size="14.00">primitives/cube&#45;skeleton.dsn</text>
</g>
<!-- cube&#45;mounted/lens.dsn:x&#45;&gt;cube&#45;mounted/lens.dsn/mounted&#45;lens.dsn -->
<g id="edge52" class="edge">
<title>cube&#45;mounted/lens.dsn:x&#45;&gt;cube&#45;mounted/lens.dsn/mounted&#45;lens.dsn</title>
<path fill="none" stroke="black" d="M247.17,-178.48C212.96,-164.06 162.74,-142.9 126.17,-127.49"/>
<polygon fill="black" stroke="black" points="127.73,-124.35 117.16,-123.7 125.01,-130.8 127.73,-124.35"/>
<text text-anchor="middle" x="238.99" y="-147" font-family="Times,serif" font-size="14.00">mounted&#45;lens</text>
</g>
<!-- cube&#45;mounted/lens.dsn:x&#45;&gt;cube&#45;mounted/lens.dsn/primitives/cube&#45;skeleton.dsn -->
<g id="edge53" class="edge">
<title>cube&#45;mounted/lens.dsn:x&#45;&gt;cube&#45;mounted/lens.dsn/primitives/cube&#45;skeleton.dsn</title>
<path fill="none" stroke="black" d="M288.2,-177.45C290.08,-165.76 292.63,-149.99 294.82,-136.42"/>
<polygon fill="black" stroke="black" points="298.25,-137.13 296.38,-126.7 291.34,-136.02 298.25,-137.13"/>
<text text-anchor="middle" x="317.01" y="-147" font-family="Times,serif" font-size="14.00">skeleton</text>
</g>
<!-- cube&#45;mounted/mirror&#45;diagonal.dsn/mounted&#45;mirror.dsn -->
<g id="node5" class="node">
<title>cube&#45;mounted/mirror&#45;diagonal.dsn/mounted&#45;mirror.dsn</title>
<ellipse fill="none" stroke="black" cx="555.43" cy="-106.8" rx="88.55" ry="18"/>
<text text-anchor="middle" x="555.43" y="-102.6" font-family="Times,serif" font-size="14.00">mounted&#45;mirror.dsn</text>
</g>
<!-- cube&#45;mounted/mirror&#45;diagonal.dsn/primitives/cube&#45;skeleton.dsn -->
<g id="node6" class="node">
<title>cube&#45;mounted/mirror&#45;diagonal.dsn/primitives/cube&#45;skeleton.dsn</title>
<ellipse fill="none" stroke="black" cx="784.43" cy="-106.8" rx="122.34" ry="18"/>
<text text-anchor="middle" x="784.43" y="-102.6" font-family="Times,serif" font-size="14.00">primitives/cube&#45;skeleton.dsn</text>
</g>
<!-- cube&#45;mounted/mirror&#45;diagonal.dsn:_z&#45;&gt;cube&#45;mounted/mirror&#45;diagonal.dsn/mounted&#45;mirror.dsn -->
<g id="edge54" class="edge">
<title>cube&#45;mounted/mirror&#45;diagonal.dsn:_z&#45;&gt;cube&#45;mounted/mirror&#45;diagonal.dsn/mounted&#45;mirror.dsn</title>
<path fill="none" stroke="black" d="M566.67,-177.45C564.78,-165.76 562.24,-149.99 560.05,-136.42"/>
<polygon fill="black" stroke="black" points="563.53,-136.02 558.48,-126.7 556.62,-137.13 563.53,-136.02"/>
<text text-anchor="middle" x="608.4" y="-147" font-family="Times,serif" font-size="14.00">mounted&#45;mirror</text>
</g>
<!-- cube&#45;mounted/mirror&#45;diagonal.dsn:_z&#45;&gt;cube&#45;mounted/mirror&#45;diagonal.dsn/primitives/cube&#45;skeleton.dsn -->
<g id="edge55" class="edge">
<title>cube&#45;mounted/mirror&#45;diagonal.dsn:_z&#45;&gt;cube&#45;mounted/mirror&#45;diagonal.dsn/primitives/cube&#45;skeleton.dsn</title>
<path fill="none" stroke="black" d="M611.54,-177.94C626.09,-172.16 642.49,-165.62 657.43,-159.6 682.72,-149.42 710.78,-137.98 734.08,-128.45"/>
<polygon fill="black" stroke="black" points="735.1,-131.82 743.03,-124.79 732.45,-125.34 735.1,-131.82"/>
<text text-anchor="middle" x="719.2" y="-147" font-family="Times,serif" font-size="14.00">skeleton</text>
</g>
<!-- primitives/hikcamera&#45;with&#45;objective.dsn/camera.dsn -->
<g id="node10" class="node">
<title>primitives/hikcamera&#45;with&#45;objective.dsn/camera.dsn</title>
<ellipse fill="none" stroke="black" cx="2289.43" cy="-106.8" rx="54.74" ry="18"/>
<text text-anchor="middle" x="2289.43" y="-102.6" font-family="Times,serif" font-size="14.00">camera.dsn</text>
</g>
<!-- primitives/hikcamera&#45;with&#45;objective.dsn&#45;&gt;primitives/hikcamera&#45;with&#45;objective.dsn/camera.dsn -->
<g id="edge56" class="edge">
<title>primitives/hikcamera&#45;with&#45;objective.dsn&#45;&gt;primitives/hikcamera&#45;with&#45;objective.dsn/camera.dsn</title>
<path fill="none" stroke="black" d="M2336.78,-177.45C2328.32,-165.01 2316.72,-147.95 2307.13,-133.83"/>
<polygon fill="black" stroke="black" points="2310.23,-132.17 2301.71,-125.87 2304.44,-136.11 2310.23,-132.17"/>
<text text-anchor="middle" x="2344.42" y="-147" font-family="Times,serif" font-size="14.00">camera</text>
</g>
<!-- primitives/hikcamera&#45;with&#45;objective.dsn/mounted&#45;objective.dsn -->
<g id="node11" class="node">
<title>primitives/hikcamera&#45;with&#45;objective.dsn/mounted&#45;objective.dsn</title>
<ellipse fill="none" stroke="black" cx="2461.43" cy="-106.8" rx="99.27" ry="18"/>
<text text-anchor="middle" x="2461.43" y="-102.6" font-family="Times,serif" font-size="14.00">mounted&#45;objective.dsn</text>
</g>
<!-- primitives/hikcamera&#45;with&#45;objective.dsn&#45;&gt;primitives/hikcamera&#45;with&#45;objective.dsn/mounted&#45;objective.dsn -->
<g id="edge57" class="edge">
<title>primitives/hikcamera&#45;with&#45;objective.dsn&#45;&gt;primitives/hikcamera&#45;with&#45;objective.dsn/mounted&#45;objective.dsn</title>
<path fill="none" stroke="black" d="M2370.76,-177.45C2387.81,-164.35 2411.53,-146.13 2430.43,-131.62"/>
<polygon fill="black" stroke="black" points="2432.54,-134.41 2438.34,-125.54 2428.27,-128.86 2432.54,-134.41"/>
<text text-anchor="middle" x="2467.54" y="-147" font-family="Times,serif" font-size="14.00">mounted&#45;objective</text>
</g>
<!-- primitives/hikcamera&#45;with&#45;objective.dsn/mounted&#45;objective.dsn/half&#45;case.dsn -->
<g id="node12" class="node">
<title>primitives/hikcamera&#45;with&#45;objective.dsn/mounted&#45;objective.dsn/half&#45;case.dsn</title>
<ellipse fill="none" stroke="black" cx="2390.43" cy="-18" rx="61.71" ry="18"/>
<text text-anchor="middle" x="2390.43" y="-13.8" font-family="Times,serif" font-size="14.00">half&#45;case.dsn</text>
</g>
<!-- primitives/hikcamera&#45;with&#45;objective.dsn/mounted&#45;objective.dsn&#45;&gt;primitives/hikcamera&#45;with&#45;objective.dsn/mounted&#45;objective.dsn/half&#45;case.dsn -->
<g id="edge58" class="edge">
<title>primitives/hikcamera&#45;with&#45;objective.dsn/mounted&#45;objective.dsn&#45;&gt;primitives/hikcamera&#45;with&#45;objective.dsn/mounted&#45;objective.dsn/half&#45;case.dsn</title>
<path fill="none" stroke="black" d="M2389.05,-94.15C2363.74,-88.49 2339.72,-80.73 2332.12,-70.8 2323.16,-59.09 2332.37,-47.97 2345.91,-39.06"/>
<polygon fill="black" stroke="black" points="2347.65,-42.1 2354.51,-34.03 2344.11,-36.06 2347.65,-42.1"/>
<text text-anchor="middle" x="2385.78" y="-58.2" font-family="Times,serif" font-size="14.00">lens&#45;holder&#45;bottom</text>
</g>
<!-- primitives/hikcamera&#45;with&#45;objective.dsn/mounted&#45;objective.dsn&#45;&gt;primitives/hikcamera&#45;with&#45;objective.dsn/mounted&#45;objective.dsn/half&#45;case.dsn -->
<g id="edge59" class="edge">
<title>primitives/hikcamera&#45;with&#45;objective.dsn/mounted&#45;objective.dsn&#45;&gt;primitives/hikcamera&#45;with&#45;objective.dsn/mounted&#45;objective.dsn/half&#45;case.dsn</title>
<path fill="none" stroke="black" d="M2456.79,-88.68C2453.27,-77.93 2447.62,-64.21 2439.43,-54 2435.76,-49.43 2431.35,-45.18 2426.7,-41.33"/>
<polygon fill="black" stroke="black" points="2428.88,-38.6 2418.79,-35.36 2424.66,-44.18 2428.88,-38.6"/>
<text text-anchor="middle" x="2491.9" y="-58.2" font-family="Times,serif" font-size="14.00">lens&#45;holder&#45;top</text>
</g>
<!-- primitives/hikcamera&#45;with&#45;objective.dsn/mounted&#45;objective.dsn/lens.dsn -->
<g id="node13" class="node">
<title>primitives/hikcamera&#45;with&#45;objective.dsn/mounted&#45;objective.dsn/lens.dsn</title>
<ellipse fill="none" stroke="black" cx="2570.43" cy="-18" rx="42.42" ry="18"/>
<text text-anchor="middle" x="2570.43" y="-13.8" font-family="Times,serif" font-size="14.00">lens.dsn</text>
</g>
<!-- primitives/hikcamera&#45;with&#45;objective.dsn/mounted&#45;objective.dsn&#45;&gt;primitives/hikcamera&#45;with&#45;objective.dsn/mounted&#45;objective.dsn/lens.dsn -->
<g id="edge60" class="edge">
<title>primitives/hikcamera&#45;with&#45;objective.dsn/mounted&#45;objective.dsn&#45;&gt;primitives/hikcamera&#45;with&#45;objective.dsn/mounted&#45;objective.dsn/lens.dsn</title>
<path fill="none" stroke="black" d="M2506.87,-90.49C2517.98,-85.37 2529.29,-78.86 2538.43,-70.8 2546.19,-63.97 2552.68,-54.8 2557.76,-46.08"/>
<polygon fill="black" stroke="black" points="2560.69,-48.01 2562.33,-37.55 2554.52,-44.71 2560.69,-48.01"/>
<text text-anchor="middle" x="2563.75" y="-58.2" font-family="Times,serif" font-size="14.00">lens</text>
</g>
</g>
</svg>
