<?xml version="1.0" encoding="UTF-8" standalone="no"?>
<!DOCTYPE svg PUBLIC "-//W3C//DTD SVG 1.1//EN"
 "http://www.w3.org/Graphics/SVG/1.1/DTD/svg11.dtd">
<!-- Generated by graphviz version 12.1.2 (20240928.0832)
 -->
<!-- Pages: 1 -->
<svg width="335pt" height="561pt"
 viewBox="0.00 0.00 334.59 561.00" xmlns="http://www.w3.org/2000/svg" xmlns:xlink="http://www.w3.org/1999/xlink">
<g id="graph0" class="graph" transform="scale(1 1) rotate(0) translate(4 557)">
<polygon fill="white" stroke="none" points="-4,4 -4,-557 330.59,-557 330.59,4 -4,4"/>
<g id="node1" class="node">
<title></title>
<ellipse fill="none" stroke="black" cx="129.16" cy="-535" rx="27" ry="18"/>
</g>
<!-- sample&#45;holder -->
<g id="node7" class="node">
<title>sample&#45;holder</title>
<ellipse fill="none" stroke="black" cx="129.16" cy="-462" rx="66.28" ry="18"/>
<text text-anchor="middle" x="129.16" y="-457.8" font-family="Times,serif" font-size="14.00">sample&#45;holder</text>
</g>
<!-- &#45;&gt;sample&#45;holder -->
<g id="edge1" class="edge">
<title>&#45;&gt;sample&#45;holder</title>
<path fill="none" stroke="black" d="M129.16,-516.81C129.16,-509.23 129.16,-500.1 129.16,-491.54"/>
<polygon fill="black" stroke="black" points="132.66,-491.54 129.16,-481.54 125.66,-491.54 132.66,-491.54"/>
</g>
<!-- light&#45;source -->
<g id="node2" class="node">
<title>light&#45;source</title>
<ellipse fill="none" stroke="black" cx="57.16" cy="-373.2" rx="57.16" ry="18"/>
<text text-anchor="middle" x="57.16" y="-369" font-family="Times,serif" font-size="14.00">light&#45;source</text>
</g>
<!-- objective&#45;lens -->
<g id="node3" class="node">
<title>objective&#45;lens</title>
<ellipse fill="none" stroke="black" cx="202.16" cy="-373.2" rx="65.2" ry="18"/>
<text text-anchor="middle" x="202.16" y="-369" font-family="Times,serif" font-size="14.00">objective&#45;lens</text>
</g>
<!-- periscope&#45;mirror&#45;1 -->
<g id="node4" class="node">
<title>periscope&#45;mirror&#45;1</title>
<ellipse fill="none" stroke="black" cx="202.16" cy="-284.4" rx="83.97" ry="18"/>
<text text-anchor="middle" x="202.16" y="-280.2" font-family="Times,serif" font-size="14.00">periscope&#45;mirror&#45;1</text>
</g>
<!-- objective&#45;lens&#45;&gt;periscope&#45;mirror&#45;1 -->
<g id="edge2" class="edge">
<title>objective&#45;lens&#45;&gt;periscope&#45;mirror&#45;1</title>
<path fill="none" stroke="black" d="M202.16,-355.05C202.16,-343.36 202.16,-327.59 202.16,-314.02"/>
<polygon fill="black" stroke="black" points="205.66,-314.32 202.16,-304.32 198.66,-314.32 205.66,-314.32"/>
<text text-anchor="middle" x="224.32" y="-324.6" font-family="Times,serif" font-size="14.00">(1, 0, 0)</text>
</g>
<!-- periscope&#45;mirror&#45;2 -->
<g id="node5" class="node">
<title>periscope&#45;mirror&#45;2</title>
<ellipse fill="none" stroke="black" cx="202.16" cy="-195.6" rx="83.97" ry="18"/>
<text text-anchor="middle" x="202.16" y="-191.4" font-family="Times,serif" font-size="14.00">periscope&#45;mirror&#45;2</text>
</g>
<!-- periscope&#45;mirror&#45;1&#45;&gt;periscope&#45;mirror&#45;2 -->
<g id="edge3" class="edge">
<title>periscope&#45;mirror&#45;1&#45;&gt;periscope&#45;mirror&#45;2</title>
<path fill="none" stroke="black" d="M202.16,-266.25C202.16,-254.56 202.16,-238.79 202.16,-225.22"/>
<polygon fill="black" stroke="black" points="205.66,-225.52 202.16,-215.52 198.66,-225.52 205.66,-225.52"/>
<text text-anchor="middle" x="227.82" y="-235.8" font-family="Times,serif" font-size="14.00">(0, 10, 0)</text>
</g>
<!-- tube&#45;lens -->
<g id="node8" class="node">
<title>tube&#45;lens</title>
<ellipse fill="none" stroke="black" cx="202.16" cy="-106.8" rx="46.43" ry="18"/>
<text text-anchor="middle" x="202.16" y="-102.6" font-family="Times,serif" font-size="14.00">tube&#45;lens</text>
</g>
<!-- periscope&#45;mirror&#45;2&#45;&gt;tube&#45;lens -->
<g id="edge4" class="edge">
<title>periscope&#45;mirror&#45;2&#45;&gt;tube&#45;lens</title>
<path fill="none" stroke="black" d="M202.16,-177.45C202.16,-165.76 202.16,-149.99 202.16,-136.42"/>
<polygon fill="black" stroke="black" points="205.66,-136.72 202.16,-126.72 198.66,-136.72 205.66,-136.72"/>
<text text-anchor="middle" x="224.32" y="-147" font-family="Times,serif" font-size="14.00">(3, 0, 0)</text>
</g>
<!-- projector&#45;screen -->
<g id="node6" class="node">
<title>projector&#45;screen</title>
<ellipse fill="none" stroke="black" cx="202.16" cy="-18" rx="73.77" ry="18"/>
<text text-anchor="middle" x="202.16" y="-13.8" font-family="Times,serif" font-size="14.00">projector&#45;screen</text>
</g>
<!-- sample&#45;holder&#45;&gt;light&#45;source -->
<g id="edge5" class="edge">
<title>sample&#45;holder&#45;&gt;light&#45;source</title>
<path fill="none" stroke="black" d="M84.77,-448.23C74.28,-443.05 64.34,-435.87 58.07,-426 53.73,-419.16 52.33,-410.73 52.34,-402.66"/>
<polygon fill="black" stroke="black" points="55.82,-403.09 53.07,-392.86 48.84,-402.57 55.82,-403.09"/>
<text text-anchor="middle" x="119.12" y="-413.4" font-family="Times,serif" font-size="14.00">(&#45;8.00, 0.00, 0.00) cm</text>
</g>
<!-- sample&#45;holder&#45;&gt;objective&#45;lens -->
<g id="edge6" class="edge">
<title>sample&#45;holder&#45;&gt;objective&#45;lens</title>
<path fill="none" stroke="black" d="M157.97,-445.37C165.92,-440.03 174.04,-433.48 180.16,-426 185.86,-419.03 190.31,-410.37 193.66,-402.14"/>
<polygon fill="black" stroke="black" points="196.93,-403.39 197.06,-392.8 190.35,-401 196.93,-403.39"/>
<text text-anchor="middle" x="212.1" y="-413.4" font-family="Times,serif" font-size="14.00">(1, 0, 0)</text>
</g>
<!-- tube&#45;lens&#45;&gt;projector&#45;screen -->
<g id="edge7" class="edge">
<title>tube&#45;lens&#45;&gt;projector&#45;screen</title>
<path fill="none" stroke="black" d="M202.16,-88.65C202.16,-76.96 202.16,-61.19 202.16,-47.62"/>
<polygon fill="black" stroke="black" points="205.66,-47.92 202.16,-37.92 198.66,-47.92 205.66,-47.92"/>
<text text-anchor="middle" x="264.38" y="-58.2" font-family="Times,serif" font-size="14.00">(10.00, 0.00, 0.00) cm</text>
</g>
</g>
</svg>
