<?xml version="1.0" encoding="UTF-8" standalone="no"?>
<!DOCTYPE svg PUBLIC "-//W3C//DTD SVG 1.1//EN"
 "http://www.w3.org/Graphics/SVG/1.1/DTD/svg11.dtd">
<!-- Generated by graphviz version 12.1.2 (20240928.0832)
 -->
<!-- Pages: 1 -->
<svg width="3244pt" height="310pt"
 viewBox="0.00 0.00 3243.66 310.40" xmlns="http://www.w3.org/2000/svg" xmlns:xlink="http://www.w3.org/1999/xlink">
<g id="graph0" class="graph" transform="scale(1 1) rotate(0) translate(4 306.4)">
<polygon fill="white" stroke="none" points="-4,4 -4,-306.4 3239.66,-306.4 3239.66,4 -4,4"/>
<g id="node1" class="node">
<title></title>
<ellipse fill="none" stroke="black" cx="1673.34" cy="-284.4" rx="27" ry="18"/>
</g>
<!-- cube&#45;mounted/dichroic&#45;mirror.dsn:xy -->
<g id="node4" class="node">
<title>cube&#45;mounted/dichroic&#45;mirror.dsn:xy</title>
<ellipse fill="none" stroke="black" cx="351.34" cy="-195.6" rx="156.65" ry="18"/>
<text text-anchor="middle" x="351.34" y="-191.4" font-family="Times,serif" font-size="14.00">cube&#45;mounted/dichroic&#45;mirror.dsn:xy</text>
</g>
<!-- &#45;&gt;cube&#45;mounted/dichroic&#45;mirror.dsn:xy -->
<g id="edge1" class="edge">
<title>&#45;&gt;cube&#45;mounted/dichroic&#45;mirror.dsn:xy</title>
<path fill="none" stroke="black" d="M1646.1,-282.1C1558.12,-277.84 1273.65,-263.75 1038.47,-248.4 847.12,-235.91 626.02,-218.76 487.43,-207.67"/>
<polygon fill="black" stroke="black" points="488.11,-204.22 477.86,-206.91 487.55,-211.19 488.11,-204.22"/>
<text text-anchor="middle" x="1061.4" y="-235.8" font-family="Times,serif" font-size="14.00">dichroic</text>
</g>
<!-- cube&#45;mounted/fiber&#45;holder.dsn:x -->
<g id="node7" class="node">
<title>cube&#45;mounted/fiber&#45;holder.dsn:x</title>
<ellipse fill="none" stroke="black" cx="791.34" cy="-195.6" rx="138.42" ry="18"/>
<text text-anchor="middle" x="791.34" y="-191.4" font-family="Times,serif" font-size="14.00">cube&#45;mounted/fiber&#45;holder.dsn:x</text>
</g>
<!-- &#45;&gt;cube&#45;mounted/fiber&#45;holder.dsn:x -->
<g id="edge2" class="edge">
<title>&#45;&gt;cube&#45;mounted/fiber&#45;holder.dsn:x</title>
<path fill="none" stroke="black" d="M1646.4,-281.55C1578.21,-276.8 1393.28,-263.49 1239.48,-248.4 1105.39,-235.25 1072.18,-229.07 938.34,-213.6 927.02,-212.29 915.22,-210.93 903.43,-209.56"/>
<polygon fill="black" stroke="black" points="904,-206.11 893.66,-208.43 903.19,-213.06 904,-206.11"/>
<text text-anchor="middle" x="1272.91" y="-235.8" font-family="Times,serif" font-size="14.00">fiber&#45;holder</text>
</g>
<!-- cube&#45;mounted/lens.dsn:x -->
<g id="node10" class="node">
<title>cube&#45;mounted/lens.dsn:x</title>
<ellipse fill="none" stroke="black" cx="1055.34" cy="-195.6" rx="107.86" ry="18"/>
<text text-anchor="middle" x="1055.34" y="-191.4" font-family="Times,serif" font-size="14.00">cube&#45;mounted/lens.dsn:x</text>
</g>
<!-- &#45;&gt;cube&#45;mounted/lens.dsn:x -->
<g id="edge3" class="edge">
<title>&#45;&gt;cube&#45;mounted/lens.dsn:x</title>
<path fill="none" stroke="black" d="M1646.98,-279.79C1572.46,-269.57 1353.82,-239.48 1172.34,-213.6 1163.76,-212.38 1154.84,-211.1 1145.91,-209.81"/>
<polygon fill="black" stroke="black" points="1146.52,-206.36 1136.13,-208.39 1145.52,-213.29 1146.52,-206.36"/>
<text text-anchor="middle" x="1444.49" y="-235.8" font-family="Times,serif" font-size="14.00">objective</text>
</g>
<!-- cube&#45;mounted/mirror&#45;diagonal.dsn:_z -->
<g id="node13" class="node">
<title>cube&#45;mounted/mirror&#45;diagonal.dsn:_z</title>
<ellipse fill="none" stroke="black" cx="1673.34" cy="-195.6" rx="157.72" ry="18"/>
<text text-anchor="middle" x="1673.34" y="-191.4" font-family="Times,serif" font-size="14.00">cube&#45;mounted/mirror&#45;diagonal.dsn:_z</text>
</g>
<!-- &#45;&gt;cube&#45;mounted/mirror&#45;diagonal.dsn:_z -->
<g id="edge4" class="edge">
<title>&#45;&gt;cube&#45;mounted/mirror&#45;diagonal.dsn:_z</title>
<path fill="none" stroke="black" d="M1673.34,-266.25C1673.34,-254.56 1673.34,-238.79 1673.34,-225.22"/>
<polygon fill="black" stroke="black" points="1676.84,-225.52 1673.34,-215.52 1669.84,-225.52 1676.84,-225.52"/>
<text text-anchor="middle" x="1713.38" y="-235.8" font-family="Times,serif" font-size="14.00">sample&#45;mirror</text>
</g>
<!-- cube&#45;mounted/mirror&#45;diagonal.dsn:xy -->
<g id="node14" class="node">
<title>cube&#45;mounted/mirror&#45;diagonal.dsn:xy</title>
<ellipse fill="none" stroke="black" cx="1339.34" cy="-195.6" rx="158.27" ry="18"/>
<text text-anchor="middle" x="1339.34" y="-191.4" font-family="Times,serif" font-size="14.00">cube&#45;mounted/mirror&#45;diagonal.dsn:xy</text>
</g>
<!-- &#45;&gt;cube&#45;mounted/mirror&#45;diagonal.dsn:xy -->
<g id="edge5" class="edge">
<title>&#45;&gt;cube&#45;mounted/mirror&#45;diagonal.dsn:xy</title>
<path fill="none" stroke="black" d="M1648.23,-276.88C1598.56,-263.97 1486.11,-234.74 1411.48,-215.35"/>
<polygon fill="black" stroke="black" points="1412.77,-212.07 1402.22,-212.94 1411.01,-218.84 1412.77,-212.07"/>
<text text-anchor="middle" x="1569.68" y="-235.8" font-family="Times,serif" font-size="14.00">laser&#45;mirror</text>
</g>
<!-- primitives/electronics&#45;mainboard.dsn -->
<g id="node15" class="node">
<title>primitives/electronics&#45;mainboard.dsn</title>
<ellipse fill="none" stroke="black" cx="2004.34" cy="-195.6" rx="155.05" ry="18"/>
<text text-anchor="middle" x="2004.34" y="-191.4" font-family="Times,serif" font-size="14.00">primitives/electronics&#45;mainboard.dsn</text>
</g>
<!-- &#45;&gt;primitives/electronics&#45;mainboard.dsn -->
<g id="edge6" class="edge">
<title>&#45;&gt;primitives/electronics&#45;mainboard.dsn</title>
<path fill="none" stroke="black" d="M1698.22,-276.88C1747.34,-263.99 1858.43,-234.86 1932.39,-215.47"/>
<polygon fill="black" stroke="black" points="1933.22,-218.87 1942.01,-212.94 1931.45,-212.1 1933.22,-218.87"/>
<text text-anchor="middle" x="1928.34" y="-235.8" font-family="Times,serif" font-size="14.00">electronics&#45;controller</text>
</g>
<!-- primitives/hikcamera&#45;with&#45;objective.dsn -->
<g id="node16" class="node">
<title>primitives/hikcamera&#45;with&#45;objective.dsn</title>
<ellipse fill="none" stroke="black" cx="2345.34" cy="-195.6" rx="167.91" ry="18"/>
<text text-anchor="middle" x="2345.34" y="-191.4" font-family="Times,serif" font-size="14.00">primitives/hikcamera&#45;with&#45;objective.dsn</text>
</g>
<!-- &#45;&gt;primitives/hikcamera&#45;with&#45;objective.dsn -->
<g id="edge7" class="edge">
<title>&#45;&gt;primitives/hikcamera&#45;with&#45;objective.dsn</title>
<path fill="none" stroke="black" d="M1700.26,-280.78C1755.23,-275.36 1884.3,-262.25 1992.34,-248.4 2076.61,-237.6 2171.91,-223.5 2242.23,-212.74"/>
<polygon fill="black" stroke="black" points="2242.45,-216.25 2251.8,-211.27 2241.39,-209.33 2242.45,-216.25"/>
<text text-anchor="middle" x="2129.19" y="-235.8" font-family="Times,serif" font-size="14.00">camera</text>
</g>
<!-- primitives/laser.dsn -->
<g id="node21" class="node">
<title>primitives/laser.dsn</title>
<ellipse fill="none" stroke="black" cx="2618.34" cy="-195.6" rx="86.94" ry="18"/>
<text text-anchor="middle" x="2618.34" y="-191.4" font-family="Times,serif" font-size="14.00">primitives/laser.dsn</text>
</g>
<!-- &#45;&gt;primitives/laser.dsn -->
<g id="edge8" class="edge">
<title>&#45;&gt;primitives/laser.dsn</title>
<path fill="none" stroke="black" d="M1700.57,-282.21C1806.44,-277.34 2200.65,-257.18 2522.34,-213.6 2529.52,-212.63 2536.99,-211.5 2544.44,-210.31"/>
<polygon fill="black" stroke="black" points="2544.92,-213.78 2554.22,-208.69 2543.78,-206.87 2544.92,-213.78"/>
<text text-anchor="middle" x="2388.13" y="-235.8" font-family="Times,serif" font-size="14.00">blue&#45;laser</text>
</g>
<!-- primitives/xyz&#45;stage.dsn -->
<g id="node23" class="node">
<title>primitives/xyz&#45;stage.dsn</title>
<ellipse fill="none" stroke="black" cx="2829.34" cy="-195.6" rx="105.71" ry="18"/>
<text text-anchor="middle" x="2829.34" y="-191.4" font-family="Times,serif" font-size="14.00">primitives/xyz&#45;stage.dsn</text>
</g>
<!-- &#45;&gt;primitives/xyz&#45;stage.dsn -->
<g id="edge9" class="edge">
<title>&#45;&gt;primitives/xyz&#45;stage.dsn</title>
<path fill="none" stroke="black" d="M1700.48,-282.82C1797.88,-280.58 2138.93,-271.49 2419.34,-248.4 2550.91,-237.57 2583.47,-230.99 2714.34,-213.6 2722.99,-212.45 2732,-211.2 2741,-209.93"/>
<polygon fill="black" stroke="black" points="2741.47,-213.4 2750.87,-208.51 2740.47,-206.47 2741.47,-213.4"/>
<text text-anchor="middle" x="2613.48" y="-235.8" font-family="Times,serif" font-size="14.00">sample&#45;stage</text>
</g>
<!-- cube&#45;mounted/dichroic&#45;mirror.dsn/mounted&#45;mirror.dsn -->
<g id="node2" class="node">
<title>cube&#45;mounted/dichroic&#45;mirror.dsn/mounted&#45;mirror.dsn</title>
<ellipse fill="none" stroke="black" cx="351.34" cy="-106.8" rx="88.55" ry="18"/>
<text text-anchor="middle" x="351.34" y="-102.6" font-family="Times,serif" font-size="14.00">mounted&#45;mirror.dsn</text>
</g>
<!-- cube&#45;mounted/dichroic&#45;mirror.dsn/primitives/cube&#45;skeleton.dsn -->
<g id="node3" class="node">
<title>cube&#45;mounted/dichroic&#45;mirror.dsn/primitives/cube&#45;skeleton.dsn</title>
<ellipse fill="none" stroke="black" cx="122.34" cy="-106.8" rx="122.34" ry="18"/>
<text text-anchor="middle" x="122.34" y="-102.6" font-family="Times,serif" font-size="14.00">primitives/cube&#45;skeleton.dsn</text>
</g>
<!-- cube&#45;mounted/dichroic&#45;mirror.dsn:xy&#45;&gt;cube&#45;mounted/dichroic&#45;mirror.dsn/mounted&#45;mirror.dsn -->
<g id="edge10" class="edge">
<title>cube&#45;mounted/dichroic&#45;mirror.dsn:xy&#45;&gt;cube&#45;mounted/dichroic&#45;mirror.dsn/mounted&#45;mirror.dsn</title>
<path fill="none" stroke="black" d="M351.34,-177.45C351.34,-165.76 351.34,-149.99 351.34,-136.42"/>
<polygon fill="black" stroke="black" points="354.84,-136.72 351.34,-126.72 347.84,-136.72 354.84,-136.72"/>
<text text-anchor="middle" x="396.05" y="-147" font-family="Times,serif" font-size="14.00">mounted&#45;mirror</text>
</g>
<!-- cube&#45;mounted/dichroic&#45;mirror.dsn:xy&#45;&gt;cube&#45;mounted/dichroic&#45;mirror.dsn/primitives/cube&#45;skeleton.dsn -->
<g id="edge11" class="edge">
<title>cube&#45;mounted/dichroic&#45;mirror.dsn:xy&#45;&gt;cube&#45;mounted/dichroic&#45;mirror.dsn/primitives/cube&#45;skeleton.dsn</title>
<path fill="none" stroke="black" d="M307.18,-177.86C269.68,-163.65 215.74,-143.2 175.8,-128.06"/>
<polygon fill="black" stroke="black" points="177.2,-124.85 166.61,-124.58 174.72,-131.4 177.2,-124.85"/>
<text text-anchor="middle" x="280.68" y="-147" font-family="Times,serif" font-size="14.00">skeleton</text>
</g>
<!-- cube&#45;mounted/fiber&#45;holder.dsn/mounted&#45;holder.dsn -->
<g id="node5" class="node">
<title>cube&#45;mounted/fiber&#45;holder.dsn/mounted&#45;holder.dsn</title>
<ellipse fill="none" stroke="black" cx="809.34" cy="-106.8" rx="88.55" ry="18"/>
<text text-anchor="middle" x="809.34" y="-102.6" font-family="Times,serif" font-size="14.00">mounted&#45;holder.dsn</text>
</g>
<!-- cube&#45;mounted/fiber&#45;holder.dsn/primitives/cube&#45;skeleton.dsn -->
<g id="node6" class="node">
<title>cube&#45;mounted/fiber&#45;holder.dsn/primitives/cube&#45;skeleton.dsn</title>
<ellipse fill="none" stroke="black" cx="580.34" cy="-106.8" rx="122.34" ry="18"/>
<text text-anchor="middle" x="580.34" y="-102.6" font-family="Times,serif" font-size="14.00">primitives/cube&#45;skeleton.dsn</text>
</g>
<!-- cube&#45;mounted/fiber&#45;holder.dsn:x&#45;&gt;cube&#45;mounted/fiber&#45;holder.dsn/mounted&#45;holder.dsn -->
<g id="edge12" class="edge">
<title>cube&#45;mounted/fiber&#45;holder.dsn:x&#45;&gt;cube&#45;mounted/fiber&#45;holder.dsn/mounted&#45;holder.dsn</title>
<path fill="none" stroke="black" d="M794.89,-177.45C797.32,-165.76 800.59,-149.99 803.4,-136.42"/>
<polygon fill="black" stroke="black" points="806.82,-137.19 805.42,-126.69 799.96,-135.77 806.82,-137.19"/>
<text text-anchor="middle" x="862.2" y="-147" font-family="Times,serif" font-size="14.00">mounted&#45;fiber&#45;holder</text>
</g>
<!-- cube&#45;mounted/fiber&#45;holder.dsn:x&#45;&gt;cube&#45;mounted/fiber&#45;holder.dsn/primitives/cube&#45;skeleton.dsn -->
<g id="edge13" class="edge">
<title>cube&#45;mounted/fiber&#45;holder.dsn:x&#45;&gt;cube&#45;mounted/fiber&#45;holder.dsn/primitives/cube&#45;skeleton.dsn</title>
<path fill="none" stroke="black" d="M751.15,-178.07C716.98,-164.01 667.74,-143.75 630.89,-128.6"/>
<polygon fill="black" stroke="black" points="632.35,-125.41 621.77,-124.85 629.69,-131.89 632.35,-125.41"/>
<text text-anchor="middle" x="728.06" y="-147" font-family="Times,serif" font-size="14.00">skeleton</text>
</g>
<!-- cube&#45;mounted/lens.dsn/mounted&#45;lens.dsn -->
<g id="node8" class="node">
<title>cube&#45;mounted/lens.dsn/mounted&#45;lens.dsn</title>
<ellipse fill="none" stroke="black" cx="1258.34" cy="-106.8" rx="79.43" ry="18"/>
<text text-anchor="middle" x="1258.34" y="-102.6" font-family="Times,serif" font-size="14.00">mounted&#45;lens.dsn</text>
</g>
<!-- cube&#45;mounted/lens.dsn/primitives/cube&#45;skeleton.dsn -->
<g id="node9" class="node">
<title>cube&#45;mounted/lens.dsn/primitives/cube&#45;skeleton.dsn</title>
<ellipse fill="none" stroke="black" cx="1038.34" cy="-106.8" rx="122.34" ry="18"/>
<text text-anchor="middle" x="1038.34" y="-102.6" font-family="Times,serif" font-size="14.00">primitives/cube&#45;skeleton.dsn</text>
</g>
<!-- cube&#45;mounted/lens.dsn:x&#45;&gt;cube&#45;mounted/lens.dsn/mounted&#45;lens.dsn -->
<g id="edge14" class="edge">
<title>cube&#45;mounted/lens.dsn:x&#45;&gt;cube&#45;mounted/lens.dsn/mounted&#45;lens.dsn</title>
<path fill="none" stroke="black" d="M1093.04,-178.48C1126.65,-164.11 1175.94,-143.03 1211.95,-127.63"/>
<polygon fill="black" stroke="black" points="1212.99,-131 1220.8,-123.85 1210.23,-124.56 1212.99,-131"/>
<text text-anchor="middle" x="1213.12" y="-147" font-family="Times,serif" font-size="14.00">mounted&#45;lens</text>
</g>
<!-- cube&#45;mounted/lens.dsn:x&#45;&gt;cube&#45;mounted/lens.dsn/primitives/cube&#45;skeleton.dsn -->
<g id="edge15" class="edge">
<title>cube&#45;mounted/lens.dsn:x&#45;&gt;cube&#45;mounted/lens.dsn/primitives/cube&#45;skeleton.dsn</title>
<path fill="none" stroke="black" d="M1051.98,-177.45C1049.69,-165.76 1046.6,-149.99 1043.94,-136.42"/>
<polygon fill="black" stroke="black" points="1047.39,-135.84 1042.04,-126.7 1040.52,-137.18 1047.39,-135.84"/>
<text text-anchor="middle" x="1071.69" y="-147" font-family="Times,serif" font-size="14.00">skeleton</text>
</g>
<!-- cube&#45;mounted/mirror&#45;diagonal.dsn/mounted&#45;mirror.dsn -->
<g id="node11" class="node">
<title>cube&#45;mounted/mirror&#45;diagonal.dsn/mounted&#45;mirror.dsn</title>
<ellipse fill="none" stroke="black" cx="1444.34" cy="-106.8" rx="88.55" ry="18"/>
<text text-anchor="middle" x="1444.34" y="-102.6" font-family="Times,serif" font-size="14.00">mounted&#45;mirror.dsn</text>
</g>
<!-- cube&#45;mounted/mirror&#45;diagonal.dsn/primitives/cube&#45;skeleton.dsn -->
<g id="node12" class="node">
<title>cube&#45;mounted/mirror&#45;diagonal.dsn/primitives/cube&#45;skeleton.dsn</title>
<ellipse fill="none" stroke="black" cx="1673.34" cy="-106.8" rx="122.34" ry="18"/>
<text text-anchor="middle" x="1673.34" y="-102.6" font-family="Times,serif" font-size="14.00">primitives/cube&#45;skeleton.dsn</text>
</g>
<!-- cube&#45;mounted/mirror&#45;diagonal.dsn:_z&#45;&gt;cube&#45;mounted/mirror&#45;diagonal.dsn/mounted&#45;mirror.dsn -->
<g id="edge16" class="edge">
<title>cube&#45;mounted/mirror&#45;diagonal.dsn:_z&#45;&gt;cube&#45;mounted/mirror&#45;diagonal.dsn/mounted&#45;mirror.dsn</title>
<path fill="none" stroke="black" d="M1628.64,-177.95C1613.19,-172.17 1595.78,-165.63 1579.92,-159.6 1560.51,-152.23 1555.72,-150.22 1536.34,-142.8 1522.99,-137.69 1508.54,-132.18 1495.14,-127.08"/>
<polygon fill="black" stroke="black" points="1496.66,-123.92 1486.07,-123.63 1494.17,-130.46 1496.66,-123.92"/>
<text text-anchor="middle" x="1624.63" y="-147" font-family="Times,serif" font-size="14.00">mounted&#45;mirror</text>
</g>
<!-- cube&#45;mounted/mirror&#45;diagonal.dsn:_z&#45;&gt;cube&#45;mounted/mirror&#45;diagonal.dsn/primitives/cube&#45;skeleton.dsn -->
<g id="edge17" class="edge">
<title>cube&#45;mounted/mirror&#45;diagonal.dsn:_z&#45;&gt;cube&#45;mounted/mirror&#45;diagonal.dsn/primitives/cube&#45;skeleton.dsn</title>
<path fill="none" stroke="black" d="M1673.34,-177.45C1673.34,-165.76 1673.34,-149.99 1673.34,-136.42"/>
<polygon fill="black" stroke="black" points="1676.84,-136.72 1673.34,-126.72 1669.84,-136.72 1676.84,-136.72"/>
<text text-anchor="middle" x="1696.66" y="-147" font-family="Times,serif" font-size="14.00">skeleton</text>
</g>
<!-- cube&#45;mounted/mirror&#45;diagonal.dsn:xy&#45;&gt;cube&#45;mounted/mirror&#45;diagonal.dsn/mounted&#45;mirror.dsn -->
<g id="edge18" class="edge">
<title>cube&#45;mounted/mirror&#45;diagonal.dsn:xy&#45;&gt;cube&#45;mounted/mirror&#45;diagonal.dsn/mounted&#45;mirror.dsn</title>
<path fill="none" stroke="black" d="M1347.73,-177.53C1353.81,-166.53 1362.88,-152.52 1373.92,-142.8 1380.05,-137.4 1387.16,-132.62 1394.45,-128.46"/>
<polygon fill="black" stroke="black" points="1395.91,-131.64 1403.11,-123.87 1392.63,-125.46 1395.91,-131.64"/>
<text text-anchor="middle" x="1418.63" y="-147" font-family="Times,serif" font-size="14.00">mounted&#45;mirror</text>
</g>
<!-- cube&#45;mounted/mirror&#45;diagonal.dsn:xy&#45;&gt;cube&#45;mounted/mirror&#45;diagonal.dsn/primitives/cube&#45;skeleton.dsn -->
<g id="edge19" class="edge">
<title>cube&#45;mounted/mirror&#45;diagonal.dsn:xy&#45;&gt;cube&#45;mounted/mirror&#45;diagonal.dsn/primitives/cube&#45;skeleton.dsn</title>
<path fill="none" stroke="black" d="M1411.19,-179.17C1428.72,-174.1 1447.1,-167.64 1463.34,-159.6 1474.47,-154.09 1474.31,-147.8 1485.68,-142.8 1502.45,-135.42 1539.75,-127.88 1576.71,-121.71"/>
<polygon fill="black" stroke="black" points="1576.83,-125.23 1586.13,-120.16 1575.7,-118.32 1576.83,-125.23"/>
<text text-anchor="middle" x="1509.01" y="-147" font-family="Times,serif" font-size="14.00">skeleton</text>
</g>
<!-- primitives/hikcamera&#45;with&#45;objective.dsn/camera.dsn -->
<g id="node17" class="node">
<title>primitives/hikcamera&#45;with&#45;objective.dsn/camera.dsn</title>
<ellipse fill="none" stroke="black" cx="2409.34" cy="-106.8" rx="54.74" ry="18"/>
<text text-anchor="middle" x="2409.34" y="-102.6" font-family="Times,serif" font-size="14.00">camera.dsn</text>
</g>
<!-- primitives/hikcamera&#45;with&#45;objective.dsn&#45;&gt;primitives/hikcamera&#45;with&#45;objective.dsn/camera.dsn -->
<g id="edge20" class="edge">
<title>primitives/hikcamera&#45;with&#45;objective.dsn&#45;&gt;primitives/hikcamera&#45;with&#45;objective.dsn/camera.dsn</title>
<path fill="none" stroke="black" d="M2357.98,-177.45C2367.16,-165.01 2379.73,-147.95 2390.14,-133.83"/>
<polygon fill="black" stroke="black" points="2392.92,-135.96 2396.04,-125.84 2387.29,-131.81 2392.92,-135.96"/>
<text text-anchor="middle" x="2403.27" y="-147" font-family="Times,serif" font-size="14.00">camera</text>
</g>
<!-- primitives/hikcamera&#45;with&#45;objective.dsn/mounted&#45;objective.dsn -->
<g id="node18" class="node">
<title>primitives/hikcamera&#45;with&#45;objective.dsn/mounted&#45;objective.dsn</title>
<ellipse fill="none" stroke="black" cx="2237.34" cy="-106.8" rx="99.27" ry="18"/>
<text text-anchor="middle" x="2237.34" y="-102.6" font-family="Times,serif" font-size="14.00">mounted&#45;objective.dsn</text>
</g>
<!-- primitives/hikcamera&#45;with&#45;objective.dsn&#45;&gt;primitives/hikcamera&#45;with&#45;objective.dsn/mounted&#45;objective.dsn -->
<g id="edge21" class="edge">
<title>primitives/hikcamera&#45;with&#45;objective.dsn&#45;&gt;primitives/hikcamera&#45;with&#45;objective.dsn/mounted&#45;objective.dsn</title>
<path fill="none" stroke="black" d="M2290.58,-178.16C2280.38,-173.34 2270.42,-167.25 2262.37,-159.6 2255.45,-153.02 2250.2,-144.13 2246.35,-135.57"/>
<polygon fill="black" stroke="black" points="2249.7,-134.51 2242.75,-126.51 2243.19,-137.1 2249.7,-134.51"/>
<text text-anchor="middle" x="2314.85" y="-147" font-family="Times,serif" font-size="14.00">mounted&#45;objective</text>
</g>
<!-- primitives/hikcamera&#45;with&#45;objective.dsn/mounted&#45;objective.dsn/half&#45;case.dsn -->
<g id="node19" class="node">
<title>primitives/hikcamera&#45;with&#45;objective.dsn/mounted&#45;objective.dsn/half&#45;case.dsn</title>
<ellipse fill="none" stroke="black" cx="2166.34" cy="-18" rx="61.71" ry="18"/>
<text text-anchor="middle" x="2166.34" y="-13.8" font-family="Times,serif" font-size="14.00">half&#45;case.dsn</text>
</g>
<!-- primitives/hikcamera&#45;with&#45;objective.dsn/mounted&#45;objective.dsn&#45;&gt;primitives/hikcamera&#45;with&#45;objective.dsn/mounted&#45;objective.dsn/half&#45;case.dsn -->
<g id="edge22" class="edge">
<title>primitives/hikcamera&#45;with&#45;objective.dsn/mounted&#45;objective.dsn&#45;&gt;primitives/hikcamera&#45;with&#45;objective.dsn/mounted&#45;objective.dsn/half&#45;case.dsn</title>
<path fill="none" stroke="black" d="M2164.95,-94.15C2139.64,-88.49 2115.62,-80.73 2108.03,-70.8 2099.07,-59.09 2108.27,-47.97 2121.82,-39.06"/>
<polygon fill="black" stroke="black" points="2123.55,-42.1 2130.41,-34.03 2120.01,-36.06 2123.55,-42.1"/>
<text text-anchor="middle" x="2161.68" y="-58.2" font-family="Times,serif" font-size="14.00">lens&#45;holder&#45;bottom</text>
</g>
<!-- primitives/hikcamera&#45;with&#45;objective.dsn/mounted&#45;objective.dsn&#45;&gt;primitives/hikcamera&#45;with&#45;objective.dsn/mounted&#45;objective.dsn/half&#45;case.dsn -->
<g id="edge23" class="edge">
<title>primitives/hikcamera&#45;with&#45;objective.dsn/mounted&#45;objective.dsn&#45;&gt;primitives/hikcamera&#45;with&#45;objective.dsn/mounted&#45;objective.dsn/half&#45;case.dsn</title>
<path fill="none" stroke="black" d="M2232.69,-88.68C2229.17,-77.93 2223.53,-64.21 2215.34,-54 2211.67,-49.43 2207.26,-45.18 2202.6,-41.33"/>
<polygon fill="black" stroke="black" points="2204.79,-38.6 2194.7,-35.36 2200.57,-44.18 2204.79,-38.6"/>
<text text-anchor="middle" x="2267.8" y="-58.2" font-family="Times,serif" font-size="14.00">lens&#45;holder&#45;top</text>
</g>
<!-- primitives/hikcamera&#45;with&#45;objective.dsn/mounted&#45;objective.dsn/lens.dsn -->
<g id="node20" class="node">
<title>primitives/hikcamera&#45;with&#45;objective.dsn/mounted&#45;objective.dsn/lens.dsn</title>
<ellipse fill="none" stroke="black" cx="2346.34" cy="-18" rx="42.42" ry="18"/>
<text text-anchor="middle" x="2346.34" y="-13.8" font-family="Times,serif" font-size="14.00">lens.dsn</text>
</g>
<!-- primitives/hikcamera&#45;with&#45;objective.dsn/mounted&#45;objective.dsn&#45;&gt;primitives/hikcamera&#45;with&#45;objective.dsn/mounted&#45;objective.dsn/lens.dsn -->
<g id="edge24" class="edge">
<title>primitives/hikcamera&#45;with&#45;objective.dsn/mounted&#45;objective.dsn&#45;&gt;primitives/hikcamera&#45;with&#45;objective.dsn/mounted&#45;objective.dsn/lens.dsn</title>
<path fill="none" stroke="black" d="M2282.77,-90.49C2293.88,-85.37 2305.19,-78.86 2314.34,-70.8 2322.09,-63.97 2328.59,-54.8 2333.66,-46.08"/>
<polygon fill="black" stroke="black" points="2336.6,-48.01 2338.23,-37.55 2330.42,-44.71 2336.6,-48.01"/>
<text text-anchor="middle" x="2339.65" y="-58.2" font-family="Times,serif" font-size="14.00">lens</text>
</g>
<!-- primitives/laser.dsn/half&#45;case.dsn -->
<g id="node22" class="node">
<title>primitives/laser.dsn/half&#45;case.dsn</title>
<ellipse fill="none" stroke="black" cx="2563.34" cy="-106.8" rx="61.71" ry="18"/>
<text text-anchor="middle" x="2563.34" y="-102.6" font-family="Times,serif" font-size="14.00">half&#45;case.dsn</text>
</g>
<!-- primitives/laser.dsn&#45;&gt;primitives/laser.dsn/half&#45;case.dsn -->
<g id="edge25" class="edge">
<title>primitives/laser.dsn&#45;&gt;primitives/laser.dsn/half&#45;case.dsn</title>
<path fill="none" stroke="black" d="M2569.64,-180.36C2560.23,-175.33 2551.56,-168.59 2545.92,-159.6 2541.16,-152.03 2542.27,-143.01 2545.57,-134.64"/>
<polygon fill="black" stroke="black" points="2548.6,-136.4 2549.96,-125.9 2542.34,-133.26 2548.6,-136.4"/>
<text text-anchor="middle" x="2580.13" y="-147" font-family="Times,serif" font-size="14.00">case&#45;bottom</text>
</g>
<!-- primitives/laser.dsn&#45;&gt;primitives/laser.dsn/half&#45;case.dsn -->
<g id="edge26" class="edge">
<title>primitives/laser.dsn&#45;&gt;primitives/laser.dsn/half&#45;case.dsn</title>
<path fill="none" stroke="black" d="M2620.62,-177.17C2621.16,-166.56 2620.29,-153.11 2614.34,-142.8 2611.46,-137.81 2607.55,-133.38 2603.17,-129.48"/>
<polygon fill="black" stroke="black" points="2605.56,-126.91 2595.5,-123.58 2601.29,-132.46 2605.56,-126.91"/>
<text text-anchor="middle" x="2643.04" y="-147" font-family="Times,serif" font-size="14.00">case&#45;top</text>
</g>
<!-- primitives/xyz&#45;stage.dsn/base.dsn -->
<g id="node24" class="node">
<title>primitives/xyz&#45;stage.dsn/base.dsn</title>
<ellipse fill="none" stroke="black" cx="2698.34" cy="-106.8" rx="44.02" ry="18"/>
<text text-anchor="middle" x="2698.34" y="-102.6" font-family="Times,serif" font-size="14.00">base.dsn</text>
</g>
<!-- primitives/xyz&#45;stage.dsn&#45;&gt;primitives/xyz&#45;stage.dsn/base.dsn -->
<g id="edge27" class="edge">
<title>primitives/xyz&#45;stage.dsn&#45;&gt;primitives/xyz&#45;stage.dsn/base.dsn</title>
<path fill="none" stroke="black" d="M2803.77,-177.66C2782.75,-163.73 2752.87,-143.93 2730.28,-128.97"/>
<polygon fill="black" stroke="black" points="2732.32,-126.12 2722.05,-123.51 2728.45,-131.95 2732.32,-126.12"/>
<text text-anchor="middle" x="2788.01" y="-147" font-family="Times,serif" font-size="14.00">base</text>
</g>
<!-- primitives/xyz&#45;stage.dsn/xy&#45;plate.dsn -->
<g id="node26" class="node">
<title>primitives/xyz&#45;stage.dsn/xy&#45;plate.dsn</title>
<ellipse fill="none" stroke="black" cx="2829.34" cy="-106.8" rx="58.51" ry="18"/>
<text text-anchor="middle" x="2829.34" y="-102.6" font-family="Times,serif" font-size="14.00">xy&#45;plate.dsn</text>
</g>
<!-- primitives/xyz&#45;stage.dsn&#45;&gt;primitives/xyz&#45;stage.dsn/xy&#45;plate.dsn -->
<g id="edge28" class="edge">
<title>primitives/xyz&#45;stage.dsn&#45;&gt;primitives/xyz&#45;stage.dsn/xy&#45;plate.dsn</title>
<path fill="none" stroke="black" d="M2829.34,-177.45C2829.34,-165.76 2829.34,-149.99 2829.34,-136.42"/>
<polygon fill="black" stroke="black" points="2832.84,-136.72 2829.34,-126.72 2825.84,-136.72 2832.84,-136.72"/>
<text text-anchor="middle" x="2852.27" y="-147" font-family="Times,serif" font-size="14.00">xy&#45;plate</text>
</g>
<!-- primitives/xyz&#45;stage.dsn/yz&#45;plate.dsn -->
<g id="node28" class="node">
<title>primitives/xyz&#45;stage.dsn/yz&#45;plate.dsn</title>
<ellipse fill="none" stroke="black" cx="3054.34" cy="-106.8" rx="57.96" ry="18"/>
<text text-anchor="middle" x="3054.34" y="-102.6" font-family="Times,serif" font-size="14.00">yz&#45;plate.dsn</text>
</g>
<!-- primitives/xyz&#45;stage.dsn&#45;&gt;primitives/xyz&#45;stage.dsn/yz&#45;plate.dsn -->
<g id="edge29" class="edge">
<title>primitives/xyz&#45;stage.dsn&#45;&gt;primitives/xyz&#45;stage.dsn/yz&#45;plate.dsn</title>
<path fill="none" stroke="black" d="M2870.87,-178.58C2909.83,-163.55 2968,-141.11 3008.35,-125.54"/>
<polygon fill="black" stroke="black" points="3009.49,-128.85 3017.56,-121.99 3006.97,-122.32 3009.49,-128.85"/>
<text text-anchor="middle" x="2984.53" y="-147" font-family="Times,serif" font-size="14.00">yz&#45;plate</text>
</g>
<!-- primitives/xyz&#45;stage.dsn/base.dsn/primitives/motor&#45;push&#45;rod.dsn -->
<g id="node25" class="node">
<title>primitives/xyz&#45;stage.dsn/base.dsn/primitives/motor&#45;push&#45;rod.dsn</title>
<ellipse fill="none" stroke="black" cx="2552.34" cy="-18" rx="129.32" ry="18"/>
<text text-anchor="middle" x="2552.34" y="-13.8" font-family="Times,serif" font-size="14.00">primitives/motor&#45;push&#45;rod.dsn</text>
</g>
<!-- primitives/xyz&#45;stage.dsn/base.dsn&#45;&gt;primitives/xyz&#45;stage.dsn/base.dsn/primitives/motor&#45;push&#45;rod.dsn -->
<g id="edge30" class="edge">
<title>primitives/xyz&#45;stage.dsn/base.dsn&#45;&gt;primitives/xyz&#45;stage.dsn/base.dsn/primitives/motor&#45;push&#45;rod.dsn</title>
<path fill="none" stroke="black" d="M2674.23,-91.47C2651.53,-77.97 2617.17,-57.55 2590.71,-41.81"/>
<polygon fill="black" stroke="black" points="2592.68,-38.91 2582.3,-36.81 2589.1,-44.93 2592.68,-38.91"/>
<text text-anchor="middle" x="2655.13" y="-58.2" font-family="Times,serif" font-size="14.00">motor</text>
</g>
<!-- primitives/xyz&#45;stage.dsn/xy&#45;plate.dsn/primitives/motor&#45;push&#45;rod.dsn -->
<g id="node27" class="node">
<title>primitives/xyz&#45;stage.dsn/xy&#45;plate.dsn/primitives/motor&#45;push&#45;rod.dsn</title>
<ellipse fill="none" stroke="black" cx="2829.34" cy="-18" rx="129.32" ry="18"/>
<text text-anchor="middle" x="2829.34" y="-13.8" font-family="Times,serif" font-size="14.00">primitives/motor&#45;push&#45;rod.dsn</text>
</g>
<!-- primitives/xyz&#45;stage.dsn/xy&#45;plate.dsn&#45;&gt;primitives/xyz&#45;stage.dsn/xy&#45;plate.dsn/primitives/motor&#45;push&#45;rod.dsn -->
<g id="edge31" class="edge">
<title>primitives/xyz&#45;stage.dsn/xy&#45;plate.dsn&#45;&gt;primitives/xyz&#45;stage.dsn/xy&#45;plate.dsn/primitives/motor&#45;push&#45;rod.dsn</title>
<path fill="none" stroke="black" d="M2829.34,-88.65C2829.34,-76.96 2829.34,-61.19 2829.34,-47.62"/>
<polygon fill="black" stroke="black" points="2832.84,-47.92 2829.34,-37.92 2825.84,-47.92 2832.84,-47.92"/>
<text text-anchor="middle" x="2846.06" y="-58.2" font-family="Times,serif" font-size="14.00">motor</text>
</g>
<!-- primitives/xyz&#45;stage.dsn/yz&#45;plate.dsn/primitives/motor&#45;push&#45;rod.dsn -->
<g id="node29" class="node">
<title>primitives/xyz&#45;stage.dsn/yz&#45;plate.dsn/primitives/motor&#45;push&#45;rod.dsn</title>
<ellipse fill="none" stroke="black" cx="3106.34" cy="-18" rx="129.32" ry="18"/>
<text text-anchor="middle" x="3106.34" y="-13.8" font-family="Times,serif" font-size="14.00">primitives/motor&#45;push&#45;rod.dsn</text>
</g>
<!-- primitives/xyz&#45;stage.dsn/yz&#45;plate.dsn&#45;&gt;primitives/xyz&#45;stage.dsn/yz&#45;plate.dsn/primitives/motor&#45;push&#45;rod.dsn -->
<g id="edge32" class="edge">
<title>primitives/xyz&#45;stage.dsn/yz&#45;plate.dsn&#45;&gt;primitives/xyz&#45;stage.dsn/yz&#45;plate.dsn/primitives/motor&#45;push&#45;rod.dsn</title>
<path fill="none" stroke="black" d="M3064.61,-88.65C3071.9,-76.49 3081.83,-59.91 3090.17,-45.98"/>
<polygon fill="black" stroke="black" points="3092.99,-48.09 3095.13,-37.71 3086.99,-44.49 3092.99,-48.09"/>
<text text-anchor="middle" x="3101.71" y="-58.2" font-family="Times,serif" font-size="14.00">motor</text>
</g>
</g>
</svg>
