<?xml version="1.0" encoding="UTF-8" standalone="no"?>
<!DOCTYPE svg PUBLIC "-//W3C//DTD SVG 1.1//EN"
 "http://www.w3.org/Graphics/SVG/1.1/DTD/svg11.dtd">
<!-- Generated by graphviz version 12.1.2 (20240928.0832)
 -->
<!-- Pages: 1 -->
<svg width="946pt" height="295pt"
 viewBox="0.00 0.00 946.33 294.60" xmlns="http://www.w3.org/2000/svg" xmlns:xlink="http://www.w3.org/1999/xlink">
<g id="graph0" class="graph" transform="scale(1 1) rotate(0) translate(4 290.6)">
<polygon fill="white" stroke="none" points="-4,4 -4,-290.6 942.33,-290.6 942.33,4 -4,4"/>
<g id="node1" class="node">
<title></title>
<ellipse fill="none" stroke="black" cx="565.07" cy="-268.6" rx="27" ry="18"/>
</g>
<!-- mounted&#45;mirror -->
<g id="node2" class="node">
<title>mounted&#45;mirror</title>
<ellipse fill="none" stroke="black" cx="340.07" cy="-179.8" rx="72.72" ry="18"/>
<text text-anchor="middle" x="340.07" y="-175.6" font-family="Times,serif" font-size="14.00">mounted&#45;mirror</text>
</g>
<!-- &#45;&gt;mounted&#45;mirror -->
<g id="edge1" class="edge">
<title>&#45;&gt;mounted&#45;mirror</title>
<path fill="none" stroke="black" d="M540.19,-261.3C516.37,-254.99 479.6,-244.53 448.7,-232.6 425.47,-223.63 400.31,-211.78 380.07,-201.68"/>
<polygon fill="black" stroke="black" points="381.82,-198.64 371.32,-197.26 378.67,-204.89 381.82,-198.64"/>
<text text-anchor="middle" x="504.89" y="-220" font-family="Times,serif" font-size="14.00">mounted&#45;mirror.dsn</text>
</g>
<!-- skeleton -->
<g id="node10" class="node">
<title>skeleton</title>
<ellipse fill="none" stroke="black" cx="565.07" cy="-179.8" rx="43.22" ry="18"/>
<text text-anchor="middle" x="565.07" y="-175.6" font-family="Times,serif" font-size="14.00">skeleton</text>
</g>
<!-- &#45;&gt;skeleton -->
<g id="edge2" class="edge">
<title>&#45;&gt;skeleton</title>
<path fill="none" stroke="black" d="M565.07,-250.45C565.07,-238.76 565.07,-222.99 565.07,-209.42"/>
<polygon fill="black" stroke="black" points="568.57,-209.72 565.07,-199.72 561.57,-209.72 568.57,-209.72"/>
<text text-anchor="middle" x="645.75" y="-220" font-family="Times,serif" font-size="14.00">primitives/cube&#45;skeleton.dsn</text>
</g>
<!-- skeleton&#45;extra -->
<g id="node11" class="node">
<title>skeleton&#45;extra</title>
<ellipse fill="none" stroke="black" cx="766.07" cy="-179.8" rx="65.73" ry="18"/>
<text text-anchor="middle" x="766.07" y="-175.6" font-family="Times,serif" font-size="14.00">skeleton&#45;extra</text>
</g>
<!-- &#45;&gt;skeleton&#45;extra -->
<g id="edge3" class="edge">
<title>&#45;&gt;skeleton&#45;extra</title>
<path fill="none" stroke="black" d="M592.25,-267.8C627.01,-266.79 687.75,-260.71 730.07,-232.6 739.45,-226.37 747.11,-216.79 752.91,-207.55"/>
<polygon fill="black" stroke="black" points="755.78,-209.57 757.71,-199.16 749.71,-206.1 755.78,-209.57"/>
<text text-anchor="middle" x="827.81" y="-220" font-family="Times,serif" font-size="14.00">primitives/cube&#45;skeleton.dsn</text>
</g>
<!-- mounted&#45;mirror/cube&#45;insert -->
<g id="node3" class="node">
<title>mounted&#45;mirror/cube&#45;insert</title>
<ellipse fill="none" stroke="black" cx="203.07" cy="-91" rx="53.94" ry="18"/>
<text text-anchor="middle" x="203.07" y="-86.8" font-family="Times,serif" font-size="14.00">cube&#45;insert</text>
</g>
<!-- mounted&#45;mirror&#45;&gt;mounted&#45;mirror/cube&#45;insert -->
<g id="edge4" class="edge">
<title>mounted&#45;mirror&#45;&gt;mounted&#45;mirror/cube&#45;insert</title>
<path fill="none" stroke="black" d="M314.63,-162.68C292.73,-148.8 260.95,-128.67 236.91,-113.44"/>
<polygon fill="black" stroke="black" points="239.06,-110.66 228.74,-108.26 235.32,-116.57 239.06,-110.66"/>
</g>
<!-- mounted&#45;mirror/motorized&#45;mirror -->
<g id="node4" class="node">
<title>mounted&#45;mirror/motorized&#45;mirror</title>
<ellipse fill="none" stroke="black" cx="353.07" cy="-91" rx="78.07" ry="18"/>
<text text-anchor="middle" x="353.07" y="-86.8" font-family="Times,serif" font-size="14.00">motorized&#45;mirror</text>
</g>
<!-- mounted&#45;mirror&#45;&gt;mounted&#45;mirror/motorized&#45;mirror -->
<g id="edge5" class="edge">
<title>mounted&#45;mirror&#45;&gt;mounted&#45;mirror/motorized&#45;mirror</title>
<path fill="none" stroke="black" d="M339.18,-161.41C338.98,-151.29 339.28,-138.34 341.28,-127 341.69,-124.68 342.22,-122.31 342.83,-119.94"/>
<polygon fill="black" stroke="black" points="346.11,-121.21 345.69,-110.62 339.41,-119.16 346.11,-121.21"/>
<text text-anchor="middle" x="431.68" y="-131.2" font-family="Times,serif" font-size="14.00">primitives/motorized&#45;mirror.dsn</text>
</g>
<!-- mounted&#45;mirror/motorized&#45;mirror/motorized&#45;mirror -->
<g id="node5" class="node">
<title>mounted&#45;mirror/motorized&#45;mirror/motorized&#45;mirror</title>
<ellipse fill="none" stroke="black" cx="78.07" cy="-18" rx="78.07" ry="18"/>
<text text-anchor="middle" x="78.07" y="-13.8" font-family="Times,serif" font-size="14.00">motorized&#45;mirror</text>
</g>
<!-- mounted&#45;mirror/motorized&#45;mirror&#45;&gt;mounted&#45;mirror/motorized&#45;mirror/motorized&#45;mirror -->
<g id="edge6" class="edge">
<title>mounted&#45;mirror/motorized&#45;mirror&#45;&gt;mounted&#45;mirror/motorized&#45;mirror/motorized&#45;mirror</title>
<path fill="none" stroke="black" d="M302.31,-76.89C256.38,-65.04 188.63,-47.54 139.63,-34.89"/>
<polygon fill="black" stroke="black" points="140.56,-31.52 130,-32.41 138.81,-38.3 140.56,-31.52"/>
</g>
<!-- mounted&#45;mirror/motorized&#45;mirror/mount&#45;ring -->
<g id="node6" class="node">
<title>mounted&#45;mirror/motorized&#45;mirror/mount&#45;ring</title>
<ellipse fill="none" stroke="black" cx="229.07" cy="-18" rx="54.49" ry="18"/>
<text text-anchor="middle" x="229.07" y="-13.8" font-family="Times,serif" font-size="14.00">mount&#45;ring</text>
</g>
<!-- mounted&#45;mirror/motorized&#45;mirror&#45;&gt;mounted&#45;mirror/motorized&#45;mirror/mount&#45;ring -->
<g id="edge7" class="edge">
<title>mounted&#45;mirror/motorized&#45;mirror&#45;&gt;mounted&#45;mirror/motorized&#45;mirror/mount&#45;ring</title>
<path fill="none" stroke="black" d="M324.94,-73.89C307.25,-63.76 284.26,-50.6 265.23,-39.7"/>
<polygon fill="black" stroke="black" points="267.14,-36.76 256.72,-34.83 263.66,-42.83 267.14,-36.76"/>
</g>
<!-- mounted&#45;mirror/motorized&#45;mirror/mount&#45;top -->
<g id="node7" class="node">
<title>mounted&#45;mirror/motorized&#45;mirror/mount&#45;top</title>
<ellipse fill="none" stroke="black" cx="353.07" cy="-18" rx="51.27" ry="18"/>
<text text-anchor="middle" x="353.07" y="-13.8" font-family="Times,serif" font-size="14.00">mount&#45;top</text>
</g>
<!-- mounted&#45;mirror/motorized&#45;mirror&#45;&gt;mounted&#45;mirror/motorized&#45;mirror/mount&#45;top -->
<g id="edge8" class="edge">
<title>mounted&#45;mirror/motorized&#45;mirror&#45;&gt;mounted&#45;mirror/motorized&#45;mirror/mount&#45;top</title>
<path fill="none" stroke="black" d="M353.07,-72.81C353.07,-65.23 353.07,-56.1 353.07,-47.54"/>
<polygon fill="black" stroke="black" points="356.57,-47.54 353.07,-37.54 349.57,-47.54 356.57,-47.54"/>
</g>
<!-- mounted&#45;mirror/motorized&#45;mirror/screw&#45;1 -->
<g id="node8" class="node">
<title>mounted&#45;mirror/motorized&#45;mirror/screw&#45;1</title>
<ellipse fill="none" stroke="black" cx="464.07" cy="-18" rx="41.6" ry="18"/>
<text text-anchor="middle" x="464.07" y="-13.8" font-family="Times,serif" font-size="14.00">screw&#45;1</text>
</g>
<!-- mounted&#45;mirror/motorized&#45;mirror&#45;&gt;mounted&#45;mirror/motorized&#45;mirror/screw&#45;1 -->
<g id="edge9" class="edge">
<title>mounted&#45;mirror/motorized&#45;mirror&#45;&gt;mounted&#45;mirror/motorized&#45;mirror/screw&#45;1</title>
<path fill="none" stroke="black" d="M378.82,-73.53C394.67,-63.4 415.11,-50.32 432,-39.51"/>
<polygon fill="black" stroke="black" points="433.66,-42.61 440.2,-34.27 429.89,-36.71 433.66,-42.61"/>
</g>
<!-- mounted&#45;mirror/motorized&#45;mirror/screw&#45;2 -->
<g id="node9" class="node">
<title>mounted&#45;mirror/motorized&#45;mirror/screw&#45;2</title>
<ellipse fill="none" stroke="black" cx="565.07" cy="-18" rx="41.6" ry="18"/>
<text text-anchor="middle" x="565.07" y="-13.8" font-family="Times,serif" font-size="14.00">screw&#45;2</text>
</g>
<!-- mounted&#45;mirror/motorized&#45;mirror&#45;&gt;mounted&#45;mirror/motorized&#45;mirror/screw&#45;2 -->
<g id="edge10" class="edge">
<title>mounted&#45;mirror/motorized&#45;mirror&#45;&gt;mounted&#45;mirror/motorized&#45;mirror/screw&#45;2</title>
<path fill="none" stroke="black" d="M396.42,-75.63C429.06,-64.79 474.9,-49.53 515.07,-36 517.44,-35.2 519.87,-34.38 522.32,-33.56"/>
<polygon fill="black" stroke="black" points="523.29,-36.92 531.64,-30.4 521.05,-30.29 523.29,-36.92"/>
</g>
<!-- skeleton/lower&#45;half -->
<g id="node14" class="node">
<title>skeleton/lower&#45;half</title>
<ellipse fill="none" stroke="black" cx="524.07" cy="-91" rx="51.25" ry="18"/>
<text text-anchor="middle" x="524.07" y="-86.8" font-family="Times,serif" font-size="14.00">lower&#45;half</text>
</g>
<!-- skeleton&#45;&gt;skeleton/lower&#45;half -->
<g id="edge11" class="edge">
<title>skeleton&#45;&gt;skeleton/lower&#45;half</title>
<path fill="none" stroke="black" d="M556.97,-161.65C551.25,-149.52 543.45,-133.02 536.88,-119.12"/>
<polygon fill="black" stroke="black" points="540.24,-118.03 532.8,-110.48 533.91,-121.02 540.24,-118.03"/>
</g>
<!-- skeleton/upper&#45;half -->
<g id="node15" class="node">
<title>skeleton/upper&#45;half</title>
<ellipse fill="none" stroke="black" cx="645.07" cy="-91" rx="51.25" ry="18"/>
<text text-anchor="middle" x="645.07" y="-86.8" font-family="Times,serif" font-size="14.00">upper&#45;half</text>
</g>
<!-- skeleton&#45;&gt;skeleton/upper&#45;half -->
<g id="edge12" class="edge">
<title>skeleton&#45;&gt;skeleton/upper&#45;half</title>
<path fill="none" stroke="black" d="M580.12,-162.47C592,-149.58 608.77,-131.39 622.3,-116.71"/>
<polygon fill="black" stroke="black" points="624.59,-119.39 628.8,-109.66 619.45,-114.64 624.59,-119.39"/>
</g>
<!-- skeleton&#45;extra/lower&#45;half -->
<g id="node12" class="node">
<title>skeleton&#45;extra/lower&#45;half</title>
<ellipse fill="none" stroke="black" cx="766.07" cy="-91" rx="51.25" ry="18"/>
<text text-anchor="middle" x="766.07" y="-86.8" font-family="Times,serif" font-size="14.00">lower&#45;half</text>
</g>
<!-- skeleton&#45;extra&#45;&gt;skeleton&#45;extra/lower&#45;half -->
<g id="edge13" class="edge">
<title>skeleton&#45;extra&#45;&gt;skeleton&#45;extra/lower&#45;half</title>
<path fill="none" stroke="black" d="M766.07,-161.65C766.07,-149.96 766.07,-134.19 766.07,-120.62"/>
<polygon fill="black" stroke="black" points="769.57,-120.92 766.07,-110.92 762.57,-120.92 769.57,-120.92"/>
</g>
<!-- skeleton&#45;extra/upper&#45;half -->
<g id="node13" class="node">
<title>skeleton&#45;extra/upper&#45;half</title>
<ellipse fill="none" stroke="black" cx="887.07" cy="-91" rx="51.25" ry="18"/>
<text text-anchor="middle" x="887.07" y="-86.8" font-family="Times,serif" font-size="14.00">upper&#45;half</text>
</g>
<!-- skeleton&#45;extra&#45;&gt;skeleton&#45;extra/upper&#45;half -->
<g id="edge14" class="edge">
<title>skeleton&#45;extra&#45;&gt;skeleton&#45;extra/upper&#45;half</title>
<path fill="none" stroke="black" d="M788.83,-162.47C807.83,-148.85 835.09,-129.29 856.08,-114.23"/>
<polygon fill="black" stroke="black" points="857.92,-117.22 864,-108.55 853.84,-111.54 857.92,-117.22"/>
</g>
</g>
</svg>
