ISO-10303-21;
HEADER;
/* Generated by software containing ST-Developer
 * from STEP Tools, Inc. (www.steptools.com) 
 */

FILE_DESCRIPTION(
/* description */ (''),
/* implementation_level */ '2;1');

FILE_NAME(
/* name */ 'BUY - XYZ linear table - LD40 --- base.stp',
/* time_stamp */ '2026-09-22T15:01:56+02:00',
/* author */ ('benir'),
/* organization */ (''),
/* preprocessor_version */ 'ST-DEVELOPER v20',
/* originating_system */ 'Autodesk Inventor 2025',
/* authorisation */ '');

FILE_SCHEMA (('AUTOMOTIVE_DESIGN { 1 0 10303 214 3 1 1 }'));
ENDSEC;

DATA;
#10=MECHANICAL_DESIGN_GEOMETRIC_PRESENTATION_REPRESENTATION('',(#13),#840);
#11=SHAPE_REPRESENTATION_RELATIONSHIP('SRR','None',#847,#12);
#12=ADVANCED_BREP_SHAPE_REPRESENTATION('',(#14),#839);
#13=STYLED_ITEM('',(#856),#14);
#14=MANIFOLD_SOLID_BREP('Base',#483);
#15=FACE_BOUND('',#89,.T.);
#16=FACE_BOUND('',#92,.T.);
#17=FACE_BOUND('',#95,.T.);
#18=FACE_BOUND('',#98,.T.);
#19=FACE_BOUND('',#108,.T.);
#20=FACE_BOUND('',#109,.T.);
#21=FACE_BOUND('',#111,.T.);
#22=FACE_BOUND('',#112,.T.);
#23=FACE_BOUND('',#113,.T.);
#24=FACE_BOUND('',#114,.T.);
#25=FACE_BOUND('',#117,.T.);
#26=FACE_BOUND('',#118,.T.);
#27=FACE_BOUND('',#120,.T.);
#28=FACE_BOUND('',#121,.T.);
#29=FACE_BOUND('',#122,.T.);
#30=FACE_BOUND('',#123,.T.);
#31=PLANE('',#509);
#32=PLANE('',#513);
#33=PLANE('',#517);
#34=PLANE('',#521);
#35=PLANE('',#525);
#36=PLANE('',#530);
#37=PLANE('',#535);
#38=PLANE('',#540);
#39=PLANE('',#550);
#40=PLANE('',#551);
#41=PLANE('',#552);
#42=PLANE('',#553);
#43=PLANE('',#554);
#44=PLANE('',#555);
#45=PLANE('',#556);
#46=PLANE('',#557);
#47=PLANE('',#558);
#48=PLANE('',#559);
#49=FACE_OUTER_BOUND('',#79,.T.);
#50=FACE_OUTER_BOUND('',#80,.T.);
#51=FACE_OUTER_BOUND('',#81,.T.);
#52=FACE_OUTER_BOUND('',#82,.T.);
#53=FACE_OUTER_BOUND('',#83,.T.);
#54=FACE_OUTER_BOUND('',#84,.T.);
#55=FACE_OUTER_BOUND('',#85,.T.);
#56=FACE_OUTER_BOUND('',#86,.T.);
#57=FACE_OUTER_BOUND('',#87,.T.);
#58=FACE_OUTER_BOUND('',#88,.T.);
#59=FACE_OUTER_BOUND('',#90,.T.);
#60=FACE_OUTER_BOUND('',#91,.T.);
#61=FACE_OUTER_BOUND('',#93,.T.);
#62=FACE_OUTER_BOUND('',#94,.T.);
#63=FACE_OUTER_BOUND('',#96,.T.);
#64=FACE_OUTER_BOUND('',#97,.T.);
#65=FACE_OUTER_BOUND('',#99,.T.);
#66=FACE_OUTER_BOUND('',#100,.T.);
#67=FACE_OUTER_BOUND('',#101,.T.);
#68=FACE_OUTER_BOUND('',#102,.T.);
#69=FACE_OUTER_BOUND('',#103,.T.);
#70=FACE_OUTER_BOUND('',#104,.T.);
#71=FACE_OUTER_BOUND('',#105,.T.);
#72=FACE_OUTER_BOUND('',#106,.T.);
#73=FACE_OUTER_BOUND('',#107,.T.);
#74=FACE_OUTER_BOUND('',#110,.T.);
#75=FACE_OUTER_BOUND('',#115,.T.);
#76=FACE_OUTER_BOUND('',#116,.T.);
#77=FACE_OUTER_BOUND('',#119,.T.);
#78=FACE_OUTER_BOUND('',#124,.T.);
#79=EDGE_LOOP('',(#321,#322,#323,#324));
#80=EDGE_LOOP('',(#325));
#81=EDGE_LOOP('',(#326,#327,#328,#329));
#82=EDGE_LOOP('',(#330));
#83=EDGE_LOOP('',(#331,#332,#333,#334));
#84=EDGE_LOOP('',(#335));
#85=EDGE_LOOP('',(#336,#337,#338,#339));
#86=EDGE_LOOP('',(#340));
#87=EDGE_LOOP('',(#341,#342,#343,#344));
#88=EDGE_LOOP('',(#345));
#89=EDGE_LOOP('',(#346));
#90=EDGE_LOOP('',(#347,#348,#349,#350));
#91=EDGE_LOOP('',(#351));
#92=EDGE_LOOP('',(#352));
#93=EDGE_LOOP('',(#353,#354,#355,#356));
#94=EDGE_LOOP('',(#357));
#95=EDGE_LOOP('',(#358));
#96=EDGE_LOOP('',(#359,#360,#361,#362));
#97=EDGE_LOOP('',(#363));
#98=EDGE_LOOP('',(#364));
#99=EDGE_LOOP('',(#365,#366,#367,#368));
#100=EDGE_LOOP('',(#369,#370,#371,#372));
#101=EDGE_LOOP('',(#373,#374,#375,#376));
#102=EDGE_LOOP('',(#377,#378,#379,#380));
#103=EDGE_LOOP('',(#381,#382,#383,#384,#385,#386,#387,#388));
#104=EDGE_LOOP('',(#389,#390,#391,#392));
#105=EDGE_LOOP('',(#393,#394,#395,#396));
#106=EDGE_LOOP('',(#397,#398,#399,#400,#401,#402,#403,#404));
#107=EDGE_LOOP('',(#405,#406,#407,#408));
#108=EDGE_LOOP('',(#409));
#109=EDGE_LOOP('',(#410));
#110=EDGE_LOOP('',(#411,#412,#413,#414));
#111=EDGE_LOOP('',(#415));
#112=EDGE_LOOP('',(#416));
#113=EDGE_LOOP('',(#417));
#114=EDGE_LOOP('',(#418));
#115=EDGE_LOOP('',(#419,#420,#421,#422));
#116=EDGE_LOOP('',(#423,#424,#425,#426));
#117=EDGE_LOOP('',(#427));
#118=EDGE_LOOP('',(#428));
#119=EDGE_LOOP('',(#429,#430,#431,#432));
#120=EDGE_LOOP('',(#433));
#121=EDGE_LOOP('',(#434));
#122=EDGE_LOOP('',(#435));
#123=EDGE_LOOP('',(#436));
#124=EDGE_LOOP('',(#437,#438,#439,#440));
#125=LINE('',#711,#161);
#126=LINE('',#718,#162);
#127=LINE('',#725,#163);
#128=LINE('',#732,#164);
#129=LINE('',#739,#165);
#130=LINE('',#748,#166);
#131=LINE('',#757,#167);
#132=LINE('',#766,#168);
#133=LINE('',#774,#169);
#134=LINE('',#778,#170);
#135=LINE('',#782,#171);
#136=LINE('',#786,#172);
#137=LINE('',#790,#173);
#138=LINE('',#792,#174);
#139=LINE('',#794,#175);
#140=LINE('',#796,#176);
#141=LINE('',#798,#177);
#142=LINE('',#800,#178);
#143=LINE('',#802,#179);
#144=LINE('',#803,#180);
#145=LINE('',#806,#181);
#146=LINE('',#808,#182);
#147=LINE('',#809,#183);
#148=LINE('',#812,#184);
#149=LINE('',#814,#185);
#150=LINE('',#815,#186);
#151=LINE('',#817,#187);
#152=LINE('',#819,#188);
#153=LINE('',#821,#189);
#154=LINE('',#823,#190);
#155=LINE('',#825,#191);
#156=LINE('',#826,#192);
#157=LINE('',#828,#193);
#158=LINE('',#830,#194);
#159=LINE('',#832,#195);
#160=LINE('',#833,#196);
#161=VECTOR('',#566,1.0065);
#162=VECTOR('',#575,1.0065);
#163=VECTOR('',#584,1.0065);
#164=VECTOR('',#593,1.0065);
#165=VECTOR('',#602,3.);
#166=VECTOR('',#613,3.);
#167=VECTOR('',#624,3.);
#168=VECTOR('',#635,3.);
#169=VECTOR('',#646,1.7);
#170=VECTOR('',#651,1.7);
#171=VECTOR('',#656,1.7);
#172=VECTOR('',#661,1.7);
#173=VECTOR('',#664,10.);
#174=VECTOR('',#665,10.);
#175=VECTOR('',#666,10.);
#176=VECTOR('',#667,10.);
#177=VECTOR('',#668,10.);
#178=VECTOR('',#669,10.);
#179=VECTOR('',#670,10.);
#180=VECTOR('',#671,10.);
#181=VECTOR('',#674,10.);
#182=VECTOR('',#675,10.);
#183=VECTOR('',#676,10.);
#184=VECTOR('',#679,10.);
#185=VECTOR('',#680,10.);
#186=VECTOR('',#681,10.);
#187=VECTOR('',#684,10.);
#188=VECTOR('',#685,10.);
#189=VECTOR('',#686,10.);
#190=VECTOR('',#687,10.);
#191=VECTOR('',#688,10.);
#192=VECTOR('',#689,10.);
#193=VECTOR('',#692,10.);
#194=VECTOR('',#695,10.);
#195=VECTOR('',#698,10.);
#196=VECTOR('',#699,10.);
#197=CIRCLE('',#507,1.0065);
#198=CIRCLE('',#508,1.0065);
#199=CIRCLE('',#511,1.0065);
#200=CIRCLE('',#512,1.0065);
#201=CIRCLE('',#515,1.0065);
#202=CIRCLE('',#516,1.0065);
#203=CIRCLE('',#519,1.0065);
#204=CIRCLE('',#520,1.0065);
#205=CIRCLE('',#523,3.);
#206=CIRCLE('',#524,3.);
#207=CIRCLE('',#526,1.7);
#208=CIRCLE('',#528,3.);
#209=CIRCLE('',#529,3.);
#210=CIRCLE('',#531,1.7);
#211=CIRCLE('',#533,3.);
#212=CIRCLE('',#534,3.);
#213=CIRCLE('',#536,1.7);
#214=CIRCLE('',#538,3.);
#215=CIRCLE('',#539,3.);
#216=CIRCLE('',#541,1.7);
#217=CIRCLE('',#543,1.7);
#218=CIRCLE('',#545,1.7);
#219=CIRCLE('',#547,1.7);
#220=CIRCLE('',#549,1.7);
#221=VERTEX_POINT('',#708);
#222=VERTEX_POINT('',#710);
#223=VERTEX_POINT('',#715);
#224=VERTEX_POINT('',#717);
#225=VERTEX_POINT('',#722);
#226=VERTEX_POINT('',#724);
#227=VERTEX_POINT('',#729);
#228=VERTEX_POINT('',#731);
#229=VERTEX_POINT('',#736);
#230=VERTEX_POINT('',#738);
#231=VERTEX_POINT('',#742);
#232=VERTEX_POINT('',#745);
#233=VERTEX_POINT('',#747);
#234=VERTEX_POINT('',#751);
#235=VERTEX_POINT('',#754);
#236=VERTEX_POINT('',#756);
#237=VERTEX_POINT('',#760);
#238=VERTEX_POINT('',#763);
#239=VERTEX_POINT('',#765);
#240=VERTEX_POINT('',#769);
#241=VERTEX_POINT('',#772);
#242=VERTEX_POINT('',#776);
#243=VERTEX_POINT('',#780);
#244=VERTEX_POINT('',#784);
#245=VERTEX_POINT('',#788);
#246=VERTEX_POINT('',#789);
#247=VERTEX_POINT('',#791);
#248=VERTEX_POINT('',#793);
#249=VERTEX_POINT('',#795);
#250=VERTEX_POINT('',#797);
#251=VERTEX_POINT('',#799);
#252=VERTEX_POINT('',#801);
#253=VERTEX_POINT('',#805);
#254=VERTEX_POINT('',#807);
#255=VERTEX_POINT('',#811);
#256=VERTEX_POINT('',#813);
#257=VERTEX_POINT('',#818);
#258=VERTEX_POINT('',#820);
#259=VERTEX_POINT('',#822);
#260=VERTEX_POINT('',#824);
#261=EDGE_CURVE('',#221,#221,#197,.T.);
#262=EDGE_CURVE('',#221,#222,#125,.T.);
#263=EDGE_CURVE('',#222,#222,#198,.T.);
#264=EDGE_CURVE('',#223,#223,#199,.T.);
#265=EDGE_CURVE('',#223,#224,#126,.T.);
#266=EDGE_CURVE('',#224,#224,#200,.T.);
#267=EDGE_CURVE('',#225,#225,#201,.T.);
#268=EDGE_CURVE('',#225,#226,#127,.T.);
#269=EDGE_CURVE('',#226,#226,#202,.T.);
#270=EDGE_CURVE('',#227,#227,#203,.T.);
#271=EDGE_CURVE('',#227,#228,#128,.T.);
#272=EDGE_CURVE('',#228,#228,#204,.T.);
#273=EDGE_CURVE('',#229,#229,#205,.T.);
#274=EDGE_CURVE('',#229,#230,#129,.T.);
#275=EDGE_CURVE('',#230,#230,#206,.T.);
#276=EDGE_CURVE('',#231,#231,#207,.T.);
#277=EDGE_CURVE('',#232,#232,#208,.T.);
#278=EDGE_CURVE('',#232,#233,#130,.T.);
#279=EDGE_CURVE('',#233,#233,#209,.T.);
#280=EDGE_CURVE('',#234,#234,#210,.T.);
#281=EDGE_CURVE('',#235,#235,#211,.T.);
#282=EDGE_CURVE('',#235,#236,#131,.T.);
#283=EDGE_CURVE('',#236,#236,#212,.T.);
#284=EDGE_CURVE('',#237,#237,#213,.T.);
#285=EDGE_CURVE('',#238,#238,#214,.T.);
#286=EDGE_CURVE('',#238,#239,#132,.T.);
#287=EDGE_CURVE('',#239,#239,#215,.T.);
#288=EDGE_CURVE('',#240,#240,#216,.T.);
#289=EDGE_CURVE('',#241,#241,#217,.T.);
#290=EDGE_CURVE('',#241,#231,#133,.T.);
#291=EDGE_CURVE('',#242,#242,#218,.T.);
#292=EDGE_CURVE('',#242,#234,#134,.T.);
#293=EDGE_CURVE('',#243,#243,#219,.T.);
#294=EDGE_CURVE('',#243,#240,#135,.T.);
#295=EDGE_CURVE('',#244,#244,#220,.T.);
#296=EDGE_CURVE('',#244,#237,#136,.T.);
#297=EDGE_CURVE('',#245,#246,#137,.T.);
#298=EDGE_CURVE('',#246,#247,#138,.T.);
#299=EDGE_CURVE('',#248,#247,#139,.T.);
#300=EDGE_CURVE('',#249,#248,#140,.T.);
#301=EDGE_CURVE('',#249,#250,#141,.T.);
#302=EDGE_CURVE('',#250,#251,#142,.T.);
#303=EDGE_CURVE('',#252,#251,#143,.T.);
#304=EDGE_CURVE('',#252,#245,#144,.T.);
#305=EDGE_CURVE('',#253,#245,#145,.T.);
#306=EDGE_CURVE('',#254,#252,#146,.T.);
#307=EDGE_CURVE('',#254,#253,#147,.T.);
#308=EDGE_CURVE('',#246,#255,#148,.T.);
#309=EDGE_CURVE('',#256,#255,#149,.T.);
#310=EDGE_CURVE('',#247,#256,#150,.T.);
#311=EDGE_CURVE('',#255,#253,#151,.T.);
#312=EDGE_CURVE('',#257,#254,#152,.T.);
#313=EDGE_CURVE('',#258,#257,#153,.T.);
#314=EDGE_CURVE('',#258,#259,#154,.T.);
#315=EDGE_CURVE('',#259,#260,#155,.T.);
#316=EDGE_CURVE('',#256,#260,#156,.T.);
#317=EDGE_CURVE('',#251,#257,#157,.T.);
#318=EDGE_CURVE('',#250,#258,#158,.T.);
#319=EDGE_CURVE('',#259,#249,#159,.T.);
#320=EDGE_CURVE('',#260,#248,#160,.T.);
#321=ORIENTED_EDGE('',*,*,#261,.F.);
#322=ORIENTED_EDGE('',*,*,#262,.T.);
#323=ORIENTED_EDGE('',*,*,#263,.F.);
#324=ORIENTED_EDGE('',*,*,#262,.F.);
#325=ORIENTED_EDGE('',*,*,#263,.T.);
#326=ORIENTED_EDGE('',*,*,#264,.F.);
#327=ORIENTED_EDGE('',*,*,#265,.T.);
#328=ORIENTED_EDGE('',*,*,#266,.F.);
#329=ORIENTED_EDGE('',*,*,#265,.F.);
#330=ORIENTED_EDGE('',*,*,#266,.T.);
#331=ORIENTED_EDGE('',*,*,#267,.F.);
#332=ORIENTED_EDGE('',*,*,#268,.T.);
#333=ORIENTED_EDGE('',*,*,#269,.F.);
#334=ORIENTED_EDGE('',*,*,#268,.F.);
#335=ORIENTED_EDGE('',*,*,#269,.T.);
#336=ORIENTED_EDGE('',*,*,#270,.F.);
#337=ORIENTED_EDGE('',*,*,#271,.T.);
#338=ORIENTED_EDGE('',*,*,#272,.F.);
#339=ORIENTED_EDGE('',*,*,#271,.F.);
#340=ORIENTED_EDGE('',*,*,#272,.T.);
#341=ORIENTED_EDGE('',*,*,#273,.F.);
#342=ORIENTED_EDGE('',*,*,#274,.T.);
#343=ORIENTED_EDGE('',*,*,#275,.F.);
#344=ORIENTED_EDGE('',*,*,#274,.F.);
#345=ORIENTED_EDGE('',*,*,#275,.T.);
#346=ORIENTED_EDGE('',*,*,#276,.F.);
#347=ORIENTED_EDGE('',*,*,#277,.F.);
#348=ORIENTED_EDGE('',*,*,#278,.T.);
#349=ORIENTED_EDGE('',*,*,#279,.F.);
#350=ORIENTED_EDGE('',*,*,#278,.F.);
#351=ORIENTED_EDGE('',*,*,#279,.T.);
#352=ORIENTED_EDGE('',*,*,#280,.F.);
#353=ORIENTED_EDGE('',*,*,#281,.F.);
#354=ORIENTED_EDGE('',*,*,#282,.T.);
#355=ORIENTED_EDGE('',*,*,#283,.F.);
#356=ORIENTED_EDGE('',*,*,#282,.F.);
#357=ORIENTED_EDGE('',*,*,#283,.T.);
#358=ORIENTED_EDGE('',*,*,#284,.F.);
#359=ORIENTED_EDGE('',*,*,#285,.F.);
#360=ORIENTED_EDGE('',*,*,#286,.T.);
#361=ORIENTED_EDGE('',*,*,#287,.F.);
#362=ORIENTED_EDGE('',*,*,#286,.F.);
#363=ORIENTED_EDGE('',*,*,#287,.T.);
#364=ORIENTED_EDGE('',*,*,#288,.F.);
#365=ORIENTED_EDGE('',*,*,#289,.F.);
#366=ORIENTED_EDGE('',*,*,#290,.T.);
#367=ORIENTED_EDGE('',*,*,#276,.T.);
#368=ORIENTED_EDGE('',*,*,#290,.F.);
#369=ORIENTED_EDGE('',*,*,#291,.F.);
#370=ORIENTED_EDGE('',*,*,#292,.T.);
#371=ORIENTED_EDGE('',*,*,#280,.T.);
#372=ORIENTED_EDGE('',*,*,#292,.F.);
#373=ORIENTED_EDGE('',*,*,#293,.F.);
#374=ORIENTED_EDGE('',*,*,#294,.T.);
#375=ORIENTED_EDGE('',*,*,#288,.T.);
#376=ORIENTED_EDGE('',*,*,#294,.F.);
#377=ORIENTED_EDGE('',*,*,#295,.F.);
#378=ORIENTED_EDGE('',*,*,#296,.T.);
#379=ORIENTED_EDGE('',*,*,#284,.T.);
#380=ORIENTED_EDGE('',*,*,#296,.F.);
#381=ORIENTED_EDGE('',*,*,#297,.T.);
#382=ORIENTED_EDGE('',*,*,#298,.T.);
#383=ORIENTED_EDGE('',*,*,#299,.F.);
#384=ORIENTED_EDGE('',*,*,#300,.F.);
#385=ORIENTED_EDGE('',*,*,#301,.T.);
#386=ORIENTED_EDGE('',*,*,#302,.T.);
#387=ORIENTED_EDGE('',*,*,#303,.F.);
#388=ORIENTED_EDGE('',*,*,#304,.T.);
#389=ORIENTED_EDGE('',*,*,#305,.T.);
#390=ORIENTED_EDGE('',*,*,#304,.F.);
#391=ORIENTED_EDGE('',*,*,#306,.F.);
#392=ORIENTED_EDGE('',*,*,#307,.T.);
#393=ORIENTED_EDGE('',*,*,#308,.T.);
#394=ORIENTED_EDGE('',*,*,#309,.F.);
#395=ORIENTED_EDGE('',*,*,#310,.F.);
#396=ORIENTED_EDGE('',*,*,#298,.F.);
#397=ORIENTED_EDGE('',*,*,#311,.T.);
#398=ORIENTED_EDGE('',*,*,#307,.F.);
#399=ORIENTED_EDGE('',*,*,#312,.F.);
#400=ORIENTED_EDGE('',*,*,#313,.F.);
#401=ORIENTED_EDGE('',*,*,#314,.T.);
#402=ORIENTED_EDGE('',*,*,#315,.T.);
#403=ORIENTED_EDGE('',*,*,#316,.F.);
#404=ORIENTED_EDGE('',*,*,#309,.T.);
#405=ORIENTED_EDGE('',*,*,#306,.T.);
#406=ORIENTED_EDGE('',*,*,#303,.T.);
#407=ORIENTED_EDGE('',*,*,#317,.T.);
#408=ORIENTED_EDGE('',*,*,#312,.T.);
#409=ORIENTED_EDGE('',*,*,#281,.T.);
#410=ORIENTED_EDGE('',*,*,#285,.T.);
#411=ORIENTED_EDGE('',*,*,#318,.T.);
#412=ORIENTED_EDGE('',*,*,#313,.T.);
#413=ORIENTED_EDGE('',*,*,#317,.F.);
#414=ORIENTED_EDGE('',*,*,#302,.F.);
#415=ORIENTED_EDGE('',*,*,#267,.T.);
#416=ORIENTED_EDGE('',*,*,#270,.T.);
#417=ORIENTED_EDGE('',*,*,#261,.T.);
#418=ORIENTED_EDGE('',*,*,#264,.T.);
#419=ORIENTED_EDGE('',*,*,#319,.T.);
#420=ORIENTED_EDGE('',*,*,#300,.T.);
#421=ORIENTED_EDGE('',*,*,#320,.F.);
#422=ORIENTED_EDGE('',*,*,#315,.F.);
#423=ORIENTED_EDGE('',*,*,#310,.T.);
#424=ORIENTED_EDGE('',*,*,#316,.T.);
#425=ORIENTED_EDGE('',*,*,#320,.T.);
#426=ORIENTED_EDGE('',*,*,#299,.T.);
#427=ORIENTED_EDGE('',*,*,#273,.T.);
#428=ORIENTED_EDGE('',*,*,#277,.T.);
#429=ORIENTED_EDGE('',*,*,#314,.F.);
#430=ORIENTED_EDGE('',*,*,#318,.F.);
#431=ORIENTED_EDGE('',*,*,#301,.F.);
#432=ORIENTED_EDGE('',*,*,#319,.F.);
#433=ORIENTED_EDGE('',*,*,#289,.T.);
#434=ORIENTED_EDGE('',*,*,#291,.T.);
#435=ORIENTED_EDGE('',*,*,#293,.T.);
#436=ORIENTED_EDGE('',*,*,#295,.T.);
#437=ORIENTED_EDGE('',*,*,#308,.F.);
#438=ORIENTED_EDGE('',*,*,#297,.F.);
#439=ORIENTED_EDGE('',*,*,#305,.F.);
#440=ORIENTED_EDGE('',*,*,#311,.F.);
#441=CYLINDRICAL_SURFACE('',#506,1.0065);
#442=CYLINDRICAL_SURFACE('',#510,1.0065);
#443=CYLINDRICAL_SURFACE('',#514,1.0065);
#444=CYLINDRICAL_SURFACE('',#518,1.0065);
#445=CYLINDRICAL_SURFACE('',#522,3.);
#446=CYLINDRICAL_SURFACE('',#527,3.);
#447=CYLINDRICAL_SURFACE('',#532,3.);
#448=CYLINDRICAL_SURFACE('',#537,3.);
#449=CYLINDRICAL_SURFACE('',#542,1.7);
#450=CYLINDRICAL_SURFACE('',#544,1.7);
#451=CYLINDRICAL_SURFACE('',#546,1.7);
#452=CYLINDRICAL_SURFACE('',#548,1.7);
#453=ADVANCED_FACE('',(#49),#441,.F.);
#454=ADVANCED_FACE('',(#50),#31,.T.);
#455=ADVANCED_FACE('',(#51),#442,.F.);
#456=ADVANCED_FACE('',(#52),#32,.T.);
#457=ADVANCED_FACE('',(#53),#443,.F.);
#458=ADVANCED_FACE('',(#54),#33,.T.);
#459=ADVANCED_FACE('',(#55),#444,.F.);
#460=ADVANCED_FACE('',(#56),#34,.T.);
#461=ADVANCED_FACE('',(#57),#445,.F.);
#462=ADVANCED_FACE('',(#58,#15),#35,.T.);
#463=ADVANCED_FACE('',(#59),#446,.F.);
#464=ADVANCED_FACE('',(#60,#16),#36,.T.);
#465=ADVANCED_FACE('',(#61),#447,.F.);
#466=ADVANCED_FACE('',(#62,#17),#37,.T.);
#467=ADVANCED_FACE('',(#63),#448,.F.);
#468=ADVANCED_FACE('',(#64,#18),#38,.T.);
#469=ADVANCED_FACE('',(#65),#449,.F.);
#470=ADVANCED_FACE('',(#66),#450,.F.);
#471=ADVANCED_FACE('',(#67),#451,.F.);
#472=ADVANCED_FACE('',(#68),#452,.F.);
#473=ADVANCED_FACE('',(#69),#39,.T.);
#474=ADVANCED_FACE('',(#70),#40,.T.);
#475=ADVANCED_FACE('',(#71),#41,.T.);
#476=ADVANCED_FACE('',(#72),#42,.T.);
#477=ADVANCED_FACE('',(#73,#19,#20),#43,.T.);
#478=ADVANCED_FACE('',(#74,#21,#22,#23,#24),#44,.T.);
#479=ADVANCED_FACE('',(#75),#45,.T.);
#480=ADVANCED_FACE('',(#76,#25,#26),#46,.T.);
#481=ADVANCED_FACE('',(#77,#27,#28,#29,#30),#47,.F.);
#482=ADVANCED_FACE('',(#78),#48,.T.);
#483=CLOSED_SHELL('',(#453,#454,#455,#456,#457,#458,#459,#460,#461,#462,
#463,#464,#465,#466,#467,#468,#469,#470,#471,#472,#473,#474,#475,#476,#477,
#478,#479,#480,#481,#482));
#484=DERIVED_UNIT_ELEMENT(#487,1.);
#485=DERIVED_UNIT_ELEMENT(#842,-3.);
#486=DIMENSIONAL_EXPONENTS(0.,1.,0.,0.,0.,0.,0.);
#487=(
CONVERSION_BASED_UNIT('gram',#489)
MASS_UNIT()
NAMED_UNIT(#486)
);
#488=(
MASS_UNIT()
NAMED_UNIT(*)
SI_UNIT(.KILO.,.GRAM.)
);
#489=MASS_MEASURE_WITH_UNIT(MASS_MEASURE(0.001),#488);
#490=DERIVED_UNIT((#484,#485));
#491=MEASURE_REPRESENTATION_ITEM('density measure',
POSITIVE_RATIO_MEASURE(2.7),#490);
#492=PROPERTY_DEFINITION_REPRESENTATION(#497,#494);
#493=PROPERTY_DEFINITION_REPRESENTATION(#498,#495);
#494=REPRESENTATION('material name',(#496),#839);
#495=REPRESENTATION('density',(#491),#839);
#496=DESCRIPTIVE_REPRESENTATION_ITEM('Aluminium 6061','Aluminium 6061');
#497=PROPERTY_DEFINITION('material property','material name',#849);
#498=PROPERTY_DEFINITION('material property','density of part',#849);
#499=DATE_TIME_ROLE('creation_date');
#500=APPLIED_DATE_AND_TIME_ASSIGNMENT(#501,#499,(#849));
#501=DATE_AND_TIME(#502,#503);
#502=CALENDAR_DATE(2025,12,6);
#503=LOCAL_TIME(0,0,0.,#504);
#504=COORDINATED_UNIVERSAL_TIME_OFFSET(0,0,.BEHIND.);
#505=AXIS2_PLACEMENT_3D('',#706,#560,#561);
#506=AXIS2_PLACEMENT_3D('',#707,#562,#563);
#507=AXIS2_PLACEMENT_3D('',#709,#564,#565);
#508=AXIS2_PLACEMENT_3D('',#712,#567,#568);
#509=AXIS2_PLACEMENT_3D('',#713,#569,#570);
#510=AXIS2_PLACEMENT_3D('',#714,#571,#572);
#511=AXIS2_PLACEMENT_3D('',#716,#573,#574);
#512=AXIS2_PLACEMENT_3D('',#719,#576,#577);
#513=AXIS2_PLACEMENT_3D('',#720,#578,#579);
#514=AXIS2_PLACEMENT_3D('',#721,#580,#581);
#515=AXIS2_PLACEMENT_3D('',#723,#582,#583);
#516=AXIS2_PLACEMENT_3D('',#726,#585,#586);
#517=AXIS2_PLACEMENT_3D('',#727,#587,#588);
#518=AXIS2_PLACEMENT_3D('',#728,#589,#590);
#519=AXIS2_PLACEMENT_3D('',#730,#591,#592);
#520=AXIS2_PLACEMENT_3D('',#733,#594,#595);
#521=AXIS2_PLACEMENT_3D('',#734,#596,#597);
#522=AXIS2_PLACEMENT_3D('',#735,#598,#599);
#523=AXIS2_PLACEMENT_3D('',#737,#600,#601);
#524=AXIS2_PLACEMENT_3D('',#740,#603,#604);
#525=AXIS2_PLACEMENT_3D('',#741,#605,#606);
#526=AXIS2_PLACEMENT_3D('',#743,#607,#608);
#527=AXIS2_PLACEMENT_3D('',#744,#609,#610);
#528=AXIS2_PLACEMENT_3D('',#746,#611,#612);
#529=AXIS2_PLACEMENT_3D('',#749,#614,#615);
#530=AXIS2_PLACEMENT_3D('',#750,#616,#617);
#531=AXIS2_PLACEMENT_3D('',#752,#618,#619);
#532=AXIS2_PLACEMENT_3D('',#753,#620,#621);
#533=AXIS2_PLACEMENT_3D('',#755,#622,#623);
#534=AXIS2_PLACEMENT_3D('',#758,#625,#626);
#535=AXIS2_PLACEMENT_3D('',#759,#627,#628);
#536=AXIS2_PLACEMENT_3D('',#761,#629,#630);
#537=AXIS2_PLACEMENT_3D('',#762,#631,#632);
#538=AXIS2_PLACEMENT_3D('',#764,#633,#634);
#539=AXIS2_PLACEMENT_3D('',#767,#636,#637);
#540=AXIS2_PLACEMENT_3D('',#768,#638,#639);
#541=AXIS2_PLACEMENT_3D('',#770,#640,#641);
#542=AXIS2_PLACEMENT_3D('',#771,#642,#643);
#543=AXIS2_PLACEMENT_3D('',#773,#644,#645);
#544=AXIS2_PLACEMENT_3D('',#775,#647,#648);
#545=AXIS2_PLACEMENT_3D('',#777,#649,#650);
#546=AXIS2_PLACEMENT_3D('',#779,#652,#653);
#547=AXIS2_PLACEMENT_3D('',#781,#654,#655);
#548=AXIS2_PLACEMENT_3D('',#783,#657,#658);
#549=AXIS2_PLACEMENT_3D('',#785,#659,#660);
#550=AXIS2_PLACEMENT_3D('',#787,#662,#663);
#551=AXIS2_PLACEMENT_3D('',#804,#672,#673);
#552=AXIS2_PLACEMENT_3D('',#810,#677,#678);
#553=AXIS2_PLACEMENT_3D('',#816,#682,#683);
#554=AXIS2_PLACEMENT_3D('',#827,#690,#691);
#555=AXIS2_PLACEMENT_3D('',#829,#693,#694);
#556=AXIS2_PLACEMENT_3D('',#831,#696,#697);
#557=AXIS2_PLACEMENT_3D('',#834,#700,#701);
#558=AXIS2_PLACEMENT_3D('',#835,#702,#703);
#559=AXIS2_PLACEMENT_3D('',#836,#704,#705);
#560=DIRECTION('axis',(0.,0.,1.));
#561=DIRECTION('refdir',(1.,0.,0.));
#562=DIRECTION('center_axis',(5.55111512312578E-17,-1.,0.));
#563=DIRECTION('ref_axis',(1.,5.55111512312578E-17,0.));
#564=DIRECTION('center_axis',(-5.55111512312578E-17,1.,0.));
#565=DIRECTION('ref_axis',(1.,5.55111512312578E-17,0.));
#566=DIRECTION('',(-5.55111512312578E-17,1.,0.));
#567=DIRECTION('center_axis',(5.55111512312578E-17,-1.,0.));
#568=DIRECTION('ref_axis',(1.,5.55111512312578E-17,0.));
#569=DIRECTION('center_axis',(5.55111512312578E-17,-1.,0.));
#570=DIRECTION('ref_axis',(1.,5.55111512312578E-17,0.));
#571=DIRECTION('center_axis',(5.55111512312578E-17,-1.,0.));
#572=DIRECTION('ref_axis',(1.,5.55111512312578E-17,0.));
#573=DIRECTION('center_axis',(-5.55111512312578E-17,1.,0.));
#574=DIRECTION('ref_axis',(1.,5.55111512312578E-17,0.));
#575=DIRECTION('',(-5.55111512312578E-17,1.,0.));
#576=DIRECTION('center_axis',(5.55111512312578E-17,-1.,0.));
#577=DIRECTION('ref_axis',(1.,5.55111512312578E-17,0.));
#578=DIRECTION('center_axis',(5.55111512312578E-17,-1.,0.));
#579=DIRECTION('ref_axis',(1.,5.55111512312578E-17,0.));
#580=DIRECTION('center_axis',(5.55111512312578E-17,-1.,0.));
#581=DIRECTION('ref_axis',(1.,5.55111512312578E-17,0.));
#582=DIRECTION('center_axis',(-5.55111512312578E-17,1.,0.));
#583=DIRECTION('ref_axis',(1.,5.55111512312578E-17,0.));
#584=DIRECTION('',(-5.55111512312578E-17,1.,0.));
#585=DIRECTION('center_axis',(5.55111512312578E-17,-1.,0.));
#586=DIRECTION('ref_axis',(1.,5.55111512312578E-17,0.));
#587=DIRECTION('center_axis',(5.55111512312578E-17,-1.,0.));
#588=DIRECTION('ref_axis',(1.,5.55111512312578E-17,0.));
#589=DIRECTION('center_axis',(5.55111512312578E-17,-1.,0.));
#590=DIRECTION('ref_axis',(1.,5.55111512312578E-17,0.));
#591=DIRECTION('center_axis',(-5.55111512312578E-17,1.,0.));
#592=DIRECTION('ref_axis',(1.,5.55111512312578E-17,0.));
#593=DIRECTION('',(-5.55111512312578E-17,1.,0.));
#594=DIRECTION('center_axis',(5.55111512312578E-17,-1.,0.));
#595=DIRECTION('ref_axis',(1.,5.55111512312578E-17,0.));
#596=DIRECTION('center_axis',(5.55111512312578E-17,-1.,0.));
#597=DIRECTION('ref_axis',(1.,5.55111512312578E-17,0.));
#598=DIRECTION('center_axis',(0.,0.,1.));
#599=DIRECTION('ref_axis',(1.,0.,0.));
#600=DIRECTION('center_axis',(0.,0.,-1.));
#601=DIRECTION('ref_axis',(1.,0.,0.));
#602=DIRECTION('',(0.,0.,-1.));
#603=DIRECTION('center_axis',(0.,0.,1.));
#604=DIRECTION('ref_axis',(1.,0.,0.));
#605=DIRECTION('center_axis',(0.,0.,1.));
#606=DIRECTION('ref_axis',(1.,0.,0.));
#607=DIRECTION('center_axis',(0.,0.,1.));
#608=DIRECTION('ref_axis',(1.,0.,0.));
#609=DIRECTION('center_axis',(0.,0.,1.));
#610=DIRECTION('ref_axis',(1.,0.,0.));
#611=DIRECTION('center_axis',(0.,0.,-1.));
#612=DIRECTION('ref_axis',(1.,0.,0.));
#613=DIRECTION('',(0.,0.,-1.));
#614=DIRECTION('center_axis',(0.,0.,1.));
#615=DIRECTION('ref_axis',(1.,0.,0.));
#616=DIRECTION('center_axis',(0.,0.,1.));
#617=DIRECTION('ref_axis',(1.,0.,0.));
#618=DIRECTION('center_axis',(0.,0.,1.));
#619=DIRECTION('ref_axis',(1.,0.,0.));
#620=DIRECTION('center_axis',(0.,0.,1.));
#621=DIRECTION('ref_axis',(1.,0.,0.));
#622=DIRECTION('center_axis',(0.,0.,-1.));
#623=DIRECTION('ref_axis',(1.,0.,0.));
#624=DIRECTION('',(0.,0.,-1.));
#625=DIRECTION('center_axis',(0.,0.,1.));
#626=DIRECTION('ref_axis',(1.,0.,0.));
#627=DIRECTION('center_axis',(0.,0.,1.));
#628=DIRECTION('ref_axis',(1.,0.,0.));
#629=DIRECTION('center_axis',(0.,0.,1.));
#630=DIRECTION('ref_axis',(1.,0.,0.));
#631=DIRECTION('center_axis',(0.,0.,1.));
#632=DIRECTION('ref_axis',(1.,0.,0.));
#633=DIRECTION('center_axis',(0.,0.,-1.));
#634=DIRECTION('ref_axis',(1.,0.,0.));
#635=DIRECTION('',(0.,0.,-1.));
#636=DIRECTION('center_axis',(0.,0.,1.));
#637=DIRECTION('ref_axis',(1.,0.,0.));
#638=DIRECTION('center_axis',(0.,0.,1.));
#639=DIRECTION('ref_axis',(1.,0.,0.));
#640=DIRECTION('center_axis',(0.,0.,1.));
#641=DIRECTION('ref_axis',(1.,0.,0.));
#642=DIRECTION('center_axis',(0.,0.,1.));
#643=DIRECTION('ref_axis',(1.,0.,0.));
#644=DIRECTION('center_axis',(0.,0.,1.));
#645=DIRECTION('ref_axis',(1.,0.,0.));
#646=DIRECTION('',(0.,0.,1.));
#647=DIRECTION('center_axis',(0.,0.,1.));
#648=DIRECTION('ref_axis',(1.,0.,0.));
#649=DIRECTION('center_axis',(0.,0.,1.));
#650=DIRECTION('ref_axis',(1.,0.,0.));
#651=DIRECTION('',(0.,0.,1.));
#652=DIRECTION('center_axis',(0.,0.,1.));
#653=DIRECTION('ref_axis',(1.,0.,0.));
#654=DIRECTION('center_axis',(0.,0.,1.));
#655=DIRECTION('ref_axis',(1.,0.,0.));
#656=DIRECTION('',(0.,0.,1.));
#657=DIRECTION('center_axis',(0.,0.,1.));
#658=DIRECTION('ref_axis',(1.,0.,0.));
#659=DIRECTION('center_axis',(0.,0.,1.));
#660=DIRECTION('ref_axis',(1.,0.,0.));
#661=DIRECTION('',(0.,0.,1.));
#662=DIRECTION('center_axis',(-1.,3.33066907387547E-16,0.));
#663=DIRECTION('ref_axis',(-3.33066907387547E-16,-1.,0.));
#664=DIRECTION('',(3.33066907387547E-16,1.,0.));
#665=DIRECTION('',(0.,0.,-1.));
#666=DIRECTION('',(-3.33066907387547E-16,-1.,0.));
#667=DIRECTION('',(0.,0.,1.));
#668=DIRECTION('',(-3.33066907387547E-16,-1.,0.));
#669=DIRECTION('',(0.,0.,1.));
#670=DIRECTION('',(-3.33066907387547E-16,-1.,0.));
#671=DIRECTION('',(0.,0.,1.));
#672=DIRECTION('center_axis',(0.,-1.,0.));
#673=DIRECTION('ref_axis',(1.,0.,0.));
#674=DIRECTION('',(-1.,0.,0.));
#675=DIRECTION('',(-1.,0.,0.));
#676=DIRECTION('',(0.,0.,1.));
#677=DIRECTION('center_axis',(0.,1.,0.));
#678=DIRECTION('ref_axis',(-1.,0.,0.));
#679=DIRECTION('',(1.,0.,0.));
#680=DIRECTION('',(0.,0.,1.));
#681=DIRECTION('',(1.,0.,0.));
#682=DIRECTION('center_axis',(1.,-1.11022302462516E-16,0.));
#683=DIRECTION('ref_axis',(1.11022302462516E-16,1.,0.));
#684=DIRECTION('',(-1.11022302462516E-16,-1.,0.));
#685=DIRECTION('',(1.11022302462516E-16,1.,0.));
#686=DIRECTION('',(0.,0.,1.));
#687=DIRECTION('',(1.11022302462516E-16,1.,0.));
#688=DIRECTION('',(0.,0.,1.));
#689=DIRECTION('',(1.11022302462516E-16,1.,0.));
#690=DIRECTION('center_axis',(0.,0.,1.));
#691=DIRECTION('ref_axis',(1.,0.,0.));
#692=DIRECTION('',(1.,5.55111512312578E-17,0.));
#693=DIRECTION('center_axis',(5.55111512312578E-17,-1.,0.));
#694=DIRECTION('ref_axis',(1.,5.55111512312578E-17,0.));
#695=DIRECTION('',(1.,5.55111512312578E-17,0.));
#696=DIRECTION('center_axis',(5.55111512312578E-17,1.,0.));
#697=DIRECTION('ref_axis',(-1.,5.55111512312578E-17,0.));
#698=DIRECTION('',(-1.,5.55111512312578E-17,0.));
#699=DIRECTION('',(-1.,5.55111512312578E-17,0.));
#700=DIRECTION('center_axis',(0.,0.,1.));
#701=DIRECTION('ref_axis',(1.,0.,0.));
#702=DIRECTION('center_axis',(0.,0.,1.));
#703=DIRECTION('ref_axis',(1.,0.,0.));
#704=DIRECTION('center_axis',(0.,0.,1.));
#705=DIRECTION('ref_axis',(1.,0.,0.));
#706=CARTESIAN_POINT('',(0.,0.,0.));
#707=CARTESIAN_POINT('Origin',(9.5,-17.75,4.));
#708=CARTESIAN_POINT('',(8.4935,-20.,4.));
#709=CARTESIAN_POINT('Origin',(9.5,-20.,4.));
#710=CARTESIAN_POINT('',(8.4935,-15.5,4.));
#711=CARTESIAN_POINT('',(8.4935,-17.75,4.));
#712=CARTESIAN_POINT('Origin',(9.5,-15.5,4.));
#713=CARTESIAN_POINT('Origin',(9.5,-15.5,4.));
#714=CARTESIAN_POINT('Origin',(-9.5,-17.75,4.));
#715=CARTESIAN_POINT('',(-10.5065,-20.,4.));
#716=CARTESIAN_POINT('Origin',(-9.5,-20.,4.));
#717=CARTESIAN_POINT('',(-10.5065,-15.5,4.));
#718=CARTESIAN_POINT('',(-10.5065,-17.75,4.));
#719=CARTESIAN_POINT('Origin',(-9.5,-15.5,4.));
#720=CARTESIAN_POINT('Origin',(-9.5,-15.5,4.));
#721=CARTESIAN_POINT('Origin',(5.5,-17.75,4.));
#722=CARTESIAN_POINT('',(4.4935,-20.,4.));
#723=CARTESIAN_POINT('Origin',(5.5,-20.,4.));
#724=CARTESIAN_POINT('',(4.4935,-15.5,4.));
#725=CARTESIAN_POINT('',(4.4935,-17.75,4.));
#726=CARTESIAN_POINT('Origin',(5.5,-15.5,4.));
#727=CARTESIAN_POINT('Origin',(5.5,-15.5,4.));
#728=CARTESIAN_POINT('Origin',(-5.5,-17.75,4.));
#729=CARTESIAN_POINT('',(-6.5065,-20.,4.));
#730=CARTESIAN_POINT('Origin',(-5.5,-20.,4.));
#731=CARTESIAN_POINT('',(-6.5065,-15.5,4.));
#732=CARTESIAN_POINT('',(-6.5065,-17.75,4.));
#733=CARTESIAN_POINT('Origin',(-5.5,-15.5,4.));
#734=CARTESIAN_POINT('Origin',(-5.5,-15.5,4.));
#735=CARTESIAN_POINT('Origin',(16.,16.,4.3));
#736=CARTESIAN_POINT('',(13.,16.,6.));
#737=CARTESIAN_POINT('Origin',(16.,16.,6.));
#738=CARTESIAN_POINT('',(13.,16.,2.6));
#739=CARTESIAN_POINT('',(13.,16.,4.3));
#740=CARTESIAN_POINT('Origin',(16.,16.,2.6));
#741=CARTESIAN_POINT('Origin',(16.,16.,2.6));
#742=CARTESIAN_POINT('',(14.3,16.,2.6));
#743=CARTESIAN_POINT('Origin',(16.,16.,2.6));
#744=CARTESIAN_POINT('Origin',(-16.,16.,4.3));
#745=CARTESIAN_POINT('',(-19.,16.,6.));
#746=CARTESIAN_POINT('Origin',(-16.,16.,6.));
#747=CARTESIAN_POINT('',(-19.,16.,2.6));
#748=CARTESIAN_POINT('',(-19.,16.,4.3));
#749=CARTESIAN_POINT('Origin',(-16.,16.,2.6));
#750=CARTESIAN_POINT('Origin',(-16.,16.,2.6));
#751=CARTESIAN_POINT('',(-17.7,16.,2.6));
#752=CARTESIAN_POINT('Origin',(-16.,16.,2.6));
#753=CARTESIAN_POINT('Origin',(16.,-16.,4.3));
#754=CARTESIAN_POINT('',(13.,-16.,6.));
#755=CARTESIAN_POINT('Origin',(16.,-16.,6.));
#756=CARTESIAN_POINT('',(13.,-16.,2.6));
#757=CARTESIAN_POINT('',(13.,-16.,4.3));
#758=CARTESIAN_POINT('Origin',(16.,-16.,2.6));
#759=CARTESIAN_POINT('Origin',(16.,-16.,2.6));
#760=CARTESIAN_POINT('',(14.3,-16.,2.6));
#761=CARTESIAN_POINT('Origin',(16.,-16.,2.6));
#762=CARTESIAN_POINT('Origin',(-16.,-16.,4.3));
#763=CARTESIAN_POINT('',(-19.,-16.,6.));
#764=CARTESIAN_POINT('Origin',(-16.,-16.,6.));
#765=CARTESIAN_POINT('',(-19.,-16.,2.6));
#766=CARTESIAN_POINT('',(-19.,-16.,4.3));
#767=CARTESIAN_POINT('Origin',(-16.,-16.,2.6));
#768=CARTESIAN_POINT('Origin',(-16.,-16.,2.6));
#769=CARTESIAN_POINT('',(-17.7,-16.,2.6));
#770=CARTESIAN_POINT('Origin',(-16.,-16.,2.6));
#771=CARTESIAN_POINT('Origin',(16.,16.,57.8273291792039));
#772=CARTESIAN_POINT('',(14.3,16.,0.));
#773=CARTESIAN_POINT('Origin',(16.,16.,0.));
#774=CARTESIAN_POINT('',(14.3,16.,57.8273291792039));
#775=CARTESIAN_POINT('Origin',(-16.,16.,57.8273291792039));
#776=CARTESIAN_POINT('',(-17.7,16.,0.));
#777=CARTESIAN_POINT('Origin',(-16.,16.,0.));
#778=CARTESIAN_POINT('',(-17.7,16.,57.8273291792039));
#779=CARTESIAN_POINT('Origin',(-16.,-16.,57.8273291792039));
#780=CARTESIAN_POINT('',(-17.7,-16.,0.));
#781=CARTESIAN_POINT('Origin',(-16.,-16.,0.));
#782=CARTESIAN_POINT('',(-17.7,-16.,57.8273291792039));
#783=CARTESIAN_POINT('Origin',(16.,-16.,57.8273291792039));
#784=CARTESIAN_POINT('',(14.3,-16.,0.));
#785=CARTESIAN_POINT('Origin',(16.,-16.,0.));
#786=CARTESIAN_POINT('',(14.3,-16.,57.8273291792039));
#787=CARTESIAN_POINT('Origin',(-20.,8.5,0.));
#788=CARTESIAN_POINT('',(-20.,-8.5,12.));
#789=CARTESIAN_POINT('',(-20.,8.5,12.));
#790=CARTESIAN_POINT('',(-20.,4.25,12.));
#791=CARTESIAN_POINT('',(-20.,8.5,6.));
#792=CARTESIAN_POINT('',(-20.,8.5,0.));
#793=CARTESIAN_POINT('',(-20.,20.,6.));
#794=CARTESIAN_POINT('',(-20.,20.,6.));
#795=CARTESIAN_POINT('',(-20.,20.,0.));
#796=CARTESIAN_POINT('',(-20.,20.,0.));
#797=CARTESIAN_POINT('',(-20.,-20.,0.));
#798=CARTESIAN_POINT('',(-20.,20.,0.));
#799=CARTESIAN_POINT('',(-20.,-20.,6.));
#800=CARTESIAN_POINT('',(-20.,-20.,0.));
#801=CARTESIAN_POINT('',(-20.,-8.5,6.));
#802=CARTESIAN_POINT('',(-20.,20.,6.));
#803=CARTESIAN_POINT('',(-20.,-8.5,0.));
#804=CARTESIAN_POINT('Origin',(-20.,-8.5,0.));
#805=CARTESIAN_POINT('',(20.,-8.5,12.));
#806=CARTESIAN_POINT('',(-10.,-8.5,12.));
#807=CARTESIAN_POINT('',(20.,-8.5,6.));
#808=CARTESIAN_POINT('',(-10.,-8.5,6.));
#809=CARTESIAN_POINT('',(20.,-8.5,0.));
#810=CARTESIAN_POINT('Origin',(20.,8.5,0.));
#811=CARTESIAN_POINT('',(20.,8.5,12.));
#812=CARTESIAN_POINT('',(10.,8.5,12.));
#813=CARTESIAN_POINT('',(20.,8.5,6.));
#814=CARTESIAN_POINT('',(20.,8.5,0.));
#815=CARTESIAN_POINT('',(10.,8.5,6.));
#816=CARTESIAN_POINT('Origin',(20.,-8.5,0.));
#817=CARTESIAN_POINT('',(20.,-4.25,12.));
#818=CARTESIAN_POINT('',(20.,-20.,6.));
#819=CARTESIAN_POINT('',(20.,-20.,6.));
#820=CARTESIAN_POINT('',(20.,-20.,0.));
#821=CARTESIAN_POINT('',(20.,-20.,0.));
#822=CARTESIAN_POINT('',(20.,20.,0.));
#823=CARTESIAN_POINT('',(20.,-20.,0.));
#824=CARTESIAN_POINT('',(20.,20.,6.));
#825=CARTESIAN_POINT('',(20.,20.,0.));
#826=CARTESIAN_POINT('',(20.,-20.,6.));
#827=CARTESIAN_POINT('Origin',(0.,0.,6.));
#828=CARTESIAN_POINT('',(-20.,-20.,6.));
#829=CARTESIAN_POINT('Origin',(-20.,-20.,0.));
#830=CARTESIAN_POINT('',(-20.,-20.,0.));
#831=CARTESIAN_POINT('Origin',(20.,20.,0.));
#832=CARTESIAN_POINT('',(20.,20.,0.));
#833=CARTESIAN_POINT('',(20.,20.,6.));
#834=CARTESIAN_POINT('Origin',(0.,0.,6.));
#835=CARTESIAN_POINT('Origin',(0.,0.,0.));
#836=CARTESIAN_POINT('Origin',(2.22044604925031E-15,0.,12.));
#837=UNCERTAINTY_MEASURE_WITH_UNIT(LENGTH_MEASURE(0.01),#841,
'DISTANCE_ACCURACY_VALUE',
'Maximum model space distance between geometric entities at asserted c
onnectivities');
#838=UNCERTAINTY_MEASURE_WITH_UNIT(LENGTH_MEASURE(0.01),#841,
'DISTANCE_ACCURACY_VALUE',
'Maximum model space distance between geometric entities at asserted c
onnectivities');
#839=(
GEOMETRIC_REPRESENTATION_CONTEXT(3)
GLOBAL_UNCERTAINTY_ASSIGNED_CONTEXT((#837))
GLOBAL_UNIT_ASSIGNED_CONTEXT((#841,#843,#844))
REPRESENTATION_CONTEXT('','3D')
);
#840=(
GEOMETRIC_REPRESENTATION_CONTEXT(3)
GLOBAL_UNCERTAINTY_ASSIGNED_CONTEXT((#838))
GLOBAL_UNIT_ASSIGNED_CONTEXT((#841,#843,#844))
REPRESENTATION_CONTEXT('','3D')
);
#841=(
LENGTH_UNIT()
NAMED_UNIT(*)
SI_UNIT(.MILLI.,.METRE.)
);
#842=(
LENGTH_UNIT()
NAMED_UNIT(*)
SI_UNIT(.CENTI.,.METRE.)
);
#843=(
NAMED_UNIT(*)
PLANE_ANGLE_UNIT()
SI_UNIT($,.RADIAN.)
);
#844=(
NAMED_UNIT(*)
SI_UNIT($,.STERADIAN.)
SOLID_ANGLE_UNIT()
);
#845=SHAPE_DEFINITION_REPRESENTATION(#846,#847);
#846=PRODUCT_DEFINITION_SHAPE('',$,#849);
#847=SHAPE_REPRESENTATION('',(#505),#839);
#848=PRODUCT_DEFINITION_CONTEXT('part definition',#853,'design');
#849=PRODUCT_DEFINITION('BUY - XYZ linear table - LD40 --- base',
'BUY - XYZ linear table - LD40 --- base',#850,#848);
#850=PRODUCT_DEFINITION_FORMATION('',$,#855);
#851=PRODUCT_RELATED_PRODUCT_CATEGORY(
'BUY - XYZ linear table - LD40 --- base',
'BUY - XYZ linear table - LD40 --- base',(#855));
#852=APPLICATION_PROTOCOL_DEFINITION('international standard',
'automotive_design',2009,#853);
#853=APPLICATION_CONTEXT(
'Core Data for Automotive Mechanical Design Process');
#854=PRODUCT_CONTEXT('part definition',#853,'mechanical');
#855=PRODUCT('BUY - XYZ linear table - LD40 --- base',
'BUY - XYZ linear table - LD40 --- base',$,(#854));
#856=PRESENTATION_STYLE_ASSIGNMENT((#857));
#857=SURFACE_STYLE_USAGE(.BOTH.,#860);
#858=SURFACE_STYLE_RENDERING_WITH_PROPERTIES($,#864,(#859));
#859=SURFACE_STYLE_TRANSPARENT(0.);
#860=SURFACE_SIDE_STYLE('',(#861,#858));
#861=SURFACE_STYLE_FILL_AREA(#862);
#862=FILL_AREA_STYLE('',(#863));
#863=FILL_AREA_STYLE_COLOUR('',#864);
#864=COLOUR_RGB('',0.270588235294118,0.270588235294118,0.270588235294118);
ENDSEC;
END-ISO-10303-21;
