ISO-10303-21;
HEADER;
/* Generated by software containing ST-Developer
 * from STEP Tools, Inc. (www.steptools.com) 
 */

FILE_DESCRIPTION(
/* description */ ('Motor holder X stage'),
/* implementation_level */ '2;1');

FILE_NAME(
/* name */ 'PRT - 3021 - MOTHOLXST.stp',
/* time_stamp */ '2026-09-22T15:19:24+02:00',
/* author */ ('benir'),
/* organization */ (''),
/* preprocessor_version */ 'ST-DEVELOPER v20',
/* originating_system */ 'Autodesk Inventor 2025',
/* authorisation */ '');

FILE_SCHEMA (('AUTOMOTIVE_DESIGN { 1 0 10303 214 3 1 1 }'));
ENDSEC;

DATA;
#10=MECHANICAL_DESIGN_GEOMETRIC_PRESENTATION_REPRESENTATION('',(#13),#1048);
#11=SHAPE_REPRESENTATION_RELATIONSHIP('SRR','None',#1055,#12);
#12=ADVANCED_BREP_SHAPE_REPRESENTATION('',(#14),#1047);
#13=STYLED_ITEM('',(#1064),#14);
#14=MANIFOLD_SOLID_BREP('Motor holder self X',#634);
#15=CYLINDRICAL_SURFACE('',#684,1.0065);
#16=CYLINDRICAL_SURFACE('',#689,2.75);
#17=CYLINDRICAL_SURFACE('',#691,1.45);
#18=CYLINDRICAL_SURFACE('',#694,4.5);
#19=CYLINDRICAL_SURFACE('',#695,4.5);
#20=CYLINDRICAL_SURFACE('',#697,1.4);
#21=CYLINDRICAL_SURFACE('',#698,1.4);
#22=FACE_BOUND('',#82,.T.);
#23=FACE_BOUND('',#83,.T.);
#24=FACE_BOUND('',#87,.T.);
#25=FACE_BOUND('',#88,.T.);
#26=FACE_BOUND('',#93,.T.);
#27=FACE_BOUND('',#97,.T.);
#28=FACE_BOUND('',#102,.T.);
#29=FACE_BOUND('',#114,.T.);
#30=FACE_BOUND('',#117,.T.);
#31=CIRCLE('',#659,4.5);
#32=CIRCLE('',#660,4.5);
#33=CIRCLE('',#664,1.4);
#34=CIRCLE('',#665,1.4);
#35=CIRCLE('',#669,1.4);
#36=CIRCLE('',#670,1.4);
#37=CIRCLE('',#674,4.5);
#38=CIRCLE('',#675,4.5);
#39=CIRCLE('',#677,1.45);
#40=CIRCLE('',#681,1.0065);
#41=CIRCLE('',#685,1.0065);
#42=CIRCLE('',#687,2.75);
#43=CIRCLE('',#688,1.45);
#44=CIRCLE('',#690,2.75);
#45=FACE_OUTER_BOUND('',#77,.T.);
#46=FACE_OUTER_BOUND('',#78,.T.);
#47=FACE_OUTER_BOUND('',#79,.T.);
#48=FACE_OUTER_BOUND('',#80,.T.);
#49=FACE_OUTER_BOUND('',#81,.T.);
#50=FACE_OUTER_BOUND('',#84,.T.);
#51=FACE_OUTER_BOUND('',#85,.T.);
#52=FACE_OUTER_BOUND('',#86,.T.);
#53=FACE_OUTER_BOUND('',#89,.T.);
#54=FACE_OUTER_BOUND('',#90,.T.);
#55=FACE_OUTER_BOUND('',#91,.T.);
#56=FACE_OUTER_BOUND('',#92,.T.);
#57=FACE_OUTER_BOUND('',#94,.T.);
#58=FACE_OUTER_BOUND('',#95,.T.);
#59=FACE_OUTER_BOUND('',#96,.T.);
#60=FACE_OUTER_BOUND('',#98,.T.);
#61=FACE_OUTER_BOUND('',#99,.T.);
#62=FACE_OUTER_BOUND('',#100,.T.);
#63=FACE_OUTER_BOUND('',#101,.T.);
#64=FACE_OUTER_BOUND('',#103,.T.);
#65=FACE_OUTER_BOUND('',#104,.T.);
#66=FACE_OUTER_BOUND('',#105,.T.);
#67=FACE_OUTER_BOUND('',#106,.T.);
#68=FACE_OUTER_BOUND('',#107,.T.);
#69=FACE_OUTER_BOUND('',#108,.T.);
#70=FACE_OUTER_BOUND('',#109,.T.);
#71=FACE_OUTER_BOUND('',#110,.T.);
#72=FACE_OUTER_BOUND('',#111,.T.);
#73=FACE_OUTER_BOUND('',#112,.T.);
#74=FACE_OUTER_BOUND('',#113,.T.);
#75=FACE_OUTER_BOUND('',#115,.T.);
#76=FACE_OUTER_BOUND('',#116,.T.);
#77=EDGE_LOOP('',(#405,#406,#407,#408));
#78=EDGE_LOOP('',(#409,#410,#411,#412,#413,#414,#415,#416,#417,#418,#419,
#420,#421,#422,#423));
#79=EDGE_LOOP('',(#424,#425,#426,#427,#428,#429,#430));
#80=EDGE_LOOP('',(#431,#432,#433,#434));
#81=EDGE_LOOP('',(#435,#436,#437,#438,#439,#440));
#82=EDGE_LOOP('',(#441));
#83=EDGE_LOOP('',(#442));
#84=EDGE_LOOP('',(#443,#444,#445,#446,#447,#448));
#85=EDGE_LOOP('',(#449,#450,#451,#452));
#86=EDGE_LOOP('',(#453,#454,#455,#456,#457,#458));
#87=EDGE_LOOP('',(#459));
#88=EDGE_LOOP('',(#460));
#89=EDGE_LOOP('',(#461,#462,#463,#464));
#90=EDGE_LOOP('',(#465,#466,#467,#468));
#91=EDGE_LOOP('',(#469,#470,#471,#472,#473,#474,#475,#476,#477,#478,#479,
#480,#481,#482));
#92=EDGE_LOOP('',(#483,#484,#485,#486,#487,#488));
#93=EDGE_LOOP('',(#489));
#94=EDGE_LOOP('',(#490,#491,#492,#493));
#95=EDGE_LOOP('',(#494,#495,#496,#497));
#96=EDGE_LOOP('',(#498,#499,#500,#501,#502,#503));
#97=EDGE_LOOP('',(#504));
#98=EDGE_LOOP('',(#505,#506,#507,#508));
#99=EDGE_LOOP('',(#509,#510,#511,#512));
#100=EDGE_LOOP('',(#513,#514,#515,#516));
#101=EDGE_LOOP('',(#517));
#102=EDGE_LOOP('',(#518));
#103=EDGE_LOOP('',(#519,#520,#521,#522));
#104=EDGE_LOOP('',(#523,#524,#525,#526));
#105=EDGE_LOOP('',(#527,#528,#529,#530));
#106=EDGE_LOOP('',(#531,#532,#533,#534));
#107=EDGE_LOOP('',(#535,#536,#537,#538));
#108=EDGE_LOOP('',(#539,#540,#541,#542));
#109=EDGE_LOOP('',(#543,#544,#545,#546));
#110=EDGE_LOOP('',(#547,#548,#549,#550));
#111=EDGE_LOOP('',(#551,#552,#553,#554));
#112=EDGE_LOOP('',(#555,#556,#557,#558));
#113=EDGE_LOOP('',(#559,#560,#561,#562,#563,#564));
#114=EDGE_LOOP('',(#565));
#115=EDGE_LOOP('',(#566,#567,#568,#569));
#116=EDGE_LOOP('',(#570,#571,#572,#573,#574,#575));
#117=EDGE_LOOP('',(#576));
#118=LINE('',#873,#190);
#119=LINE('',#875,#191);
#120=LINE('',#877,#192);
#121=LINE('',#878,#193);
#122=LINE('',#881,#194);
#123=LINE('',#883,#195);
#124=LINE('',#885,#196);
#125=LINE('',#887,#197);
#126=LINE('',#889,#198);
#127=LINE('',#891,#199);
#128=LINE('',#895,#200);
#129=LINE('',#897,#201);
#130=LINE('',#899,#202);
#131=LINE('',#903,#203);
#132=LINE('',#905,#204);
#133=LINE('',#906,#205);
#134=LINE('',#909,#206);
#135=LINE('',#911,#207);
#136=LINE('',#913,#208);
#137=LINE('',#915,#209);
#138=LINE('',#916,#210);
#139=LINE('',#919,#211);
#140=LINE('',#921,#212);
#141=LINE('',#922,#213);
#142=LINE('',#925,#214);
#143=LINE('',#927,#215);
#144=LINE('',#929,#216);
#145=LINE('',#930,#217);
#146=LINE('',#936,#218);
#147=LINE('',#938,#219);
#148=LINE('',#939,#220);
#149=LINE('',#942,#221);
#150=LINE('',#943,#222);
#151=LINE('',#946,#223);
#152=LINE('',#947,#224);
#153=LINE('',#953,#225);
#154=LINE('',#957,#226);
#155=LINE('',#959,#227);
#156=LINE('',#961,#228);
#157=LINE('',#962,#229);
#158=LINE('',#964,#230);
#159=LINE('',#966,#231);
#160=LINE('',#970,#232);
#161=LINE('',#972,#233);
#162=LINE('',#974,#234);
#163=LINE('',#978,#235);
#164=LINE('',#980,#236);
#165=LINE('',#981,#237);
#166=LINE('',#984,#238);
#167=LINE('',#985,#239);
#168=LINE('',#986,#240);
#169=LINE('',#991,#241);
#170=LINE('',#993,#242);
#171=LINE('',#994,#243);
#172=LINE('',#997,#244);
#173=LINE('',#999,#245);
#174=LINE('',#1000,#246);
#175=LINE('',#1002,#247);
#176=LINE('',#1003,#248);
#177=LINE('',#1008,#249);
#178=LINE('',#1009,#250);
#179=LINE('',#1011,#251);
#180=LINE('',#1014,#252);
#181=LINE('',#1024,#253);
#182=LINE('',#1026,#254);
#183=LINE('',#1028,#255);
#184=LINE('',#1029,#256);
#185=LINE('',#1031,#257);
#186=LINE('',#1034,#258);
#187=LINE('',#1037,#259);
#188=LINE('',#1039,#260);
#189=LINE('',#1041,#261);
#190=VECTOR('',#707,10.);
#191=VECTOR('',#708,10.);
#192=VECTOR('',#709,10.);
#193=VECTOR('',#710,10.);
#194=VECTOR('',#713,10.);
#195=VECTOR('',#714,10.);
#196=VECTOR('',#715,10.);
#197=VECTOR('',#716,10.);
#198=VECTOR('',#717,10.);
#199=VECTOR('',#718,10.);
#200=VECTOR('',#721,10.);
#201=VECTOR('',#722,10.);
#202=VECTOR('',#723,10.);
#203=VECTOR('',#726,10.);
#204=VECTOR('',#727,10.);
#205=VECTOR('',#728,10.);
#206=VECTOR('',#731,10.);
#207=VECTOR('',#732,10.);
#208=VECTOR('',#733,10.);
#209=VECTOR('',#734,10.);
#210=VECTOR('',#735,10.);
#211=VECTOR('',#738,10.);
#212=VECTOR('',#739,10.);
#213=VECTOR('',#740,10.);
#214=VECTOR('',#743,10.);
#215=VECTOR('',#744,10.);
#216=VECTOR('',#745,10.);
#217=VECTOR('',#746,10.);
#218=VECTOR('',#753,10.);
#219=VECTOR('',#754,10.);
#220=VECTOR('',#755,10.);
#221=VECTOR('',#758,10.);
#222=VECTOR('',#759,10.);
#223=VECTOR('',#762,10.);
#224=VECTOR('',#763,10.);
#225=VECTOR('',#770,10.);
#226=VECTOR('',#773,10.);
#227=VECTOR('',#774,10.);
#228=VECTOR('',#775,10.);
#229=VECTOR('',#776,10.);
#230=VECTOR('',#779,10.);
#231=VECTOR('',#780,10.);
#232=VECTOR('',#783,10.);
#233=VECTOR('',#784,10.);
#234=VECTOR('',#785,10.);
#235=VECTOR('',#788,10.);
#236=VECTOR('',#789,10.);
#237=VECTOR('',#790,10.);
#238=VECTOR('',#793,10.);
#239=VECTOR('',#794,10.);
#240=VECTOR('',#795,10.);
#241=VECTOR('',#800,10.);
#242=VECTOR('',#801,10.);
#243=VECTOR('',#802,10.);
#244=VECTOR('',#805,10.);
#245=VECTOR('',#806,10.);
#246=VECTOR('',#807,10.);
#247=VECTOR('',#810,10.);
#248=VECTOR('',#811,10.);
#249=VECTOR('',#816,10.);
#250=VECTOR('',#817,10.);
#251=VECTOR('',#820,10.);
#252=VECTOR('',#823,1.0065);
#253=VECTOR('',#836,2.75);
#254=VECTOR('',#839,1.45);
#255=VECTOR('',#842,10.);
#256=VECTOR('',#843,10.);
#257=VECTOR('',#846,10.);
#258=VECTOR('',#851,10.);
#259=VECTOR('',#856,1.4);
#260=VECTOR('',#859,1.4);
#261=VECTOR('',#862,10.);
#262=VERTEX_POINT('',#871);
#263=VERTEX_POINT('',#872);
#264=VERTEX_POINT('',#874);
#265=VERTEX_POINT('',#876);
#266=VERTEX_POINT('',#880);
#267=VERTEX_POINT('',#882);
#268=VERTEX_POINT('',#884);
#269=VERTEX_POINT('',#886);
#270=VERTEX_POINT('',#888);
#271=VERTEX_POINT('',#890);
#272=VERTEX_POINT('',#892);
#273=VERTEX_POINT('',#894);
#274=VERTEX_POINT('',#896);
#275=VERTEX_POINT('',#898);
#276=VERTEX_POINT('',#900);
#277=VERTEX_POINT('',#902);
#278=VERTEX_POINT('',#904);
#279=VERTEX_POINT('',#908);
#280=VERTEX_POINT('',#910);
#281=VERTEX_POINT('',#912);
#282=VERTEX_POINT('',#914);
#283=VERTEX_POINT('',#918);
#284=VERTEX_POINT('',#920);
#285=VERTEX_POINT('',#924);
#286=VERTEX_POINT('',#926);
#287=VERTEX_POINT('',#928);
#288=VERTEX_POINT('',#931);
#289=VERTEX_POINT('',#933);
#290=VERTEX_POINT('',#937);
#291=VERTEX_POINT('',#941);
#292=VERTEX_POINT('',#945);
#293=VERTEX_POINT('',#948);
#294=VERTEX_POINT('',#950);
#295=VERTEX_POINT('',#955);
#296=VERTEX_POINT('',#956);
#297=VERTEX_POINT('',#958);
#298=VERTEX_POINT('',#960);
#299=VERTEX_POINT('',#965);
#300=VERTEX_POINT('',#967);
#301=VERTEX_POINT('',#969);
#302=VERTEX_POINT('',#971);
#303=VERTEX_POINT('',#973);
#304=VERTEX_POINT('',#975);
#305=VERTEX_POINT('',#977);
#306=VERTEX_POINT('',#979);
#307=VERTEX_POINT('',#983);
#308=VERTEX_POINT('',#987);
#309=VERTEX_POINT('',#990);
#310=VERTEX_POINT('',#992);
#311=VERTEX_POINT('',#996);
#312=VERTEX_POINT('',#998);
#313=VERTEX_POINT('',#1004);
#314=VERTEX_POINT('',#1007);
#315=VERTEX_POINT('',#1013);
#316=VERTEX_POINT('',#1017);
#317=VERTEX_POINT('',#1019);
#318=VERTEX_POINT('',#1022);
#319=EDGE_CURVE('',#262,#263,#118,.T.);
#320=EDGE_CURVE('',#263,#264,#119,.T.);
#321=EDGE_CURVE('',#264,#265,#120,.T.);
#322=EDGE_CURVE('',#265,#262,#121,.T.);
#323=EDGE_CURVE('',#266,#262,#122,.T.);
#324=EDGE_CURVE('',#266,#267,#123,.T.);
#325=EDGE_CURVE('',#267,#268,#124,.T.);
#326=EDGE_CURVE('',#268,#269,#125,.T.);
#327=EDGE_CURVE('',#270,#269,#126,.T.);
#328=EDGE_CURVE('',#271,#270,#127,.T.);
#329=EDGE_CURVE('',#272,#271,#31,.T.);
#330=EDGE_CURVE('',#273,#272,#128,.T.);
#331=EDGE_CURVE('',#274,#273,#129,.T.);
#332=EDGE_CURVE('',#275,#274,#130,.T.);
#333=EDGE_CURVE('',#276,#275,#32,.T.);
#334=EDGE_CURVE('',#277,#276,#131,.T.);
#335=EDGE_CURVE('',#278,#277,#132,.T.);
#336=EDGE_CURVE('',#263,#278,#133,.T.);
#337=EDGE_CURVE('',#279,#265,#134,.T.);
#338=EDGE_CURVE('',#280,#279,#135,.T.);
#339=EDGE_CURVE('',#281,#280,#136,.T.);
#340=EDGE_CURVE('',#282,#281,#137,.T.);
#341=EDGE_CURVE('',#282,#266,#138,.T.);
#342=EDGE_CURVE('',#279,#283,#139,.T.);
#343=EDGE_CURVE('',#283,#284,#140,.T.);
#344=EDGE_CURVE('',#284,#280,#141,.T.);
#345=EDGE_CURVE('',#284,#285,#142,.T.);
#346=EDGE_CURVE('',#286,#285,#143,.T.);
#347=EDGE_CURVE('',#286,#287,#144,.T.);
#348=EDGE_CURVE('',#281,#287,#145,.T.);
#349=EDGE_CURVE('',#288,#288,#33,.T.);
#350=EDGE_CURVE('',#289,#289,#34,.T.);
#351=EDGE_CURVE('',#283,#268,#146,.T.);
#352=EDGE_CURVE('',#267,#290,#147,.T.);
#353=EDGE_CURVE('',#285,#290,#148,.T.);
#354=EDGE_CURVE('',#291,#282,#149,.T.);
#355=EDGE_CURVE('',#287,#291,#150,.T.);
#356=EDGE_CURVE('',#292,#291,#151,.T.);
#357=EDGE_CURVE('',#290,#292,#152,.T.);
#358=EDGE_CURVE('',#293,#293,#35,.T.);
#359=EDGE_CURVE('',#294,#294,#36,.T.);
#360=EDGE_CURVE('',#292,#286,#153,.T.);
#361=EDGE_CURVE('',#295,#296,#154,.T.);
#362=EDGE_CURVE('',#296,#297,#155,.T.);
#363=EDGE_CURVE('',#297,#298,#156,.T.);
#364=EDGE_CURVE('',#298,#295,#157,.T.);
#365=EDGE_CURVE('',#295,#264,#158,.T.);
#366=EDGE_CURVE('',#299,#298,#159,.T.);
#367=EDGE_CURVE('',#300,#299,#37,.T.);
#368=EDGE_CURVE('',#301,#300,#160,.T.);
#369=EDGE_CURVE('',#302,#301,#161,.T.);
#370=EDGE_CURVE('',#303,#302,#162,.T.);
#371=EDGE_CURVE('',#304,#303,#38,.T.);
#372=EDGE_CURVE('',#305,#304,#163,.T.);
#373=EDGE_CURVE('',#306,#305,#164,.T.);
#374=EDGE_CURVE('',#306,#283,#165,.T.);
#375=EDGE_CURVE('',#297,#307,#166,.T.);
#376=EDGE_CURVE('',#277,#307,#167,.T.);
#377=EDGE_CURVE('',#299,#276,#168,.T.);
#378=EDGE_CURVE('',#308,#308,#39,.T.);
#379=EDGE_CURVE('',#309,#306,#169,.T.);
#380=EDGE_CURVE('',#305,#310,#170,.T.);
#381=EDGE_CURVE('',#310,#309,#171,.T.);
#382=EDGE_CURVE('',#311,#310,#172,.T.);
#383=EDGE_CURVE('',#312,#311,#173,.T.);
#384=EDGE_CURVE('',#312,#309,#174,.T.);
#385=EDGE_CURVE('',#304,#271,#175,.T.);
#386=EDGE_CURVE('',#311,#270,#176,.T.);
#387=EDGE_CURVE('',#313,#313,#40,.T.);
#388=EDGE_CURVE('',#314,#278,#177,.T.);
#389=EDGE_CURVE('',#307,#314,#178,.T.);
#390=EDGE_CURVE('',#269,#312,#179,.T.);
#391=EDGE_CURVE('',#313,#315,#180,.T.);
#392=EDGE_CURVE('',#315,#315,#41,.T.);
#393=EDGE_CURVE('',#316,#316,#42,.T.);
#394=EDGE_CURVE('',#317,#317,#43,.T.);
#395=EDGE_CURVE('',#318,#318,#44,.T.);
#396=EDGE_CURVE('',#318,#316,#181,.T.);
#397=EDGE_CURVE('',#317,#308,#182,.T.);
#398=EDGE_CURVE('',#302,#273,#183,.T.);
#399=EDGE_CURVE('',#301,#274,#184,.T.);
#400=EDGE_CURVE('',#303,#272,#185,.T.);
#401=EDGE_CURVE('',#300,#275,#186,.T.);
#402=EDGE_CURVE('',#288,#294,#187,.T.);
#403=EDGE_CURVE('',#289,#293,#188,.T.);
#404=EDGE_CURVE('',#314,#296,#189,.T.);
#405=ORIENTED_EDGE('',*,*,#319,.T.);
#406=ORIENTED_EDGE('',*,*,#320,.T.);
#407=ORIENTED_EDGE('',*,*,#321,.T.);
#408=ORIENTED_EDGE('',*,*,#322,.T.);
#409=ORIENTED_EDGE('',*,*,#319,.F.);
#410=ORIENTED_EDGE('',*,*,#323,.F.);
#411=ORIENTED_EDGE('',*,*,#324,.T.);
#412=ORIENTED_EDGE('',*,*,#325,.T.);
#413=ORIENTED_EDGE('',*,*,#326,.T.);
#414=ORIENTED_EDGE('',*,*,#327,.F.);
#415=ORIENTED_EDGE('',*,*,#328,.F.);
#416=ORIENTED_EDGE('',*,*,#329,.F.);
#417=ORIENTED_EDGE('',*,*,#330,.F.);
#418=ORIENTED_EDGE('',*,*,#331,.F.);
#419=ORIENTED_EDGE('',*,*,#332,.F.);
#420=ORIENTED_EDGE('',*,*,#333,.F.);
#421=ORIENTED_EDGE('',*,*,#334,.F.);
#422=ORIENTED_EDGE('',*,*,#335,.F.);
#423=ORIENTED_EDGE('',*,*,#336,.F.);
#424=ORIENTED_EDGE('',*,*,#322,.F.);
#425=ORIENTED_EDGE('',*,*,#337,.F.);
#426=ORIENTED_EDGE('',*,*,#338,.F.);
#427=ORIENTED_EDGE('',*,*,#339,.F.);
#428=ORIENTED_EDGE('',*,*,#340,.F.);
#429=ORIENTED_EDGE('',*,*,#341,.T.);
#430=ORIENTED_EDGE('',*,*,#323,.T.);
#431=ORIENTED_EDGE('',*,*,#338,.T.);
#432=ORIENTED_EDGE('',*,*,#342,.T.);
#433=ORIENTED_EDGE('',*,*,#343,.T.);
#434=ORIENTED_EDGE('',*,*,#344,.T.);
#435=ORIENTED_EDGE('',*,*,#344,.F.);
#436=ORIENTED_EDGE('',*,*,#345,.T.);
#437=ORIENTED_EDGE('',*,*,#346,.F.);
#438=ORIENTED_EDGE('',*,*,#347,.T.);
#439=ORIENTED_EDGE('',*,*,#348,.F.);
#440=ORIENTED_EDGE('',*,*,#339,.T.);
#441=ORIENTED_EDGE('',*,*,#349,.F.);
#442=ORIENTED_EDGE('',*,*,#350,.F.);
#443=ORIENTED_EDGE('',*,*,#343,.F.);
#444=ORIENTED_EDGE('',*,*,#351,.T.);
#445=ORIENTED_EDGE('',*,*,#325,.F.);
#446=ORIENTED_EDGE('',*,*,#352,.T.);
#447=ORIENTED_EDGE('',*,*,#353,.F.);
#448=ORIENTED_EDGE('',*,*,#345,.F.);
#449=ORIENTED_EDGE('',*,*,#354,.T.);
#450=ORIENTED_EDGE('',*,*,#340,.T.);
#451=ORIENTED_EDGE('',*,*,#348,.T.);
#452=ORIENTED_EDGE('',*,*,#355,.T.);
#453=ORIENTED_EDGE('',*,*,#354,.F.);
#454=ORIENTED_EDGE('',*,*,#356,.F.);
#455=ORIENTED_EDGE('',*,*,#357,.F.);
#456=ORIENTED_EDGE('',*,*,#352,.F.);
#457=ORIENTED_EDGE('',*,*,#324,.F.);
#458=ORIENTED_EDGE('',*,*,#341,.F.);
#459=ORIENTED_EDGE('',*,*,#358,.F.);
#460=ORIENTED_EDGE('',*,*,#359,.F.);
#461=ORIENTED_EDGE('',*,*,#357,.T.);
#462=ORIENTED_EDGE('',*,*,#360,.T.);
#463=ORIENTED_EDGE('',*,*,#346,.T.);
#464=ORIENTED_EDGE('',*,*,#353,.T.);
#465=ORIENTED_EDGE('',*,*,#361,.T.);
#466=ORIENTED_EDGE('',*,*,#362,.T.);
#467=ORIENTED_EDGE('',*,*,#363,.T.);
#468=ORIENTED_EDGE('',*,*,#364,.T.);
#469=ORIENTED_EDGE('',*,*,#321,.F.);
#470=ORIENTED_EDGE('',*,*,#365,.F.);
#471=ORIENTED_EDGE('',*,*,#364,.F.);
#472=ORIENTED_EDGE('',*,*,#366,.F.);
#473=ORIENTED_EDGE('',*,*,#367,.F.);
#474=ORIENTED_EDGE('',*,*,#368,.F.);
#475=ORIENTED_EDGE('',*,*,#369,.F.);
#476=ORIENTED_EDGE('',*,*,#370,.F.);
#477=ORIENTED_EDGE('',*,*,#371,.F.);
#478=ORIENTED_EDGE('',*,*,#372,.F.);
#479=ORIENTED_EDGE('',*,*,#373,.F.);
#480=ORIENTED_EDGE('',*,*,#374,.T.);
#481=ORIENTED_EDGE('',*,*,#342,.F.);
#482=ORIENTED_EDGE('',*,*,#337,.T.);
#483=ORIENTED_EDGE('',*,*,#363,.F.);
#484=ORIENTED_EDGE('',*,*,#375,.T.);
#485=ORIENTED_EDGE('',*,*,#376,.F.);
#486=ORIENTED_EDGE('',*,*,#334,.T.);
#487=ORIENTED_EDGE('',*,*,#377,.F.);
#488=ORIENTED_EDGE('',*,*,#366,.T.);
#489=ORIENTED_EDGE('',*,*,#378,.F.);
#490=ORIENTED_EDGE('',*,*,#379,.T.);
#491=ORIENTED_EDGE('',*,*,#373,.T.);
#492=ORIENTED_EDGE('',*,*,#380,.T.);
#493=ORIENTED_EDGE('',*,*,#381,.T.);
#494=ORIENTED_EDGE('',*,*,#381,.F.);
#495=ORIENTED_EDGE('',*,*,#382,.F.);
#496=ORIENTED_EDGE('',*,*,#383,.F.);
#497=ORIENTED_EDGE('',*,*,#384,.T.);
#498=ORIENTED_EDGE('',*,*,#380,.F.);
#499=ORIENTED_EDGE('',*,*,#372,.T.);
#500=ORIENTED_EDGE('',*,*,#385,.T.);
#501=ORIENTED_EDGE('',*,*,#328,.T.);
#502=ORIENTED_EDGE('',*,*,#386,.F.);
#503=ORIENTED_EDGE('',*,*,#382,.T.);
#504=ORIENTED_EDGE('',*,*,#387,.F.);
#505=ORIENTED_EDGE('',*,*,#388,.T.);
#506=ORIENTED_EDGE('',*,*,#335,.T.);
#507=ORIENTED_EDGE('',*,*,#376,.T.);
#508=ORIENTED_EDGE('',*,*,#389,.T.);
#509=ORIENTED_EDGE('',*,*,#390,.T.);
#510=ORIENTED_EDGE('',*,*,#383,.T.);
#511=ORIENTED_EDGE('',*,*,#386,.T.);
#512=ORIENTED_EDGE('',*,*,#327,.T.);
#513=ORIENTED_EDGE('',*,*,#387,.T.);
#514=ORIENTED_EDGE('',*,*,#391,.T.);
#515=ORIENTED_EDGE('',*,*,#392,.T.);
#516=ORIENTED_EDGE('',*,*,#391,.F.);
#517=ORIENTED_EDGE('',*,*,#393,.F.);
#518=ORIENTED_EDGE('',*,*,#394,.T.);
#519=ORIENTED_EDGE('',*,*,#395,.T.);
#520=ORIENTED_EDGE('',*,*,#396,.T.);
#521=ORIENTED_EDGE('',*,*,#393,.T.);
#522=ORIENTED_EDGE('',*,*,#396,.F.);
#523=ORIENTED_EDGE('',*,*,#394,.F.);
#524=ORIENTED_EDGE('',*,*,#397,.T.);
#525=ORIENTED_EDGE('',*,*,#378,.T.);
#526=ORIENTED_EDGE('',*,*,#397,.F.);
#527=ORIENTED_EDGE('',*,*,#331,.T.);
#528=ORIENTED_EDGE('',*,*,#398,.F.);
#529=ORIENTED_EDGE('',*,*,#369,.T.);
#530=ORIENTED_EDGE('',*,*,#399,.T.);
#531=ORIENTED_EDGE('',*,*,#330,.T.);
#532=ORIENTED_EDGE('',*,*,#400,.F.);
#533=ORIENTED_EDGE('',*,*,#370,.T.);
#534=ORIENTED_EDGE('',*,*,#398,.T.);
#535=ORIENTED_EDGE('',*,*,#329,.T.);
#536=ORIENTED_EDGE('',*,*,#385,.F.);
#537=ORIENTED_EDGE('',*,*,#371,.T.);
#538=ORIENTED_EDGE('',*,*,#400,.T.);
#539=ORIENTED_EDGE('',*,*,#333,.T.);
#540=ORIENTED_EDGE('',*,*,#401,.F.);
#541=ORIENTED_EDGE('',*,*,#367,.T.);
#542=ORIENTED_EDGE('',*,*,#377,.T.);
#543=ORIENTED_EDGE('',*,*,#332,.T.);
#544=ORIENTED_EDGE('',*,*,#399,.F.);
#545=ORIENTED_EDGE('',*,*,#368,.T.);
#546=ORIENTED_EDGE('',*,*,#401,.T.);
#547=ORIENTED_EDGE('',*,*,#349,.T.);
#548=ORIENTED_EDGE('',*,*,#402,.T.);
#549=ORIENTED_EDGE('',*,*,#359,.T.);
#550=ORIENTED_EDGE('',*,*,#402,.F.);
#551=ORIENTED_EDGE('',*,*,#350,.T.);
#552=ORIENTED_EDGE('',*,*,#403,.T.);
#553=ORIENTED_EDGE('',*,*,#358,.T.);
#554=ORIENTED_EDGE('',*,*,#403,.F.);
#555=ORIENTED_EDGE('',*,*,#362,.F.);
#556=ORIENTED_EDGE('',*,*,#404,.F.);
#557=ORIENTED_EDGE('',*,*,#389,.F.);
#558=ORIENTED_EDGE('',*,*,#375,.F.);
#559=ORIENTED_EDGE('',*,*,#379,.F.);
#560=ORIENTED_EDGE('',*,*,#384,.F.);
#561=ORIENTED_EDGE('',*,*,#390,.F.);
#562=ORIENTED_EDGE('',*,*,#326,.F.);
#563=ORIENTED_EDGE('',*,*,#351,.F.);
#564=ORIENTED_EDGE('',*,*,#374,.F.);
#565=ORIENTED_EDGE('',*,*,#392,.F.);
#566=ORIENTED_EDGE('',*,*,#355,.F.);
#567=ORIENTED_EDGE('',*,*,#347,.F.);
#568=ORIENTED_EDGE('',*,*,#360,.F.);
#569=ORIENTED_EDGE('',*,*,#356,.T.);
#570=ORIENTED_EDGE('',*,*,#320,.F.);
#571=ORIENTED_EDGE('',*,*,#336,.T.);
#572=ORIENTED_EDGE('',*,*,#388,.F.);
#573=ORIENTED_EDGE('',*,*,#404,.T.);
#574=ORIENTED_EDGE('',*,*,#361,.F.);
#575=ORIENTED_EDGE('',*,*,#365,.T.);
#576=ORIENTED_EDGE('',*,*,#395,.F.);
#577=PLANE('',#657);
#578=PLANE('',#658);
#579=PLANE('',#661);
#580=PLANE('',#662);
#581=PLANE('',#663);
#582=PLANE('',#666);
#583=PLANE('',#667);
#584=PLANE('',#668);
#585=PLANE('',#671);
#586=PLANE('',#672);
#587=PLANE('',#673);
#588=PLANE('',#676);
#589=PLANE('',#678);
#590=PLANE('',#679);
#591=PLANE('',#680);
#592=PLANE('',#682);
#593=PLANE('',#683);
#594=PLANE('',#686);
#595=PLANE('',#692);
#596=PLANE('',#693);
#597=PLANE('',#696);
#598=PLANE('',#699);
#599=PLANE('',#700);
#600=PLANE('',#701);
#601=PLANE('',#702);
#602=ADVANCED_FACE('',(#45),#577,.T.);
#603=ADVANCED_FACE('',(#46),#578,.F.);
#604=ADVANCED_FACE('',(#47),#579,.F.);
#605=ADVANCED_FACE('',(#48),#580,.T.);
#606=ADVANCED_FACE('',(#49,#22,#23),#581,.T.);
#607=ADVANCED_FACE('',(#50),#582,.F.);
#608=ADVANCED_FACE('',(#51),#583,.T.);
#609=ADVANCED_FACE('',(#52,#24,#25),#584,.F.);
#610=ADVANCED_FACE('',(#53),#585,.T.);
#611=ADVANCED_FACE('',(#54),#586,.T.);
#612=ADVANCED_FACE('',(#55),#587,.F.);
#613=ADVANCED_FACE('',(#56,#26),#588,.T.);
#614=ADVANCED_FACE('',(#57),#589,.T.);
#615=ADVANCED_FACE('',(#58),#590,.F.);
#616=ADVANCED_FACE('',(#59,#27),#591,.T.);
#617=ADVANCED_FACE('',(#60),#592,.T.);
#618=ADVANCED_FACE('',(#61),#593,.T.);
#619=ADVANCED_FACE('',(#62),#15,.F.);
#620=ADVANCED_FACE('',(#63,#28),#594,.F.);
#621=ADVANCED_FACE('',(#64),#16,.F.);
#622=ADVANCED_FACE('',(#65),#17,.F.);
#623=ADVANCED_FACE('',(#66),#595,.T.);
#624=ADVANCED_FACE('',(#67),#596,.T.);
#625=ADVANCED_FACE('',(#68),#18,.F.);
#626=ADVANCED_FACE('',(#69),#19,.F.);
#627=ADVANCED_FACE('',(#70),#597,.T.);
#628=ADVANCED_FACE('',(#71),#20,.F.);
#629=ADVANCED_FACE('',(#72),#21,.F.);
#630=ADVANCED_FACE('',(#73),#598,.F.);
#631=ADVANCED_FACE('',(#74,#29),#599,.T.);
#632=ADVANCED_FACE('',(#75),#600,.F.);
#633=ADVANCED_FACE('',(#76,#30),#601,.F.);
#634=CLOSED_SHELL('',(#602,#603,#604,#605,#606,#607,#608,#609,#610,#611,
#612,#613,#614,#615,#616,#617,#618,#619,#620,#621,#622,#623,#624,#625,#626,
#627,#628,#629,#630,#631,#632,#633));
#635=DERIVED_UNIT_ELEMENT(#638,1.);
#636=DERIVED_UNIT_ELEMENT(#1050,-3.);
#637=DIMENSIONAL_EXPONENTS(0.,1.,0.,0.,0.,0.,0.);
#638=(
CONVERSION_BASED_UNIT('gram',#640)
MASS_UNIT()
NAMED_UNIT(#637)
);
#639=(
MASS_UNIT()
NAMED_UNIT(*)
SI_UNIT(.KILO.,.GRAM.)
);
#640=MASS_MEASURE_WITH_UNIT(MASS_MEASURE(0.001),#639);
#641=DERIVED_UNIT((#635,#636));
#642=MEASURE_REPRESENTATION_ITEM('density measure',
POSITIVE_RATIO_MEASURE(2.7),#641);
#643=PROPERTY_DEFINITION_REPRESENTATION(#648,#645);
#644=PROPERTY_DEFINITION_REPRESENTATION(#649,#646);
#645=REPRESENTATION('material name',(#647),#1047);
#646=REPRESENTATION('density',(#642),#1047);
#647=DESCRIPTIVE_REPRESENTATION_ITEM('EN AW-6082 T6 / T651 (AlMgSi1)',
'EN AW-6082 T6 / T651 (AlMgSi1)');
#648=PROPERTY_DEFINITION('material property','material name',#1057);
#649=PROPERTY_DEFINITION('material property','density of part',#1057);
#650=DATE_TIME_ROLE('creation_date');
#651=APPLIED_DATE_AND_TIME_ASSIGNMENT(#652,#650,(#1057));
#652=DATE_AND_TIME(#653,#654);
#653=CALENDAR_DATE(2026,16,7);
#654=LOCAL_TIME(0,0,0.,#655);
#655=COORDINATED_UNIVERSAL_TIME_OFFSET(0,0,.BEHIND.);
#656=AXIS2_PLACEMENT_3D('',#869,#703,#704);
#657=AXIS2_PLACEMENT_3D('',#870,#705,#706);
#658=AXIS2_PLACEMENT_3D('',#879,#711,#712);
#659=AXIS2_PLACEMENT_3D('',#893,#719,#720);
#660=AXIS2_PLACEMENT_3D('',#901,#724,#725);
#661=AXIS2_PLACEMENT_3D('',#907,#729,#730);
#662=AXIS2_PLACEMENT_3D('',#917,#736,#737);
#663=AXIS2_PLACEMENT_3D('',#923,#741,#742);
#664=AXIS2_PLACEMENT_3D('',#932,#747,#748);
#665=AXIS2_PLACEMENT_3D('',#934,#749,#750);
#666=AXIS2_PLACEMENT_3D('',#935,#751,#752);
#667=AXIS2_PLACEMENT_3D('',#940,#756,#757);
#668=AXIS2_PLACEMENT_3D('',#944,#760,#761);
#669=AXIS2_PLACEMENT_3D('',#949,#764,#765);
#670=AXIS2_PLACEMENT_3D('',#951,#766,#767);
#671=AXIS2_PLACEMENT_3D('',#952,#768,#769);
#672=AXIS2_PLACEMENT_3D('',#954,#771,#772);
#673=AXIS2_PLACEMENT_3D('',#963,#777,#778);
#674=AXIS2_PLACEMENT_3D('',#968,#781,#782);
#675=AXIS2_PLACEMENT_3D('',#976,#786,#787);
#676=AXIS2_PLACEMENT_3D('',#982,#791,#792);
#677=AXIS2_PLACEMENT_3D('',#988,#796,#797);
#678=AXIS2_PLACEMENT_3D('',#989,#798,#799);
#679=AXIS2_PLACEMENT_3D('',#995,#803,#804);
#680=AXIS2_PLACEMENT_3D('',#1001,#808,#809);
#681=AXIS2_PLACEMENT_3D('',#1005,#812,#813);
#682=AXIS2_PLACEMENT_3D('',#1006,#814,#815);
#683=AXIS2_PLACEMENT_3D('',#1010,#818,#819);
#684=AXIS2_PLACEMENT_3D('',#1012,#821,#822);
#685=AXIS2_PLACEMENT_3D('',#1015,#824,#825);
#686=AXIS2_PLACEMENT_3D('',#1016,#826,#827);
#687=AXIS2_PLACEMENT_3D('',#1018,#828,#829);
#688=AXIS2_PLACEMENT_3D('',#1020,#830,#831);
#689=AXIS2_PLACEMENT_3D('',#1021,#832,#833);
#690=AXIS2_PLACEMENT_3D('',#1023,#834,#835);
#691=AXIS2_PLACEMENT_3D('',#1025,#837,#838);
#692=AXIS2_PLACEMENT_3D('',#1027,#840,#841);
#693=AXIS2_PLACEMENT_3D('',#1030,#844,#845);
#694=AXIS2_PLACEMENT_3D('',#1032,#847,#848);
#695=AXIS2_PLACEMENT_3D('',#1033,#849,#850);
#696=AXIS2_PLACEMENT_3D('',#1035,#852,#853);
#697=AXIS2_PLACEMENT_3D('',#1036,#854,#855);
#698=AXIS2_PLACEMENT_3D('',#1038,#857,#858);
#699=AXIS2_PLACEMENT_3D('',#1040,#860,#861);
#700=AXIS2_PLACEMENT_3D('',#1042,#863,#864);
#701=AXIS2_PLACEMENT_3D('',#1043,#865,#866);
#702=AXIS2_PLACEMENT_3D('',#1044,#867,#868);
#703=DIRECTION('axis',(0.,0.,1.));
#704=DIRECTION('refdir',(1.,0.,0.));
#705=DIRECTION('center_axis',(-7.85046229341888E-18,-0.707106781186548,
-0.707106781186547));
#706=DIRECTION('ref_axis',(-1.,0.,1.11022302462516E-17));
#707=DIRECTION('',(1.50082367374184E-16,-0.707106781186547,0.707106781186548));
#708=DIRECTION('',(-1.,0.,1.11022302462516E-17));
#709=DIRECTION('',(0.,0.707106781186547,-0.707106781186548));
#710=DIRECTION('',(1.,0.,-1.11022302462516E-17));
#711=DIRECTION('center_axis',(-1.,6.53072367426562E-17,2.77555756156289E-16));
#712=DIRECTION('ref_axis',(-2.77555756156289E-16,1.54074395550979E-32,-1.));
#713=DIRECTION('',(-6.53072367426562E-17,-1.,0.));
#714=DIRECTION('',(2.77555756156289E-16,0.,1.));
#715=DIRECTION('',(6.53072367426562E-17,1.,-8.70067174876115E-33));
#716=DIRECTION('',(2.77555756156289E-16,0.,1.));
#717=DIRECTION('',(6.53072367426562E-17,1.,0.));
#718=DIRECTION('',(2.77555756156289E-16,-1.48029736616687E-16,1.));
#719=DIRECTION('center_axis',(1.,-6.53072367426562E-17,-2.77555756156289E-16));
#720=DIRECTION('ref_axis',(0.,0.,-1.));
#721=DIRECTION('',(2.77555756156289E-16,-1.48029736616687E-16,1.));
#722=DIRECTION('',(6.53072367426562E-17,1.,0.));
#723=DIRECTION('',(-2.77555756156289E-16,-1.48029736616687E-16,-1.));
#724=DIRECTION('center_axis',(1.,-6.53072367426562E-17,-2.77555756156289E-16));
#725=DIRECTION('ref_axis',(0.,0.,-1.));
#726=DIRECTION('',(-2.77555756156289E-16,-1.48029736616687E-16,-1.));
#727=DIRECTION('',(6.53072367426562E-17,1.,0.));
#728=DIRECTION('',(2.77555756156289E-16,0.,1.));
#729=DIRECTION('center_axis',(1.11022302462516E-17,0.,1.));
#730=DIRECTION('ref_axis',(-1.,5.55111512312578E-17,1.11022302462516E-17));
#731=DIRECTION('',(0.,-1.,0.));
#732=DIRECTION('',(-0.707106781186548,-0.707106781186547,7.85046229341888E-18));
#733=DIRECTION('',(-1.,5.55111512312578E-17,1.11022302462516E-17));
#734=DIRECTION('',(0.,1.,0.));
#735=DIRECTION('',(-1.,5.55111512312578E-17,1.11022302462516E-17));
#736=DIRECTION('center_axis',(-0.707106781186547,0.707106781186548,0.));
#737=DIRECTION('ref_axis',(0.,0.,1.));
#738=DIRECTION('',(0.,0.,1.));
#739=DIRECTION('',(0.707106781186548,0.707106781186547,-9.42055475210266E-17));
#740=DIRECTION('',(0.,0.,-1.));
#741=DIRECTION('center_axis',(5.55111512312578E-17,1.,0.));
#742=DIRECTION('ref_axis',(0.,0.,-1.));
#743=DIRECTION('',(1.,-5.55111512312578E-17,-1.33226762955019E-16));
#744=DIRECTION('',(-0.707106781186548,3.92523114670944E-17,0.707106781186547));
#745=DIRECTION('',(-4.44089209850063E-16,2.46519032881566E-32,-1.));
#746=DIRECTION('',(0.707106781186547,-3.92523114670943E-17,0.707106781186548));
#747=DIRECTION('center_axis',(5.55111512312578E-17,1.,0.));
#748=DIRECTION('ref_axis',(-1.,5.55111512312578E-17,0.));
#749=DIRECTION('center_axis',(5.55111512312578E-17,1.,0.));
#750=DIRECTION('ref_axis',(-1.,5.55111512312578E-17,0.));
#751=DIRECTION('center_axis',(-1.33226762955019E-16,0.,-1.));
#752=DIRECTION('ref_axis',(1.,-5.55111512312578E-17,-1.33226762955019E-16));
#753=DIRECTION('',(1.,0.,-1.33226762955019E-16));
#754=DIRECTION('',(1.,-5.55111512312578E-17,-1.33226762955019E-16));
#755=DIRECTION('',(0.,-1.,0.));
#756=DIRECTION('center_axis',(0.707106781186548,0.,-0.707106781186547));
#757=DIRECTION('ref_axis',(-0.707106781186547,0.,-0.707106781186548));
#758=DIRECTION('',(-0.707106781186547,0.,-0.707106781186548));
#759=DIRECTION('',(0.,-1.,0.));
#760=DIRECTION('center_axis',(0.,1.,0.));
#761=DIRECTION('ref_axis',(0.,0.,-1.));
#762=DIRECTION('',(-4.44089209850063E-16,2.46519032881566E-32,-1.));
#763=DIRECTION('',(0.707106781186548,0.,-0.707106781186547));
#764=DIRECTION('center_axis',(0.,-1.,0.));
#765=DIRECTION('ref_axis',(-1.,5.55111512312578E-17,0.));
#766=DIRECTION('center_axis',(0.,-1.,0.));
#767=DIRECTION('ref_axis',(-1.,5.55111512312578E-17,0.));
#768=DIRECTION('center_axis',(0.707106781186547,0.,0.707106781186548));
#769=DIRECTION('ref_axis',(0.707106781186548,0.,-0.707106781186547));
#770=DIRECTION('',(0.,1.,0.));
#771=DIRECTION('center_axis',(-0.707106781186546,-1.46483428438744E-32,
0.707106781186549));
#772=DIRECTION('ref_axis',(0.707106781186549,0.,0.707106781186546));
#773=DIRECTION('',(0.707106781186549,0.,0.707106781186546));
#774=DIRECTION('',(0.,1.,2.0715885116098E-32));
#775=DIRECTION('',(-0.707106781186549,-1.04672830578918E-16,-0.707106781186546));
#776=DIRECTION('',(0.,-1.,-2.0715885116098E-32));
#777=DIRECTION('center_axis',(1.,0.,0.));
#778=DIRECTION('ref_axis',(0.,0.,1.));
#779=DIRECTION('',(0.,0.,-1.));
#780=DIRECTION('',(0.,1.48029736616687E-16,1.));
#781=DIRECTION('center_axis',(-1.,0.,0.));
#782=DIRECTION('ref_axis',(0.,0.,-1.));
#783=DIRECTION('',(0.,1.48029736616687E-16,1.));
#784=DIRECTION('',(0.,-1.,0.));
#785=DIRECTION('',(0.,1.48029736616687E-16,-1.));
#786=DIRECTION('center_axis',(-1.,0.,0.));
#787=DIRECTION('ref_axis',(0.,0.,-1.));
#788=DIRECTION('',(0.,1.48029736616687E-16,-1.));
#789=DIRECTION('',(0.,-1.,-2.0715885116098E-32));
#790=DIRECTION('',(0.,0.,-1.));
#791=DIRECTION('center_axis',(0.,1.,-1.48029736616687E-16));
#792=DIRECTION('ref_axis',(0.,1.48029736616687E-16,1.));
#793=DIRECTION('',(1.,-4.69560062631554E-32,-3.1720657846433E-16));
#794=DIRECTION('',(-0.707106781186548,1.04672830578918E-16,0.707106781186548));
#795=DIRECTION('',(1.,0.,0.));
#796=DIRECTION('center_axis',(0.,1.,-1.48029736616687E-16));
#797=DIRECTION('ref_axis',(-1.,0.,3.1720657846433E-16));
#798=DIRECTION('center_axis',(-0.707106781186546,-1.46483428438744E-32,
0.707106781186549));
#799=DIRECTION('ref_axis',(0.707106781186549,0.,0.707106781186546));
#800=DIRECTION('',(-0.707106781186549,0.,-0.707106781186546));
#801=DIRECTION('',(0.707106781186549,-1.04672830578918E-16,0.707106781186546));
#802=DIRECTION('',(0.,1.,2.0715885116098E-32));
#803=DIRECTION('center_axis',(-3.1720657846433E-16,2.0715885116098E-32,
-1.));
#804=DIRECTION('ref_axis',(1.,-5.55111512312578E-17,-3.1720657846433E-16));
#805=DIRECTION('',(-1.,-4.69560062631554E-32,3.1720657846433E-16));
#806=DIRECTION('',(-6.53072367426562E-17,-1.,0.));
#807=DIRECTION('',(-1.,0.,3.1720657846433E-16));
#808=DIRECTION('center_axis',(0.,-1.,-1.48029736616687E-16));
#809=DIRECTION('ref_axis',(0.,1.48029736616687E-16,-1.));
#810=DIRECTION('',(1.,0.,0.));
#811=DIRECTION('',(0.707106781186548,1.04672830578918E-16,-0.707106781186548));
#812=DIRECTION('center_axis',(0.,-1.,-1.48029736616687E-16));
#813=DIRECTION('ref_axis',(-1.,0.,3.1720657846433E-16));
#814=DIRECTION('center_axis',(0.707106781186548,-4.61791899612875E-17,0.707106781186548));
#815=DIRECTION('ref_axis',(0.707106781186548,0.,-0.707106781186548));
#816=DIRECTION('',(0.707106781186548,0.,-0.707106781186548));
#817=DIRECTION('',(-6.53072367426562E-17,-1.,0.));
#818=DIRECTION('center_axis',(0.707106781186548,-4.61791899612875E-17,0.707106781186548));
#819=DIRECTION('ref_axis',(0.707106781186548,0.,-0.707106781186548));
#820=DIRECTION('',(-0.707106781186548,0.,0.707106781186548));
#821=DIRECTION('center_axis',(0.,1.,0.));
#822=DIRECTION('ref_axis',(-1.,0.,3.1720657846433E-16));
#823=DIRECTION('',(0.,1.,0.));
#824=DIRECTION('center_axis',(0.,1.,0.));
#825=DIRECTION('ref_axis',(-1.,0.,3.1720657846433E-16));
#826=DIRECTION('center_axis',(0.,1.,0.));
#827=DIRECTION('ref_axis',(-1.,0.,3.1720657846433E-16));
#828=DIRECTION('center_axis',(0.,1.,0.));
#829=DIRECTION('ref_axis',(-1.,0.,3.1720657846433E-16));
#830=DIRECTION('center_axis',(0.,1.,0.));
#831=DIRECTION('ref_axis',(-1.,0.,3.1720657846433E-16));
#832=DIRECTION('center_axis',(0.,1.,0.));
#833=DIRECTION('ref_axis',(-1.,0.,3.1720657846433E-16));
#834=DIRECTION('center_axis',(0.,-1.,0.));
#835=DIRECTION('ref_axis',(-1.,0.,3.1720657846433E-16));
#836=DIRECTION('',(0.,1.,0.));
#837=DIRECTION('center_axis',(0.,1.,0.));
#838=DIRECTION('ref_axis',(-1.,0.,3.1720657846433E-16));
#839=DIRECTION('',(0.,1.,0.));
#840=DIRECTION('center_axis',(0.,0.,1.));
#841=DIRECTION('ref_axis',(0.,-1.,0.));
#842=DIRECTION('',(1.,0.,0.));
#843=DIRECTION('',(1.,0.,0.));
#844=DIRECTION('center_axis',(0.,-1.,-1.48029736616687E-16));
#845=DIRECTION('ref_axis',(0.,1.48029736616687E-16,-1.));
#846=DIRECTION('',(1.,0.,0.));
#847=DIRECTION('center_axis',(-1.,0.,0.));
#848=DIRECTION('ref_axis',(0.,0.,-1.));
#849=DIRECTION('center_axis',(-1.,0.,0.));
#850=DIRECTION('ref_axis',(0.,0.,-1.));
#851=DIRECTION('',(1.,0.,0.));
#852=DIRECTION('center_axis',(0.,1.,-1.48029736616687E-16));
#853=DIRECTION('ref_axis',(0.,1.48029736616687E-16,1.));
#854=DIRECTION('center_axis',(5.55111512312578E-17,1.,0.));
#855=DIRECTION('ref_axis',(-1.,5.55111512312578E-17,0.));
#856=DIRECTION('',(-5.55111512312578E-17,-1.,0.));
#857=DIRECTION('center_axis',(5.55111512312578E-17,1.,0.));
#858=DIRECTION('ref_axis',(-1.,5.55111512312578E-17,0.));
#859=DIRECTION('',(-5.55111512312578E-17,-1.,0.));
#860=DIRECTION('center_axis',(-3.1720657846433E-16,2.0715885116098E-32,
-1.));
#861=DIRECTION('ref_axis',(1.,-5.55111512312578E-17,-3.1720657846433E-16));
#862=DIRECTION('',(-1.,0.,3.1720657846433E-16));
#863=DIRECTION('center_axis',(0.,1.,0.));
#864=DIRECTION('ref_axis',(0.,0.,-1.));
#865=DIRECTION('center_axis',(-1.,0.,4.44089209850063E-16));
#866=DIRECTION('ref_axis',(-4.44089209850063E-16,2.46519032881566E-32,-1.));
#867=DIRECTION('center_axis',(0.,1.,0.));
#868=DIRECTION('ref_axis',(0.,0.,-1.));
#869=CARTESIAN_POINT('',(0.,0.,0.));
#870=CARTESIAN_POINT('Origin',(-2.25,-35.5,3.));
#871=CARTESIAN_POINT('',(-9.5,-34.,1.5));
#872=CARTESIAN_POINT('',(-9.5,-37.,4.5));
#873=CARTESIAN_POINT('',(-9.5,-35.25,2.75000000000001));
#874=CARTESIAN_POINT('',(-16.5,-37.,4.5));
#875=CARTESIAN_POINT('',(-2.25,-37.,4.5));
#876=CARTESIAN_POINT('',(-16.5,-34.,1.5));
#877=CARTESIAN_POINT('',(-16.5,-31.25,-1.25));
#878=CARTESIAN_POINT('',(-2.25,-34.,1.5));
#879=CARTESIAN_POINT('Origin',(-9.49999999999999,-20.,17.5));
#880=CARTESIAN_POINT('',(-9.5,-25.,1.5));
#881=CARTESIAN_POINT('',(-9.5,-20.,1.5));
#882=CARTESIAN_POINT('',(-9.5,-25.,6.5));
#883=CARTESIAN_POINT('',(-9.49999999999999,-25.,10.75));
#884=CARTESIAN_POINT('',(-9.5,-21.,6.5));
#885=CARTESIAN_POINT('',(-9.5,-20.,6.5));
#886=CARTESIAN_POINT('',(-9.49999999999999,-21.,16.5));
#887=CARTESIAN_POINT('',(-9.49999999999999,-21.,13.5));
#888=CARTESIAN_POINT('',(-9.49999999999999,-30.2,16.5));
#889=CARTESIAN_POINT('',(-9.49999999999999,-20.,16.5));
#890=CARTESIAN_POINT('',(-9.49999999999999,-30.2,11.9283179650969));
#891=CARTESIAN_POINT('',(-9.49999999999999,-30.2,17.5));
#892=CARTESIAN_POINT('',(-9.5,-30.2,3.0716820349031));
#893=CARTESIAN_POINT('Origin',(-9.49999999999999,-31.,7.50000000000001));
#894=CARTESIAN_POINT('',(-9.5,-30.2,2.5));
#895=CARTESIAN_POINT('',(-9.49999999999999,-30.2,10.2858410174516));
#896=CARTESIAN_POINT('',(-9.5,-31.8,2.5));
#897=CARTESIAN_POINT('',(-9.5,-25.1,2.5));
#898=CARTESIAN_POINT('',(-9.5,-31.8,3.0716820349031));
#899=CARTESIAN_POINT('',(-9.49999999999999,-31.8,10.));
#900=CARTESIAN_POINT('',(-9.49999999999999,-31.8,11.9283179650969));
#901=CARTESIAN_POINT('Origin',(-9.49999999999999,-31.,7.50000000000001));
#902=CARTESIAN_POINT('',(-9.49999999999999,-31.8,16.5));
#903=CARTESIAN_POINT('',(-9.49999999999999,-31.8,14.7141589825485));
#904=CARTESIAN_POINT('',(-9.49999999999999,-37.,16.5));
#905=CARTESIAN_POINT('',(-9.49999999999999,-20.,16.5));
#906=CARTESIAN_POINT('',(-9.49999999999999,-37.,13.5));
#907=CARTESIAN_POINT('Origin',(8.5,-20.,1.5));
#908=CARTESIAN_POINT('',(-16.5,-21.,1.5));
#909=CARTESIAN_POINT('',(-16.5,-20.,1.5));
#910=CARTESIAN_POINT('',(-15.5,-20.,1.5));
#911=CARTESIAN_POINT('',(-9.74999999999998,-14.25,1.5));
#912=CARTESIAN_POINT('',(7.5,-20.,1.5));
#913=CARTESIAN_POINT('',(8.5,-20.,1.5));
#914=CARTESIAN_POINT('',(7.5,-25.,1.5));
#915=CARTESIAN_POINT('',(7.5,-20.,1.5));
#916=CARTESIAN_POINT('',(8.5,-25.,1.5));
#917=CARTESIAN_POINT('Origin',(-16.,-20.5,2.75));
#918=CARTESIAN_POINT('',(-16.5,-21.,6.5));
#919=CARTESIAN_POINT('',(-16.5,-21.,2.75));
#920=CARTESIAN_POINT('',(-15.5,-20.,6.5));
#921=CARTESIAN_POINT('',(-16.,-20.5,6.5));
#922=CARTESIAN_POINT('',(-15.5,-20.,2.75));
#923=CARTESIAN_POINT('Origin',(-4.,-20.,4.));
#924=CARTESIAN_POINT('',(7.5,-20.,6.5));
#925=CARTESIAN_POINT('',(-16.5,-20.,6.5));
#926=CARTESIAN_POINT('',(8.50000000000001,-20.,5.5));
#927=CARTESIAN_POINT('',(5.5,-20.,8.5));
#928=CARTESIAN_POINT('',(8.5,-20.,2.5));
#929=CARTESIAN_POINT('',(8.50000000000001,-20.,6.5));
#930=CARTESIAN_POINT('',(5.50000000000001,-20.,-0.499999999999995));
#931=CARTESIAN_POINT('',(-4.1,-20.,4.));
#932=CARTESIAN_POINT('Origin',(-5.5,-20.,4.));
#933=CARTESIAN_POINT('',(6.9,-20.,4.));
#934=CARTESIAN_POINT('Origin',(5.5,-20.,4.));
#935=CARTESIAN_POINT('Origin',(-16.5,-20.,6.5));
#936=CARTESIAN_POINT('',(-14.75,-21.,6.5));
#937=CARTESIAN_POINT('',(7.5,-25.,6.5));
#938=CARTESIAN_POINT('',(-16.5,-25.,6.5));
#939=CARTESIAN_POINT('',(7.5,-20.,6.5));
#940=CARTESIAN_POINT('Origin',(8.,-20.,2.));
#941=CARTESIAN_POINT('',(8.5,-25.,2.5));
#942=CARTESIAN_POINT('',(5.50000000000001,-25.,-0.499999999999995));
#943=CARTESIAN_POINT('',(8.5,-20.,2.5));
#944=CARTESIAN_POINT('Origin',(-4.,-25.,4.));
#945=CARTESIAN_POINT('',(8.50000000000001,-25.,5.5));
#946=CARTESIAN_POINT('',(8.50000000000001,-25.,6.5));
#947=CARTESIAN_POINT('',(5.5,-25.,8.5));
#948=CARTESIAN_POINT('',(6.9,-25.,4.));
#949=CARTESIAN_POINT('Origin',(5.5,-25.,4.));
#950=CARTESIAN_POINT('',(-4.1,-25.,4.));
#951=CARTESIAN_POINT('Origin',(-5.5,-25.,4.));
#952=CARTESIAN_POINT('Origin',(8.00000000000001,-20.,6.));
#953=CARTESIAN_POINT('',(8.50000000000001,-20.,5.5));
#954=CARTESIAN_POINT('Origin',(-16.,-20.,17.));
#955=CARTESIAN_POINT('',(-16.5,-37.,16.5));
#956=CARTESIAN_POINT('',(-15.5,-37.,17.5));
#957=CARTESIAN_POINT('',(-17.125,-37.,15.875));
#958=CARTESIAN_POINT('',(-15.5,-31.8,17.5));
#959=CARTESIAN_POINT('',(-15.5,-20.,17.5));
#960=CARTESIAN_POINT('',(-16.5,-31.8,16.5));
#961=CARTESIAN_POINT('',(-17.3929205087258,-31.8,15.6070794912742));
#962=CARTESIAN_POINT('',(-16.5,-20.,16.5));
#963=CARTESIAN_POINT('Origin',(-16.5,-20.,1.5));
#964=CARTESIAN_POINT('',(-16.5,-37.,5.50000000000001));
#965=CARTESIAN_POINT('',(-16.5,-31.8,11.9283179650969));
#966=CARTESIAN_POINT('',(-16.5,-31.8,6.71415898254846));
#967=CARTESIAN_POINT('',(-16.5,-31.8,3.0716820349031));
#968=CARTESIAN_POINT('Origin',(-16.5,-31.,7.50000000000001));
#969=CARTESIAN_POINT('',(-16.5,-31.8,2.5));
#970=CARTESIAN_POINT('',(-16.5,-31.8,2.00000000000001));
#971=CARTESIAN_POINT('',(-16.5,-30.2,2.5));
#972=CARTESIAN_POINT('',(-16.5,-25.1,2.5));
#973=CARTESIAN_POINT('',(-16.5,-30.2,3.0716820349031));
#974=CARTESIAN_POINT('',(-16.5,-30.2,2.28584101745155));
#975=CARTESIAN_POINT('',(-16.5,-30.2,11.9283179650969));
#976=CARTESIAN_POINT('Origin',(-16.5,-31.,7.50000000000001));
#977=CARTESIAN_POINT('',(-16.5,-30.2,16.5));
#978=CARTESIAN_POINT('',(-16.5,-30.2,9.50000000000001));
#979=CARTESIAN_POINT('',(-16.5,-21.,16.5));
#980=CARTESIAN_POINT('',(-16.5,-20.,16.5));
#981=CARTESIAN_POINT('',(-16.5,-21.,5.50000000000001));
#982=CARTESIAN_POINT('Origin',(-16.5,-31.8,11.9283179650969));
#983=CARTESIAN_POINT('',(-10.5,-31.8,17.5));
#984=CARTESIAN_POINT('',(-16.5,-31.8,17.5));
#985=CARTESIAN_POINT('',(-10.3570794912742,-31.8,17.3570794912742));
#986=CARTESIAN_POINT('',(-16.5,-31.8,11.9283179650969));
#987=CARTESIAN_POINT('',(-11.55,-31.8,14.2));
#988=CARTESIAN_POINT('Origin',(-13.,-31.8,14.2));
#989=CARTESIAN_POINT('Origin',(-16.,-20.,17.));
#990=CARTESIAN_POINT('',(-15.5,-21.,17.5));
#991=CARTESIAN_POINT('',(-17.125,-21.,15.875));
#992=CARTESIAN_POINT('',(-15.5,-30.2,17.5));
#993=CARTESIAN_POINT('',(-16.,-30.2,17.));
#994=CARTESIAN_POINT('',(-15.5,-20.,17.5));
#995=CARTESIAN_POINT('Origin',(-16.5,-20.,17.5));
#996=CARTESIAN_POINT('',(-10.5,-30.2,17.5));
#997=CARTESIAN_POINT('',(-16.5,-30.2,17.5));
#998=CARTESIAN_POINT('',(-10.5,-21.,17.5));
#999=CARTESIAN_POINT('',(-10.5,-20.,17.5));
#1000=CARTESIAN_POINT('',(-14.75,-21.,17.5));
#1001=CARTESIAN_POINT('Origin',(-16.5,-30.2,17.5));
#1002=CARTESIAN_POINT('',(-16.5,-30.2,11.9283179650969));
#1003=CARTESIAN_POINT('',(-11.75,-30.2,18.75));
#1004=CARTESIAN_POINT('',(-11.9935,-30.2,14.2));
#1005=CARTESIAN_POINT('Origin',(-13.,-30.2,14.2));
#1006=CARTESIAN_POINT('Origin',(-9.99999999999999,-20.,17.));
#1007=CARTESIAN_POINT('',(-10.5,-37.,17.5));
#1008=CARTESIAN_POINT('',(-8.87499999999999,-37.,15.875));
#1009=CARTESIAN_POINT('',(-10.5,-20.,17.5));
#1010=CARTESIAN_POINT('Origin',(-9.99999999999999,-20.,17.));
#1011=CARTESIAN_POINT('',(-8.87499999999999,-21.,15.875));
#1012=CARTESIAN_POINT('Origin',(-13.,-2.79473724702585,14.2));
#1013=CARTESIAN_POINT('',(-11.9935,-21.,14.2));
#1014=CARTESIAN_POINT('',(-11.9935,-2.79473724702585,14.2));
#1015=CARTESIAN_POINT('Origin',(-13.,-21.,14.2));
#1016=CARTESIAN_POINT('Origin',(-13.,-34.1,14.2));
#1017=CARTESIAN_POINT('',(-10.25,-34.1,14.2));
#1018=CARTESIAN_POINT('Origin',(-13.,-34.1,14.2));
#1019=CARTESIAN_POINT('',(-11.55,-34.1,14.2));
#1020=CARTESIAN_POINT('Origin',(-13.,-34.1,14.2));
#1021=CARTESIAN_POINT('Origin',(-13.,-35.55,14.2));
#1022=CARTESIAN_POINT('',(-10.25,-37.,14.2));
#1023=CARTESIAN_POINT('Origin',(-13.,-37.,14.2));
#1024=CARTESIAN_POINT('',(-10.25,-35.55,14.2));
#1025=CARTESIAN_POINT('Origin',(-13.,-2.79473724702585,14.2));
#1026=CARTESIAN_POINT('',(-11.55,-2.79473724702585,14.2));
#1027=CARTESIAN_POINT('Origin',(-16.5,-30.2,2.5));
#1028=CARTESIAN_POINT('',(-16.5,-30.2,2.5));
#1029=CARTESIAN_POINT('',(-16.5,-31.8,2.5));
#1030=CARTESIAN_POINT('Origin',(-16.5,-30.2,3.0716820349031));
#1031=CARTESIAN_POINT('',(-16.5,-30.2,3.0716820349031));
#1032=CARTESIAN_POINT('Origin',(-16.5,-31.,7.50000000000001));
#1033=CARTESIAN_POINT('Origin',(-16.5,-31.,7.50000000000001));
#1034=CARTESIAN_POINT('',(-16.5,-31.8,3.0716820349031));
#1035=CARTESIAN_POINT('Origin',(-16.5,-31.8,2.5));
#1036=CARTESIAN_POINT('Origin',(-5.5,-54.2052627529741,4.));
#1037=CARTESIAN_POINT('',(-4.1,-54.2052627529741,4.));
#1038=CARTESIAN_POINT('Origin',(5.5,-54.2052627529741,4.));
#1039=CARTESIAN_POINT('',(6.9,-54.2052627529741,4.));
#1040=CARTESIAN_POINT('Origin',(-16.5,-20.,17.5));
#1041=CARTESIAN_POINT('',(-14.75,-37.,17.5));
#1042=CARTESIAN_POINT('Origin',(-13.,-21.,9.50000000000001));
#1043=CARTESIAN_POINT('Origin',(8.50000000000001,-20.,6.5));
#1044=CARTESIAN_POINT('Origin',(-13.,-37.,9.50000000000001));
#1045=UNCERTAINTY_MEASURE_WITH_UNIT(LENGTH_MEASURE(0.01),#1049,
'DISTANCE_ACCURACY_VALUE',
'Maximum model space distance between geometric entities at asserted c
onnectivities');
#1046=UNCERTAINTY_MEASURE_WITH_UNIT(LENGTH_MEASURE(0.01),#1049,
'DISTANCE_ACCURACY_VALUE',
'Maximum model space distance between geometric entities at asserted c
onnectivities');
#1047=(
GEOMETRIC_REPRESENTATION_CONTEXT(3)
GLOBAL_UNCERTAINTY_ASSIGNED_CONTEXT((#1045))
GLOBAL_UNIT_ASSIGNED_CONTEXT((#1049,#1051,#1052))
REPRESENTATION_CONTEXT('','3D')
);
#1048=(
GEOMETRIC_REPRESENTATION_CONTEXT(3)
GLOBAL_UNCERTAINTY_ASSIGNED_CONTEXT((#1046))
GLOBAL_UNIT_ASSIGNED_CONTEXT((#1049,#1051,#1052))
REPRESENTATION_CONTEXT('','3D')
);
#1049=(
LENGTH_UNIT()
NAMED_UNIT(*)
SI_UNIT(.MILLI.,.METRE.)
);
#1050=(
LENGTH_UNIT()
NAMED_UNIT(*)
SI_UNIT(.CENTI.,.METRE.)
);
#1051=(
NAMED_UNIT(*)
PLANE_ANGLE_UNIT()
SI_UNIT($,.RADIAN.)
);
#1052=(
NAMED_UNIT(*)
SI_UNIT($,.STERADIAN.)
SOLID_ANGLE_UNIT()
);
#1053=SHAPE_DEFINITION_REPRESENTATION(#1054,#1055);
#1054=PRODUCT_DEFINITION_SHAPE('',$,#1057);
#1055=SHAPE_REPRESENTATION('',(#656),#1047);
#1056=PRODUCT_DEFINITION_CONTEXT('part definition',#1061,'design');
#1057=PRODUCT_DEFINITION('PRT - 3021 - MOTHOLXST',
'PRT - 3021 - MOTHOLXST',#1058,#1056);
#1058=PRODUCT_DEFINITION_FORMATION('',$,#1063);
#1059=PRODUCT_RELATED_PRODUCT_CATEGORY('PRT - 3021 - MOTHOLXST',
'PRT - 3021 - MOTHOLXST',(#1063));
#1060=APPLICATION_PROTOCOL_DEFINITION('international standard',
'automotive_design',2009,#1061);
#1061=APPLICATION_CONTEXT(
'Core Data for Automotive Mechanical Design Process');
#1062=PRODUCT_CONTEXT('part definition',#1061,'mechanical');
#1063=PRODUCT('PRT - 3021 - MOTHOLXST','PRT - 3021 - MOTHOLXST',
'Motor holder X stage',(#1062));
#1064=PRESENTATION_STYLE_ASSIGNMENT((#1065));
#1065=SURFACE_STYLE_USAGE(.BOTH.,#1068);
#1066=SURFACE_STYLE_RENDERING_WITH_PROPERTIES($,#1072,(#1067));
#1067=SURFACE_STYLE_TRANSPARENT(0.);
#1068=SURFACE_SIDE_STYLE('',(#1069,#1066));
#1069=SURFACE_STYLE_FILL_AREA(#1070);
#1070=FILL_AREA_STYLE('',(#1071));
#1071=FILL_AREA_STYLE_COLOUR('',#1072);
#1072=COLOUR_RGB('',0.996078431372549,0.996078431372549,1.);
ENDSEC;
END-ISO-10303-21;
