<?xml version="1.0" encoding="UTF-8" standalone="no"?>
<!DOCTYPE svg PUBLIC "-//W3C//DTD SVG 1.1//EN"
 "http://www.w3.org/Graphics/SVG/1.1/DTD/svg11.dtd">
<!-- Generated by graphviz version 12.1.2 (20240928.0832)
 -->
<!-- Pages: 1 -->
<svg width="6140pt" height="295pt"
 viewBox="0.00 0.00 6140.17 294.60" xmlns="http://www.w3.org/2000/svg" xmlns:xlink="http://www.w3.org/1999/xlink">
<g id="graph0" class="graph" transform="scale(1 1) rotate(0) translate(4 290.6)">
<polygon fill="white" stroke="none" points="-4,4 -4,-290.6 6136.17,-290.6 6136.17,4 -4,4"/>
<g id="node1" class="node">
<title></title>
<ellipse fill="none" stroke="black" cx="3037.97" cy="-268.6" rx="27" ry="18"/>
</g>
<!-- light&#45;source -->
<g id="node2" class="node">
<title>light&#45;source</title>
<ellipse fill="none" stroke="black" cx="1474.97" cy="-179.8" rx="57.16" ry="18"/>
<text text-anchor="middle" x="1474.97" y="-175.6" font-family="Times,serif" font-size="14.00">light&#45;source</text>
</g>
<!-- &#45;&gt;light&#45;source -->
<g id="edge1" class="edge">
<title>&#45;&gt;light&#45;source</title>
<path fill="none" stroke="black" d="M3010.87,-266.76C2901.03,-263.29 2478.25,-249.56 2130.7,-232.6 1868.45,-219.81 1800.36,-238.47 1540.97,-197.8 1536.36,-197.08 1531.62,-196.18 1526.87,-195.17"/>
<polygon fill="black" stroke="black" points="1527.91,-191.81 1517.38,-192.99 1526.34,-198.64 1527.91,-191.81"/>
<text text-anchor="middle" x="2160.83" y="-220" font-family="Times,serif" font-size="14.00">[x&#45;80] mm</text>
</g>
<!-- objective&#45;lens -->
<g id="node3" class="node">
<title>objective&#45;lens</title>
<ellipse fill="none" stroke="black" cx="1614.97" cy="-179.8" rx="65.2" ry="18"/>
<text text-anchor="middle" x="1614.97" y="-175.6" font-family="Times,serif" font-size="14.00">objective&#45;lens</text>
</g>
<!-- &#45;&gt;objective&#45;lens -->
<g id="edge2" class="edge">
<title>&#45;&gt;objective&#45;lens</title>
<path fill="none" stroke="black" d="M3010.81,-266.03C2926.81,-261.15 2663.69,-245.83 2445.75,-232.6 2166.61,-215.65 1834.78,-194.73 1689.41,-185.52"/>
<polygon fill="black" stroke="black" points="1689.73,-182.04 1679.53,-184.9 1689.28,-189.02 1689.73,-182.04"/>
<text text-anchor="middle" x="2461.36" y="-220" font-family="Times,serif" font-size="14.00">[x+1]</text>
</g>
<!-- periscope&#45;mirror&#45;1 -->
<g id="node8" class="node">
<title>periscope&#45;mirror&#45;1</title>
<ellipse fill="none" stroke="black" cx="2093.97" cy="-179.8" rx="83.97" ry="18"/>
<text text-anchor="middle" x="2093.97" y="-175.6" font-family="Times,serif" font-size="14.00">periscope&#45;mirror&#45;1</text>
</g>
<!-- &#45;&gt;periscope&#45;mirror&#45;1 -->
<g id="edge3" class="edge">
<title>&#45;&gt;periscope&#45;mirror&#45;1</title>
<path fill="none" stroke="black" d="M3011.23,-265.14C2889.69,-253.97 2386.28,-207.68 2181.34,-188.83"/>
<polygon fill="black" stroke="black" points="2181.83,-185.36 2171.55,-187.93 2181.19,-192.34 2181.83,-185.36"/>
<text text-anchor="middle" x="2666.13" y="-220" font-family="Times,serif" font-size="14.00">[x+2]</text>
</g>
<!-- periscope&#45;mirror&#45;2 -->
<g id="node16" class="node">
<title>periscope&#45;mirror&#45;2</title>
<ellipse fill="none" stroke="black" cx="3037.97" cy="-179.8" rx="83.97" ry="18"/>
<text text-anchor="middle" x="3037.97" y="-175.6" font-family="Times,serif" font-size="14.00">periscope&#45;mirror&#45;2</text>
</g>
<!-- &#45;&gt;periscope&#45;mirror&#45;2 -->
<g id="edge4" class="edge">
<title>&#45;&gt;periscope&#45;mirror&#45;2</title>
<path fill="none" stroke="black" d="M3037.97,-250.45C3037.97,-238.76 3037.97,-222.99 3037.97,-209.42"/>
<polygon fill="black" stroke="black" points="3041.47,-209.72 3037.97,-199.72 3034.47,-209.72 3041.47,-209.72"/>
<text text-anchor="middle" x="3064.08" y="-220" font-family="Times,serif" font-size="14.00">+[2 10 0]</text>
</g>
<!-- projector&#45;screen -->
<g id="node24" class="node">
<title>projector&#45;screen</title>
<ellipse fill="none" stroke="black" cx="3213.97" cy="-179.8" rx="73.77" ry="18"/>
<text text-anchor="middle" x="3213.97" y="-175.6" font-family="Times,serif" font-size="14.00">projector&#45;screen</text>
</g>
<!-- &#45;&gt;projector&#45;screen -->
<g id="edge5" class="edge">
<title>&#45;&gt;projector&#45;screen</title>
<path fill="none" stroke="black" d="M3059.2,-257.13C3087.07,-243.38 3136.63,-218.94 3172.17,-201.41"/>
<polygon fill="black" stroke="black" points="3173.47,-204.68 3180.89,-197.11 3170.37,-198.4 3173.47,-204.68"/>
<text text-anchor="middle" x="3210.54" y="-220" font-family="Times,serif" font-size="14.00">+[5 10 0] + [x+100] mm</text>
</g>
<!-- sample&#45;holder -->
<g id="node25" class="node">
<title>sample&#45;holder</title>
<ellipse fill="none" stroke="black" cx="4630.97" cy="-179.8" rx="66.28" ry="18"/>
<text text-anchor="middle" x="4630.97" y="-175.6" font-family="Times,serif" font-size="14.00">sample&#45;holder</text>
</g>
<!-- &#45;&gt;sample&#45;holder -->
<g id="edge6" class="edge">
<title>&#45;&gt;sample&#45;holder</title>
<path fill="none" stroke="black" d="M3064.95,-266.13C3244.39,-256.35 4266.89,-200.64 4555.26,-184.92"/>
<polygon fill="black" stroke="black" points="4555.12,-188.44 4564.91,-184.4 4554.74,-181.45 4555.12,-188.44"/>
</g>
<!-- tube&#45;lens -->
<g id="node32" class="node">
<title>tube&#45;lens</title>
<ellipse fill="none" stroke="black" cx="5455.97" cy="-179.8" rx="46.43" ry="18"/>
<text text-anchor="middle" x="5455.97" y="-175.6" font-family="Times,serif" font-size="14.00">tube&#45;lens</text>
</g>
<!-- &#45;&gt;tube&#45;lens -->
<g id="edge7" class="edge">
<title>&#45;&gt;tube&#45;lens</title>
<path fill="none" stroke="black" d="M3065.12,-266.63C3304.77,-258.02 5057.78,-195.09 5398.63,-182.86"/>
<polygon fill="black" stroke="black" points="5398.54,-186.36 5408.41,-182.51 5398.29,-179.37 5398.54,-186.36"/>
<text text-anchor="middle" x="4489.65" y="-220" font-family="Times,serif" font-size="14.00">+[5 10 0]</text>
</g>
<!-- objective&#45;lens/mounted&#45;lens -->
<g id="node4" class="node">
<title>objective&#45;lens/mounted&#45;lens</title>
<ellipse fill="none" stroke="black" cx="543.97" cy="-106.8" rx="120.45" ry="18"/>
<text text-anchor="middle" x="543.97" y="-102.6" font-family="Times,serif" font-size="14.00">objective&#45;lens/mounted&#45;lens</text>
</g>
<!-- objective&#45;lens&#45;&gt;objective&#45;lens/mounted&#45;lens -->
<g id="edge8" class="edge">
<title>objective&#45;lens&#45;&gt;objective&#45;lens/mounted&#45;lens</title>
<path fill="none" stroke="black" d="M1568.62,-166.79C1559.51,-164.81 1549.98,-163.02 1540.97,-161.8 1158.75,-110.18 1058.21,-158.06 673.97,-124.8 663,-123.85 651.53,-122.65 640.15,-121.33"/>
<polygon fill="black" stroke="black" points="640.66,-117.87 630.32,-120.16 639.83,-124.82 640.66,-117.87"/>
</g>
<!-- objective&#45;lens/skeleton -->
<g id="node5" class="node">
<title>objective&#45;lens/skeleton</title>
<ellipse fill="none" stroke="black" cx="782.97" cy="-106.8" rx="100.07" ry="18"/>
<text text-anchor="middle" x="782.97" y="-102.6" font-family="Times,serif" font-size="14.00">objective&#45;lens/skeleton</text>
</g>
<!-- objective&#45;lens&#45;&gt;objective&#45;lens/skeleton -->
<g id="edge9" class="edge">
<title>objective&#45;lens&#45;&gt;objective&#45;lens/skeleton</title>
<path fill="none" stroke="black" d="M1568.2,-166.91C1559.21,-164.95 1549.83,-163.13 1540.97,-161.8 1312.23,-127.59 1041.31,-114.91 893.24,-110.32"/>
<polygon fill="black" stroke="black" points="893.54,-106.82 883.44,-110.02 893.32,-113.82 893.54,-106.82"/>
</g>
<!-- objective&#45;lens/skeleton/lower&#45;half -->
<g id="node6" class="node">
<title>objective&#45;lens/skeleton/lower&#45;half</title>
<ellipse fill="none" stroke="black" cx="142.97" cy="-18" rx="142.97" ry="18"/>
<text text-anchor="middle" x="142.97" y="-13.8" font-family="Times,serif" font-size="14.00">objective&#45;lens/skeleton/lower&#45;half</text>
</g>
<!-- objective&#45;lens/skeleton&#45;&gt;objective&#45;lens/skeleton/lower&#45;half -->
<g id="edge10" class="edge">
<title>objective&#45;lens/skeleton&#45;&gt;objective&#45;lens/skeleton/lower&#45;half</title>
<path fill="none" stroke="black" d="M709.63,-94.23C697.39,-92.37 684.83,-90.5 672.97,-88.8 527.89,-68.04 360.13,-46.33 252.87,-32.75"/>
<polygon fill="black" stroke="black" points="253.58,-29.31 243.22,-31.52 252.7,-36.25 253.58,-29.31"/>
</g>
<!-- objective&#45;lens/skeleton/upper&#45;half -->
<g id="node7" class="node">
<title>objective&#45;lens/skeleton/upper&#45;half</title>
<ellipse fill="none" stroke="black" cx="446.97" cy="-18" rx="142.97" ry="18"/>
<text text-anchor="middle" x="446.97" y="-13.8" font-family="Times,serif" font-size="14.00">objective&#45;lens/skeleton/upper&#45;half</text>
</g>
<!-- objective&#45;lens/skeleton&#45;&gt;objective&#45;lens/skeleton/upper&#45;half -->
<g id="edge11" class="edge">
<title>objective&#45;lens/skeleton&#45;&gt;objective&#45;lens/skeleton/upper&#45;half</title>
<path fill="none" stroke="black" d="M727.48,-91.47C670.34,-76.7 581.04,-53.64 518.59,-37.5"/>
<polygon fill="black" stroke="black" points="519.67,-34.17 509.11,-35.05 517.92,-40.95 519.67,-34.17"/>
</g>
<!-- periscope&#45;mirror&#45;1/mounted&#45;mirror -->
<g id="node9" class="node">
<title>periscope&#45;mirror&#45;1/mounted&#45;mirror</title>
<ellipse fill="none" stroke="black" cx="1384.97" cy="-106.8" rx="148.33" ry="18"/>
<text text-anchor="middle" x="1384.97" y="-102.6" font-family="Times,serif" font-size="14.00">periscope&#45;mirror&#45;1/mounted&#45;mirror</text>
</g>
<!-- periscope&#45;mirror&#45;1&#45;&gt;periscope&#45;mirror&#45;1/mounted&#45;mirror -->
<g id="edge12" class="edge">
<title>periscope&#45;mirror&#45;1&#45;&gt;periscope&#45;mirror&#45;1/mounted&#45;mirror</title>
<path fill="none" stroke="black" d="M2019.1,-171.3C1897.33,-159.11 1655.19,-134.86 1507.89,-120.11"/>
<polygon fill="black" stroke="black" points="1508.38,-116.64 1498.08,-119.13 1507.69,-123.61 1508.38,-116.64"/>
</g>
<!-- periscope&#45;mirror&#45;1/skeleton -->
<g id="node13" class="node">
<title>periscope&#45;mirror&#45;1/skeleton</title>
<ellipse fill="none" stroke="black" cx="2093.97" cy="-106.8" rx="118.83" ry="18"/>
<text text-anchor="middle" x="2093.97" y="-102.6" font-family="Times,serif" font-size="14.00">periscope&#45;mirror&#45;1/skeleton</text>
</g>
<!-- periscope&#45;mirror&#45;1&#45;&gt;periscope&#45;mirror&#45;1/skeleton -->
<g id="edge13" class="edge">
<title>periscope&#45;mirror&#45;1&#45;&gt;periscope&#45;mirror&#45;1/skeleton</title>
<path fill="none" stroke="black" d="M2093.97,-161.61C2093.97,-154.03 2093.97,-144.9 2093.97,-136.34"/>
<polygon fill="black" stroke="black" points="2097.47,-136.34 2093.97,-126.34 2090.47,-136.34 2097.47,-136.34"/>
</g>
<!-- periscope&#45;mirror&#45;1/mounted&#45;mirror/adhesive&#45;pad -->
<g id="node10" class="node">
<title>periscope&#45;mirror&#45;1/mounted&#45;mirror/adhesive&#45;pad</title>
<ellipse fill="none" stroke="black" cx="809.97" cy="-18" rx="201.96" ry="18"/>
<text text-anchor="middle" x="809.97" y="-13.8" font-family="Times,serif" font-size="14.00">periscope&#45;mirror&#45;1/mounted&#45;mirror/adhesive&#45;pad</text>
</g>
<!-- periscope&#45;mirror&#45;1/mounted&#45;mirror&#45;&gt;periscope&#45;mirror&#45;1/mounted&#45;mirror/adhesive&#45;pad -->
<g id="edge14" class="edge">
<title>periscope&#45;mirror&#45;1/mounted&#45;mirror&#45;&gt;periscope&#45;mirror&#45;1/mounted&#45;mirror/adhesive&#45;pad</title>
<path fill="none" stroke="black" d="M1291.9,-92.39C1247.5,-85.95 1193.64,-78.06 1145.3,-70.8 1069.45,-59.4 984,-46.2 918.34,-35.97"/>
<polygon fill="black" stroke="black" points="919.06,-32.54 908.65,-34.46 917.99,-39.46 919.06,-32.54"/>
<text text-anchor="middle" x="1209.14" y="-58.2" font-family="Times,serif" font-size="14.00">+[&#45;0.50 0.50 0.00] mm</text>
</g>
<!-- periscope&#45;mirror&#45;1/mounted&#45;mirror/insert -->
<g id="node11" class="node">
<title>periscope&#45;mirror&#45;1/mounted&#45;mirror/insert</title>
<ellipse fill="none" stroke="black" cx="1201.97" cy="-18" rx="172.47" ry="18"/>
<text text-anchor="middle" x="1201.97" y="-13.8" font-family="Times,serif" font-size="14.00">periscope&#45;mirror&#45;1/mounted&#45;mirror/insert</text>
</g>
<!-- periscope&#45;mirror&#45;1/mounted&#45;mirror&#45;&gt;periscope&#45;mirror&#45;1/mounted&#45;mirror/insert -->
<g id="edge15" class="edge">
<title>periscope&#45;mirror&#45;1/mounted&#45;mirror&#45;&gt;periscope&#45;mirror&#45;1/mounted&#45;mirror/insert</title>
<path fill="none" stroke="black" d="M1349.25,-88.86C1320.37,-75.16 1279.51,-55.78 1248.15,-40.9"/>
<polygon fill="black" stroke="black" points="1249.81,-37.82 1239.27,-36.7 1246.81,-44.14 1249.81,-37.82"/>
</g>
<!-- periscope&#45;mirror&#45;1/mounted&#45;mirror/mirror -->
<g id="node12" class="node">
<title>periscope&#45;mirror&#45;1/mounted&#45;mirror/mirror</title>
<ellipse fill="none" stroke="black" cx="1567.97" cy="-18" rx="175.69" ry="18"/>
<text text-anchor="middle" x="1567.97" y="-13.8" font-family="Times,serif" font-size="14.00">periscope&#45;mirror&#45;1/mounted&#45;mirror/mirror</text>
</g>
<!-- periscope&#45;mirror&#45;1/mounted&#45;mirror&#45;&gt;periscope&#45;mirror&#45;1/mounted&#45;mirror/mirror -->
<g id="edge16" class="edge">
<title>periscope&#45;mirror&#45;1/mounted&#45;mirror&#45;&gt;periscope&#45;mirror&#45;1/mounted&#45;mirror/mirror</title>
<path fill="none" stroke="black" d="M1420.68,-88.86C1449.56,-75.16 1490.42,-55.78 1521.79,-40.9"/>
<polygon fill="black" stroke="black" points="1523.12,-44.14 1530.66,-36.7 1520.12,-37.82 1523.12,-44.14"/>
</g>
<!-- periscope&#45;mirror&#45;1/skeleton/lower&#45;half -->
<g id="node14" class="node">
<title>periscope&#45;mirror&#45;1/skeleton/lower&#45;half</title>
<ellipse fill="none" stroke="black" cx="1922.97" cy="-18" rx="161.73" ry="18"/>
<text text-anchor="middle" x="1922.97" y="-13.8" font-family="Times,serif" font-size="14.00">periscope&#45;mirror&#45;1/skeleton/lower&#45;half</text>
</g>
<!-- periscope&#45;mirror&#45;1/skeleton&#45;&gt;periscope&#45;mirror&#45;1/skeleton/lower&#45;half -->
<g id="edge17" class="edge">
<title>periscope&#45;mirror&#45;1/skeleton&#45;&gt;periscope&#45;mirror&#45;1/skeleton/lower&#45;half</title>
<path fill="none" stroke="black" d="M2061,-89.06C2034.08,-75.4 1995.83,-55.99 1966.42,-41.06"/>
<polygon fill="black" stroke="black" points="1968.27,-38.07 1957.77,-36.67 1965.1,-44.31 1968.27,-38.07"/>
</g>
<!-- periscope&#45;mirror&#45;1/skeleton/upper&#45;half -->
<g id="node15" class="node">
<title>periscope&#45;mirror&#45;1/skeleton/upper&#45;half</title>
<ellipse fill="none" stroke="black" cx="2263.97" cy="-18" rx="161.73" ry="18"/>
<text text-anchor="middle" x="2263.97" y="-13.8" font-family="Times,serif" font-size="14.00">periscope&#45;mirror&#45;1/skeleton/upper&#45;half</text>
</g>
<!-- periscope&#45;mirror&#45;1/skeleton&#45;&gt;periscope&#45;mirror&#45;1/skeleton/upper&#45;half -->
<g id="edge18" class="edge">
<title>periscope&#45;mirror&#45;1/skeleton&#45;&gt;periscope&#45;mirror&#45;1/skeleton/upper&#45;half</title>
<path fill="none" stroke="black" d="M2126.74,-89.06C2153.5,-75.4 2191.53,-55.99 2220.77,-41.06"/>
<polygon fill="black" stroke="black" points="2222.05,-44.33 2229.36,-36.67 2218.86,-38.1 2222.05,-44.33"/>
</g>
<!-- periscope&#45;mirror&#45;2/mounted&#45;mirror -->
<g id="node17" class="node">
<title>periscope&#45;mirror&#45;2/mounted&#45;mirror</title>
<ellipse fill="none" stroke="black" cx="3037.97" cy="-106.8" rx="148.33" ry="18"/>
<text text-anchor="middle" x="3037.97" y="-102.6" font-family="Times,serif" font-size="14.00">periscope&#45;mirror&#45;2/mounted&#45;mirror</text>
</g>
<!-- periscope&#45;mirror&#45;2&#45;&gt;periscope&#45;mirror&#45;2/mounted&#45;mirror -->
<g id="edge19" class="edge">
<title>periscope&#45;mirror&#45;2&#45;&gt;periscope&#45;mirror&#45;2/mounted&#45;mirror</title>
<path fill="none" stroke="black" d="M3037.97,-161.61C3037.97,-154.03 3037.97,-144.9 3037.97,-136.34"/>
<polygon fill="black" stroke="black" points="3041.47,-136.34 3037.97,-126.34 3034.47,-136.34 3041.47,-136.34"/>
</g>
<!-- periscope&#45;mirror&#45;2/skeleton -->
<g id="node21" class="node">
<title>periscope&#45;mirror&#45;2/skeleton</title>
<ellipse fill="none" stroke="black" cx="3758.97" cy="-106.8" rx="118.83" ry="18"/>
<text text-anchor="middle" x="3758.97" y="-102.6" font-family="Times,serif" font-size="14.00">periscope&#45;mirror&#45;2/skeleton</text>
</g>
<!-- periscope&#45;mirror&#45;2&#45;&gt;periscope&#45;mirror&#45;2/skeleton -->
<g id="edge20" class="edge">
<title>periscope&#45;mirror&#45;2&#45;&gt;periscope&#45;mirror&#45;2/skeleton</title>
<path fill="none" stroke="black" d="M3098.37,-166.9C3109.19,-165.01 3120.39,-163.22 3130.97,-161.8 3306.66,-138.24 3511.45,-122.88 3638.17,-114.77"/>
<polygon fill="black" stroke="black" points="3638.16,-118.28 3647.92,-114.15 3637.71,-111.29 3638.16,-118.28"/>
</g>
<!-- periscope&#45;mirror&#45;2/mounted&#45;mirror/adhesive&#45;pad -->
<g id="node18" class="node">
<title>periscope&#45;mirror&#45;2/mounted&#45;mirror/adhesive&#45;pad</title>
<ellipse fill="none" stroke="black" cx="2645.97" cy="-18" rx="201.96" ry="18"/>
<text text-anchor="middle" x="2645.97" y="-13.8" font-family="Times,serif" font-size="14.00">periscope&#45;mirror&#45;2/mounted&#45;mirror/adhesive&#45;pad</text>
</g>
<!-- periscope&#45;mirror&#45;2/mounted&#45;mirror&#45;&gt;periscope&#45;mirror&#45;2/mounted&#45;mirror/adhesive&#45;pad -->
<g id="edge21" class="edge">
<title>periscope&#45;mirror&#45;2/mounted&#45;mirror&#45;&gt;periscope&#45;mirror&#45;2/mounted&#45;mirror/adhesive&#45;pad</title>
<path fill="none" stroke="black" d="M2968.79,-90.48C2902.23,-75.74 2801.49,-53.44 2730.27,-37.67"/>
<polygon fill="black" stroke="black" points="2731.11,-34.27 2720.59,-35.52 2729.59,-41.1 2731.11,-34.27"/>
<text text-anchor="middle" x="2940.91" y="-58.2" font-family="Times,serif" font-size="14.00">+[&#45;0.50 0.50 0.00] mm</text>
</g>
<!-- periscope&#45;mirror&#45;2/mounted&#45;mirror/insert -->
<g id="node19" class="node">
<title>periscope&#45;mirror&#45;2/mounted&#45;mirror/insert</title>
<ellipse fill="none" stroke="black" cx="3037.97" cy="-18" rx="172.47" ry="18"/>
<text text-anchor="middle" x="3037.97" y="-13.8" font-family="Times,serif" font-size="14.00">periscope&#45;mirror&#45;2/mounted&#45;mirror/insert</text>
</g>
<!-- periscope&#45;mirror&#45;2/mounted&#45;mirror&#45;&gt;periscope&#45;mirror&#45;2/mounted&#45;mirror/insert -->
<g id="edge22" class="edge">
<title>periscope&#45;mirror&#45;2/mounted&#45;mirror&#45;&gt;periscope&#45;mirror&#45;2/mounted&#45;mirror/insert</title>
<path fill="none" stroke="black" d="M3037.97,-88.65C3037.97,-76.96 3037.97,-61.19 3037.97,-47.62"/>
<polygon fill="black" stroke="black" points="3041.47,-47.92 3037.97,-37.92 3034.47,-47.92 3041.47,-47.92"/>
</g>
<!-- periscope&#45;mirror&#45;2/mounted&#45;mirror/mirror -->
<g id="node20" class="node">
<title>periscope&#45;mirror&#45;2/mounted&#45;mirror/mirror</title>
<ellipse fill="none" stroke="black" cx="3403.97" cy="-18" rx="175.69" ry="18"/>
<text text-anchor="middle" x="3403.97" y="-13.8" font-family="Times,serif" font-size="14.00">periscope&#45;mirror&#45;2/mounted&#45;mirror/mirror</text>
</g>
<!-- periscope&#45;mirror&#45;2/mounted&#45;mirror&#45;&gt;periscope&#45;mirror&#45;2/mounted&#45;mirror/mirror -->
<g id="edge23" class="edge">
<title>periscope&#45;mirror&#45;2/mounted&#45;mirror&#45;&gt;periscope&#45;mirror&#45;2/mounted&#45;mirror/mirror</title>
<path fill="none" stroke="black" d="M3103.4,-90.28C3165.5,-75.55 3258.93,-53.4 3325.11,-37.7"/>
<polygon fill="black" stroke="black" points="3325.92,-41.11 3334.84,-35.39 3324.3,-34.3 3325.92,-41.11"/>
</g>
<!-- periscope&#45;mirror&#45;2/skeleton/lower&#45;half -->
<g id="node22" class="node">
<title>periscope&#45;mirror&#45;2/skeleton/lower&#45;half</title>
<ellipse fill="none" stroke="black" cx="3758.97" cy="-18" rx="161.73" ry="18"/>
<text text-anchor="middle" x="3758.97" y="-13.8" font-family="Times,serif" font-size="14.00">periscope&#45;mirror&#45;2/skeleton/lower&#45;half</text>
</g>
<!-- periscope&#45;mirror&#45;2/skeleton&#45;&gt;periscope&#45;mirror&#45;2/skeleton/lower&#45;half -->
<g id="edge24" class="edge">
<title>periscope&#45;mirror&#45;2/skeleton&#45;&gt;periscope&#45;mirror&#45;2/skeleton/lower&#45;half</title>
<path fill="none" stroke="black" d="M3758.97,-88.65C3758.97,-76.96 3758.97,-61.19 3758.97,-47.62"/>
<polygon fill="black" stroke="black" points="3762.47,-47.92 3758.97,-37.92 3755.47,-47.92 3762.47,-47.92"/>
</g>
<!-- periscope&#45;mirror&#45;2/skeleton/upper&#45;half -->
<g id="node23" class="node">
<title>periscope&#45;mirror&#45;2/skeleton/upper&#45;half</title>
<ellipse fill="none" stroke="black" cx="4099.97" cy="-18" rx="161.73" ry="18"/>
<text text-anchor="middle" x="4099.97" y="-13.8" font-family="Times,serif" font-size="14.00">periscope&#45;mirror&#45;2/skeleton/upper&#45;half</text>
</g>
<!-- periscope&#45;mirror&#45;2/skeleton&#45;&gt;periscope&#45;mirror&#45;2/skeleton/upper&#45;half -->
<g id="edge25" class="edge">
<title>periscope&#45;mirror&#45;2/skeleton&#45;&gt;periscope&#45;mirror&#45;2/skeleton/upper&#45;half</title>
<path fill="none" stroke="black" d="M3817.97,-90.78C3875.7,-76.09 3963.78,-53.66 4026.12,-37.8"/>
<polygon fill="black" stroke="black" points="4026.77,-41.24 4035.6,-35.39 4025.04,-34.46 4026.77,-41.24"/>
</g>
<!-- sample&#45;holder/mounted&#45;slide&#45;holder -->
<g id="node26" class="node">
<title>sample&#45;holder/mounted&#45;slide&#45;holder</title>
<ellipse fill="none" stroke="black" cx="4630.97" cy="-106.8" rx="152.09" ry="18"/>
<text text-anchor="middle" x="4630.97" y="-102.6" font-family="Times,serif" font-size="14.00">sample&#45;holder/mounted&#45;slide&#45;holder</text>
</g>
<!-- sample&#45;holder&#45;&gt;sample&#45;holder/mounted&#45;slide&#45;holder -->
<g id="edge26" class="edge">
<title>sample&#45;holder&#45;&gt;sample&#45;holder/mounted&#45;slide&#45;holder</title>
<path fill="none" stroke="black" d="M4630.97,-161.61C4630.97,-154.03 4630.97,-144.9 4630.97,-136.34"/>
<polygon fill="black" stroke="black" points="4634.47,-136.34 4630.97,-126.34 4627.47,-136.34 4634.47,-136.34"/>
</g>
<!-- sample&#45;holder/skeleton -->
<g id="node29" class="node">
<title>sample&#45;holder/skeleton</title>
<ellipse fill="none" stroke="black" cx="5149.97" cy="-106.8" rx="101.14" ry="18"/>
<text text-anchor="middle" x="5149.97" y="-102.6" font-family="Times,serif" font-size="14.00">sample&#45;holder/skeleton</text>
</g>
<!-- sample&#45;holder&#45;&gt;sample&#45;holder/skeleton -->
<g id="edge27" class="edge">
<title>sample&#45;holder&#45;&gt;sample&#45;holder/skeleton</title>
<path fill="none" stroke="black" d="M4689.24,-170.83C4779.56,-158.47 4954,-134.61 5060.4,-120.05"/>
<polygon fill="black" stroke="black" points="5060.82,-123.53 5070.26,-118.7 5059.88,-116.59 5060.82,-123.53"/>
</g>
<!-- sample&#45;holder/mounted&#45;slide&#45;holder/clip -->
<g id="node27" class="node">
<title>sample&#45;holder/mounted&#45;slide&#45;holder/clip</title>
<ellipse fill="none" stroke="black" cx="4448.97" cy="-18" rx="169.26" ry="18"/>
<text text-anchor="middle" x="4448.97" y="-13.8" font-family="Times,serif" font-size="14.00">sample&#45;holder/mounted&#45;slide&#45;holder/clip</text>
</g>
<!-- sample&#45;holder/mounted&#45;slide&#45;holder&#45;&gt;sample&#45;holder/mounted&#45;slide&#45;holder/clip -->
<g id="edge28" class="edge">
<title>sample&#45;holder/mounted&#45;slide&#45;holder&#45;&gt;sample&#45;holder/mounted&#45;slide&#45;holder/clip</title>
<path fill="none" stroke="black" d="M4595.44,-88.86C4566.72,-75.16 4526.08,-55.78 4494.89,-40.9"/>
<polygon fill="black" stroke="black" points="4496.61,-37.84 4486.08,-36.7 4493.6,-44.16 4496.61,-37.84"/>
<text text-anchor="middle" x="4586.01" y="-58.2" font-family="Times,serif" font-size="14.00">[z&#45;10] mm</text>
</g>
<!-- sample&#45;holder/mounted&#45;slide&#45;holder/insert -->
<g id="node28" class="node">
<title>sample&#45;holder/mounted&#45;slide&#45;holder/insert</title>
<ellipse fill="none" stroke="black" cx="4811.97" cy="-18" rx="176.23" ry="18"/>
<text text-anchor="middle" x="4811.97" y="-13.8" font-family="Times,serif" font-size="14.00">sample&#45;holder/mounted&#45;slide&#45;holder/insert</text>
</g>
<!-- sample&#45;holder/mounted&#45;slide&#45;holder&#45;&gt;sample&#45;holder/mounted&#45;slide&#45;holder/insert -->
<g id="edge29" class="edge">
<title>sample&#45;holder/mounted&#45;slide&#45;holder&#45;&gt;sample&#45;holder/mounted&#45;slide&#45;holder/insert</title>
<path fill="none" stroke="black" d="M4666.29,-88.86C4694.86,-75.16 4735.27,-55.78 4766.29,-40.9"/>
<polygon fill="black" stroke="black" points="4767.55,-44.18 4775.05,-36.7 4764.52,-37.87 4767.55,-44.18"/>
</g>
<!-- sample&#45;holder/skeleton/lower&#45;half -->
<g id="node30" class="node">
<title>sample&#45;holder/skeleton/lower&#45;half</title>
<ellipse fill="none" stroke="black" cx="5149.97" cy="-18" rx="144.04" ry="18"/>
<text text-anchor="middle" x="5149.97" y="-13.8" font-family="Times,serif" font-size="14.00">sample&#45;holder/skeleton/lower&#45;half</text>
</g>
<!-- sample&#45;holder/skeleton&#45;&gt;sample&#45;holder/skeleton/lower&#45;half -->
<g id="edge30" class="edge">
<title>sample&#45;holder/skeleton&#45;&gt;sample&#45;holder/skeleton/lower&#45;half</title>
<path fill="none" stroke="black" d="M5149.97,-88.65C5149.97,-76.96 5149.97,-61.19 5149.97,-47.62"/>
<polygon fill="black" stroke="black" points="5153.47,-47.92 5149.97,-37.92 5146.47,-47.92 5153.47,-47.92"/>
</g>
<!-- sample&#45;holder/skeleton/upper&#45;half -->
<g id="node31" class="node">
<title>sample&#45;holder/skeleton/upper&#45;half</title>
<ellipse fill="none" stroke="black" cx="5455.97" cy="-18" rx="144.04" ry="18"/>
<text text-anchor="middle" x="5455.97" y="-13.8" font-family="Times,serif" font-size="14.00">sample&#45;holder/skeleton/upper&#45;half</text>
</g>
<!-- sample&#45;holder/skeleton&#45;&gt;sample&#45;holder/skeleton/upper&#45;half -->
<g id="edge31" class="edge">
<title>sample&#45;holder/skeleton&#45;&gt;sample&#45;holder/skeleton/upper&#45;half</title>
<path fill="none" stroke="black" d="M5202.22,-90.98C5253.67,-76.38 5332.48,-54.03 5388.61,-38.11"/>
<polygon fill="black" stroke="black" points="5389.39,-41.52 5398.06,-35.43 5387.48,-34.79 5389.39,-41.52"/>
</g>
<!-- tube&#45;lens/mounted&#45;lens -->
<g id="node33" class="node">
<title>tube&#45;lens/mounted&#45;lens</title>
<ellipse fill="none" stroke="black" cx="5455.97" cy="-106.8" rx="101.68" ry="18"/>
<text text-anchor="middle" x="5455.97" y="-102.6" font-family="Times,serif" font-size="14.00">tube&#45;lens/mounted&#45;lens</text>
</g>
<!-- tube&#45;lens&#45;&gt;tube&#45;lens/mounted&#45;lens -->
<g id="edge32" class="edge">
<title>tube&#45;lens&#45;&gt;tube&#45;lens/mounted&#45;lens</title>
<path fill="none" stroke="black" d="M5455.97,-161.61C5455.97,-154.03 5455.97,-144.9 5455.97,-136.34"/>
<polygon fill="black" stroke="black" points="5459.47,-136.34 5455.97,-126.34 5452.47,-136.34 5459.47,-136.34"/>
</g>
<!-- tube&#45;lens/skeleton -->
<g id="node34" class="node">
<title>tube&#45;lens/skeleton</title>
<ellipse fill="none" stroke="black" cx="5741.97" cy="-106.8" rx="81.3" ry="18"/>
<text text-anchor="middle" x="5741.97" y="-102.6" font-family="Times,serif" font-size="14.00">tube&#45;lens/skeleton</text>
</g>
<!-- tube&#45;lens&#45;&gt;tube&#45;lens/skeleton -->
<g id="edge33" class="edge">
<title>tube&#45;lens&#45;&gt;tube&#45;lens/skeleton</title>
<path fill="none" stroke="black" d="M5494.24,-169.3C5541.33,-157.61 5621.96,-137.59 5678.41,-123.58"/>
<polygon fill="black" stroke="black" points="5679.02,-127.03 5687.89,-121.23 5677.34,-120.24 5679.02,-127.03"/>
</g>
<!-- tube&#45;lens/skeleton/lower&#45;half -->
<g id="node35" class="node">
<title>tube&#45;lens/skeleton/lower&#45;half</title>
<ellipse fill="none" stroke="black" cx="5741.97" cy="-18" rx="124.2" ry="18"/>
<text text-anchor="middle" x="5741.97" y="-13.8" font-family="Times,serif" font-size="14.00">tube&#45;lens/skeleton/lower&#45;half</text>
</g>
<!-- tube&#45;lens/skeleton&#45;&gt;tube&#45;lens/skeleton/lower&#45;half -->
<g id="edge34" class="edge">
<title>tube&#45;lens/skeleton&#45;&gt;tube&#45;lens/skeleton/lower&#45;half</title>
<path fill="none" stroke="black" d="M5741.97,-88.65C5741.97,-76.96 5741.97,-61.19 5741.97,-47.62"/>
<polygon fill="black" stroke="black" points="5745.47,-47.92 5741.97,-37.92 5738.47,-47.92 5745.47,-47.92"/>
</g>
<!-- tube&#45;lens/skeleton/upper&#45;half -->
<g id="node36" class="node">
<title>tube&#45;lens/skeleton/upper&#45;half</title>
<ellipse fill="none" stroke="black" cx="6007.97" cy="-18" rx="124.2" ry="18"/>
<text text-anchor="middle" x="6007.97" y="-13.8" font-family="Times,serif" font-size="14.00">tube&#45;lens/skeleton/upper&#45;half</text>
</g>
<!-- tube&#45;lens/skeleton&#45;&gt;tube&#45;lens/skeleton/upper&#45;half -->
<g id="edge35" class="edge">
<title>tube&#45;lens/skeleton&#45;&gt;tube&#45;lens/skeleton/upper&#45;half</title>
<path fill="none" stroke="black" d="M5786.19,-91.37C5830.55,-76.89 5899.16,-54.5 5948.32,-38.46"/>
<polygon fill="black" stroke="black" points="5949.26,-41.84 5957.68,-35.41 5947.09,-35.18 5949.26,-41.84"/>
</g>
</g>
</svg>
