ISO-10303-21;
HEADER;
/* Generated by software containing ST-Developer
 * from STEP Tools, Inc. (www.steptools.com) 
 */

FILE_DESCRIPTION(
/* description */ (''),
/* implementation_level */ '2;1');

FILE_NAME(
/* name */ 'BUY - XYZ linear table - LD40 --- XY plate.stp',
/* time_stamp */ '2026-09-22T16:25:33+02:00',
/* author */ ('benir'),
/* organization */ (''),
/* preprocessor_version */ 'ST-DEVELOPER v20',
/* originating_system */ 'Autodesk Inventor 2025',
/* authorisation */ '');

FILE_SCHEMA (('AUTOMOTIVE_DESIGN { 1 0 10303 214 3 1 1 }'));
ENDSEC;

DATA;
#10=MECHANICAL_DESIGN_GEOMETRIC_PRESENTATION_REPRESENTATION('',(#13),#816);
#11=SHAPE_REPRESENTATION_RELATIONSHIP('SRR','None',#823,#12);
#12=ADVANCED_BREP_SHAPE_REPRESENTATION('',(#14),#815);
#13=STYLED_ITEM('',(#832),#14);
#14=MANIFOLD_SOLID_BREP('XY table',#475);
#15=FACE_BOUND('',#93,.T.);
#16=FACE_BOUND('',#94,.T.);
#17=FACE_BOUND('',#95,.T.);
#18=FACE_BOUND('',#96,.T.);
#19=FACE_BOUND('',#100,.T.);
#20=FACE_BOUND('',#101,.T.);
#21=FACE_BOUND('',#102,.T.);
#22=FACE_BOUND('',#103,.T.);
#23=PLANE('',#501);
#24=PLANE('',#505);
#25=PLANE('',#509);
#26=PLANE('',#513);
#27=PLANE('',#517);
#28=PLANE('',#521);
#29=PLANE('',#525);
#30=PLANE('',#529);
#31=PLANE('',#530);
#32=PLANE('',#531);
#33=PLANE('',#532);
#34=PLANE('',#533);
#35=PLANE('',#534);
#36=PLANE('',#535);
#37=PLANE('',#536);
#38=PLANE('',#537);
#39=PLANE('',#538);
#40=PLANE('',#539);
#41=PLANE('',#540);
#42=PLANE('',#541);
#43=PLANE('',#542);
#44=PLANE('',#543);
#45=FACE_OUTER_BOUND('',#75,.T.);
#46=FACE_OUTER_BOUND('',#76,.T.);
#47=FACE_OUTER_BOUND('',#77,.T.);
#48=FACE_OUTER_BOUND('',#78,.T.);
#49=FACE_OUTER_BOUND('',#79,.T.);
#50=FACE_OUTER_BOUND('',#80,.T.);
#51=FACE_OUTER_BOUND('',#81,.T.);
#52=FACE_OUTER_BOUND('',#82,.T.);
#53=FACE_OUTER_BOUND('',#83,.T.);
#54=FACE_OUTER_BOUND('',#84,.T.);
#55=FACE_OUTER_BOUND('',#85,.T.);
#56=FACE_OUTER_BOUND('',#86,.T.);
#57=FACE_OUTER_BOUND('',#87,.T.);
#58=FACE_OUTER_BOUND('',#88,.T.);
#59=FACE_OUTER_BOUND('',#89,.T.);
#60=FACE_OUTER_BOUND('',#90,.T.);
#61=FACE_OUTER_BOUND('',#91,.T.);
#62=FACE_OUTER_BOUND('',#92,.T.);
#63=FACE_OUTER_BOUND('',#97,.T.);
#64=FACE_OUTER_BOUND('',#98,.T.);
#65=FACE_OUTER_BOUND('',#99,.T.);
#66=FACE_OUTER_BOUND('',#104,.T.);
#67=FACE_OUTER_BOUND('',#105,.T.);
#68=FACE_OUTER_BOUND('',#106,.T.);
#69=FACE_OUTER_BOUND('',#107,.T.);
#70=FACE_OUTER_BOUND('',#108,.T.);
#71=FACE_OUTER_BOUND('',#109,.T.);
#72=FACE_OUTER_BOUND('',#110,.T.);
#73=FACE_OUTER_BOUND('',#111,.T.);
#74=FACE_OUTER_BOUND('',#112,.T.);
#75=EDGE_LOOP('',(#317,#318,#319,#320));
#76=EDGE_LOOP('',(#321));
#77=EDGE_LOOP('',(#322,#323,#324,#325));
#78=EDGE_LOOP('',(#326));
#79=EDGE_LOOP('',(#327,#328,#329,#330));
#80=EDGE_LOOP('',(#331));
#81=EDGE_LOOP('',(#332,#333,#334,#335));
#82=EDGE_LOOP('',(#336));
#83=EDGE_LOOP('',(#337,#338,#339,#340));
#84=EDGE_LOOP('',(#341));
#85=EDGE_LOOP('',(#342,#343,#344,#345));
#86=EDGE_LOOP('',(#346));
#87=EDGE_LOOP('',(#347,#348,#349,#350));
#88=EDGE_LOOP('',(#351));
#89=EDGE_LOOP('',(#352,#353,#354,#355));
#90=EDGE_LOOP('',(#356));
#91=EDGE_LOOP('',(#357,#358,#359,#360));
#92=EDGE_LOOP('',(#361,#362,#363,#364,#365,#366,#367,#368));
#93=EDGE_LOOP('',(#369));
#94=EDGE_LOOP('',(#370));
#95=EDGE_LOOP('',(#371));
#96=EDGE_LOOP('',(#372));
#97=EDGE_LOOP('',(#373,#374,#375,#376));
#98=EDGE_LOOP('',(#377,#378,#379,#380));
#99=EDGE_LOOP('',(#381,#382,#383,#384,#385,#386,#387,#388));
#100=EDGE_LOOP('',(#389));
#101=EDGE_LOOP('',(#390));
#102=EDGE_LOOP('',(#391));
#103=EDGE_LOOP('',(#392));
#104=EDGE_LOOP('',(#393,#394,#395,#396));
#105=EDGE_LOOP('',(#397,#398,#399,#400));
#106=EDGE_LOOP('',(#401,#402,#403,#404));
#107=EDGE_LOOP('',(#405,#406,#407,#408));
#108=EDGE_LOOP('',(#409,#410,#411,#412));
#109=EDGE_LOOP('',(#413,#414,#415,#416,#417,#418,#419,#420));
#110=EDGE_LOOP('',(#421,#422,#423,#424,#425,#426,#427,#428));
#111=EDGE_LOOP('',(#429,#430,#431,#432));
#112=EDGE_LOOP('',(#433,#434,#435,#436));
#113=LINE('',#687,#157);
#114=LINE('',#694,#158);
#115=LINE('',#701,#159);
#116=LINE('',#708,#160);
#117=LINE('',#715,#161);
#118=LINE('',#722,#162);
#119=LINE('',#729,#163);
#120=LINE('',#736,#164);
#121=LINE('',#742,#165);
#122=LINE('',#744,#166);
#123=LINE('',#746,#167);
#124=LINE('',#747,#168);
#125=LINE('',#751,#169);
#126=LINE('',#753,#170);
#127=LINE('',#755,#171);
#128=LINE('',#757,#172);
#129=LINE('',#759,#173);
#130=LINE('',#761,#174);
#131=LINE('',#763,#175);
#132=LINE('',#764,#176);
#133=LINE('',#768,#177);
#134=LINE('',#770,#178);
#135=LINE('',#772,#179);
#136=LINE('',#773,#180);
#137=LINE('',#775,#181);
#138=LINE('',#776,#182);
#139=LINE('',#779,#183);
#140=LINE('',#781,#184);
#141=LINE('',#782,#185);
#142=LINE('',#783,#186);
#143=LINE('',#786,#187);
#144=LINE('',#788,#188);
#145=LINE('',#789,#189);
#146=LINE('',#792,#190);
#147=LINE('',#794,#191);
#148=LINE('',#795,#192);
#149=LINE('',#797,#193);
#150=LINE('',#800,#194);
#151=LINE('',#801,#195);
#152=LINE('',#803,#196);
#153=LINE('',#806,#197);
#154=LINE('',#807,#198);
#155=LINE('',#809,#199);
#156=LINE('',#810,#200);
#157=VECTOR('',#550,1.0065);
#158=VECTOR('',#559,1.0065);
#159=VECTOR('',#568,1.0065);
#160=VECTOR('',#577,1.0065);
#161=VECTOR('',#586,1.0065);
#162=VECTOR('',#595,1.0065);
#163=VECTOR('',#604,1.0065);
#164=VECTOR('',#613,1.0065);
#165=VECTOR('',#620,10.);
#166=VECTOR('',#621,10.);
#167=VECTOR('',#622,10.);
#168=VECTOR('',#623,10.);
#169=VECTOR('',#626,10.);
#170=VECTOR('',#627,10.);
#171=VECTOR('',#628,10.);
#172=VECTOR('',#629,10.);
#173=VECTOR('',#630,10.);
#174=VECTOR('',#631,10.);
#175=VECTOR('',#632,10.);
#176=VECTOR('',#633,10.);
#177=VECTOR('',#636,10.);
#178=VECTOR('',#637,10.);
#179=VECTOR('',#638,10.);
#180=VECTOR('',#639,10.);
#181=VECTOR('',#642,10.);
#182=VECTOR('',#643,10.);
#183=VECTOR('',#646,10.);
#184=VECTOR('',#647,10.);
#185=VECTOR('',#648,10.);
#186=VECTOR('',#649,10.);
#187=VECTOR('',#652,10.);
#188=VECTOR('',#653,10.);
#189=VECTOR('',#654,10.);
#190=VECTOR('',#657,10.);
#191=VECTOR('',#658,10.);
#192=VECTOR('',#659,10.);
#193=VECTOR('',#662,10.);
#194=VECTOR('',#665,10.);
#195=VECTOR('',#666,10.);
#196=VECTOR('',#669,10.);
#197=VECTOR('',#672,10.);
#198=VECTOR('',#673,10.);
#199=VECTOR('',#676,10.);
#200=VECTOR('',#677,10.);
#201=CIRCLE('',#499,1.0065);
#202=CIRCLE('',#500,1.0065);
#203=CIRCLE('',#503,1.0065);
#204=CIRCLE('',#504,1.0065);
#205=CIRCLE('',#507,1.0065);
#206=CIRCLE('',#508,1.0065);
#207=CIRCLE('',#511,1.0065);
#208=CIRCLE('',#512,1.0065);
#209=CIRCLE('',#515,1.0065);
#210=CIRCLE('',#516,1.0065);
#211=CIRCLE('',#519,1.0065);
#212=CIRCLE('',#520,1.0065);
#213=CIRCLE('',#523,1.0065);
#214=CIRCLE('',#524,1.0065);
#215=CIRCLE('',#527,1.0065);
#216=CIRCLE('',#528,1.0065);
#217=VERTEX_POINT('',#684);
#218=VERTEX_POINT('',#686);
#219=VERTEX_POINT('',#691);
#220=VERTEX_POINT('',#693);
#221=VERTEX_POINT('',#698);
#222=VERTEX_POINT('',#700);
#223=VERTEX_POINT('',#705);
#224=VERTEX_POINT('',#707);
#225=VERTEX_POINT('',#712);
#226=VERTEX_POINT('',#714);
#227=VERTEX_POINT('',#719);
#228=VERTEX_POINT('',#721);
#229=VERTEX_POINT('',#726);
#230=VERTEX_POINT('',#728);
#231=VERTEX_POINT('',#733);
#232=VERTEX_POINT('',#735);
#233=VERTEX_POINT('',#740);
#234=VERTEX_POINT('',#741);
#235=VERTEX_POINT('',#743);
#236=VERTEX_POINT('',#745);
#237=VERTEX_POINT('',#749);
#238=VERTEX_POINT('',#750);
#239=VERTEX_POINT('',#752);
#240=VERTEX_POINT('',#754);
#241=VERTEX_POINT('',#756);
#242=VERTEX_POINT('',#758);
#243=VERTEX_POINT('',#760);
#244=VERTEX_POINT('',#762);
#245=VERTEX_POINT('',#766);
#246=VERTEX_POINT('',#767);
#247=VERTEX_POINT('',#769);
#248=VERTEX_POINT('',#771);
#249=VERTEX_POINT('',#778);
#250=VERTEX_POINT('',#780);
#251=VERTEX_POINT('',#785);
#252=VERTEX_POINT('',#787);
#253=VERTEX_POINT('',#791);
#254=VERTEX_POINT('',#793);
#255=VERTEX_POINT('',#799);
#256=VERTEX_POINT('',#805);
#257=EDGE_CURVE('',#217,#217,#201,.T.);
#258=EDGE_CURVE('',#217,#218,#113,.T.);
#259=EDGE_CURVE('',#218,#218,#202,.T.);
#260=EDGE_CURVE('',#219,#219,#203,.T.);
#261=EDGE_CURVE('',#219,#220,#114,.T.);
#262=EDGE_CURVE('',#220,#220,#204,.T.);
#263=EDGE_CURVE('',#221,#221,#205,.T.);
#264=EDGE_CURVE('',#221,#222,#115,.T.);
#265=EDGE_CURVE('',#222,#222,#206,.T.);
#266=EDGE_CURVE('',#223,#223,#207,.T.);
#267=EDGE_CURVE('',#223,#224,#116,.T.);
#268=EDGE_CURVE('',#224,#224,#208,.T.);
#269=EDGE_CURVE('',#225,#225,#209,.T.);
#270=EDGE_CURVE('',#225,#226,#117,.T.);
#271=EDGE_CURVE('',#226,#226,#210,.T.);
#272=EDGE_CURVE('',#227,#227,#211,.T.);
#273=EDGE_CURVE('',#227,#228,#118,.T.);
#274=EDGE_CURVE('',#228,#228,#212,.T.);
#275=EDGE_CURVE('',#229,#229,#213,.T.);
#276=EDGE_CURVE('',#229,#230,#119,.T.);
#277=EDGE_CURVE('',#230,#230,#214,.T.);
#278=EDGE_CURVE('',#231,#231,#215,.T.);
#279=EDGE_CURVE('',#231,#232,#120,.T.);
#280=EDGE_CURVE('',#232,#232,#216,.T.);
#281=EDGE_CURVE('',#233,#234,#121,.T.);
#282=EDGE_CURVE('',#233,#235,#122,.T.);
#283=EDGE_CURVE('',#236,#235,#123,.T.);
#284=EDGE_CURVE('',#234,#236,#124,.T.);
#285=EDGE_CURVE('',#237,#238,#125,.T.);
#286=EDGE_CURVE('',#239,#237,#126,.T.);
#287=EDGE_CURVE('',#239,#240,#127,.T.);
#288=EDGE_CURVE('',#240,#241,#128,.T.);
#289=EDGE_CURVE('',#241,#242,#129,.T.);
#290=EDGE_CURVE('',#243,#242,#130,.T.);
#291=EDGE_CURVE('',#243,#244,#131,.T.);
#292=EDGE_CURVE('',#238,#244,#132,.T.);
#293=EDGE_CURVE('',#245,#246,#133,.T.);
#294=EDGE_CURVE('',#247,#245,#134,.T.);
#295=EDGE_CURVE('',#248,#247,#135,.T.);
#296=EDGE_CURVE('',#246,#248,#136,.T.);
#297=EDGE_CURVE('',#235,#248,#137,.T.);
#298=EDGE_CURVE('',#247,#236,#138,.T.);
#299=EDGE_CURVE('',#244,#249,#139,.T.);
#300=EDGE_CURVE('',#249,#250,#140,.T.);
#301=EDGE_CURVE('',#234,#250,#141,.T.);
#302=EDGE_CURVE('',#238,#245,#142,.T.);
#303=EDGE_CURVE('',#251,#239,#143,.T.);
#304=EDGE_CURVE('',#252,#251,#144,.T.);
#305=EDGE_CURVE('',#252,#240,#145,.T.);
#306=EDGE_CURVE('',#253,#241,#146,.T.);
#307=EDGE_CURVE('',#254,#253,#147,.T.);
#308=EDGE_CURVE('',#242,#254,#148,.T.);
#309=EDGE_CURVE('',#253,#252,#149,.T.);
#310=EDGE_CURVE('',#255,#254,#150,.T.);
#311=EDGE_CURVE('',#243,#255,#151,.T.);
#312=EDGE_CURVE('',#249,#255,#152,.T.);
#313=EDGE_CURVE('',#256,#251,#153,.T.);
#314=EDGE_CURVE('',#250,#256,#154,.T.);
#315=EDGE_CURVE('',#256,#233,#155,.T.);
#316=EDGE_CURVE('',#246,#237,#156,.T.);
#317=ORIENTED_EDGE('',*,*,#257,.F.);
#318=ORIENTED_EDGE('',*,*,#258,.T.);
#319=ORIENTED_EDGE('',*,*,#259,.F.);
#320=ORIENTED_EDGE('',*,*,#258,.F.);
#321=ORIENTED_EDGE('',*,*,#259,.T.);
#322=ORIENTED_EDGE('',*,*,#260,.F.);
#323=ORIENTED_EDGE('',*,*,#261,.T.);
#324=ORIENTED_EDGE('',*,*,#262,.F.);
#325=ORIENTED_EDGE('',*,*,#261,.F.);
#326=ORIENTED_EDGE('',*,*,#262,.T.);
#327=ORIENTED_EDGE('',*,*,#263,.F.);
#328=ORIENTED_EDGE('',*,*,#264,.T.);
#329=ORIENTED_EDGE('',*,*,#265,.F.);
#330=ORIENTED_EDGE('',*,*,#264,.F.);
#331=ORIENTED_EDGE('',*,*,#265,.T.);
#332=ORIENTED_EDGE('',*,*,#266,.F.);
#333=ORIENTED_EDGE('',*,*,#267,.T.);
#334=ORIENTED_EDGE('',*,*,#268,.F.);
#335=ORIENTED_EDGE('',*,*,#267,.F.);
#336=ORIENTED_EDGE('',*,*,#268,.T.);
#337=ORIENTED_EDGE('',*,*,#269,.F.);
#338=ORIENTED_EDGE('',*,*,#270,.T.);
#339=ORIENTED_EDGE('',*,*,#271,.F.);
#340=ORIENTED_EDGE('',*,*,#270,.F.);
#341=ORIENTED_EDGE('',*,*,#271,.T.);
#342=ORIENTED_EDGE('',*,*,#272,.F.);
#343=ORIENTED_EDGE('',*,*,#273,.T.);
#344=ORIENTED_EDGE('',*,*,#274,.F.);
#345=ORIENTED_EDGE('',*,*,#273,.F.);
#346=ORIENTED_EDGE('',*,*,#274,.T.);
#347=ORIENTED_EDGE('',*,*,#275,.F.);
#348=ORIENTED_EDGE('',*,*,#276,.T.);
#349=ORIENTED_EDGE('',*,*,#277,.F.);
#350=ORIENTED_EDGE('',*,*,#276,.F.);
#351=ORIENTED_EDGE('',*,*,#277,.T.);
#352=ORIENTED_EDGE('',*,*,#278,.F.);
#353=ORIENTED_EDGE('',*,*,#279,.T.);
#354=ORIENTED_EDGE('',*,*,#280,.F.);
#355=ORIENTED_EDGE('',*,*,#279,.F.);
#356=ORIENTED_EDGE('',*,*,#280,.T.);
#357=ORIENTED_EDGE('',*,*,#281,.F.);
#358=ORIENTED_EDGE('',*,*,#282,.T.);
#359=ORIENTED_EDGE('',*,*,#283,.F.);
#360=ORIENTED_EDGE('',*,*,#284,.F.);
#361=ORIENTED_EDGE('',*,*,#285,.F.);
#362=ORIENTED_EDGE('',*,*,#286,.F.);
#363=ORIENTED_EDGE('',*,*,#287,.T.);
#364=ORIENTED_EDGE('',*,*,#288,.T.);
#365=ORIENTED_EDGE('',*,*,#289,.T.);
#366=ORIENTED_EDGE('',*,*,#290,.F.);
#367=ORIENTED_EDGE('',*,*,#291,.T.);
#368=ORIENTED_EDGE('',*,*,#292,.F.);
#369=ORIENTED_EDGE('',*,*,#269,.T.);
#370=ORIENTED_EDGE('',*,*,#272,.T.);
#371=ORIENTED_EDGE('',*,*,#275,.T.);
#372=ORIENTED_EDGE('',*,*,#278,.T.);
#373=ORIENTED_EDGE('',*,*,#293,.F.);
#374=ORIENTED_EDGE('',*,*,#294,.F.);
#375=ORIENTED_EDGE('',*,*,#295,.F.);
#376=ORIENTED_EDGE('',*,*,#296,.F.);
#377=ORIENTED_EDGE('',*,*,#283,.T.);
#378=ORIENTED_EDGE('',*,*,#297,.T.);
#379=ORIENTED_EDGE('',*,*,#295,.T.);
#380=ORIENTED_EDGE('',*,*,#298,.T.);
#381=ORIENTED_EDGE('',*,*,#299,.T.);
#382=ORIENTED_EDGE('',*,*,#300,.T.);
#383=ORIENTED_EDGE('',*,*,#301,.F.);
#384=ORIENTED_EDGE('',*,*,#284,.T.);
#385=ORIENTED_EDGE('',*,*,#298,.F.);
#386=ORIENTED_EDGE('',*,*,#294,.T.);
#387=ORIENTED_EDGE('',*,*,#302,.F.);
#388=ORIENTED_EDGE('',*,*,#292,.T.);
#389=ORIENTED_EDGE('',*,*,#257,.T.);
#390=ORIENTED_EDGE('',*,*,#260,.T.);
#391=ORIENTED_EDGE('',*,*,#263,.T.);
#392=ORIENTED_EDGE('',*,*,#266,.T.);
#393=ORIENTED_EDGE('',*,*,#303,.F.);
#394=ORIENTED_EDGE('',*,*,#304,.F.);
#395=ORIENTED_EDGE('',*,*,#305,.T.);
#396=ORIENTED_EDGE('',*,*,#287,.F.);
#397=ORIENTED_EDGE('',*,*,#306,.F.);
#398=ORIENTED_EDGE('',*,*,#307,.F.);
#399=ORIENTED_EDGE('',*,*,#308,.F.);
#400=ORIENTED_EDGE('',*,*,#289,.F.);
#401=ORIENTED_EDGE('',*,*,#305,.F.);
#402=ORIENTED_EDGE('',*,*,#309,.F.);
#403=ORIENTED_EDGE('',*,*,#306,.T.);
#404=ORIENTED_EDGE('',*,*,#288,.F.);
#405=ORIENTED_EDGE('',*,*,#308,.T.);
#406=ORIENTED_EDGE('',*,*,#310,.F.);
#407=ORIENTED_EDGE('',*,*,#311,.F.);
#408=ORIENTED_EDGE('',*,*,#290,.T.);
#409=ORIENTED_EDGE('',*,*,#311,.T.);
#410=ORIENTED_EDGE('',*,*,#312,.F.);
#411=ORIENTED_EDGE('',*,*,#299,.F.);
#412=ORIENTED_EDGE('',*,*,#291,.F.);
#413=ORIENTED_EDGE('',*,*,#300,.F.);
#414=ORIENTED_EDGE('',*,*,#312,.T.);
#415=ORIENTED_EDGE('',*,*,#310,.T.);
#416=ORIENTED_EDGE('',*,*,#307,.T.);
#417=ORIENTED_EDGE('',*,*,#309,.T.);
#418=ORIENTED_EDGE('',*,*,#304,.T.);
#419=ORIENTED_EDGE('',*,*,#313,.F.);
#420=ORIENTED_EDGE('',*,*,#314,.F.);
#421=ORIENTED_EDGE('',*,*,#282,.F.);
#422=ORIENTED_EDGE('',*,*,#315,.F.);
#423=ORIENTED_EDGE('',*,*,#313,.T.);
#424=ORIENTED_EDGE('',*,*,#303,.T.);
#425=ORIENTED_EDGE('',*,*,#286,.T.);
#426=ORIENTED_EDGE('',*,*,#316,.F.);
#427=ORIENTED_EDGE('',*,*,#296,.T.);
#428=ORIENTED_EDGE('',*,*,#297,.F.);
#429=ORIENTED_EDGE('',*,*,#285,.T.);
#430=ORIENTED_EDGE('',*,*,#302,.T.);
#431=ORIENTED_EDGE('',*,*,#293,.T.);
#432=ORIENTED_EDGE('',*,*,#316,.T.);
#433=ORIENTED_EDGE('',*,*,#281,.T.);
#434=ORIENTED_EDGE('',*,*,#301,.T.);
#435=ORIENTED_EDGE('',*,*,#314,.T.);
#436=ORIENTED_EDGE('',*,*,#315,.T.);
#437=CYLINDRICAL_SURFACE('',#498,1.0065);
#438=CYLINDRICAL_SURFACE('',#502,1.0065);
#439=CYLINDRICAL_SURFACE('',#506,1.0065);
#440=CYLINDRICAL_SURFACE('',#510,1.0065);
#441=CYLINDRICAL_SURFACE('',#514,1.0065);
#442=CYLINDRICAL_SURFACE('',#518,1.0065);
#443=CYLINDRICAL_SURFACE('',#522,1.0065);
#444=CYLINDRICAL_SURFACE('',#526,1.0065);
#445=ADVANCED_FACE('',(#45),#437,.F.);
#446=ADVANCED_FACE('',(#46),#23,.T.);
#447=ADVANCED_FACE('',(#47),#438,.F.);
#448=ADVANCED_FACE('',(#48),#24,.T.);
#449=ADVANCED_FACE('',(#49),#439,.F.);
#450=ADVANCED_FACE('',(#50),#25,.T.);
#451=ADVANCED_FACE('',(#51),#440,.F.);
#452=ADVANCED_FACE('',(#52),#26,.T.);
#453=ADVANCED_FACE('',(#53),#441,.F.);
#454=ADVANCED_FACE('',(#54),#27,.T.);
#455=ADVANCED_FACE('',(#55),#442,.F.);
#456=ADVANCED_FACE('',(#56),#28,.T.);
#457=ADVANCED_FACE('',(#57),#443,.F.);
#458=ADVANCED_FACE('',(#58),#29,.T.);
#459=ADVANCED_FACE('',(#59),#444,.F.);
#460=ADVANCED_FACE('',(#60),#30,.T.);
#461=ADVANCED_FACE('',(#61),#31,.T.);
#462=ADVANCED_FACE('',(#62,#15,#16,#17,#18),#32,.T.);
#463=ADVANCED_FACE('',(#63),#33,.T.);
#464=ADVANCED_FACE('',(#64),#34,.F.);
#465=ADVANCED_FACE('',(#65,#19,#20,#21,#22),#35,.T.);
#466=ADVANCED_FACE('',(#66),#36,.T.);
#467=ADVANCED_FACE('',(#67),#37,.T.);
#468=ADVANCED_FACE('',(#68),#38,.T.);
#469=ADVANCED_FACE('',(#69),#39,.T.);
#470=ADVANCED_FACE('',(#70),#40,.T.);
#471=ADVANCED_FACE('',(#71),#41,.T.);
#472=ADVANCED_FACE('',(#72),#42,.T.);
#473=ADVANCED_FACE('',(#73),#43,.F.);
#474=ADVANCED_FACE('',(#74),#44,.F.);
#475=CLOSED_SHELL('',(#445,#446,#447,#448,#449,#450,#451,#452,#453,#454,
#455,#456,#457,#458,#459,#460,#461,#462,#463,#464,#465,#466,#467,#468,#469,
#470,#471,#472,#473,#474));
#476=DERIVED_UNIT_ELEMENT(#479,1.);
#477=DERIVED_UNIT_ELEMENT(#818,-3.);
#478=DIMENSIONAL_EXPONENTS(0.,1.,0.,0.,0.,0.,0.);
#479=(
CONVERSION_BASED_UNIT('gram',#481)
MASS_UNIT()
NAMED_UNIT(#478)
);
#480=(
MASS_UNIT()
NAMED_UNIT(*)
SI_UNIT(.KILO.,.GRAM.)
);
#481=MASS_MEASURE_WITH_UNIT(MASS_MEASURE(0.001),#480);
#482=DERIVED_UNIT((#476,#477));
#483=MEASURE_REPRESENTATION_ITEM('density measure',
POSITIVE_RATIO_MEASURE(2.7),#482);
#484=PROPERTY_DEFINITION_REPRESENTATION(#489,#486);
#485=PROPERTY_DEFINITION_REPRESENTATION(#490,#487);
#486=REPRESENTATION('material name',(#488),#815);
#487=REPRESENTATION('density',(#483),#815);
#488=DESCRIPTIVE_REPRESENTATION_ITEM('Aluminium 6061','Aluminium 6061');
#489=PROPERTY_DEFINITION('material property','material name',#825);
#490=PROPERTY_DEFINITION('material property','density of part',#825);
#491=DATE_TIME_ROLE('creation_date');
#492=APPLIED_DATE_AND_TIME_ASSIGNMENT(#493,#491,(#825));
#493=DATE_AND_TIME(#494,#495);
#494=CALENDAR_DATE(2025,12,6);
#495=LOCAL_TIME(0,0,0.,#496);
#496=COORDINATED_UNIVERSAL_TIME_OFFSET(0,0,.BEHIND.);
#497=AXIS2_PLACEMENT_3D('',#682,#544,#545);
#498=AXIS2_PLACEMENT_3D('',#683,#546,#547);
#499=AXIS2_PLACEMENT_3D('',#685,#548,#549);
#500=AXIS2_PLACEMENT_3D('',#688,#551,#552);
#501=AXIS2_PLACEMENT_3D('',#689,#553,#554);
#502=AXIS2_PLACEMENT_3D('',#690,#555,#556);
#503=AXIS2_PLACEMENT_3D('',#692,#557,#558);
#504=AXIS2_PLACEMENT_3D('',#695,#560,#561);
#505=AXIS2_PLACEMENT_3D('',#696,#562,#563);
#506=AXIS2_PLACEMENT_3D('',#697,#564,#565);
#507=AXIS2_PLACEMENT_3D('',#699,#566,#567);
#508=AXIS2_PLACEMENT_3D('',#702,#569,#570);
#509=AXIS2_PLACEMENT_3D('',#703,#571,#572);
#510=AXIS2_PLACEMENT_3D('',#704,#573,#574);
#511=AXIS2_PLACEMENT_3D('',#706,#575,#576);
#512=AXIS2_PLACEMENT_3D('',#709,#578,#579);
#513=AXIS2_PLACEMENT_3D('',#710,#580,#581);
#514=AXIS2_PLACEMENT_3D('',#711,#582,#583);
#515=AXIS2_PLACEMENT_3D('',#713,#584,#585);
#516=AXIS2_PLACEMENT_3D('',#716,#587,#588);
#517=AXIS2_PLACEMENT_3D('',#717,#589,#590);
#518=AXIS2_PLACEMENT_3D('',#718,#591,#592);
#519=AXIS2_PLACEMENT_3D('',#720,#593,#594);
#520=AXIS2_PLACEMENT_3D('',#723,#596,#597);
#521=AXIS2_PLACEMENT_3D('',#724,#598,#599);
#522=AXIS2_PLACEMENT_3D('',#725,#600,#601);
#523=AXIS2_PLACEMENT_3D('',#727,#602,#603);
#524=AXIS2_PLACEMENT_3D('',#730,#605,#606);
#525=AXIS2_PLACEMENT_3D('',#731,#607,#608);
#526=AXIS2_PLACEMENT_3D('',#732,#609,#610);
#527=AXIS2_PLACEMENT_3D('',#734,#611,#612);
#528=AXIS2_PLACEMENT_3D('',#737,#614,#615);
#529=AXIS2_PLACEMENT_3D('',#738,#616,#617);
#530=AXIS2_PLACEMENT_3D('',#739,#618,#619);
#531=AXIS2_PLACEMENT_3D('',#748,#624,#625);
#532=AXIS2_PLACEMENT_3D('',#765,#634,#635);
#533=AXIS2_PLACEMENT_3D('',#774,#640,#641);
#534=AXIS2_PLACEMENT_3D('',#777,#644,#645);
#535=AXIS2_PLACEMENT_3D('',#784,#650,#651);
#536=AXIS2_PLACEMENT_3D('',#790,#655,#656);
#537=AXIS2_PLACEMENT_3D('',#796,#660,#661);
#538=AXIS2_PLACEMENT_3D('',#798,#663,#664);
#539=AXIS2_PLACEMENT_3D('',#802,#667,#668);
#540=AXIS2_PLACEMENT_3D('',#804,#670,#671);
#541=AXIS2_PLACEMENT_3D('',#808,#674,#675);
#542=AXIS2_PLACEMENT_3D('',#811,#678,#679);
#543=AXIS2_PLACEMENT_3D('',#812,#680,#681);
#544=DIRECTION('axis',(0.,0.,1.));
#545=DIRECTION('refdir',(1.,0.,0.));
#546=DIRECTION('center_axis',(-1.,3.33066907387547E-16,0.));
#547=DIRECTION('ref_axis',(0.,0.,1.));
#548=DIRECTION('center_axis',(1.,-3.33066907387547E-16,0.));
#549=DIRECTION('ref_axis',(0.,0.,1.));
#550=DIRECTION('',(1.,-3.33066907387547E-16,0.));
#551=DIRECTION('center_axis',(-1.,3.33066907387547E-16,0.));
#552=DIRECTION('ref_axis',(0.,0.,1.));
#553=DIRECTION('center_axis',(-1.,3.33066907387547E-16,0.));
#554=DIRECTION('ref_axis',(0.,0.,1.));
#555=DIRECTION('center_axis',(-1.,3.33066907387547E-16,0.));
#556=DIRECTION('ref_axis',(0.,0.,1.));
#557=DIRECTION('center_axis',(1.,-3.33066907387547E-16,0.));
#558=DIRECTION('ref_axis',(0.,0.,1.));
#559=DIRECTION('',(1.,-3.33066907387547E-16,0.));
#560=DIRECTION('center_axis',(-1.,3.33066907387547E-16,0.));
#561=DIRECTION('ref_axis',(0.,0.,1.));
#562=DIRECTION('center_axis',(-1.,3.33066907387547E-16,0.));
#563=DIRECTION('ref_axis',(0.,0.,1.));
#564=DIRECTION('center_axis',(-1.,3.33066907387547E-16,0.));
#565=DIRECTION('ref_axis',(0.,0.,1.));
#566=DIRECTION('center_axis',(1.,-3.33066907387547E-16,0.));
#567=DIRECTION('ref_axis',(0.,0.,1.));
#568=DIRECTION('',(1.,-3.33066907387547E-16,0.));
#569=DIRECTION('center_axis',(-1.,3.33066907387547E-16,0.));
#570=DIRECTION('ref_axis',(0.,0.,1.));
#571=DIRECTION('center_axis',(-1.,3.33066907387547E-16,0.));
#572=DIRECTION('ref_axis',(0.,0.,1.));
#573=DIRECTION('center_axis',(-1.,3.33066907387547E-16,0.));
#574=DIRECTION('ref_axis',(0.,0.,1.));
#575=DIRECTION('center_axis',(1.,-3.33066907387547E-16,0.));
#576=DIRECTION('ref_axis',(0.,0.,1.));
#577=DIRECTION('',(1.,-3.33066907387547E-16,0.));
#578=DIRECTION('center_axis',(-1.,3.33066907387547E-16,0.));
#579=DIRECTION('ref_axis',(0.,0.,1.));
#580=DIRECTION('center_axis',(-1.,3.33066907387547E-16,0.));
#581=DIRECTION('ref_axis',(0.,0.,1.));
#582=DIRECTION('center_axis',(5.55111512312578E-17,-1.,0.));
#583=DIRECTION('ref_axis',(1.,5.55111512312578E-17,0.));
#584=DIRECTION('center_axis',(-5.55111512312578E-17,1.,0.));
#585=DIRECTION('ref_axis',(1.,5.55111512312578E-17,0.));
#586=DIRECTION('',(-5.55111512312578E-17,1.,0.));
#587=DIRECTION('center_axis',(5.55111512312578E-17,-1.,0.));
#588=DIRECTION('ref_axis',(1.,5.55111512312578E-17,0.));
#589=DIRECTION('center_axis',(5.55111512312578E-17,-1.,0.));
#590=DIRECTION('ref_axis',(1.,5.55111512312578E-17,0.));
#591=DIRECTION('center_axis',(5.55111512312578E-17,-1.,0.));
#592=DIRECTION('ref_axis',(1.,5.55111512312578E-17,0.));
#593=DIRECTION('center_axis',(-5.55111512312578E-17,1.,0.));
#594=DIRECTION('ref_axis',(1.,5.55111512312578E-17,0.));
#595=DIRECTION('',(-5.55111512312578E-17,1.,0.));
#596=DIRECTION('center_axis',(5.55111512312578E-17,-1.,0.));
#597=DIRECTION('ref_axis',(1.,5.55111512312578E-17,0.));
#598=DIRECTION('center_axis',(5.55111512312578E-17,-1.,0.));
#599=DIRECTION('ref_axis',(1.,5.55111512312578E-17,0.));
#600=DIRECTION('center_axis',(5.55111512312578E-17,-1.,0.));
#601=DIRECTION('ref_axis',(1.,5.55111512312578E-17,0.));
#602=DIRECTION('center_axis',(-5.55111512312578E-17,1.,0.));
#603=DIRECTION('ref_axis',(1.,5.55111512312578E-17,0.));
#604=DIRECTION('',(-5.55111512312578E-17,1.,0.));
#605=DIRECTION('center_axis',(5.55111512312578E-17,-1.,0.));
#606=DIRECTION('ref_axis',(1.,5.55111512312578E-17,0.));
#607=DIRECTION('center_axis',(5.55111512312578E-17,-1.,0.));
#608=DIRECTION('ref_axis',(1.,5.55111512312578E-17,0.));
#609=DIRECTION('center_axis',(5.55111512312578E-17,-1.,0.));
#610=DIRECTION('ref_axis',(1.,5.55111512312578E-17,0.));
#611=DIRECTION('center_axis',(-5.55111512312578E-17,1.,0.));
#612=DIRECTION('ref_axis',(1.,5.55111512312578E-17,0.));
#613=DIRECTION('',(-5.55111512312578E-17,1.,0.));
#614=DIRECTION('center_axis',(5.55111512312578E-17,-1.,0.));
#615=DIRECTION('ref_axis',(1.,5.55111512312578E-17,0.));
#616=DIRECTION('center_axis',(5.55111512312578E-17,-1.,0.));
#617=DIRECTION('ref_axis',(1.,5.55111512312578E-17,0.));
#618=DIRECTION('center_axis',(0.,-1.,0.));
#619=DIRECTION('ref_axis',(-1.,0.,0.));
#620=DIRECTION('',(-1.,0.,0.));
#621=DIRECTION('',(0.,0.,1.));
#622=DIRECTION('',(1.,0.,0.));
#623=DIRECTION('',(0.,0.,1.));
#624=DIRECTION('center_axis',(5.55111512312578E-17,-1.,0.));
#625=DIRECTION('ref_axis',(-1.,-5.55111512312578E-17,0.));
#626=DIRECTION('',(-1.,-5.55111512312578E-17,0.));
#627=DIRECTION('',(0.,0.,-1.));
#628=DIRECTION('',(-1.,-5.55111512312578E-17,0.));
#629=DIRECTION('',(0.,0.,1.));
#630=DIRECTION('',(-1.,-5.55111512312578E-17,0.));
#631=DIRECTION('',(0.,0.,1.));
#632=DIRECTION('',(-1.,-5.55111512312578E-17,0.));
#633=DIRECTION('',(0.,0.,1.));
#634=DIRECTION('center_axis',(0.,1.,0.));
#635=DIRECTION('ref_axis',(1.,0.,0.));
#636=DIRECTION('',(1.,0.,0.));
#637=DIRECTION('',(0.,0.,-1.));
#638=DIRECTION('',(-1.,0.,0.));
#639=DIRECTION('',(0.,0.,1.));
#640=DIRECTION('center_axis',(0.,0.,1.));
#641=DIRECTION('ref_axis',(1.,0.,0.));
#642=DIRECTION('',(-1.11022302462516E-16,-1.,0.));
#643=DIRECTION('',(3.33066907387547E-16,1.,0.));
#644=DIRECTION('center_axis',(-1.,3.33066907387547E-16,0.));
#645=DIRECTION('ref_axis',(-3.33066907387547E-16,-1.,0.));
#646=DIRECTION('',(3.33066907387547E-16,1.,0.));
#647=DIRECTION('',(0.,0.,-1.));
#648=DIRECTION('',(3.33066907387547E-16,1.,0.));
#649=DIRECTION('',(3.33066907387547E-16,1.,0.));
#650=DIRECTION('center_axis',(0.,0.,1.));
#651=DIRECTION('ref_axis',(1.,0.,0.));
#652=DIRECTION('',(-1.11022302462516E-16,-1.,0.));
#653=DIRECTION('',(1.,-5.55111512312578E-17,0.));
#654=DIRECTION('',(0.,-1.,0.));
#655=DIRECTION('center_axis',(0.,0.,1.));
#656=DIRECTION('ref_axis',(1.,0.,0.));
#657=DIRECTION('',(0.,-1.,0.));
#658=DIRECTION('',(1.,-5.55111512312578E-17,0.));
#659=DIRECTION('',(0.,1.,0.));
#660=DIRECTION('center_axis',(1.,0.,0.));
#661=DIRECTION('ref_axis',(0.,1.,0.));
#662=DIRECTION('',(0.,0.,-1.));
#663=DIRECTION('center_axis',(-1.,0.,0.));
#664=DIRECTION('ref_axis',(0.,-1.,0.));
#665=DIRECTION('',(0.,0.,1.));
#666=DIRECTION('',(0.,1.,0.));
#667=DIRECTION('center_axis',(0.,0.,1.));
#668=DIRECTION('ref_axis',(1.,0.,0.));
#669=DIRECTION('',(1.,-5.55111512312578E-17,0.));
#670=DIRECTION('center_axis',(5.55111512312578E-17,1.,0.));
#671=DIRECTION('ref_axis',(-1.,5.55111512312578E-17,0.));
#672=DIRECTION('',(0.,0.,1.));
#673=DIRECTION('',(1.,-5.55111512312578E-17,0.));
#674=DIRECTION('center_axis',(1.,-1.11022302462516E-16,0.));
#675=DIRECTION('ref_axis',(1.11022302462516E-16,1.,0.));
#676=DIRECTION('',(-1.11022302462516E-16,-1.,0.));
#677=DIRECTION('',(-1.11022302462516E-16,-1.,0.));
#678=DIRECTION('center_axis',(0.,0.,1.));
#679=DIRECTION('ref_axis',(1.,0.,0.));
#680=DIRECTION('center_axis',(0.,0.,1.));
#681=DIRECTION('ref_axis',(1.,0.,0.));
#682=CARTESIAN_POINT('',(0.,0.,0.));
#683=CARTESIAN_POINT('Origin',(-17.75,9.50000000000001,15.5));
#684=CARTESIAN_POINT('',(-20.,9.50000000000001,14.4935));
#685=CARTESIAN_POINT('Origin',(-20.,9.50000000000001,15.5));
#686=CARTESIAN_POINT('',(-15.5,9.5,14.4935));
#687=CARTESIAN_POINT('',(-17.75,9.50000000000001,14.4935));
#688=CARTESIAN_POINT('Origin',(-15.5,9.50000000000001,15.5));
#689=CARTESIAN_POINT('Origin',(-15.5,9.50000000000001,15.5));
#690=CARTESIAN_POINT('Origin',(-17.75,-9.49999999999999,15.5));
#691=CARTESIAN_POINT('',(-20.,-9.49999999999999,14.4935));
#692=CARTESIAN_POINT('Origin',(-20.,-9.49999999999999,15.5));
#693=CARTESIAN_POINT('',(-15.5,-9.49999999999999,14.4935));
#694=CARTESIAN_POINT('',(-17.75,-9.49999999999999,14.4935));
#695=CARTESIAN_POINT('Origin',(-15.5,-9.49999999999999,15.5));
#696=CARTESIAN_POINT('Origin',(-15.5,-9.49999999999999,15.5));
#697=CARTESIAN_POINT('Origin',(-17.75,5.50000000000001,15.5));
#698=CARTESIAN_POINT('',(-20.,5.50000000000001,14.4935));
#699=CARTESIAN_POINT('Origin',(-20.,5.50000000000001,15.5));
#700=CARTESIAN_POINT('',(-15.5,5.50000000000001,14.4935));
#701=CARTESIAN_POINT('',(-17.75,5.50000000000001,14.4935));
#702=CARTESIAN_POINT('Origin',(-15.5,5.50000000000001,15.5));
#703=CARTESIAN_POINT('Origin',(-15.5,5.50000000000001,15.5));
#704=CARTESIAN_POINT('Origin',(-17.75,-5.49999999999999,15.5));
#705=CARTESIAN_POINT('',(-20.,-5.49999999999999,14.4935));
#706=CARTESIAN_POINT('Origin',(-20.,-5.49999999999999,15.5));
#707=CARTESIAN_POINT('',(-15.5,-5.49999999999999,14.4935));
#708=CARTESIAN_POINT('',(-17.75,-5.49999999999999,14.4935));
#709=CARTESIAN_POINT('Origin',(-15.5,-5.49999999999999,15.5));
#710=CARTESIAN_POINT('Origin',(-15.5,-5.49999999999999,15.5));
#711=CARTESIAN_POINT('Origin',(12.,-17.75,12.4));
#712=CARTESIAN_POINT('',(10.9935,-20.,12.4));
#713=CARTESIAN_POINT('Origin',(12.,-20.,12.4));
#714=CARTESIAN_POINT('',(10.9935,-15.5,12.4));
#715=CARTESIAN_POINT('',(10.9935,-17.75,12.4));
#716=CARTESIAN_POINT('Origin',(12.,-15.5,12.4));
#717=CARTESIAN_POINT('Origin',(12.,-15.5,12.4));
#718=CARTESIAN_POINT('Origin',(-12.,-17.75,12.4));
#719=CARTESIAN_POINT('',(-13.0065,-20.,12.4));
#720=CARTESIAN_POINT('Origin',(-12.,-20.,12.4));
#721=CARTESIAN_POINT('',(-13.0065,-15.5,12.4));
#722=CARTESIAN_POINT('',(-13.0065,-17.75,12.4));
#723=CARTESIAN_POINT('Origin',(-12.,-15.5,12.4));
#724=CARTESIAN_POINT('Origin',(-12.,-15.5,12.4));
#725=CARTESIAN_POINT('Origin',(6.5,-17.75,12.4));
#726=CARTESIAN_POINT('',(5.4935,-20.,12.4));
#727=CARTESIAN_POINT('Origin',(6.5,-20.,12.4));
#728=CARTESIAN_POINT('',(5.4935,-15.5,12.4));
#729=CARTESIAN_POINT('',(5.4935,-17.75,12.4));
#730=CARTESIAN_POINT('Origin',(6.5,-15.5,12.4));
#731=CARTESIAN_POINT('Origin',(6.5,-15.5,12.4));
#732=CARTESIAN_POINT('Origin',(-6.5,-17.75,12.4));
#733=CARTESIAN_POINT('',(-7.5065,-20.,12.4));
#734=CARTESIAN_POINT('Origin',(-6.5,-20.,12.4));
#735=CARTESIAN_POINT('',(-7.5065,-15.5,12.4));
#736=CARTESIAN_POINT('',(-7.5065,-17.75,12.4));
#737=CARTESIAN_POINT('Origin',(-6.5,-15.5,12.4));
#738=CARTESIAN_POINT('Origin',(-6.5,-15.5,12.4));
#739=CARTESIAN_POINT('Origin',(20.,8.5,0.));
#740=CARTESIAN_POINT('',(20.,8.5,6.5));
#741=CARTESIAN_POINT('',(-20.,8.5,6.5));
#742=CARTESIAN_POINT('',(10.,8.5,6.5));
#743=CARTESIAN_POINT('',(20.,8.5,12.));
#744=CARTESIAN_POINT('',(20.,8.5,0.));
#745=CARTESIAN_POINT('',(-20.,8.5,12.));
#746=CARTESIAN_POINT('',(10.,8.5,12.));
#747=CARTESIAN_POINT('',(-20.,8.5,0.));
#748=CARTESIAN_POINT('Origin',(20.,-20.,0.));
#749=CARTESIAN_POINT('',(20.,-20.,6.5));
#750=CARTESIAN_POINT('',(-20.,-20.,6.5));
#751=CARTESIAN_POINT('',(10.,-20.,6.5));
#752=CARTESIAN_POINT('',(20.,-20.,18.));
#753=CARTESIAN_POINT('',(20.,-20.,0.));
#754=CARTESIAN_POINT('',(8.5,-20.,18.));
#755=CARTESIAN_POINT('',(-10.,-20.,18.));
#756=CARTESIAN_POINT('',(8.5,-20.,24.));
#757=CARTESIAN_POINT('',(8.5,-20.,0.));
#758=CARTESIAN_POINT('',(-8.5,-20.,24.));
#759=CARTESIAN_POINT('',(-4.25,-20.,24.));
#760=CARTESIAN_POINT('',(-8.5,-20.,18.));
#761=CARTESIAN_POINT('',(-8.5,-20.,0.));
#762=CARTESIAN_POINT('',(-20.,-20.,18.));
#763=CARTESIAN_POINT('',(-10.,-20.,18.));
#764=CARTESIAN_POINT('',(-20.,-20.,0.));
#765=CARTESIAN_POINT('Origin',(-20.,-8.5,0.));
#766=CARTESIAN_POINT('',(-20.,-8.5,6.5));
#767=CARTESIAN_POINT('',(20.,-8.5,6.5));
#768=CARTESIAN_POINT('',(-10.,-8.5,6.5));
#769=CARTESIAN_POINT('',(-20.,-8.5,12.));
#770=CARTESIAN_POINT('',(-20.,-8.5,0.));
#771=CARTESIAN_POINT('',(20.,-8.5,12.));
#772=CARTESIAN_POINT('',(-10.,-8.5,12.));
#773=CARTESIAN_POINT('',(20.,-8.5,0.));
#774=CARTESIAN_POINT('Origin',(0.,0.,12.));
#775=CARTESIAN_POINT('',(20.,-10.,12.));
#776=CARTESIAN_POINT('',(-20.,10.,12.));
#777=CARTESIAN_POINT('Origin',(-20.,20.,0.));
#778=CARTESIAN_POINT('',(-20.,20.,18.));
#779=CARTESIAN_POINT('',(-20.,10.,18.));
#780=CARTESIAN_POINT('',(-20.,20.,6.5));
#781=CARTESIAN_POINT('',(-20.,20.,0.));
#782=CARTESIAN_POINT('',(-20.,4.25,6.5));
#783=CARTESIAN_POINT('',(-20.,-10.,6.5));
#784=CARTESIAN_POINT('Origin',(0.,0.,18.));
#785=CARTESIAN_POINT('',(20.,20.,18.));
#786=CARTESIAN_POINT('',(20.,-10.,18.));
#787=CARTESIAN_POINT('',(8.5,20.,18.));
#788=CARTESIAN_POINT('',(10.,20.,18.));
#789=CARTESIAN_POINT('',(8.5,-10.,18.));
#790=CARTESIAN_POINT('Origin',(5.55111512312578E-16,0.,24.));
#791=CARTESIAN_POINT('',(8.5,20.,24.));
#792=CARTESIAN_POINT('',(8.5,-10.,24.));
#793=CARTESIAN_POINT('',(-8.5,20.,24.));
#794=CARTESIAN_POINT('',(4.25,20.,24.));
#795=CARTESIAN_POINT('',(-8.5,10.,24.));
#796=CARTESIAN_POINT('Origin',(8.5,-20.,0.));
#797=CARTESIAN_POINT('',(8.5,20.,0.));
#798=CARTESIAN_POINT('Origin',(-8.5,20.,0.));
#799=CARTESIAN_POINT('',(-8.5,20.,18.));
#800=CARTESIAN_POINT('',(-8.5,20.,0.));
#801=CARTESIAN_POINT('',(-8.5,10.,18.));
#802=CARTESIAN_POINT('Origin',(0.,0.,18.));
#803=CARTESIAN_POINT('',(10.,20.,18.));
#804=CARTESIAN_POINT('Origin',(20.,20.,0.));
#805=CARTESIAN_POINT('',(20.,20.,6.5));
#806=CARTESIAN_POINT('',(20.,20.,0.));
#807=CARTESIAN_POINT('',(-10.,20.,6.5));
#808=CARTESIAN_POINT('Origin',(20.,-20.,0.));
#809=CARTESIAN_POINT('',(20.,10.,6.5));
#810=CARTESIAN_POINT('',(20.,-4.25,6.5));
#811=CARTESIAN_POINT('Origin',(0.,0.,6.5));
#812=CARTESIAN_POINT('Origin',(0.,0.,6.5));
#813=UNCERTAINTY_MEASURE_WITH_UNIT(LENGTH_MEASURE(0.01),#817,
'DISTANCE_ACCURACY_VALUE',
'Maximum model space distance between geometric entities at asserted c
onnectivities');
#814=UNCERTAINTY_MEASURE_WITH_UNIT(LENGTH_MEASURE(0.01),#817,
'DISTANCE_ACCURACY_VALUE',
'Maximum model space distance between geometric entities at asserted c
onnectivities');
#815=(
GEOMETRIC_REPRESENTATION_CONTEXT(3)
GLOBAL_UNCERTAINTY_ASSIGNED_CONTEXT((#813))
GLOBAL_UNIT_ASSIGNED_CONTEXT((#817,#819,#820))
REPRESENTATION_CONTEXT('','3D')
);
#816=(
GEOMETRIC_REPRESENTATION_CONTEXT(3)
GLOBAL_UNCERTAINTY_ASSIGNED_CONTEXT((#814))
GLOBAL_UNIT_ASSIGNED_CONTEXT((#817,#819,#820))
REPRESENTATION_CONTEXT('','3D')
);
#817=(
LENGTH_UNIT()
NAMED_UNIT(*)
SI_UNIT(.MILLI.,.METRE.)
);
#818=(
LENGTH_UNIT()
NAMED_UNIT(*)
SI_UNIT(.CENTI.,.METRE.)
);
#819=(
NAMED_UNIT(*)
PLANE_ANGLE_UNIT()
SI_UNIT($,.RADIAN.)
);
#820=(
NAMED_UNIT(*)
SI_UNIT($,.STERADIAN.)
SOLID_ANGLE_UNIT()
);
#821=SHAPE_DEFINITION_REPRESENTATION(#822,#823);
#822=PRODUCT_DEFINITION_SHAPE('',$,#825);
#823=SHAPE_REPRESENTATION('',(#497),#815);
#824=PRODUCT_DEFINITION_CONTEXT('part definition',#829,'design');
#825=PRODUCT_DEFINITION('BUY - XYZ linear table - LD40 --- XY plate',
'BUY - XYZ linear table - LD40 --- XY plate',#826,#824);
#826=PRODUCT_DEFINITION_FORMATION('',$,#831);
#827=PRODUCT_RELATED_PRODUCT_CATEGORY(
'BUY - XYZ linear table - LD40 --- XY plate',
'BUY - XYZ linear table - LD40 --- XY plate',(#831));
#828=APPLICATION_PROTOCOL_DEFINITION('international standard',
'automotive_design',2009,#829);
#829=APPLICATION_CONTEXT(
'Core Data for Automotive Mechanical Design Process');
#830=PRODUCT_CONTEXT('part definition',#829,'mechanical');
#831=PRODUCT('BUY - XYZ linear table - LD40 --- XY plate',
'BUY - XYZ linear table - LD40 --- XY plate',$,(#830));
#832=PRESENTATION_STYLE_ASSIGNMENT((#833));
#833=SURFACE_STYLE_USAGE(.BOTH.,#836);
#834=SURFACE_STYLE_RENDERING_WITH_PROPERTIES($,#840,(#835));
#835=SURFACE_STYLE_TRANSPARENT(0.);
#836=SURFACE_SIDE_STYLE('',(#837,#834));
#837=SURFACE_STYLE_FILL_AREA(#838);
#838=FILL_AREA_STYLE('',(#839));
#839=FILL_AREA_STYLE_COLOUR('',#840);
#840=COLOUR_RGB('',0.270588235294118,0.270588235294118,0.270588235294118);
ENDSEC;
END-ISO-10303-21;
