ISO-10303-21;
HEADER;
/* Generated by software containing ST-Developer
 * from STEP Tools, Inc. (www.steptools.com) 
 */

FILE_DESCRIPTION(
/* description */ ('Bracket X stage'),
/* implementation_level */ '2;1');

FILE_NAME(
/* name */ 'PRT - 3023 - BKTXST.stp',
/* time_stamp */ '2026-09-22T16:29:04+02:00',
/* author */ ('benir'),
/* organization */ (''),
/* preprocessor_version */ 'ST-DEVELOPER v20',
/* originating_system */ 'Autodesk Inventor 2025',
/* authorisation */ '');

FILE_SCHEMA (('AUTOMOTIVE_DESIGN { 1 0 10303 214 3 1 1 }'));
ENDSEC;

DATA;
#10=MECHANICAL_DESIGN_GEOMETRIC_PRESENTATION_REPRESENTATION('',(#13),#567);
#11=SHAPE_REPRESENTATION_RELATIONSHIP('SRR','None',#574,#12);
#12=ADVANCED_BREP_SHAPE_REPRESENTATION('',(#14),#566);
#13=STYLED_ITEM('',(#583),#14);
#14=MANIFOLD_SOLID_BREP('Bracket',#342);
#15=CYLINDRICAL_SURFACE('',#382,1.4);
#16=CYLINDRICAL_SURFACE('',#383,1.4);
#17=FACE_BOUND('',#45,.T.);
#18=FACE_BOUND('',#46,.T.);
#19=FACE_BOUND('',#56,.T.);
#20=FACE_BOUND('',#57,.T.);
#21=CIRCLE('',#368,1.4);
#22=CIRCLE('',#369,1.4);
#23=CIRCLE('',#379,1.4);
#24=CIRCLE('',#380,1.4);
#25=FACE_OUTER_BOUND('',#42,.T.);
#26=FACE_OUTER_BOUND('',#43,.T.);
#27=FACE_OUTER_BOUND('',#44,.T.);
#28=FACE_OUTER_BOUND('',#47,.T.);
#29=FACE_OUTER_BOUND('',#48,.T.);
#30=FACE_OUTER_BOUND('',#49,.T.);
#31=FACE_OUTER_BOUND('',#50,.T.);
#32=FACE_OUTER_BOUND('',#51,.T.);
#33=FACE_OUTER_BOUND('',#52,.T.);
#34=FACE_OUTER_BOUND('',#53,.T.);
#35=FACE_OUTER_BOUND('',#54,.T.);
#36=FACE_OUTER_BOUND('',#55,.T.);
#37=FACE_OUTER_BOUND('',#58,.T.);
#38=FACE_OUTER_BOUND('',#59,.T.);
#39=FACE_OUTER_BOUND('',#60,.T.);
#40=FACE_OUTER_BOUND('',#61,.T.);
#41=FACE_OUTER_BOUND('',#62,.T.);
#42=EDGE_LOOP('',(#220,#221,#222,#223));
#43=EDGE_LOOP('',(#224,#225,#226,#227,#228,#229));
#44=EDGE_LOOP('',(#230,#231,#232,#233,#234,#235));
#45=EDGE_LOOP('',(#236));
#46=EDGE_LOOP('',(#237));
#47=EDGE_LOOP('',(#238,#239,#240,#241));
#48=EDGE_LOOP('',(#242,#243,#244,#245,#246,#247));
#49=EDGE_LOOP('',(#248,#249,#250,#251));
#50=EDGE_LOOP('',(#252,#253,#254,#255,#256,#257,#258,#259,#260));
#51=EDGE_LOOP('',(#261,#262,#263,#264));
#52=EDGE_LOOP('',(#265,#266,#267,#268));
#53=EDGE_LOOP('',(#269,#270,#271,#272));
#54=EDGE_LOOP('',(#273,#274,#275,#276));
#55=EDGE_LOOP('',(#277,#278,#279,#280,#281,#282));
#56=EDGE_LOOP('',(#283));
#57=EDGE_LOOP('',(#284));
#58=EDGE_LOOP('',(#285,#286,#287,#288));
#59=EDGE_LOOP('',(#289,#290,#291,#292));
#60=EDGE_LOOP('',(#293,#294,#295,#296));
#61=EDGE_LOOP('',(#297,#298,#299,#300));
#62=EDGE_LOOP('',(#301,#302,#303,#304,#305,#306,#307,#308,#309));
#63=LINE('',#475,#104);
#64=LINE('',#477,#105);
#65=LINE('',#479,#106);
#66=LINE('',#480,#107);
#67=LINE('',#483,#108);
#68=LINE('',#485,#109);
#69=LINE('',#487,#110);
#70=LINE('',#489,#111);
#71=LINE('',#490,#112);
#72=LINE('',#493,#113);
#73=LINE('',#495,#114);
#74=LINE('',#497,#115);
#75=LINE('',#498,#116);
#76=LINE('',#506,#117);
#77=LINE('',#507,#118);
#78=LINE('',#508,#119);
#79=LINE('',#511,#120);
#80=LINE('',#513,#121);
#81=LINE('',#515,#122);
#82=LINE('',#516,#123);
#83=LINE('',#520,#124);
#84=LINE('',#522,#125);
#85=LINE('',#524,#126);
#86=LINE('',#525,#127);
#87=LINE('',#528,#128);
#88=LINE('',#530,#129);
#89=LINE('',#532,#130);
#90=LINE('',#533,#131);
#91=LINE('',#534,#132);
#92=LINE('',#535,#133);
#93=LINE('',#538,#134);
#94=LINE('',#539,#135);
#95=LINE('',#542,#136);
#96=LINE('',#543,#137);
#97=LINE('',#546,#138);
#98=LINE('',#547,#139);
#99=LINE('',#549,#140);
#100=LINE('',#551,#141);
#101=LINE('',#558,#142);
#102=LINE('',#560,#143);
#103=LINE('',#562,#144);
#104=VECTOR('',#390,10.);
#105=VECTOR('',#391,10.);
#106=VECTOR('',#392,10.);
#107=VECTOR('',#393,10.);
#108=VECTOR('',#396,10.);
#109=VECTOR('',#397,10.);
#110=VECTOR('',#398,10.);
#111=VECTOR('',#399,10.);
#112=VECTOR('',#400,10.);
#113=VECTOR('',#403,10.);
#114=VECTOR('',#404,10.);
#115=VECTOR('',#405,10.);
#116=VECTOR('',#406,10.);
#117=VECTOR('',#413,10.);
#118=VECTOR('',#414,10.);
#119=VECTOR('',#415,10.);
#120=VECTOR('',#418,10.);
#121=VECTOR('',#419,10.);
#122=VECTOR('',#420,10.);
#123=VECTOR('',#421,10.);
#124=VECTOR('',#424,10.);
#125=VECTOR('',#425,10.);
#126=VECTOR('',#426,10.);
#127=VECTOR('',#427,10.);
#128=VECTOR('',#430,10.);
#129=VECTOR('',#431,10.);
#130=VECTOR('',#432,10.);
#131=VECTOR('',#433,10.);
#132=VECTOR('',#434,10.);
#133=VECTOR('',#435,10.);
#134=VECTOR('',#438,10.);
#135=VECTOR('',#439,10.);
#136=VECTOR('',#442,10.);
#137=VECTOR('',#443,10.);
#138=VECTOR('',#446,10.);
#139=VECTOR('',#447,10.);
#140=VECTOR('',#450,10.);
#141=VECTOR('',#453,10.);
#142=VECTOR('',#462,1.4);
#143=VECTOR('',#465,1.4);
#144=VECTOR('',#468,10.);
#145=VERTEX_POINT('',#473);
#146=VERTEX_POINT('',#474);
#147=VERTEX_POINT('',#476);
#148=VERTEX_POINT('',#478);
#149=VERTEX_POINT('',#482);
#150=VERTEX_POINT('',#484);
#151=VERTEX_POINT('',#486);
#152=VERTEX_POINT('',#488);
#153=VERTEX_POINT('',#492);
#154=VERTEX_POINT('',#494);
#155=VERTEX_POINT('',#496);
#156=VERTEX_POINT('',#499);
#157=VERTEX_POINT('',#501);
#158=VERTEX_POINT('',#504);
#159=VERTEX_POINT('',#505);
#160=VERTEX_POINT('',#510);
#161=VERTEX_POINT('',#512);
#162=VERTEX_POINT('',#514);
#163=VERTEX_POINT('',#518);
#164=VERTEX_POINT('',#519);
#165=VERTEX_POINT('',#521);
#166=VERTEX_POINT('',#523);
#167=VERTEX_POINT('',#527);
#168=VERTEX_POINT('',#529);
#169=VERTEX_POINT('',#531);
#170=VERTEX_POINT('',#537);
#171=VERTEX_POINT('',#541);
#172=VERTEX_POINT('',#545);
#173=VERTEX_POINT('',#552);
#174=VERTEX_POINT('',#554);
#175=EDGE_CURVE('',#145,#146,#63,.T.);
#176=EDGE_CURVE('',#146,#147,#64,.T.);
#177=EDGE_CURVE('',#147,#148,#65,.T.);
#178=EDGE_CURVE('',#148,#145,#66,.T.);
#179=EDGE_CURVE('',#149,#148,#67,.T.);
#180=EDGE_CURVE('',#149,#150,#68,.T.);
#181=EDGE_CURVE('',#150,#151,#69,.T.);
#182=EDGE_CURVE('',#152,#151,#70,.T.);
#183=EDGE_CURVE('',#152,#145,#71,.T.);
#184=EDGE_CURVE('',#147,#153,#72,.T.);
#185=EDGE_CURVE('',#154,#153,#73,.T.);
#186=EDGE_CURVE('',#154,#155,#74,.T.);
#187=EDGE_CURVE('',#155,#149,#75,.T.);
#188=EDGE_CURVE('',#156,#156,#21,.T.);
#189=EDGE_CURVE('',#157,#157,#22,.T.);
#190=EDGE_CURVE('',#158,#159,#76,.T.);
#191=EDGE_CURVE('',#159,#154,#77,.T.);
#192=EDGE_CURVE('',#153,#158,#78,.T.);
#193=EDGE_CURVE('',#159,#160,#79,.T.);
#194=EDGE_CURVE('',#160,#161,#80,.T.);
#195=EDGE_CURVE('',#162,#161,#81,.T.);
#196=EDGE_CURVE('',#155,#162,#82,.T.);
#197=EDGE_CURVE('',#163,#164,#83,.T.);
#198=EDGE_CURVE('',#164,#165,#84,.T.);
#199=EDGE_CURVE('',#165,#166,#85,.T.);
#200=EDGE_CURVE('',#166,#163,#86,.T.);
#201=EDGE_CURVE('',#167,#165,#87,.T.);
#202=EDGE_CURVE('',#168,#167,#88,.T.);
#203=EDGE_CURVE('',#168,#169,#89,.T.);
#204=EDGE_CURVE('',#161,#169,#90,.T.);
#205=EDGE_CURVE('',#160,#152,#91,.T.);
#206=EDGE_CURVE('',#151,#166,#92,.T.);
#207=EDGE_CURVE('',#164,#170,#93,.T.);
#208=EDGE_CURVE('',#167,#170,#94,.T.);
#209=EDGE_CURVE('',#170,#171,#95,.T.);
#210=EDGE_CURVE('',#171,#168,#96,.T.);
#211=EDGE_CURVE('',#172,#162,#97,.T.);
#212=EDGE_CURVE('',#169,#172,#98,.T.);
#213=EDGE_CURVE('',#150,#163,#99,.T.);
#214=EDGE_CURVE('',#146,#158,#100,.T.);
#215=EDGE_CURVE('',#173,#173,#23,.T.);
#216=EDGE_CURVE('',#174,#174,#24,.T.);
#217=EDGE_CURVE('',#156,#174,#101,.T.);
#218=EDGE_CURVE('',#157,#173,#102,.T.);
#219=EDGE_CURVE('',#172,#171,#103,.T.);
#220=ORIENTED_EDGE('',*,*,#175,.T.);
#221=ORIENTED_EDGE('',*,*,#176,.T.);
#222=ORIENTED_EDGE('',*,*,#177,.T.);
#223=ORIENTED_EDGE('',*,*,#178,.T.);
#224=ORIENTED_EDGE('',*,*,#178,.F.);
#225=ORIENTED_EDGE('',*,*,#179,.F.);
#226=ORIENTED_EDGE('',*,*,#180,.T.);
#227=ORIENTED_EDGE('',*,*,#181,.T.);
#228=ORIENTED_EDGE('',*,*,#182,.F.);
#229=ORIENTED_EDGE('',*,*,#183,.T.);
#230=ORIENTED_EDGE('',*,*,#177,.F.);
#231=ORIENTED_EDGE('',*,*,#184,.T.);
#232=ORIENTED_EDGE('',*,*,#185,.F.);
#233=ORIENTED_EDGE('',*,*,#186,.T.);
#234=ORIENTED_EDGE('',*,*,#187,.T.);
#235=ORIENTED_EDGE('',*,*,#179,.T.);
#236=ORIENTED_EDGE('',*,*,#188,.F.);
#237=ORIENTED_EDGE('',*,*,#189,.F.);
#238=ORIENTED_EDGE('',*,*,#190,.T.);
#239=ORIENTED_EDGE('',*,*,#191,.T.);
#240=ORIENTED_EDGE('',*,*,#185,.T.);
#241=ORIENTED_EDGE('',*,*,#192,.T.);
#242=ORIENTED_EDGE('',*,*,#191,.F.);
#243=ORIENTED_EDGE('',*,*,#193,.T.);
#244=ORIENTED_EDGE('',*,*,#194,.T.);
#245=ORIENTED_EDGE('',*,*,#195,.F.);
#246=ORIENTED_EDGE('',*,*,#196,.F.);
#247=ORIENTED_EDGE('',*,*,#186,.F.);
#248=ORIENTED_EDGE('',*,*,#197,.T.);
#249=ORIENTED_EDGE('',*,*,#198,.T.);
#250=ORIENTED_EDGE('',*,*,#199,.T.);
#251=ORIENTED_EDGE('',*,*,#200,.T.);
#252=ORIENTED_EDGE('',*,*,#199,.F.);
#253=ORIENTED_EDGE('',*,*,#201,.F.);
#254=ORIENTED_EDGE('',*,*,#202,.F.);
#255=ORIENTED_EDGE('',*,*,#203,.T.);
#256=ORIENTED_EDGE('',*,*,#204,.F.);
#257=ORIENTED_EDGE('',*,*,#194,.F.);
#258=ORIENTED_EDGE('',*,*,#205,.T.);
#259=ORIENTED_EDGE('',*,*,#182,.T.);
#260=ORIENTED_EDGE('',*,*,#206,.T.);
#261=ORIENTED_EDGE('',*,*,#198,.F.);
#262=ORIENTED_EDGE('',*,*,#207,.T.);
#263=ORIENTED_EDGE('',*,*,#208,.F.);
#264=ORIENTED_EDGE('',*,*,#201,.T.);
#265=ORIENTED_EDGE('',*,*,#202,.T.);
#266=ORIENTED_EDGE('',*,*,#208,.T.);
#267=ORIENTED_EDGE('',*,*,#209,.T.);
#268=ORIENTED_EDGE('',*,*,#210,.T.);
#269=ORIENTED_EDGE('',*,*,#211,.T.);
#270=ORIENTED_EDGE('',*,*,#195,.T.);
#271=ORIENTED_EDGE('',*,*,#204,.T.);
#272=ORIENTED_EDGE('',*,*,#212,.T.);
#273=ORIENTED_EDGE('',*,*,#200,.F.);
#274=ORIENTED_EDGE('',*,*,#206,.F.);
#275=ORIENTED_EDGE('',*,*,#181,.F.);
#276=ORIENTED_EDGE('',*,*,#213,.T.);
#277=ORIENTED_EDGE('',*,*,#175,.F.);
#278=ORIENTED_EDGE('',*,*,#183,.F.);
#279=ORIENTED_EDGE('',*,*,#205,.F.);
#280=ORIENTED_EDGE('',*,*,#193,.F.);
#281=ORIENTED_EDGE('',*,*,#190,.F.);
#282=ORIENTED_EDGE('',*,*,#214,.F.);
#283=ORIENTED_EDGE('',*,*,#215,.T.);
#284=ORIENTED_EDGE('',*,*,#216,.T.);
#285=ORIENTED_EDGE('',*,*,#176,.F.);
#286=ORIENTED_EDGE('',*,*,#214,.T.);
#287=ORIENTED_EDGE('',*,*,#192,.F.);
#288=ORIENTED_EDGE('',*,*,#184,.F.);
#289=ORIENTED_EDGE('',*,*,#188,.T.);
#290=ORIENTED_EDGE('',*,*,#217,.T.);
#291=ORIENTED_EDGE('',*,*,#216,.F.);
#292=ORIENTED_EDGE('',*,*,#217,.F.);
#293=ORIENTED_EDGE('',*,*,#189,.T.);
#294=ORIENTED_EDGE('',*,*,#218,.T.);
#295=ORIENTED_EDGE('',*,*,#215,.F.);
#296=ORIENTED_EDGE('',*,*,#218,.F.);
#297=ORIENTED_EDGE('',*,*,#210,.F.);
#298=ORIENTED_EDGE('',*,*,#219,.F.);
#299=ORIENTED_EDGE('',*,*,#212,.F.);
#300=ORIENTED_EDGE('',*,*,#203,.F.);
#301=ORIENTED_EDGE('',*,*,#197,.F.);
#302=ORIENTED_EDGE('',*,*,#213,.F.);
#303=ORIENTED_EDGE('',*,*,#180,.F.);
#304=ORIENTED_EDGE('',*,*,#187,.F.);
#305=ORIENTED_EDGE('',*,*,#196,.T.);
#306=ORIENTED_EDGE('',*,*,#211,.F.);
#307=ORIENTED_EDGE('',*,*,#219,.T.);
#308=ORIENTED_EDGE('',*,*,#209,.F.);
#309=ORIENTED_EDGE('',*,*,#207,.F.);
#310=PLANE('',#365);
#311=PLANE('',#366);
#312=PLANE('',#367);
#313=PLANE('',#370);
#314=PLANE('',#371);
#315=PLANE('',#372);
#316=PLANE('',#373);
#317=PLANE('',#374);
#318=PLANE('',#375);
#319=PLANE('',#376);
#320=PLANE('',#377);
#321=PLANE('',#378);
#322=PLANE('',#381);
#323=PLANE('',#384);
#324=PLANE('',#385);
#325=ADVANCED_FACE('',(#25),#310,.T.);
#326=ADVANCED_FACE('',(#26),#311,.F.);
#327=ADVANCED_FACE('',(#27,#17,#18),#312,.T.);
#328=ADVANCED_FACE('',(#28),#313,.T.);
#329=ADVANCED_FACE('',(#29),#314,.F.);
#330=ADVANCED_FACE('',(#30),#315,.T.);
#331=ADVANCED_FACE('',(#31),#316,.F.);
#332=ADVANCED_FACE('',(#32),#317,.T.);
#333=ADVANCED_FACE('',(#33),#318,.T.);
#334=ADVANCED_FACE('',(#34),#319,.T.);
#335=ADVANCED_FACE('',(#35),#320,.T.);
#336=ADVANCED_FACE('',(#36,#19,#20),#321,.F.);
#337=ADVANCED_FACE('',(#37),#322,.F.);
#338=ADVANCED_FACE('',(#38),#15,.F.);
#339=ADVANCED_FACE('',(#39),#16,.F.);
#340=ADVANCED_FACE('',(#40),#323,.F.);
#341=ADVANCED_FACE('',(#41),#324,.F.);
#342=CLOSED_SHELL('',(#325,#326,#327,#328,#329,#330,#331,#332,#333,#334,
#335,#336,#337,#338,#339,#340,#341));
#343=DERIVED_UNIT_ELEMENT(#346,1.);
#344=DERIVED_UNIT_ELEMENT(#569,-3.);
#345=DIMENSIONAL_EXPONENTS(0.,1.,0.,0.,0.,0.,0.);
#346=(
CONVERSION_BASED_UNIT('gram',#348)
MASS_UNIT()
NAMED_UNIT(#345)
);
#347=(
MASS_UNIT()
NAMED_UNIT(*)
SI_UNIT(.KILO.,.GRAM.)
);
#348=MASS_MEASURE_WITH_UNIT(MASS_MEASURE(0.001),#347);
#349=DERIVED_UNIT((#343,#344));
#350=MEASURE_REPRESENTATION_ITEM('density measure',
POSITIVE_RATIO_MEASURE(2.7),#349);
#351=PROPERTY_DEFINITION_REPRESENTATION(#356,#353);
#352=PROPERTY_DEFINITION_REPRESENTATION(#357,#354);
#353=REPRESENTATION('material name',(#355),#566);
#354=REPRESENTATION('density',(#350),#566);
#355=DESCRIPTIVE_REPRESENTATION_ITEM('EN AW-6082 T6 / T651 (AlMgSi1)',
'EN AW-6082 T6 / T651 (AlMgSi1)');
#356=PROPERTY_DEFINITION('material property','material name',#576);
#357=PROPERTY_DEFINITION('material property','density of part',#576);
#358=DATE_TIME_ROLE('creation_date');
#359=APPLIED_DATE_AND_TIME_ASSIGNMENT(#360,#358,(#576));
#360=DATE_AND_TIME(#361,#362);
#361=CALENDAR_DATE(2025,12,6);
#362=LOCAL_TIME(0,0,0.,#363);
#363=COORDINATED_UNIVERSAL_TIME_OFFSET(0,0,.BEHIND.);
#364=AXIS2_PLACEMENT_3D('',#471,#386,#387);
#365=AXIS2_PLACEMENT_3D('',#472,#388,#389);
#366=AXIS2_PLACEMENT_3D('',#481,#394,#395);
#367=AXIS2_PLACEMENT_3D('',#491,#401,#402);
#368=AXIS2_PLACEMENT_3D('',#500,#407,#408);
#369=AXIS2_PLACEMENT_3D('',#502,#409,#410);
#370=AXIS2_PLACEMENT_3D('',#503,#411,#412);
#371=AXIS2_PLACEMENT_3D('',#509,#416,#417);
#372=AXIS2_PLACEMENT_3D('',#517,#422,#423);
#373=AXIS2_PLACEMENT_3D('',#526,#428,#429);
#374=AXIS2_PLACEMENT_3D('',#536,#436,#437);
#375=AXIS2_PLACEMENT_3D('',#540,#440,#441);
#376=AXIS2_PLACEMENT_3D('',#544,#444,#445);
#377=AXIS2_PLACEMENT_3D('',#548,#448,#449);
#378=AXIS2_PLACEMENT_3D('',#550,#451,#452);
#379=AXIS2_PLACEMENT_3D('',#553,#454,#455);
#380=AXIS2_PLACEMENT_3D('',#555,#456,#457);
#381=AXIS2_PLACEMENT_3D('',#556,#458,#459);
#382=AXIS2_PLACEMENT_3D('',#557,#460,#461);
#383=AXIS2_PLACEMENT_3D('',#559,#463,#464);
#384=AXIS2_PLACEMENT_3D('',#561,#466,#467);
#385=AXIS2_PLACEMENT_3D('',#563,#469,#470);
#386=DIRECTION('axis',(0.,0.,1.));
#387=DIRECTION('refdir',(1.,0.,0.));
#388=DIRECTION('center_axis',(-0.707106781186548,0.,-0.707106781186548));
#389=DIRECTION('ref_axis',(-0.707106781186548,0.,0.707106781186548));
#390=DIRECTION('',(-0.707106781186548,-6.54205191118239E-17,0.707106781186548));
#391=DIRECTION('',(0.,1.,0.));
#392=DIRECTION('',(0.707106781186548,-3.92523114670944E-17,-0.707106781186548));
#393=DIRECTION('',(0.,-1.,0.));
#394=DIRECTION('center_axis',(0.,0.,1.));
#395=DIRECTION('ref_axis',(-1.,5.55111512312578E-17,0.));
#396=DIRECTION('',(-1.,5.55111512312578E-17,0.));
#397=DIRECTION('',(0.,-1.,0.));
#398=DIRECTION('',(-1.,0.,0.));
#399=DIRECTION('',(0.,-1.,0.));
#400=DIRECTION('',(-1.,-9.25185853854297E-17,0.));
#401=DIRECTION('center_axis',(5.55111512312578E-17,1.,0.));
#402=DIRECTION('ref_axis',(0.,0.,-1.));
#403=DIRECTION('',(0.,0.,1.));
#404=DIRECTION('',(-0.707106781186547,3.92523114670943E-17,-0.707106781186548));
#405=DIRECTION('',(1.,-5.55111512312578E-17,0.));
#406=DIRECTION('',(0.,0.,-1.));
#407=DIRECTION('center_axis',(5.55111512312578E-17,1.,0.));
#408=DIRECTION('ref_axis',(-1.,5.55111512312578E-17,0.));
#409=DIRECTION('center_axis',(5.55111512312578E-17,1.,0.));
#410=DIRECTION('ref_axis',(-1.,5.55111512312578E-17,0.));
#411=DIRECTION('center_axis',(-0.707106781186548,0.,0.707106781186547));
#412=DIRECTION('ref_axis',(0.707106781186547,0.,0.707106781186548));
#413=DIRECTION('',(0.707106781186547,6.54205191118239E-17,0.707106781186548));
#414=DIRECTION('',(0.,1.,0.));
#415=DIRECTION('',(0.,-1.,0.));
#416=DIRECTION('center_axis',(0.,0.,-1.));
#417=DIRECTION('ref_axis',(1.,-5.55111512312578E-17,0.));
#418=DIRECTION('',(1.,9.25185853854297E-17,0.));
#419=DIRECTION('',(0.,-1.,0.));
#420=DIRECTION('',(-1.,0.,0.));
#421=DIRECTION('',(0.,-1.,0.));
#422=DIRECTION('center_axis',(0.,0.707106781186547,-0.707106781186548));
#423=DIRECTION('ref_axis',(-1.,0.,0.));
#424=DIRECTION('',(0.,-0.707106781186548,-0.707106781186547));
#425=DIRECTION('',(-1.,0.,0.));
#426=DIRECTION('',(0.,0.707106781186548,0.707106781186547));
#427=DIRECTION('',(1.,0.,0.));
#428=DIRECTION('center_axis',(1.,0.,0.));
#429=DIRECTION('ref_axis',(0.,0.,1.));
#430=DIRECTION('',(3.70074341541719E-16,1.,0.));
#431=DIRECTION('',(0.,0.707106781186548,-0.707106781186547));
#432=DIRECTION('',(0.,0.,1.));
#433=DIRECTION('',(0.,-0.707106781186548,-0.707106781186548));
#434=DIRECTION('',(0.,0.,-1.));
#435=DIRECTION('',(0.,0.,-1.));
#436=DIRECTION('center_axis',(0.,0.,-1.));
#437=DIRECTION('ref_axis',(-1.,0.,0.));
#438=DIRECTION('',(0.,-1.,0.));
#439=DIRECTION('',(1.,0.,0.));
#440=DIRECTION('center_axis',(0.,-0.707106781186547,-0.707106781186548));
#441=DIRECTION('ref_axis',(-1.,0.,0.));
#442=DIRECTION('',(0.,-0.707106781186548,0.707106781186547));
#443=DIRECTION('',(-1.,0.,0.));
#444=DIRECTION('center_axis',(0.,-0.707106781186548,0.707106781186548));
#445=DIRECTION('ref_axis',(1.,0.,0.));
#446=DIRECTION('',(0.,0.707106781186548,0.707106781186548));
#447=DIRECTION('',(1.,0.,0.));
#448=DIRECTION('center_axis',(0.,1.,0.));
#449=DIRECTION('ref_axis',(1.,0.,0.));
#450=DIRECTION('',(0.,0.,-1.));
#451=DIRECTION('center_axis',(-9.25185853854297E-17,1.,0.));
#452=DIRECTION('ref_axis',(1.,9.25185853854297E-17,0.));
#453=DIRECTION('',(0.,0.,1.));
#454=DIRECTION('center_axis',(0.,1.,0.));
#455=DIRECTION('ref_axis',(-1.,5.55111512312578E-17,0.));
#456=DIRECTION('center_axis',(0.,1.,0.));
#457=DIRECTION('ref_axis',(-1.,5.55111512312578E-17,0.));
#458=DIRECTION('center_axis',(1.,0.,0.));
#459=DIRECTION('ref_axis',(0.,0.,1.));
#460=DIRECTION('center_axis',(5.55111512312578E-17,1.,0.));
#461=DIRECTION('ref_axis',(-1.,5.55111512312578E-17,0.));
#462=DIRECTION('',(-5.55111512312578E-17,-1.,0.));
#463=DIRECTION('center_axis',(5.55111512312578E-17,1.,0.));
#464=DIRECTION('ref_axis',(-1.,5.55111512312578E-17,0.));
#465=DIRECTION('',(-5.55111512312578E-17,-1.,0.));
#466=DIRECTION('center_axis',(0.,1.,0.));
#467=DIRECTION('ref_axis',(0.,0.,-1.));
#468=DIRECTION('',(0.,0.,-1.));
#469=DIRECTION('center_axis',(-1.,0.,0.));
#470=DIRECTION('ref_axis',(0.,0.,-1.));
#471=CARTESIAN_POINT('',(0.,0.,0.));
#472=CARTESIAN_POINT('Origin',(4.2,-20.,8.9));
#473=CARTESIAN_POINT('',(4.7,-24.,8.4));
#474=CARTESIAN_POINT('',(3.7,-24.,9.4));
#475=CARTESIAN_POINT('',(2.2,-24.,10.9));
#476=CARTESIAN_POINT('',(3.7,-20.,9.4));
#477=CARTESIAN_POINT('',(3.7,-20.,9.4));
#478=CARTESIAN_POINT('',(4.7,-20.,8.4));
#479=CARTESIAN_POINT('',(5.2,-20.,7.9));
#480=CARTESIAN_POINT('',(4.7,-20.,8.4));
#481=CARTESIAN_POINT('Origin',(19.2,-20.,8.4));
#482=CARTESIAN_POINT('',(18.7,-20.,8.4));
#483=CARTESIAN_POINT('',(19.2,-20.,8.4));
#484=CARTESIAN_POINT('',(18.7,-28.,8.4));
#485=CARTESIAN_POINT('',(18.7,-20.,8.4));
#486=CARTESIAN_POINT('',(14.7,-28.,8.4));
#487=CARTESIAN_POINT('',(17.2,-28.,8.4));
#488=CARTESIAN_POINT('',(14.7,-24.,8.4));
#489=CARTESIAN_POINT('',(14.7,-20.,8.4));
#490=CARTESIAN_POINT('',(11.2,-24.,8.4));
#491=CARTESIAN_POINT('Origin',(11.2,-20.,12.4));
#492=CARTESIAN_POINT('',(3.7,-20.,15.4));
#493=CARTESIAN_POINT('',(3.7,-20.,8.4));
#494=CARTESIAN_POINT('',(4.7,-20.,16.4));
#495=CARTESIAN_POINT('',(5.2,-20.,16.9));
#496=CARTESIAN_POINT('',(18.7,-20.,16.4));
#497=CARTESIAN_POINT('',(3.2,-20.,16.4));
#498=CARTESIAN_POINT('',(18.7,-20.,16.4));
#499=CARTESIAN_POINT('',(13.4,-20.,12.4));
#500=CARTESIAN_POINT('Origin',(12.,-20.,12.4));
#501=CARTESIAN_POINT('',(7.9,-20.,12.4));
#502=CARTESIAN_POINT('Origin',(6.5,-20.,12.4));
#503=CARTESIAN_POINT('Origin',(4.2,-20.,15.9));
#504=CARTESIAN_POINT('',(3.7,-24.,15.4));
#505=CARTESIAN_POINT('',(4.7,-24.,16.4));
#506=CARTESIAN_POINT('',(4.2,-24.,15.9));
#507=CARTESIAN_POINT('',(4.7,-20.,16.4));
#508=CARTESIAN_POINT('',(3.7,-20.,15.4));
#509=CARTESIAN_POINT('Origin',(3.2,-20.,16.4));
#510=CARTESIAN_POINT('',(14.7,-24.,16.4));
#511=CARTESIAN_POINT('',(3.2,-24.,16.4));
#512=CARTESIAN_POINT('',(14.7,-31.,16.4));
#513=CARTESIAN_POINT('',(14.7,-20.,16.4));
#514=CARTESIAN_POINT('',(18.7,-31.,16.4));
#515=CARTESIAN_POINT('',(10.2,-31.,16.4));
#516=CARTESIAN_POINT('',(18.7,-20.,16.4));
#517=CARTESIAN_POINT('Origin',(16.2,-28.5,4.9));
#518=CARTESIAN_POINT('',(18.7,-28.,5.4));
#519=CARTESIAN_POINT('',(18.7,-29.,4.4));
#520=CARTESIAN_POINT('',(18.7,-23.5,9.9));
#521=CARTESIAN_POINT('',(14.7,-29.,4.4));
#522=CARTESIAN_POINT('',(16.2,-29.,4.4));
#523=CARTESIAN_POINT('',(14.7,-28.,5.4));
#524=CARTESIAN_POINT('',(14.7,-25.5,7.9));
#525=CARTESIAN_POINT('',(16.2,-28.,5.4));
#526=CARTESIAN_POINT('Origin',(14.7,-20.,8.4));
#527=CARTESIAN_POINT('',(14.7,-33.,4.4));
#528=CARTESIAN_POINT('',(14.7,-34.,4.4));
#529=CARTESIAN_POINT('',(14.7,-34.,5.4));
#530=CARTESIAN_POINT('',(14.7,-31.,2.4));
#531=CARTESIAN_POINT('',(14.7,-34.,13.4));
#532=CARTESIAN_POINT('',(14.7,-34.,8.4));
#533=CARTESIAN_POINT('',(14.7,-31.,16.4));
#534=CARTESIAN_POINT('',(14.7,-24.,16.4));
#535=CARTESIAN_POINT('',(14.7,-28.,8.4));
#536=CARTESIAN_POINT('Origin',(17.2,-31.,4.4));
#537=CARTESIAN_POINT('',(18.7,-33.,4.4));
#538=CARTESIAN_POINT('',(18.7,-20.,4.4));
#539=CARTESIAN_POINT('',(17.2,-33.,4.4));
#540=CARTESIAN_POINT('Origin',(17.2,-33.5,4.9));
#541=CARTESIAN_POINT('',(18.7,-34.,5.4));
#542=CARTESIAN_POINT('',(18.7,-33.,4.4));
#543=CARTESIAN_POINT('',(17.2,-34.,5.4));
#544=CARTESIAN_POINT('Origin',(10.2,-32.5,14.9));
#545=CARTESIAN_POINT('',(18.7,-34.,13.4));
#546=CARTESIAN_POINT('',(18.7,-29.,18.4));
#547=CARTESIAN_POINT('',(10.2,-34.,13.4));
#548=CARTESIAN_POINT('Origin',(15.2,-28.,8.4));
#549=CARTESIAN_POINT('',(18.7,-28.,8.4));
#550=CARTESIAN_POINT('Origin',(3.19999999999999,-24.,16.4));
#551=CARTESIAN_POINT('',(3.7,-24.,12.4));
#552=CARTESIAN_POINT('',(7.9,-24.,12.4));
#553=CARTESIAN_POINT('Origin',(6.5,-24.,12.4));
#554=CARTESIAN_POINT('',(13.4,-24.,12.4));
#555=CARTESIAN_POINT('Origin',(12.,-24.,12.4));
#556=CARTESIAN_POINT('Origin',(3.7,-20.,8.4));
#557=CARTESIAN_POINT('Origin',(12.,-45.377155080899,12.4));
#558=CARTESIAN_POINT('',(13.4,-45.377155080899,12.4));
#559=CARTESIAN_POINT('Origin',(6.5,-45.377155080899,12.4));
#560=CARTESIAN_POINT('',(7.9,-45.377155080899,12.4));
#561=CARTESIAN_POINT('Origin',(17.2,-34.,12.4));
#562=CARTESIAN_POINT('',(18.7,-34.,8.4));
#563=CARTESIAN_POINT('Origin',(18.7,-20.,16.4));
#564=UNCERTAINTY_MEASURE_WITH_UNIT(LENGTH_MEASURE(0.01),#568,
'DISTANCE_ACCURACY_VALUE',
'Maximum model space distance between geometric entities at asserted c
onnectivities');
#565=UNCERTAINTY_MEASURE_WITH_UNIT(LENGTH_MEASURE(0.01),#568,
'DISTANCE_ACCURACY_VALUE',
'Maximum model space distance between geometric entities at asserted c
onnectivities');
#566=(
GEOMETRIC_REPRESENTATION_CONTEXT(3)
GLOBAL_UNCERTAINTY_ASSIGNED_CONTEXT((#564))
GLOBAL_UNIT_ASSIGNED_CONTEXT((#568,#570,#571))
REPRESENTATION_CONTEXT('','3D')
);
#567=(
GEOMETRIC_REPRESENTATION_CONTEXT(3)
GLOBAL_UNCERTAINTY_ASSIGNED_CONTEXT((#565))
GLOBAL_UNIT_ASSIGNED_CONTEXT((#568,#570,#571))
REPRESENTATION_CONTEXT('','3D')
);
#568=(
LENGTH_UNIT()
NAMED_UNIT(*)
SI_UNIT(.MILLI.,.METRE.)
);
#569=(
LENGTH_UNIT()
NAMED_UNIT(*)
SI_UNIT(.CENTI.,.METRE.)
);
#570=(
NAMED_UNIT(*)
PLANE_ANGLE_UNIT()
SI_UNIT($,.RADIAN.)
);
#571=(
NAMED_UNIT(*)
SI_UNIT($,.STERADIAN.)
SOLID_ANGLE_UNIT()
);
#572=SHAPE_DEFINITION_REPRESENTATION(#573,#574);
#573=PRODUCT_DEFINITION_SHAPE('',$,#576);
#574=SHAPE_REPRESENTATION('',(#364),#566);
#575=PRODUCT_DEFINITION_CONTEXT('part definition',#580,'design');
#576=PRODUCT_DEFINITION('PRT - 3023 - BKTXST','PRT - 3023 - BKTXST',#577,
#575);
#577=PRODUCT_DEFINITION_FORMATION('',$,#582);
#578=PRODUCT_RELATED_PRODUCT_CATEGORY('PRT - 3023 - BKTXST',
'PRT - 3023 - BKTXST',(#582));
#579=APPLICATION_PROTOCOL_DEFINITION('international standard',
'automotive_design',2009,#580);
#580=APPLICATION_CONTEXT(
'Core Data for Automotive Mechanical Design Process');
#581=PRODUCT_CONTEXT('part definition',#580,'mechanical');
#582=PRODUCT('PRT - 3023 - BKTXST','PRT - 3023 - BKTXST',
'Bracket X stage',(#581));
#583=PRESENTATION_STYLE_ASSIGNMENT((#584));
#584=SURFACE_STYLE_USAGE(.BOTH.,#587);
#585=SURFACE_STYLE_RENDERING_WITH_PROPERTIES($,#591,(#586));
#586=SURFACE_STYLE_TRANSPARENT(0.);
#587=SURFACE_SIDE_STYLE('',(#588,#585));
#588=SURFACE_STYLE_FILL_AREA(#589);
#589=FILL_AREA_STYLE('',(#590));
#590=FILL_AREA_STYLE_COLOUR('',#591);
#591=COLOUR_RGB('',0.996078431372549,0.996078431372549,1.);
ENDSEC;
END-ISO-10303-21;
