ISO-10303-21;
HEADER;
/* Generated by software containing ST-Developer
 * from STEP Tools, Inc. (www.steptools.com) 
 */

FILE_DESCRIPTION(
/* description */ ('Motor holder Y stage'),
/* implementation_level */ '2;1');

FILE_NAME(
/* name */ 'PRT - 3022 - MOTHOLYST.stp',
/* time_stamp */ '2026-09-22T16:29:53+02:00',
/* author */ ('benir'),
/* organization */ (''),
/* preprocessor_version */ 'ST-DEVELOPER v20',
/* originating_system */ 'Autodesk Inventor 2025',
/* authorisation */ '');

FILE_SCHEMA (('AUTOMOTIVE_DESIGN { 1 0 10303 214 3 1 1 }'));
ENDSEC;

DATA;
#10=MECHANICAL_DESIGN_GEOMETRIC_PRESENTATION_REPRESENTATION('',(#13),#1057);
#11=SHAPE_REPRESENTATION_RELATIONSHIP('SRR','None',#1064,#12);
#12=ADVANCED_BREP_SHAPE_REPRESENTATION('',(#14),#1056);
#13=STYLED_ITEM('',(#1073),#14);
#14=MANIFOLD_SOLID_BREP('Motor holder self Y',#640);
#15=CYLINDRICAL_SURFACE('',#690,1.0065);
#16=CYLINDRICAL_SURFACE('',#695,2.75);
#17=CYLINDRICAL_SURFACE('',#696,1.45);
#18=CYLINDRICAL_SURFACE('',#698,4.5);
#19=CYLINDRICAL_SURFACE('',#699,4.5);
#20=CYLINDRICAL_SURFACE('',#703,1.4);
#21=CYLINDRICAL_SURFACE('',#705,1.4);
#22=FACE_BOUND('',#82,.T.);
#23=FACE_BOUND('',#85,.T.);
#24=FACE_BOUND('',#90,.T.);
#25=FACE_BOUND('',#91,.T.);
#26=FACE_BOUND('',#92,.T.);
#27=FACE_BOUND('',#102,.T.);
#28=FACE_BOUND('',#111,.T.);
#29=FACE_BOUND('',#116,.T.);
#30=FACE_BOUND('',#117,.T.);
#31=CIRCLE('',#665,4.5);
#32=CIRCLE('',#666,4.5);
#33=CIRCLE('',#670,2.75);
#34=CIRCLE('',#673,1.45);
#35=CIRCLE('',#675,4.5);
#36=CIRCLE('',#676,4.5);
#37=CIRCLE('',#680,1.4);
#38=CIRCLE('',#681,1.4);
#39=CIRCLE('',#682,1.0065);
#40=CIRCLE('',#691,1.0065);
#41=CIRCLE('',#693,2.75);
#42=CIRCLE('',#694,1.45);
#43=CIRCLE('',#704,1.4);
#44=CIRCLE('',#706,1.4);
#45=FACE_OUTER_BOUND('',#77,.T.);
#46=FACE_OUTER_BOUND('',#78,.T.);
#47=FACE_OUTER_BOUND('',#79,.T.);
#48=FACE_OUTER_BOUND('',#80,.T.);
#49=FACE_OUTER_BOUND('',#81,.T.);
#50=FACE_OUTER_BOUND('',#83,.T.);
#51=FACE_OUTER_BOUND('',#84,.T.);
#52=FACE_OUTER_BOUND('',#86,.T.);
#53=FACE_OUTER_BOUND('',#87,.T.);
#54=FACE_OUTER_BOUND('',#88,.T.);
#55=FACE_OUTER_BOUND('',#89,.T.);
#56=FACE_OUTER_BOUND('',#93,.T.);
#57=FACE_OUTER_BOUND('',#94,.T.);
#58=FACE_OUTER_BOUND('',#95,.T.);
#59=FACE_OUTER_BOUND('',#96,.T.);
#60=FACE_OUTER_BOUND('',#97,.T.);
#61=FACE_OUTER_BOUND('',#98,.T.);
#62=FACE_OUTER_BOUND('',#99,.T.);
#63=FACE_OUTER_BOUND('',#100,.T.);
#64=FACE_OUTER_BOUND('',#101,.T.);
#65=FACE_OUTER_BOUND('',#103,.T.);
#66=FACE_OUTER_BOUND('',#104,.T.);
#67=FACE_OUTER_BOUND('',#105,.T.);
#68=FACE_OUTER_BOUND('',#106,.T.);
#69=FACE_OUTER_BOUND('',#107,.T.);
#70=FACE_OUTER_BOUND('',#108,.T.);
#71=FACE_OUTER_BOUND('',#109,.T.);
#72=FACE_OUTER_BOUND('',#110,.T.);
#73=FACE_OUTER_BOUND('',#112,.T.);
#74=FACE_OUTER_BOUND('',#113,.T.);
#75=FACE_OUTER_BOUND('',#114,.T.);
#76=FACE_OUTER_BOUND('',#115,.T.);
#77=EDGE_LOOP('',(#409,#410,#411,#412));
#78=EDGE_LOOP('',(#413,#414,#415,#416,#417,#418,#419,#420,#421,#422,#423,
#424,#425,#426,#427,#428));
#79=EDGE_LOOP('',(#429,#430,#431,#432));
#80=EDGE_LOOP('',(#433,#434,#435,#436));
#81=EDGE_LOOP('',(#437,#438,#439,#440,#441,#442));
#82=EDGE_LOOP('',(#443));
#83=EDGE_LOOP('',(#444,#445,#446,#447));
#84=EDGE_LOOP('',(#448,#449,#450,#451,#452,#453));
#85=EDGE_LOOP('',(#454));
#86=EDGE_LOOP('',(#455,#456,#457,#458,#459,#460,#461,#462,#463,#464,#465,
#466,#467,#468,#469,#470));
#87=EDGE_LOOP('',(#471,#472,#473,#474));
#88=EDGE_LOOP('',(#475,#476,#477,#478,#479,#480));
#89=EDGE_LOOP('',(#481,#482,#483,#484,#485,#486,#487));
#90=EDGE_LOOP('',(#488));
#91=EDGE_LOOP('',(#489));
#92=EDGE_LOOP('',(#490));
#93=EDGE_LOOP('',(#491,#492,#493,#494));
#94=EDGE_LOOP('',(#495,#496,#497,#498));
#95=EDGE_LOOP('',(#499,#500,#501,#502));
#96=EDGE_LOOP('',(#503,#504,#505,#506,#507,#508));
#97=EDGE_LOOP('',(#509,#510,#511,#512));
#98=EDGE_LOOP('',(#513,#514,#515,#516));
#99=EDGE_LOOP('',(#517,#518,#519,#520));
#100=EDGE_LOOP('',(#521,#522,#523,#524));
#101=EDGE_LOOP('',(#525));
#102=EDGE_LOOP('',(#526));
#103=EDGE_LOOP('',(#527,#528,#529,#530));
#104=EDGE_LOOP('',(#531,#532,#533,#534));
#105=EDGE_LOOP('',(#535,#536,#537,#538));
#106=EDGE_LOOP('',(#539,#540,#541,#542));
#107=EDGE_LOOP('',(#543,#544,#545,#546));
#108=EDGE_LOOP('',(#547,#548,#549,#550));
#109=EDGE_LOOP('',(#551,#552,#553,#554));
#110=EDGE_LOOP('',(#555,#556,#557,#558,#559,#560));
#111=EDGE_LOOP('',(#561));
#112=EDGE_LOOP('',(#562,#563,#564,#565));
#113=EDGE_LOOP('',(#566,#567,#568,#569));
#114=EDGE_LOOP('',(#570,#571,#572,#573));
#115=EDGE_LOOP('',(#574,#575,#576,#577,#578,#579,#580));
#116=EDGE_LOOP('',(#581));
#117=EDGE_LOOP('',(#582));
#118=LINE('',#880,#191);
#119=LINE('',#882,#192);
#120=LINE('',#884,#193);
#121=LINE('',#885,#194);
#122=LINE('',#888,#195);
#123=LINE('',#890,#196);
#124=LINE('',#892,#197);
#125=LINE('',#894,#198);
#126=LINE('',#896,#199);
#127=LINE('',#898,#200);
#128=LINE('',#900,#201);
#129=LINE('',#902,#202);
#130=LINE('',#904,#203);
#131=LINE('',#908,#204);
#132=LINE('',#910,#205);
#133=LINE('',#912,#206);
#134=LINE('',#915,#207);
#135=LINE('',#918,#208);
#136=LINE('',#920,#209);
#137=LINE('',#921,#210);
#138=LINE('',#924,#211);
#139=LINE('',#926,#212);
#140=LINE('',#927,#213);
#141=LINE('',#930,#214);
#142=LINE('',#932,#215);
#143=LINE('',#933,#216);
#144=LINE('',#938,#217);
#145=LINE('',#939,#218);
#146=LINE('',#942,#219);
#147=LINE('',#943,#220);
#148=LINE('',#948,#221);
#149=LINE('',#950,#222);
#150=LINE('',#952,#223);
#151=LINE('',#954,#224);
#152=LINE('',#956,#225);
#153=LINE('',#958,#226);
#154=LINE('',#960,#227);
#155=LINE('',#962,#228);
#156=LINE('',#966,#229);
#157=LINE('',#968,#230);
#158=LINE('',#970,#231);
#159=LINE('',#974,#232);
#160=LINE('',#976,#233);
#161=LINE('',#977,#234);
#162=LINE('',#979,#235);
#163=LINE('',#981,#236);
#164=LINE('',#983,#237);
#165=LINE('',#984,#238);
#166=LINE('',#987,#239);
#167=LINE('',#989,#240);
#168=LINE('',#991,#241);
#169=LINE('',#992,#242);
#170=LINE('',#1001,#243);
#171=LINE('',#1002,#244);
#172=LINE('',#1005,#245);
#173=LINE('',#1006,#246);
#174=LINE('',#1009,#247);
#175=LINE('',#1010,#248);
#176=LINE('',#1012,#249);
#177=LINE('',#1013,#250);
#178=LINE('',#1015,#251);
#179=LINE('',#1016,#252);
#180=LINE('',#1019,#253);
#181=LINE('',#1023,#254);
#182=LINE('',#1030,#255);
#183=LINE('',#1032,#256);
#184=LINE('',#1034,#257);
#185=LINE('',#1035,#258);
#186=LINE('',#1038,#259);
#187=LINE('',#1039,#260);
#188=LINE('',#1041,#261);
#189=LINE('',#1046,#262);
#190=LINE('',#1050,#263);
#191=VECTOR('',#713,10.);
#192=VECTOR('',#714,10.);
#193=VECTOR('',#715,10.);
#194=VECTOR('',#716,10.);
#195=VECTOR('',#719,10.);
#196=VECTOR('',#720,10.);
#197=VECTOR('',#721,10.);
#198=VECTOR('',#722,10.);
#199=VECTOR('',#723,10.);
#200=VECTOR('',#724,10.);
#201=VECTOR('',#725,10.);
#202=VECTOR('',#726,10.);
#203=VECTOR('',#727,10.);
#204=VECTOR('',#730,10.);
#205=VECTOR('',#731,10.);
#206=VECTOR('',#732,10.);
#207=VECTOR('',#735,10.);
#208=VECTOR('',#738,10.);
#209=VECTOR('',#739,10.);
#210=VECTOR('',#740,10.);
#211=VECTOR('',#743,10.);
#212=VECTOR('',#744,10.);
#213=VECTOR('',#745,10.);
#214=VECTOR('',#748,10.);
#215=VECTOR('',#749,10.);
#216=VECTOR('',#750,10.);
#217=VECTOR('',#755,10.);
#218=VECTOR('',#756,10.);
#219=VECTOR('',#759,10.);
#220=VECTOR('',#760,10.);
#221=VECTOR('',#765,10.);
#222=VECTOR('',#766,10.);
#223=VECTOR('',#767,10.);
#224=VECTOR('',#768,10.);
#225=VECTOR('',#769,10.);
#226=VECTOR('',#770,10.);
#227=VECTOR('',#771,10.);
#228=VECTOR('',#772,10.);
#229=VECTOR('',#775,10.);
#230=VECTOR('',#776,10.);
#231=VECTOR('',#777,10.);
#232=VECTOR('',#782,10.);
#233=VECTOR('',#783,10.);
#234=VECTOR('',#784,10.);
#235=VECTOR('',#787,10.);
#236=VECTOR('',#788,10.);
#237=VECTOR('',#789,10.);
#238=VECTOR('',#790,10.);
#239=VECTOR('',#793,10.);
#240=VECTOR('',#794,10.);
#241=VECTOR('',#795,10.);
#242=VECTOR('',#796,10.);
#243=VECTOR('',#805,10.);
#244=VECTOR('',#806,10.);
#245=VECTOR('',#809,10.);
#246=VECTOR('',#810,10.);
#247=VECTOR('',#813,10.);
#248=VECTOR('',#814,10.);
#249=VECTOR('',#817,10.);
#250=VECTOR('',#818,10.);
#251=VECTOR('',#821,10.);
#252=VECTOR('',#822,10.);
#253=VECTOR('',#827,10.);
#254=VECTOR('',#832,1.0065);
#255=VECTOR('',#841,2.75);
#256=VECTOR('',#844,1.45);
#257=VECTOR('',#847,10.);
#258=VECTOR('',#848,10.);
#259=VECTOR('',#853,10.);
#260=VECTOR('',#854,10.);
#261=VECTOR('',#857,10.);
#262=VECTOR('',#864,1.4);
#263=VECTOR('',#869,1.4);
#264=VERTEX_POINT('',#878);
#265=VERTEX_POINT('',#879);
#266=VERTEX_POINT('',#881);
#267=VERTEX_POINT('',#883);
#268=VERTEX_POINT('',#887);
#269=VERTEX_POINT('',#889);
#270=VERTEX_POINT('',#891);
#271=VERTEX_POINT('',#893);
#272=VERTEX_POINT('',#895);
#273=VERTEX_POINT('',#897);
#274=VERTEX_POINT('',#899);
#275=VERTEX_POINT('',#901);
#276=VERTEX_POINT('',#903);
#277=VERTEX_POINT('',#905);
#278=VERTEX_POINT('',#907);
#279=VERTEX_POINT('',#909);
#280=VERTEX_POINT('',#911);
#281=VERTEX_POINT('',#913);
#282=VERTEX_POINT('',#917);
#283=VERTEX_POINT('',#919);
#284=VERTEX_POINT('',#923);
#285=VERTEX_POINT('',#925);
#286=VERTEX_POINT('',#929);
#287=VERTEX_POINT('',#931);
#288=VERTEX_POINT('',#934);
#289=VERTEX_POINT('',#937);
#290=VERTEX_POINT('',#941);
#291=VERTEX_POINT('',#944);
#292=VERTEX_POINT('',#947);
#293=VERTEX_POINT('',#949);
#294=VERTEX_POINT('',#951);
#295=VERTEX_POINT('',#953);
#296=VERTEX_POINT('',#955);
#297=VERTEX_POINT('',#957);
#298=VERTEX_POINT('',#959);
#299=VERTEX_POINT('',#961);
#300=VERTEX_POINT('',#963);
#301=VERTEX_POINT('',#965);
#302=VERTEX_POINT('',#967);
#303=VERTEX_POINT('',#969);
#304=VERTEX_POINT('',#973);
#305=VERTEX_POINT('',#975);
#306=VERTEX_POINT('',#980);
#307=VERTEX_POINT('',#982);
#308=VERTEX_POINT('',#986);
#309=VERTEX_POINT('',#988);
#310=VERTEX_POINT('',#990);
#311=VERTEX_POINT('',#993);
#312=VERTEX_POINT('',#995);
#313=VERTEX_POINT('',#997);
#314=VERTEX_POINT('',#1000);
#315=VERTEX_POINT('',#1004);
#316=VERTEX_POINT('',#1008);
#317=VERTEX_POINT('',#1021);
#318=VERTEX_POINT('',#1025);
#319=VERTEX_POINT('',#1027);
#320=VERTEX_POINT('',#1045);
#321=VERTEX_POINT('',#1049);
#322=EDGE_CURVE('',#264,#265,#118,.T.);
#323=EDGE_CURVE('',#265,#266,#119,.T.);
#324=EDGE_CURVE('',#266,#267,#120,.F.);
#325=EDGE_CURVE('',#267,#264,#121,.T.);
#326=EDGE_CURVE('',#267,#268,#122,.T.);
#327=EDGE_CURVE('',#268,#269,#123,.T.);
#328=EDGE_CURVE('',#269,#270,#124,.T.);
#329=EDGE_CURVE('',#270,#271,#125,.T.);
#330=EDGE_CURVE('',#272,#271,#126,.T.);
#331=EDGE_CURVE('',#272,#273,#127,.T.);
#332=EDGE_CURVE('',#274,#273,#128,.T.);
#333=EDGE_CURVE('',#275,#274,#129,.T.);
#334=EDGE_CURVE('',#276,#275,#130,.T.);
#335=EDGE_CURVE('',#277,#276,#31,.T.);
#336=EDGE_CURVE('',#278,#277,#131,.T.);
#337=EDGE_CURVE('',#279,#278,#132,.T.);
#338=EDGE_CURVE('',#280,#279,#133,.T.);
#339=EDGE_CURVE('',#281,#280,#32,.T.);
#340=EDGE_CURVE('',#264,#281,#134,.T.);
#341=EDGE_CURVE('',#274,#282,#135,.T.);
#342=EDGE_CURVE('',#282,#283,#136,.T.);
#343=EDGE_CURVE('',#283,#275,#137,.T.);
#344=EDGE_CURVE('',#284,#282,#138,.T.);
#345=EDGE_CURVE('',#285,#284,#139,.T.);
#346=EDGE_CURVE('',#283,#285,#140,.T.);
#347=EDGE_CURVE('',#273,#286,#141,.T.);
#348=EDGE_CURVE('',#286,#287,#142,.T.);
#349=EDGE_CURVE('',#284,#287,#143,.T.);
#350=EDGE_CURVE('',#288,#288,#33,.T.);
#351=EDGE_CURVE('',#287,#289,#144,.T.);
#352=EDGE_CURVE('',#289,#285,#145,.T.);
#353=EDGE_CURVE('',#289,#290,#146,.T.);
#354=EDGE_CURVE('',#290,#276,#147,.T.);
#355=EDGE_CURVE('',#291,#291,#34,.T.);
#356=EDGE_CURVE('',#286,#292,#148,.T.);
#357=EDGE_CURVE('',#293,#292,#149,.T.);
#358=EDGE_CURVE('',#293,#294,#150,.T.);
#359=EDGE_CURVE('',#294,#295,#151,.T.);
#360=EDGE_CURVE('',#296,#295,#152,.T.);
#361=EDGE_CURVE('',#297,#296,#153,.T.);
#362=EDGE_CURVE('',#298,#297,#154,.T.);
#363=EDGE_CURVE('',#299,#298,#155,.T.);
#364=EDGE_CURVE('',#300,#299,#35,.T.);
#365=EDGE_CURVE('',#301,#300,#156,.T.);
#366=EDGE_CURVE('',#302,#301,#157,.T.);
#367=EDGE_CURVE('',#303,#302,#158,.T.);
#368=EDGE_CURVE('',#290,#303,#36,.T.);
#369=EDGE_CURVE('',#297,#304,#159,.T.);
#370=EDGE_CURVE('',#304,#305,#160,.T.);
#371=EDGE_CURVE('',#305,#298,#161,.T.);
#372=EDGE_CURVE('',#305,#265,#162,.T.);
#373=EDGE_CURVE('',#306,#304,#163,.T.);
#374=EDGE_CURVE('',#307,#306,#164,.T.);
#375=EDGE_CURVE('',#307,#266,#165,.T.);
#376=EDGE_CURVE('',#296,#308,#166,.T.);
#377=EDGE_CURVE('',#309,#308,#167,.T.);
#378=EDGE_CURVE('',#309,#310,#168,.T.);
#379=EDGE_CURVE('',#306,#310,#169,.T.);
#380=EDGE_CURVE('',#311,#311,#37,.T.);
#381=EDGE_CURVE('',#312,#312,#38,.T.);
#382=EDGE_CURVE('',#313,#313,#39,.T.);
#383=EDGE_CURVE('',#314,#307,#170,.T.);
#384=EDGE_CURVE('',#310,#314,#171,.T.);
#385=EDGE_CURVE('',#315,#309,#172,.T.);
#386=EDGE_CURVE('',#315,#314,#173,.T.);
#387=EDGE_CURVE('',#316,#315,#174,.T.);
#388=EDGE_CURVE('',#308,#316,#175,.T.);
#389=EDGE_CURVE('',#295,#269,#176,.T.);
#390=EDGE_CURVE('',#268,#316,#177,.T.);
#391=EDGE_CURVE('',#271,#293,#178,.T.);
#392=EDGE_CURVE('',#294,#270,#179,.T.);
#393=EDGE_CURVE('',#292,#272,#180,.T.);
#394=EDGE_CURVE('',#317,#317,#40,.T.);
#395=EDGE_CURVE('',#317,#313,#181,.T.);
#396=EDGE_CURVE('',#318,#318,#41,.T.);
#397=EDGE_CURVE('',#319,#319,#42,.T.);
#398=EDGE_CURVE('',#288,#318,#182,.T.);
#399=EDGE_CURVE('',#319,#291,#183,.T.);
#400=EDGE_CURVE('',#303,#277,#184,.T.);
#401=EDGE_CURVE('',#302,#278,#185,.T.);
#402=EDGE_CURVE('',#300,#280,#186,.T.);
#403=EDGE_CURVE('',#299,#281,#187,.T.);
#404=EDGE_CURVE('',#301,#279,#188,.T.);
#405=EDGE_CURVE('',#312,#320,#189,.T.);
#406=EDGE_CURVE('',#320,#320,#43,.T.);
#407=EDGE_CURVE('',#311,#321,#190,.T.);
#408=EDGE_CURVE('',#321,#321,#44,.T.);
#409=ORIENTED_EDGE('',*,*,#322,.T.);
#410=ORIENTED_EDGE('',*,*,#323,.T.);
#411=ORIENTED_EDGE('',*,*,#324,.T.);
#412=ORIENTED_EDGE('',*,*,#325,.T.);
#413=ORIENTED_EDGE('',*,*,#325,.F.);
#414=ORIENTED_EDGE('',*,*,#326,.T.);
#415=ORIENTED_EDGE('',*,*,#327,.T.);
#416=ORIENTED_EDGE('',*,*,#328,.T.);
#417=ORIENTED_EDGE('',*,*,#329,.T.);
#418=ORIENTED_EDGE('',*,*,#330,.F.);
#419=ORIENTED_EDGE('',*,*,#331,.T.);
#420=ORIENTED_EDGE('',*,*,#332,.F.);
#421=ORIENTED_EDGE('',*,*,#333,.F.);
#422=ORIENTED_EDGE('',*,*,#334,.F.);
#423=ORIENTED_EDGE('',*,*,#335,.F.);
#424=ORIENTED_EDGE('',*,*,#336,.F.);
#425=ORIENTED_EDGE('',*,*,#337,.F.);
#426=ORIENTED_EDGE('',*,*,#338,.F.);
#427=ORIENTED_EDGE('',*,*,#339,.F.);
#428=ORIENTED_EDGE('',*,*,#340,.F.);
#429=ORIENTED_EDGE('',*,*,#341,.T.);
#430=ORIENTED_EDGE('',*,*,#342,.T.);
#431=ORIENTED_EDGE('',*,*,#343,.T.);
#432=ORIENTED_EDGE('',*,*,#333,.T.);
#433=ORIENTED_EDGE('',*,*,#342,.F.);
#434=ORIENTED_EDGE('',*,*,#344,.F.);
#435=ORIENTED_EDGE('',*,*,#345,.F.);
#436=ORIENTED_EDGE('',*,*,#346,.F.);
#437=ORIENTED_EDGE('',*,*,#341,.F.);
#438=ORIENTED_EDGE('',*,*,#332,.T.);
#439=ORIENTED_EDGE('',*,*,#347,.T.);
#440=ORIENTED_EDGE('',*,*,#348,.T.);
#441=ORIENTED_EDGE('',*,*,#349,.F.);
#442=ORIENTED_EDGE('',*,*,#344,.T.);
#443=ORIENTED_EDGE('',*,*,#350,.F.);
#444=ORIENTED_EDGE('',*,*,#349,.T.);
#445=ORIENTED_EDGE('',*,*,#351,.T.);
#446=ORIENTED_EDGE('',*,*,#352,.T.);
#447=ORIENTED_EDGE('',*,*,#345,.T.);
#448=ORIENTED_EDGE('',*,*,#343,.F.);
#449=ORIENTED_EDGE('',*,*,#346,.T.);
#450=ORIENTED_EDGE('',*,*,#352,.F.);
#451=ORIENTED_EDGE('',*,*,#353,.T.);
#452=ORIENTED_EDGE('',*,*,#354,.T.);
#453=ORIENTED_EDGE('',*,*,#334,.T.);
#454=ORIENTED_EDGE('',*,*,#355,.F.);
#455=ORIENTED_EDGE('',*,*,#351,.F.);
#456=ORIENTED_EDGE('',*,*,#348,.F.);
#457=ORIENTED_EDGE('',*,*,#356,.T.);
#458=ORIENTED_EDGE('',*,*,#357,.F.);
#459=ORIENTED_EDGE('',*,*,#358,.T.);
#460=ORIENTED_EDGE('',*,*,#359,.T.);
#461=ORIENTED_EDGE('',*,*,#360,.F.);
#462=ORIENTED_EDGE('',*,*,#361,.F.);
#463=ORIENTED_EDGE('',*,*,#362,.F.);
#464=ORIENTED_EDGE('',*,*,#363,.F.);
#465=ORIENTED_EDGE('',*,*,#364,.F.);
#466=ORIENTED_EDGE('',*,*,#365,.F.);
#467=ORIENTED_EDGE('',*,*,#366,.F.);
#468=ORIENTED_EDGE('',*,*,#367,.F.);
#469=ORIENTED_EDGE('',*,*,#368,.F.);
#470=ORIENTED_EDGE('',*,*,#353,.F.);
#471=ORIENTED_EDGE('',*,*,#369,.T.);
#472=ORIENTED_EDGE('',*,*,#370,.T.);
#473=ORIENTED_EDGE('',*,*,#371,.T.);
#474=ORIENTED_EDGE('',*,*,#362,.T.);
#475=ORIENTED_EDGE('',*,*,#323,.F.);
#476=ORIENTED_EDGE('',*,*,#372,.F.);
#477=ORIENTED_EDGE('',*,*,#370,.F.);
#478=ORIENTED_EDGE('',*,*,#373,.F.);
#479=ORIENTED_EDGE('',*,*,#374,.F.);
#480=ORIENTED_EDGE('',*,*,#375,.T.);
#481=ORIENTED_EDGE('',*,*,#369,.F.);
#482=ORIENTED_EDGE('',*,*,#361,.T.);
#483=ORIENTED_EDGE('',*,*,#376,.T.);
#484=ORIENTED_EDGE('',*,*,#377,.F.);
#485=ORIENTED_EDGE('',*,*,#378,.T.);
#486=ORIENTED_EDGE('',*,*,#379,.F.);
#487=ORIENTED_EDGE('',*,*,#373,.T.);
#488=ORIENTED_EDGE('',*,*,#380,.F.);
#489=ORIENTED_EDGE('',*,*,#381,.F.);
#490=ORIENTED_EDGE('',*,*,#382,.F.);
#491=ORIENTED_EDGE('',*,*,#383,.T.);
#492=ORIENTED_EDGE('',*,*,#374,.T.);
#493=ORIENTED_EDGE('',*,*,#379,.T.);
#494=ORIENTED_EDGE('',*,*,#384,.T.);
#495=ORIENTED_EDGE('',*,*,#384,.F.);
#496=ORIENTED_EDGE('',*,*,#378,.F.);
#497=ORIENTED_EDGE('',*,*,#385,.F.);
#498=ORIENTED_EDGE('',*,*,#386,.T.);
#499=ORIENTED_EDGE('',*,*,#387,.T.);
#500=ORIENTED_EDGE('',*,*,#385,.T.);
#501=ORIENTED_EDGE('',*,*,#377,.T.);
#502=ORIENTED_EDGE('',*,*,#388,.T.);
#503=ORIENTED_EDGE('',*,*,#388,.F.);
#504=ORIENTED_EDGE('',*,*,#376,.F.);
#505=ORIENTED_EDGE('',*,*,#360,.T.);
#506=ORIENTED_EDGE('',*,*,#389,.T.);
#507=ORIENTED_EDGE('',*,*,#327,.F.);
#508=ORIENTED_EDGE('',*,*,#390,.T.);
#509=ORIENTED_EDGE('',*,*,#358,.F.);
#510=ORIENTED_EDGE('',*,*,#391,.F.);
#511=ORIENTED_EDGE('',*,*,#329,.F.);
#512=ORIENTED_EDGE('',*,*,#392,.F.);
#513=ORIENTED_EDGE('',*,*,#392,.T.);
#514=ORIENTED_EDGE('',*,*,#328,.F.);
#515=ORIENTED_EDGE('',*,*,#389,.F.);
#516=ORIENTED_EDGE('',*,*,#359,.F.);
#517=ORIENTED_EDGE('',*,*,#356,.F.);
#518=ORIENTED_EDGE('',*,*,#347,.F.);
#519=ORIENTED_EDGE('',*,*,#331,.F.);
#520=ORIENTED_EDGE('',*,*,#393,.F.);
#521=ORIENTED_EDGE('',*,*,#394,.T.);
#522=ORIENTED_EDGE('',*,*,#395,.T.);
#523=ORIENTED_EDGE('',*,*,#382,.T.);
#524=ORIENTED_EDGE('',*,*,#395,.F.);
#525=ORIENTED_EDGE('',*,*,#396,.F.);
#526=ORIENTED_EDGE('',*,*,#397,.T.);
#527=ORIENTED_EDGE('',*,*,#350,.T.);
#528=ORIENTED_EDGE('',*,*,#398,.T.);
#529=ORIENTED_EDGE('',*,*,#396,.T.);
#530=ORIENTED_EDGE('',*,*,#398,.F.);
#531=ORIENTED_EDGE('',*,*,#397,.F.);
#532=ORIENTED_EDGE('',*,*,#399,.T.);
#533=ORIENTED_EDGE('',*,*,#355,.T.);
#534=ORIENTED_EDGE('',*,*,#399,.F.);
#535=ORIENTED_EDGE('',*,*,#336,.T.);
#536=ORIENTED_EDGE('',*,*,#400,.F.);
#537=ORIENTED_EDGE('',*,*,#367,.T.);
#538=ORIENTED_EDGE('',*,*,#401,.T.);
#539=ORIENTED_EDGE('',*,*,#335,.T.);
#540=ORIENTED_EDGE('',*,*,#354,.F.);
#541=ORIENTED_EDGE('',*,*,#368,.T.);
#542=ORIENTED_EDGE('',*,*,#400,.T.);
#543=ORIENTED_EDGE('',*,*,#339,.T.);
#544=ORIENTED_EDGE('',*,*,#402,.F.);
#545=ORIENTED_EDGE('',*,*,#364,.T.);
#546=ORIENTED_EDGE('',*,*,#403,.T.);
#547=ORIENTED_EDGE('',*,*,#338,.T.);
#548=ORIENTED_EDGE('',*,*,#404,.F.);
#549=ORIENTED_EDGE('',*,*,#365,.T.);
#550=ORIENTED_EDGE('',*,*,#402,.T.);
#551=ORIENTED_EDGE('',*,*,#337,.T.);
#552=ORIENTED_EDGE('',*,*,#401,.F.);
#553=ORIENTED_EDGE('',*,*,#366,.T.);
#554=ORIENTED_EDGE('',*,*,#404,.T.);
#555=ORIENTED_EDGE('',*,*,#322,.F.);
#556=ORIENTED_EDGE('',*,*,#340,.T.);
#557=ORIENTED_EDGE('',*,*,#403,.F.);
#558=ORIENTED_EDGE('',*,*,#363,.T.);
#559=ORIENTED_EDGE('',*,*,#371,.F.);
#560=ORIENTED_EDGE('',*,*,#372,.T.);
#561=ORIENTED_EDGE('',*,*,#394,.F.);
#562=ORIENTED_EDGE('',*,*,#381,.T.);
#563=ORIENTED_EDGE('',*,*,#405,.T.);
#564=ORIENTED_EDGE('',*,*,#406,.T.);
#565=ORIENTED_EDGE('',*,*,#405,.F.);
#566=ORIENTED_EDGE('',*,*,#380,.T.);
#567=ORIENTED_EDGE('',*,*,#407,.T.);
#568=ORIENTED_EDGE('',*,*,#408,.T.);
#569=ORIENTED_EDGE('',*,*,#407,.F.);
#570=ORIENTED_EDGE('',*,*,#391,.T.);
#571=ORIENTED_EDGE('',*,*,#357,.T.);
#572=ORIENTED_EDGE('',*,*,#393,.T.);
#573=ORIENTED_EDGE('',*,*,#330,.T.);
#574=ORIENTED_EDGE('',*,*,#383,.F.);
#575=ORIENTED_EDGE('',*,*,#386,.F.);
#576=ORIENTED_EDGE('',*,*,#387,.F.);
#577=ORIENTED_EDGE('',*,*,#390,.F.);
#578=ORIENTED_EDGE('',*,*,#326,.F.);
#579=ORIENTED_EDGE('',*,*,#324,.F.);
#580=ORIENTED_EDGE('',*,*,#375,.F.);
#581=ORIENTED_EDGE('',*,*,#406,.F.);
#582=ORIENTED_EDGE('',*,*,#408,.F.);
#583=PLANE('',#663);
#584=PLANE('',#664);
#585=PLANE('',#667);
#586=PLANE('',#668);
#587=PLANE('',#669);
#588=PLANE('',#671);
#589=PLANE('',#672);
#590=PLANE('',#674);
#591=PLANE('',#677);
#592=PLANE('',#678);
#593=PLANE('',#679);
#594=PLANE('',#683);
#595=PLANE('',#684);
#596=PLANE('',#685);
#597=PLANE('',#686);
#598=PLANE('',#687);
#599=PLANE('',#688);
#600=PLANE('',#689);
#601=PLANE('',#692);
#602=PLANE('',#697);
#603=PLANE('',#700);
#604=PLANE('',#701);
#605=PLANE('',#702);
#606=PLANE('',#707);
#607=PLANE('',#708);
#608=ADVANCED_FACE('',(#45),#583,.T.);
#609=ADVANCED_FACE('',(#46),#584,.F.);
#610=ADVANCED_FACE('',(#47),#585,.T.);
#611=ADVANCED_FACE('',(#48),#586,.F.);
#612=ADVANCED_FACE('',(#49,#22),#587,.F.);
#613=ADVANCED_FACE('',(#50),#588,.T.);
#614=ADVANCED_FACE('',(#51,#23),#589,.T.);
#615=ADVANCED_FACE('',(#52),#590,.F.);
#616=ADVANCED_FACE('',(#53),#591,.T.);
#617=ADVANCED_FACE('',(#54),#592,.F.);
#618=ADVANCED_FACE('',(#55,#24,#25,#26),#593,.T.);
#619=ADVANCED_FACE('',(#56),#594,.T.);
#620=ADVANCED_FACE('',(#57),#595,.F.);
#621=ADVANCED_FACE('',(#58),#596,.T.);
#622=ADVANCED_FACE('',(#59),#597,.F.);
#623=ADVANCED_FACE('',(#60),#598,.F.);
#624=ADVANCED_FACE('',(#61),#599,.T.);
#625=ADVANCED_FACE('',(#62),#600,.F.);
#626=ADVANCED_FACE('',(#63),#15,.F.);
#627=ADVANCED_FACE('',(#64,#27),#601,.F.);
#628=ADVANCED_FACE('',(#65),#16,.F.);
#629=ADVANCED_FACE('',(#66),#17,.F.);
#630=ADVANCED_FACE('',(#67),#602,.T.);
#631=ADVANCED_FACE('',(#68),#18,.F.);
#632=ADVANCED_FACE('',(#69),#19,.F.);
#633=ADVANCED_FACE('',(#70),#603,.T.);
#634=ADVANCED_FACE('',(#71),#604,.T.);
#635=ADVANCED_FACE('',(#72,#28),#605,.T.);
#636=ADVANCED_FACE('',(#73),#20,.F.);
#637=ADVANCED_FACE('',(#74),#21,.F.);
#638=ADVANCED_FACE('',(#75),#606,.F.);
#639=ADVANCED_FACE('',(#76,#29,#30),#607,.F.);
#640=CLOSED_SHELL('',(#608,#609,#610,#611,#612,#613,#614,#615,#616,#617,
#618,#619,#620,#621,#622,#623,#624,#625,#626,#627,#628,#629,#630,#631,#632,
#633,#634,#635,#636,#637,#638,#639));
#641=DERIVED_UNIT_ELEMENT(#644,1.);
#642=DERIVED_UNIT_ELEMENT(#1059,-3.);
#643=DIMENSIONAL_EXPONENTS(0.,1.,0.,0.,0.,0.,0.);
#644=(
CONVERSION_BASED_UNIT('gram',#646)
MASS_UNIT()
NAMED_UNIT(#643)
);
#645=(
MASS_UNIT()
NAMED_UNIT(*)
SI_UNIT(.KILO.,.GRAM.)
);
#646=MASS_MEASURE_WITH_UNIT(MASS_MEASURE(0.001),#645);
#647=DERIVED_UNIT((#641,#642));
#648=MEASURE_REPRESENTATION_ITEM('density measure',
POSITIVE_RATIO_MEASURE(2.7),#647);
#649=PROPERTY_DEFINITION_REPRESENTATION(#654,#651);
#650=PROPERTY_DEFINITION_REPRESENTATION(#655,#652);
#651=REPRESENTATION('material name',(#653),#1056);
#652=REPRESENTATION('density',(#648),#1056);
#653=DESCRIPTIVE_REPRESENTATION_ITEM('EN AW-6082 T6 / T651 (AlMgSi1)',
'EN AW-6082 T6 / T651 (AlMgSi1)');
#654=PROPERTY_DEFINITION('material property','material name',#1066);
#655=PROPERTY_DEFINITION('material property','density of part',#1066);
#656=DATE_TIME_ROLE('creation_date');
#657=APPLIED_DATE_AND_TIME_ASSIGNMENT(#658,#656,(#1066));
#658=DATE_AND_TIME(#659,#660);
#659=CALENDAR_DATE(2026,16,7);
#660=LOCAL_TIME(0,0,0.,#661);
#661=COORDINATED_UNIVERSAL_TIME_OFFSET(0,0,.BEHIND.);
#662=AXIS2_PLACEMENT_3D('',#876,#709,#710);
#663=AXIS2_PLACEMENT_3D('',#877,#711,#712);
#664=AXIS2_PLACEMENT_3D('',#886,#717,#718);
#665=AXIS2_PLACEMENT_3D('',#906,#728,#729);
#666=AXIS2_PLACEMENT_3D('',#914,#733,#734);
#667=AXIS2_PLACEMENT_3D('',#916,#736,#737);
#668=AXIS2_PLACEMENT_3D('',#922,#741,#742);
#669=AXIS2_PLACEMENT_3D('',#928,#746,#747);
#670=AXIS2_PLACEMENT_3D('',#935,#751,#752);
#671=AXIS2_PLACEMENT_3D('',#936,#753,#754);
#672=AXIS2_PLACEMENT_3D('',#940,#757,#758);
#673=AXIS2_PLACEMENT_3D('',#945,#761,#762);
#674=AXIS2_PLACEMENT_3D('',#946,#763,#764);
#675=AXIS2_PLACEMENT_3D('',#964,#773,#774);
#676=AXIS2_PLACEMENT_3D('',#971,#778,#779);
#677=AXIS2_PLACEMENT_3D('',#972,#780,#781);
#678=AXIS2_PLACEMENT_3D('',#978,#785,#786);
#679=AXIS2_PLACEMENT_3D('',#985,#791,#792);
#680=AXIS2_PLACEMENT_3D('',#994,#797,#798);
#681=AXIS2_PLACEMENT_3D('',#996,#799,#800);
#682=AXIS2_PLACEMENT_3D('',#998,#801,#802);
#683=AXIS2_PLACEMENT_3D('',#999,#803,#804);
#684=AXIS2_PLACEMENT_3D('',#1003,#807,#808);
#685=AXIS2_PLACEMENT_3D('',#1007,#811,#812);
#686=AXIS2_PLACEMENT_3D('',#1011,#815,#816);
#687=AXIS2_PLACEMENT_3D('',#1014,#819,#820);
#688=AXIS2_PLACEMENT_3D('',#1017,#823,#824);
#689=AXIS2_PLACEMENT_3D('',#1018,#825,#826);
#690=AXIS2_PLACEMENT_3D('',#1020,#828,#829);
#691=AXIS2_PLACEMENT_3D('',#1022,#830,#831);
#692=AXIS2_PLACEMENT_3D('',#1024,#833,#834);
#693=AXIS2_PLACEMENT_3D('',#1026,#835,#836);
#694=AXIS2_PLACEMENT_3D('',#1028,#837,#838);
#695=AXIS2_PLACEMENT_3D('',#1029,#839,#840);
#696=AXIS2_PLACEMENT_3D('',#1031,#842,#843);
#697=AXIS2_PLACEMENT_3D('',#1033,#845,#846);
#698=AXIS2_PLACEMENT_3D('',#1036,#849,#850);
#699=AXIS2_PLACEMENT_3D('',#1037,#851,#852);
#700=AXIS2_PLACEMENT_3D('',#1040,#855,#856);
#701=AXIS2_PLACEMENT_3D('',#1042,#858,#859);
#702=AXIS2_PLACEMENT_3D('',#1043,#860,#861);
#703=AXIS2_PLACEMENT_3D('',#1044,#862,#863);
#704=AXIS2_PLACEMENT_3D('',#1047,#865,#866);
#705=AXIS2_PLACEMENT_3D('',#1048,#867,#868);
#706=AXIS2_PLACEMENT_3D('',#1051,#870,#871);
#707=AXIS2_PLACEMENT_3D('',#1052,#872,#873);
#708=AXIS2_PLACEMENT_3D('',#1053,#874,#875);
#709=DIRECTION('axis',(0.,0.,1.));
#710=DIRECTION('refdir',(1.,0.,0.));
#711=DIRECTION('center_axis',(0.707106781186548,-4.61791899612875E-17,-0.707106781186547));
#712=DIRECTION('ref_axis',(-0.707106781186547,0.,-0.707106781186548));
#713=DIRECTION('',(-0.707106781186547,0.,-0.707106781186548));
#714=DIRECTION('',(6.53072367426562E-17,1.,0.));
#715=DIRECTION('',(-0.707106781186547,0.,-0.707106781186548));
#716=DIRECTION('',(-6.53072367426562E-17,-1.,0.));
#717=DIRECTION('center_axis',(-1.,6.53072367426562E-17,0.));
#718=DIRECTION('ref_axis',(0.,0.,-1.));
#719=DIRECTION('',(0.,0.,1.));
#720=DIRECTION('',(6.53072367426562E-17,1.,0.));
#721=DIRECTION('',(0.,0.,1.));
#722=DIRECTION('',(-4.61791899612875E-17,-0.707106781186548,0.707106781186547));
#723=DIRECTION('',(6.53072367426562E-17,1.,0.));
#724=DIRECTION('',(-4.61791899612875E-17,-0.707106781186547,-0.707106781186548));
#725=DIRECTION('',(0.,0.,1.));
#726=DIRECTION('',(-6.53072367426562E-17,-1.,0.));
#727=DIRECTION('',(0.,0.,-1.));
#728=DIRECTION('center_axis',(1.,-6.53072367426562E-17,0.));
#729=DIRECTION('ref_axis',(0.,0.,-1.));
#730=DIRECTION('',(0.,0.,-1.));
#731=DIRECTION('',(-6.53072367426562E-17,-1.,0.));
#732=DIRECTION('',(0.,0.,1.));
#733=DIRECTION('center_axis',(1.,-6.53072367426562E-17,0.));
#734=DIRECTION('ref_axis',(0.,0.,-1.));
#735=DIRECTION('',(0.,0.,1.));
#736=DIRECTION('center_axis',(0.707106781186548,-4.61791899612875E-17,-0.707106781186547));
#737=DIRECTION('ref_axis',(-0.707106781186547,0.,-0.707106781186548));
#738=DIRECTION('',(-0.707106781186547,0.,-0.707106781186548));
#739=DIRECTION('',(6.53072367426562E-17,1.,0.));
#740=DIRECTION('',(0.707106781186547,0.,0.707106781186548));
#741=DIRECTION('center_axis',(0.,0.,1.));
#742=DIRECTION('ref_axis',(-1.,5.55111512312578E-17,0.));
#743=DIRECTION('',(1.,0.,0.));
#744=DIRECTION('',(0.,-1.,0.));
#745=DIRECTION('',(-1.,0.,0.));
#746=DIRECTION('center_axis',(0.,1.,0.));
#747=DIRECTION('ref_axis',(0.,0.,-1.));
#748=DIRECTION('',(-1.,0.,3.1720657846433E-16));
#749=DIRECTION('',(0.,0.,-1.));
#750=DIRECTION('',(-0.707106781186548,0.,0.707106781186547));
#751=DIRECTION('center_axis',(0.,-1.,0.));
#752=DIRECTION('ref_axis',(-1.,0.,3.1720657846433E-16));
#753=DIRECTION('center_axis',(-0.707106781186547,0.,-0.707106781186548));
#754=DIRECTION('ref_axis',(-0.707106781186548,0.,0.707106781186547));
#755=DIRECTION('',(0.,1.,0.));
#756=DIRECTION('',(0.707106781186548,0.,-0.707106781186547));
#757=DIRECTION('center_axis',(0.,1.,0.));
#758=DIRECTION('ref_axis',(0.,0.,1.));
#759=DIRECTION('',(0.,0.,1.));
#760=DIRECTION('',(1.,0.,0.));
#761=DIRECTION('center_axis',(0.,1.,0.));
#762=DIRECTION('ref_axis',(-1.,0.,3.1720657846433E-16));
#763=DIRECTION('center_axis',(1.,0.,0.));
#764=DIRECTION('ref_axis',(0.,0.,1.));
#765=DIRECTION('',(0.,0.707106781186547,0.707106781186548));
#766=DIRECTION('',(-6.53072367426562E-17,-1.,0.));
#767=DIRECTION('',(0.,0.707106781186548,-0.707106781186547));
#768=DIRECTION('',(0.,0.,-1.));
#769=DIRECTION('',(0.,-1.,0.));
#770=DIRECTION('',(0.,0.,1.));
#771=DIRECTION('',(0.,1.,0.));
#772=DIRECTION('',(0.,0.,-1.));
#773=DIRECTION('center_axis',(-1.,0.,0.));
#774=DIRECTION('ref_axis',(0.,0.,-1.));
#775=DIRECTION('',(0.,0.,-1.));
#776=DIRECTION('',(0.,1.,0.));
#777=DIRECTION('',(0.,0.,1.));
#778=DIRECTION('center_axis',(-1.,0.,0.));
#779=DIRECTION('ref_axis',(0.,0.,-1.));
#780=DIRECTION('center_axis',(-0.707106781186547,0.,-0.707106781186548));
#781=DIRECTION('ref_axis',(-0.707106781186548,0.,0.707106781186547));
#782=DIRECTION('',(0.707106781186548,-3.92523114670944E-17,-0.707106781186547));
#783=DIRECTION('',(0.,-1.,0.));
#784=DIRECTION('',(-0.707106781186548,0.,0.707106781186547));
#785=DIRECTION('center_axis',(0.,0.,1.));
#786=DIRECTION('ref_axis',(-1.,5.55111512312578E-17,0.));
#787=DIRECTION('',(1.,0.,0.));
#788=DIRECTION('',(-1.,5.55111512312578E-17,0.));
#789=DIRECTION('',(0.,1.,0.));
#790=DIRECTION('',(-1.,5.55111512312578E-17,0.));
#791=DIRECTION('center_axis',(5.55111512312578E-17,1.,0.));
#792=DIRECTION('ref_axis',(0.,0.,-1.));
#793=DIRECTION('',(1.,-5.55111512312578E-17,0.));
#794=DIRECTION('',(-0.707106781186547,3.92523114670943E-17,0.707106781186548));
#795=DIRECTION('',(0.,0.,-1.));
#796=DIRECTION('',(0.707106781186548,-3.92523114670944E-17,0.707106781186548));
#797=DIRECTION('center_axis',(5.55111512312578E-17,1.,0.));
#798=DIRECTION('ref_axis',(-1.,5.55111512312578E-17,0.));
#799=DIRECTION('center_axis',(5.55111512312578E-17,1.,0.));
#800=DIRECTION('ref_axis',(-1.,5.55111512312578E-17,0.));
#801=DIRECTION('center_axis',(5.55111512312578E-17,1.,0.));
#802=DIRECTION('ref_axis',(-1.,0.,3.1720657846433E-16));
#803=DIRECTION('center_axis',(0.707106781186548,0.,-0.707106781186548));
#804=DIRECTION('ref_axis',(-0.707106781186548,0.,-0.707106781186548));
#805=DIRECTION('',(-0.707106781186548,0.,-0.707106781186548));
#806=DIRECTION('',(0.,-1.,0.));
#807=DIRECTION('center_axis',(-1.,0.,0.));
#808=DIRECTION('ref_axis',(0.,0.,-1.));
#809=DIRECTION('',(0.,1.,0.));
#810=DIRECTION('',(0.,0.,-1.));
#811=DIRECTION('center_axis',(0.707106781186548,0.,0.707106781186547));
#812=DIRECTION('ref_axis',(0.707106781186547,0.,-0.707106781186548));
#813=DIRECTION('',(0.707106781186547,0.,-0.707106781186548));
#814=DIRECTION('',(0.,-1.,0.));
#815=DIRECTION('center_axis',(0.,0.,-1.));
#816=DIRECTION('ref_axis',(1.,-5.55111512312578E-17,0.));
#817=DIRECTION('',(1.,0.,0.));
#818=DIRECTION('',(1.,-5.55111512312578E-17,0.));
#819=DIRECTION('center_axis',(-2.24298922669111E-16,-0.707106781186547,
-0.707106781186548));
#820=DIRECTION('ref_axis',(-1.,0.,3.1720657846433E-16));
#821=DIRECTION('',(-1.,0.,3.1720657846433E-16));
#822=DIRECTION('',(1.,0.,-3.1720657846433E-16));
#823=DIRECTION('center_axis',(0.,1.,0.));
#824=DIRECTION('ref_axis',(0.,0.,-1.));
#825=DIRECTION('center_axis',(-2.24298922669111E-16,0.707106781186548,-0.707106781186547));
#826=DIRECTION('ref_axis',(-1.,0.,3.1720657846433E-16));
#827=DIRECTION('',(1.,0.,-3.1720657846433E-16));
#828=DIRECTION('center_axis',(0.,1.,0.));
#829=DIRECTION('ref_axis',(-1.,0.,3.1720657846433E-16));
#830=DIRECTION('center_axis',(0.,-1.,0.));
#831=DIRECTION('ref_axis',(-1.,0.,3.1720657846433E-16));
#832=DIRECTION('',(0.,1.,0.));
#833=DIRECTION('center_axis',(0.,1.,0.));
#834=DIRECTION('ref_axis',(-1.,0.,3.1720657846433E-16));
#835=DIRECTION('center_axis',(0.,1.,0.));
#836=DIRECTION('ref_axis',(-1.,0.,3.1720657846433E-16));
#837=DIRECTION('center_axis',(0.,1.,0.));
#838=DIRECTION('ref_axis',(-1.,0.,3.1720657846433E-16));
#839=DIRECTION('center_axis',(0.,1.,0.));
#840=DIRECTION('ref_axis',(-1.,0.,3.1720657846433E-16));
#841=DIRECTION('',(0.,1.,0.));
#842=DIRECTION('center_axis',(0.,1.,0.));
#843=DIRECTION('ref_axis',(-1.,0.,3.1720657846433E-16));
#844=DIRECTION('',(0.,1.,0.));
#845=DIRECTION('center_axis',(0.,1.,0.));
#846=DIRECTION('ref_axis',(0.,0.,1.));
#847=DIRECTION('',(1.,0.,0.));
#848=DIRECTION('',(1.,0.,0.));
#849=DIRECTION('center_axis',(-1.,0.,0.));
#850=DIRECTION('ref_axis',(0.,0.,-1.));
#851=DIRECTION('center_axis',(-1.,0.,0.));
#852=DIRECTION('ref_axis',(0.,0.,-1.));
#853=DIRECTION('',(1.,0.,0.));
#854=DIRECTION('',(1.,0.,0.));
#855=DIRECTION('center_axis',(0.,-1.,0.));
#856=DIRECTION('ref_axis',(0.,0.,-1.));
#857=DIRECTION('',(1.,0.,0.));
#858=DIRECTION('center_axis',(0.,0.,-1.));
#859=DIRECTION('ref_axis',(0.,1.,0.));
#860=DIRECTION('center_axis',(0.,-1.,0.));
#861=DIRECTION('ref_axis',(0.,0.,-1.));
#862=DIRECTION('center_axis',(5.55111512312578E-17,1.,0.));
#863=DIRECTION('ref_axis',(-1.,5.55111512312578E-17,0.));
#864=DIRECTION('',(-5.55111512312578E-17,-1.,0.));
#865=DIRECTION('center_axis',(0.,-1.,0.));
#866=DIRECTION('ref_axis',(-1.,5.55111512312578E-17,0.));
#867=DIRECTION('center_axis',(5.55111512312578E-17,1.,0.));
#868=DIRECTION('ref_axis',(-1.,5.55111512312578E-17,0.));
#869=DIRECTION('',(-5.55111512312578E-17,-1.,0.));
#870=DIRECTION('center_axis',(0.,-1.,0.));
#871=DIRECTION('ref_axis',(-1.,5.55111512312578E-17,0.));
#872=DIRECTION('center_axis',(-3.1720657846433E-16,2.0715885116098E-32,
-1.));
#873=DIRECTION('ref_axis',(1.,-5.55111512312578E-17,-3.1720657846433E-16));
#874=DIRECTION('center_axis',(0.,1.,0.));
#875=DIRECTION('ref_axis',(0.,0.,-1.));
#876=CARTESIAN_POINT('',(0.,0.,0.));
#877=CARTESIAN_POINT('Origin',(-9.,-20.,2.));
#878=CARTESIAN_POINT('',(-8.5,-30.2,2.5));
#879=CARTESIAN_POINT('',(-9.5,-30.2,1.5));
#880=CARTESIAN_POINT('',(-9.35707949127422,-30.2,1.64292050872577));
#881=CARTESIAN_POINT('',(-9.49999999999999,-25.,1.5));
#882=CARTESIAN_POINT('',(-9.49999999999999,-20.,1.5));
#883=CARTESIAN_POINT('',(-8.5,-25.,2.5));
#884=CARTESIAN_POINT('',(-7.125,-25.,3.875));
#885=CARTESIAN_POINT('',(-8.5,-20.,2.5));
#886=CARTESIAN_POINT('Origin',(-8.5,-20.,17.5));
#887=CARTESIAN_POINT('',(-8.5,-25.,6.5));
#888=CARTESIAN_POINT('',(-8.5,-25.,10.75));
#889=CARTESIAN_POINT('',(-8.5,-21.,6.5));
#890=CARTESIAN_POINT('',(-8.5,-20.,6.5));
#891=CARTESIAN_POINT('',(-8.5,-21.,14.5));
#892=CARTESIAN_POINT('',(-8.5,-21.,13.5));
#893=CARTESIAN_POINT('',(-8.5,-24.,17.5));
#894=CARTESIAN_POINT('',(-8.5,-22.25,15.75));
#895=CARTESIAN_POINT('',(-8.5,-34.,17.5));
#896=CARTESIAN_POINT('',(-8.5,-20.,17.5));
#897=CARTESIAN_POINT('',(-8.5,-37.,14.5));
#898=CARTESIAN_POINT('',(-8.5,-31.25,20.25));
#899=CARTESIAN_POINT('',(-8.5,-37.,2.5));
#900=CARTESIAN_POINT('',(-8.5,-37.,13.5));
#901=CARTESIAN_POINT('',(-8.5,-31.8,2.5));
#902=CARTESIAN_POINT('',(-8.5,-20.,2.5));
#903=CARTESIAN_POINT('',(-8.5,-31.8,7.07168203490309));
#904=CARTESIAN_POINT('',(-8.5,-31.8,9.5));
#905=CARTESIAN_POINT('',(-8.5,-31.8,15.9283179650969));
#906=CARTESIAN_POINT('Origin',(-8.5,-31.,11.5));
#907=CARTESIAN_POINT('',(-8.5,-31.8,16.5));
#908=CARTESIAN_POINT('',(-8.5,-31.8,16.7141589825485));
#909=CARTESIAN_POINT('',(-8.5,-30.2,16.5));
#910=CARTESIAN_POINT('',(-8.5,-25.9,16.5));
#911=CARTESIAN_POINT('',(-8.5,-30.2,15.9283179650969));
#912=CARTESIAN_POINT('',(-8.5,-30.2,17.));
#913=CARTESIAN_POINT('',(-8.5,-30.2,7.07168203490309));
#914=CARTESIAN_POINT('Origin',(-8.5,-31.,11.5));
#915=CARTESIAN_POINT('',(-8.5,-30.2,12.2858410174515));
#916=CARTESIAN_POINT('Origin',(-9.,-20.,2.));
#917=CARTESIAN_POINT('',(-9.5,-37.,1.5));
#918=CARTESIAN_POINT('',(-7.875,-37.,3.125));
#919=CARTESIAN_POINT('',(-9.5,-31.8,1.5));
#920=CARTESIAN_POINT('',(-9.49999999999999,-20.,1.5));
#921=CARTESIAN_POINT('',(-10.75,-31.8,0.249999999999998));
#922=CARTESIAN_POINT('Origin',(8.5,-20.,1.5));
#923=CARTESIAN_POINT('',(-14.5,-37.,1.5));
#924=CARTESIAN_POINT('',(-10.25,-37.,1.5));
#925=CARTESIAN_POINT('',(-14.5,-31.8,1.5));
#926=CARTESIAN_POINT('',(-14.5,-20.,1.5));
#927=CARTESIAN_POINT('',(-3.5,-31.8,1.5));
#928=CARTESIAN_POINT('Origin',(-12.,-37.,9.5));
#929=CARTESIAN_POINT('',(-15.5,-37.,14.5));
#930=CARTESIAN_POINT('',(-13.75,-37.,14.5));
#931=CARTESIAN_POINT('',(-15.5,-37.,2.5));
#932=CARTESIAN_POINT('',(-15.5,-37.,5.5));
#933=CARTESIAN_POINT('',(-16.125,-37.,3.125));
#934=CARTESIAN_POINT('',(-9.25,-37.,4.8));
#935=CARTESIAN_POINT('Origin',(-12.,-37.,4.8));
#936=CARTESIAN_POINT('Origin',(-15.,-20.,2.));
#937=CARTESIAN_POINT('',(-15.5,-31.8,2.5));
#938=CARTESIAN_POINT('',(-15.5,-20.,2.5));
#939=CARTESIAN_POINT('',(-15.,-31.8,2.));
#940=CARTESIAN_POINT('Origin',(-15.5,-31.8,1.5));
#941=CARTESIAN_POINT('',(-15.5,-31.8,7.07168203490309));
#942=CARTESIAN_POINT('',(-15.5,-31.8,1.5));
#943=CARTESIAN_POINT('',(-15.5,-31.8,7.07168203490309));
#944=CARTESIAN_POINT('',(-10.55,-31.8,4.8));
#945=CARTESIAN_POINT('Origin',(-12.,-31.8,4.8));
#946=CARTESIAN_POINT('Origin',(-15.5,-20.,1.5));
#947=CARTESIAN_POINT('',(-15.5,-34.,17.5));
#948=CARTESIAN_POINT('',(-15.5,-35.25,16.25));
#949=CARTESIAN_POINT('',(-15.5,-24.,17.5));
#950=CARTESIAN_POINT('',(-15.5,-20.,17.5));
#951=CARTESIAN_POINT('',(-15.5,-21.,14.5));
#952=CARTESIAN_POINT('',(-15.5,-18.25,11.75));
#953=CARTESIAN_POINT('',(-15.5,-21.,6.5));
#954=CARTESIAN_POINT('',(-15.5,-21.,5.5));
#955=CARTESIAN_POINT('',(-15.5,-20.,6.5));
#956=CARTESIAN_POINT('',(-15.5,-20.,6.5));
#957=CARTESIAN_POINT('',(-15.5,-20.,2.5));
#958=CARTESIAN_POINT('',(-15.5,-20.,1.5));
#959=CARTESIAN_POINT('',(-15.5,-30.2,2.5));
#960=CARTESIAN_POINT('',(-15.5,-20.,2.5));
#961=CARTESIAN_POINT('',(-15.5,-30.2,7.07168203490309));
#962=CARTESIAN_POINT('',(-15.5,-30.2,4.28584101745155));
#963=CARTESIAN_POINT('',(-15.5,-30.2,15.9283179650969));
#964=CARTESIAN_POINT('Origin',(-15.5,-31.,11.5));
#965=CARTESIAN_POINT('',(-15.5,-30.2,16.5));
#966=CARTESIAN_POINT('',(-15.5,-30.2,9.));
#967=CARTESIAN_POINT('',(-15.5,-31.8,16.5));
#968=CARTESIAN_POINT('',(-15.5,-25.9,16.5));
#969=CARTESIAN_POINT('',(-15.5,-31.8,15.9283179650969));
#970=CARTESIAN_POINT('',(-15.5,-31.8,8.71415898254845));
#971=CARTESIAN_POINT('Origin',(-15.5,-31.,11.5));
#972=CARTESIAN_POINT('Origin',(-15.,-20.,2.));
#973=CARTESIAN_POINT('',(-14.5,-20.,1.5));
#974=CARTESIAN_POINT('',(-12.625,-20.,-0.375000000000003));
#975=CARTESIAN_POINT('',(-14.5,-30.2,1.5));
#976=CARTESIAN_POINT('',(-14.5,-20.,1.5));
#977=CARTESIAN_POINT('',(-16.3929205087258,-30.2,3.39292050872577));
#978=CARTESIAN_POINT('Origin',(8.5,-20.,1.5));
#979=CARTESIAN_POINT('',(-3.5,-30.2,1.5));
#980=CARTESIAN_POINT('',(7.5,-20.,1.5));
#981=CARTESIAN_POINT('',(8.5,-20.,1.5));
#982=CARTESIAN_POINT('',(7.5,-25.,1.5));
#983=CARTESIAN_POINT('',(7.5,-20.,1.5));
#984=CARTESIAN_POINT('',(8.5,-25.,1.5));
#985=CARTESIAN_POINT('Origin',(-3.5,-20.,4.));
#986=CARTESIAN_POINT('',(7.5,-20.,6.5));
#987=CARTESIAN_POINT('',(-15.5,-20.,6.5));
#988=CARTESIAN_POINT('',(8.5,-20.,5.5));
#989=CARTESIAN_POINT('',(5.62500000000001,-20.,8.375));
#990=CARTESIAN_POINT('',(8.5,-20.,2.5));
#991=CARTESIAN_POINT('',(8.5,-20.,6.5));
#992=CARTESIAN_POINT('',(5.625,-20.,-0.375));
#993=CARTESIAN_POINT('',(6.9,-20.,4.));
#994=CARTESIAN_POINT('Origin',(5.5,-20.,4.));
#995=CARTESIAN_POINT('',(-4.1,-20.,4.));
#996=CARTESIAN_POINT('Origin',(-5.5,-20.,4.));
#997=CARTESIAN_POINT('',(-10.9935,-20.,4.8));
#998=CARTESIAN_POINT('Origin',(-12.,-20.,4.8));
#999=CARTESIAN_POINT('Origin',(8.,-20.,2.));
#1000=CARTESIAN_POINT('',(8.5,-25.,2.5));
#1001=CARTESIAN_POINT('',(5.625,-25.,-0.375));
#1002=CARTESIAN_POINT('',(8.5,-20.,2.5));
#1003=CARTESIAN_POINT('Origin',(8.5,-20.,6.5));
#1004=CARTESIAN_POINT('',(8.5,-25.,5.5));
#1005=CARTESIAN_POINT('',(8.5,-20.,5.5));
#1006=CARTESIAN_POINT('',(8.5,-25.,6.5));
#1007=CARTESIAN_POINT('Origin',(8.,-20.,6.));
#1008=CARTESIAN_POINT('',(7.5,-25.,6.5));
#1009=CARTESIAN_POINT('',(5.62500000000001,-25.,8.375));
#1010=CARTESIAN_POINT('',(7.5,-20.,6.5));
#1011=CARTESIAN_POINT('Origin',(-15.5,-20.,6.5));
#1012=CARTESIAN_POINT('',(-13.75,-21.,6.5));
#1013=CARTESIAN_POINT('',(-15.5,-25.,6.5));
#1014=CARTESIAN_POINT('Origin',(-13.75,-22.5,16.));
#1015=CARTESIAN_POINT('',(-13.75,-24.,17.5));
#1016=CARTESIAN_POINT('',(-13.75,-21.,14.5));
#1017=CARTESIAN_POINT('Origin',(-12.,-21.,9.5));
#1018=CARTESIAN_POINT('Origin',(-13.75,-35.5,16.));
#1019=CARTESIAN_POINT('',(-13.75,-34.,17.5));
#1020=CARTESIAN_POINT('Origin',(-12.,-3.51866191443358,4.8));
#1021=CARTESIAN_POINT('',(-10.9935,-30.2,4.8));
#1022=CARTESIAN_POINT('Origin',(-12.,-30.2,4.8));
#1023=CARTESIAN_POINT('',(-10.9935,-3.51866191443358,4.8));
#1024=CARTESIAN_POINT('Origin',(-12.,-34.5,4.8));
#1025=CARTESIAN_POINT('',(-9.25,-34.5,4.8));
#1026=CARTESIAN_POINT('Origin',(-12.,-34.5,4.8));
#1027=CARTESIAN_POINT('',(-10.55,-34.5,4.8));
#1028=CARTESIAN_POINT('Origin',(-12.,-34.5,4.8));
#1029=CARTESIAN_POINT('Origin',(-12.,-35.75,4.8));
#1030=CARTESIAN_POINT('',(-9.25,-35.75,4.8));
#1031=CARTESIAN_POINT('Origin',(-12.,-3.51866191443358,4.8));
#1032=CARTESIAN_POINT('',(-10.55,-3.51866191443358,4.8));
#1033=CARTESIAN_POINT('Origin',(-15.5,-31.8,15.9283179650969));
#1034=CARTESIAN_POINT('',(-15.5,-31.8,15.9283179650969));
#1035=CARTESIAN_POINT('',(-15.5,-31.8,16.5));
#1036=CARTESIAN_POINT('Origin',(-15.5,-31.,11.5));
#1037=CARTESIAN_POINT('Origin',(-15.5,-31.,11.5));
#1038=CARTESIAN_POINT('',(-15.5,-30.2,15.9283179650969));
#1039=CARTESIAN_POINT('',(-15.5,-30.2,7.07168203490309));
#1040=CARTESIAN_POINT('Origin',(-15.5,-30.2,16.5));
#1041=CARTESIAN_POINT('',(-15.5,-30.2,16.5));
#1042=CARTESIAN_POINT('Origin',(-15.5,-31.8,16.5));
#1043=CARTESIAN_POINT('Origin',(-15.5,-30.2,7.07168203490309));
#1044=CARTESIAN_POINT('Origin',(-5.5,-77.8273291792039,4.));
#1045=CARTESIAN_POINT('',(-4.1,-25.,4.));
#1046=CARTESIAN_POINT('',(-4.1,-77.8273291792039,4.));
#1047=CARTESIAN_POINT('Origin',(-5.5,-25.,4.));
#1048=CARTESIAN_POINT('Origin',(5.5,-77.8273291792039,4.));
#1049=CARTESIAN_POINT('',(6.9,-25.,4.));
#1050=CARTESIAN_POINT('',(6.9,-77.8273291792039,4.));
#1051=CARTESIAN_POINT('Origin',(5.5,-25.,4.));
#1052=CARTESIAN_POINT('Origin',(-15.5,-20.,17.5));
#1053=CARTESIAN_POINT('Origin',(-3.5,-25.,4.));
#1054=UNCERTAINTY_MEASURE_WITH_UNIT(LENGTH_MEASURE(0.01),#1058,
'DISTANCE_ACCURACY_VALUE',
'Maximum model space distance between geometric entities at asserted c
onnectivities');
#1055=UNCERTAINTY_MEASURE_WITH_UNIT(LENGTH_MEASURE(0.01),#1058,
'DISTANCE_ACCURACY_VALUE',
'Maximum model space distance between geometric entities at asserted c
onnectivities');
#1056=(
GEOMETRIC_REPRESENTATION_CONTEXT(3)
GLOBAL_UNCERTAINTY_ASSIGNED_CONTEXT((#1054))
GLOBAL_UNIT_ASSIGNED_CONTEXT((#1058,#1060,#1061))
REPRESENTATION_CONTEXT('','3D')
);
#1057=(
GEOMETRIC_REPRESENTATION_CONTEXT(3)
GLOBAL_UNCERTAINTY_ASSIGNED_CONTEXT((#1055))
GLOBAL_UNIT_ASSIGNED_CONTEXT((#1058,#1060,#1061))
REPRESENTATION_CONTEXT('','3D')
);
#1058=(
LENGTH_UNIT()
NAMED_UNIT(*)
SI_UNIT(.MILLI.,.METRE.)
);
#1059=(
LENGTH_UNIT()
NAMED_UNIT(*)
SI_UNIT(.CENTI.,.METRE.)
);
#1060=(
NAMED_UNIT(*)
PLANE_ANGLE_UNIT()
SI_UNIT($,.RADIAN.)
);
#1061=(
NAMED_UNIT(*)
SI_UNIT($,.STERADIAN.)
SOLID_ANGLE_UNIT()
);
#1062=SHAPE_DEFINITION_REPRESENTATION(#1063,#1064);
#1063=PRODUCT_DEFINITION_SHAPE('',$,#1066);
#1064=SHAPE_REPRESENTATION('',(#662),#1056);
#1065=PRODUCT_DEFINITION_CONTEXT('part definition',#1070,'design');
#1066=PRODUCT_DEFINITION('PRT - 3022 - MOTHOLYST',
'PRT - 3022 - MOTHOLYST',#1067,#1065);
#1067=PRODUCT_DEFINITION_FORMATION('',$,#1072);
#1068=PRODUCT_RELATED_PRODUCT_CATEGORY('PRT - 3022 - MOTHOLYST',
'PRT - 3022 - MOTHOLYST',(#1072));
#1069=APPLICATION_PROTOCOL_DEFINITION('international standard',
'automotive_design',2009,#1070);
#1070=APPLICATION_CONTEXT(
'Core Data for Automotive Mechanical Design Process');
#1071=PRODUCT_CONTEXT('part definition',#1070,'mechanical');
#1072=PRODUCT('PRT - 3022 - MOTHOLYST','PRT - 3022 - MOTHOLYST',
'Motor holder Y stage',(#1071));
#1073=PRESENTATION_STYLE_ASSIGNMENT((#1074));
#1074=SURFACE_STYLE_USAGE(.BOTH.,#1077);
#1075=SURFACE_STYLE_RENDERING_WITH_PROPERTIES($,#1081,(#1076));
#1076=SURFACE_STYLE_TRANSPARENT(0.);
#1077=SURFACE_SIDE_STYLE('',(#1078,#1075));
#1078=SURFACE_STYLE_FILL_AREA(#1079);
#1079=FILL_AREA_STYLE('',(#1080));
#1080=FILL_AREA_STYLE_COLOUR('',#1081);
#1081=COLOUR_RGB('',0.996078431372549,0.996078431372549,1.);
ENDSEC;
END-ISO-10303-21;
