<?xml version="1.0" encoding="UTF-8" standalone="no"?>
<!DOCTYPE svg PUBLIC "-//W3C//DTD SVG 1.1//EN"
 "http://www.w3.org/Graphics/SVG/1.1/DTD/svg11.dtd">
<!-- Generated by graphviz version 12.1.2 (20240928.0832)
 -->
<!-- Pages: 1 -->
<svg width="4997pt" height="133pt"
 viewBox="0.00 0.00 4996.52 132.80" xmlns="http://www.w3.org/2000/svg" xmlns:xlink="http://www.w3.org/1999/xlink">
<g id="graph0" class="graph" transform="scale(1 1) rotate(0) translate(4 128.8)">
<polygon fill="white" stroke="none" points="-4,4 -4,-128.8 4992.52,-128.8 4992.52,4 -4,4"/>
<g id="node1" class="node">
<title></title>
<ellipse fill="none" stroke="black" cx="3185.42" cy="-106.8" rx="27" ry="18"/>
</g>
<!-- cube&#45;mounted/lens.dsn/mounted&#45;lens.dsn -->
<g id="node2" class="node">
<title>cube&#45;mounted/lens.dsn/mounted&#45;lens.dsn</title>
<ellipse fill="none" stroke="black" cx="171.42" cy="-18" rx="171.42" ry="18"/>
<text text-anchor="middle" x="171.42" y="-13.8" font-family="Times,serif" font-size="14.00">cube&#45;mounted/lens.dsn/mounted&#45;lens.dsn</text>
</g>
<!-- &#45;&gt;cube&#45;mounted/lens.dsn/mounted&#45;lens.dsn -->
<g id="edge1" class="edge">
<title>&#45;&gt;cube&#45;mounted/lens.dsn/mounted&#45;lens.dsn</title>
<path fill="none" stroke="black" d="M3158.01,-105.66C2893.99,-104.24 805.59,-92.42 530.11,-70.8 439.9,-63.72 337.86,-48.25 265.74,-36.05"/>
<polygon fill="black" stroke="black" points="266.36,-32.61 255.92,-34.37 265.19,-39.51 266.36,-32.61"/>
<text text-anchor="middle" x="559.26" y="-58.2" font-family="Times,serif" font-size="14.00">lens&#45;insert</text>
</g>
<!-- cube&#45;mounted/mirror&#45;diagonal.dsn/mounted&#45;mirror.dsn -->
<g id="node3" class="node">
<title>cube&#45;mounted/mirror&#45;diagonal.dsn/mounted&#45;mirror.dsn</title>
<ellipse fill="none" stroke="black" cx="587.42" cy="-18" rx="226.12" ry="18"/>
<text text-anchor="middle" x="587.42" y="-13.8" font-family="Times,serif" font-size="14.00">cube&#45;mounted/mirror&#45;diagonal.dsn/mounted&#45;mirror.dsn</text>
</g>
<!-- &#45;&gt;cube&#45;mounted/mirror&#45;diagonal.dsn/mounted&#45;mirror.dsn -->
<g id="edge2" class="edge">
<title>&#45;&gt;cube&#45;mounted/mirror&#45;diagonal.dsn/mounted&#45;mirror.dsn</title>
<path fill="none" stroke="black" d="M3158.35,-105.87C2886.47,-106.57 657.58,-111.07 603.59,-70.8 596.24,-65.32 592.14,-56.51 589.89,-47.71"/>
<polygon fill="black" stroke="black" points="593.34,-47.13 588.13,-37.9 586.45,-48.36 593.34,-47.13"/>
<text text-anchor="middle" x="682.51" y="-58.2" font-family="Times,serif" font-size="14.00">mirror&#45;diagonal&#45;fixed&#45;insert</text>
</g>
<!-- primitives/cube&#45;skeleton.dsn -->
<g id="node4" class="node">
<title>primitives/cube&#45;skeleton.dsn</title>
<ellipse fill="none" stroke="black" cx="1789.42" cy="-18" rx="122.34" ry="18"/>
<text text-anchor="middle" x="1789.42" y="-13.8" font-family="Times,serif" font-size="14.00">primitives/cube&#45;skeleton.dsn</text>
</g>
<!-- &#45;&gt;primitives/cube&#45;skeleton.dsn -->
<g id="edge3" class="edge">
<title>&#45;&gt;primitives/cube&#45;skeleton.dsn</title>
<path fill="none" stroke="black" d="M3158.14,-105.67C2893.45,-104.35 791.63,-93.19 769.55,-70.8 764.31,-65.48 764.37,-59.37 769.55,-54 799.82,-22.68 1385.53,-18.83 1655.37,-18.72"/>
<polygon fill="black" stroke="black" points="1655.29,-22.22 1665.29,-18.72 1655.29,-15.22 1655.29,-22.22"/>
<text text-anchor="middle" x="806.49" y="-58.2" font-family="Times,serif" font-size="14.00">lens&#45;skeleton</text>
</g>
<!-- &#45;&gt;primitives/cube&#45;skeleton.dsn -->
<g id="edge4" class="edge">
<title>&#45;&gt;primitives/cube&#45;skeleton.dsn</title>
<path fill="none" stroke="black" d="M3158.02,-105.65C2898.8,-104.2 887.19,-92.27 866.04,-70.8 860.8,-65.48 860.86,-59.38 866.04,-54 892.94,-26.06 1406.22,-20.36 1655.62,-19.24"/>
<polygon fill="black" stroke="black" points="1655.43,-22.74 1665.42,-19.2 1655.4,-15.74 1655.43,-22.74"/>
<text text-anchor="middle" x="952.73" y="-58.2" font-family="Times,serif" font-size="14.00">mirror&#45;diagonal&#45;fixed&#45;skeleton</text>
</g>
<!-- &#45;&gt;primitives/cube&#45;skeleton.dsn -->
<g id="edge5" class="edge">
<title>&#45;&gt;primitives/cube&#45;skeleton.dsn</title>
<path fill="none" stroke="black" d="M3158.33,-105.88C2914.2,-106.53 1101.35,-110.01 1062.78,-70.8 1057.55,-65.48 1057.63,-59.41 1062.78,-54 1082.9,-32.88 1452.46,-24.02 1656.59,-20.72"/>
<polygon fill="black" stroke="black" points="1656.53,-24.22 1666.48,-20.56 1656.42,-17.22 1656.53,-24.22"/>
<text text-anchor="middle" x="1100.1" y="-58.2" font-family="Times,serif" font-size="14.00">scaffolding&#45;1</text>
</g>
<!-- &#45;&gt;primitives/cube&#45;skeleton.dsn -->
<g id="edge6" class="edge">
<title>&#45;&gt;primitives/cube&#45;skeleton.dsn</title>
<path fill="none" stroke="black" d="M3158.1,-105.86C2919.48,-106.29 1197.48,-108.13 1160.78,-70.8 1155.55,-65.47 1155.65,-59.42 1160.78,-54 1177.59,-36.23 1478.36,-26.2 1657.68,-21.77"/>
<polygon fill="black" stroke="black" points="1657.63,-25.27 1667.54,-21.53 1657.46,-18.27 1657.63,-25.27"/>
<text text-anchor="middle" x="1201.6" y="-58.2" font-family="Times,serif" font-size="14.00">scaffolding&#45;10</text>
</g>
<!-- &#45;&gt;primitives/cube&#45;skeleton.dsn -->
<g id="edge7" class="edge">
<title>&#45;&gt;primitives/cube&#45;skeleton.dsn</title>
<path fill="none" stroke="black" d="M3158.08,-105.83C2926.43,-106.03 1300.48,-106.14 1265.78,-70.8 1260.55,-65.47 1260.68,-59.45 1265.78,-54 1291.92,-26.05 1509.26,-19.71 1655.6,-18.66"/>
<polygon fill="black" stroke="black" points="1655.39,-22.16 1665.37,-18.59 1655.35,-15.16 1655.39,-22.16"/>
<text text-anchor="middle" x="1306.6" y="-58.2" font-family="Times,serif" font-size="14.00">scaffolding&#45;11</text>
</g>
<!-- &#45;&gt;primitives/cube&#45;skeleton.dsn -->
<g id="edge8" class="edge">
<title>&#45;&gt;primitives/cube&#45;skeleton.dsn</title>
<path fill="none" stroke="black" d="M3158.17,-105.8C2934.13,-105.75 1403.5,-104.16 1370.78,-70.8 1365.55,-65.47 1365.73,-59.5 1370.78,-54 1390.06,-33.04 1541.62,-24.63 1656.89,-21.26"/>
<polygon fill="black" stroke="black" points="1656.87,-24.76 1666.77,-20.98 1656.67,-17.76 1656.87,-24.76"/>
<text text-anchor="middle" x="1411.6" y="-58.2" font-family="Times,serif" font-size="14.00">scaffolding&#45;12</text>
</g>
<!-- &#45;&gt;primitives/cube&#45;skeleton.dsn -->
<g id="edge9" class="edge">
<title>&#45;&gt;primitives/cube&#45;skeleton.dsn</title>
<path fill="none" stroke="black" d="M3158.05,-105.77C2941.08,-105.45 1506.51,-102.16 1475.78,-70.8 1446.68,-41.1 1560.52,-28.41 1659.09,-23.01"/>
<polygon fill="black" stroke="black" points="1659.1,-26.51 1668.9,-22.49 1658.73,-19.52 1659.1,-26.51"/>
<text text-anchor="middle" x="1516.6" y="-58.2" font-family="Times,serif" font-size="14.00">scaffolding&#45;13</text>
</g>
<!-- &#45;&gt;primitives/cube&#45;skeleton.dsn -->
<g id="edge10" class="edge">
<title>&#45;&gt;primitives/cube&#45;skeleton.dsn</title>
<path fill="none" stroke="black" d="M3158.1,-105.73C2948.98,-105.14 1609.53,-100.18 1580.78,-70.8 1575.56,-65.46 1575.96,-59.7 1580.78,-54 1592.69,-39.93 1627.31,-31.52 1665.02,-26.48"/>
<polygon fill="black" stroke="black" points="1665.26,-29.98 1674.76,-25.27 1664.4,-23.03 1665.26,-29.98"/>
<text text-anchor="middle" x="1621.6" y="-58.2" font-family="Times,serif" font-size="14.00">scaffolding&#45;14</text>
</g>
<!-- &#45;&gt;primitives/cube&#45;skeleton.dsn -->
<g id="edge11" class="edge">
<title>&#45;&gt;primitives/cube&#45;skeleton.dsn</title>
<path fill="none" stroke="black" d="M3157.99,-105.69C2956.51,-104.8 1712.54,-98.19 1685.78,-70.8 1671.34,-56.02 1685.18,-44.76 1706.93,-36.57"/>
<polygon fill="black" stroke="black" points="1707.98,-39.91 1716.34,-33.4 1705.75,-33.28 1707.98,-39.91"/>
<text text-anchor="middle" x="1726.6" y="-58.2" font-family="Times,serif" font-size="14.00">scaffolding&#45;15</text>
</g>
<!-- &#45;&gt;primitives/cube&#45;skeleton.dsn -->
<g id="edge12" class="edge">
<title>&#45;&gt;primitives/cube&#45;skeleton.dsn</title>
<path fill="none" stroke="black" d="M3158.1,-105.63C2965.22,-104.38 1815.9,-95.89 1790.78,-70.8 1784.74,-64.77 1782.99,-56.09 1783.18,-47.56"/>
<polygon fill="black" stroke="black" points="1786.64,-48.11 1784.26,-37.78 1779.69,-47.34 1786.64,-48.11"/>
<text text-anchor="middle" x="1831.6" y="-58.2" font-family="Times,serif" font-size="14.00">scaffolding&#45;16</text>
</g>
<!-- &#45;&gt;primitives/cube&#45;skeleton.dsn -->
<g id="edge13" class="edge">
<title>&#45;&gt;primitives/cube&#45;skeleton.dsn</title>
<path fill="none" stroke="black" d="M3158.14,-105.51C2977.39,-103.57 1957.66,-91.67 1895.78,-70.8 1883.66,-66.71 1883.58,-60.26 1872.42,-54 1863.31,-48.89 1853.3,-44.06 1843.48,-39.71"/>
<polygon fill="black" stroke="black" points="1844.91,-36.52 1834.34,-35.79 1842.15,-42.95 1844.91,-36.52"/>
<text text-anchor="middle" x="1936.6" y="-58.2" font-family="Times,serif" font-size="14.00">scaffolding&#45;17</text>
</g>
<!-- &#45;&gt;primitives/cube&#45;skeleton.dsn -->
<g id="edge14" class="edge">
<title>&#45;&gt;primitives/cube&#45;skeleton.dsn</title>
<path fill="none" stroke="black" d="M3158.05,-105.95C2991.11,-106.73 2113.57,-109 2000.78,-70.8 1988.67,-66.7 1989.18,-59.02 1977.42,-54 1952.98,-43.56 1925.44,-36.22 1899.13,-31.07"/>
<polygon fill="black" stroke="black" points="1899.9,-27.66 1889.42,-29.27 1898.62,-34.54 1899.9,-27.66"/>
<text text-anchor="middle" x="2038.1" y="-58.2" font-family="Times,serif" font-size="14.00">scaffolding&#45;2</text>
</g>
<!-- &#45;&gt;primitives/cube&#45;skeleton.dsn -->
<g id="edge15" class="edge">
<title>&#45;&gt;primitives/cube&#45;skeleton.dsn</title>
<path fill="none" stroke="black" d="M3158.03,-105.87C2999.37,-106.15 2201.7,-105.81 2098.78,-70.8 2086.67,-66.68 2087.33,-58.66 2075.42,-54 2045.42,-42.27 1973.21,-33.48 1908.86,-27.65"/>
<polygon fill="black" stroke="black" points="1909.56,-24.2 1899.29,-26.8 1908.94,-31.17 1909.56,-24.2"/>
<text text-anchor="middle" x="2136.1" y="-58.2" font-family="Times,serif" font-size="14.00">scaffolding&#45;3</text>
</g>
<!-- &#45;&gt;primitives/cube&#45;skeleton.dsn -->
<g id="edge16" class="edge">
<title>&#45;&gt;primitives/cube&#45;skeleton.dsn</title>
<path fill="none" stroke="black" d="M3158.35,-105.78C3009.07,-105.52 2289.92,-102.65 2196.78,-70.8 2184.68,-66.66 2185.4,-58.47 2173.42,-54 2128.12,-37.09 2011.65,-28.12 1918.77,-23.51"/>
<polygon fill="black" stroke="black" points="1918.94,-20.02 1908.79,-23.03 1918.61,-27.01 1918.94,-20.02"/>
<text text-anchor="middle" x="2234.1" y="-58.2" font-family="Times,serif" font-size="14.00">scaffolding&#45;4</text>
</g>
<!-- &#45;&gt;primitives/cube&#45;skeleton.dsn -->
<g id="edge17" class="edge">
<title>&#45;&gt;primitives/cube&#45;skeleton.dsn</title>
<path fill="none" stroke="black" d="M3158.32,-105.66C3018.09,-104.83 2378.09,-99.47 2294.78,-70.8 2282.69,-66.64 2283.44,-58.36 2271.42,-54 2209.58,-31.57 2042.64,-23.48 1922.57,-20.59"/>
<polygon fill="black" stroke="black" points="1922.69,-17.09 1912.61,-20.36 1922.53,-24.09 1922.69,-17.09"/>
<text text-anchor="middle" x="2332.1" y="-58.2" font-family="Times,serif" font-size="14.00">scaffolding&#45;5</text>
</g>
<!-- &#45;&gt;primitives/cube&#45;skeleton.dsn -->
<g id="edge18" class="edge">
<title>&#45;&gt;primitives/cube&#45;skeleton.dsn</title>
<path fill="none" stroke="black" d="M3158.35,-105.52C3027.77,-104.05 2466.31,-96.3 2392.78,-70.8 2380.7,-66.61 2381.47,-58.29 2369.42,-54 2290.23,-25.82 2068.33,-19.5 1923.1,-18.52"/>
<polygon fill="black" stroke="black" points="1923.45,-15.02 1913.43,-18.46 1923.41,-22.02 1923.45,-15.02"/>
<text text-anchor="middle" x="2430.1" y="-58.2" font-family="Times,serif" font-size="14.00">scaffolding&#45;6</text>
</g>
<!-- &#45;&gt;primitives/cube&#45;skeleton.dsn -->
<g id="edge19" class="edge">
<title>&#45;&gt;primitives/cube&#45;skeleton.dsn</title>
<path fill="none" stroke="black" d="M3158.16,-105.34C3037.49,-103.16 2554.53,-93.13 2490.78,-70.8 2478.71,-66.57 2479.49,-58.23 2467.42,-54 2417.48,-36.47 2103.86,-26.31 1921.15,-21.81"/>
<polygon fill="black" stroke="black" points="1921.45,-18.31 1911.36,-21.57 1921.28,-25.31 1921.45,-18.31"/>
<text text-anchor="middle" x="2528.1" y="-58.2" font-family="Times,serif" font-size="14.00">scaffolding&#45;7</text>
</g>
<!-- &#45;&gt;primitives/cube&#45;skeleton.dsn -->
<g id="edge20" class="edge">
<title>&#45;&gt;primitives/cube&#45;skeleton.dsn</title>
<path fill="none" stroke="black" d="M3158,-106.2C3055.55,-107.4 2695.73,-108.76 2588.78,-70.8 2576.73,-66.52 2577.5,-58.2 2565.42,-54 2506.54,-33.55 2127.98,-24.38 1922.19,-20.87"/>
<polygon fill="black" stroke="black" points="1922.28,-17.37 1912.22,-20.7 1922.16,-24.37 1922.28,-17.37"/>
<text text-anchor="middle" x="2626.1" y="-58.2" font-family="Times,serif" font-size="14.00">scaffolding&#45;8</text>
</g>
<!-- &#45;&gt;primitives/cube&#45;skeleton.dsn -->
<g id="edge21" class="edge">
<title>&#45;&gt;primitives/cube&#45;skeleton.dsn</title>
<path fill="none" stroke="black" d="M3158.13,-105.16C3068.91,-102.88 2786.63,-93.95 2698.78,-70.8 2681.96,-66.37 2680.32,-58.17 2663.42,-54 2593.55,-36.77 2147.99,-25.87 1921.39,-21.37"/>
<polygon fill="black" stroke="black" points="1921.69,-17.87 1911.62,-21.17 1921.55,-24.87 1921.69,-17.87"/>
<text text-anchor="middle" x="2736.1" y="-58.2" font-family="Times,serif" font-size="14.00">scaffolding&#45;9</text>
</g>
<!-- primitives/hikcamera&#45;with&#45;objective.dsn -->
<g id="node5" class="node">
<title>primitives/hikcamera&#45;with&#45;objective.dsn</title>
<ellipse fill="none" stroke="black" cx="2783.42" cy="-18" rx="167.91" ry="18"/>
<text text-anchor="middle" x="2783.42" y="-13.8" font-family="Times,serif" font-size="14.00">primitives/hikcamera&#45;with&#45;objective.dsn</text>
</g>
<!-- &#45;&gt;primitives/hikcamera&#45;with&#45;objective.dsn -->
<g id="edge22" class="edge">
<title>&#45;&gt;primitives/hikcamera&#45;with&#45;objective.dsn</title>
<path fill="none" stroke="black" d="M3158.06,-105.48C3071.85,-104.18 2810.09,-98 2784.59,-70.8 2778.75,-64.57 2777.08,-55.85 2777.29,-47.33"/>
<polygon fill="black" stroke="black" points="2780.75,-47.93 2778.36,-37.6 2773.79,-47.16 2780.75,-47.93"/>
<text text-anchor="middle" x="2821.51" y="-58.2" font-family="Times,serif" font-size="14.00">camera&#45;basic</text>
</g>
<!-- primitives/puzzle.dsn -->
<g id="node6" class="node">
<title>primitives/puzzle.dsn</title>
<ellipse fill="none" stroke="black" cx="4036.42" cy="-18" rx="93.91" ry="18"/>
<text text-anchor="middle" x="4036.42" y="-13.8" font-family="Times,serif" font-size="14.00">primitives/puzzle.dsn</text>
</g>
<!-- &#45;&gt;primitives/puzzle.dsn -->
<g id="edge23" class="edge">
<title>&#45;&gt;primitives/puzzle.dsn</title>
<path fill="none" stroke="black" d="M3158.05,-105.35C3076.25,-103.53 2841.69,-94.76 2881.23,-54 2899.39,-35.28 3650.59,-23.87 3931.7,-20.26"/>
<polygon fill="black" stroke="black" points="3931.65,-23.76 3941.6,-20.13 3931.56,-16.76 3931.65,-23.76"/>
<text text-anchor="middle" x="2905.33" y="-58.2" font-family="Times,serif" font-size="14.00">puzzle&#45;1</text>
</g>
<!-- &#45;&gt;primitives/puzzle.dsn -->
<g id="edge24" class="edge">
<title>&#45;&gt;primitives/puzzle.dsn</title>
<path fill="none" stroke="black" d="M3158.17,-105.95C3102.45,-105.61 2978.54,-101.36 2952.23,-70.8 2947.36,-65.14 2947.04,-59.36 2952.23,-54 2985.91,-19.22 3665.27,-17.73 3931.09,-18.49"/>
<polygon fill="black" stroke="black" points="3930.76,-21.99 3940.77,-18.52 3930.78,-14.99 3930.76,-21.99"/>
<text text-anchor="middle" x="2979.83" y="-58.2" font-family="Times,serif" font-size="14.00">puzzle&#45;10</text>
</g>
<!-- &#45;&gt;primitives/puzzle.dsn -->
<g id="edge25" class="edge">
<title>&#45;&gt;primitives/puzzle.dsn</title>
<path fill="none" stroke="black" d="M3158.3,-105.23C3104.21,-103.23 2991.36,-94.25 3030.23,-54 3061.14,-22 3679.44,-18.76 3931.17,-18.78"/>
<polygon fill="black" stroke="black" points="3931,-22.28 3941,-18.78 3931,-15.28 3931,-22.28"/>
<text text-anchor="middle" x="3057.83" y="-58.2" font-family="Times,serif" font-size="14.00">puzzle&#45;11</text>
</g>
<!-- &#45;&gt;primitives/puzzle.dsn -->
<g id="edge26" class="edge">
<title>&#45;&gt;primitives/puzzle.dsn</title>
<path fill="none" stroke="black" d="M3160.49,-99.41C3131.17,-90.79 3088.81,-74.17 3108.23,-54 3136.36,-24.79 3693.64,-19.87 3930.92,-19.11"/>
<polygon fill="black" stroke="black" points="3930.81,-22.61 3940.8,-19.08 3930.79,-15.61 3930.81,-22.61"/>
<text text-anchor="middle" x="3135.83" y="-58.2" font-family="Times,serif" font-size="14.00">puzzle&#45;12</text>
</g>
<!-- &#45;&gt;primitives/puzzle.dsn -->
<g id="edge27" class="edge">
<title>&#45;&gt;primitives/puzzle.dsn</title>
<path fill="none" stroke="black" d="M3180.36,-89.09C3178.02,-77.66 3177.44,-63.02 3186.23,-54 3211.82,-27.75 3709.12,-21.16 3931.05,-19.53"/>
<polygon fill="black" stroke="black" points="3930.88,-23.03 3940.86,-19.46 3930.83,-16.03 3930.88,-23.03"/>
<text text-anchor="middle" x="3213.83" y="-58.2" font-family="Times,serif" font-size="14.00">puzzle&#45;13</text>
</g>
<!-- &#45;&gt;primitives/puzzle.dsn -->
<g id="edge28" class="edge">
<title>&#45;&gt;primitives/puzzle.dsn</title>
<path fill="none" stroke="black" d="M3205.09,-94.01C3215.94,-87.39 3229.57,-78.85 3241.42,-70.8 3251.84,-63.73 3252.36,-58.2 3264.23,-54 3325.4,-32.36 3734.85,-23.44 3931.45,-20.37"/>
<polygon fill="black" stroke="black" points="3931.48,-23.87 3941.43,-20.22 3931.37,-16.87 3931.48,-23.87"/>
<text text-anchor="middle" x="3291.83" y="-58.2" font-family="Times,serif" font-size="14.00">puzzle&#45;14</text>
</g>
<!-- &#45;&gt;primitives/puzzle.dsn -->
<g id="edge29" class="edge">
<title>&#45;&gt;primitives/puzzle.dsn</title>
<path fill="none" stroke="black" d="M3211.88,-101.94C3239.67,-97.19 3284.16,-87.63 3319.42,-70.8 3330.79,-65.38 3330.37,-58.23 3342.23,-54 3396.16,-34.76 3751.72,-24.81 3932,-20.95"/>
<polygon fill="black" stroke="black" points="3931.91,-24.45 3941.84,-20.74 3931.77,-17.46 3931.91,-24.45"/>
<text text-anchor="middle" x="3369.83" y="-58.2" font-family="Times,serif" font-size="14.00">puzzle&#45;15</text>
</g>
<!-- &#45;&gt;primitives/puzzle.dsn -->
<g id="edge30" class="edge">
<title>&#45;&gt;primitives/puzzle.dsn</title>
<path fill="none" stroke="black" d="M3212.64,-105.33C3254.11,-103.75 3334.87,-97.19 3397.42,-70.8 3409.02,-65.91 3408.39,-58.27 3420.23,-54 3466.93,-37.17 3768.87,-26.37 3932.08,-21.68"/>
<polygon fill="black" stroke="black" points="3932.18,-25.18 3942.07,-21.4 3931.98,-18.19 3932.18,-25.18"/>
<text text-anchor="middle" x="3447.83" y="-58.2" font-family="Times,serif" font-size="14.00">puzzle&#45;16</text>
</g>
<!-- &#45;&gt;primitives/puzzle.dsn -->
<g id="edge31" class="edge">
<title>&#45;&gt;primitives/puzzle.dsn</title>
<path fill="none" stroke="black" d="M3212.33,-104.31C3274.78,-100.56 3427.81,-89.68 3475.42,-70.8 3487.13,-66.16 3486.4,-58.32 3498.23,-54 3574.94,-26.01 3796.94,-19.91 3930.66,-18.87"/>
<polygon fill="black" stroke="black" points="3930.63,-22.37 3940.6,-18.8 3930.58,-15.37 3930.63,-22.37"/>
<text text-anchor="middle" x="3525.83" y="-58.2" font-family="Times,serif" font-size="14.00">puzzle&#45;17</text>
</g>
<!-- &#45;&gt;primitives/puzzle.dsn -->
<g id="edge32" class="edge">
<title>&#45;&gt;primitives/puzzle.dsn</title>
<path fill="none" stroke="black" d="M3212.54,-105.09C3286.61,-102.86 3491,-94.64 3553.42,-70.8 3565.18,-66.31 3564.43,-58.38 3576.23,-54 3639.02,-30.69 3816.07,-22.9 3931.36,-20.3"/>
<polygon fill="black" stroke="black" points="3931.22,-23.8 3941.15,-20.09 3931.07,-16.8 3931.22,-23.8"/>
<text text-anchor="middle" x="3603.83" y="-58.2" font-family="Times,serif" font-size="14.00">puzzle&#45;18</text>
</g>
<!-- &#45;&gt;primitives/puzzle.dsn -->
<g id="edge33" class="edge">
<title>&#45;&gt;primitives/puzzle.dsn</title>
<path fill="none" stroke="black" d="M3212.68,-105.61C3297.23,-104.72 3554,-99.64 3631.42,-70.8 3643.22,-66.41 3642.46,-58.47 3654.23,-54 3703.38,-35.32 3837.21,-26.37 3932.61,-22.25"/>
<polygon fill="black" stroke="black" points="3932.69,-25.75 3942.53,-21.84 3932.4,-18.76 3932.69,-25.75"/>
<text text-anchor="middle" x="3681.83" y="-58.2" font-family="Times,serif" font-size="14.00">puzzle&#45;19</text>
</g>
<!-- &#45;&gt;primitives/puzzle.dsn -->
<g id="edge34" class="edge">
<title>&#45;&gt;primitives/puzzle.dsn</title>
<path fill="none" stroke="black" d="M3212.7,-105.98C3306.77,-106.3 3616.84,-104.68 3709.42,-70.8 3721.25,-66.47 3720.51,-58.61 3732.23,-54 3768.34,-39.8 3862.21,-30.41 3936.21,-24.97"/>
<polygon fill="black" stroke="black" points="3936.2,-28.47 3945.93,-24.27 3935.7,-21.49 3936.2,-28.47"/>
<text text-anchor="middle" x="3756.33" y="-58.2" font-family="Times,serif" font-size="14.00">puzzle&#45;2</text>
</g>
<!-- &#45;&gt;primitives/puzzle.dsn -->
<g id="edge35" class="edge">
<title>&#45;&gt;primitives/puzzle.dsn</title>
<path fill="none" stroke="black" d="M3212.79,-106.24C3315,-107.55 3673.98,-109.27 3780.42,-70.8 3792.26,-66.52 3791.59,-58.81 3803.23,-54 3844.12,-37.1 3892.06,-28.23 3933.8,-23.62"/>
<polygon fill="black" stroke="black" points="3934.01,-27.12 3943.6,-22.62 3933.3,-20.16 3934.01,-27.12"/>
<text text-anchor="middle" x="3830.83" y="-58.2" font-family="Times,serif" font-size="14.00">puzzle&#45;20</text>
</g>
<!-- &#45;&gt;primitives/puzzle.dsn -->
<g id="edge36" class="edge">
<title>&#45;&gt;primitives/puzzle.dsn</title>
<path fill="none" stroke="black" d="M3212.63,-105.31C3330.87,-103.04 3796.94,-92.79 3858.42,-70.8 3870.28,-66.56 3869.78,-59.23 3881.23,-54 3903.03,-44.05 3927.88,-36.82 3951.2,-31.61"/>
<polygon fill="black" stroke="black" points="3951.62,-35.1 3960.67,-29.6 3950.16,-28.26 3951.62,-35.1"/>
<text text-anchor="middle" x="3908.83" y="-58.2" font-family="Times,serif" font-size="14.00">puzzle&#45;21</text>
</g>
<!-- &#45;&gt;primitives/puzzle.dsn -->
<g id="edge37" class="edge">
<title>&#45;&gt;primitives/puzzle.dsn</title>
<path fill="none" stroke="black" d="M3212.75,-105.46C3339.53,-103.78 3867.22,-95.33 3936.42,-70.8 3948.29,-66.59 3948.37,-60.37 3959.23,-54 3968.09,-48.81 3977.85,-43.85 3987.36,-39.37"/>
<polygon fill="black" stroke="black" points="3988.52,-42.69 3996.16,-35.36 3985.61,-36.33 3988.52,-42.69"/>
<text text-anchor="middle" x="3986.83" y="-58.2" font-family="Times,serif" font-size="14.00">puzzle&#45;22</text>
</g>
<!-- &#45;&gt;primitives/puzzle.dsn -->
<g id="edge38" class="edge">
<title>&#45;&gt;primitives/puzzle.dsn</title>
<path fill="none" stroke="black" d="M3212.71,-105.46C3352.23,-103.63 3980.75,-94.12 4014.42,-70.8 4022.33,-65.32 4027.41,-56.4 4030.67,-47.49"/>
<polygon fill="black" stroke="black" points="4034.02,-48.5 4033.47,-37.92 4027.3,-46.54 4034.02,-48.5"/>
<text text-anchor="middle" x="4055.18" y="-58.2" font-family="Times,serif" font-size="14.00">puzzle&#45;23</text>
</g>
<!-- &#45;&gt;primitives/puzzle.dsn -->
<g id="edge39" class="edge">
<title>&#45;&gt;primitives/puzzle.dsn</title>
<path fill="none" stroke="black" d="M3212.82,-105.79C3360.42,-105.61 4055.39,-103.06 4086.42,-70.8 4095.54,-61.32 4088.72,-50.89 4077.53,-41.89"/>
<polygon fill="black" stroke="black" points="4079.71,-39.14 4069.53,-36.19 4075.65,-44.85 4079.71,-39.14"/>
<text text-anchor="middle" x="4118.24" y="-58.2" font-family="Times,serif" font-size="14.00">puzzle&#45;24</text>
</g>
<!-- &#45;&gt;primitives/puzzle.dsn -->
<g id="edge40" class="edge">
<title>&#45;&gt;primitives/puzzle.dsn</title>
<path fill="none" stroke="black" d="M3212.7,-105.86C3366.14,-106.09 4116.04,-105.42 4149.42,-70.8 4166.36,-53.24 4146.3,-41.08 4118.61,-32.99"/>
<polygon fill="black" stroke="black" points="4119.72,-29.66 4109.15,-30.47 4117.92,-36.42 4119.72,-29.66"/>
<text text-anchor="middle" x="4183.22" y="-58.2" font-family="Times,serif" font-size="14.00">puzzle&#45;25</text>
</g>
<!-- &#45;&gt;primitives/puzzle.dsn -->
<g id="edge41" class="edge">
<title>&#45;&gt;primitives/puzzle.dsn</title>
<path fill="none" stroke="black" d="M3212.69,-105.93C3372.2,-106.55 4178.61,-107.85 4214.42,-70.8 4244.19,-40 4194.91,-27.23 4140.71,-22.06"/>
<polygon fill="black" stroke="black" points="4141.24,-18.59 4130.98,-21.22 4140.64,-25.56 4141.24,-18.59"/>
<text text-anchor="middle" x="4250.95" y="-58.2" font-family="Times,serif" font-size="14.00">puzzle&#45;26</text>
</g>
<!-- &#45;&gt;primitives/puzzle.dsn -->
<g id="edge42" class="edge">
<title>&#45;&gt;primitives/puzzle.dsn</title>
<path fill="none" stroke="black" d="M3212.86,-105.99C3378.94,-107.01 4244.08,-110.39 4282.42,-70.8 4287.62,-65.44 4287.32,-59.64 4282.42,-54 4263.83,-32.57 4199.41,-23.93 4141.16,-20.58"/>
<polygon fill="black" stroke="black" points="4141.67,-17.1 4131.5,-20.08 4141.3,-24.09 4141.67,-17.1"/>
<text text-anchor="middle" x="4313.8" y="-58.2" font-family="Times,serif" font-size="14.00">puzzle&#45;27</text>
</g>
<!-- &#45;&gt;primitives/puzzle.dsn -->
<g id="edge43" class="edge">
<title>&#45;&gt;primitives/puzzle.dsn</title>
<path fill="none" stroke="black" d="M3212.72,-105.5C3385.88,-103.51 4325.05,-91.8 4345.42,-70.8 4376.41,-38.86 4241.57,-26.59 4140.21,-21.89"/>
<polygon fill="black" stroke="black" points="4140.62,-18.41 4130.47,-21.46 4140.31,-25.4 4140.62,-18.41"/>
<text text-anchor="middle" x="4377.53" y="-58.2" font-family="Times,serif" font-size="14.00">puzzle&#45;28</text>
</g>
<!-- &#45;&gt;primitives/puzzle.dsn -->
<g id="edge44" class="edge">
<title>&#45;&gt;primitives/puzzle.dsn</title>
<path fill="none" stroke="black" d="M3212.77,-105.54C3391.6,-103.78 4387.85,-93 4409.42,-70.8 4448.75,-30.34 4265.46,-20.89 4141.89,-19.03"/>
<polygon fill="black" stroke="black" points="4142.06,-15.53 4132.01,-18.89 4141.96,-22.53 4142.06,-15.53"/>
<text text-anchor="middle" x="4442.43" y="-58.2" font-family="Times,serif" font-size="14.00">puzzle&#45;29</text>
</g>
<!-- &#45;&gt;primitives/puzzle.dsn -->
<g id="edge45" class="edge">
<title>&#45;&gt;primitives/puzzle.dsn</title>
<path fill="none" stroke="black" d="M3212.72,-105.58C3396.91,-104.04 4451.62,-94.23 4474.42,-70.8 4479.63,-65.45 4479.49,-59.49 4474.42,-54 4452.28,-30.02 4263.96,-22.46 4141.57,-20.08"/>
<polygon fill="black" stroke="black" points="4141.88,-16.59 4131.82,-19.9 4141.75,-23.59 4141.88,-16.59"/>
<text text-anchor="middle" x="4502.37" y="-58.2" font-family="Times,serif" font-size="14.00">puzzle&#45;3</text>
</g>
<!-- &#45;&gt;primitives/puzzle.dsn -->
<g id="edge46" class="edge">
<title>&#45;&gt;primitives/puzzle.dsn</title>
<path fill="none" stroke="black" d="M3212.68,-105.61C3401.38,-104.26 4506.57,-95.28 4530.42,-70.8 4535.63,-65.45 4535.51,-59.46 4530.42,-54 4504.54,-26.22 4279.14,-20.11 4141.9,-19"/>
<polygon fill="black" stroke="black" points="4142.08,-15.5 4132.06,-18.92 4142.03,-22.5 4142.08,-15.5"/>
<text text-anchor="middle" x="4561.88" y="-58.2" font-family="Times,serif" font-size="14.00">puzzle&#45;30</text>
</g>
<!-- &#45;&gt;primitives/puzzle.dsn -->
<g id="edge47" class="edge">
<title>&#45;&gt;primitives/puzzle.dsn</title>
<path fill="none" stroke="black" d="M3212.71,-105.65C3406.55,-104.49 4568.39,-96.47 4593.42,-70.8 4598.64,-65.46 4598.53,-59.44 4593.42,-54 4563.27,-21.89 4294.97,-17.74 4142.02,-18.03"/>
<polygon fill="black" stroke="black" points="4142.26,-14.53 4132.27,-18.05 4142.28,-21.53 4142.26,-14.53"/>
<text text-anchor="middle" x="4624.89" y="-58.2" font-family="Times,serif" font-size="14.00">puzzle&#45;31</text>
</g>
<!-- &#45;&gt;primitives/puzzle.dsn -->
<g id="edge48" class="edge">
<title>&#45;&gt;primitives/puzzle.dsn</title>
<path fill="none" stroke="black" d="M3212.65,-105.68C3411.26,-104.7 4630.2,-97.66 4656.42,-70.8 4661.64,-65.46 4661.55,-59.43 4656.42,-54 4639.02,-35.58 4312.72,-25.34 4140.66,-21.2"/>
<polygon fill="black" stroke="black" points="4140.9,-17.7 4130.82,-20.96 4140.73,-24.7 4140.9,-17.7"/>
<text text-anchor="middle" x="4684.4" y="-58.2" font-family="Times,serif" font-size="14.00">puzzle&#45;4</text>
</g>
<!-- &#45;&gt;primitives/puzzle.dsn -->
<g id="edge49" class="edge">
<title>&#45;&gt;primitives/puzzle.dsn</title>
<path fill="none" stroke="black" d="M3212.71,-105.7C3415.82,-104.89 4685.14,-98.71 4712.42,-70.8 4717.64,-65.46 4717.56,-59.41 4712.42,-54 4693.1,-33.65 4326.31,-24.18 4141.29,-20.69"/>
<polygon fill="black" stroke="black" points="4141.49,-17.19 4131.43,-20.5 4141.36,-24.19 4141.49,-17.19"/>
<text text-anchor="middle" x="4740.4" y="-58.2" font-family="Times,serif" font-size="14.00">puzzle&#45;5</text>
</g>
<!-- &#45;&gt;primitives/puzzle.dsn -->
<g id="edge50" class="edge">
<title>&#45;&gt;primitives/puzzle.dsn</title>
<path fill="none" stroke="black" d="M3212.71,-105.72C3420.07,-105.07 4740.09,-99.77 4768.42,-70.8 4773.64,-65.46 4773.58,-59.4 4768.42,-54 4747.15,-31.68 4338.32,-23.1 4141.11,-20.24"/>
<polygon fill="black" stroke="black" points="4141.43,-16.75 4131.38,-20.1 4141.33,-23.74 4141.43,-16.75"/>
<text text-anchor="middle" x="4796.41" y="-58.2" font-family="Times,serif" font-size="14.00">puzzle&#45;6</text>
</g>
<!-- &#45;&gt;primitives/puzzle.dsn -->
<g id="edge51" class="edge">
<title>&#45;&gt;primitives/puzzle.dsn</title>
<path fill="none" stroke="black" d="M3212.66,-105.74C3424.02,-105.24 4795.03,-100.83 4824.42,-70.8 4829.65,-65.46 4829.58,-59.4 4824.42,-54 4801.2,-29.72 4350.43,-22.1 4141.32,-19.86"/>
<polygon fill="black" stroke="black" points="4141.58,-16.36 4131.55,-19.76 4141.51,-23.36 4141.58,-16.36"/>
<text text-anchor="middle" x="4852.41" y="-58.2" font-family="Times,serif" font-size="14.00">puzzle&#45;7</text>
</g>
<!-- &#45;&gt;primitives/puzzle.dsn -->
<g id="edge52" class="edge">
<title>&#45;&gt;primitives/puzzle.dsn</title>
<path fill="none" stroke="black" d="M3212.56,-105.76C3427.67,-105.41 4849.96,-101.9 4880.42,-70.8 4885.65,-65.47 4885.59,-59.39 4880.42,-54 4855.24,-27.75 4362.04,-21.17 4141.47,-19.53"/>
<polygon fill="black" stroke="black" points="4141.76,-16.03 4131.73,-19.46 4141.7,-23.03 4141.76,-16.03"/>
<text text-anchor="middle" x="4908.42" y="-58.2" font-family="Times,serif" font-size="14.00">puzzle&#45;8</text>
</g>
<!-- &#45;&gt;primitives/puzzle.dsn -->
<g id="edge53" class="edge">
<title>&#45;&gt;primitives/puzzle.dsn</title>
<path fill="none" stroke="black" d="M3212.75,-105.78C3432.57,-105.57 4904.91,-102.95 4936.42,-70.8 4941.65,-65.47 4941.6,-59.38 4936.42,-54 4909.29,-25.79 4373.94,-20.3 4142.04,-19.24"/>
<polygon fill="black" stroke="black" points="4142.09,-15.74 4132.07,-19.2 4142.06,-22.74 4142.09,-15.74"/>
<text text-anchor="middle" x="4964.42" y="-58.2" font-family="Times,serif" font-size="14.00">puzzle&#45;9</text>
</g>
</g>
</svg>
